<svg xmlns="http://www.w3.org/2000/svg" xmlns:xlink="http://www.w3.org/1999/xlink" width="168.747" height="101" viewBox="0 0 168.747 101">
  <defs>
    <linearGradient id="linear-gradient" x1="0.21" y1="1" x2="0.856" y2="1" gradientUnits="objectBoundingBox">
      <stop offset="0" stop-color="#0ec6dd"/>
      <stop offset="1" stop-color="#0e4e80"/>
    </linearGradient>
  </defs>
  <g id="Group_16813" data-name="Group 16813" transform="translate(-206.464 -223.146)">
    <path id="Union_2" data-name="Union 2" d="M9.446,90.2C3.176,83.7,0,74.633,0,63.241A78,78,0,0,1,6.4,31.468,56.484,56.484,0,0,1,24.264,8.5,43,43,0,0,1,50.416,0c10.766,0,19.4,3.289,25.674,9.788s9.434,15.58,9.434,26.96a77.888,77.888,0,0,1-6.384,31.774A56.4,56.4,0,0,1,61.273,91.488,42.938,42.938,0,0,1,35.121,100C24.355,100,15.718,96.711,9.446,90.2Zm15.5-80.789a55.35,55.35,0,0,0-17.5,22.511A76.754,76.754,0,0,0,1.128,63.241c0,11.084,3.073,19.894,9.139,26.164s14.407,9.457,24.854,9.457A41.867,41.867,0,0,0,60.59,90.577a55.217,55.217,0,0,0,17.5-22.51A76.869,76.869,0,0,0,84.4,36.748c0-11.074-3.073-19.882-9.128-26.164S60.863,1.127,50.416,1.127A41.867,41.867,0,0,0,24.947,9.412Zm58.37,88.95,3.038-15.216.171-.136L130.09,48.868c5.2-4.222,8.865-7.808,10.879-10.675a15.135,15.135,0,0,0,2.97-8.82,8.651,8.651,0,0,0-3.414-7.2c-2.288-1.81-5.691-2.743-10.084-2.743a24.473,24.473,0,0,0-10.811,2.538,27.459,27.459,0,0,0-9.1,7.227l-.341.409-.433-.308L94.413,18.175l.33-.466A40.828,40.828,0,0,1,111.085,4.757,53.715,53.715,0,0,1,133.72,0,44.627,44.627,0,0,1,151.5,3.324a27.791,27.791,0,0,1,11.972,9.332,22.946,22.946,0,0,1,4.279,13.576A31.32,31.32,0,0,1,162.741,43.2c-3.3,5.224-9.094,11.074-17.207,17.356L121.452,79.2h39.182l-.148.683-3.631,18.482Zm57.926-77.08a9.856,9.856,0,0,1,3.824,8.091,16.277,16.277,0,0,1-3.163,9.48c-2.083,2.948-5.816,6.612-11.108,10.914l-43.4,34L84.705,97.223h71.218l3.324-16.889H118.118l26.721-20.678c8.012-6.214,13.713-11.949,16.934-17.07a30.162,30.162,0,0,0,4.837-16.354,21.881,21.881,0,0,0-4.063-12.917A26.792,26.792,0,0,0,151.042,4.36,43.536,43.536,0,0,0,133.72,1.127a52.544,52.544,0,0,0-22.157,4.667A39.825,39.825,0,0,0,96.006,17.924l13.987,10.129a28.483,28.483,0,0,1,9.138-7.113,25.78,25.78,0,0,1,11.312-2.651C135.1,18.289,138.74,19.3,141.242,21.282ZM26.153,76.648c-2.583-3.038-3.892-7.738-3.892-13.953a69.828,69.828,0,0,1,3.028-19.756,46.653,46.653,0,0,1,8.923-17.207c3.96-4.667,8.728-7.022,14.157-7.022,4.7,0,8.41,1.559,11.016,4.631,2.583,3.05,3.893,7.751,3.893,13.953a69.834,69.834,0,0,1-3.028,19.757,46.467,46.467,0,0,1-8.923,17.207c-3.972,4.677-8.728,7.033-14.157,7.033C32.458,81.291,28.76,79.732,26.153,76.648Zm8.923-50.176a45.56,45.56,0,0,0-8.695,16.786A68.814,68.814,0,0,0,23.4,62.695c0,5.941,1.218,10.391,3.619,13.225s5.736,4.234,10.151,4.234c5.076,0,9.548-2.231,13.292-6.624l.433.365-.433-.365a45.874,45.874,0,0,0,8.695-16.8,68.867,68.867,0,0,0,2.982-19.437c0-5.929-1.218-10.379-3.619-13.213-2.379-2.811-5.792-4.244-10.151-4.244C43.28,19.837,38.82,22.067,35.076,26.472Z" transform="translate(206.963 223.646)" stroke="rgba(0,0,0,0)" stroke-miterlimit="10" stroke-width="1" fill="url(#linear-gradient)"/>
  </g>
</svg>
