<svg xmlns="http://www.w3.org/2000/svg" xmlns:xlink="http://www.w3.org/1999/xlink" width="141.5" height="100" viewBox="0 0 141.5 100">
  <defs>
    <linearGradient id="linear-gradient" x1="0.21" y1="1" x2="0.856" y2="1" gradientUnits="objectBoundingBox">
      <stop offset="0" stop-color="#0ec6dd"/>
      <stop offset="1" stop-color="#0e4e80"/>
    </linearGradient>
  </defs>
  <path id="Path_16751" data-name="Path 16751" d="M256.542,314.319c-10.765,0-19.4-3.3-25.671-9.8h0c-6.27-6.5-9.445-15.567-9.445-26.957a77.987,77.987,0,0,1,6.4-31.771,56.462,56.462,0,0,1,17.865-22.963,43.01,43.01,0,0,1,26.149-8.512c10.765,0,19.4,3.3,25.671,9.8s9.433,15.578,9.433,26.957a78.058,78.058,0,0,1-6.384,31.771,56.389,56.389,0,0,1-17.865,22.963A43.011,43.011,0,0,1,256.542,314.319Zm15.294-98.862a41.866,41.866,0,0,0-25.467,8.284,55.271,55.271,0,0,0-17.5,22.508,76.761,76.761,0,0,0-6.315,31.316c0,11.083,3.072,19.891,9.137,26.161h0c6.054,6.281,14.406,9.456,24.852,9.456a41.868,41.868,0,0,0,25.467-8.284,55.366,55.366,0,0,0,17.5-22.508,76.861,76.861,0,0,0,6.3-31.316c0-11.072-3.072-19.879-9.126-26.161S282.27,215.457,271.836,215.457Zm-13.245,80.155c-4.711,0-8.409-1.559-11.015-4.643-2.583-3.038-3.892-7.738-3.892-13.951a69.692,69.692,0,0,1,3.027-19.754,46.657,46.657,0,0,1,8.921-17.206c3.96-4.665,8.728-7.032,14.156-7.032,4.7,0,8.409,1.57,11.015,4.643,2.583,3.05,3.892,7.749,3.892,13.951a70.351,70.351,0,0,1-3.027,19.754,46.72,46.72,0,0,1-8.921,17.205h0C268.775,293.245,264.018,295.612,258.591,295.612Zm11.2-61.447c-5.086,0-9.559,2.23-13.291,6.634a45.577,45.577,0,0,0-8.694,16.784,68.77,68.77,0,0,0-2.993,19.436c0,5.94,1.229,10.389,3.63,13.223s5.735,4.233,10.15,4.233c5.075,0,9.547-2.23,13.291-6.623l.432.364-.432-.364a45.882,45.882,0,0,0,8.693-16.8,68.914,68.914,0,0,0,2.982-19.436c0-5.928-1.218-10.378-3.619-13.211C277.56,235.587,274.146,234.164,269.788,234.164Zm73.794,78.516H320.3l.136-.683,15.419-77.151H316.749l.137-.683,3.641-18.207h42.4l-.136.683Zm-21.894-1.138h20.96l18.89-94.447H321.46l-3.323,16.614h19.105l-.137.683Z" transform="translate(-221.426 -214.319)" fill="url(#linear-gradient)"/>
</svg>
