<svg xmlns="http://www.w3.org/2000/svg" xmlns:xlink="http://www.w3.org/1999/xlink" width="181.957" height="100.999" viewBox="0 0 181.957 100.999">
  <defs>
    <linearGradient id="linear-gradient" x1="0.21" y1="1" x2="0.856" y2="1" gradientUnits="objectBoundingBox">
      <stop offset="0" stop-color="#0ec6dd"/>
      <stop offset="1" stop-color="#0e4e80"/>
    </linearGradient>
  </defs>
  <g id="Group_16815" data-name="Group 16815" transform="translate(-207.065 -235.31)">
    <path id="Union_4" data-name="Union 4" d="M9.457,90.2C3.187,83.7,0,74.632,0,63.24A77.992,77.992,0,0,1,6.4,31.466,56.5,56.5,0,0,1,24.274,8.5,43.005,43.005,0,0,1,50.426,0C61.181,0,69.818,3.289,76.089,9.787s9.446,15.58,9.446,26.971A78.142,78.142,0,0,1,79.15,68.532,56.384,56.384,0,0,1,61.272,91.486,42.945,42.945,0,0,1,35.12,100C24.365,100,15.728,96.709,9.457,90.2ZM24.946,9.411a55.547,55.547,0,0,0-17.5,22.511A76.936,76.936,0,0,0,1.138,63.24c0,11.084,3.073,19.893,9.139,26.175s14.407,9.457,24.843,9.457a41.938,41.938,0,0,0,25.48-8.3,55.353,55.353,0,0,0,17.5-22.5A76.947,76.947,0,0,0,84.4,36.758c0-11.084-3.073-19.892-9.128-26.174S60.862,1.127,50.426,1.127A41.93,41.93,0,0,0,24.946,9.411ZM134.526,98.36l4.1-20.075H87.151l3.027-15.716.114-.125,56.423-60.8h25.708l-52.44,57.482h23.375l3.551-17.879H168.69l-.137.671L165.14,59.121h15.7l-3.915,19.164h-15.7L157.264,98.36ZM91.236,63.1,88.527,77.147h51.485l-4.1,20.086h20.416l3.96-20.086H176l3.459-16.888h-15.7l.136-.683L167.3,42.369h-19.46l-3.551,17.89h-26.88l52.44-57.493H147.216ZM26.152,76.646c-2.583-3.039-3.892-7.739-3.892-13.953A69.848,69.848,0,0,1,25.3,42.937a46.645,46.645,0,0,1,8.91-17.206c3.961-4.666,8.729-7.022,14.157-7.022,4.712,0,8.422,1.559,11.027,4.632,2.583,3.05,3.881,7.75,3.881,13.952a69.817,69.817,0,0,1-3.027,19.756,46.612,46.612,0,0,1-8.91,17.207c-3.971,4.677-8.729,7.033-14.157,7.033C32.468,81.289,28.758,79.731,26.152,76.646ZM35.074,26.47a45.584,45.584,0,0,0-8.695,16.786A68.809,68.809,0,0,0,23.4,62.693c0,5.941,1.229,10.39,3.619,13.224,2.412,2.845,5.735,4.245,10.162,4.245,5.076,0,9.548-2.242,13.293-6.635l.432.365-.432-.365a45.886,45.886,0,0,0,8.694-16.8,69.283,69.283,0,0,0,2.982-19.438c0-5.929-1.229-10.379-3.619-13.213-2.379-2.811-5.8-4.244-10.163-4.244C43.291,19.836,38.818,22.077,35.074,26.47Z" transform="translate(207.565 235.809)" stroke="rgba(0,0,0,0)" stroke-width="1" fill="url(#linear-gradient)"/>
  </g>
</svg>
