<?xml version="1.0" encoding="utf-8"?>
<!-- Generator: Adobe Illustrator 24.3.0, SVG Export Plug-In . SVG Version: 6.00 Build 0)  -->
<svg version="1.1" id="レイヤー_1" xmlns="http://www.w3.org/2000/svg" xmlns:xlink="http://www.w3.org/1999/xlink" x="0px"
	 y="0px" viewBox="0 0 20 20" style="enable-background:new 0 0 20 20;" xml:space="preserve">
<style type="text/css">
	.st0{fill:#4C7F30;}
	.st1{fill:#FFFFFF;}
</style>
<g>
	<g>
	</g>
	<g>
	</g>
	<g>
	</g>
	<g>
	</g>
</g>
<path class="st0" d="M10,0C4.5,0,0,4.5,0,10s4.5,10,10,10s10-4.5,10-10S15.5,0,10,0z"/>
<path class="st1" d="M9.9,9.8l0.5,0.3c0.3,0.2,0.4,0.6,0.2,0.9l-2.5,4.2c-0.2,0.3-0.6,0.4-0.9,0.2l-0.5-0.3
	c-0.3-0.2-0.4-0.6-0.2-0.9L8.9,10C9.1,9.7,9.5,9.6,9.9,9.8z"/>
<path class="st1" d="M9.4,13"/>
<path class="st1" d="M10,10L10,10c0.5,0,1,0.4,1,1V17c0,0.5-0.4,1-1,1h0c-0.5,0-1-0.4-1-1V11C9,10.4,9.5,10,10,10z"/>
</svg>
