<svg xmlns="http://www.w3.org/2000/svg" width="64" height="64" viewBox="0 0 64 64">
  <g id="Group_16385" data-name="Group 16385" transform="translate(-770 -1695)">
    <rect id="Rectangle_49" data-name="Rectangle 49" width="64" height="64" rx="32" transform="translate(770 1695)" fill="#22a0db"/>
    <g id="icon-faq" transform="translate(786 1713)">
      <path id="Path_73" data-name="Path 73" d="M19.6,5H12.4A12.4,12.4,0,0,0,0,17.4H0A12.4,12.4,0,0,0,12.4,29.8H14v2.4a.8.8,0,0,0,.806.8.782.782,0,0,0,.56-.236L18.33,29.8H19.6A12.4,12.4,0,0,0,32,17.4h0A12.4,12.4,0,0,0,19.6,5ZM12.4,26.6a9.2,9.2,0,1,1,0-18.4h7.2a9.2,9.2,0,0,1,0,18.4Z" transform="translate(0 -5)" fill="#fff"/>
      <path id="Path_74" data-name="Path 74" d="M33.869,20c-2.157,0-3.95,1.024-3.95,3.383h2.835c0-.585.53-.878,1.115-.878a.985.985,0,0,1,1.08,1.024c0,.8-.384,1.206-1.024,1.81l-.806.768a2.39,2.39,0,0,0-.786,2.048v1.189h2.56v-.512a1.49,1.49,0,0,1,.659-1.17l.658-.6a4.664,4.664,0,0,0,1.774-3.528c0-2.505-1.92-3.53-4.115-3.53Zm-.256,9.947a1.427,1.427,0,0,0-1.426,1.426h0a1.426,1.426,0,0,0,2.853,0h0A1.426,1.426,0,0,0,33.613,29.947Z" transform="translate(-17.951 -14)" fill="#fff"/>
    </g>
  </g>
</svg>
