<svg xmlns="http://www.w3.org/2000/svg" width="257.935" height="48.085" viewBox="0 0 257.935 48.085">
  <g id="Group_17365" data-name="Group 17365" transform="translate(-1065 -373.15)">
    <g id="Group_17114" data-name="Group 17114" transform="translate(1126.036 380.885)">
      <rect id="Rectangle_11600" data-name="Rectangle 11600" width="3.993" height="3.993" transform="translate(21.757 8.68)" fill="#656464"/>
      <path id="Path_17015" data-name="Path 17015" d="M462.791,201.132h-6.618A4.271,4.271,0,0,0,451.9,205.4v7.417a4.271,4.271,0,0,0,4.271,4.272h6.618a4.271,4.271,0,0,0,4.271-4.272V205.4a4.271,4.271,0,0,0-4.271-4.271m.28,11.345a2.382,2.382,0,0,1-2.632,2.619h-1.913a2.382,2.382,0,0,1-2.632-2.619v-6.73a2.381,2.381,0,0,1,2.632-2.618h1.913a2.381,2.381,0,0,1,2.632,2.618Z" transform="translate(-348.714 -184.477)" fill="#656464"/>
      <path id="Path_17016" data-name="Path 17016" d="M436.639,205.4v11.688h3.992V205.747a2.382,2.382,0,0,1,2.633-2.619h4.04v-2h-6.393a4.271,4.271,0,0,0-4.272,4.271" transform="translate(-345.969 -184.477)" fill="#656464"/>
      <path id="Path_17017" data-name="Path 17017" d="M426.412,191.409H414.3v23.934h3.992V204.357l8.123,0a4.272,4.272,0,0,0,4.271-4.271v-4.4a4.272,4.272,0,0,0-4.271-4.271m.279,8.331a2.382,2.382,0,0,1-2.632,2.619l-5.77,0v-8.956h5.77a2.382,2.382,0,0,1,2.632,2.619Z" transform="translate(-341.952 -182.729)" fill="#656464"/>
      <rect id="Rectangle_11601" data-name="Rectangle 11601" width="3.992" height="15.96" transform="translate(21.759 16.656)" fill="#656464"/>
      <path id="Path_17018" data-name="Path 17018" d="M326.091,191.409v2h7.585v21.939h3.992V193.4h7.584v-2Z" transform="translate(-326.091 -182.729)" fill="#656464"/>
      <rect id="Rectangle_11602" data-name="Rectangle 11602" width="7.539" height="1.995" transform="translate(122.398 19.659)" fill="#656464"/>
      <path id="Path_17019" data-name="Path 17019" d="M403.185,201.132h-6.618A4.271,4.271,0,0,0,392.3,205.4v7.418a4.271,4.271,0,0,0,4.272,4.271h6.618a4.271,4.271,0,0,0,4.272-4.271v-.715h-3.992v.371a2.382,2.382,0,0,1-2.632,2.62H398.92a2.382,2.382,0,0,1-2.633-2.62V210.11h11.169V205.4a4.271,4.271,0,0,0-4.272-4.271m.28,6.982h-7.177v-2.367a2.382,2.382,0,0,1,2.633-2.619h1.913a2.382,2.382,0,0,1,2.632,2.619Z" transform="translate(-337.995 -184.477)" fill="#656464"/>
      <path id="Path_17020" data-name="Path 17020" d="M379.772,201.132h-4.609a4.244,4.244,0,0,0-2.275.661,4.246,4.246,0,0,0-2.276-.661H366a4.271,4.271,0,0,0-4.271,4.271v11.688h3.992V205.747a2.584,2.584,0,1,1,5.167,0v11.345h3.992V205.747a2.585,2.585,0,1,1,5.169,0v11.345h3.992V205.4a4.272,4.272,0,0,0-4.271-4.271" transform="translate(-332.499 -184.477)" fill="#656464"/>
      <path id="Path_17021" data-name="Path 17021" d="M514.193,180.825v27.742l-18.6-27.73h0v-.012h-5.439V213.44H495.6V185.718l18.6,27.722h5.439V180.825Z" transform="translate(-355.593 -180.825)" fill="#656464"/>
      <path id="Path_17022" data-name="Path 17022" d="M559.7,180.825h-6.64l-9.061,12.94-10.079-12.94H530.6l11.828,15.185-12.2,17.43h6.64l9.06-12.94L556,213.44h3.32l-11.827-15.185Z" transform="translate(-362.797 -180.825)" fill="#656464"/>
    </g>
    <path id="Path_17033" data-name="Path 17033" d="M267.456,227.73H257V217.277h7.1a3.353,3.353,0,0,1,3.353,3.354Z" transform="translate(807.997 193.505)" fill="#207cbf"/>
    <path id="Path_17034" data-name="Path 17034" d="M282.75,227.73H272.3V217.277h7.1a3.353,3.353,0,0,1,3.353,3.354Z" transform="translate(805.247 193.505)" fill="#207cbf"/>
    <path id="Path_17035" data-name="Path 17035" d="M298.043,227.73H287.59V217.277h7.1a3.353,3.353,0,0,1,3.353,3.354Z" transform="translate(802.497 193.505)" fill="#207cbf"/>
    <path id="Path_17036" data-name="Path 17036" d="M313.337,227.73H302.884V217.277h7.1a3.354,3.354,0,0,1,3.353,3.354Z" transform="translate(799.747 193.505)" fill="#207cbf"/>
    <path id="Path_17037" data-name="Path 17037" d="M282.75,212.436H272.3V201.983h7.1a3.353,3.353,0,0,1,3.353,3.353Z" transform="translate(805.247 196.255)" fill="#448d9d"/>
    <path id="Path_17038" data-name="Path 17038" d="M298.043,212.436H287.59V201.983h7.1a3.353,3.353,0,0,1,3.353,3.353Z" transform="translate(802.497 196.255)" fill="#448d9d"/>
    <path id="Path_17039" data-name="Path 17039" d="M313.337,212.436H302.884V201.983h7.1a3.354,3.354,0,0,1,3.353,3.353Z" transform="translate(799.747 196.255)" fill="#448d9d"/>
    <path id="Path_17040" data-name="Path 17040" d="M298.043,197.142H287.59V186.689h7.1a3.353,3.353,0,0,1,3.353,3.354Z" transform="translate(802.497 199.005)" fill="#5d9c6e"/>
    <path id="Path_17041" data-name="Path 17041" d="M313.337,197.142H302.884V186.689h7.1a3.354,3.354,0,0,1,3.353,3.354Z" transform="translate(799.747 199.005)" fill="#5d9c6e"/>
    <path id="Path_17042" data-name="Path 17042" d="M313.337,181.848H302.884V171.395h7.1a3.354,3.354,0,0,1,3.353,3.354Z" transform="translate(799.747 201.755)" fill="#73ab31"/>
  </g>
</svg>
