<svg id="Group_17357" data-name="Group 17357" xmlns="http://www.w3.org/2000/svg" xmlns:xlink="http://www.w3.org/1999/xlink" width="307" height="39.761" viewBox="0 0 307 39.761">
  <defs>
    <clipPath id="clip-path">
      <path id="Path_16554" data-name="Path 16554" d="M538.1,619.931v1.585h.4c1.755,0,2.051,0,2.051.531a7.2,7.2,0,0,1-.583,1.933c-.1.253-.22.565-.363.928l-5.756,14.831h-.009L528.4,625.2a20.743,20.743,0,0,1-1.088-2.971c0-.473.041-.709,1.907-.709h.405v-1.585H516.974v1.585h.878c1.478,0,1.739.253,1.933.574a21.869,21.869,0,0,1,1.578,3.106l8.389,22.486h4.939l8.711-22.5a21.566,21.566,0,0,1,1.434-3.225c.187-.236.288-.464,1.732-.431l.489-.008v-1.585Z" transform="translate(-516.974 -619.931)" fill="none"/>
    </clipPath>
    <radialGradient id="radial-gradient" cx="0.5" cy="0.5" r="0.521" gradientTransform="matrix(0.922, 0, 0, -1, -1.344, 17.368)" gradientUnits="objectBoundingBox">
      <stop offset="0" stop-color="#00a0e9"/>
      <stop offset="1" stop-color="#0068b7"/>
    </radialGradient>
    <clipPath id="clip-path-2">
      <path id="Path_16555" data-name="Path 16555" d="M331.058,613.346a40.913,40.913,0,0,0-5.253.537c-8.314,1.291-19.524,6.508-29.855,13.471-15.632,10.544-26.774,25.255-26.774,25.255s17.219-19.034,26.706-19.666c2.777-.187,2.912,1.662,2.777,4.067a127.593,127.593,0,0,1-2.431,16.1s8.6-27.687,24.344-33.409c16.291-5.925-9.741,16.316-9.741,16.316,24.371-16.785,28.5-22.5,20.931-22.668Z" transform="translate(-269.176 -613.346)" fill="none"/>
    </clipPath>
    <radialGradient id="radial-gradient-2" cx="0.47" cy="0.5" r="0.685" gradientTransform="matrix(0.567, 0, 0, -1, -1.676, 12.456)" xlink:href="#radial-gradient"/>
    <clipPath id="clip-path-3">
      <path id="Path_16556" data-name="Path 16556" d="M300.038,616.607c-4.628,3.709-14.109,14.925-14.3,15.156,2.251-2.628,12.221-10.582,15.334-13,4.584-3.562,5.242-2.81,5.428-4.305.085-.691-.2-.97-.726-.97-1.317,0-4.093,1.806-5.731,3.114" transform="translate(-285.734 -613.493)" fill="none"/>
    </clipPath>
    <radialGradient id="radial-gradient-3" cx="0.498" cy="0.5" r="0.535" gradientTransform="matrix(0.876, 0, 0, -1, -1.708, 27.091)" xlink:href="#radial-gradient"/>
    <clipPath id="clip-path-4">
      <path id="Path_16558" data-name="Path 16558" d="M550.357,623.411q-3.331,3.552-3.456,9.919v.937q.122,6.187,3.549,9.9c2.364,2.566,6.965,3.849,10.957,3.849A46.6,46.6,0,0,0,571.8,647V636.966a.413.413,0,0,1,.379-.438,5.275,5.275,0,0,1,.659-.025c.22,0,.447.008.658-.009l.33-.017v-1.705h-9.994v1.705l.33.017a9,9,0,0,1,1.206.042.5.5,0,0,1,.506.506v7.8a.783.783,0,0,1-.566.759,7.475,7.475,0,0,1-1.578.05c-3.19,0-5.4-.7-7.208-2.912s-2.693-4.836-2.693-8.743c0-4.179.8-7.108,2.414-9.378s5.057-3.411,8.036-3.25c4.8.253,5.739,3.942,5.774,4.271l.025.363h1.738v-5.183a34.179,34.179,0,0,0-4.776-1.046,44.117,44.117,0,0,0-5.529-.338c-4.186,0-8.854,1.511-11.151,3.975" transform="translate(-546.901 -619.436)" fill="none"/>
    </clipPath>
    <radialGradient id="radial-gradient-4" cy="0.5" r="0.486" gradientTransform="matrix(1.062, 0, 0, -1, 1.262, 16.899)" xlink:href="#radial-gradient"/>
  </defs>
  <path id="Path_16548" data-name="Path 16548" d="M352.894,622.206h-3.435a23.383,23.383,0,0,0-2.927.164c-.5.072-.746.522-.746,1.347q0,.929-.036,1.6l-.019.364H343.82V620.75h23.128v4.934h-1.915l-.017-.364q-.056-.675-.056-1.6c0-.825-.242-1.276-.728-1.347a23.623,23.623,0,0,0-2.921-.164h-3.44v20.777a5.748,5.748,0,0,0,.438,2.942c.289.343.3.553,1.743.627l.781.016v1.13H349.951v-1.13l.784-.016c1.445-.075,1.448-.284,1.734-.627a5.889,5.889,0,0,0,.427-2.942Z" transform="translate(-268.544 -613.283)" fill="#231815"/>
  <path id="Path_16549" data-name="Path 16549" d="M378.049,627.865v15.058q0,2.473.4,2.949c.265.315.279.522,1.765.62l.344.016v1.13H370.231v-1.13l.348-.016c1.467-.1,2.052-.308,2.325-.627s.41-1.3.41-2.942V632.581q0-2.458-.41-2.932c-.272-.317-.857-.528-2.325-.637l-.348-.018v-1.129Z" transform="translate(-268.32 -613.223)" fill="#231815"/>
  <path id="Path_16550" data-name="Path 16550" d="M391.127,631.549a11.408,11.408,0,0,1,3.09-3.065,5.523,5.523,0,0,1,3.157-1.072,4.494,4.494,0,0,1,3.153,1.035,4.929,4.929,0,0,1,1.636,3.1,13.7,13.7,0,0,1,3.5-3.1,6.946,6.946,0,0,1,3.55-1.035c3.546,0,6.266,1.944,6.266,5.835v9.678q0,2.475.391,2.941c.26.309-.009.517,1.484.627l.345.017v1.13H407.57v-1.13l.345-.017c1.494-.11,2.085-.319,2.346-.627s.389-1.292.389-2.941v-9.039a6.194,6.194,0,0,0-.611-3.257,2.093,2.093,0,0,0-1.973-.9c-1.47-.028-3.094,1.131-4.377,3.066v10.135a6.078,6.078,0,0,0,.4,2.941c.266.321-.065.531,1.418.627l.348.017.055,1.13H395.784l-.055-1.13.345-.017c1.494-.1,2.087-.3,2.345-.619a6.173,6.173,0,0,0,.392-2.95v-9.039a6.3,6.3,0,0,0-.6-3.24,1.7,1.7,0,0,0-1.737-.922,5.464,5.464,0,0,0-3.342,1.831,8.464,8.464,0,0,0-2,2.988v8.381q0,2.475.4,2.95c.265.315.571.522,2.056.619l.34.017v1.13H384.17v-1.13l.346-.017c1.47-.1,1.192-.307,1.465-.627s.352-1.3.352-2.941V632.583q0-2.458-.409-2.932c-.271-.316.005-.527-1.464-.637l-.347-.017v-1.129h7.014Z" transform="translate(-268.202 -613.227)" fill="#231815"/>
  <path id="Path_16551" data-name="Path 16551" d="M451.826,636.447v6.536q0,2.423.438,2.942c.291.344-.413.554,1.032.627l.781.017v1.13H443.955v-1.13l.347-.017c1.468-.1,1.2-.306,1.467-.627s.41-1.3.41-2.942V625.468q0-2.466-.41-2.936c-.271-.313-.285-.52-1.755-.615l-.345-.036v-1.29h10.877l1.249.032q7.806,0,7.81,7.112a7.728,7.728,0,0,1-2.838,6.532q-2.83,2.178-8.521,2.18Zm0-1.219h.627a7.046,7.046,0,0,0,5.334-1.855q1.774-1.859,1.772-5.558,0-3.145-1.349-4.5t-4.52-1.346h-1.864Z" transform="translate(-267.698 -613.285)" fill="#231815"/>
  <path id="Path_16552" data-name="Path 16552" d="M474.427,633.258v9.668q0,2.458.428,2.95c.286.327.586.534,2.042.619l.784.017v1.13H466.9v-1.13l.917-.017c1.47-.1,1.055-.308,1.328-.627s.41-1.3.41-2.942V632.584a6.691,6.691,0,0,0-.41-2.932c-.189-.3-.3-.57-1.328-.637L466.9,629v-1.129h7.528v3.143c1.638-2.779,4.927-3.6,7.575-3.6a4.337,4.337,0,0,1,1.218.2v3.68H481.2a1.128,1.128,0,0,0-1.2-.931c-1.794.063-4.412.966-5.568,2.9" transform="translate(-267.501 -613.227)" fill="#231815"/>
  <path id="Path_16553" data-name="Path 16553" d="M494.855,648.1a8.874,8.874,0,0,1-6.9-2.777,12.577,12.577,0,0,1,0-15.137,9.992,9.992,0,0,1,13.811,0,12.6,12.6,0,0,1-.009,15.137,8.879,8.879,0,0,1-6.9,2.777m-.006-1.113q1.956,0,3.249-2.617a17.512,17.512,0,0,0,0-13.207q-1.3-2.638-3.249-2.639t-3.238,2.639a17.536,17.536,0,0,0-.006,13.207q1.289,2.62,3.244,2.617" transform="translate(-267.344 -613.227)" fill="#231815"/>
  <rect id="Rectangle_11441" data-name="Rectangle 11441" width="8.197" height="2.695" transform="translate(241.357 21.657)" fill="#231815"/>
  <g id="Group_16497" data-name="Group 16497" transform="translate(249.897 6.641)">
    <g id="Group_16496" data-name="Group 16496" clip-path="url(#clip-path)">
      <rect id="Rectangle_11442" data-name="Rectangle 11442" width="30.084" height="27.751" fill="url(#radial-gradient)"/>
    </g>
  </g>
  <g id="Group_16499" data-name="Group 16499" transform="translate(0)">
    <g id="Group_16498" data-name="Group 16498" clip-path="url(#clip-path-2)">
      <rect id="Rectangle_11443" data-name="Rectangle 11443" width="70.159" height="39.761" transform="translate(0)" fill="url(#radial-gradient-2)"/>
    </g>
  </g>
  <g id="Group_16501" data-name="Group 16501" transform="translate(16.698 0.148)">
    <g id="Group_16500" data-name="Group 16500" clip-path="url(#clip-path-3)">
      <rect id="Rectangle_11444" data-name="Rectangle 11444" width="20.846" height="18.27" transform="translate(0 0)" fill="url(#radial-gradient-3)"/>
    </g>
  </g>
  <rect id="Rectangle_11445" data-name="Rectangle 11445" width="5.016" height="4.592" transform="translate(104.856 7.466)" fill="#231815"/>
  <path id="Path_16557" data-name="Path 16557" d="M434.6,643.049c-.6,1.719-2.163,2.515-4.479,2.515-5.2,0-5.271-4.747-5.23-7.847H439.55v-.344c0-2.943-.773-5.778-2.319-7.366a8.819,8.819,0,0,0-6.624-2.381,10.61,10.61,0,0,0-7.636,2.843,9.654,9.654,0,0,0-2.971,7.29,11.385,11.385,0,0,0,.091,1.418l-.013.141c0,4.687,4.284,8.2,10,8.2,3.745,0,7.422-1.227,8.953-4.49Zm-8.221-12.1a4.83,4.83,0,0,1,3.917-1.75,4.1,4.1,0,0,1,3.464,1.349,7,7,0,0,1,1.089,4.386l-.022,1.206h-9.9a8.639,8.639,0,0,1,1.453-5.192" transform="translate(-267.898 -613.225)" fill="#231815"/>
  <g id="Group_16503" data-name="Group 16503" transform="translate(280.078 6.142)">
    <g id="Group_16502" data-name="Group 16502" transform="translate(0)" clip-path="url(#clip-path-4)">
      <rect id="Rectangle_11446" data-name="Rectangle 11446" width="26.922" height="28.58" transform="translate(0 0)" fill="url(#radial-gradient-4)"/>
    </g>
  </g>
</svg>
