<svg xmlns="http://www.w3.org/2000/svg" xmlns:xlink="http://www.w3.org/1999/xlink" width="201.79" height="39.89" viewBox="0 0 201.79 39.89">
  <defs>
    <clipPath id="clip-path">
      <path id="Path_16555" data-name="Path 16555" d="M331.258,613.346a41.038,41.038,0,0,0-5.27.538c-8.341,1.295-19.587,6.529-29.951,13.515-15.683,10.578-26.861,25.337-26.861,25.337s17.274-19.1,26.793-19.73c2.786-.187,2.921,1.667,2.786,4.08a128.03,128.03,0,0,1-2.439,16.149s8.629-27.776,24.422-33.517c16.344-5.944-9.772,16.369-9.772,16.369,24.45-16.839,28.6-22.578,21-22.742Z" transform="translate(-269.176 -613.346)" fill="none"/>
    </clipPath>
    <radialGradient id="radial-gradient" cx="0.47" cy="0.5" r="0.685" gradientTransform="matrix(0.567, 0, 0, -1, -1.676, 12.456)" gradientUnits="objectBoundingBox">
      <stop offset="0" stop-color="#00a0e9"/>
      <stop offset="1" stop-color="#0068b7"/>
    </radialGradient>
    <clipPath id="clip-path-2">
      <path id="Path_16556" data-name="Path 16556" d="M300.085,616.617c-4.643,3.721-14.154,14.974-14.351,15.205,2.258-2.637,12.26-10.616,15.384-13.037,4.6-3.573,5.259-2.82,5.445-4.319.085-.693-.2-.973-.728-.973-1.321,0-4.107,1.812-5.75,3.124" transform="translate(-285.734 -613.493)" fill="none"/>
    </clipPath>
    <radialGradient id="radial-gradient-2" cx="0.498" r="0.535" gradientTransform="matrix(0.876, 0, 0, -1, -1.708, 27.091)" xlink:href="#radial-gradient"/>
    <clipPath id="clip-path-3">
      <path id="Path_16554" data-name="Path 16554" d="M537.514,619.931v1.541h.385c1.706,0,1.994,0,1.994.517a7,7,0,0,1-.567,1.879c-.1.246-.214.549-.353.9l-5.6,14.417h-.009l-5.284-14.138a20.165,20.165,0,0,1-1.058-2.888c0-.46.04-.689,1.854-.689h.394v-1.541h-12.3v1.541h.854c1.437,0,1.69.246,1.88.558a21.258,21.258,0,0,1,1.534,3.019l8.156,21.859h4.8l8.468-21.875a20.947,20.947,0,0,1,1.394-3.135c.181-.229.279-.451,1.683-.419l.475-.008v-1.541Z" transform="translate(-516.974 -619.931)" fill="none"/>
    </clipPath>
    <radialGradient id="radial-gradient-3" cx="0.5" r="0.521" gradientTransform="matrix(0.922, 0, 0, -1, -1.344, 17.368)" xlink:href="#radial-gradient"/>
    <clipPath id="clip-path-4">
      <path id="Path_16558" data-name="Path 16558" d="M550.261,623.3q-3.238,3.453-3.36,9.643v.911a14.091,14.091,0,0,0,3.45,9.623c2.3,2.494,6.77,3.742,10.652,3.742a45.309,45.309,0,0,0,10.1-.984v-9.758a.4.4,0,0,1,.368-.426,5.115,5.115,0,0,1,.641-.025c.214,0,.434.008.639-.009l.321-.017v-1.658h-9.715V636l.32.017a8.73,8.73,0,0,1,1.173.041.483.483,0,0,1,.492.492v7.582a.762.762,0,0,1-.55.738,7.282,7.282,0,0,1-1.534.049c-3.1,0-5.252-.68-7.008-2.831s-2.618-4.7-2.618-8.5c0-4.063.78-6.91,2.347-9.116s4.916-3.316,7.812-3.16c4.669.246,5.579,3.832,5.613,4.152l.024.353h1.689v-5.038a33.227,33.227,0,0,0-4.643-1.017,42.906,42.906,0,0,0-5.375-.328c-4.069,0-8.608,1.469-10.84,3.865" transform="translate(-546.901 -619.436)" fill="none"/>
    </clipPath>
    <radialGradient id="radial-gradient-4" cx="0.5" r="0.486" gradientTransform="matrix(1.062, 0, 0, -1, 1.262, 16.899)" xlink:href="#radial-gradient"/>
  </defs>
  <g id="Group_17363" data-name="Group 17363" transform="translate(-17932 223.644)">
    <path id="Path_16545" data-name="Path 16545" d="M1089.914,638.719a9.763,9.763,0,0,1-3.708-.624,6.32,6.32,0,0,1-2.476-1.759,7.036,7.036,0,0,1-1.391-2.736,13.692,13.692,0,0,1-.433-3.576,8.871,8.871,0,0,1,.828-4.035,7.522,7.522,0,0,1,2.16-2.647,8.466,8.466,0,0,1,2.988-1.448,13.069,13.069,0,0,1,3.315-.435c.408,0,.862.012,1.362.033s.986.049,1.459.083.917.069,1.331.106.74.08.976.123l-.73,2.006q-.395-.1-1.1-.231c-.474-.087-.983-.166-1.53-.238s-1.083-.132-1.608-.18-.966-.075-1.321-.075a11.352,11.352,0,0,0-2.032.157,4.267,4.267,0,0,0-1.578.632,3.3,3.3,0,0,0-1.244,2.169,18.716,18.716,0,0,0-.355,3.979,9.86,9.86,0,0,0,1.273,5.515,4.58,4.58,0,0,0,4.093,1.883c.525,0,1.072-.018,1.637-.049s1.128-.083,1.686-.149,1.108-.148,1.648-.247,1.045-.212,1.519-.344v.872a13.088,13.088,0,0,1-1.568.518q-.838.22-1.716.377t-1.766.238q-.885.083-1.716.083" transform="translate(16985.938 -828.531)" fill="#231815"/>
    <path id="Path_16546" data-name="Path 16546" d="M1099.485,638.461V620.018l2.663-.559v19Z" transform="translate(16985.691 -828.504)" fill="#231815"/>
    <path id="Path_16547" data-name="Path 16547" d="M1111.731,638.782a7.124,7.124,0,0,1-4.862-1.488,5.493,5.493,0,0,1-1.686-4.348,6.834,6.834,0,0,1,.414-2.442,4.76,4.76,0,0,1,1.241-1.849,5.717,5.717,0,0,1,2.052-1.168,8.953,8.953,0,0,1,2.84-.41,9.384,9.384,0,0,1,2.821.387,5.5,5.5,0,0,1,2.052,1.133,4.688,4.688,0,0,1,1.242,1.834,6.9,6.9,0,0,1,.414,2.481,6.816,6.816,0,0,1-.414,2.451,4.827,4.827,0,0,1-1.242,1.849,5.538,5.538,0,0,1-2.052,1.167,9.032,9.032,0,0,1-2.821.4M1108,632.929a9.225,9.225,0,0,0,.207,2.1,3.6,3.6,0,0,0,.651,1.43,2.6,2.6,0,0,0,1.144.823,4.8,4.8,0,0,0,1.686.263,6.526,6.526,0,0,0,1.4-.132,3.906,3.906,0,0,0,1.183-.493,2.208,2.208,0,0,0,.927-1.488,11.516,11.516,0,0,0,.237-2.49,5.653,5.653,0,0,0-.879-3.51,3.341,3.341,0,0,0-2.791-1.109,6.917,6.917,0,0,0-1.411.131,3.852,3.852,0,0,0-1.173.461,1.493,1.493,0,0,0-.552.6,4.412,4.412,0,0,0-.365.937,6.55,6.55,0,0,0-.207,1.177q-.06.64-.06,1.3" transform="translate(16985.611 -828.609)" fill="#231815"/>
    <path id="Path_16548" data-name="Path 16548" d="M1123.964,627.326v7.825a3.853,3.853,0,0,0,.079.781,1.571,1.571,0,0,0,.325.69,1.8,1.8,0,0,0,.7.5,3.149,3.149,0,0,0,1.223.2,5.982,5.982,0,0,0,1.055-.1c.376-.065.753-.147,1.135-.247a11.469,11.469,0,0,0,1.105-.344q.532-.2.966-.4v-8.91h2.664V638.57h-2.23l-.394-1.315c-.3.144-.655.3-1.056.486s-.834.351-1.3.509a13.324,13.324,0,0,1-1.449.4,7.019,7.019,0,0,1-1.52.165,5.874,5.874,0,0,1-1.6-.205,3.481,3.481,0,0,1-1.251-.624,2.924,2.924,0,0,1-.82-1.035,3.333,3.333,0,0,1-.3-1.455v-8.17Z" transform="translate(16985.387 -828.613)" fill="#231815"/>
    <path id="Path_16549" data-name="Path 16549" d="M1146.005,627.185c-.013-.165-.02-.329-.02-.494-.013-.131-.02-.271-.02-.419v-6.255l2.644-.558v19h-1.755l-.731-1.051h-.058c-.276.164-.566.32-.869.467s-.614.283-.936.4a6.5,6.5,0,0,1-1.036.288,6.138,6.138,0,0,1-1.165.106,7.658,7.658,0,0,1-2.13-.3,4.935,4.935,0,0,1-1.814-.954,4.665,4.665,0,0,1-1.262-1.718,6.3,6.3,0,0,1-.473-2.573,6.9,6.9,0,0,1,.464-2.6,5.156,5.156,0,0,1,1.341-1.941,5.969,5.969,0,0,1,2.131-1.207,8.88,8.88,0,0,1,2.83-.419c.421,0,.882.021,1.381.065s.993.094,1.479.149M1139.2,633a6.005,6.005,0,0,0,.267,1.907,3.384,3.384,0,0,0,.76,1.3,2.887,2.887,0,0,0,1.183.738,4.77,4.77,0,0,0,1.519.231,9.29,9.29,0,0,0,1.617-.139,8.975,8.975,0,0,0,1.4-.355v-8.316q-.633-.083-1.214-.123c-.388-.029-.806-.041-1.252-.041a10.776,10.776,0,0,0-1.747.131,3.1,3.1,0,0,0-1.233.427,2.154,2.154,0,0,0-.443.493,4.058,4.058,0,0,0-.425.847,6.48,6.48,0,0,0-.316,1.241A10.4,10.4,0,0,0,1139.2,633" transform="translate(16985.18 -828.504)" fill="#231815"/>
    <g id="Group_16913" data-name="Group 16913" transform="translate(17932 -223.644)">
      <g id="Group_16498" data-name="Group 16498" clip-path="url(#clip-path)">
        <rect id="Rectangle_11443" data-name="Rectangle 11443" width="70.386" height="39.89" transform="translate(0)" fill="url(#radial-gradient)"/>
      </g>
    </g>
    <g id="Group_16914" data-name="Group 16914" transform="translate(17948.752 -223.495)">
      <g id="Group_16500" data-name="Group 16500" clip-path="url(#clip-path-2)">
        <rect id="Rectangle_11444" data-name="Rectangle 11444" width="20.914" height="18.33" transform="translate(0 0)" fill="url(#radial-gradient-2)"/>
      </g>
    </g>
    <g id="Group_16915" data-name="Group 16915" transform="translate(18002.869 -216.511)">
      <g id="Group_16496" data-name="Group 16496" clip-path="url(#clip-path-3)">
        <rect id="Rectangle_11442" data-name="Rectangle 11442" width="29.245" height="26.978" fill="url(#radial-gradient-3)"/>
      </g>
    </g>
    <g id="Group_16916" data-name="Group 16916" transform="translate(18032.211 -216.996)">
      <g id="Group_16502" data-name="Group 16502" transform="translate(0)" clip-path="url(#clip-path-4)">
        <rect id="Rectangle_11446" data-name="Rectangle 11446" width="26.172" height="27.784" transform="translate(0 0)" fill="url(#radial-gradient-4)"/>
      </g>
    </g>
  </g>
</svg>
