<svg xmlns="http://www.w3.org/2000/svg" width="64" height="64" viewBox="0 0 64 64">
  <g id="Group_66" data-name="Group 66" transform="translate(-770 -1695)">
    <rect id="Rectangle_49" data-name="Rectangle 49" width="64" height="64" rx="32" transform="translate(770 1695)" fill="#8657a0"/>
    <g id="icon-seminar" transform="translate(786 1713)">
      <path id="Path_70" data-name="Path 70" d="M28.8,5H3.2A3.2,3.2,0,0,0,0,8.2V25.8A3.2,3.2,0,0,0,3.2,29H6a.4.4,0,0,0,.4-.4V26.2a.4.4,0,0,0-.4-.4H4a.8.8,0,0,1-.8-.8V9A.8.8,0,0,1,4,8.2H28a.8.8,0,0,1,.8.8V25a.8.8,0,0,1-.8.8H18a.4.4,0,0,0-.4.4v2.4a.4.4,0,0,0,.4.4H28.8A3.2,3.2,0,0,0,32,25.8V8.2A3.2,3.2,0,0,0,28.8,5Z" transform="translate(0 -5)" fill="#fff"/>
      <path id="Path_71" data-name="Path 71" d="M22.53,43h2.94A2.53,2.53,0,0,1,28,45.53V55.8H20V45.53A2.53,2.53,0,0,1,22.53,43Z" transform="translate(-12 -27.8)" fill="#fff"/>
      <circle id="Ellipse_9" data-name="Ellipse 9" cx="3.2" cy="3.2" r="3.2" transform="translate(8.8 8)" fill="#fff"/>
      <rect id="Rectangle_41" data-name="Rectangle 41" width="8" height="3.2" rx="1.6" transform="translate(11.973 15.2)" fill="#fff"/>
      <path id="Path_72" data-name="Path 72" d="M49.54,34.862,45.3,40.07a1.6,1.6,0,0,1-2.262,0h0a1.6,1.6,0,0,1,0-2.262l5.208-4.243Z" transform="translate(-25.54 -22.139)" fill="#fff"/>
    </g>
  </g>
</svg>
