<svg xmlns="http://www.w3.org/2000/svg" viewBox="0 0 226.19 63.09"><defs><style>.cls-1{fill:#fff;}</style></defs><g id="レイヤー_2" data-name="レイヤー 2"><g id="レイヤー_1-2" data-name="レイヤー 1"><path class="cls-1" d="M6.64,52.12H5c-.08,1.54.08,7-4.71,9.68A5,5,0,0,1,1.5,63a10.25,10.25,0,0,0,4.44-6.07,9.46,9.46,0,0,0,4.72,6,5,5,0,0,1,1.1-1.24c-4.49-2.07-5.06-7.3-5.16-8.93Z"/><path class="cls-1" d="M23.54,58.62H22.3V57.14H18.68v-.53h3.41V54.24H18.68v-.5h4.59V52.62H18.68v-.78H17.23v.78H12.76v1.12h4.47v.5H14v2.37h3.25v.53H13.68v1h3.55v.52H12.48v1.09h4.75v.56H13.58v1h3.65v.38c0,.21-.07.28-.3.3s-.9,0-1.47,0a4.26,4.26,0,0,1,.46,1.13,6.4,6.4,0,0,0,2.13-.2c.47-.21.63-.5.63-1.2V61.3h2.16v.5H22.3V59.71h1.24Zm-2.91-3.48v.57H18.68v-.57Zm-5.28.57v-.57h1.88v.57Zm3.33,2.39h2.16v.52H18.68Zm2.16,2.17H18.68v-.56h2.16Z"/><circle class="cls-1" cx="30" cy="57.44" r="1.54" transform="translate(-4 2.27) rotate(-4.07)"/><path class="cls-1" d="M45.32,54.28c.42-.52.9-1.18,1.34-1.82l-1.54-.55a12.81,12.81,0,0,1-1.34,2.33l.12,0H41.62l1.24-.43a7.28,7.28,0,0,0-1-2l-1.27.43a7.32,7.32,0,0,1,.87,2H39.2l.8-.39A7.68,7.68,0,0,0,38.74,52l-1.22.6a9.31,9.31,0,0,1,1.08,1.68H36.88v2.81h1.36V55.6h7.48v1.49h1.44V54.28Zm-3,3.17c0-.49.07-1,.1-1.56H40.85c0,.57-.05,1.08-.09,1.56H37.6v1.32h2.95c-.4,1.45-1.37,2.38-4,2.94A5,5,0,0,1,37.42,63c3.19-.79,4.28-2.18,4.71-4.27H44.7c-.11,1.78-.25,2.62-.49,2.83a.69.69,0,0,1-.51.14c-.32,0-1.06,0-1.8-.06A2.84,2.84,0,0,1,42.41,63a13.86,13.86,0,0,0,1.87,0,1.68,1.68,0,0,0,1.19-.52c.41-.45.57-1.62.71-4.46,0-.19,0-.59,0-.59Z"/><path class="cls-1" d="M59.45,54.22V53.05H55.87c.17-.28.31-.55.45-.84L55,51.85a7.44,7.44,0,0,1-2.33,2.87,9.74,9.74,0,0,1,1.13.84,7.87,7.87,0,0,0,.6-.57,6.93,6.93,0,0,0,.87,1,7.55,7.55,0,0,1-1.5.56l.06-.29L53,56l-.19.06h-.55l.55-.62c-.23-.15-.52-.33-.85-.51a8.46,8.46,0,0,0,1.74-2l-.92-.58-.21,0H48.67v1.2h2.91a9.57,9.57,0,0,1-.78.78c-.34-.16-.68-.29-1-.4l-.87.9A17.25,17.25,0,0,1,51.26,56H48.52v1.24H50a7.57,7.57,0,0,1-1.7,2.49A7.32,7.32,0,0,1,49,61.15a7.47,7.47,0,0,0,1.48-2.23V61.5c0,.13-.05.16-.19.16a8.18,8.18,0,0,1-1.1,0A5,5,0,0,1,49.58,63a3.71,3.71,0,0,0,1.7-.24c.4-.21.51-.57.51-1.22V57.28h.64c-.12.62-.27,1.23-.4,1.67l.94.46a12,12,0,0,0,.61-2,3.83,3.83,0,0,1,.3.49,9.35,9.35,0,0,0,2.53-1.06,8.42,8.42,0,0,0,2.45,1,5.54,5.54,0,0,1,.9-1.2A9.32,9.32,0,0,1,57.54,56a5.55,5.55,0,0,0,1.18-1.76Zm-2.31,0a3.5,3.5,0,0,1-.79,1,5.27,5.27,0,0,1-1-1Zm.7,4.31H56.6q.07-.53.12-1.08H55.31c0,.37-.06.73-.12,1.08H53.44v1.18h1.45A3.74,3.74,0,0,1,52.34,62a3.9,3.9,0,0,1,.86,1.14,4.82,4.82,0,0,0,3.16-3.38h1.38a3.76,3.76,0,0,1-.45,1.81.51.51,0,0,1-.4.13,10.49,10.49,0,0,1-1.08-.06,3.23,3.23,0,0,1,.4,1.29,10.69,10.69,0,0,0,1.34,0,1.45,1.45,0,0,0,.93-.42c.34-.37.56-1.29.75-3.37,0-.17.05-.54.05-.54H57.84Z"/><path class="cls-1" d="M64.18,61.32v1.33h7.36V61.32Zm.37-4.42-1.18.3V55.44h1.26V54.12H63.37V51.85H62v2.27H60.49v1.32H62v2.1l-1.64.37.37,1.37L62,58.94v2.5c0,.16-.06.22-.23.22H60.62A4.87,4.87,0,0,1,61,63a3.79,3.79,0,0,0,1.82-.27c.4-.2.53-.55.53-1.24V58.58l1.35-.37Zm6.26-4.3H65v7.54h5.81Zm-1.43,6.22h-3V57h3Zm0-3.14h-3V53.92h3Z"/><path class="cls-1" d="M78.79,51.82H77.22V56H73.58V57.4h7.5v1.11H74v1.38h7.09v1.25H73.31v1.41h7.77V63h1.53V56H78.79ZM76.08,55a10.63,10.63,0,0,0-1.49-2.7l-1.29.52a11.59,11.59,0,0,1,1.4,2.76Zm5.14-2.8a17.46,17.46,0,0,1-1.31,3l1.25.43a28.83,28.83,0,0,0,1.65-3Z"/><path class="cls-1" d="M95.38,56.72V55.46H92.59A17.41,17.41,0,0,0,95,52.82l-1.23-.62a15.74,15.74,0,0,1-1.23,1.52v-.59H89.89V51.84H88.48v1.29H85.66v1.24h2.82v1.09H84.62v1.26H88.7a21.06,21.06,0,0,1-4.46,2,7.85,7.85,0,0,1,.88,1.18c.61-.23,1.23-.49,1.83-.76v3.93h1.43V62.7h4.13V63H94V57.68H89.64c.49-.31,1-.62,1.42-1Zm-7,4.79v-.82h4.13v.82Zm4.13-1.9H88.38v-.77h4.13Zm-2.62-5.24h2c-.41.38-.84.74-1.3,1.09h-.66Z"/><path class="cls-1" d="M102.55,62.49c3-.47,4.53-2.24,4.53-4.73a4.54,4.54,0,0,0-4.8-4.63,5.28,5.28,0,0,0-5.46,5.08c0,2,1.1,3.45,2.42,3.45s2.32-1.47,3-3.86a25.46,25.46,0,0,0,.71-3.22,2.93,2.93,0,0,1,2.47,3.14,3.2,3.2,0,0,1-2.68,3.16,7.75,7.75,0,0,1-1.11.2Zm-3.27-2.66c-.45,0-.92-.58-.92-1.78a3.74,3.74,0,0,1,3-3.43,19.41,19.41,0,0,1-.63,2.87C100.25,59.08,99.78,59.83,99.28,59.83Z"/><path class="cls-1" d="M109.14,53.79a25.94,25.94,0,0,1,2,3.63l1.58-.9c-.44-.84-1.49-2.68-2.07-3.52Zm1.8,7.5,1.43,1.24a12,12,0,0,0,5.79-7.9c.06-.24.23-.89.36-1.33l-1.9-.36a6.56,6.56,0,0,1-.18,1.46A9.73,9.73,0,0,1,110.94,61.29Z"/><path class="cls-1" d="M127.86,52.69a8.15,8.15,0,0,1,.07,1.2v2.28c0,1.87-.15,2.77-1,3.67a5.62,5.62,0,0,1-2.77,1.45l1.09,1.38a7,7,0,0,0,2.92-1.73c.88-1,1.39-2.1,1.39-4.68V53.89c0-.48,0-.87,0-1.2Zm-5.52.09a7.75,7.75,0,0,1,0,.93v4c0,.36,0,.83-.06,1.06h1.77c0-.28,0-.75,0-1.05v-4c0-.39,0-.65,0-.93Z"/><path class="cls-1" d="M140.4,60.69c.18-1.14.49-3.2.59-3.91a2.76,2.76,0,0,1,.12-.5l-1.17-.57a2.51,2.51,0,0,1-.88.13H136a11.5,11.5,0,0,1-1.18-.07v1.59c.34,0,.81-.06,1.2-.06h3.24c0,.67-.3,2.37-.47,3.39h-3.89a10.61,10.61,0,0,1-1.19-.06v1.56c.46,0,.76,0,1.19,0h6.31l1.15,0V60.64a11.45,11.45,0,0,1-1.17,0Z"/><path class="cls-1" d="M145.1,58.33c.45,0,1.25-.06,1.94-.06h6.44c.5,0,1.12,0,1.4.06V56.44c-.31,0-.84.08-1.4.08H147c-.63,0-1.5,0-1.94-.08Z"/><path class="cls-1" d="M157.62,55.23l-.88,1.33a31.27,31.27,0,0,1,2.74,1.71l.88-1.35C159.74,56.49,158.42,55.66,157.62,55.23ZM157.24,61l.9,1.58a14.29,14.29,0,0,0,8.78-5.8L166,55.17a12.21,12.21,0,0,1-4.67,4.5A13.11,13.11,0,0,1,157.24,61Zm2.23-8.52-.88,1.32c.79.44,2,1.26,2.71,1.72l.9-1.33C161.57,53.78,160.26,52.93,159.47,52.5Z"/><path class="cls-1" d="M177.25,56.06c0-.25,0-.65,0-.8l-.92,0H171.8c-.44,0-1.17,0-1.48-.06v1.45c.28,0,1-.05,1.48-.05h4v1.46h-3.82c-.46,0-1,0-1.31,0v1.42c.27,0,.85,0,1.31,0h3.82V61h-4.53c-.43,0-.84,0-1-.05v1.48c.21,0,.7,0,1,0h4.54c0,.18,0,.37,0,.48h1.51c0-.22,0-.62,0-.82Z"/><path class="cls-1" d="M181.15,60.87l1,1.59a12.87,12.87,0,0,0,4.45-1.7,12.73,12.73,0,0,0,4.44-4.44l-.93-1.69a11.34,11.34,0,0,1-4.37,4.67A12.3,12.3,0,0,1,181.15,60.87ZM182.53,53l-1.13,1.21a23.37,23.37,0,0,1,3,2.56l1.23-1.25A25.66,25.66,0,0,0,182.53,53Z"/><path class="cls-1" d="M200.74,54.81V53.58a9.22,9.22,0,0,1,.07-1.11h-1.67a7.69,7.69,0,0,1,.06,1.11v1.23h-2.93V53.65a10.69,10.69,0,0,1,.07-1.07h-1.66c0,.23.07.62.07,1.07v1.16h-.94a11.59,11.59,0,0,1-1.27-.09v1.59c.26,0,.7-.05,1.27-.05h.94v1.48c0,.52,0,1-.06,1.24h1.63c0-.24,0-.72,0-1.24V56.26h2.93v.36c0,2.9-1.16,4-3.44,4.8l1.21,1.2c2.88-1.24,3.77-3.13,3.77-6.06v-.3h.82a10.58,10.58,0,0,1,1.3,0V54.73a8.1,8.1,0,0,1-1.31.08Z"/><path class="cls-1" d="M211.2,56a19.09,19.09,0,0,0,3.18-2.57L213.1,52.3A12.77,12.77,0,0,1,210,55a18.72,18.72,0,0,1-5.46,2.17l.86,1.46A23.46,23.46,0,0,0,209.5,57V61a12.93,12.93,0,0,1-.09,1.57h1.9A7.79,7.79,0,0,1,211.2,61Z"/><path class="cls-1" d="M226.19,57.58a39.8,39.8,0,0,0-5-1.86V54a12.59,12.59,0,0,1,.11-1.44h-1.87a8.75,8.75,0,0,1,.12,1.44v6.9a13.56,13.56,0,0,1-.12,1.68h1.87c-.05-.49-.11-1.33-.11-1.68v-3.4a34.63,34.63,0,0,1,4.33,1.79Z"/><path class="cls-1" d="M16.55,21.2l3.17-7.36c.29-.7.48-.75.85-.05l3.22,7.54c.29.66.24.87-1.05.82H17.32c-1.06,0-1.07-.23-.77-.95m22.19,10L26.15,1.79s-.15-.3-.38-.3H11.56a.21.21,0,0,0-.23.2V5.58a.26.26,0,0,0,.29.28h1.7c1.12,0,1.46.62,1.19,1.51L4.33,30.77c-.35.85-.63,1.91-1.8,2,0,0-1.47.11-2,.11S0,33.6,0,33.6v3.13S0,37,.29,37h15a.34.34,0,0,0,.33-.31v-3.5a.42.42,0,0,0-.44-.41H12.93a1.07,1.07,0,0,1-.8-1.59l1.47-3.39a.62.62,0,0,1,.55-.37H26c.43,0,.49.26.49.26L28,31.11c.5,1.14-.24,1.64-1.24,1.64H24.87c-.22,0-.25.24-.25.24v3.83s0,.14.18.14H42.57a.31.31,0,0,0,.31-.27V33.06s0-.25-.23-.25l-1.46,0c-1.68,0-1.9-.37-2.45-1.58"/><path class="cls-1" d="M109.35,21.44l3.42-7.6c.29-.7.47-.75.83-.05l3.23,7.54c.28.66.57,1.05-1.06.94h-5.64c-1.07,0-1.08-.1-.78-.83m22.43,9.76L119.2,2s-.15-.3-.39-.3H104.6a.21.21,0,0,0-.22.21V5.68a.26.26,0,0,0,.28.29h1.71c1.12,0,1.45.62,1.19,1.5L97.48,30.77c-.36.85-.63,1.91-1.8,2,0,0-1.58.12-2.06.12s-.57.73-.57.73v3.34s0,.23.29.23h15a.35.35,0,0,0,.34-.32V33.46a.43.43,0,0,0-.45-.41H106a1.37,1.37,0,0,1-.81-1.9L106.65,28a.6.6,0,0,1,.55-.37H119c.42,0,.48.26.48.26l1.56,3.25a1.3,1.3,0,0,1-1.24,2h-1.93c-.21,0-.25.23-.25.23v3.76a.16.16,0,0,0,.18.14h17.77a.31.31,0,0,0,.31-.28V33.38s0-.27-.39-.27l-1.3,0c-1.67,0-1.9-.67-2.45-1.88"/><path class="cls-1" d="M67.32,19.18,60.49,1.87a.75.75,0,0,0-.66-.38H46a.29.29,0,0,0-.29.29V5.55s0,.26.26.26l1.41,0c1.63,0,1.6.94,1.6,2.2V30.92c0,.73-.2,1.84-1.57,1.84H46a.23.23,0,0,0-.25.23V36.7A.23.23,0,0,0,46,37H59.2c.24,0,.24-.29.24-.29V33a.21.21,0,0,0-.23-.26H57.72a1.47,1.47,0,0,1-1.67-1.49V18.93c0-1.55.39-1.19.72-.37L64,36.79a.27.27,0,0,0,.28.18h4.82a.29.29,0,0,0,.25-.18l7.39-17.93c.42-1.18.8-1.31.8-.63V31.16c0,.66,0,1.7-1.58,1.7H74.44a.23.23,0,0,0-.25.28v3.73a.2.2,0,0,0,.21.24H90.07a.24.24,0,0,0,.23-.21V33.15s0-.25-.27-.25H88.92c-2.2,0-2.13-1.13-2.13-1.79V7.75c0-1.72,1.36-1.83,2.08-1.83H90c.26,0,.24-.31.24-.31V1.89s0-.32-.26-.32H76.78a.57.57,0,0,0-.51.26L68.62,19.94c-.57,1.26-.75.55-1.3-.76"/><path class="cls-1" d="M150.46,14.79l14.28,22.64H176.1V8.57c0-1.27-.27-2.33,1.68-2.33,0,0,1,0,1.31,0a.24.24,0,0,0,.25-.21V2.21s0-.3-.25-.3h-13.5c-.25,0-.21.26-.21.26V6a.19.19,0,0,0,.22.23h1.6c1.38,0,1.63,1,1.63,1.79,0,0,0,17,0,17.22s-.26.44-.52.05S154.91,4.19,153.58,2.06a.4.4,0,0,0-.36-.24H139.27a.28.28,0,0,0-.29.32V5.89a.24.24,0,0,0,.24.2h1.54c1,0,1.58.23,1.58,2.23v23c0,.81-.14,1.78-1.77,1.78h-1.5c-.27,0-.25.31-.25.31V37s0,.31.25.31h13.42a.29.29,0,0,0,.3-.31V33.45a.26.26,0,0,0-.26-.24c-.23,0-1.55-.13-1.55-.13-1.75,0-1.6-1-1.6-1.85V14.53c0-.89.33-1.08,1.08.26"/><path class="cls-1" d="M200.8,34.67c7.5,0,9.55-6.67,9.55-14.88S207.49,5.42,200.8,5.42c-7.27,0-9.34,6.15-9.34,14.37S194,34.67,200.8,34.67M181,19.67C181,8.51,189.07,0,200.8,0a19.69,19.69,0,0,1,19.93,19.79C220.73,31,213.33,40,200.8,40,189.74,40,181,31.67,181,19.67"/></g></g></svg>