<?xml version="1.0" encoding="utf-8"?>
<!-- Generator: Adobe Illustrator 25.2.1, SVG Export Plug-In . SVG Version: 6.00 Build 0)  -->
<svg version="1.1" id="レイヤー_1" xmlns="http://www.w3.org/2000/svg" xmlns:xlink="http://www.w3.org/1999/xlink" x="0px"
	 y="0px" viewBox="0 0 271.9 76.4" style="enable-background:new 0 0 271.9 76.4;" xml:space="preserve">
<style type="text/css">
	.st0{enable-background:new    ;}
	.st1{fill:#FFFFFF;}
</style>
<g id="グループ_21228" transform="translate(-591 -3970.082)">
	<g class="st0">
		<path class="st1" d="M595.7,3982h5.6v1.2h-8.6c0.8-0.8,1.6-1.6,2.4-2.4c0.8-0.8,1.5-1.5,2.1-2.3s1.1-1.5,1.5-2.2
			c0.4-0.7,0.6-1.4,0.6-2c0-0.6-0.1-1.1-0.3-1.5s-0.4-0.7-0.7-1c-0.3-0.2-0.6-0.4-0.9-0.5c-0.3-0.1-0.6-0.2-0.9-0.2
			c-0.5,0-1,0.1-1.4,0.3c-0.4,0.2-0.6,0.4-0.8,0.7c-0.2,0.3-0.3,0.6-0.4,0.9c-0.1,0.3-0.1,0.6-0.1,0.9c0,0.9,0.3,1.6,0.8,2.1
			l-0.8,0.8c-0.2-0.1-0.4-0.3-0.5-0.6c-0.2-0.2-0.3-0.5-0.4-0.7c-0.1-0.3-0.2-0.5-0.2-0.8c-0.1-0.3-0.1-0.5-0.1-0.8
			c0-0.5,0.1-1,0.3-1.5c0.2-0.5,0.4-0.9,0.8-1.3c0.3-0.4,0.8-0.7,1.2-0.9s1.1-0.3,1.7-0.3c0.6,0,1.1,0.1,1.6,0.3s0.9,0.5,1.2,0.9
			s0.6,0.8,0.8,1.3c0.2,0.5,0.3,1,0.3,1.6c0,0.7-0.1,1.4-0.4,2c-0.3,0.7-0.6,1.3-1.1,2c-0.4,0.7-1,1.3-1.5,1.9
			C596.9,3980.7,596.3,3981.4,595.7,3982z"/>
		<path class="st1" d="M604.4,3976.7c0-0.9,0.1-1.8,0.4-2.6c0.3-0.8,0.6-1.5,1.1-2.1c0.5-0.6,1-1.1,1.7-1.4c0.7-0.3,1.4-0.5,2.2-0.5
			c0.8,0,1.6,0.2,2.2,0.5c0.7,0.4,1.2,0.8,1.7,1.5s0.8,1.3,1.1,2.1c0.2,0.8,0.4,1.7,0.4,2.6c0,1-0.2,1.9-0.5,2.7s-0.7,1.5-1.2,2.1
			s-1.1,1-1.7,1.3c-0.7,0.3-1.3,0.5-2,0.5c-0.7,0-1.4-0.2-2-0.5s-1.2-0.8-1.7-1.4s-0.9-1.3-1.2-2.1S604.4,3977.7,604.4,3976.7z
			 M605.7,3976.7c0,0.8,0.1,1.5,0.3,2.2c0.2,0.7,0.5,1.2,0.9,1.7c0.4,0.5,0.8,0.9,1.3,1.1c0.5,0.3,1,0.4,1.6,0.4
			c0.5,0,1-0.1,1.5-0.4s0.9-0.6,1.3-1.1c0.4-0.5,0.7-1.1,0.9-1.7c0.2-0.7,0.4-1.4,0.4-2.2c0-0.6-0.1-1.3-0.2-1.9s-0.4-1.2-0.8-1.8
			c-0.3-0.5-0.8-1-1.3-1.3c-0.5-0.3-1.1-0.5-1.8-0.5c-0.7,0-1.3,0.2-1.8,0.5s-0.9,0.7-1.3,1.3c-0.3,0.5-0.6,1.1-0.8,1.8
			C605.8,3975.4,605.7,3976.1,605.7,3976.7z"/>
		<path class="st1" d="M621.9,3982h5.6v1.2h-8.6c0.8-0.8,1.6-1.6,2.4-2.4c0.8-0.8,1.5-1.5,2.1-2.3s1.1-1.5,1.5-2.2
			c0.4-0.7,0.6-1.4,0.6-2c0-0.6-0.1-1.1-0.3-1.5s-0.4-0.7-0.7-1c-0.3-0.2-0.6-0.4-0.9-0.5c-0.3-0.1-0.6-0.2-0.9-0.2
			c-0.5,0-1,0.1-1.4,0.3c-0.4,0.2-0.6,0.4-0.8,0.7c-0.2,0.3-0.3,0.6-0.4,0.9c-0.1,0.3-0.1,0.6-0.1,0.9c0,0.9,0.3,1.6,0.8,2.1
			l-0.8,0.8c-0.2-0.1-0.4-0.3-0.5-0.6c-0.2-0.2-0.3-0.5-0.4-0.7c-0.1-0.3-0.2-0.5-0.2-0.8c-0.1-0.3-0.1-0.5-0.1-0.8
			c0-0.5,0.1-1,0.3-1.5c0.2-0.5,0.4-0.9,0.8-1.3c0.3-0.4,0.8-0.7,1.2-0.9s1.1-0.3,1.7-0.3c0.6,0,1.1,0.1,1.6,0.3s0.9,0.5,1.2,0.9
			s0.6,0.8,0.8,1.3c0.2,0.5,0.3,1,0.3,1.6c0,0.7-0.1,1.4-0.4,2c-0.3,0.7-0.6,1.3-1.1,2c-0.4,0.7-1,1.3-1.5,1.9
			C623,3980.7,622.5,3981.4,621.9,3982z"/>
		<path class="st1" d="M630.5,3971.5v-1.2h2.9v13h-1.3v-11.8H630.5z"/>
	</g>
	<g class="st0">
		<path class="st1" d="M591,3998.5v-2h9.6v47.5h-2v-45.5H591z"/>
		<path class="st1" d="M609.7,4020.1c0-2.6,0.4-5.3,1.2-8.1c0.8-2.8,2-5.5,3.6-7.8c1.6-2.4,3.6-4.3,6.1-5.9s5.5-2.3,9-2.3
			c3.4,0,6.3,0.8,8.8,2.4c2.5,1.6,4.5,3.6,6.1,5.9c1.6,2.4,2.7,5,3.4,7.8c0.7,2.8,1.1,5.6,1.1,8.2c0,3.5-0.5,6.7-1.6,9.6
			c-1.1,2.9-2.5,5.5-4.3,7.7c-1.8,2.2-3.9,3.9-6.3,5.1c-2.4,1.2-4.9,1.8-7.6,1.8s-5.1-0.6-7.5-1.9c-2.4-1.3-4.4-3-6.2-5.1
			c-1.8-2.2-3.1-4.7-4.2-7.7C610.2,4026.7,609.7,4023.5,609.7,4020.1z M611.8,4020c0,3.4,0.5,6.4,1.4,9.2c0.9,2.8,2.2,5.1,3.9,7.1
			c1.6,2,3.5,3.5,5.6,4.6c2.1,1.1,4.3,1.6,6.5,1.6c2.2,0,4.4-0.5,6.5-1.6c2.1-1,4-2.5,5.6-4.5c1.6-1.9,3-4.3,4-7
			c1-2.7,1.5-5.7,1.5-9.1c0-3.2-0.4-6.2-1.2-8.9c-0.8-2.7-2-5.1-3.5-7.1c-1.5-2-3.4-3.6-5.5-4.7c-2.1-1.1-4.5-1.7-7.1-1.7
			c-2.6,0-5,0.5-7.1,1.6c-2.2,1.1-4,2.6-5.6,4.6c-1.6,2-2.8,4.3-3.6,7S611.8,4016.8,611.8,4020z"/>
	</g>
	<g class="st0">
		<path class="st1" d="M706.9,4042.4h34.9v2.8h-42.1c4.4-4.3,8.7-8.5,12.9-12.7c4.2-4.2,7.9-8.2,11.1-12.2c3.2-4,5.8-7.8,7.7-11.4
			c1.9-3.7,2.9-7.1,2.9-10.4c0-3.6-0.5-6.6-1.6-9c-1-2.4-2.4-4.4-4-5.8c-1.6-1.5-3.3-2.5-5.1-3.1c-1.8-0.6-3.6-0.9-5.3-0.9
			c-3.3,0-5.9,0.6-8.1,1.8c-2.1,1.2-3.8,2.6-5,4.3c-1.2,1.7-2,3.6-2.5,5.6c-0.5,2-0.7,3.8-0.7,5.5c0,4.8,1.4,8.7,4.2,11.6
			c-0.3,0.3-0.7,0.6-0.9,0.9c-0.3,0.2-0.6,0.5-0.9,0.8c-1.6-1.6-2.9-3.5-3.8-5.8c-0.9-2.3-1.4-4.8-1.4-7.5c0-2.8,0.4-5.4,1.2-7.8
			c0.8-2.4,2.1-4.5,3.7-6.3c1.6-1.8,3.6-3.2,6-4.3c2.4-1,5.1-1.6,8.2-1.6c2.8,0,5.3,0.5,7.6,1.6c2.3,1,4.3,2.5,6,4.3
			c1.7,1.8,2.9,4,3.8,6.5c0.9,2.5,1.4,5.2,1.4,8.1c0,3.9-0.9,7.7-2.8,11.6c-1.9,3.8-4.3,7.6-7.2,11.4c-2.9,3.7-6.2,7.5-9.8,11.2
			C713.8,4035.2,710.3,4038.8,706.9,4042.4z"/>
		<path class="st1" d="M750,4011.2c0-3.7,0.6-7.5,1.7-11.6c1.1-4.1,2.8-7.8,5.1-11.2c2.3-3.4,5.2-6.2,8.7-8.4
			c3.5-2.2,7.8-3.3,12.8-3.3c4.9,0,9,1.1,12.5,3.4c3.5,2.3,6.4,5.1,8.6,8.5c2.3,3.4,3.9,7.1,4.9,11.2c1,4.1,1.5,8,1.5,11.7
			c0,4.9-0.8,9.5-2.3,13.7c-1.6,4.2-3.6,7.8-6.2,10.9c-2.6,3.1-5.6,5.5-9,7.2c-3.4,1.7-7,2.6-10.8,2.6s-7.3-0.9-10.7-2.7
			c-3.4-1.8-6.3-4.2-8.8-7.3c-2.5-3.1-4.5-6.7-5.9-11C750.7,4020.7,750,4016.1,750,4011.2z M753,4011.1c0,4.8,0.7,9.1,2,13.1
			c1.4,3.9,3.2,7.3,5.5,10.1c2.3,2.8,5,5,8,6.6c3,1.6,6.1,2.3,9.3,2.3c3.2,0,6.3-0.7,9.3-2.2c3-1.5,5.7-3.6,8-6.4
			c2.3-2.8,4.2-6.1,5.7-10c1.5-3.9,2.2-8.2,2.2-12.9c0-4.6-0.6-8.8-1.8-12.7c-1.2-3.9-2.9-7.3-5-10.1c-2.2-2.9-4.8-5.1-7.9-6.8
			c-3.1-1.6-6.4-2.4-10.1-2.4c-3.7,0-7.1,0.8-10.1,2.3c-3.1,1.6-5.7,3.7-8,6.6c-2.2,2.8-4,6.1-5.2,10S753,4006.5,753,4011.1z"/>
	</g>
	<path id="線_115" class="st1" d="M666.6,4045.5l-1.8-0.8l20.7-48.3l1.8,0.8L666.6,4045.5z"/>
	<g id="グループ_21126" transform="translate(821.828 4005.809)">
		<g class="st0">
			<path class="st1" d="M16.7,14.1c-0.2,0.5-0.2,0.6-0.5,1.6c-1.4,4.8-3.6,8.3-7.1,11.2c-0.7-0.8-1.1-1.2-2-1.8
				c1.5-1.1,2.7-2.3,3.9-3.7c1.5-1.9,2.3-3.6,3.1-6.3h-3.5c-1,0-1.8,0-2.4,0.1v-2.5c0.7,0.1,1.3,0.1,2.6,0.1h2.6
				c1.2,0,1.8,0,2.3-0.1L16.7,14.1z M28.9,12.4c-0.3,0.3-0.3,0.3-0.8,0.9c-1.5,1.7-3,3.1-5,4.8c2.1,3,4.3,5,7.4,6.6
				c-0.8,0.7-1.1,1.2-1.8,2.2c-1.8-1.2-3.4-2.6-4.7-4.1c-1-1.2-1.8-2.3-2.6-3.7c-0.7-1.2-0.9-1.7-1.4-3.1c0.1,2.6,0.1,3.2,0.1,4.3
				V27c0,1.8-0.6,2.3-2.7,2.3c-0.9,0-2.1-0.1-3.2-0.2c-0.1-1-0.2-1.4-0.6-2.4c1.4,0.2,2.4,0.3,3.4,0.3c0.6,0,0.8-0.1,0.8-0.7V9.7
				c0-1-0.1-1.8-0.2-2.6h2.7C20.1,7.9,20,8.7,20,9.7v1.7c0.3,1.6,0.8,2.9,1.8,4.8c2.6-2.3,4.2-4,4.9-5.6L28.9,12.4z"/>
		</g>
		<path id="パス_36028" class="st1" d="M18.8-3.9c12.3,0,22.3,10,22.3,22.3c0,5.9-2.3,11.6-6.5,15.8c-8.7,8.7-22.8,8.7-31.5,0
			s-8.7-22.8,0-31.5c2-2,4.4-3.6,7.1-4.8C12.9-3.3,15.8-3.9,18.8-3.9z M18.8,38.7c11.2,0,20.3-9.1,20.3-20.3
			c0-8.1-4.9-15.5-12.4-18.7C16.4-4.6,4.5,0.2,0.1,10.5s0.5,22.2,10.8,26.6C13.4,38.2,16.1,38.7,18.8,38.7z"/>
	</g>
</g>
</svg>
