<svg xmlns="http://www.w3.org/2000/svg" width="20" height="20" viewBox="0 0 20 20">
  <g id="レイヤー_2" data-name="レイヤー 2" transform="translate(-5.342 -5.342)">
    <g id="Rectangle" transform="translate(5.342 5.342)">
      <rect id="rect" width="20" height="20" fill="none"/>
    </g>
    <g id="icon_data" transform="translate(6.894 6.589)">
      <path id="パス_668" data-name="パス 668" d="M34.037,20.037a1,1,0,0,1-1-1V13H27a1,1,0,0,1,0-2h7.037a1,1,0,0,1,1,1v7.037A1,1,0,0,1,34.037,20.037Z" transform="translate(-16.836 -12)" fill="#817341"/>
      <path id="パス_669" data-name="パス 669" d="M28.074,31.074H14a1,1,0,0,1-1-1V16a1,1,0,0,1,1-1h6.255a1,1,0,0,1,0,2H15V29.074H27.074V23.819a1,1,0,0,1,2,0v6.255A1,1,0,0,1,28.074,31.074Z" transform="translate(-14 -12.873)" fill="#817341"/>
      <path id="線_109" data-name="線 109" d="M0,9.439a1,1,0,0,1-.707-.293,1,1,0,0,1,0-1.414L7.732-.707a1,1,0,0,1,1.414,0,1,1,0,0,1,0,1.414L.707,9.146A1,1,0,0,1,0,9.439Z" transform="translate(7.819 0.944)" fill="#817341"/>
    </g>
  </g>
</svg>
