<svg id="コンポーネント_20_1" data-name="コンポーネント 20 – 1" xmlns="http://www.w3.org/2000/svg" width="214.021" height="198.382" viewBox="0 0 214.021 198.382">
  <path id="パス_36082" data-name="パス 36082" d="M-274.392,439.813c2.964-2.145,4.21-6.415,4.289-10.218a12.757,12.757,0,0,0-3.616-9.334c-5.551-6.391-18.038-9.376-21.444-9.755s-1.745-2.855.925-3.027c5.214-.336,13.413,2.691,15.809,4.583-1.093-4.247-5.046-7.947-8.956-10.091a21.583,21.583,0,0,0-14-2.229c-5.172.883-8.662,5.509-10.176,8.872-2.481-.924-4.961.463-5.466,2.229a12.145,12.145,0,0,0-9.082,4.961,10.325,10.325,0,0,0-1.924,7.043c-1.093,3.28-.915,6.717,1.577,7.821-.032,1.735,1.1,2.87,3.784,3.69-.756-3.532-.756-5.645-.094-7.883a5.5,5.5,0,0,1,3.973-3.942c1.765,4.667,3.595,9.051,4.225,11.573a17.457,17.457,0,0,0,5.362-3.5,76.983,76.983,0,0,0,16.4,3.28c5.677.5,13.624-.631,17.786-5.046C-273.636,430.794-272,434.388-274.392,439.813Z" transform="translate(384.479 -396.635)" fill="#817341"/>
  <path id="パス_36083" data-name="パス 36083" d="M-268.9,519.029a19.094,19.094,0,0,1-8.914,3.784,33.372,33.372,0,0,1-12.825-1.051,117.534,117.534,0,0,0,9.756,11.521,63.524,63.524,0,0,0,5.214,4.71,6.118,6.118,0,0,1,1.976,2.523c.5,1.261.841,3.027,2.06,2.859,1.054-.146.85-1.822.673-3.28a7.659,7.659,0,0,1,.252-4.079c.5-1.346,1.514-3.658,1.934-4.583A99.916,99.916,0,0,0-268.9,519.029Z" transform="translate(352.458 -420.096)" fill="#817341"/>
  <path id="パス_36084" data-name="パス 36084" d="M-272.926,585.281c-1.01,2.944-2.439,7.149-2.776,8.662l-2.858-.252c-1.093-4.625-3.2-13.035-3.869-17.071C-279.822,579.731-276.878,583.767-272.926,585.281Z" transform="translate(350.131 -431.392)" fill="#817341"/>
  <g id="グループ_21175" data-name="グループ 21175" transform="translate(54.278)">
    <g id="グループ_21174" data-name="グループ 21174">
      <path id="パス_36085" data-name="パス 36085" d="M-268.61,422.6a1.023,1.023,0,0,0,.148-.011.965.965,0,0,0,.807-1.1,16.537,16.537,0,0,1,.8-7.35.964.964,0,0,0-.584-1.232.965.965,0,0,0-1.232.584,18.35,18.35,0,0,0-.887,8.292A.966.966,0,0,0-268.61,422.6Z" transform="translate(279.51 -399.269)" fill="#817341"/>
      <path id="パス_36086" data-name="パス 36086" d="M-331.119,422.028c-.922-3.045-.367-6.058,1.695-9.2,1.883-2.869,5.226-4.924,9.44-5.813a6.432,6.432,0,0,1,5.818-2.35c2.187-4.511,6.5-7.506,12.243-8.469,4.279-.717,9,.16,14.023,2.613,5.54,2.7,9.657,6.734,11.088,10.833,4.06,2.983,6.752,9.415,7.379,13.12a23.772,23.772,0,0,1-2.552,14.667.965.965,0,0,1-.859.523.971.971,0,0,1-.44-.106.966.966,0,0,1-.417-1.3,21.823,21.823,0,0,0,2.366-13.462c-.568-3.354-3.134-9.5-6.838-12.044a.962.962,0,0,1-.375-.5c-1.171-3.711-4.984-7.448-10.2-9.994-4.657-2.272-8.982-3.1-12.858-2.443-5.377.9-9.327,3.766-11.121,8.063a.963.963,0,0,1-1.209.539,4.308,4.308,0,0,0-4.678,1.711.965.965,0,0,1-.625.421c-3.879.744-6.924,2.539-8.574,5.053-1.793,2.731-2.24,5.307-1.367,7.874a.962.962,0,0,1-.035.711,6.183,6.183,0,0,0,.01,4.777,3.364,3.364,0,0,0,1.468,1.9.963.963,0,0,1,.609.865,3.491,3.491,0,0,0,2.345,2.837,11.842,11.842,0,0,1-.3-6.084c.767-2.65,1.43-4.94,4.83-6.044a.966.966,0,0,1,.777.08.961.961,0,0,1,.463.627c.189.846.821,2.636,1.49,4.532.727,2.055,1.535,4.345,2.119,6.345a15.981,15.981,0,0,0,3.158-2.092,23.442,23.442,0,0,1-2.95-1.509.966.966,0,0,1-.338-1.322.965.965,0,0,1,1.322-.338,21.482,21.482,0,0,0,4.14,1.94c3.18,1.1,13.734,3.768,19.744,3.94a18.38,18.38,0,0,0,12.7-4.953.963.963,0,0,1,1.363.027.963.963,0,0,1-.026,1.363,20.207,20.207,0,0,1-14.1,5.49c-6.171-.176-16.19-2.715-19.784-3.867-1.656,1.436-3.854,3.078-5.662,3.514a.97.97,0,0,1-1.159-.692c-.564-2.135-1.515-4.829-2.354-7.2-.5-1.413-.952-2.694-1.253-3.665-1.535.786-1.961,2.036-2.635,4.364-.68,2.349.37,6.294,1.777,8.5a2.386,2.386,0,0,0,2.925,1.161.961.961,0,0,1,1.218.615.964.964,0,0,1-.615,1.217,4.629,4.629,0,0,1-1.451.242,4.363,4.363,0,0,1-3.706-2.2,12.9,12.9,0,0,1-.919-1.764,5.839,5.839,0,0,1-5-4.427,5.737,5.737,0,0,1-2-2.682A8.227,8.227,0,0,1-331.119,422.028Z" transform="translate(331.614 -395.956)" fill="#817341"/>
      <path id="パス_36087" data-name="パス 36087" d="M-290.428,432.659A23.116,23.116,0,0,0-280,430.418a.963.963,0,0,0,.425-1.3.965.965,0,0,0-1.3-.424c-6.776,3.428-16.309,1.841-21.063-.065-5.566-2.232-8.983-4.2-10.448-6.034a.962.962,0,0,0-1.355-.15.964.964,0,0,0-.15,1.356c1.7,2.125,5.273,4.228,11.237,6.62A35.1,35.1,0,0,0-290.428,432.659Z" transform="translate(327.847 -401.111)" fill="#817341"/>
      <path id="パス_36088" data-name="パス 36088" d="M-277.28,423.031a.965.965,0,0,0,.85-.508.964.964,0,0,0-.392-1.306c-5.384-2.9-19-5.294-23.163-4.518a.965.965,0,0,0-.771,1.125.965.965,0,0,0,1.126.771c3.727-.7,17,1.686,21.894,4.321A.953.953,0,0,0-277.28,423.031Z" transform="translate(313.987 -399.995)" fill="#817341"/>
      <path id="パス_36089" data-name="パス 36089" d="M-291.458,410.094a.967.967,0,0,0,.725-.327.966.966,0,0,0-.088-1.362c-3.916-3.445-11.19-6-15.269-6.132a22.88,22.88,0,0,0-8.928,1.395.964.964,0,0,0-.56,1.244.964.964,0,0,0,1.243.56,21.128,21.128,0,0,1,8.181-1.271c3.313.111,10.264,2.314,14.059,5.653A.966.966,0,0,0-291.458,410.094Z" transform="translate(340.117 -397.192)" fill="#817341"/>
      <path id="パス_36090" data-name="パス 36090" d="M-451.666,604.553a.993.993,0,0,0,.109-.006L-432.6,602.4a.964.964,0,0,0,.851-1.067.973.973,0,0,0-1.067-.85l-18.955,2.148a.965.965,0,0,0-.85,1.068A.964.964,0,0,0-451.666,604.553Z" transform="translate(591.488 -436.072)" fill="#817341"/>
    </g>
    <path id="パス_36091" data-name="パス 36091" d="M-285.584,476.083a.966.966,0,0,0,.929-.707.965.965,0,0,0-.671-1.187,11.354,11.354,0,0,1-4.651-3.225,11.932,11.932,0,0,0-4.771-3.392.965.965,0,0,0-1.242.563.964.964,0,0,0,.564,1.242,9.968,9.968,0,0,1,3.975,2.83,13.209,13.209,0,0,0,5.608,3.84A.965.965,0,0,0-285.584,476.083Z" transform="translate(318.497 -409.991)" fill="#817341"/>
  </g>
  <g id="グループ_21176" data-name="グループ 21176" transform="translate(0 33.195)">
    <path id="パス_36092" data-name="パス 36092" d="M-325.882,486.086a10.775,10.775,0,0,1,3.207-2.77c-.892-1.477-1.1-2.879-.517-3.964.736-1.36,2.37-1.785,4.357-1.21a2.961,2.961,0,0,1,.717-1.353,3.639,3.639,0,0,1,2.856-1.1,3.363,3.363,0,0,1,.947-1.515,4.026,4.026,0,0,1,2.684-1.008,2.361,2.361,0,0,1,.431-.74c.755-.884,2.157-1.35,4.275-1.418.589-.81,1.754-1.522,4.066-1.342a10.373,10.373,0,0,1,4.356,1.263c.379.239.7.457.993.671,1.9-2.111,5.518-5.543,7.457-6.651a.965.965,0,0,1,1.315.359.953.953,0,0,1,.1.691,12.2,12.2,0,0,1,3.434-3.955.964.964,0,0,1,1.346.224.924.924,0,0,1,.068.153c2.782-5.566,5.9-12.58,6.3-14.406a.96.96,0,0,1,1.145-.74.963.963,0,0,1,.74,1.145c-.62,2.891-8.546,20.142-10.887,22.483a.962.962,0,0,1-.682.283.962.962,0,0,1-.682-.283.966.966,0,0,1,0-1.364,32.354,32.354,0,0,0,3.256-5.511c-1.888,1.6-5.682,6.2-3.462,16.192.94,4.227,2.408,9.932,3.854,15.465a.948.948,0,0,1-.208.854l.467.651s0,.01.006.014a.968.968,0,0,1,.1.22.936.936,0,0,1,.051.125.959.959,0,0,1,.006.187.979.979,0,0,1,0,.182,1,1,0,0,1-.048.129.917.917,0,0,1-.09.222.111.111,0,0,1-.006.014c-2.574,3.9-9.906,8-12.544,8.932l1.612,2.563c3.277-2.4,9.972-8.64,11.219-11.134a.966.966,0,0,1,1.3-.431.964.964,0,0,1,.431,1.294c-.069.139-.158.29-.254.448a.95.95,0,0,1,1.21.214c.531.649,1.34,1.764,2.282,3.072a.879.879,0,0,1,.16.006c8.631,2.061,14.725,1.681,19.184-1.2a.963.963,0,0,1,1.333.288.964.964,0,0,1-.287,1.333,19.012,19.012,0,0,1-10.618,2.805,40.78,40.78,0,0,1-8.109-.933c1.145,1.574,2.3,3.116,3.215,4.182,2.316,2.694,7.135,8.3,11.423,11.678a8.491,8.491,0,0,1,2.458,3.871,6.684,6.684,0,0,0,.608,1.316c.379-.122.413-.679.182-2.5a10.979,10.979,0,0,1-.085-3.281,41.681,41.681,0,0,1,2.173-5.637c.846-9.908-.6-22.722-2.318-30.484a38.519,38.519,0,0,0-2.4-6.9,12.027,12.027,0,0,0,1.337,6.106.964.964,0,0,1-.431,1.294.964.964,0,0,1-.431.1.964.964,0,0,1-.863-.533c-1.219-2.437-2.15-6.081-1.154-8.928a10.774,10.774,0,0,1-2.867-.9c-3.679-1.77-7.235-6.416-8.548-9.885a23.629,23.629,0,0,1-1.972-9.86.991.991,0,0,1,1.006-.923.965.965,0,0,1,.922,1.006,21.944,21.944,0,0,0,1.848,9.095c1.154,3.047,4.379,7.289,7.581,8.83a9.232,9.232,0,0,0,7.025.37,59.545,59.545,0,0,0,12.362-7.129,25.144,25.144,0,0,0,5.429-5.65l.268-.424a28.955,28.955,0,0,1,3.613-4.867,28.765,28.765,0,0,0,5.942-8.624,12.358,12.358,0,0,0,.72-8.39.966.966,0,0,1,.666-1.191.967.967,0,0,1,1.191.666,14.376,14.376,0,0,1-.793,9.648,30.9,30.9,0,0,1-6.325,9.216,27.427,27.427,0,0,0-3.387,4.575l-.269.426a26.755,26.755,0,0,1-5.818,6.094A66.312,66.312,0,0,1-255.8,474.6a31.032,31.032,0,0,0,5.7,3.539c1.252.568,2.77,1.229,4.313,1.9,2.373,1.035,4.827,2.1,6.474,2.9,2.2,1.064,4.924,3.166,5.947,5.87a.965.965,0,0,1-.56,1.244.98.98,0,0,1-.342.063.965.965,0,0,1-.9-.624c-.823-2.176-3.2-3.954-4.982-4.816-1.613-.779-4.05-1.841-6.406-2.868-1.551-.676-3.077-1.341-4.338-1.912a32.042,32.042,0,0,1-4.88-2.867,46.845,46.845,0,0,1,4.2,7.135,55.592,55.592,0,0,1,4.129,13.137,37.52,37.52,0,0,1,4.637-5.481.965.965,0,0,1,1.363.061.964.964,0,0,1-.061,1.362c-3.385,3.091-8.019,10.305-9.854,14.117-1.034,2.151-2.585,5.516-3.85,8.414a.968.968,0,0,1-.069.158,42.377,42.377,0,0,0-2.046,5.224,9.487,9.487,0,0,0,.1,2.685c.226,1.779.535,4.214-1.8,4.657a2.124,2.124,0,0,1-.391.039c-1.317,0-1.866-1.412-2.315-2.566a6.892,6.892,0,0,0-1.854-3.056c-4.435-3.494-9.337-9.195-11.693-11.934-1.344-1.563-3.122-4.034-4.692-6.215-1.046-1.454-1.949-2.71-2.5-3.379a.96.96,0,0,1-.213-.7,62.749,62.749,0,0,1-11.9,11.219c-.022.015-.034.039-.057.054a1,1,0,0,1-.095.042,5.511,5.511,0,0,1-.977.512,4.987,4.987,0,0,1-1.668.31,2.7,2.7,0,0,1-2.151-.894c-.318-.385-.95-1.467.058-3.171a.967.967,0,0,1,1.321-.339.966.966,0,0,1,.339,1.322c-.294.5-.326.846-.231.961.145.178.706.282,1.5.043l-2.5-3.966c-.006-.01-.006-.021-.012-.031a1.9,1.9,0,0,1-.294-.391,2.109,2.109,0,0,1,.739-2.7.944.944,0,0,1,.789-.173c-.462-.628-.881-1.154-1.413-1.822-.294-.368-.622-.78-1.011-1.276-1.4-1.779-3.066-2.522-5.374-3.548l-.74-.331a40.071,40.071,0,0,1-7.821-4.68,42.844,42.844,0,0,1-5.653-5.21c-.453-.474-.875-.915-1.264-1.3-.151-.151-.279-.3-.417-.454a9.266,9.266,0,0,0-2.786,2.317.964.964,0,0,1-.795.418.952.952,0,0,1-.546-.17A.963.963,0,0,1-325.882,486.086Zm70.993,24.272c.81-1.763,1.5-3.216,1.791-3.83a63.218,63.218,0,0,1,4.138-7.04.99.99,0,0,1-.09-.249,55.011,55.011,0,0,0-4.278-14.266,41.716,41.716,0,0,0-5.909-9.2,12.061,12.061,0,0,1-1.26.182,41.314,41.314,0,0,1,3.012,8.313A123.2,123.2,0,0,1-254.889,510.358Zm-35.066-29.715c-1.486-6.686-.45-11.244,1.083-14.213a.933.933,0,0,1-.226.2,41.083,41.083,0,0,0-6.925,6.207l.474.432a9.516,9.516,0,0,1,2.514,4.562,32.926,32.926,0,0,1,.464,3.444c.119,1.134.244,2.306.391,3.232a11.924,11.924,0,0,0,1.992,4.139c.564.715,1.976,2.65,3.314,4.5C-288.052,488.593-289.181,484.126-289.955,480.643Zm-7.216,24.773c.166-.057.354-.131.556-.216-.157-.233-.3-.448-.441-.649a.956.956,0,0,1-.359.627,1.218,1.218,0,0,0-.237.252C-297.63,505.455-297.479,505.525-297.171,505.416Zm-22.554-21.464c.4.4.829.849,1.293,1.334a41.382,41.382,0,0,0,5.389,4.979,37.881,37.881,0,0,0,7.484,4.485l.732.327c2.368,1.054,4.413,1.964,6.105,4.12.387.491.712.9,1,1.264a45.836,45.836,0,0,1,2.826,3.842c.014.021.015.046.027.067,2.9-1.5,7.006-4.171,8.932-6.623-1.211-1.688-4.815-6.7-5.768-7.911a13.557,13.557,0,0,1-2.381-5.028c-.157-.977-.284-2.176-.406-3.334-.135-1.273-.274-2.59-.42-3.191a7.622,7.622,0,0,0-1.943-3.595,16.009,16.009,0,0,0-2.68-2.123,8.3,8.3,0,0,0-3.481-.972,5.159,5.159,0,0,0-1.391.051,19.428,19.428,0,0,1,3.318,1.658,19.52,19.52,0,0,1,3.247,2.632,14.333,14.333,0,0,1,2.179,2.8.965.965,0,0,1-.331,1.323.959.959,0,0,1-.5.138.965.965,0,0,1-.829-.469A12.215,12.215,0,0,0-299.2,477.3a17.761,17.761,0,0,0-2.912-2.366,18.545,18.545,0,0,0-4.395-2,5.425,5.425,0,0,0-3.072.614,22.832,22.832,0,0,1,6.157,4.239.965.965,0,0,1-.1,1.36.957.957,0,0,1-.627.232.961.961,0,0,1-.733-.337c-.629-.732-4.35-3.559-6.043-3.914a2.612,2.612,0,0,0-2.08.468,1.413,1.413,0,0,0-.387.618,18.73,18.73,0,0,1,4.483,3.285.963.963,0,0,1-.044,1.363.957.957,0,0,1-.659.261.959.959,0,0,1-.7-.305,16.462,16.462,0,0,0-4.43-3.11,1.973,1.973,0,0,0-1.949.388,1.053,1.053,0,0,0-.252.941c.682.568,2.61,2.182,3.309,2.881a.962.962,0,0,1,0,1.363.959.959,0,0,1-.682.283.959.959,0,0,1-.681-.282c-.69-.689-2.844-2.483-3.321-2.879-1.293-.619-2.773-.861-3.169-.133C-321.829,480.886-321.328,482.349-319.725,483.952Z" transform="translate(339.894 -437.25)" fill="#817341"/>
    <path id="パス_36093" data-name="パス 36093" d="M-196.449,514.6c-1.148,7.745-3.218,54.74-3.218,58.279,0,.641-.006,1.33-.013,2.047-.009,1.067-.018,2.2-.01,3.314a.965.965,0,0,1-.957.973h-.008a.965.965,0,0,1-.965-.957c-.009-1.13,0-2.269.01-3.346.006-.711.011-1.395.011-2.031,0-3.553,2.084-50.767,3.239-58.561a34.267,34.267,0,0,1,3.034-10.774.961.961,0,0,1,1.309-.383.964.964,0,0,1,.384,1.309C-194.457,505.98-195.616,508.963-196.449,514.6Z" transform="translate(205.762 -450.155)" fill="#817341"/>
    <path id="パス_36094" data-name="パス 36094" d="M-224.416,504.795c2.992,2.294,5.243,6,6.879,11.316a.963.963,0,0,1-.638,1.205.937.937,0,0,1-.283.043.964.964,0,0,1-.922-.682c-1.494-4.855-3.583-8.338-6.21-10.352a.964.964,0,0,1-.178-1.352A.966.966,0,0,1-224.416,504.795Z" transform="translate(249.312 -450.46)" fill="#817341"/>
    <path id="パス_36095" data-name="パス 36095" d="M-445.423,606l53.652-6.083a.968.968,0,0,1,.55.125l-.043-.506a.953.953,0,0,1,.033-.284c-11.379-1.449-33.217-4.221-37.562-4.656-6.583-.658-11.063-3.649-12.617-8.42a.963.963,0,0,1,.619-1.215.963.963,0,0,1,1.215.618c1.757,5.4,7.629,6.763,10.973,7.1,4.668.467,29.272,3.6,39.778,4.937,2.147.274,3.65.465,4.184.532.494.061.955.125,1.386.185,2.765.383,3.512.4,3.89-.359a.894.894,0,0,1,.06-.076.894.894,0,0,1,.121-.154.893.893,0,0,1,.137-.117.859.859,0,0,1,.1-.071l-1.164-.178c-.019,0-.033-.015-.051-.019a.949.949,0,0,1-.252-.092c-.024-.013-.05-.02-.072-.034a.965.965,0,0,1-.244-.224c-.018-.023-.027-.051-.043-.076a.952.952,0,0,1-.093-.163,21.062,21.062,0,0,1-1.416-9.957c.085-1.785.252-5.256,1.695-7.288-3.542-.472-8.319-1.049-12.641-1.573-3.6-.436-6.711-.812-8.375-1.039a39.227,39.227,0,0,1-8.923-2.139c-.85-.33-2.623-1.018-5.929.826-2.321,1.293-4,.839-4.632-.185-.559-.9-.431-2.491,1.769-4,3.513-2.4,4.008-3.3,3.533-6.379a14.063,14.063,0,0,0-.51-2.164c-.54-1.8-.776-2.967.236-8.028,1.351-6.753,2.52-24.115,1.379-30.674a.966.966,0,0,1,.785-1.117.961.961,0,0,1,1.116.785c1.172,6.743-.01,24.5-1.387,31.384-.965,4.823-.707,5.678-.281,7.093a16.107,16.107,0,0,1,.569,2.427c.635,4.123-.471,5.61-4.35,8.265-1.079.738-1.23,1.308-1.227,1.377.117.109.853.2,2.059-.472,3.678-2.052,6.081-1.518,7.569-.94A37.376,37.376,0,0,0-401.342,575c1.65.226,4.753.6,8.346,1.035,5.482.665,11.7,1.416,15.22,1.931a.964.964,0,0,1,.825.977.945.945,0,0,1-.054.257l.756.07.145.014c-.694-3.115-2.2-9.721-3.883-17.136a.936.936,0,0,1-.006-.246c-1.429-1.953-2.805-3.969-4.068-5.821-1.12-1.641-2.178-3.191-3.064-4.387-1.342-1.808-3.391-4.732-5.628-7.983,3.105,7.43,6.669,15.146,9.221,20.67,1.517,3.282,2.715,5.875,3.384,7.458a.965.965,0,0,1-.512,1.265.977.977,0,0,1-.375.076.968.968,0,0,1-.89-.589c-.657-1.554-1.849-4.133-3.358-7.4-3.3-7.135-8.278-17.918-11.8-27.065a.959.959,0,0,1,.02-.74c-2.444-3.613-4.728-7.033-6.2-9.274a.965.965,0,0,1,.277-1.336.967.967,0,0,1,1.336.277c3.691,5.612,12.467,18.627,16.078,23.493.909,1.225,1.977,2.791,3.108,4.449,3.363,4.928,7.547,11.059,11.188,13.731,3.864,2.833,9.755,3.243,12.6.876,4.236-3.515,10.8-15.531,13.215-20.885a105.946,105.946,0,0,0,6.5-21.921,112.824,112.824,0,0,0,1.633-14.006,9.013,9.013,0,0,0-1.219-5.166.965.965,0,0,1,.15-1.356.963.963,0,0,1,1.355.15c1.238,1.547,1.716,4.349,1.641,6.44a114.43,114.43,0,0,1-1.656,14.242,108.274,108.274,0,0,1-6.648,22.409c-1.094,2.427-2.941,6.042-5.05,9.678a.946.946,0,0,1,.1.64c-1.079,5.125-2.415,15.442-1.856,21.308a.964.964,0,0,1-.868,1.052.913.913,0,0,1-.092,0,.964.964,0,0,1-.959-.873c-.46-4.82.307-12.482,1.195-18.059a36.926,36.926,0,0,1-6.211,7.826,9.409,9.409,0,0,1-5.706,1.968,45.885,45.885,0,0,1-3.758,5.832.965.965,0,0,1-.76.37.958.958,0,0,1-.595-.206.964.964,0,0,1-.164-1.354,46,46,0,0,0,3.129-4.729,15.7,15.7,0,0,1-2.485-.491c-.549,1.719-1.487,4.605-2.543,7.654a3.96,3.96,0,0,1,1.455,2.389c4.587.079,10.377.138,11,.138.524,0,1.637-.123,2.714-.241.95-.1,1.932-.212,2.64-.252a8.6,8.6,0,0,1,4.793,1.422,29.738,29.738,0,0,1,3.251,2.723,22.746,22.746,0,0,1,5.563,4.764c.246.283.509.574.772.866.315.348.616.686.9,1.015l14.259-44.132a.963.963,0,0,1,.822-.663l83.741-8.35a.96.96,0,0,1,.85.36.962.962,0,0,1,.158.91l-20.757,61.077a.962.962,0,0,1-1.223.6.964.964,0,0,1-.6-1.224l20.274-59.658-81.622,8.139-19.847,61.43a.965.965,0,0,1-.917.668.958.958,0,0,1-.3-.047.964.964,0,0,1-.621-1.215l1.893-5.859a2.909,2.909,0,0,1-1.112.225c-.064,0-.128,0-.193-.006a6.566,6.566,0,0,1-4.9-2.654c-.67-.859-3.321-4.418-3.933-5.242-.681-.378-1.543-.793-2.423-1.208l.315.424c.207.277.391.525.544.724.441.573,2.346,3.095,3.15,4.265a1.976,1.976,0,0,1,.1,2.332,2.7,2.7,0,0,1-2.975.764,6.932,6.932,0,0,1-2.9-2.132,12.5,12.5,0,0,0-2.026-1.8c-.543-.363-1.156-.726-1.748-1.078a19.341,19.341,0,0,1-2.706-1.8,12.408,12.408,0,0,1-5.219.3l-10.759,1.2a3.115,3.115,0,0,1-2.8,1.2,21.544,21.544,0,0,1-2.792-.273c-.423-.059-.875-.121-1.361-.182-.535-.067-2.039-.258-4.187-.532l-.264-.034.171,2.063,48.063,12.426,79.737-10.711a.966.966,0,0,1,1.084.828.965.965,0,0,1-.827,1.084l-79.924,10.736a1.166,1.166,0,0,1-.129.008.945.945,0,0,1-.242-.031l-48.909-12.645a.966.966,0,0,1-.719-.854l-.064-.768a.933.933,0,0,1-.465.2l-53.652,6.083c-.037,0-.073.006-.11.006a.965.965,0,0,1-.957-.856A.965.965,0,0,1-445.423,606Zm75.817-34.155a13.74,13.74,0,0,1-2.814-1.565,28.82,28.82,0,0,1-4.839-4.842c1.363,5.99,2.516,11.077,3.079,13.607a.936.936,0,0,1,0,.415c.769.071,1.473.134,1.988.179C-371.119,576.536-370.159,573.58-369.606,571.85Zm-3.021,10.594c.509.014,1.1.027,1.744.041-.186-.454-.5-.839-.719-.854-.232-.017-.768-.063-1.449-.125a1,1,0,0,1,.162.105A.95.95,0,0,1-372.627,582.444Zm.758,14.253c-.206-.056-2.542-.758-2.75-.812a7.066,7.066,0,0,0,.178,1.122Zm-4.432-2.961a46.891,46.891,0,0,1,8.014,2.088,9.821,9.821,0,0,0,6.316-.022.967.967,0,0,1,1.028.29,13.133,13.133,0,0,0,2.688,1.862c.613.364,1.246.742,1.823,1.127a14.064,14.064,0,0,1,2.346,2.062,5.828,5.828,0,0,0,2.028,1.617,2,2,0,0,0,.529.075,3.443,3.443,0,0,0,.344-.029.49.49,0,0,0-.092-.188c-.771-1.123-2.674-3.64-3.09-4.182-.158-.207-.349-.461-.563-.749a27.007,27.007,0,0,0-3.288-3.893s-.006-.009-.01-.012l-.013-.008a19.811,19.811,0,0,0-2.858-2.317.965.965,0,0,1-.431-1.294.966.966,0,0,1,1.3-.431,18.3,18.3,0,0,1,3.225,2.555,34.8,34.8,0,0,0,3.491,1.777c1.2.564,2.445,1.147,3.374,1.678a.974.974,0,0,1,.3.262c.033.044,3.3,4.436,4.028,5.371a4.633,4.633,0,0,0,3.488,1.916c.372.018.582-.1.63-.178.034-.056.014-.206-.106-.412-.465-.788-3.494-4.879-5.305-7.325-.867-1.171-1.551-2.094-1.762-2.394a6.62,6.62,0,0,0-2.219-1.969c-.875-.492-4.936-2.106-6.425-2.687a.965.965,0,0,1-.549-1.249.966.966,0,0,1,1.249-.549c.561.219,5.518,2.155,6.671,2.8a8.612,8.612,0,0,1,2.849,2.538c.209.3.883,1.2,1.737,2.359,2.584,3.488,4.941,6.686,5.417,7.5.018.029.023.059.04.089l.874-2.7a.964.964,0,0,1-.33-.441c-.379-.7-3.63-5.473-4.29-6.326a11.7,11.7,0,0,0-2.888-2.178l-.682-.368c-1.232-.669-3.527-1.915-4.591-2.309a.964.964,0,0,1-.57-1.239.965.965,0,0,1,1.239-.57A51.155,51.155,0,0,1-346.5,588.1l.669.362a13.2,13.2,0,0,1,3.5,2.7c.035.044,2.535,3.489,3.849,5.617l.514-1.592a17.182,17.182,0,0,0-1.609-1.95c-.272-.3-.543-.6-.8-.894a20.893,20.893,0,0,0-5.191-4.43.935.935,0,0,1-.174-.133,29.445,29.445,0,0,0-3.061-2.583,6.691,6.691,0,0,0-3.615-1.1c-.655.037-1.612.142-2.536.244-1.181.13-2.3.252-2.925.252-.92,0-12.961-.125-16.095-.26a15.25,15.25,0,0,0-1.99,4.149A15.78,15.78,0,0,0-376.3,593.735Zm-1.527,2.042c-.006-.016-.018-.029-.023-.045a16.358,16.358,0,0,1,.044-7.809,15.929,15.929,0,0,1,3.554-6.3.961.961,0,0,1,.3-.2l-2.471-.227c-1.11-.1-2.138-.2-2.764-.254-.953,1.64-1.1,4.73-1.164,5.967a19.275,19.275,0,0,0,1.1,8.651Z" transform="translate(446.28 -450.747)" fill="#817341"/>
    <path id="パス_36096" data-name="パス 36096" d="M-295.643,551.707a.963.963,0,0,1,1.188.671,32.082,32.082,0,0,1,.7,12.312,4.45,4.45,0,0,0,.955,3.478,1.072,1.072,0,0,0,.956.335,2.154,2.154,0,0,0,1.551-1c.4-.675.689-2.01-.2-4.535a.964.964,0,0,1,.589-1.23.961.961,0,0,1,1.23.589c.912,2.59.926,4.661.041,6.157a4.055,4.055,0,0,1-2.895,1.927,3.005,3.005,0,0,1-.491.041,3.038,3.038,0,0,1-2.113-.883,6.3,6.3,0,0,1-1.539-5.1,30.185,30.185,0,0,0-.645-11.57A.966.966,0,0,1-295.643,551.707Z" transform="translate(376.374 -459.694)" fill="#817341"/>
  </g>
  <path id="パス_36097" data-name="パス 36097" d="M-341.444,623.688-418.67,633.94l2.029-6,77.047-9.463Z" transform="translate(526.317 -439.602)" fill="#817341"/>
</svg>
