<?xml version="1.0" encoding="utf-8"?>
<!-- Generator: Adobe Illustrator 25.2.1, SVG Export Plug-In . SVG Version: 6.00 Build 0)  -->
<svg version="1.1" id="コンポーネント_18_1" xmlns="http://www.w3.org/2000/svg" xmlns:xlink="http://www.w3.org/1999/xlink"
	 x="0px" y="0px" viewBox="0 0 223.1 16.8" style="enable-background:new 0 0 223.1 16.8;" xml:space="preserve">
<style type="text/css">
	.st0{enable-background:new    ;}
	.st1{fill:#3662AE;}
</style>
<g class="st0">
	<path class="st1" d="M3.5,1.2v13.2h-2V3H0V1.2H3.5z"/>
	<path class="st1" d="M15.6,7c0.7,0.6,1,1.6,1,2.9c0,0.9-0.2,1.7-0.6,2.4c-0.4,0.7-1,1.2-1.7,1.6c-0.7,0.4-1.5,0.6-2.4,0.6
		c-0.6,0-1.3-0.1-1.9-0.4c-0.6-0.3-1.2-0.6-1.6-1l1-1.6c0.3,0.3,0.6,0.6,1.1,0.8c0.5,0.2,0.9,0.3,1.4,0.3c0.8,0,1.4-0.3,1.9-0.8
		c0.5-0.5,0.8-1.2,0.8-2c0-0.7-0.2-1.3-0.7-1.8c-0.4-0.4-1.1-0.7-1.8-0.7c-0.6,0-1.2,0.1-1.7,0.3l-0.1-0.1L13.2,3h-4V1.2h6.9l-3,4.8
		C14.1,6.1,14.9,6.4,15.6,7z"/>
	<path class="st1" d="M20.6,7.1c0.2-0.2,0.5-0.3,0.7-0.3c0.3,0,0.5,0.1,0.7,0.3s0.3,0.5,0.3,0.8c0,0.3-0.1,0.6-0.3,0.8
		s-0.4,0.3-0.7,0.3c-0.3,0-0.5-0.1-0.7-0.3c-0.2-0.2-0.3-0.5-0.3-0.8C20.3,7.5,20.4,7.3,20.6,7.1z M20.6,12.5
		c0.2-0.2,0.5-0.3,0.7-0.3c0.3,0,0.5,0.1,0.7,0.3c0.2,0.2,0.3,0.5,0.3,0.8c0,0.3-0.1,0.6-0.3,0.8s-0.4,0.3-0.7,0.3
		c-0.3,0-0.5-0.1-0.7-0.3c-0.2-0.2-0.3-0.5-0.3-0.8C20.3,13,20.4,12.7,20.6,12.5z"/>
	<path class="st1" d="M33.2,7c0.7,0.6,1,1.6,1,2.9c0,0.9-0.2,1.7-0.6,2.4c-0.4,0.7-1,1.2-1.7,1.6c-0.7,0.4-1.5,0.6-2.4,0.6
		c-0.6,0-1.3-0.1-1.9-0.4c-0.6-0.3-1.2-0.6-1.6-1l1-1.6c0.3,0.3,0.6,0.6,1.1,0.8c0.5,0.2,0.9,0.3,1.4,0.3c0.8,0,1.4-0.3,1.9-0.8
		c0.5-0.5,0.8-1.2,0.8-2c0-0.7-0.2-1.3-0.7-1.8c-0.4-0.4-1.1-0.7-1.8-0.7c-0.6,0-1.2,0.1-1.7,0.3l-0.1-0.1L30.9,3h-4V1.2h6.9l-3,4.8
		C31.7,6.1,32.5,6.4,33.2,7z"/>
	<path class="st1" d="M40.6,13.6c-0.8-0.5-1.5-1.3-2-2.3C38.2,10.2,38,9,38,7.7c0-2.2,0.5-3.8,1.5-5c1-1.1,2.3-1.7,4.1-1.7
		c1.1,0,2,0.3,2.9,0.8s1.5,1.3,2,2.3c0.5,1,0.7,2.2,0.7,3.5c0,1.4-0.2,2.6-0.7,3.6c-0.5,1-1.1,1.8-2,2.3s-1.8,0.8-2.9,0.8
		C42.4,14.4,41.5,14.1,40.6,13.6z M46.1,11.2c0.6-0.9,0.9-2.1,0.9-3.6c0-1.5-0.3-2.6-0.9-3.5c-0.6-0.9-1.5-1.3-2.6-1.3
		c-1.1,0-2,0.4-2.6,1.3C40.3,5,40,6.2,40,7.7c0,1.5,0.3,2.7,0.9,3.5c0.6,0.9,1.5,1.3,2.6,1.3C44.6,12.5,45.5,12.1,46.1,11.2z"/>
</g>
<g class="st0">
	<path class="st1" d="M53.5,10.8v-0.5h10v0.5H53.5z"/>
</g>
<g class="st0">
	<path class="st1" d="M71.9,1.2v13.2h-2V3h-1.5V1.2H71.9z"/>
	<path class="st1" d="M83.1,6.3c0.6,0.4,1.1,0.9,1.4,1.5C84.8,8.5,85,9.2,85,10c0,0.8-0.2,1.6-0.6,2.3s-0.9,1.2-1.6,1.6
		c-0.7,0.4-1.4,0.6-2.2,0.6c-0.7,0-1.3-0.1-2-0.4s-1.2-0.6-1.6-1l1-1.5c0.3,0.3,0.6,0.6,1.1,0.7c0.4,0.2,0.9,0.3,1.3,0.3
		c0.7,0,1.3-0.2,1.8-0.7c0.5-0.5,0.7-1.1,0.7-1.8c0-0.8-0.2-1.5-0.7-2s-1.1-0.8-1.9-0.8c-0.4,0-0.9,0.1-1.3,0.2
		c-0.4,0.1-0.8,0.3-1.3,0.6h0v-7h6.3V3h-4.6v2.9c0.4-0.1,0.9-0.2,1.3-0.2C81.7,5.7,82.5,5.9,83.1,6.3z"/>
	<path class="st1" d="M89,7.1c0.2-0.2,0.5-0.3,0.7-0.3c0.3,0,0.5,0.1,0.7,0.3s0.3,0.5,0.3,0.8c0,0.3-0.1,0.6-0.3,0.8
		S90,8.9,89.7,8.9c-0.3,0-0.5-0.1-0.7-0.3c-0.2-0.2-0.3-0.5-0.3-0.8C88.7,7.5,88.8,7.3,89,7.1z M89,12.5c0.2-0.2,0.5-0.3,0.7-0.3
		c0.3,0,0.5,0.1,0.7,0.3c0.2,0.2,0.3,0.5,0.3,0.8c0,0.3-0.1,0.6-0.3,0.8s-0.4,0.3-0.7,0.3c-0.3,0-0.5-0.1-0.7-0.3
		c-0.2-0.2-0.3-0.5-0.3-0.8C88.7,13,88.8,12.7,89,12.5z"/>
	<path class="st1" d="M96.7,13.6c-0.8-0.5-1.5-1.3-2-2.3c-0.5-1-0.7-2.2-0.7-3.6c0-2.2,0.5-3.8,1.5-5c1-1.1,2.3-1.7,4.1-1.7
		c1.1,0,2,0.3,2.9,0.8s1.5,1.3,2,2.3c0.5,1,0.7,2.2,0.7,3.5c0,1.4-0.2,2.6-0.7,3.6c-0.5,1-1.1,1.8-2,2.3s-1.8,0.8-2.9,0.8
		C98.5,14.4,97.6,14.1,96.7,13.6z M102.2,11.2c0.6-0.9,0.9-2.1,0.9-3.6c0-1.5-0.3-2.6-0.9-3.5c-0.6-0.9-1.5-1.3-2.6-1.3
		c-1.1,0-2,0.4-2.6,1.3c-0.6,0.9-0.9,2-0.9,3.5c0,1.5,0.3,2.7,0.9,3.5c0.6,0.9,1.5,1.3,2.6,1.3C100.7,12.5,101.6,12.1,102.2,11.2z"
		/>
	<path class="st1" d="M111,13.6c-0.8-0.5-1.5-1.3-2-2.3c-0.5-1-0.7-2.2-0.7-3.6c0-2.2,0.5-3.8,1.5-5c1-1.1,2.3-1.7,4.1-1.7
		c1.1,0,2,0.3,2.9,0.8c0.8,0.5,1.5,1.3,2,2.3c0.5,1,0.7,2.2,0.7,3.5c0,1.4-0.2,2.6-0.7,3.6c-0.5,1-1.1,1.8-2,2.3
		c-0.8,0.5-1.8,0.8-2.9,0.8C112.8,14.4,111.8,14.1,111,13.6z M116.5,11.2c0.6-0.9,0.9-2.1,0.9-3.6c0-1.5-0.3-2.6-0.9-3.5
		c-0.6-0.9-1.5-1.3-2.6-1.3c-1.1,0-2,0.4-2.6,1.3c-0.6,0.9-0.9,2-0.9,3.5c0,1.5,0.3,2.7,0.9,3.5c0.6,0.9,1.5,1.3,2.6,1.3
		C115,12.5,115.9,12.1,116.5,11.2z"/>
</g>
<g class="st0">
	<path class="st1" d="M141,0v12.6h7.4v1.9H139V0H141z"/>
	<path class="st1" d="M153,2.5c0.2-0.2,0.5-0.3,0.8-0.3c0.3,0,0.5,0.1,0.8,0.3s0.3,0.4,0.3,0.7s-0.1,0.5-0.3,0.7
		c-0.2,0.2-0.5,0.3-0.8,0.3c-0.3,0-0.6-0.1-0.8-0.3c-0.2-0.2-0.3-0.4-0.3-0.7S152.8,2.7,153,2.5z M154.7,6.2v8.3h-1.9V6.2H154.7z"/>
	<path class="st1" d="M167.6,6.2l-4.4,8.5h-0.1l-4.6-8.5h2.2l2.5,5.3l2.3-5.3H167.6z"/>
	<path class="st1" d="M177.1,12.3l0.9,1.4c-0.4,0.3-0.9,0.5-1.4,0.7c-0.5,0.2-1,0.2-1.5,0.2c-0.9,0-1.7-0.2-2.4-0.6
		s-1.2-0.9-1.6-1.6c-0.4-0.7-0.6-1.4-0.6-2.3c0-0.8,0.2-1.6,0.6-2.2c0.4-0.7,1-1.2,1.7-1.6c0.7-0.4,1.5-0.6,2.3-0.6
		c1.1,0,2,0.3,2.7,1c0.7,0.6,1.2,1.5,1.5,2.7l-6.6,2.3c0.2,0.4,0.6,0.7,1,1c0.4,0.2,0.9,0.3,1.4,0.3
		C175.8,13.1,176.5,12.8,177.1,12.3z M173.1,8.1c-0.5,0.5-0.7,1.2-0.7,2c0,0.2,0,0.4,0,0.5l4.8-1.8c-0.2-0.5-0.5-0.8-0.8-1.1
		c-0.4-0.3-0.8-0.4-1.4-0.4C174.2,7.3,173.6,7.6,173.1,8.1z"/>
</g>
<g class="st0">
	<path class="st1" d="M183.8,7.2c-0.5,0-1,0-1.3,0.1V6c0.4,0,0.8,0.1,1.3,0.1h2.9c0.5,0,0.9,0,1.3-0.1v1.3c-0.3,0-0.8,0-1.2,0h-0.4
		v1h0.2c0.6,0,0.9,0,1.2,0c0,0.4,0,0.8,0,1.3v5.8c0,0.6,0,1,0,1.3h-1.2v-0.5h-2.8v0.7h-1.2c0-0.5,0.1-0.9,0.1-1.6V9.6
		c0-0.6,0-1,0-1.4c0.3,0,0.6,0,1.2,0h0.3v-1H183.8z M183.9,13h2.8v-0.9c-0.1,0-0.2,0-0.3,0c-0.8,0-0.9-0.1-0.9-0.5V9.2h-0.3v0.1
		c0,0.7-0.1,1.7-0.2,2.3c-0.1,0.5-0.2,0.7-0.5,1.3c-0.1-0.4-0.3-0.6-0.5-0.9V13z M183.9,11.9c0.3-0.7,0.4-1.3,0.5-2.7h-0.5V11.9z
		 M183.9,15h2.8v-0.9h-2.8V15z M185.1,8.2h0.3v-1h-0.3V8.2z M186.3,10.9c0,0.2,0,0.2,0.4,0.2V9.2h-0.4V10.9z M192.8,9.9
		c0,0.5,0,0.8,0,1.2c-0.4,0-0.7,0-1.2,0h-1.9v3.9c0,0.2,0,0.3,0.1,0.3c0.1,0.1,0.4,0.1,0.9,0.1c0.9,0,1.1-0.1,1.2-0.4
		c0.1-0.3,0.1-0.9,0.1-1.8c0.5,0.3,0.8,0.4,1.3,0.5c-0.1,1.4-0.2,2-0.4,2.3c-0.3,0.4-0.9,0.5-2.3,0.5c-1.9,0-2.1-0.2-2.1-1.2v-4.4
		c0-0.6,0-0.8,0-1.2c0.4,0,0.7,0,1.2,0h1.9l0-2.5h-1.9c-0.6,0-1,0-1.3,0.1V6c0.4,0,0.8,0.1,1.3,0.1h2c0.5,0,0.9,0,1.2,0
		c0,0.4,0,0.6,0,1.2V9.9z"/>
	<path class="st1" d="M197.8,15.4c0,0.5,0,0.9,0.1,1.4h-1.4c0-0.5,0.1-0.8,0.1-1.4v-3.6c0-0.4,0-0.5,0-1.3c-0.3,0.5-0.4,0.7-0.9,1.3
		c-0.2-0.6-0.3-0.9-0.6-1.4c0.8-0.9,1.4-1.8,1.8-3.1c0.3-0.7,0.4-1.1,0.4-1.7l1.3,0.5c0,0.1-0.1,0.4-0.2,0.7
		c-0.2,0.7-0.4,1.1-0.7,1.8V15.4z M198.4,7.8c0.3,0,0.6,0.1,1,0.1h5.8c0.5,0,0.8,0,1.1-0.1V9C206,9,205.7,9,205.2,9h-5.8
		c-0.4,0-0.7,0-1,0.1V7.8z M200.3,16.8H199c0-0.3,0.1-0.7,0.1-1.1V14c0-0.4,0-0.7,0-1c0.3,0,0.6,0,1,0h4.5c0.5,0,0.8,0,1,0
		c0,0.3,0,0.6,0,1v1.7c0,0.5,0,0.8,0.1,1.1h-1.3v-0.6h-4V16.8z M205.5,10.7c-0.3,0-0.5,0-0.9,0h-4.6c-0.4,0-0.6,0-0.9,0V9.5
		c0.3,0,0.4,0,0.9,0h4.6c0.4,0,0.7,0,0.9,0V10.7z M205.5,12.4c-0.3,0-0.5,0-0.9,0h-4.6c-0.4,0-0.6,0-0.9,0v-1.1c0.3,0,0.4,0,0.9,0
		h4.6c0.4,0,0.7,0,0.9,0V12.4z M205.5,7.3c-0.3,0-0.7,0-1.2,0h-4c-0.5,0-0.8,0-1.1,0V6.1c0.3,0,0.7,0.1,1.2,0.1h3.8
		c0.6,0,0.9,0,1.3-0.1V7.3z M204.2,15.1v-1h-4v1H204.2z"/>
</g>
<g id="グループ_21128" transform="translate(211.199 4.096)">
	<g id="グループ_21127">
		<path id="パス_36027" class="st1" d="M5.4-0.7c-3.6,0-6.5,2.9-6.5,6.5s2.9,6.5,6.5,6.5s6.5-2.9,6.5-6.5l0,0
			C11.9,2.2,9-0.7,5.4-0.7z M8.2,6c0,0.1-0.1,0.2-0.2,0.2l0,0L4.3,8.1C4,8.2,3.7,8.1,3.6,7.9c0-0.1,0-0.1,0-0.2V4
			c0-0.3,0.2-0.5,0.5-0.5c0.1,0,0.1,0,0.2,0L8,5.4C8.2,5.5,8.3,5.8,8.2,6C8.2,6,8.2,6,8.2,6L8.2,6z"/>
	</g>
</g>
</svg>
