<svg xmlns="http://www.w3.org/2000/svg" width="50" height="177" viewBox="0 0 50 177">
  <g id="Group_14828" data-name="Group 14828" transform="translate(-185)">
    <path id="長方形_14" data-name="長方形 14" d="M0,0H44a6,6,0,0,1,6,6V171a6,6,0,0,1-6,6H0a0,0,0,0,1,0,0V0A0,0,0,0,1,0,0Z" transform="translate(185)" fill="#1c5472"/>
    <g id="Group_14697" data-name="Group 14697" transform="translate(-3484 1185)">
      <path id="Path_15146" data-name="Path 15146" d="M1.288-4.284c.518-.042,1.456-.07,2.254-.07H11.06c.588,0,1.3.056,1.638.07v-2.2c-.364.028-.994.084-1.638.084H3.542c-.728,0-1.75-.042-2.254-.084Z" transform="translate(3688 -1124) rotate(90)" fill="#fff"/>
      <path id="Path_15145" data-name="Path 15145" d="M9.94-8.988c.49,0,1.022.028,1.512.056v-1.806a10.968,10.968,0,0,1-1.512.1H4.312a10.431,10.431,0,0,1-1.484-.1v1.806c.42-.028,1.008-.056,1.5-.056ZM2.534-7.07c-.434,0-.924-.042-1.344-.084V-5.32c.392-.028.938-.056,1.344-.056h3.85a6.016,6.016,0,0,1-.868,3.094,5.816,5.816,0,0,1-2.534,2L4.62.91A6.718,6.718,0,0,0,7.434-1.778a8.882,8.882,0,0,0,.9-3.6H11.7c.392,0,.924.014,1.274.042v-1.82A10.773,10.773,0,0,1,11.7-7.07Zm9.408,29.1a4.522,4.522,0,0,1-1.3.154H2.87a13.443,13.443,0,0,1-1.61-.126v1.96c.294-.028,1.05-.1,1.61-.1h7.406A15.538,15.538,0,0,1,6.72,27.954c-.882-.77-1.806-1.526-2.366-1.946L2.87,27.2a29.78,29.78,0,0,1,3.08,2.688A38.9,38.9,0,0,1,8.624,32.91l1.638-1.3c-.546-.658-1.372-1.568-2.17-2.366a23.325,23.325,0,0,0,4.774-5.474,3.811,3.811,0,0,1,.476-.588ZM4.41,36.772a15.349,15.349,0,0,1-.294,2.94c-.7.056-1.358.1-1.792.112a12.872,12.872,0,0,1-1.47,0L1.008,41.7c.434-.07,1.148-.168,1.54-.21.266-.042.7-.1,1.19-.154a20.608,20.608,0,0,1-2.8,6.482l1.82.728A29.446,29.446,0,0,0,5.572,41.14c.392-.028.728-.056.952-.056.882,0,1.358.154,1.358,1.26a10.254,10.254,0,0,1-.574,3.794,1.008,1.008,0,0,1-1.036.6,7.978,7.978,0,0,1-1.694-.294l.308,1.834a7.739,7.739,0,0,0,1.652.2A2.226,2.226,0,0,0,8.82,47.2,13.553,13.553,0,0,0,9.6,42.148C9.6,40.16,8.568,39.5,7.1,39.5c-.28,0-.7.028-1.162.056.1-.5.21-1.008.28-1.428.07-.35.168-.784.252-1.148Zm5.166,2.212a16.012,16.012,0,0,1,2.352,5.278l1.75-.826a24.989,24.989,0,0,0-2.422-5.152ZM4.256,54.452c1.078.28,4.172.924,5.572,1.106l.42-1.708A43.892,43.892,0,0,1,4.7,52.772Zm.532,1.106-1.876-.252a50.481,50.481,0,0,1-.686,5.782l1.61.406a3,3,0,0,1,.518-.812,4.86,4.86,0,0,1,3.822-1.624c1.218,0,2.072.658,2.072,1.554,0,1.764-2.2,2.786-6.356,2.2l.532,1.82c5.768.5,7.77-1.442,7.77-3.976,0-1.68-1.414-3.178-3.85-3.178A6.8,6.8,0,0,0,4.27,58.792C4.368,57.994,4.606,56.328,4.788,55.558ZM6.538,70.2H11.83v1.358H13.3V68.786H5.124v2.856H6.538Zm.7.336c-.084,1.582-.35,2.38-2.394,2.842a4.368,4.368,0,0,1,.8,1.176c2.52-.644,2.982-1.89,3.108-4.018ZM4.676,74.008l-1.134.322V72.314H4.816V70.788H3.542V68.156H2.03v2.632H.56v1.526H2.03v2.422c-.63.154-1.218.308-1.694.406l.364,1.6c.406-.112.868-.238,1.33-.378v3.094c0,.182-.07.238-.238.238a11.037,11.037,0,0,1-1.148-.014,6.8,6.8,0,0,1,.406,1.54A3.631,3.631,0,0,0,3,80.91c.42-.266.546-.686.546-1.456V75.912c.448-.126.9-.266,1.344-.406Zm8.652,2.842V75.366H9.954v-1.33a2.088,2.088,0,0,0,1.05.2H12.11c.924,0,1.3-.378,1.442-1.848a3.511,3.511,0,0,1-1.288-.518c-.028.924-.084,1.05-.336,1.05h-.672c-.252,0-.308-.028-.308-.378V70.522H9.464v2.03c0,.728.084,1.176.42,1.428H8.3v1.386H4.984V76.85H7.406A7.793,7.793,0,0,1,4.13,79.51a6.512,6.512,0,0,1,1.064,1.274A8.92,8.92,0,0,0,8.3,78V81.2H9.954V78.012a9.594,9.594,0,0,0,2.674,2.646,6.473,6.473,0,0,1,1.12-1.274,8.812,8.812,0,0,1-2.912-2.534ZM5.642,91.394A1.035,1.035,0,0,1,6.706,90.3a.989.989,0,0,1,.91.49C7.8,92,7.28,92.43,6.706,92.43A1.03,1.03,0,0,1,5.642,91.394Zm7.392-5.026c-.728-.014-2.618,0-4.018,0,0-.168.014-.308.014-.42.014-.224.056-.966.1-1.19H7.112a9.381,9.381,0,0,1,.126,1.2,3.554,3.554,0,0,1,.014.42c-1.862.028-4.382.1-5.964.1l.042,1.68c1.708-.1,3.85-.182,5.95-.21l.014.924a3.326,3.326,0,0,0-.546-.042,2.611,2.611,0,0,0-2.772,2.59A2.442,2.442,0,0,0,6.37,93.97,2.993,2.993,0,0,0,7,93.9a6.337,6.337,0,0,1-3.388,1.582l1.47,1.484c3.388-.952,4.452-3.248,4.452-5.054a3.419,3.419,0,0,0-.518-1.918c0-.6,0-1.358-.014-2.058,1.876,0,3.178.028,4.018.07Z" transform="translate(3687 -1128)" fill="#fff"/>
    </g>
    <g id="iconmonstr-magnifier-2" transform="translate(202 20)">
      <path id="iconmonstr-magnifier-2-2" data-name="iconmonstr-magnifier-2" d="M13.889,12.627l-3.62-3.62a5.679,5.679,0,1,0-1.392,1.354L12.515,14ZM1.665,5.676A4.012,4.012,0,1,1,5.676,9.687,4.016,4.016,0,0,1,1.665,5.676Z" transform="translate(0)" fill="#fff"/>
    </g>
  </g>
</svg>
