<svg id="Group_17312" data-name="Group 17312" xmlns="http://www.w3.org/2000/svg" xmlns:xlink="http://www.w3.org/1999/xlink" width="105.304" height="20.817" viewBox="0 0 105.304 20.817">
  <defs>
    <clipPath id="clip-path">
      <path id="Path_16555" data-name="Path 16555" d="M301.574,613.346a21.41,21.41,0,0,0-2.75.281c-4.353.676-10.222,3.407-15.63,7.053A66.629,66.629,0,0,0,269.176,633.9s9.015-9.965,13.982-10.3c1.454-.1,1.524.87,1.454,2.129a66.8,66.8,0,0,1-1.273,8.428s4.5-14.5,12.745-17.491c8.529-3.1-5.1,8.542-5.1,8.542,12.759-8.788,14.923-11.782,10.958-11.868Z" transform="translate(-269.176 -613.346)" fill="none"/>
    </clipPath>
    <radialGradient id="radial-gradient" cx="0.47" cy="0.5" r="0.685" gradientTransform="matrix(0.567, 0, 0, -1, -1.676, 12.456)" gradientUnits="objectBoundingBox">
      <stop offset="0" stop-color="#00a0e9"/>
      <stop offset="1" stop-color="#0068b7"/>
    </radialGradient>
    <clipPath id="clip-path-2">
      <path id="Path_16556" data-name="Path 16556" d="M293.223,615.123c-2.423,1.942-7.386,7.814-7.489,7.935a97.753,97.753,0,0,1,8.028-6.8c2.4-1.865,2.744-1.471,2.842-2.254.044-.362-.106-.508-.38-.508a7.471,7.471,0,0,0-3,1.63" transform="translate(-285.734 -613.493)" fill="none"/>
    </clipPath>
    <radialGradient id="radial-gradient-2" cx="0.498" r="0.535" gradientTransform="matrix(0.876, 0, 0, -1, -1.708, 27.091)" xlink:href="#radial-gradient"/>
    <clipPath id="clip-path-3">
      <path id="Path_16554" data-name="Path 16554" d="M527.693,619.931v.8h.2c.89,0,1.041,0,1.041.27a3.651,3.651,0,0,1-.3.981c-.052.128-.111.287-.184.471l-2.92,7.524h0l-2.758-7.378a10.508,10.508,0,0,1-.552-1.507c0-.24.021-.36.967-.36h.206v-.8h-6.419v.8h.446c.75,0,.882.128.981.291a11.1,11.1,0,0,1,.8,1.576l4.256,11.407h2.505l4.419-11.416a10.949,10.949,0,0,1,.728-1.636c.095-.12.146-.235.878-.218l.248,0v-.8Z" transform="translate(-516.974 -619.931)" fill="none"/>
    </clipPath>
    <radialGradient id="radial-gradient-3" cx="0.5" r="0.521" gradientTransform="matrix(0.922, 0, 0, -1, -1.344, 17.368)" xlink:href="#radial-gradient"/>
    <clipPath id="clip-path-4">
      <path id="Path_16558" data-name="Path 16558" d="M548.654,621.453a7.286,7.286,0,0,0-1.753,5.032v.475a7.353,7.353,0,0,0,1.8,5.022c1.2,1.3,3.533,1.953,5.559,1.953a23.642,23.642,0,0,0,5.271-.514v-5.092a.21.21,0,0,1,.192-.222,2.685,2.685,0,0,1,.335-.013c.112,0,.227,0,.333,0l.167-.009v-.865h-5.07v.865l.167.009a4.546,4.546,0,0,1,.612.021.252.252,0,0,1,.257.257v3.957a.4.4,0,0,1-.287.385,3.8,3.8,0,0,1-.8.026,4.215,4.215,0,0,1-3.657-1.478,6.547,6.547,0,0,1-1.366-4.436,7.887,7.887,0,0,1,1.225-4.757,4.864,4.864,0,0,1,4.077-1.649,2.906,2.906,0,0,1,2.929,2.167l.013.184h.881v-2.629a17.324,17.324,0,0,0-2.423-.531,22.37,22.37,0,0,0-2.805-.171,8.27,8.27,0,0,0-5.657,2.017" transform="translate(-546.901 -619.436)" fill="none"/>
    </clipPath>
    <radialGradient id="radial-gradient-4" cx="0.5" r="0.486" gradientTransform="matrix(1.062, 0, 0, -1, 1.262, 16.899)" xlink:href="#radial-gradient"/>
  </defs>
  <path id="Path_16545" data-name="Path 16545" d="M1086.085,630.466a5.1,5.1,0,0,1-1.935-.326,3.3,3.3,0,0,1-1.292-.918,3.672,3.672,0,0,1-.726-1.428,7.147,7.147,0,0,1-.226-1.866,4.631,4.631,0,0,1,.432-2.106,3.927,3.927,0,0,1,1.127-1.381,4.417,4.417,0,0,1,1.559-.756,6.816,6.816,0,0,1,1.73-.227c.213,0,.45.006.71.017s.515.026.762.043.479.036.695.056.386.042.509.064l-.381,1.047q-.206-.052-.576-.12c-.247-.045-.513-.086-.8-.124s-.565-.069-.84-.094-.5-.039-.689-.039a5.92,5.92,0,0,0-1.06.082,2.228,2.228,0,0,0-.823.33,1.724,1.724,0,0,0-.649,1.132,9.788,9.788,0,0,0-.185,2.076,5.143,5.143,0,0,0,.665,2.878,2.39,2.39,0,0,0,2.135.983c.274,0,.56-.009.855-.026s.588-.043.88-.078.578-.077.86-.129.546-.111.793-.18v.455a6.812,6.812,0,0,1-.819.27q-.438.115-.9.2t-.922.124q-.462.043-.9.043" transform="translate(-1011.016 -612.811)" fill="#231815"/>
  <path id="Path_16546" data-name="Path 16546" d="M1099.485,629.375V619.75l1.39-.292v9.917Z" transform="translate(-1019.548 -611.84)" fill="#231815"/>
  <path id="Path_16547" data-name="Path 16547" d="M1108.6,633.185a3.718,3.718,0,0,1-2.537-.777,2.865,2.865,0,0,1-.88-2.269,3.561,3.561,0,0,1,.216-1.274,2.483,2.483,0,0,1,.648-.965,2.984,2.984,0,0,1,1.071-.609,4.67,4.67,0,0,1,1.482-.214,4.9,4.9,0,0,1,1.472.2,2.873,2.873,0,0,1,1.071.591,2.449,2.449,0,0,1,.648.957,3.6,3.6,0,0,1,.216,1.295,3.559,3.559,0,0,1-.216,1.279,2.523,2.523,0,0,1-.648.965,2.893,2.893,0,0,1-1.071.609,4.712,4.712,0,0,1-1.472.211m-1.945-3.054a4.817,4.817,0,0,0,.108,1.1,1.879,1.879,0,0,0,.34.746,1.356,1.356,0,0,0,.6.429,2.5,2.5,0,0,0,.88.137,3.4,3.4,0,0,0,.731-.069,2.042,2.042,0,0,0,.617-.257,1.153,1.153,0,0,0,.484-.777,5.994,5.994,0,0,0,.124-1.3,2.948,2.948,0,0,0-.458-1.832,1.743,1.743,0,0,0-1.456-.579,3.613,3.613,0,0,0-.736.069,2.014,2.014,0,0,0-.612.24.776.776,0,0,0-.288.313,2.274,2.274,0,0,0-.19.489,3.4,3.4,0,0,0-.108.614q-.031.334-.031.677" transform="translate(-1022.315 -615.538)" fill="#231815"/>
  <path id="Path_16548" data-name="Path 16548" d="M1122.691,627.326v4.083a2,2,0,0,0,.041.408.817.817,0,0,0,.17.36.936.936,0,0,0,.365.262,1.649,1.649,0,0,0,.638.1,3.122,3.122,0,0,0,.55-.052c.2-.034.393-.077.592-.129a6.03,6.03,0,0,0,.577-.179q.278-.1.5-.207v-4.649h1.39v5.868h-1.164l-.206-.687c-.158.075-.342.159-.551.254s-.435.183-.679.266a6.912,6.912,0,0,1-.756.21,3.672,3.672,0,0,1-.793.086,3.059,3.059,0,0,1-.833-.107,1.813,1.813,0,0,1-.653-.326,1.528,1.528,0,0,1-.428-.54,1.74,1.74,0,0,1-.154-.76v-4.264Z" transform="translate(-1030.138 -615.659)" fill="#231815"/>
  <path id="Path_16549" data-name="Path 16549" d="M1141.4,623.491c-.007-.086-.01-.172-.01-.258-.007-.068-.01-.142-.01-.219V619.75l1.38-.291v9.916h-.916l-.381-.549h-.03c-.145.085-.3.167-.454.244s-.321.147-.489.21a3.369,3.369,0,0,1-.541.15,3.2,3.2,0,0,1-.607.056,4,4,0,0,1-1.112-.154,2.577,2.577,0,0,1-.947-.5,2.441,2.441,0,0,1-.658-.9,3.283,3.283,0,0,1-.247-1.343,3.594,3.594,0,0,1,.242-1.355,2.693,2.693,0,0,1,.7-1.013,3.107,3.107,0,0,1,1.112-.63,4.626,4.626,0,0,1,1.477-.219c.22,0,.46.011.72.034s.518.049.772.078m-3.551,3.036a3.135,3.135,0,0,0,.139,1,1.767,1.767,0,0,0,.4.678,1.507,1.507,0,0,0,.618.385,2.489,2.489,0,0,0,.792.12,4.854,4.854,0,0,0,.844-.072,4.678,4.678,0,0,0,.731-.185v-4.34c-.22-.029-.431-.05-.634-.064s-.421-.022-.653-.022a5.6,5.6,0,0,0-.912.068,1.62,1.62,0,0,0-.643.223,1.137,1.137,0,0,0-.231.257,2.131,2.131,0,0,0-.222.442,3.37,3.37,0,0,0-.165.647,5.435,5.435,0,0,0-.062.867" transform="translate(-1037.458 -611.84)" fill="#231815"/>
  <g id="Group_16913" data-name="Group 16913">
    <g id="Group_16498" data-name="Group 16498" clip-path="url(#clip-path)">
      <rect id="Rectangle_11443" data-name="Rectangle 11443" width="36" height="21" transform="translate(0.314)" fill="url(#radial-gradient)"/>
    </g>
  </g>
  <g id="Group_16914" data-name="Group 16914" transform="translate(8.743 0.078)">
    <g id="Group_16500" data-name="Group 16500" clip-path="url(#clip-path-2)">
      <rect id="Rectangle_11444" data-name="Rectangle 11444" width="10.914" height="9.565" transform="translate(0 0)" fill="url(#radial-gradient-2)"/>
    </g>
  </g>
  <g id="Group_16915" data-name="Group 16915" transform="translate(36.984 3.722)">
    <g id="Group_16496" data-name="Group 16496" clip-path="url(#clip-path-3)">
      <rect id="Rectangle_11442" data-name="Rectangle 11442" width="15.262" height="14.078" fill="url(#radial-gradient-3)"/>
    </g>
  </g>
  <g id="Group_16916" data-name="Group 16916" transform="translate(52.297 3.469)">
    <g id="Group_16502" data-name="Group 16502" transform="translate(0)" clip-path="url(#clip-path-4)">
      <rect id="Rectangle_11446" data-name="Rectangle 11446" width="13.658" height="14.499" transform="translate(0 0)" fill="url(#radial-gradient-4)"/>
    </g>
  </g>
</svg>
