<svg id="logo-vg_cloud" xmlns="http://www.w3.org/2000/svg" xmlns:xlink="http://www.w3.org/1999/xlink" width="309.88" height="60" viewBox="0 0 309.88 60">
  <defs>
    <clipPath id="clip-path">
      <path id="SVGID" d="M1040.748,605.418v2.377h.6c2.638,0,3.075,0,3.075.793a10.921,10.921,0,0,1-.873,2.9c-.148.383-.329.849-.547,1.392l-8.628,22.221h-.015l-8.138-21.792a32.007,32.007,0,0,1-1.639-4.449c0-.709.068-1.062,2.87-1.062h.6v-2.377h-18.968v2.377l1.315,0c2.226,0,2.611.382,2.908.861a33.611,33.611,0,0,1,2.368,4.656l12.563,33.7h7.408l13.057-33.731a33.855,33.855,0,0,1,2.14-4.833c.281-.344.431-.689,2.6-.645l.729-.008v-2.377Z" transform="translate(-1009.086 -605.418)" fill="none"/>
    </clipPath>
    <radialGradient id="radial-gradient" cx="0.5" cy="0.5" r="0.521" gradientTransform="matrix(0.922, 0, 0, -1, -2.641, 17.335)" gradientUnits="objectBoundingBox">
      <stop offset="0" stop-color="#0092e5"/>
      <stop offset="1" stop-color="#0057aa"/>
    </radialGradient>
    <clipPath id="clip-path-2">
      <path id="SVGID-2" data-name="SVGID" d="M1043.988,610.88q-5.179,5.526-5.175,15.6,0,9.737,5.317,15.513c3.541,3.847,10.442,5.773,16.427,5.773,3.568,0,10.381-.189,15.57-1.515V631.2a.627.627,0,0,1,.574-.659,8.918,8.918,0,0,1,.963-.027c.329,0,.677,0,1.006-.02l.491-.024v-2.55h-14.973v2.55l.492.024a12.864,12.864,0,0,1,1.809.069.739.739,0,0,1,.756.756v11.692a1.19,1.19,0,0,1-.842,1.141,12.147,12.147,0,0,1-2.366.07c-4.784,0-8.1-1.05-10.806-4.361s-4.043-7.251-4.043-13.111c0-6.259,1.205-10.656,3.62-14.048s7.577-5.11,12.039-4.876c7.208.376,8.61,5.909,8.659,6.4l.037.543h2.6v-7.77a51.086,51.086,0,0,0-7.153-1.554,65.92,65.92,0,0,0-8.284-.517c-6.272,0-13.271,2.27-16.717,5.956" transform="translate(-1038.813 -604.924)" fill="none"/>
    </clipPath>
    <radialGradient id="radial-gradient-2" cx="0.5" cy="0.5" r="0.486" gradientTransform="matrix(1.062, 0, 0, -1, 2.42, 16.868)" xlink:href="#radial-gradient"/>
    <clipPath id="clip-path-3">
      <path id="SVGID-3" data-name="SVGID" d="M1023.592,599.477c-12.545,1.943-29.46,9.819-45.037,20.322-23.6,15.908-40.4,38.108-40.4,38.108s25.975-28.728,40.291-29.68c4.191-.279,4.392,2.508,4.191,6.147-.558,10.055-3.667,24.289-3.667,24.289s12.98-41.784,36.729-50.421c24.587-8.938-14.692,24.622-14.692,24.622,37.312-25.7,43.187-34.2,31.055-34.2a57.99,57.99,0,0,0-8.468.814" transform="translate(-938.154 -598.663)" fill="none"/>
    </clipPath>
    <radialGradient id="radial-gradient-3" cx="0.47" cy="0.5" r="0.685" gradientTransform="matrix(0.566, 0, 0, -1, -5.847, 12.349)" xlink:href="#radial-gradient"/>
    <clipPath id="clip-path-4">
      <path id="SVGID-4" data-name="SVGID" d="M976.3,603.519c-7.053,5.644-21.591,22.859-21.591,22.859,3.389-3.95,18.443-15.966,23.145-19.613,6.913-5.362,7.9-4.236,8.185-6.491.129-1.045-.311-1.464-1.089-1.464-1.988,0-6.175,2.73-8.649,4.709" transform="translate(-954.707 -598.809)" fill="none"/>
    </clipPath>
    <radialGradient id="radial-gradient-4" cx="0.498" cy="0.5" r="0.535" gradientTransform="matrix(0.876, 0, 0, -1, -5.716, 26.906)" xlink:href="#radial-gradient"/>
  </defs>
  <path id="Path_6" data-name="Path 6" d="M1087.278,641.784a15.063,15.063,0,0,1-5.721-.963,9.751,9.751,0,0,1-3.821-2.715,10.865,10.865,0,0,1-2.147-4.223,21.148,21.148,0,0,1-.668-5.518,13.688,13.688,0,0,1,1.278-6.227,11.614,11.614,0,0,1,3.333-4.084,13.071,13.071,0,0,1,4.611-2.234,20.169,20.169,0,0,1,5.115-.671c.63,0,1.33.018,2.1.05s1.522.076,2.252.128,1.415.107,2.054.164,1.143.123,1.506.19l-1.126,3.1q-.609-.153-1.7-.356c-.732-.134-1.517-.256-2.36-.367s-1.671-.2-2.482-.278-1.491-.116-2.039-.116a17.52,17.52,0,0,0-3.135.242,6.59,6.59,0,0,0-2.435.975,5.1,5.1,0,0,0-1.919,3.348,28.889,28.889,0,0,0-.548,6.14q0,5.608,1.964,8.509t6.315,2.906c.811,0,1.654-.027,2.526-.076s1.741-.128,2.6-.23,1.71-.228,2.543-.382,1.613-.327,2.343-.531v1.345a20.157,20.157,0,0,1-2.42.8q-1.294.34-2.648.583t-2.725.367q-1.367.128-2.648.128" transform="translate(-866.805 -590.062)" fill="#1a1311"/>
  <path id="Path_7" data-name="Path 7" d="M1092.5,642.472v-28.46l4.109-.863v29.323Z" transform="translate(-857.634 -591.106)" fill="#1a1311"/>
  <path id="Path_8" data-name="Path 8" d="M1108.3,638.828q-4.9,0-7.5-2.3t-2.6-6.709a10.538,10.538,0,0,1,.639-3.768,7.336,7.336,0,0,1,1.916-2.853,8.81,8.81,0,0,1,3.166-1.8,13.809,13.809,0,0,1,4.383-.633,14.487,14.487,0,0,1,4.354.6,8.481,8.481,0,0,1,3.166,1.748,7.231,7.231,0,0,1,1.916,2.831,10.654,10.654,0,0,1,.639,3.828,10.525,10.525,0,0,1-.639,3.781,7.446,7.446,0,0,1-1.916,2.853,8.547,8.547,0,0,1-3.166,1.8,13.947,13.947,0,0,1-4.354.622m-5.752-9.031a14.257,14.257,0,0,0,.32,3.247,5.551,5.551,0,0,0,1,2.206,4,4,0,0,0,1.765,1.269,7.407,7.407,0,0,0,2.6.406,10.072,10.072,0,0,0,2.163-.2,6.025,6.025,0,0,0,1.826-.761,3.412,3.412,0,0,0,1.43-2.3,17.824,17.824,0,0,0,.365-3.842q0-3.7-1.356-5.416a5.155,5.155,0,0,0-4.306-1.712,10.661,10.661,0,0,0-2.176.2,5.956,5.956,0,0,0-1.811.711,2.3,2.3,0,0,0-.85.925,6.825,6.825,0,0,0-.563,1.446,10.176,10.176,0,0,0-.319,1.815q-.093.988-.093,2" transform="translate(-854.662 -587.132)" fill="#1a1311"/>
  <path id="Path_9" data-name="Path 9" d="M1118.425,621.017v12.075a5.941,5.941,0,0,0,.122,1.205,2.428,2.428,0,0,0,.5,1.065,2.771,2.771,0,0,0,1.08.775,4.856,4.856,0,0,0,1.887.3,9.268,9.268,0,0,0,1.629-.154c.58-.1,1.161-.227,1.75-.38a17.662,17.662,0,0,0,1.706-.531q.822-.306,1.491-.61V621.017h4.11v17.35h-3.441l-.609-2.03c-.467.222-1.01.47-1.63.75s-1.288.542-2.009.785a20.5,20.5,0,0,1-2.236.621,10.831,10.831,0,0,1-2.345.254,9.074,9.074,0,0,1-2.465-.317,5.362,5.362,0,0,1-1.931-.963,4.515,4.515,0,0,1-1.265-1.6,5.14,5.14,0,0,1-.457-2.246V621.017Z" transform="translate(-846.254 -587.001)" fill="#1a1311"/>
  <path id="Path_10" data-name="Path 10" d="M1144.248,625.072c-.02-.254-.031-.508-.031-.762-.02-.2-.03-.419-.03-.647v-9.652l4.08-.861v29.321h-2.708l-1.128-1.622h-.09c-.426.253-.874.494-1.341.721s-.948.437-1.444.622a10.049,10.049,0,0,1-1.6.444,9.478,9.478,0,0,1-1.8.164,11.813,11.813,0,0,1-3.287-.456,7.618,7.618,0,0,1-2.8-1.471,7.2,7.2,0,0,1-1.948-2.651,9.709,9.709,0,0,1-.731-3.97,10.65,10.65,0,0,1,.715-4.007,7.964,7.964,0,0,1,2.069-2.995,9.205,9.205,0,0,1,3.289-1.863,13.7,13.7,0,0,1,4.367-.647c.65,0,1.36.032,2.131.1s1.532.145,2.282.23m-10.5,8.978a9.262,9.262,0,0,0,.412,2.943,5.219,5.219,0,0,0,1.172,2,4.457,4.457,0,0,0,1.826,1.14,7.349,7.349,0,0,0,2.344.356,14.339,14.339,0,0,0,2.5-.215,13.859,13.859,0,0,0,2.162-.548V626.9q-.977-.128-1.873-.19c-.6-.044-1.243-.064-1.931-.064a16.625,16.625,0,0,0-2.7.2,4.791,4.791,0,0,0-1.9.659,3.333,3.333,0,0,0-.683.761,6.263,6.263,0,0,0-.656,1.307,9.995,9.995,0,0,0-.487,1.914,16.038,16.038,0,0,0-.183,2.563" transform="translate(-838.386 -591.105)" fill="#1a1311"/>
  <g id="Group_5" data-name="Group 5" transform="translate(107.936 10.279)">
    <g id="Group_4" data-name="Group 4" transform="translate(0)" clip-path="url(#clip-path)">
      <rect id="Rectangle_6" data-name="Rectangle 6" width="45.089" height="41.594" transform="translate(0.001 -0.001)" fill="url(#radial-gradient)"/>
    </g>
  </g>
  <g id="Group_7" data-name="Group 7" transform="translate(153.171 9.527)">
    <g id="Group_6" data-name="Group 6" clip-path="url(#clip-path-2)">
      <rect id="Rectangle_7" data-name="Rectangle 7" width="40.347" height="42.838" transform="translate(0 -0.001)" fill="url(#radial-gradient-2)"/>
    </g>
  </g>
  <g id="Group_9" data-name="Group 9">
    <g id="Group_8" data-name="Group 8" clip-path="url(#clip-path-3)">
      <rect id="Rectangle_8" data-name="Rectangle 8" width="106.039" height="60" transform="translate(0.001 -0.001)" fill="url(#radial-gradient-3)"/>
    </g>
  </g>
  <g id="Group_11" data-name="Group 11" transform="translate(25.188 0.222)">
    <g id="Group_10" data-name="Group 10" clip-path="url(#clip-path-4)">
      <rect id="Rectangle_9" data-name="Rectangle 9" width="31.459" height="27.568" transform="translate(0.001 -0.001)" fill="url(#radial-gradient-4)"/>
    </g>
  </g>
</svg>
