<svg xmlns="http://www.w3.org/2000/svg" width="198.658" height="54.524" viewBox="0 0 198.658 54.524">
  <g id="Group_16135" data-name="Group 16135" transform="translate(-30 -30.554)">
    <g id="Group_16134" data-name="Group 16134" transform="translate(0 -4)">
      <path id="Path_16378" data-name="Path 16378" d="M4.378-9.185C4.3-7.744,4.543-2.871.165-.33A5.328,5.328,0,0,1,1.529.957a9.723,9.723,0,0,0,3.894-5.17A8.7,8.7,0,0,0,9.658.946,4.7,4.7,0,0,1,10.89-.418c-4.081-1.936-4.609-6.457-4.7-8.041q.016-.412.033-.726ZM18.216-1.661H16.61v-.33h1.606ZM16.61-3.487h1.606v.3H16.61Zm-3-2.365v-.374h1.375v.374Zm4.4-.374v.374h-1.4v-.374ZM21-3.19H19.844V-4.543H16.61v-.33h3.036V-7.205H16.61v-.33h4.114V-8.778H16.61v-.627H14.982v.627H10.967v1.243h4.015v.33h-2.9v2.332h2.9v.33H11.836v1.056h3.146v.3h-4.29v1.2h4.29v.33H11.759V-.528h3.223V-.4c0,.187-.066.253-.275.264-.176,0-.825,0-1.276-.022a4.651,4.651,0,0,1,.517,1.232,5.469,5.469,0,0,0,2.024-.22c.473-.22.638-.528.638-1.254V-.528h1.606v.451h1.628V-1.991H21Z" transform="translate(30 88)" fill="#111"/>
      <path id="Path_16377" data-name="Path 16377" d="M5.973-4.191c.033-.418.044-.869.066-1.342H4.29c-.011.484-.033.935-.055,1.342H1.419v1.485H3.971C3.575-1.606,2.662-.88.418-.418a4.872,4.872,0,0,1,.924,1.474C4.3.341,5.357-.891,5.764-2.706H7.733A4.593,4.593,0,0,1,7.348-.594a.688.688,0,0,1-.473.132c-.3,0-.924-.011-1.529-.055A3.558,3.558,0,0,1,5.9,1.056,11.436,11.436,0,0,0,7.6,1.012,1.543,1.543,0,0,0,8.745.462c.374-.429.539-1.529.66-4.026.022-.2.033-.627.033-.627ZM8.745-7.205c.385-.462.825-1.045,1.232-1.639l-1.8-.517A10.855,10.855,0,0,1,7.029-7.293l.253.088H5.137l1.309-.451a6.746,6.746,0,0,0-.88-1.76l-1.43.484A7.464,7.464,0,0,1,4.9-7.205h-1.9l.781-.363a5.964,5.964,0,0,0-1.1-1.683l-1.386.638a6.646,6.646,0,0,1,.88,1.408H.715v2.684h1.54v-1.21H8.712v1.21h1.617V-7.205Zm6.644,3.96c.077-.308.154-.627.22-.957a4.784,4.784,0,0,1,.308.484c.341-.088.671-.2.99-.308-.022.264-.044.528-.077.781Zm3.157-3.762a3.34,3.34,0,0,1-.517.66,3.676,3.676,0,0,1-.7-.66Zm2.332,0V-8.316H17.842c.132-.22.253-.451.363-.682L16.72-9.416A6.757,6.757,0,0,1,14.608-6.8a10.745,10.745,0,0,1,1.3.88c.1-.088.209-.187.319-.3a6.425,6.425,0,0,0,.561.649,5.35,5.35,0,0,1-1,.341L15.8-5.3l-.957-.308-.209.066h-.374l.6-.638c-.2-.121-.451-.253-.737-.4A7.837,7.837,0,0,0,15.642-8.36L14.63-8.987l-.242.055H10.912V-7.6H13.3a6.1,6.1,0,0,1-.462.462c-.264-.1-.517-.187-.748-.264l-1,1.023a18.293,18.293,0,0,1,1.859.836H10.736v1.386h1.21a5.79,5.79,0,0,1-1.441,1.881A9.029,9.029,0,0,1,11.22-.715,5.562,5.562,0,0,0,12.452-2.4V-.671c0,.132-.044.154-.176.165s-.594,0-.968-.022A5.643,5.643,0,0,1,11.759,1,3.373,3.373,0,0,0,13.42.726c.44-.253.539-.671.539-1.364v-3.52H14.3c-.066.506-.154,1-.242,1.375l1.056.5c.1-.275.187-.594.275-.946v1.3h1.089A3.4,3.4,0,0,1,14.333-.187a4.532,4.532,0,0,1,.913,1.243,4.476,4.476,0,0,0,2.9-2.992H19.1a2.609,2.609,0,0,1-.341,1.254A.42.42,0,0,1,18.4-.55c-.176,0-.506-.011-.858-.044A3.462,3.462,0,0,1,17.974.869,8.088,8.088,0,0,0,19.217.825a1.322,1.322,0,0,0,.869-.451c.319-.352.506-1.221.671-3.036.022-.2.044-.583.044-.583H18.414c.033-.3.066-.605.088-.924H17.27c.286-.121.55-.253.814-.4a7.926,7.926,0,0,0,2.112.847,5.989,5.989,0,0,1,1-1.353,8.459,8.459,0,0,1-1.8-.506,5.481,5.481,0,0,0,.946-1.43Zm8.283,1.045h-2.42V-7.271h2.42Zm0,2.827h-2.42V-4.477h2.42Zm1.606-5.61H25.212v7.084h5.555ZM24.86-4.807l-.979.231V-5.907h1.056V-7.381H23.881V-9.405H22.319v2.024H21.065v1.474h1.254v1.672c-.517.11-.99.209-1.4.286l.4,1.529,1-.242v1.98c0,.154-.055.209-.209.209s-.594,0-.979-.011A5.4,5.4,0,0,1,21.56.957,3.63,3.63,0,0,0,23.342.671c.418-.231.539-.616.539-1.342V-3.047c.4-.1.781-.2,1.166-.3ZM24.486-.77V.715h6.886V-.77ZM39.292-9.108a13.389,13.389,0,0,1-1.111,2.772l1.43.484A25.371,25.371,0,0,0,41.1-8.6ZM34.848-6.523A9.441,9.441,0,0,0,33.55-9l-1.463.561A9.74,9.74,0,0,1,33.3-5.874Zm2.563-2.882H35.64v3.773H32.406v1.606h6.765v.682h-6.38V-1.8h6.38V-.99H32.142v1.6h7.029v.429h1.716V-5.632H37.411Zm9.46,2.453h1.408c-.286.264-.583.528-.9.77h-.506ZM48.95-2.266H45.54v-.495h3.41ZM45.54-.583v-.5h3.41v.5Zm6.292-4.2v-1.4H49.6a14.772,14.772,0,0,0,1.914-2.233l-1.375-.7a11.407,11.407,0,0,1-1.067,1.364v-.572h-2.2V-9.405H45.287v1.078H42.823v1.375h2.464v.77h-3.41v1.4h3.41a18.625,18.625,0,0,1-3.806,1.628,9.438,9.438,0,0,1,.946,1.32c.506-.187,1.023-.385,1.518-.605v3.5h1.6V.748h3.41v.264h1.672V-4.059h-3.7c.352-.231.7-.473,1.034-.726Zm4.037.627c-.385,1.265-.715,1.925-1.155,1.925-.374,0-.7-.5-.7-1.441a3.245,3.245,0,0,1,2.42-2.948A15.885,15.885,0,0,1,55.869-4.158ZM57.783.55c2.838-.473,4.191-2.156,4.191-4.444a4.272,4.272,0,0,0-4.532-4.389A4.968,4.968,0,0,0,52.294-3.5c0,1.859,1.034,3.322,2.376,3.322,1.287,0,2.266-1.463,2.915-3.641a22.786,22.786,0,0,0,.638-2.838,2.524,2.524,0,0,1,1.936,2.706,2.759,2.759,0,0,1-2.31,2.739,7.822,7.822,0,0,1-1.067.2ZM64.592-.781l1.6,1.375A9.528,9.528,0,0,0,69.96-2.772,11.763,11.763,0,0,0,71.5-6.6c.088-.385.242-1.023.385-1.518l-2.167-.3a7.331,7.331,0,0,1-.165,1.562,8.178,8.178,0,0,1-1.265,3.179A8.288,8.288,0,0,1,64.592-.781ZM62.9-7.524a23.474,23.474,0,0,1,1.881,3.4l1.771-1a38.026,38.026,0,0,0-1.925-3.289ZM74.36-8.547a8.5,8.5,0,0,1,.044.869v3.729c0,.341-.044.814-.055,1.034h1.98c-.022-.286-.044-.748-.044-1.023v-3.74c0-.4.022-.594.044-.869Zm5.049-.1a8.7,8.7,0,0,1,.077,1.188v2.277c0,1.518-.154,2.3-.891,3.08A5.169,5.169,0,0,1,75.889-.759l1.4,1.474A6.872,6.872,0,0,0,79.981-.869c.836-.88,1.353-1.98,1.353-4.191v-2.4c0-.484.022-.858.044-1.188ZM90.552-1.331c.165-1.045.44-2.783.528-3.388a3.938,3.938,0,0,1,.121-.528l-1.276-.627a3.2,3.2,0,0,1-.968.143h-2.53a11.347,11.347,0,0,1-1.21-.077v1.749c.341-.022.858-.055,1.221-.055h2.684c-.044.605-.242,1.892-.4,2.783H85.4c-.407,0-.869-.033-1.177-.066V.33C84.689.308,84.986.3,85.4.3h5.665c.319,0,.935.022,1.177.033V-1.386c-.319.033-.9.055-1.2.055Zm3.454-1.848c.451-.033,1.276-.066,1.9-.066h5.841c.451,0,1.067.055,1.353.066v-2.1c-.319.022-.858.077-1.353.077H95.909c-.539,0-1.463-.044-1.9-.077Zm12.617-5.676-.968,1.474c.77.429,1.892,1.144,2.552,1.584l.99-1.474C108.57-7.7,107.393-8.437,106.623-8.855Zm-2.255,7.777,1,1.76a13.419,13.419,0,0,0,3.685-1.353,13.493,13.493,0,0,0,4.455-3.971l-1.023-1.826a11.223,11.223,0,0,1-4.345,4.18A11.97,11.97,0,0,1,104.368-1.078Zm.539-5.247-.968,1.474c.781.418,1.892,1.144,2.563,1.606l.979-1.5A29.948,29.948,0,0,0,104.907-6.325Zm17.424.891c0-.242,0-.682.011-.847-.187.011-.671.022-.935.022h-4.114c-.473,0-1.166-.022-1.5-.055v1.595c.308-.022,1.023-.044,1.5-.044h3.388v1.045h-3.245c-.44,0-1-.011-1.331-.033v1.562c.286-.022.891-.022,1.331-.022h3.245v1.177h-4.015a9.774,9.774,0,0,1-.979-.044V.539c.187-.011.671-.033.968-.033h4.026c0,.165-.011.33-.011.429h1.672c0-.209-.011-.66-.011-.836Zm4.268-3.1-1.265,1.353A22.927,22.927,0,0,1,128.1-4.774l1.364-1.4A22.194,22.194,0,0,0,126.6-8.536Zm-1.628,7.3L126.1.528a11.738,11.738,0,0,0,3.938-1.452,11.9,11.9,0,0,0,4.279-4.169l-1.034-1.881a10.629,10.629,0,0,1-4.2,4.4A11.32,11.32,0,0,1,124.971-1.232ZM142.6-6.743V-7.777a8.814,8.814,0,0,1,.077-1.089h-1.892a7.18,7.18,0,0,1,.066,1.089v1.034h-2.31v-.9a8.57,8.57,0,0,1,.077-1.111H136.73a8.685,8.685,0,0,1,.077,1.1v.913h-.792a6.508,6.508,0,0,1-1.243-.121v1.8c.319-.022.649-.044,1.243-.044h.792v1.331a10.735,10.735,0,0,1-.066,1.243H138.6c-.022-.275-.055-.7-.055-1.243V-5.1h2.31v.4c0,2.486-.891,3.443-3.091,4.169L139.194.8c2.739-1.2,3.41-2.948,3.41-5.555V-5.1h.594c.627,0,1.012,0,1.32.033v-1.76a7.061,7.061,0,0,1-1.331.088Zm8.932,1.331a18.774,18.774,0,0,0,2.893-2.354L153-9.053a11.416,11.416,0,0,1-2.871,2.508,16.172,16.172,0,0,1-5.049,1.98l.946,1.617a20.084,20.084,0,0,0,3.6-1.386v3.311a14.853,14.853,0,0,1-.088,1.6h2.112a8.215,8.215,0,0,1-.11-1.6Zm13.035,1.2a36.368,36.368,0,0,0-4.543-1.661V-7.381a13.08,13.08,0,0,1,.11-1.43h-2.079a7.685,7.685,0,0,1,.132,1.43V-1.1a12.35,12.35,0,0,1-.132,1.661h2.09c-.055-.5-.121-1.364-.121-1.661V-3.927a34.307,34.307,0,0,1,3.784,1.573Z" transform="translate(60 88)" fill="#111"/>
      <path id="Path_16379" data-name="Path 16379" d="M3.96-4.18A1.545,1.545,0,0,0,5.5-2.64,1.545,1.545,0,0,0,7.04-4.18,1.545,1.545,0,0,0,5.5-5.72,1.545,1.545,0,0,0,3.96-4.18Z" transform="translate(50 88)" fill="#111"/>
    </g>
    <g id="logo-amano" transform="translate(30 30.554)">
      <path id="Path_1" data-name="Path 1" d="M651.372,50.057,640.04,23.59s-.136-.27-.347-.27H626.9a.184.184,0,0,0-.206.178V27a.232.232,0,0,0,.259.254h1.534c1.009,0,1.314.56,1.073,1.355L620.4,49.671c-.321.765-.569,1.715-1.626,1.785,0,0-1.323.1-1.758.1-.5,0-.517.658-.517.658v2.816s-.017.208.264.208h13.477a.306.306,0,0,0,.3-.283V51.814a.382.382,0,0,0-.395-.374h-2.005a.965.965,0,0,1-.727-1.429l1.33-3.048a.553.553,0,0,1,.494-.331h10.65c.391-.013.443.231.443.231l1.4,3.114c.452,1.025-.21,1.474-1.112,1.474h-1.737a.246.246,0,0,0-.231.212v3.451s0,.127.165.127h16A.285.285,0,0,0,655.1,55l-.007-3.262s-.028-.232-.2-.232c-.124,0-1.309-.028-1.309-.028-1.513,0-1.714-.331-2.205-1.417m-19.978-9.005,2.859-6.618c.262-.633.426-.677.759-.044l2.9,6.784c.257.592.212.782-.948.735h-4.875c-.956,0-.965-.206-.7-.858" transform="translate(-616.502 -21.976)" fill="#0181c0"/>
      <path id="Path_2" data-name="Path 2" d="M723.9,50.033,712.57,23.75s-.134-.267-.351-.267c-.118,0-11.139-.009-12.787-.009a.186.186,0,0,0-.2.184l0,3.4a.23.23,0,0,0,.248.259h1.542c1.009,0,1.307.559,1.073,1.358l-9.07,20.968c-.329.767-.574,1.716-1.626,1.785,0,0-1.42.1-1.854.1-.5,0-.513.659-.513.659v3s-.021.214.26.214h13.481a.308.308,0,0,0,.3-.289V52.066a.385.385,0,0,0-.4-.373h-2a1.226,1.226,0,0,1-.726-1.708l1.333-2.861a.542.542,0,0,1,.5-.336c.343,0,9.211,0,10.651,0,.381-.012.431.233.431.233l1.407,2.93a1.164,1.164,0,0,1-1.112,1.749h-1.74c-.192,0-.224.212-.224.212V55.3s0,.125.164.125h15.992a.284.284,0,0,0,.279-.249V51.99s-.025-.236-.353-.236c-.125,0-1.166-.031-1.166-.031-1.508,0-1.713-.6-2.206-1.69m-20.186-8.784,3.072-6.84c.26-.634.426-.677.753-.044l2.907,6.784c.252.592.5.942-.954.849h-5.082c-.958,0-.969-.1-.7-.749" transform="translate(-605.292 -21.952)" fill="#0181c0"/>
      <path id="Path_3" data-name="Path 3" d="M671.586,39.238l-6.155-15.577a.676.676,0,0,0-.595-.344H652.4a.254.254,0,0,0-.255.259v3.4a.239.239,0,0,0,.233.231c.225,0,1.263.032,1.263.032,1.473,0,1.44.845,1.44,1.985V49.809c0,.652-.179,1.65-1.406,1.65h-1.307a.2.2,0,0,0-.223.211V55a.2.2,0,0,0,.214.249H664.27c.219,0,.219-.262.219-.262V51.683a.19.19,0,0,0-.208-.234h-1.339a1.32,1.32,0,0,1-1.5-1.337v-11.1c0-1.389.35-1.069.64-.331l6.548,16.4a.236.236,0,0,0,.246.164h4.341a.258.258,0,0,0,.223-.164L680.1,38.951c.38-1.062.72-1.179.72-.563V50.019c0,.592-.035,1.53-1.422,1.53h-1.4a.212.212,0,0,0-.231.256v3.351a.187.187,0,0,0,.193.218h14.1a.219.219,0,0,0,.212-.191V51.815s-.052-.224-.25-.224h-1c-1.974,0-1.911-1.018-1.911-1.614V28.95c0-1.548,1.216-1.645,1.873-1.645h1.036c.24,0,.216-.276.216-.276l.015-3.355s-.036-.282-.239-.282H680.1a.509.509,0,0,0-.457.233l-6.886,16.3c-.515,1.129-.679.494-1.168-.685" transform="translate(-610.994 -21.977)" fill="#0181c0"/>
      <path id="Path_4" data-name="Path 4" d="M735.195,35.253l12.848,20.371h10.228V29.646c0-1.141-.246-2.093,1.51-2.093,0,0,.931-.044,1.174-.044a.207.207,0,0,0,.224-.189v-3.4s-.035-.267-.217-.267H748.809c-.224,0-.189.238-.189.238v3.421s-.034.2.2.2h1.434c1.247,0,1.47.918,1.47,1.612,0,0,.032,15.33.032,15.5s-.241.4-.471.051C751.032,44.28,739.2,25.706,738,23.794a.367.367,0,0,0-.326-.223H725.117a.247.247,0,0,0-.257.291V27.24a.212.212,0,0,0,.217.175h1.386c.92,0,1.417.212,1.417,2.009V50.093c0,.738-.122,1.609-1.592,1.609,0,0-1.1.009-1.348.009s-.224.275-.224.275V55.2s0,.275.228.275h12.079a.255.255,0,0,0,.265-.275v-3.16a.237.237,0,0,0-.234-.218c-.206,0-1.395-.114-1.395-.114-1.576,0-1.436-.95-1.436-1.666V35.017c-.024-.806.294-.977.972.236" transform="translate(-599.778 -21.937)" fill="#0181c0"/>
      <path id="Path_5" data-name="Path 5" d="M757.553,39.859c0-10.045,7.309-17.7,17.866-17.7A17.719,17.719,0,0,1,793.36,39.965c0,10.048-6.662,18.191-17.942,18.191-9.947,0-17.866-7.5-17.866-18.3m17.866,13.5c6.753,0,8.594-6,8.594-13.39s-2.568-12.929-8.594-12.929c-6.539,0-8.4,5.534-8.4,12.929s2.3,13.39,8.4,13.39" transform="translate(-594.703 -22.156)" fill="#0181c0"/>
    </g>
  </g>
</svg>
