<svg xmlns="http://www.w3.org/2000/svg" width="88.886" height="40.144" viewBox="0 0 88.886 40.144">
  <g id="Group_16567" data-name="Group 16567" transform="translate(-551.348 -1417.463)">
    <path id="Path_16732" data-name="Path 16732" d="M9.032-28.064l-6.1,17.525C1.893-7.553,1.406-6.936-.152-6.871v1.3h6.88v-1.3C4.781-6.936,4.1-7.423,4.1-8.689a5.208,5.208,0,0,1,.325-1.785L5.43-13.3h7.724l1.1,3.667a7.447,7.447,0,0,1,.357,1.753c0,.649-.617,1.006-1.817,1.006h-.649v1.3h8.957v-1.3c-2.045-.065-2.239-.26-3.051-2.888L12.083-29.07ZM5.917-14.823,9.584-25.565l3.083,10.742Zm34.57-7.529-1.623-5.939h-17.2L19.976-22.32l1.1.487c2.045-3.181,4.446-5.063,6.588-5.063.519,0,.682.162.682.649V-9.857c0,2.531-.325,2.986-2.337,2.986H25.3v1.3h9.866v-1.3H34.45c-2.045,0-2.369-.454-2.369-2.986V-26.246c0-.519.162-.649.779-.649,2.207,0,4.381,1.655,6.458,4.933ZM69.3-28.291H61.965L56.026-12.356,50.184-28.291h-7.5v1.266l.584.032c2.045.1,2.337.422,2.337,2.953v12.884a6.779,6.779,0,0,1-.487,2.986A2.48,2.48,0,0,1,43.109-6.9l-.422.032v1.3h7.3v-1.3L49.568-6.9c-1.915-.162-2.5-1.266-2.5-4.8V-26.084l7.27,20.511h.941l7.367-20.349V-9.857c0,2.531-.325,2.986-2.369,2.986h-.552v1.3H69.3v-1.3h-.584c-2.077,0-2.337-.422-2.337-2.986V-24.04c0-2.531.292-2.856,2.337-2.953l.584-.032Zm17.655,5.907-1.882-6.166A6.384,6.384,0,0,1,82.541-28a4.009,4.009,0,0,1-1.655-.422,6.231,6.231,0,0,0-2.142-.389,6.379,6.379,0,0,0-6.231,6.588c0,3.537,2.11,5.615,7.4,7.3a11.025,11.025,0,0,1,3.862,1.688,3.606,3.606,0,0,1,1.233,2.791,3.911,3.911,0,0,1-4.154,3.894c-2.953,0-5.809-2.012-8.081-5.712l-1.1.454,1.98,6.556c1.785-.844,2.077-.974,2.434-.974a3.49,3.49,0,0,1,1.266.389,7.087,7.087,0,0,0,3.31.779,6.889,6.889,0,0,0,7.075-6.978,6.2,6.2,0,0,0-2.142-4.836c-1.3-1.071-2.6-1.623-5.452-2.5-3.537-1.071-5.063-2.467-5.063-4.479a3.448,3.448,0,0,1,3.6-3.473c2.564,0,5.03,1.882,7.172,5.452Z" transform="translate(552 1454.618)" fill="#0181c0" stroke="#0181c0" stroke-width="1"/>
    <g id="Group_16565" data-name="Group 16565" transform="translate(551.978 1452.435)">
      <path id="Path_16724" data-name="Path 16724" d="M1.929-7.434.621-3.678c-.223.64-.327.772-.661.786v.278H1.435v-.278c-.417-.014-.564-.118-.564-.39a1.116,1.116,0,0,1,.07-.383l.216-.605H2.812l.237.786a1.6,1.6,0,0,1,.077.376c0,.139-.132.216-.39.216H2.6v.278h1.92v-.278c-.438-.014-.48-.056-.654-.619L2.583-7.65ZM1.261-4.6l.786-2.3.661,2.3Z" transform="translate(0.04 7.65)" fill="#0181c0"/>
      <path id="Path_16725" data-name="Path 16725" d="M.28-3.844v.178c.323.017.378.083.378.451v1.1c0,.378-.039.423-.362.423H.286v.206H1.521V-1.69c-.3-.022-.334-.061-.334-.423v-1.3a1.019,1.019,0,0,1,.623-.3c.267,0,.39.178.39.557v1.041c0,.362-.033.4-.334.423v.206h1.2V-1.69c-.3-.022-.334-.061-.334-.423V-3.432a.986.986,0,0,1,.6-.278.408.408,0,0,1,.345.184.736.736,0,0,1,.067.345v1.069c0,.362-.033.4-.334.423v.206H4.6V-1.69c-.3-.022-.334-.061-.334-.423V-3.276a.9.9,0,0,0-.1-.49.685.685,0,0,0-.59-.328,1.254,1.254,0,0,0-.89.462.664.664,0,0,0-.646-.462,1.194,1.194,0,0,0-.857.445v-.479Zm7,1.992a.229.229,0,0,1-.156.072C7.014-1.779,7-1.841,7-2.208V-3.36a.862.862,0,0,0-.072-.423.865.865,0,0,0-.785-.334c-.6,0-1.052.25-1.052.579a.294.294,0,0,0,.284.306c.161,0,.262-.095.339-.328a.411.411,0,0,1,.412-.334c.262,0,.351.122.351.479v.3a4.325,4.325,0,0,0-.829.245c-.451.206-.679.473-.679.807a.67.67,0,0,0,.718.657A1.3,1.3,0,0,0,6.5-1.763c.089.245.211.356.4.356.161,0,.306-.089.512-.312Zm-.807-.139a.78.78,0,0,1-.584.262c-.2,0-.334-.161-.334-.4,0-.356.273-.584.918-.768Zm2.1-2.137-.907.284v.178c.312.017.378.095.378.445v1.113c0,.373-.028.406-.373.417v.206H8.907V-1.69c-.3-.022-.334-.067-.334-.417V-3.4A.887.887,0,0,1,9.2-3.711c.295,0,.417.173.417.6v1.007c0,.356-.033.4-.334.417v.206h1.191V-1.69c-.295-.022-.328-.067-.328-.417V-3.221a1.078,1.078,0,0,0-.111-.579.652.652,0,0,0-.573-.317,1.23,1.23,0,0,0-.885.473Zm2.265,1.369a1.3,1.3,0,0,0,1.247,1.352,1.288,1.288,0,0,0,1.241-1.352A1.292,1.292,0,0,0,12.09-4.117,1.3,1.3,0,0,0,10.838-2.759Zm.607,0c0-.718.239-1.13.651-1.13s.623.4.623,1.13-.217,1.13-.634,1.13C11.684-1.629,11.445-2.052,11.445-2.759Z" transform="translate(4.812 6.578)" fill="#0181c0"/>
      <path id="Path_16727" data-name="Path 16727" d="M.32-3.333A1.3,1.3,0,0,0,1.567-1.981,1.288,1.288,0,0,0,2.808-3.333,1.292,1.292,0,0,0,1.572-4.691,1.3,1.3,0,0,0,.32-3.333Zm.607,0c0-.718.239-1.13.651-1.13s.623.4.623,1.13S1.984-2.2,1.567-2.2C1.166-2.2.927-2.627.927-3.333ZM4.1-4.357h.7v-.256H4.1v-.863H3.876c-.083.551-.25.785-.662.918v.2h.362v1.62a1,1,0,0,0,.089.512.587.587,0,0,0,.529.245A.946.946,0,0,0,4.978-2.4l-.139-.134c-.178.167-.267.211-.406.211-.256,0-.328-.128-.328-.579ZM7.461-2.426a.229.229,0,0,1-.156.072c-.111,0-.128-.061-.128-.429V-3.934A.862.862,0,0,0,7.1-4.357a.865.865,0,0,0-.785-.334c-.6,0-1.052.25-1.052.579a.294.294,0,0,0,.284.306c.161,0,.262-.095.339-.328A.411.411,0,0,1,6.3-4.469c.262,0,.351.122.351.479v.3a4.325,4.325,0,0,0-.829.245c-.451.206-.679.473-.679.807a.67.67,0,0,0,.718.657,1.3,1.3,0,0,0,.813-.356c.089.245.211.356.4.356.161,0,.306-.089.512-.312Zm-.807-.139a.78.78,0,0,1-.584.262c-.2,0-.334-.161-.334-.4,0-.356.273-.584.918-.768ZM8.73-6.016l-.907.3v.178c.323.028.378.095.378.445v2.41c0,.373-.039.417-.362.417H7.828v.206H9.064v-.206c-.3-.022-.334-.067-.334-.417Z" transform="translate(23.584 7.153)" fill="#0181c0"/>
      <path id="Path_16729" data-name="Path 16729" d="M2.627-2.414a.229.229,0,0,1-.156.072c-.111,0-.128-.061-.128-.429V-3.922a.862.862,0,0,0-.072-.423.865.865,0,0,0-.785-.334c-.6,0-1.052.25-1.052.579a.294.294,0,0,0,.284.306c.161,0,.262-.095.339-.328a.411.411,0,0,1,.412-.334c.262,0,.351.122.351.479v.3a4.325,4.325,0,0,0-.829.245c-.451.206-.679.473-.679.807a.67.67,0,0,0,.718.657,1.3,1.3,0,0,0,.813-.356c.089.245.211.356.4.356.161,0,.306-.089.512-.312ZM1.82-2.553a.78.78,0,0,1-.584.262c-.2,0-.334-.161-.334-.4,0-.356.273-.584.918-.768ZM3.913-4.69l-.907.284v.178c.334.022.378.083.378.484v1.069c0,.378-.028.412-.373.423v.206H4.247v-.206c-.3-.022-.334-.061-.334-.423ZM3.629-5.976a.357.357,0,0,0-.34.362.358.358,0,0,0,.334.367.358.358,0,0,0,.339-.367A.356.356,0,0,0,3.629-5.976ZM5.494-4.69l-.907.284v.178c.312.017.378.095.378.445V-2.67c0,.373-.028.406-.373.417v.206H5.827v-.206c-.3-.022-.334-.067-.334-.417v-1.3a.887.887,0,0,1,.623-.306c.295,0,.417.173.417.6V-2.67c0,.356-.033.4-.334.417v.206H7.391v-.206c-.295-.022-.328-.067-.328-.417V-3.783a1.078,1.078,0,0,0-.111-.579.652.652,0,0,0-.573-.317,1.23,1.23,0,0,0-.885.473Zm3.117.345h.7V-4.6h-.7v-.863H8.382c-.083.551-.25.785-.662.918v.2h.362v1.62a1,1,0,0,0,.089.512.587.587,0,0,0,.529.245.946.946,0,0,0,.785-.417L9.345-2.52c-.178.167-.267.211-.406.211-.256,0-.328-.128-.328-.579Zm3.456.935v-.061a1.43,1.43,0,0,0-.184-.657,1.09,1.09,0,0,0-.952-.551A1.357,1.357,0,0,0,9.657-3.26,1.245,1.245,0,0,0,10.92-1.969a1.429,1.429,0,0,0,1.18-.646l-.145-.117a1.078,1.078,0,0,1-.829.412.762.762,0,0,1-.768-.512,1.833,1.833,0,0,1-.111-.579Zm-1.8-.256a1.472,1.472,0,0,1,.072-.384.613.613,0,0,1,.573-.429c.356,0,.59.306.59.774v.039ZM13.391-4.69l-.907.284v.178c.312.017.378.095.378.445V-2.67c0,.373-.028.406-.373.417v.206h1.236v-.206c-.3-.022-.334-.067-.334-.417v-1.3a.887.887,0,0,1,.623-.306c.295,0,.417.173.417.6V-2.67c0,.356-.033.4-.334.417v.206h1.191v-.206c-.295-.022-.328-.067-.328-.417V-3.783a1.078,1.078,0,0,0-.111-.579.652.652,0,0,0-.573-.317,1.23,1.23,0,0,0-.885.473Zm4.575,2.276a.229.229,0,0,1-.156.072c-.111,0-.128-.061-.128-.429V-3.922a.862.862,0,0,0-.072-.423.865.865,0,0,0-.785-.334c-.6,0-1.052.25-1.052.579a.294.294,0,0,0,.284.306c.161,0,.262-.095.34-.328a.411.411,0,0,1,.412-.334c.262,0,.351.122.351.479v.3a4.325,4.325,0,0,0-.829.245c-.451.206-.679.473-.679.807a.67.67,0,0,0,.718.657,1.3,1.3,0,0,0,.813-.356c.089.245.211.356.4.356.161,0,.306-.089.512-.312Zm-.807-.139a.78.78,0,0,1-.584.262c-.2,0-.334-.161-.334-.4,0-.356.273-.584.918-.768Zm2.1-2.137-.907.284v.178c.312.017.378.095.378.445V-2.67c0,.373-.028.406-.373.417v.206h1.236v-.206c-.3-.022-.334-.067-.334-.417v-1.3a.887.887,0,0,1,.623-.306c.295,0,.417.173.417.6V-2.67c0,.356-.033.4-.334.417v.206h1.191v-.206c-.295-.022-.328-.067-.328-.417V-3.783a1.078,1.078,0,0,0-.111-.579.652.652,0,0,0-.573-.317,1.23,1.23,0,0,0-.885.473ZM23.621-2.8c-.256.367-.417.468-.724.468-.484,0-.779-.44-.779-1.147,0-.6.239-.98.607-.98.206,0,.306.089.362.312.072.284.189.362.328.362a.319.319,0,0,0,.295-.306c0-.295-.429-.59-.868-.59a1.412,1.412,0,0,0-1.313,1.464,1.167,1.167,0,0,0,1.163,1.247,1.2,1.2,0,0,0,1.1-.712Zm2.911-.612v-.061a1.43,1.43,0,0,0-.184-.657,1.09,1.09,0,0,0-.952-.551A1.357,1.357,0,0,0,24.122-3.26a1.245,1.245,0,0,0,1.263,1.291,1.429,1.429,0,0,0,1.18-.646l-.145-.117a1.078,1.078,0,0,1-.829.412.762.762,0,0,1-.768-.512,1.833,1.833,0,0,1-.111-.579Zm-1.8-.256A1.472,1.472,0,0,1,24.8-4.05a.613.613,0,0,1,.573-.429c.356,0,.59.306.59.774v.039Z" transform="translate(40.283 7.141)" fill="#0181c0"/>
      <path id="Path_16731" data-name="Path 16731" d="M2.73-3.41v-.061a1.43,1.43,0,0,0-.184-.657,1.09,1.09,0,0,0-.952-.551A1.357,1.357,0,0,0,.32-3.26,1.245,1.245,0,0,0,1.583-1.969a1.429,1.429,0,0,0,1.18-.646l-.145-.117a1.078,1.078,0,0,1-.829.412.762.762,0,0,1-.768-.512A1.833,1.833,0,0,1,.91-3.41Zm-1.8-.256A1.472,1.472,0,0,1,1-4.05a.613.613,0,0,1,.573-.429c.356,0,.59.306.59.774v.039ZM4.049-4.69l-.907.284v.178c.328.022.378.083.378.468V-2.67c0,.367-.045.417-.367.417H3.125v.206h1.43v-.206H4.45c-.362,0-.4-.039-.4-.417V-3.755c.234-.289.339-.378.484-.378a.381.381,0,0,1,.2.078.388.388,0,0,0,.189.067.33.33,0,0,0,.306-.345.335.335,0,0,0-.34-.345c-.289,0-.551.2-.84.651ZM6.7-1.974l.8-1.992c.128-.312.223-.4.445-.429V-4.6H6.932V-4.4c.273.011.367.067.367.223a.627.627,0,0,1-.045.211l-.5,1.275-.545-1.38a.805.805,0,0,1-.061-.211c0-.072.083-.106.289-.111V-4.6h-1.2V-4.4c.239.022.306.078.412.345l.829,2.076ZM9.052-4.69l-.907.284v.178c.334.022.378.083.378.484v1.069c0,.378-.028.412-.373.423v.206H9.386v-.206c-.3-.022-.334-.061-.334-.423ZM8.769-5.976a.357.357,0,0,0-.339.362.358.358,0,0,0,.334.367A.358.358,0,0,0,9.1-5.614.356.356,0,0,0,8.769-5.976ZM11.852-2.8c-.256.367-.417.468-.724.468-.484,0-.779-.44-.779-1.147,0-.6.239-.98.607-.98.206,0,.306.089.362.312.072.284.189.362.328.362a.319.319,0,0,0,.295-.306c0-.295-.429-.59-.868-.59A1.412,1.412,0,0,0,9.759-3.215a1.167,1.167,0,0,0,1.163,1.247,1.2,1.2,0,0,0,1.1-.712Zm2.911-.612v-.061a1.43,1.43,0,0,0-.184-.657,1.09,1.09,0,0,0-.952-.551A1.357,1.357,0,0,0,12.353-3.26a1.245,1.245,0,0,0,1.263,1.291,1.429,1.429,0,0,0,1.18-.646l-.145-.117a1.078,1.078,0,0,1-.829.412.762.762,0,0,1-.768-.512,1.833,1.833,0,0,1-.111-.579Zm-1.8-.256a1.472,1.472,0,0,1,.072-.384.613.613,0,0,1,.573-.429c.356,0,.59.306.59.774v.039Z" transform="translate(72.283 7.141)" fill="#0181c0"/>
      <path id="Path_16726" data-name="Path 16726" d="M4.4-6.137,4.049-7.41H.362L0-6.13l.237.1c.438-.682.953-1.085,1.412-1.085.111,0,.146.035.146.139v3.513c0,.543-.07.64-.5.64H1.141v.278H3.256v-.278H3.1c-.438,0-.508-.1-.508-.64V-6.972c0-.111.035-.139.167-.139.473,0,.939.355,1.384,1.057Z" transform="translate(19.507 7.577)" fill="#0181c0"/>
      <path id="Path_16728" data-name="Path 16728" d="M6.065-7.41H4.492L3.219-3.994,1.967-7.41H.36v.271l.125.007c.438.021.5.09.5.633v2.762a1.453,1.453,0,0,1-.1.64.532.532,0,0,1-.431.271l-.09.007v.278H1.925v-.278l-.09-.007C1.424-2.86,1.3-3.1,1.3-3.855V-6.937l1.558,4.4h.2L4.639-6.9v3.444c0,.543-.07.64-.508.64H4.012v.278H6.065v-.278H5.939c-.445,0-.5-.09-.5-.64V-6.5c0-.543.063-.612.5-.633l.125-.007Z" transform="translate(34.007 7.577)" fill="#0181c0"/>
      <path id="Path_16730" data-name="Path 16730" d="M3.657-6.193l-.4-1.322a1.369,1.369,0,0,1-.543.118.859.859,0,0,1-.355-.09A1.336,1.336,0,0,0,1.9-7.57,1.367,1.367,0,0,0,.561-6.158c0,.758.452,1.2,1.586,1.565a2.363,2.363,0,0,1,.828.362.773.773,0,0,1,.264.6.838.838,0,0,1-.89.835A2.161,2.161,0,0,1,.617-4.022l-.237.1L.8-2.519c.383-.181.445-.209.522-.209a.748.748,0,0,1,.271.083,1.519,1.519,0,0,0,.71.167,1.477,1.477,0,0,0,1.517-1.5A1.33,1.33,0,0,0,3.365-5.01,3.06,3.06,0,0,0,2.2-5.546c-.758-.23-1.085-.529-1.085-.96a.739.739,0,0,1,.772-.744c.55,0,1.078.4,1.537,1.169Z" transform="translate(68.09 7.626)" fill="#0181c0"/>
    </g>
    <path id="Path_16734" data-name="Path 16734" d="M4.109-3.5,3.84-3.751a2.2,2.2,0,0,1-.354.03H1.1a3.827,3.827,0,0,1-.5-.038v.474c.184-.013.333-.026.5-.026h2.34a2.614,2.614,0,0,1-.871.884l.354.286A4.229,4.229,0,0,0,3.969-3.32C4-3.371,4.071-3.452,4.109-3.5Zm-1.725.568H1.9a1.9,1.9,0,0,1,.026.342A1.679,1.679,0,0,1,1.214-.95,1.621,1.621,0,0,1,.8-.74L1.2-.42C2.32-1,2.384-1.816,2.384-2.931Zm5.983-.38L8.03-3.589A1.1,1.1,0,0,1,7.7-3.55H5.233a3.7,3.7,0,0,1-.461-.034v.478c.09-.009.29-.026.461-.026h2.4A5.035,5.035,0,0,1,6.411-1.761c-.286-.252-.606-.512-.769-.632l-.35.286a10.016,10.016,0,0,1,.961.828,11.024,11.024,0,0,1,.79.9L7.436-.7c-.171-.2-.448-.5-.7-.756A6.826,6.826,0,0,0,8.243-3.162C8.273-3.2,8.32-3.256,8.367-3.311Zm3.617-.4-.521-.137a4.4,4.4,0,0,1-.8,1.828A3.763,3.763,0,0,1,9.037-.894l.38.393a4.2,4.2,0,0,0,1.614-1.23,5.787,5.787,0,0,0,.794-1.559C11.869-3.409,11.924-3.576,11.984-3.708Zm2.182,2.7a4.47,4.47,0,0,1-.034.547h.525a5,5,0,0,1-.034-.547v-1.32a11.182,11.182,0,0,1,1.614.666l.192-.465a14.475,14.475,0,0,0-1.806-.683v-.666c0-.149.017-.337.03-.478h-.525a3.091,3.091,0,0,1,.038.478Zm3.288-1.512v.53c.145-.013.4-.021.636-.021h2.323c.188,0,.384.017.478.021v-.53c-.107.009-.273.026-.478.026H18.09C17.86-2.491,17.595-2.508,17.454-2.517Zm6.2-1.46-.487-.154a2,2,0,0,1-.162.384A3.916,3.916,0,0,1,21.643-2.29l.363.282a4.836,4.836,0,0,0,1.127-1.119h1.349a3.5,3.5,0,0,1-.534,1.076c-.286-.2-.585-.389-.841-.538l-.295.3c.248.158.555.367.85.581a3.631,3.631,0,0,1-1.614.982l.389.342a4.068,4.068,0,0,0,1.584-1.055c.175.141.337.273.457.384l.316-.376c-.132-.107-.3-.235-.478-.363a4.89,4.89,0,0,0,.653-1.29,2.149,2.149,0,0,1,.115-.265l-.346-.214a.994.994,0,0,1-.32.047H23.39c.017-.03.03-.056.047-.085C23.484-3.683,23.573-3.849,23.659-3.977ZM27.78-.706l.282.235a1.328,1.328,0,0,1,.162-.107A4.493,4.493,0,0,0,29.68-1.757l-.26-.367a3,3,0,0,1-1.162.982V-3.5a2.572,2.572,0,0,1,.021-.342h-.5a3.13,3.13,0,0,1,.026.342V-.975A1.232,1.232,0,0,1,27.78-.706ZM25.811-.745l.41.273a2.4,2.4,0,0,0,.76-1.2,9.355,9.355,0,0,0,.132-1.823,3.2,3.2,0,0,1,.021-.342h-.5a1.331,1.331,0,0,1,.034.346,7.4,7.4,0,0,1-.124,1.7A1.977,1.977,0,0,1,25.811-.745ZM31-4.182a4.563,4.563,0,0,1-1.042,1.636,2.35,2.35,0,0,1,.222.4,4.56,4.56,0,0,0,.4-.474V-.283h.376V-3.2a7.694,7.694,0,0,0,.418-.867Zm.858.534H33.3v.688H31.862ZM33.92-1.782v-.359H32.767v-.465H33.7V-4H31.49v1.392h.88v.465H31.191v.359h.969A3.131,3.131,0,0,1,31.055-.766a1.751,1.751,0,0,1,.273.316A3.475,3.475,0,0,0,32.37-1.483V-.271h.4V-1.5a3.666,3.666,0,0,0,.991,1.063,1.775,1.775,0,0,1,.278-.316,3.174,3.174,0,0,1-1.055-1.025Zm.952-1.589h2.742v.564h.418v-.939H36.457V-4.2h-.423v.448H34.471v.939h.4Zm0,1.542a3.946,3.946,0,0,1,.662.888l.342-.226a3.805,3.805,0,0,0-.692-.863Zm3.258-.76H37.067v-.568h-.406v.568h-2.28V-2.2h2.28V-.762c0,.073-.03.094-.115.094s-.393,0-.683,0a1.844,1.844,0,0,1,.141.4,2.935,2.935,0,0,0,.837-.064c.167-.064.226-.179.226-.418V-2.2h1.068Zm3.382.047v-.145h.406c.2,0,.354,0,.423.013v-.453a2.838,2.838,0,0,1-.427.026h-.4v-.5a2.785,2.785,0,0,1,.026-.372H41.06a2.948,2.948,0,0,1,.021.372v.5H39.954v-.491a2.3,2.3,0,0,1,.026-.342H39.5a2.343,2.343,0,0,1,.026.342V-3.1H39.1a2.655,2.655,0,0,1-.444-.034v.465c.068-.009.243-.017.444-.017h.418v.641c0,.179-.017.354-.021.414h.474a3.8,3.8,0,0,1-.021-.414v-.641h1.127v.171c0,1.132-.376,1.5-1.174,1.794l.363.342A1.963,1.963,0,0,0,41.517-2.542Zm1.559.026v.53c.145-.013.4-.021.636-.021h2.323c.188,0,.384.017.478.021v-.53c-.107.009-.273.026-.478.026H43.712C43.481-2.491,43.217-2.508,43.076-2.517Zm6.986-1.49-.278.115a5.136,5.136,0,0,1,.342.589l.278-.12A6.151,6.151,0,0,0,50.062-4.007Zm.483-.179-.273.115a3.979,3.979,0,0,1,.346.585l.278-.12A5.244,5.244,0,0,0,50.544-4.186Zm-2.37.337h-.5a2.548,2.548,0,0,1,.03.393V-1.12c0,.359.2.53.542.594a4.653,4.653,0,0,0,.7.043,12.506,12.506,0,0,0,1.5-.085v-.491a7.132,7.132,0,0,1-1.473.141,3.683,3.683,0,0,1-.534-.03c-.2-.043-.29-.094-.29-.3V-2.12a16.506,16.506,0,0,0,1.712-.538c.137-.051.307-.128.448-.184l-.188-.431a2.359,2.359,0,0,1-.414.209,11.726,11.726,0,0,1-1.559.5v-.892A3.874,3.874,0,0,1,48.174-3.849Zm6.508.363-.278-.2a1.3,1.3,0,0,1-.372.043H52.449a4.569,4.569,0,0,1-.465-.03V-3.2c.068,0,.3-.026.465-.026h1.567a3.513,3.513,0,0,1-.679,1.127A4.8,4.8,0,0,1,51.582-.843l.346.363a5.606,5.606,0,0,0,1.644-1.23A9.583,9.583,0,0,1,54.7-.463L55.079-.8a11.35,11.35,0,0,0-1.221-1.251,5.845,5.845,0,0,0,.7-1.217A1.474,1.474,0,0,1,54.682-3.486Z" transform="translate(555.307 1422.804)" fill="#0181c0"/>
    <path id="Path_16733" data-name="Path 16733" d="M5.825-4.855,5.353-5.3a3.083,3.083,0,0,1-.61.054H1.52A4.74,4.74,0,0,1,.791-5.3v.831c.281-.024.478-.042.729-.042H4.635A3.555,3.555,0,0,1,3.535-3.4l.622.5A6.089,6.089,0,0,0,5.592-4.545,3.01,3.01,0,0,1,5.825-4.855Zm-2.439.807H2.519a3.314,3.314,0,0,1,.042.538,2.214,2.214,0,0,1-.9,2.14,2.362,2.362,0,0,1-.628.329l.7.568C3.356-1.346,3.386-2.566,3.386-4.048ZM7.971-1.382a6.566,6.566,0,0,1-.06.837h.933C8.82-.79,8.79-1.209,8.79-1.382V-3.074a17.268,17.268,0,0,1,2.158.891l.341-.825a19.526,19.526,0,0,0-2.5-.927V-4.82a6.5,6.5,0,0,1,.054-.717H7.911a4.15,4.15,0,0,1,.06.717ZM15.39-5.316l-.951-.2a4.351,4.351,0,0,1-.143.693c-.173.622-.688,2.26-1.034,3.145-.054,0-.114.006-.161.006-.2.006-.454.006-.658.006l.138.873c.191-.024.413-.054.562-.072.753-.078,2.565-.269,3.533-.383.114.257.209.5.287.705L17.77-.9A18.387,18.387,0,0,0,16.46-3.385l-.747.3a7.227,7.227,0,0,1,.628,1.094c-.6.072-1.453.167-2.182.239.3-.8.783-2.32.974-2.905C15.223-4.915,15.312-5.136,15.39-5.316Zm7.646.454-.49-.365a2.143,2.143,0,0,1-.616.078H19.82a6.679,6.679,0,0,1-.705-.042v.849c.126-.006.454-.042.705-.042h2.027a4.632,4.632,0,0,1-.891,1.465A6.7,6.7,0,0,1,18.5-1.2l.616.646a7.875,7.875,0,0,0,2.248-1.68A13.633,13.633,0,0,1,22.875-.545l.682-.592a16.807,16.807,0,0,0-1.668-1.71,8.79,8.79,0,0,0,.939-1.644A2.825,2.825,0,0,1,23.037-4.861Z" transform="translate(612.5 1423)" fill="#0181c0"/>
  </g>
</svg>
