<svg xmlns="http://www.w3.org/2000/svg" width="226.188" height="63.08" viewBox="0 0 226.188 63.08">
  <g id="Group_105" data-name="Group 105" transform="translate(-320 -6309)">
    <path id="Path_15145" data-name="Path 15145" d="M6.876-8.2a7.179,7.179,0,0,0-.96-1.956l-1.272.42A7.476,7.476,0,0,1,5.508-7.74ZM6.312-4.548c.048-.492.072-1.008.1-1.56H4.848c-.024.564-.036,1.08-.084,1.56H1.608v1.332h2.94c-.4,1.452-1.368,2.4-4,2.952a4.963,4.963,0,0,1,.828,1.32c3.2-.78,4.32-2.184,4.752-4.272h2.58C8.6-1.452,8.46-.648,8.232-.432a.7.7,0,0,1-.5.132c-.312,0-1.056-.012-1.764-.06a3.108,3.108,0,0,1,.5,1.4A15.353,15.353,0,0,0,8.352,1.02,1.516,1.516,0,0,0,9.48.5c.408-.444.576-1.632.708-4.476.024-.18.036-.576.036-.576Zm3-3.168a22.558,22.558,0,0,0,1.416-1.908l-1.6-.48A12.2,12.2,0,0,1,7.788-7.812l.264.1H3.144L4-8.112A7.256,7.256,0,0,0,2.76-9.972L1.524-9.4a7.863,7.863,0,0,1,1.068,1.68H.888v2.784H2.256V-6.4H9.732v1.464h1.44V-7.716Zm11.3,4.236c.048-.348.084-.708.12-1.068H19.308a10.017,10.017,0,0,1-.12,1.068H17.436v1.188h1.452A3.847,3.847,0,0,1,16.38-.06a4.036,4.036,0,0,1,.828,1.1,4.794,4.794,0,0,0,3.156-3.336h1.392A3.653,3.653,0,0,1,21.3-.5a.489.489,0,0,1-.384.132,10.163,10.163,0,0,1-1.032-.06,3.1,3.1,0,0,1,.384,1.32A9.169,9.169,0,0,0,21.612.864a1.319,1.319,0,0,0,.876-.42c.348-.384.564-1.308.756-3.384.024-.168.048-.54.048-.54Zm.528-4.3a3.647,3.647,0,0,1-.792,1.02,4.705,4.705,0,0,1-1-1.02Zm2.28,0V-8.964h-3.54a8.045,8.045,0,0,0,.444-.84L19-10.164A7.154,7.154,0,0,1,16.7-7.308a10.479,10.479,0,0,1,1.164.8,7.145,7.145,0,0,0,.54-.516,6.785,6.785,0,0,0,.852,1,7.27,7.27,0,0,1-1.464.552l.048-.276-.864-.288-.192.06h-.576l.588-.612a6.716,6.716,0,0,0-.876-.528A8.957,8.957,0,0,0,17.676-9.1l-.912-.576-.216.048H12.672v1.2h2.88a7.493,7.493,0,0,1-.756.756c-.324-.144-.66-.276-.948-.384l-.9.912a17.408,17.408,0,0,1,2.316,1.164H12.516v1.248h1.5a7.54,7.54,0,0,1-1.7,2.472,8,8,0,0,1,.648,1.38,7.27,7.27,0,0,0,1.5-2.22V-.528c0,.144-.048.168-.192.18s-.636,0-1.08-.012A4.754,4.754,0,0,1,13.6,1,3.539,3.539,0,0,0,15.288.744c.42-.216.516-.6.516-1.248V-4.728h.636a15.641,15.641,0,0,1-.384,1.656l.96.444a14.008,14.008,0,0,0,.588-2,4.542,4.542,0,0,1,.336.5,9.605,9.605,0,0,0,2.448-1.008A8.643,8.643,0,0,0,22.836-4.1a5.48,5.48,0,0,1,.9-1.212,9.337,9.337,0,0,1-2.208-.708,5.9,5.9,0,0,0,1.2-1.752Zm5.04,3.216A1.547,1.547,0,0,0,30-3.024,1.547,1.547,0,0,0,31.536-4.56,1.547,1.547,0,0,0,30-6.1,1.547,1.547,0,0,0,28.464-4.56ZM41-9.888C40.92-8.3,41.088-2.856,36.3-.2A5,5,0,0,1,37.5.936a10.247,10.247,0,0,0,4.44-6.024A9.516,9.516,0,0,0,46.668.936a4.69,4.69,0,0,1,1.1-1.212C43.3-2.376,42.7-7.548,42.6-9.2c.012-.252.024-.492.036-.684Zm15.84,8.16h-2.16v-.564h2.16ZM54.684-3.9h2.16v.516h-2.16ZM51.348-6.288v-.576h1.884v.576Zm5.28-.576v.576H54.684v-.576Zm2.916,3.48H58.3V-4.86H54.684v-.528h3.408V-7.764H54.684v-.492h4.584V-9.384H54.684v-.78H53.232v.78H48.756v1.128h4.476v.492H49.98v2.376h3.252v.528H49.68v.96h3.552v.516H48.48v1.092h4.752v.564H49.584V-.7h3.648v.372c0,.216-.072.288-.3.3-.192,0-.9,0-1.476-.024a4.4,4.4,0,0,1,.468,1.128,6.32,6.32,0,0,0,2.124-.2c.468-.2.636-.492.636-1.2V-.7h2.16V-.2H58.3V-2.292h1.248Zm9.84-2.94H66.372V-8.076h3.012Zm0,3.144H66.372V-4.992h3.012ZM70.812-9.4H65V-1.86h5.808ZM64.548-5.1l-1.176.3V-6.564h1.26v-1.32h-1.26v-2.268H61.98v2.268H60.492v1.32H61.98v2.1c-.6.144-1.176.276-1.644.372l.372,1.368L61.98-3.06v2.5c0,.168-.06.228-.228.228s-.66,0-1.128-.012a4.741,4.741,0,0,1,.4,1.3A3.864,3.864,0,0,0,62.844.684c.4-.2.528-.552.528-1.248V-3.42c.456-.12.9-.252,1.344-.372ZM64.176-.684V.648h7.368V-.684ZM81.216-9.8a17.19,17.19,0,0,1-1.308,3l1.248.432a27.042,27.042,0,0,0,1.656-2.964ZM76.08-7a10.7,10.7,0,0,0-1.488-2.7l-1.3.516a11.318,11.318,0,0,1,1.4,2.76Zm2.712-3.18H77.22v4.152H73.584V-4.6h7.5v1.1H73.992v1.38h7.092V-.864H73.308V.552h7.776v.492h1.524V-6.024H78.792Zm11.1,2.544h1.956a16.386,16.386,0,0,1-1.3,1.092h-.66Zm2.616,5.244H88.38v-.768h4.128ZM88.38-.492v-.816h4.128v.816Zm7-4.788V-6.54H92.592a17.552,17.552,0,0,0,2.364-2.64L93.732-9.8A14.613,14.613,0,0,1,92.5-8.28v-.588h-2.6v-1.3H88.476v1.3h-2.82v1.236h2.82V-6.54H84.624v1.26H88.7A21.36,21.36,0,0,1,84.24-3.288a7.863,7.863,0,0,1,.876,1.176c.612-.228,1.236-.492,1.836-.756V1.056H88.38V.7h4.128v.312H94V-4.32H89.64c.492-.312.948-.624,1.416-.96Zm3.9,3.12c-.444,0-.924-.588-.924-1.788a3.726,3.726,0,0,1,3.012-3.444,19.074,19.074,0,0,1-.636,2.88C100.248-2.9,99.768-2.16,99.276-2.16ZM102.54.492c3-.456,4.536-2.232,4.536-4.728a4.535,4.535,0,0,0-4.8-4.644A5.3,5.3,0,0,0,96.8-3.792c0,2,1.116,3.456,2.424,3.456S101.556-1.8,102.264-4.2a25.826,25.826,0,0,0,.708-3.228,2.941,2.941,0,0,1,2.484,3.144,3.217,3.217,0,0,1-2.7,3.18c-.312.072-.648.132-1.1.192Zm8.388-1.2L112.356.528a10.158,10.158,0,0,0,4.164-3.684,12.613,12.613,0,0,0,1.668-4.212c.084-.348.216-.936.36-1.392L116.6-9.036a6.709,6.709,0,0,1-.156,1.452,9.365,9.365,0,0,1-1.416,3.624A9.092,9.092,0,0,1,110.928-.708ZM109.14-8.184a27.112,27.112,0,0,1,2.028,3.624l1.584-.9c-.444-.84-1.476-2.676-2.076-3.516Zm13.2-1.02a8.161,8.161,0,0,1,.048.912v4.044c0,.36-.048.828-.06,1.056H124.1c-.024-.276-.036-.744-.036-1.044V-8.292c0-.384.012-.648.036-.912Zm5.52-.108a8.466,8.466,0,0,1,.072,1.2v2.28c0,1.872-.156,2.772-.972,3.672a5.616,5.616,0,0,1-2.94,1.512l1.26,1.32a6.971,6.971,0,0,0,2.916-1.74c.888-.984,1.392-2.088,1.392-4.668V-8.112c0-.48.024-.864.048-1.2Zm12.54,8c.18-1.14.492-3.2.588-3.912a3.344,3.344,0,0,1,.12-.5l-1.152-.564a2.847,2.847,0,0,1-.9.132h-3.072c-.324,0-.876-.036-1.188-.072v1.584c.348-.024.816-.06,1.2-.06h3.24c-.036.672-.3,2.376-.468,3.4H134.88a11.528,11.528,0,0,1-1.188-.06V.192c.456-.024.756-.036,1.188-.036H141.2c.312,0,.9.024,1.14.036V-1.356c-.312.036-.864.048-1.176.048Zm4.7-2.364c.444-.036,1.248-.06,1.932-.06h6.444c.5,0,1.116.048,1.4.06V-5.556c-.312.024-.852.072-1.4.072h-6.444c-.624,0-1.5-.036-1.932-.072ZM159.468-9.5l-.876,1.32c.792.444,2.04,1.26,2.712,1.728l.9-1.332C161.58-8.22,160.26-9.06,159.468-9.5Zm-2.232,8.52.9,1.584a14.6,14.6,0,0,0,4.008-1.488A14.489,14.489,0,0,0,166.92-5.2L166-6.828a12.233,12.233,0,0,1-4.668,4.5A13.316,13.316,0,0,1,157.236-.984Zm.384-5.784-.876,1.332a31.34,31.34,0,0,1,2.736,1.7l.876-1.344C159.744-5.508,158.424-6.336,157.62-6.768Zm19.632.828c0-.252,0-.648.012-.8-.192.012-.636.024-.924.024H171.8c-.444,0-1.176-.024-1.488-.06v1.452c.288-.024,1.044-.048,1.488-.048h3.96v1.452h-3.828c-.456,0-1-.012-1.308-.036v1.416c.276-.012.852-.024,1.308-.024h3.828v1.6h-4.536a10.3,10.3,0,0,1-1.044-.048V.456c.2-.012.7-.036,1.032-.036h4.548c0,.18,0,.372-.012.48h1.512c0-.216-.012-.624-.012-.816Zm5.4-3.18-1.128,1.2a24.95,24.95,0,0,1,3,2.592l1.224-1.26A25.2,25.2,0,0,0,182.652-9.12Zm-1.5,7.992L182.16.456a13,13,0,0,0,4.452-1.692,12.76,12.76,0,0,0,4.44-4.44l-.936-1.692A11.379,11.379,0,0,1,185.748-2.7,12.368,12.368,0,0,1,181.152-1.128Zm19.584-6.048v-1.26a10.318,10.318,0,0,1,.072-1.116h-1.7a7.917,7.917,0,0,1,.072,1.116v1.26h-2.844V-8.352a7.394,7.394,0,0,1,.072-1.092h-1.7a9.748,9.748,0,0,1,.072,1.08v1.188h-1.02a7.934,7.934,0,0,1-1.3-.108v1.632c.264-.024.7-.048,1.3-.048h1.02v1.632a9.706,9.706,0,0,1-.072,1.26h1.68c-.012-.24-.048-.732-.048-1.26V-5.7h2.844v.456c0,2.94-1.02,3.984-3.336,4.788L197.124.756c2.892-1.272,3.612-3.084,3.612-6.06v-.4h.888c.636,0,1.056.012,1.32.036v-1.6a7.111,7.111,0,0,1-1.32.084ZM211.2-5.952a19.607,19.607,0,0,0,3.18-2.58L213.1-9.7a12.665,12.665,0,0,1-3.132,2.712,18.435,18.435,0,0,1-5.46,2.172l.864,1.464A23.462,23.462,0,0,0,209.5-4.98v3.936a13.438,13.438,0,0,1-.084,1.572h1.9a8.25,8.25,0,0,1-.108-1.572Zm14.988,1.536a39.192,39.192,0,0,0-5.016-1.86V-8.04a13.049,13.049,0,0,1,.108-1.452h-1.872a8.369,8.369,0,0,1,.12,1.452v6.888a12.839,12.839,0,0,1-.12,1.668h1.872c-.048-.48-.108-1.32-.108-1.668v-3.4A34.662,34.662,0,0,1,225.5-2.76Z" transform="translate(320 6371)" fill="#fff"/>
    <g id="logo-amano" transform="translate(320 6309)">
      <path id="Path_1" data-name="Path 1" d="M655.246,53.028,642.655,23.62s-.151-.3-.385-.3H628.06a.2.2,0,0,0-.228.2v3.888a.257.257,0,0,0,.287.282h1.7c1.121,0,1.46.622,1.192,1.506L620.837,52.6c-.357.851-.632,1.905-1.806,1.983,0,0-1.47.114-1.954.114-.561,0-.575.731-.575.731v3.129s-.019.231.294.231H631.77a.34.34,0,0,0,.334-.314V54.98a.424.424,0,0,0-.439-.416h-2.228a1.073,1.073,0,0,1-.808-1.588l1.478-3.387a.615.615,0,0,1,.549-.368h11.833c.435-.014.493.257.493.257l1.559,3.46c.5,1.139-.233,1.638-1.235,1.638h-1.931a.273.273,0,0,0-.257.236v3.834s.005.141.183.141h17.775a.317.317,0,0,0,.31-.273l-.008-3.624s-.031-.258-.227-.258c-.137,0-1.455-.031-1.455-.031-1.682,0-1.9-.368-2.45-1.574m-22.2-10.006,3.176-7.353c.291-.7.473-.752.843-.049l3.224,7.538c.286.658.236.868-1.053.817h-5.416c-1.062,0-1.072-.228-.773-.953" transform="translate(-616.502 -21.827)" fill="#fff"/>
      <path id="Path_2" data-name="Path 2" d="M727.77,52.984l-12.586-29.2s-.149-.3-.39-.3c-.131,0-12.377-.01-14.207-.01a.207.207,0,0,0-.224.2l0,3.783a.255.255,0,0,0,.276.287h1.714c1.121,0,1.452.621,1.192,1.509l-10.078,23.3c-.366.852-.638,1.906-1.806,1.983,0,0-1.578.114-2.06.114-.557,0-.57.732-.57.732v3.334s-.023.237.289.237H704.3a.343.343,0,0,0,.334-.321V55.243a.428.428,0,0,0-.445-.414h-2.227a1.363,1.363,0,0,1-.807-1.9l1.48-3.179a.6.6,0,0,1,.554-.373c.381,0,10.234,0,11.834,0,.423-.013.478.259.478.259l1.564,3.256a1.293,1.293,0,0,1-1.235,1.943H713.9c-.213,0-.249.236-.249.236v3.759s0,.139.182.139H731.6a.315.315,0,0,0,.31-.277V55.159s-.028-.262-.393-.262c-.138,0-1.3-.035-1.3-.035-1.675,0-1.9-.672-2.452-1.878m-22.429-9.76,3.414-7.6c.289-.7.473-.752.836-.049l3.23,7.538c.28.658.561,1.047-1.06.943h-5.647c-1.065,0-1.076-.106-.774-.833" transform="translate(-595.987 -21.783)" fill="#fff"/>
      <path id="Path_3" data-name="Path 3" d="M673.746,41.007,666.907,23.7a.751.751,0,0,0-.661-.382H652.429a.282.282,0,0,0-.284.287v3.778a.266.266,0,0,0,.259.257c.25,0,1.4.036,1.4.036,1.637,0,1.6.939,1.6,2.205V52.753c0,.725-.2,1.833-1.563,1.833h-1.452a.227.227,0,0,0-.248.235v3.7a.228.228,0,0,0,.237.277h13.235c.244,0,.244-.291.244-.291V54.835a.212.212,0,0,0-.231-.26h-1.488a1.466,1.466,0,0,1-1.666-1.486V40.756c0-1.543.389-1.188.711-.368l7.276,18.226a.262.262,0,0,0,.273.182h4.823a.286.286,0,0,0,.248-.182l7.4-17.926c.422-1.18.8-1.31.8-.626V52.986c0,.658-.039,1.7-1.58,1.7h-1.557a.236.236,0,0,0-.257.285v3.723a.208.208,0,0,0,.214.242h15.666a.244.244,0,0,0,.236-.212V54.981s-.058-.249-.278-.249h-1.108c-2.194,0-2.123-1.131-2.123-1.793V29.576c0-1.72,1.351-1.828,2.081-1.828h1.151c.267,0,.24-.307.24-.307l.017-3.728s-.04-.313-.266-.313H683.2a.565.565,0,0,0-.508.259l-7.651,18.108c-.572,1.255-.754.549-1.3-.761" transform="translate(-606.421 -21.828)" fill="#fff"/>
      <path id="Path_4" data-name="Path 4" d="M736.359,36.551l14.275,22.634H762V30.321c0-1.267-.273-2.326,1.678-2.326,0,0,1.034-.049,1.3-.049a.23.23,0,0,0,.249-.21V23.961s-.038-.3-.241-.3h-13.5c-.249,0-.21.264-.21.264v3.8s-.038.222.222.222h1.593c1.385,0,1.633,1.02,1.633,1.791,0,0,.036,17.033.036,17.218s-.268.449-.523.056c-.281-.436-13.427-21.074-14.763-23.2a.408.408,0,0,0-.362-.248H725.161a.275.275,0,0,0-.286.323v3.754a.236.236,0,0,0,.241.195h1.541c1.022,0,1.574.236,1.574,2.232V53.04c0,.82-.136,1.788-1.769,1.788,0,0-1.226.01-1.5.01s-.249.305-.249.305v3.575s0,.305.253.305H738.39a.284.284,0,0,0,.3-.305V55.208a.263.263,0,0,0-.26-.242c-.228,0-1.55-.127-1.55-.127-1.751,0-1.6-1.056-1.6-1.851v-16.7c-.027-.9.327-1.085,1.08.262" transform="translate(-585.895 -21.756)" fill="#fff"/>
      <path id="Path_5" data-name="Path 5" d="M757.553,41.826c0-11.161,8.122-19.67,19.851-19.67a19.687,19.687,0,0,1,19.935,19.788c0,11.164-7.4,20.212-19.935,20.212-11.052,0-19.851-8.328-19.851-20.33m19.851,15c7.5,0,9.549-6.668,9.549-14.878S784.1,27.579,777.4,27.579c-7.266,0-9.331,6.149-9.331,14.365s2.558,14.878,9.331,14.878" transform="translate(-576.608 -22.156)" fill="#fff"/>
    </g>
  </g>
</svg>
