<svg xmlns="http://www.w3.org/2000/svg" width="472.036" height="30.626" viewBox="0 0 472.036 30.626">
  <g id="Group_1" data-name="Group 1" transform="translate(-762 -194.633)">
    <path id="Path_16735" data-name="Path 16735" d="M11.556-8A6.14,6.14,0,0,0,10.32-9.912l-1.1.5a6.7,6.7,0,0,1,1.152,1.98Zm-5.172-.8H4.2v-1.356H2.748v1.356H.552v1.3H6.384ZM1.2-3.024A6.729,6.729,0,0,1,.228-.468,7.131,7.131,0,0,1,1.284.324,9.186,9.186,0,0,0,2.5-2.748ZM2.4-5.676H4.5v1.032H2.4ZM5.88-3.468V-6.84H1.1v3.372H2.856V-.432c0,.132-.048.168-.192.168s-.576,0-.972-.012a5.029,5.029,0,0,1,.42,1.284A3.379,3.379,0,0,0,3.708.78C4.116.564,4.224.2,4.224-.4V-3.468ZM10.128-.432a.239.239,0,0,1-.192-.084A.289.289,0,0,1,9.888-.7V-5.34H8.952l.036-.5h2.568V-7.2H9.012v-2.964H7.644V-7.2H6.288v1.356h1.32a10.024,10.024,0,0,1-1.284,4.7,10.817,10.817,0,0,0-.756-1.992l-1.116.384a11.392,11.392,0,0,1,.708,2.1l1.116-.42A6.081,6.081,0,0,1,5.2.228a6.222,6.222,0,0,1,1.212.84A8.135,8.135,0,0,0,8.592-2.976V-.6c0,.768.06,1,.276,1.212a1.2,1.2,0,0,0,.864.312h.7a1.284,1.284,0,0,0,.732-.2,1.036,1.036,0,0,0,.408-.648,9.467,9.467,0,0,0,.156-1.644,3.017,3.017,0,0,1-1.02-.564A12.821,12.821,0,0,1,10.668-.78.492.492,0,0,1,10.56-.5a.282.282,0,0,1-.2.072Zm9.348-6.612c-.132.324-.276.672-.42.96H16.812l.2-.036a5.91,5.91,0,0,0-.408-.924Zm3.876,5.352V-2.868H18.684V-3.4h3.6V-4.428h-3.6v-.54h4.164V-6.084H20.5c.18-.288.372-.612.564-.96h2.256V-8.208h-1.56c.276-.42.6-.96.936-1.512l-1.5-.36a9.667,9.667,0,0,1-.756,1.74l.432.132H19.8v-1.956H18.456v1.956h-.888v-1.956H16.236v1.956H15.144l.588-.216a9.08,9.08,0,0,0-.912-1.692L13.6-9.7a10.756,10.756,0,0,1,.744,1.488H12.732v1.164H15.24L15.1-7.02a5.392,5.392,0,0,1,.408.936h-2.28v1.116H17.28v.54H13.824V-3.4H17.28v.528H12.7v1.176H16.14a12.607,12.607,0,0,1-3.792,1.4A6.656,6.656,0,0,1,13.26.9a11.383,11.383,0,0,0,4.02-1.944V1.044h1.4v-2.16A10.243,10.243,0,0,0,22.716.912a6.713,6.713,0,0,1,.96-1.3,10.721,10.721,0,0,1-3.8-1.308ZM28.464-4.56A1.547,1.547,0,0,0,30-3.024,1.547,1.547,0,0,0,31.536-4.56,1.547,1.547,0,0,0,30-6.1,1.547,1.547,0,0,0,28.464-4.56ZM37.62-7.488h1.3v-.768H40.08v.768h1.308v-.768h1.188V-9.3H41.388v-.852H40.08V-9.3H38.916v-.852h-1.3V-9.3H36.552v1.044H37.62Zm.444,2.052v-.888h.8v.888Zm2.916,0h-.8v-.888h.8Zm3.984-2c.012-.828.012-1.692.012-2.616H43.668c0,.936,0,1.8-.012,2.616H42.564v1.32h1.068c-.084,2.22-.348,3.96-1.212,5.244V-1c-.744.072-1.5.144-2.244.2V-1.38h2.088v-1H40.176v-.576H42.4V-3.984h-2.22v-.5h2.1v-2.8H36.852v2.8h2.016v.5H36.7v1.032h2.172v.576H36.876v1h1.992v.7c-.912.084-1.752.144-2.424.192L36.588.7C37.98.564,39.912.384,41.808.18a4.063,4.063,0,0,1,.78.888c1.74-1.56,2.208-3.96,2.34-7.188h1.128c-.072,3.888-.18,5.316-.408,5.628a.407.407,0,0,1-.4.216,8.076,8.076,0,0,1-1.068-.06A3.444,3.444,0,0,1,44.568,1,8.159,8.159,0,0,0,45.96.948a1.3,1.3,0,0,0,.876-.576c.372-.528.468-2.28.552-7.2,0-.156.012-.612.012-.612Zm4.116.42c2.088-.024,5.244-.1,8.232-.168a8.411,8.411,0,0,1,.984.972l1.068-.912A15.249,15.249,0,0,0,56.052-9.66L55-8.868c.264.156.54.336.816.516-1.116.024-2.22.036-3.264.036.42-.42.828-.9,1.2-1.356l-1.6-.48A13.108,13.108,0,0,1,50.82-8.3c-.672.012-1.3.012-1.836.012Zm7.2,2.88H51.648V-5.256H56.28ZM57.7-6.4h-7.38V-3h2.52l-.4.372A7.84,7.84,0,0,1,54.528-1.14l.948-.924A6.984,6.984,0,0,0,54.192-3h3.5ZM49.56.744a4.529,4.529,0,0,0,1.7-2.652l-1.272-.444A3.828,3.828,0,0,1,48.4-.084ZM53.592-.372c-.516,0-.6-.048-.6-.372V-2.28H51.576V-.708c0,1.212.348,1.6,1.848,1.6h1.824c1.1,0,1.512-.336,1.668-1.74a3.736,3.736,0,0,1-1.248-.5c-.06.864-.132.984-.552.984ZM56.34-1.848a8.5,8.5,0,0,1,1.992,2.5l1.26-.72A8.578,8.578,0,0,0,57.5-2.508Zm3.828,4.032h1.176L64.32-9.66H63.144Zm7.26-11.676V-8.04h2.736c.036.408.084.84.168,1.3L69.6-6.876C68.94-3.72,67.512-1.4,65.016-.144A11.4,11.4,0,0,1,66.324,1.02a10.384,10.384,0,0,0,4.428-5.928,10.139,10.139,0,0,0,4.416,5.916A7.683,7.683,0,0,1,76.32-.24c-4.416-2.6-4.74-6.984-4.74-9.252ZM84.6-6.024l-.768.516c.216.156.444.336.672.528l-3.084.06c.216-.348.456-.732.672-1.1Zm1.884-2.064v.852H78.8v-.852ZM83.352-.552v-.924h3.7V-2.7h-3.7V-3.744l2.436-.072a8.69,8.69,0,0,1,.588.672l1.116-.78a15.178,15.178,0,0,0-2.376-2.1h1.5v-.864h1.32v-2.5H83.352v-.768H81.888v.768H77.412v2.5h1.32v.864H80.46c-.156.372-.348.768-.528,1.128l-1.7.024.06,1.272c1-.024,2.256-.06,3.6-.1v1H78.444v1.224h3.444v.924H77.376V.708H88.008V-.552Zm5.472,2.736H90L92.976-9.66H91.8ZM98.316-9.888C98.232-8.3,98.4-2.856,93.612-.2a5,5,0,0,1,1.2,1.14,10.247,10.247,0,0,0,4.44-6.024A9.516,9.516,0,0,0,103.98.936a4.691,4.691,0,0,1,1.1-1.212c-4.476-2.1-5.076-7.272-5.172-8.928.012-.252.024-.492.036-.684Zm15.84,8.16H112v-.564h2.16ZM112-3.9h2.16v.516H112ZM108.66-6.288v-.576h1.884v.576Zm5.28-.576v.576H112v-.576Zm2.916,3.48h-1.248V-4.86H112v-.528H115.4V-7.764H112v-.492h4.584V-9.384H112v-.78h-1.452v.78h-4.476v1.128h4.476v.492h-3.252v2.376h3.252v.528h-3.552v.96h3.552v.516h-4.752v1.092h4.752v.564H106.9V-.7h3.648v.372c0,.216-.072.288-.3.3-.192,0-.9,0-1.476-.024a4.4,4.4,0,0,1,.468,1.128,6.32,6.32,0,0,0,2.124-.2c.468-.2.636-.492.636-1.2V-.7h2.16V-.2h1.452V-2.292h1.248Zm.624,5.568h1.176L121.632-9.66h-1.176Zm5.34-5.328a8.725,8.725,0,0,1-.636,2.784,7.054,7.054,0,0,1,1.092.516,11.1,11.1,0,0,0,.72-3.1Zm2.6.216a14.2,14.2,0,0,1,.7,2.232l1.056-.384a13.23,13.23,0,0,0-.744-2.16Zm-.252-2.964c.144.264.288.564.42.864l-1.152.048c.756-.972,1.584-2.184,2.244-3.228l-1.164-.54A21.763,21.763,0,0,1,124.452-6.8c-.12-.156-.264-.312-.408-.48.432-.66.912-1.6,1.344-2.412l-1.236-.456a15.212,15.212,0,0,1-.876,2.088c-.1-.084-.192-.168-.276-.24l-.684.972A11.776,11.776,0,0,1,123.732-5.7c-.192.276-.384.54-.564.768L122.3-4.9l.12,1.236,1.74-.108V1.056H125.4V-3.852l.612-.048a5.752,5.752,0,0,1,.156.612l1.008-.456a10.173,10.173,0,0,0-1.056-2.544Zm6.252,3.168V-.852h-2.64V-2.724Zm-3.96,3.756h1.32V.4h2.64V.984h1.368V-3.984h-5.328Zm.852-7.368a13.91,13.91,0,0,0,1.668-2.22,16.735,16.735,0,0,0,1.764,2.22Zm.948-3.66A11.545,11.545,0,0,1,126.24-6.42a6.569,6.569,0,0,1,.816,1.248,9.422,9.422,0,0,0,1.044-.936V-5.04h3.948v-.984a10.238,10.238,0,0,0,.876.78,8.815,8.815,0,0,1,.876-1.332A11.776,11.776,0,0,1,130.62-10Zm16.128,6.612H143.22q.09-.864.18-1.98c.024-.18.048-.612.048-.612h-5.436c.1-.42.18-.864.264-1.308h5.808V-8.652h-5.556c.084-.48.168-.948.24-1.392l-1.488-.132a59.7,59.7,0,0,1-1.176,5.9l1.512.12.12-.5h4.152c-.036.468-.072.888-.12,1.272H134.58v1.368h7A2.83,2.83,0,0,1,141.024-.5a.8.8,0,0,1-.588.168c-.348,0-1.152-.012-1.98-.084a3.2,3.2,0,0,1,.5,1.428,16.278,16.278,0,0,0,2.04,0,1.732,1.732,0,0,0,1.26-.576,4.794,4.794,0,0,0,.792-2.448h2.34ZM154.812-1v.672H150.06V-1Zm-.912-3.24v.624h-3.84v-.624Zm-3.84,1.644h5.256V-5.268h-6.624V1.056h1.368V.732h4.752v.324h1.416v-3.1H150.06Zm7.428-6.732h-3.48q.162-.306.288-.612l-1.356-.324a5.533,5.533,0,0,1-1.14,1.74v-.8h-2.664c.1-.192.192-.384.276-.576l-1.332-.36a6.442,6.442,0,0,1-1.764,2.436,7.508,7.508,0,0,1,1.164.768,8.862,8.862,0,0,0,.96-1.152h.2a6.816,6.816,0,0,1,.54,1.152l1.284-.36a6.05,6.05,0,0,0-.4-.792h1.4c-.1.084-.2.168-.3.24.156.072.384.18.6.3h-.528v.84h-4.416v2.376h1.344V-5.76h7.644v1.308h1.392V-6.828h-4.6v-.648a6.6,6.6,0,0,0,.66-.732h.7a7.074,7.074,0,0,1,.72,1.176l1.32-.372a6.036,6.036,0,0,0-.5-.8h1.98ZM162.276-2.7c-.384.132-.78.252-1.176.372v-2.4h1.08V-6.036H161.1V-8.148h1.284V-9.48h-3.96v1.332h1.32v2.112h-1.212v1.308h1.212v2.82c-.552.156-1.044.288-1.464.4L158.6-.06c1.152-.372,2.592-.828,3.912-1.3Zm1.848-3.624h1.236v1.032h-1.236Zm0-2.124h1.236v1h-1.236Zm3.624,1H166.56v-1h1.188Zm0,2.16H166.56V-6.324h1.188ZM166.692-.624v-1.14h2.544V-3.048h-2.544V-4.08H169.1V-9.66H162.84v5.58h2.4v1.032h-2.484v1.284h2.484v1.14h-3.312v1.3h7.716v-1.3Zm6.984-8.88-.876,1.32c.792.444,2.04,1.26,2.712,1.728l.9-1.332C175.788-8.22,174.468-9.06,173.676-9.5Zm-2.232,8.52.9,1.584a14.6,14.6,0,0,0,4.008-1.488A14.489,14.489,0,0,0,181.128-5.2L180.2-6.828a12.233,12.233,0,0,1-4.668,4.5A13.316,13.316,0,0,1,171.444-.984Zm.384-5.784-.876,1.332a31.34,31.34,0,0,1,2.736,1.7l.876-1.344C173.952-5.508,172.632-6.336,171.828-6.768Zm19.164-2.1a4.332,4.332,0,0,1-1.248.156H185.52A13.407,13.407,0,0,1,184.1-8.8v1.7c.252-.012.912-.084,1.416-.084h4.068a9.3,9.3,0,0,1-1.788,2.94,13.6,13.6,0,0,1-4.92,3.444L184.116.5a15.807,15.807,0,0,0,4.512-3.372,27.365,27.365,0,0,1,3.024,3.4L193.02-.66a33.735,33.735,0,0,0-3.348-3.432,17.643,17.643,0,0,0,1.884-3.3,5.671,5.671,0,0,1,.42-.744Zm11.5,1.164c.42,0,.876.024,1.3.048V-9.2a9.4,9.4,0,0,1-1.3.084h-4.824a8.941,8.941,0,0,1-1.272-.084v1.548c.36-.024.864-.048,1.284-.048ZM196.14-6.06c-.372,0-.792-.036-1.152-.072V-4.56c.336-.024.8-.048,1.152-.048h3.3a5.157,5.157,0,0,1-.744,2.652A4.985,4.985,0,0,1,196.524-.24l1.4,1.02a5.758,5.758,0,0,0,2.412-2.3,7.613,7.613,0,0,0,.768-3.084H204c.336,0,.792.012,1.092.036v-1.56A9.233,9.233,0,0,1,204-6.06Zm20.9,5.88a36.907,36.907,0,0,0-2.628-4.992l-1.5.612a14.506,14.506,0,0,1,1.26,2.2c-1.212.144-2.916.336-4.38.48.6-1.608,1.572-4.656,1.956-5.832a13.655,13.655,0,0,1,.516-1.332l-1.908-.384a8.9,8.9,0,0,1-.288,1.38C209.724-6.8,208.692-3.516,208-1.74l-.324.012c-.4.012-.912.012-1.32.012l.276,1.752c.384-.048.828-.108,1.128-.144,1.512-.156,5.148-.54,7.1-.768.216.516.408,1.008.564,1.416Zm3.84-1.98c-.444,0-.924-.588-.924-1.788a3.726,3.726,0,0,1,3.012-3.444,19.074,19.074,0,0,1-.636,2.88C221.856-2.9,221.376-2.16,220.884-2.16ZM224.148.492c3-.456,4.536-2.232,4.536-4.728a4.535,4.535,0,0,0-4.8-4.644,5.3,5.3,0,0,0-5.472,5.088c0,2,1.116,3.456,2.424,3.456S223.164-1.8,223.872-4.2a25.823,25.823,0,0,0,.708-3.228,2.941,2.941,0,0,1,2.484,3.144,3.217,3.217,0,0,1-2.7,3.18c-.312.072-.648.132-1.1.192Zm8.508-5.652h2.208v.612h-2.208Zm0-1.524h2.208v.612h-2.208Zm5.892,0v.612h-2.292v-.612Zm0,2.136h-2.292V-5.16h2.292Zm2.5,1.608h-2.58v-.636h1.476v-4.08h-3.684V-8.2h4.5V-9.36h-4.5v-.792h-1.392v.792h-4.4V-8.2h4.4v.54h-3.528v4.08h5.724v.636h-6.876v1.2h2.568l-.864.612A8.806,8.806,0,0,1,233.6.552l1.14-.84A8.247,8.247,0,0,0,233.16-1.74h3.9V-.384c0,.156-.072.2-.264.216s-.96,0-1.6-.024a4.851,4.851,0,0,1,.444,1.248,7.058,7.058,0,0,0,2.172-.192c.5-.192.648-.516.648-1.2v-1.4h2.58Zm4.788-5.592v.624h-1.824v-.624ZM244.008-6.2v-.684h1.824V-6.2Zm3.156-3.48h-4.572V1.044h1.416V-5.064h3.156Zm2.2,3.5v-.708h1.9v.708Zm1.9-2.352v.624h-1.9v-.624Zm1.44-1.152H248v4.656h3.252v4.32c0,.228-.084.312-.336.312s-1.14.012-1.9-.036a5.173,5.173,0,0,1,.5,1.464A6.529,6.529,0,0,0,252,.768c.528-.216.7-.636.7-1.452Zm9.888,2.508v-1.26a10.322,10.322,0,0,1,.072-1.116h-1.7a7.922,7.922,0,0,1,.072,1.116v1.26H258.18V-8.352a7.392,7.392,0,0,1,.072-1.092h-1.7a9.742,9.742,0,0,1,.072,1.08v1.188H255.6a7.934,7.934,0,0,1-1.3-.108v1.632c.264-.024.7-.048,1.3-.048h1.02v1.632a9.7,9.7,0,0,1-.072,1.26h1.68c-.012-.24-.048-.732-.048-1.26V-5.7h2.844v.456c0,2.94-1.02,3.984-3.336,4.788L258.972.756c2.892-1.272,3.612-3.084,3.612-6.06v-.4h.888c.636,0,1.056.012,1.32.036v-1.6a7.111,7.111,0,0,1-1.32.084Zm10.464,1.224a19.607,19.607,0,0,0,3.18-2.58L274.944-9.7a12.665,12.665,0,0,1-3.132,2.712,18.436,18.436,0,0,1-5.46,2.172l.864,1.464a23.461,23.461,0,0,0,4.128-1.632v3.936A13.438,13.438,0,0,1,271.26.528h1.9a8.249,8.249,0,0,1-.108-1.572Zm14.988,1.536a39.193,39.193,0,0,0-5.016-1.86V-8.04a13.049,13.049,0,0,1,.108-1.452h-1.872a8.371,8.371,0,0,1,.12,1.452v6.888a12.842,12.842,0,0,1-.12,1.668h1.872c-.048-.48-.108-1.32-.108-1.668v-3.4a34.659,34.659,0,0,1,4.332,1.788Z" transform="translate(946 216)" fill="#0181c0"/>
    <g id="logo-amano" transform="translate(762 194.633)">
      <path id="Path_1" data-name="Path 1" d="M646.166,46.065l-9.64-22.516s-.116-.23-.295-.23h-10.88a.157.157,0,0,0-.175.151v2.977a.2.2,0,0,0,.22.216H626.7c.858,0,1.118.476.912,1.153l-7.794,17.92c-.273.651-.484,1.459-1.383,1.518,0,0-1.126.087-1.5.087-.429,0-.44.56-.44.56v2.4s-.015.177.225.177h11.465a.26.26,0,0,0,.255-.241V47.56a.325.325,0,0,0-.336-.318h-1.706a.821.821,0,0,1-.619-1.216l1.132-2.593a.471.471,0,0,1,.42-.282h9.06c.333-.011.377.2.377.2L637.969,46c.384.872-.179,1.254-.946,1.254h-1.478a.209.209,0,0,0-.2.181v2.936s0,.108.14.108H649.1a.243.243,0,0,0,.238-.209l-.006-2.775s-.024-.2-.174-.2c-.105,0-1.114-.024-1.114-.024-1.288,0-1.458-.282-1.876-1.205m-17-7.661,2.432-5.63c.223-.538.362-.576.645-.037l2.468,5.771c.219.5.181.665-.806.626h-4.147c-.813,0-.821-.175-.592-.73" transform="translate(-616.502 -22.177)" fill="#0181c0"/>
      <path id="Path_2" data-name="Path 2" d="M718.692,46.068l-9.636-22.359s-.114-.227-.3-.227c-.1,0-9.476-.008-10.878-.008a.158.158,0,0,0-.172.156l0,2.9a.2.2,0,0,0,.211.22h1.312c.858,0,1.112.475.912,1.155L692.43,45.739c-.28.652-.488,1.46-1.383,1.518,0,0-1.208.087-1.577.087-.426,0-.436.561-.436.561v2.553s-.018.182.221.182h11.468a.262.262,0,0,0,.255-.246V47.8a.328.328,0,0,0-.341-.317h-1.705a1.043,1.043,0,0,1-.618-1.453l1.133-2.434a.461.461,0,0,1,.424-.286c.292,0,7.836,0,9.061,0,.324-.01.366.2.366.2L710.5,46a.99.99,0,0,1-.946,1.488h-1.48c-.163,0-.191.181-.191.181v2.878s0,.106.139.106h13.6a.241.241,0,0,0,.238-.212V47.733s-.021-.2-.3-.2c-.106,0-.992-.027-.992-.027-1.283,0-1.458-.515-1.877-1.438M701.52,38.6l2.614-5.818c.221-.539.362-.576.64-.037l2.473,5.771c.214.5.429.8-.811.722h-4.323c-.815,0-.824-.082-.592-.637" transform="translate(-617.794 -22.179)" fill="#0181c0"/>
      <path id="Path_3" data-name="Path 3" d="M668.683,36.861,663.447,23.61a.576.576,0,0,0-.506-.293H652.362a.216.216,0,0,0-.217.22V26.43a.2.2,0,0,0,.2.2c.192,0,1.075.028,1.075.028,1.253,0,1.225.719,1.225,1.688V45.854c0,.555-.152,1.4-1.2,1.4h-1.112a.174.174,0,0,0-.19.18v2.837a.174.174,0,0,0,.182.212H662.46c.187,0,.187-.223.187-.223V47.448a.162.162,0,0,0-.177-.2H661.33a1.123,1.123,0,0,1-1.276-1.137V36.669c0-1.182.3-.91.544-.282l5.571,13.955a.2.2,0,0,0,.209.139h3.693a.219.219,0,0,0,.19-.139l5.662-13.725c.323-.9.613-1,.613-.479v9.9c0,.5-.029,1.3-1.21,1.3h-1.192a.181.181,0,0,0-.2.218V50.4a.16.16,0,0,0,.164.186H686.1a.187.187,0,0,0,.181-.162V47.56s-.044-.191-.213-.191h-.849c-1.68,0-1.625-.866-1.625-1.373V28.109c0-1.317,1.034-1.4,1.593-1.4h.881c.2,0,.184-.235.184-.235l.013-2.854s-.03-.24-.2-.24H675.924a.433.433,0,0,0-.389.2l-5.858,13.865c-.438.961-.578.42-.994-.582" transform="translate(-617.137 -22.177)" fill="#0181c0"/>
      <path id="Path_4" data-name="Path 4" d="M733.63,33.509l10.93,17.33h8.7v-22.1c0-.97-.209-1.781,1.285-1.781,0,0,.792-.037,1-.037a.176.176,0,0,0,.19-.161V23.87s-.029-.227-.185-.227H745.212c-.19,0-.161.2-.161.2v2.91s-.029.17.17.17h1.22c1.061,0,1.25.781,1.25,1.371,0,0,.028,13.041.028,13.183s-.205.344-.4.043c-.215-.334-10.281-16.135-11.3-17.762a.312.312,0,0,0-.277-.19H725.057a.21.21,0,0,0-.219.248v2.874a.181.181,0,0,0,.185.149H726.2c.783,0,1.205.181,1.205,1.709V46.134c0,.628-.1,1.369-1.354,1.369,0,0-.939.008-1.146.008s-.19.234-.19.234v2.737s0,.234.194.234h10.276a.217.217,0,0,0,.226-.234V47.794a.2.2,0,0,0-.2-.186c-.175,0-1.186-.1-1.186-.1-1.341,0-1.222-.808-1.222-1.417V33.308c-.021-.686.25-.831.827.2" transform="translate(-618.43 -22.181)" fill="#0181c0"/>
      <path id="Path_5" data-name="Path 5" d="M757.553,37.216c0-8.545,6.218-15.06,15.2-15.06a15.073,15.073,0,0,1,15.263,15.15c0,8.548-5.667,15.475-15.263,15.475-8.462,0-15.2-6.376-15.2-15.566m15.2,11.482c5.745,0,7.311-5.105,7.311-11.391s-2.184-11-7.311-11c-5.563,0-7.145,4.708-7.145,11S767.565,48.7,772.751,48.7" transform="translate(-619.015 -22.156)" fill="#0181c0"/>
    </g>
  </g>
</svg>
