<svg xmlns="http://www.w3.org/2000/svg" width="308.188" height="30" viewBox="0 0 308.188 30">
  <g id="Group_16170" data-name="Group 16170" transform="translate(12133 251)">
    <path id="Path_16378" data-name="Path 16378" d="M5-9.888C4.92-8.3,5.088-2.856.3-.2A5,5,0,0,1,1.5.936,10.247,10.247,0,0,0,5.94-5.088,9.516,9.516,0,0,0,10.668.936a4.69,4.69,0,0,1,1.1-1.212C7.3-2.376,6.7-7.548,6.6-9.2c.012-.252.024-.492.036-.684Zm15.84,8.16h-2.16v-.564h2.16ZM18.684-3.9h2.16v.516h-2.16ZM15.348-6.288v-.576h1.884v.576Zm5.28-.576v.576H18.684v-.576Zm2.916,3.48H22.3V-4.86H18.684v-.528h3.408V-7.764H18.684v-.492h4.584V-9.384H18.684v-.78H17.232v.78H12.756v1.128h4.476v.492H13.98v2.376h3.252v.528H13.68v.96h3.552v.516H12.48v1.092h4.752v.564H13.584V-.7h3.648v.372c0,.216-.072.288-.3.3-.192,0-.9,0-1.476-.024a4.4,4.4,0,0,1,.468,1.128,6.32,6.32,0,0,0,2.124-.2c.468-.2.636-.492.636-1.2V-.7h2.16V-.2H22.3V-2.292h1.248Zm4.92-1.176A1.547,1.547,0,0,0,30-3.024,1.547,1.547,0,0,0,31.536-4.56,1.547,1.547,0,0,0,30-6.1,1.547,1.547,0,0,0,28.464-4.56ZM42.876-8.2a7.179,7.179,0,0,0-.96-1.956l-1.272.42a7.476,7.476,0,0,1,.864,1.992Zm-.564,3.648c.048-.492.072-1.008.1-1.56h-1.56c-.024.564-.036,1.08-.084,1.56H37.608v1.332h2.94c-.4,1.452-1.368,2.4-4,2.952a4.963,4.963,0,0,1,.828,1.32c3.2-.78,4.32-2.184,4.752-4.272h2.58c-.108,1.764-.252,2.568-.48,2.784a.7.7,0,0,1-.5.132c-.312,0-1.056-.012-1.764-.06a3.108,3.108,0,0,1,.5,1.4,15.353,15.353,0,0,0,1.884-.024A1.516,1.516,0,0,0,45.48.5c.408-.444.576-1.632.708-4.476.024-.18.036-.576.036-.576Zm3-3.168a22.558,22.558,0,0,0,1.416-1.908l-1.6-.48a12.2,12.2,0,0,1-1.344,2.292l.264.1H39.144l.852-.4a7.256,7.256,0,0,0-1.236-1.86L37.524-9.4a7.863,7.863,0,0,1,1.068,1.68h-1.7v2.784h1.368V-6.4h7.476v1.464h1.44V-7.716Zm11.3,4.236c.048-.348.084-.708.12-1.068H55.308a10.016,10.016,0,0,1-.12,1.068H53.436v1.188h1.452A3.847,3.847,0,0,1,52.38-.06a4.036,4.036,0,0,1,.828,1.1,4.794,4.794,0,0,0,3.156-3.336h1.392A3.653,3.653,0,0,1,57.3-.5a.489.489,0,0,1-.384.132,10.163,10.163,0,0,1-1.032-.06,3.1,3.1,0,0,1,.384,1.32A9.169,9.169,0,0,0,57.612.864a1.319,1.319,0,0,0,.876-.42c.348-.384.564-1.308.756-3.384.024-.168.048-.54.048-.54Zm.528-4.3a3.646,3.646,0,0,1-.792,1.02,4.706,4.706,0,0,1-1-1.02Zm2.28,0V-8.964h-3.54a8.044,8.044,0,0,0,.444-.84L55-10.164A7.154,7.154,0,0,1,52.7-7.308a10.479,10.479,0,0,1,1.164.8,7.145,7.145,0,0,0,.54-.516,6.785,6.785,0,0,0,.852,1,7.271,7.271,0,0,1-1.464.552l.048-.276-.864-.288-.192.06h-.576l.588-.612a6.716,6.716,0,0,0-.876-.528A8.957,8.957,0,0,0,53.676-9.1l-.912-.576-.216.048H48.672v1.2h2.88a7.494,7.494,0,0,1-.756.756c-.324-.144-.66-.276-.948-.384l-.9.912a17.408,17.408,0,0,1,2.316,1.164H48.516v1.248h1.5a7.54,7.54,0,0,1-1.7,2.472,8,8,0,0,1,.648,1.38,7.27,7.27,0,0,0,1.5-2.22V-.528c0,.144-.048.168-.192.18s-.636,0-1.08-.012A4.754,4.754,0,0,1,49.6,1,3.539,3.539,0,0,0,51.288.744c.42-.216.516-.6.516-1.248V-4.728h.636a15.641,15.641,0,0,1-.384,1.656l.96.444a14.007,14.007,0,0,0,.588-2,4.542,4.542,0,0,1,.336.5,9.605,9.605,0,0,0,2.448-1.008A8.643,8.643,0,0,0,58.836-4.1a5.481,5.481,0,0,1,.9-1.212,9.337,9.337,0,0,1-2.208-.708,5.9,5.9,0,0,0,1.2-1.752Zm9.96,1.452H66.372V-8.076h3.012Zm0,3.144H66.372V-4.992h3.012ZM70.812-9.4H65V-1.86h5.808ZM64.548-5.1l-1.176.3V-6.564h1.26v-1.32h-1.26v-2.268H61.98v2.268H60.492v1.32H61.98v2.1c-.6.144-1.176.276-1.644.372l.372,1.368L61.98-3.06v2.5c0,.168-.06.228-.228.228s-.66,0-1.128-.012a4.741,4.741,0,0,1,.4,1.3A3.864,3.864,0,0,0,62.844.684c.4-.2.528-.552.528-1.248V-3.42c.456-.12.9-.252,1.344-.372ZM64.176-.684V.648h7.368V-.684ZM81.216-9.8a17.19,17.19,0,0,1-1.308,3l1.248.432a27.042,27.042,0,0,0,1.656-2.964ZM76.08-7a10.7,10.7,0,0,0-1.488-2.7l-1.3.516a11.318,11.318,0,0,1,1.4,2.76Zm2.712-3.18H77.22v4.152H73.584V-4.6h7.5v1.1H73.992v1.38h7.092V-.864H73.308V.552h7.776v.492h1.524V-6.024H78.792Zm11.1,2.544h1.956a16.386,16.386,0,0,1-1.3,1.092h-.66Zm2.616,5.244H88.38v-.768h4.128ZM88.38-.492v-.816h4.128v.816Zm7-4.788V-6.54H92.592a17.552,17.552,0,0,0,2.364-2.64L93.732-9.8A14.613,14.613,0,0,1,92.5-8.28v-.588h-2.6v-1.3H88.476v1.3h-2.82v1.236h2.82V-6.54H84.624v1.26H88.7A21.36,21.36,0,0,1,84.24-3.288a7.863,7.863,0,0,1,.876,1.176c.612-.228,1.236-.492,1.836-.756V1.056H88.38V.7h4.128v.312H94V-4.32H89.64c.492-.312.948-.624,1.416-.96Zm3.9,3.12c-.444,0-.924-.588-.924-1.788a3.726,3.726,0,0,1,3.012-3.444,19.074,19.074,0,0,1-.636,2.88C100.248-2.9,99.768-2.16,99.276-2.16ZM102.54.492c3-.456,4.536-2.232,4.536-4.728a4.535,4.535,0,0,0-4.8-4.644A5.3,5.3,0,0,0,96.8-3.792c0,2,1.116,3.456,2.424,3.456S101.556-1.8,102.264-4.2a25.826,25.826,0,0,0,.708-3.228,2.941,2.941,0,0,1,2.484,3.144,3.217,3.217,0,0,1-2.7,3.18c-.312.072-.648.132-1.1.192ZM2.928,14.292l1.428,1.236A10.158,10.158,0,0,0,8.52,11.844a12.613,12.613,0,0,0,1.668-4.212c.084-.348.216-.936.36-1.392L8.6,5.964a6.708,6.708,0,0,1-.156,1.452A9.365,9.365,0,0,1,7.032,11.04,9.092,9.092,0,0,1,2.928,14.292ZM1.14,6.816A27.113,27.113,0,0,1,3.168,10.44l1.584-.9C4.308,8.7,3.276,6.864,2.676,6.024ZM14.34,5.8a8.161,8.161,0,0,1,.048.912v4.044c0,.36-.048.828-.06,1.056H16.1c-.024-.276-.036-.744-.036-1.044V6.708c0-.384.012-.648.036-.912Zm5.52-.108a8.465,8.465,0,0,1,.072,1.2v2.28c0,1.872-.156,2.772-.972,3.672a5.616,5.616,0,0,1-2.94,1.512l1.26,1.32a6.971,6.971,0,0,0,2.916-1.74c.888-.984,1.392-2.088,1.392-4.668V6.888c0-.48.024-.864.048-1.2Zm12.54,8c.18-1.14.492-3.2.588-3.912a3.345,3.345,0,0,1,.12-.5l-1.152-.564a2.847,2.847,0,0,1-.9.132H27.984c-.324,0-.876-.036-1.188-.072v1.584c.348-.024.816-.06,1.2-.06h3.24c-.036.672-.3,2.376-.468,3.4H26.88a11.528,11.528,0,0,1-1.188-.06v1.56c.456-.024.756-.036,1.188-.036H33.2c.312,0,.9.024,1.14.036V13.644c-.312.036-.864.048-1.176.048Zm4.7-2.364c.444-.036,1.248-.06,1.932-.06H45.48c.5,0,1.116.048,1.4.06V9.444c-.312.024-.852.072-1.4.072H39.036c-.624,0-1.5-.036-1.932-.072ZM51.468,5.5l-.876,1.32c.792.444,2.04,1.26,2.712,1.728l.9-1.332C53.58,6.78,52.26,5.94,51.468,5.5Zm-2.232,8.52.9,1.584a14.6,14.6,0,0,0,4.008-1.488A14.489,14.489,0,0,0,58.92,9.8L58,8.172a12.233,12.233,0,0,1-4.668,4.5A13.316,13.316,0,0,1,49.236,14.016Zm.384-5.784-.876,1.332a31.341,31.341,0,0,1,2.736,1.7l.876-1.344C51.744,9.492,50.424,8.664,49.62,8.232Zm19.632.828c0-.252,0-.648.012-.8-.192.012-.636.024-.924.024H63.8c-.444,0-1.176-.024-1.488-.06V9.672c.288-.024,1.044-.048,1.488-.048h3.96v1.452H63.936c-.456,0-1-.012-1.308-.036v1.416c.276-.012.852-.024,1.308-.024h3.828v1.6H63.228a10.3,10.3,0,0,1-1.044-.048v1.476c.2-.012.7-.036,1.032-.036h4.548c0,.18,0,.372-.012.48h1.512c0-.216-.012-.624-.012-.816Zm5.4-3.18-1.128,1.2a24.951,24.951,0,0,1,3,2.592l1.224-1.26A25.2,25.2,0,0,0,74.652,5.88Zm-1.5,7.992,1.008,1.584a13,13,0,0,0,4.452-1.692,12.76,12.76,0,0,0,4.44-4.44l-.936-1.692A11.379,11.379,0,0,1,77.748,12.3,12.368,12.368,0,0,1,73.152,13.872ZM92.736,7.824V6.564a10.32,10.32,0,0,1,.072-1.116H91.1a7.92,7.92,0,0,1,.072,1.116v1.26H88.332V6.648A7.393,7.393,0,0,1,88.4,5.556H86.7a9.749,9.749,0,0,1,.072,1.08V7.824h-1.02a7.934,7.934,0,0,1-1.3-.108V9.348c.264-.024.7-.048,1.3-.048h1.02v1.632a9.706,9.706,0,0,1-.072,1.26h1.68c-.012-.24-.048-.732-.048-1.26V9.3h2.844v.456c0,2.94-1.02,3.984-3.336,4.788l1.284,1.212c2.892-1.272,3.612-3.084,3.612-6.06V9.3h.888c.636,0,1.056.012,1.32.036V7.74a7.111,7.111,0,0,1-1.32.084ZM103.2,9.048a19.607,19.607,0,0,0,3.18-2.58L105.1,5.3a12.665,12.665,0,0,1-3.132,2.712,18.435,18.435,0,0,1-5.46,2.172l.864,1.464A23.462,23.462,0,0,0,101.5,10.02v3.936a13.44,13.44,0,0,1-.084,1.572h1.9a8.25,8.25,0,0,1-.108-1.572Zm14.988,1.536a39.193,39.193,0,0,0-5.016-1.86V6.96a13.051,13.051,0,0,1,.108-1.452h-1.872a8.369,8.369,0,0,1,.12,1.452v6.888a12.841,12.841,0,0,1-.12,1.668h1.872c-.048-.48-.108-1.32-.108-1.668v-3.4A34.661,34.661,0,0,1,117.5,12.24Z" transform="translate(-11943 -239)" fill="#111" opacity="0.8"/>
    <g id="logo-amano" transform="translate(-12133 -251)">
      <path id="Path_1" data-name="Path 1" d="M645.56,45.6l-9.443-22.056s-.114-.225-.289-.225H625.171a.153.153,0,0,0-.171.148v2.916a.193.193,0,0,0,.216.212h1.279c.841,0,1.095.467.894,1.13L619.753,45.28c-.267.638-.474,1.429-1.355,1.487,0,0-1.1.086-1.465.086-.42,0-.431.548-.431.548v2.347s-.014.173.22.173h11.231a.255.255,0,0,0,.25-.236v-2.62a.318.318,0,0,0-.329-.312H626.2a.8.8,0,0,1-.606-1.191l1.108-2.54a.461.461,0,0,1,.412-.276h8.875c.326-.011.37.192.37.192l1.169,2.595c.376.854-.175,1.229-.927,1.229h-1.448a.2.2,0,0,0-.192.177v2.876s0,.106.138.106h13.331a.238.238,0,0,0,.233-.2L648.659,47s-.023-.193-.17-.193c-.1,0-1.091-.023-1.091-.023-1.261,0-1.429-.276-1.838-1.181m-16.648-7.5,2.382-5.515c.218-.527.355-.564.632-.037l2.418,5.653c.214.494.177.651-.79.613h-4.062c-.8,0-.8-.171-.58-.715" transform="translate(-616.502 -22.2)" fill="#0181c0"/>
      <path id="Path_2" data-name="Path 2" d="M718.086,45.607l-9.439-21.9s-.112-.222-.293-.222L697.7,23.474a.155.155,0,0,0-.168.153l0,2.837a.191.191,0,0,0,.207.216h1.285c.841,0,1.089.466.894,1.131l-7.559,17.473c-.274.639-.478,1.43-1.355,1.487,0,0-1.183.086-1.545.086-.418,0-.427.549-.427.549v2.5s-.017.178.216.178h11.234a.257.257,0,0,0,.25-.241V47.3a.321.321,0,0,0-.334-.311h-1.67a1.022,1.022,0,0,1-.605-1.423l1.11-2.384a.452.452,0,0,1,.416-.28c.286,0,7.676,0,8.876,0,.318-.01.359.194.359.194l1.173,2.442A.97.97,0,0,1,709.132,47h-1.45c-.16,0-.187.177-.187.177v2.819s0,.1.137.1h13.326a.236.236,0,0,0,.233-.208V47.238s-.021-.2-.294-.2c-.1,0-.972-.026-.972-.026-1.256,0-1.428-.5-1.839-1.409m-16.822-7.32,2.56-5.7c.216-.528.355-.564.627-.037l2.423,5.653c.21.494.42.785-.795.707h-4.235c-.8,0-.807-.08-.58-.624" transform="translate(-619.249 -22.206)" fill="#0181c0"/>
      <path id="Path_3" data-name="Path 3" d="M668.345,36.585,663.216,23.6a.564.564,0,0,0-.5-.287H652.358a.212.212,0,0,0-.213.216v2.833a.2.2,0,0,0,.194.192c.188,0,1.052.027,1.052.027,1.228,0,1.2.7,1.2,1.654V45.394c0,.544-.149,1.375-1.172,1.375h-1.089a.17.17,0,0,0-.186.176v2.779a.171.171,0,0,0,.178.208h9.926c.183,0,.183-.218.183-.218V46.955a.159.159,0,0,0-.173-.2h-1.116a1.1,1.1,0,0,1-1.25-1.114V36.4c0-1.157.292-.891.533-.276l5.457,13.67a.2.2,0,0,0,.2.137h3.618a.215.215,0,0,0,.186-.137l5.547-13.445c.317-.885.6-.982.6-.47v9.693c0,.494-.029,1.275-1.185,1.275h-1.168a.177.177,0,0,0-.192.214V49.85a.156.156,0,0,0,.161.182H685.4a.183.183,0,0,0,.177-.159V47.065s-.043-.187-.209-.187h-.831c-1.645,0-1.592-.849-1.592-1.345V28.011c0-1.29,1.013-1.371,1.561-1.371h.863c.2,0,.18-.23.18-.23l.012-2.8s-.03-.235-.2-.235h-9.926a.424.424,0,0,0-.381.194l-5.738,13.581c-.429.941-.566.412-.974-.571" transform="translate(-617.852 -22.2)" fill="#0181c0"/>
      <path id="Path_4" data-name="Path 4" d="M733.448,33.306l10.707,16.976h8.523V28.634c0-.951-.2-1.744,1.258-1.744,0,0,.776-.037.979-.037a.172.172,0,0,0,.187-.158V23.863s-.029-.222-.181-.222H744.794c-.187,0-.158.2-.158.2V26.69s-.029.166.167.166H746c1.039,0,1.225.765,1.225,1.343,0,0,.027,12.775.027,12.914s-.2.337-.392.042c-.211-.327-10.071-15.806-11.072-17.4a.306.306,0,0,0-.271-.186H725.05a.206.206,0,0,0-.214.242v2.815a.177.177,0,0,0,.181.146h1.155c.767,0,1.181.177,1.181,1.674V45.673c0,.615-.1,1.341-1.327,1.341,0,0-.92.008-1.123.008s-.187.229-.187.229v2.681s0,.229.19.229h10.066a.213.213,0,0,0,.221-.229V47.3a.2.2,0,0,0-.2-.182c-.171,0-1.162-.1-1.162-.1-1.313,0-1.2-.792-1.2-1.388V33.109c-.02-.672.245-.814.81.2" transform="translate(-620.601 -22.21)" fill="#0181c0"/>
      <path id="Path_5" data-name="Path 5" d="M757.553,36.908c0-8.37,6.091-14.752,14.888-14.752A14.765,14.765,0,0,1,787.392,37c0,8.373-5.551,15.159-14.951,15.159-8.289,0-14.888-6.246-14.888-15.248m14.888,11.247c5.627,0,7.162-5,7.162-11.159s-2.14-10.774-7.162-10.774c-5.45,0-7,4.611-7,10.774s1.919,11.159,7,11.159" transform="translate(-621.844 -22.156)" fill="#0181c0"/>
    </g>
  </g>
</svg>
