<svg xmlns="http://www.w3.org/2000/svg" width="169" height="43.641" viewBox="0 0 169 43.641">
  <g id="Group_1" data-name="Group 1" transform="translate(-762 -194.633)">
    <path id="Path_16735" data-name="Path 16735" d="M6.741-4.669A3.582,3.582,0,0,0,6.02-5.782l-.644.294a3.908,3.908,0,0,1,.672,1.155ZM3.724-5.138H2.45v-.791H1.6v.791H.322v.756h3.4ZM.7-1.764A3.926,3.926,0,0,1,.133-.273,4.16,4.16,0,0,1,.749.189,5.358,5.358,0,0,0,1.456-1.6Zm.7-1.547H2.625v.6H1.4ZM3.43-2.023V-3.99H.644v1.967H1.666V-.252c0,.077-.028.1-.112.1s-.336,0-.567-.007a2.934,2.934,0,0,1,.245.749A1.971,1.971,0,0,0,2.163.455c.238-.126.3-.336.3-.686V-2.023ZM5.908-.252A.139.139,0,0,1,5.8-.3a.169.169,0,0,1-.028-.105V-3.115H5.222l.021-.294h1.5V-4.2H5.257V-5.929h-.8V-4.2H3.668v.791h.77A5.847,5.847,0,0,1,3.689-.665a6.31,6.31,0,0,0-.441-1.162L2.6-1.6A6.646,6.646,0,0,1,3.01-.378l.651-.245a3.547,3.547,0,0,1-.63.756,3.63,3.63,0,0,1,.707.49A4.746,4.746,0,0,0,5.012-1.736V-.35c0,.448.035.581.161.707a.7.7,0,0,0,.5.182h.406A.749.749,0,0,0,6.51.42.6.6,0,0,0,6.748.042a5.522,5.522,0,0,0,.091-.959,1.76,1.76,0,0,1-.6-.329,7.479,7.479,0,0,1-.021.791.287.287,0,0,1-.063.161.165.165,0,0,1-.119.042Zm5.453-3.857c-.077.189-.161.392-.245.56H9.807l.119-.021a3.448,3.448,0,0,0-.238-.539ZM13.622-.987v-.686H10.9v-.308H13v-.6H10.9V-2.9h2.429v-.651H11.956c.105-.168.217-.357.329-.56H13.6v-.679h-.91c.161-.245.35-.56.546-.882l-.875-.21a5.639,5.639,0,0,1-.441,1.015l.252.077H11.55V-5.929h-.784v1.141h-.518V-5.929H9.471v1.141H8.834l.343-.126A5.3,5.3,0,0,0,8.645-5.9l-.714.245a6.274,6.274,0,0,1,.434.868H7.427v.679H8.89L8.806-4.1a3.146,3.146,0,0,1,.238.546H7.714V-2.9H10.08v.315H8.064v.6H10.08v.308H7.406v.686H9.415A7.354,7.354,0,0,1,7.2-.168a3.883,3.883,0,0,1,.532.693A6.64,6.64,0,0,0,10.08-.609V.609H10.9V-.651A5.975,5.975,0,0,0,13.251.532a3.916,3.916,0,0,1,.56-.756,6.254,6.254,0,0,1-2.219-.763ZM16.6-2.66a.9.9,0,0,0,.9.9.9.9,0,0,0,.9-.9.9.9,0,0,0-.9-.9A.9.9,0,0,0,16.6-2.66Zm5.341-1.708H22.7v-.448h.679v.448h.763v-.448h.693v-.609h-.693v-.5H23.38v.5H22.7v-.5h-.756v.5h-.623v.609h.623Zm.259,1.2v-.518h.469v.518Zm1.7,0h-.469v-.518h.469ZM26.229-4.34c.007-.483.007-.987.007-1.526h-.763c0,.546,0,1.05-.007,1.526h-.637v.77h.623a5.85,5.85,0,0,1-.707,3.059v-.07c-.434.042-.875.084-1.309.119V-.805h1.218v-.581H23.436v-.336h1.3v-.6h-1.3v-.294h1.225V-4.249H21.5v1.631h1.176v.294H21.406v.6h1.267v.336H21.511v.581h1.162V-.4c-.532.049-1.022.084-1.414.112l.084.693c.812-.077,1.939-.182,3.045-.3a2.37,2.37,0,0,1,.455.518c1.015-.91,1.288-2.31,1.365-4.193h.658a11.682,11.682,0,0,1-.238,3.283.237.237,0,0,1-.231.126A4.711,4.711,0,0,1,25.774-.2,2.009,2.009,0,0,1,26,.581,4.76,4.76,0,0,0,26.81.553a.758.758,0,0,0,.511-.336c.217-.308.273-1.33.322-4.2,0-.091.007-.357.007-.357Zm2.4.245c1.218-.014,3.059-.056,4.8-.1a4.906,4.906,0,0,1,.574.567l.623-.532A8.9,8.9,0,0,0,32.7-5.635l-.616.462c.154.091.315.2.476.3-.651.014-1.295.021-1.9.021.245-.245.483-.525.7-.791l-.931-.28a7.647,7.647,0,0,1-.777,1.078c-.392.007-.756.007-1.071.007Zm4.2,1.68h-2.7v-.651h2.7Zm.826-1.316h-4.3V-1.75h1.47l-.231.217a4.574,4.574,0,0,1,1.218.868l.553-.539a4.074,4.074,0,0,0-.749-.546h2.044ZM28.91.434A2.642,2.642,0,0,0,29.9-1.113l-.742-.259a2.233,2.233,0,0,1-.931,1.323Zm2.352-.651c-.3,0-.35-.028-.35-.217v-.9h-.826v.917c0,.707.2.931,1.078.931h1.064c.644,0,.882-.2.973-1.015a2.179,2.179,0,0,1-.728-.294c-.035.5-.077.574-.322.574Zm1.6-.861A4.959,4.959,0,0,1,34.027.378l.735-.42a5,5,0,0,0-1.218-1.421ZM35.1,1.274h.686L37.52-5.635h-.686Zm4.235-6.811v.847h1.6c.021.238.049.49.1.756L40.6-4.011A5.262,5.262,0,0,1,37.926-.084,6.649,6.649,0,0,1,38.689.6a6.057,6.057,0,0,0,2.583-3.458A5.915,5.915,0,0,0,43.848.588,4.482,4.482,0,0,1,44.52-.14a5.844,5.844,0,0,1-2.765-5.4ZM49.35-3.514l-.448.3c.126.091.259.2.392.308l-1.8.035c.126-.2.266-.427.392-.644Zm1.1-1.2v.5h-4.48v-.5Zm-1.827,4.4V-.861h2.156v-.714H48.622v-.609l1.421-.042a5.071,5.071,0,0,1,.343.392l.651-.455a8.854,8.854,0,0,0-1.386-1.225h.875v-.5h.77V-5.474H48.622v-.448h-.854v.448H45.157v1.456h.77v.5h1.008c-.091.217-.2.448-.308.658l-.994.014.035.742c.581-.014,1.316-.035,2.1-.056v.581H45.759v.714h2.009v.539H45.136V.413h6.2V-.322Zm3.192,1.6H52.5l1.736-6.909H53.55Zm5.537-7.042c-.049.924.049,4.1-2.744,5.649a2.917,2.917,0,0,1,.7.665A5.978,5.978,0,0,0,57.9-2.968,5.551,5.551,0,0,0,60.655.546,2.736,2.736,0,0,1,61.3-.161C58.688-1.386,58.338-4.4,58.282-5.369c.007-.147.014-.287.021-.4Zm9.24,4.76h-1.26v-.329h1.26Zm-1.26-1.267h1.26v.3h-1.26ZM63.385-3.668V-4h1.1v.336ZM66.465-4v.336H65.331V-4Zm1.7,2.03h-.728v-.861H65.331v-.308h1.988V-4.529H65.331v-.287H68v-.658H65.331v-.455h-.847v.455H61.873v.658h2.611v.287h-1.9v1.386h1.9v.308H62.412v.56h2.072v.3H61.712v.637h2.772v.329H62.356v.6h2.128v.217c0,.126-.042.168-.175.175-.112,0-.525,0-.861-.014a2.566,2.566,0,0,1,.273.658A3.686,3.686,0,0,0,64.96.511c.273-.119.371-.287.371-.7V-.406h1.26v.287h.847V-1.337h.728Zm.364,3.248h.686l1.736-6.909h-.686Zm3.115-3.108A5.089,5.089,0,0,1,71.274-.21a4.115,4.115,0,0,1,.637.3,6.472,6.472,0,0,0,.42-1.806Zm1.519.126a8.282,8.282,0,0,1,.406,1.3l.616-.224a7.718,7.718,0,0,0-.434-1.26Zm-.147-1.729c.084.154.168.329.245.5l-.672.028c.441-.567.924-1.274,1.309-1.883L73.22-5.1A12.694,12.694,0,0,1,72.6-3.969c-.07-.091-.154-.182-.238-.28.252-.385.532-.931.784-1.407l-.721-.266A8.874,8.874,0,0,1,71.911-4.7l-.161-.14-.4.567a6.87,6.87,0,0,1,.826.952c-.112.161-.224.315-.329.448l-.5.021.07.721L72.429-2.2V.616h.721V-2.247l.357-.028a3.355,3.355,0,0,1,.091.357l.588-.266a5.934,5.934,0,0,0-.616-1.484Zm3.647,1.848V-.5h-1.54V-1.589ZM74.354.6h.77V.231h1.54V.574h.8v-2.9H74.354Zm.5-4.3a8.115,8.115,0,0,0,.973-1.3,9.762,9.762,0,0,0,1.029,1.3ZM75.4-5.831A6.734,6.734,0,0,1,73.64-3.745a3.832,3.832,0,0,1,.476.728,5.5,5.5,0,0,0,.609-.546v.623h2.3v-.574a5.971,5.971,0,0,0,.511.455,5.141,5.141,0,0,1,.511-.777,6.87,6.87,0,0,1-1.855-2Zm9.408,3.857H83.545q.052-.5.1-1.155c.014-.105.028-.357.028-.357H80.507c.056-.245.1-.5.154-.763h3.388v-.8H80.808c.049-.28.1-.553.14-.812l-.868-.077a34.822,34.822,0,0,1-.686,3.444l.882.07.07-.294h2.422c-.021.273-.042.518-.07.742H78.505v.8h4.081a1.651,1.651,0,0,1-.322.882.467.467,0,0,1-.343.1c-.2,0-.672-.007-1.155-.049a1.87,1.87,0,0,1,.294.833,9.5,9.5,0,0,0,1.19,0,1.01,1.01,0,0,0,.735-.336,2.8,2.8,0,0,0,.462-1.428h1.365Zm5.5,1.393v.392H87.535V-.581Zm-.532-1.89v.364h-2.24v-.364Zm-2.24.959H90.6V-3.073H86.737V.616h.8V.427h2.772V.616h.826V-1.19h-3.6Zm4.333-3.927h-2.03q.094-.178.168-.357l-.791-.189A3.227,3.227,0,0,1,88.55-4.97v-.469H87c.056-.112.112-.224.161-.336l-.777-.21a3.758,3.758,0,0,1-1.029,1.421,4.38,4.38,0,0,1,.679.448,5.17,5.17,0,0,0,.56-.672h.119a3.976,3.976,0,0,1,.315.672l.749-.21a3.53,3.53,0,0,0-.231-.462h.819c-.056.049-.119.1-.175.14.091.042.224.105.35.175h-.308v.49H85.652V-2.6h.784V-3.36H90.9V-2.6h.812V-3.983H89.026v-.378a3.85,3.85,0,0,0,.385-.427h.406a4.126,4.126,0,0,1,.42.686l.77-.217a3.522,3.522,0,0,0-.294-.469h1.155Zm2.793,3.864c-.224.077-.455.147-.686.217v-1.4h.63v-.763h-.63V-4.753h.749V-5.53h-2.31v.777h.77v1.232h-.707v.763h.707v1.645c-.322.091-.609.168-.854.231l.189.847c.672-.217,1.512-.483,2.282-.756Zm1.078-2.114h.721v.6h-.721Zm0-1.239h.721v.581h-.721Zm2.114.581H97.16v-.581h.693Zm0,1.26H97.16v-.6h.693ZM97.237-.364v-.665h1.484v-.749H97.237v-.6h1.407V-5.635H94.99V-2.38h1.4v.6H94.941v.749H96.39v.665H94.458V.392h4.5V-.364Zm4.074-5.18-.511.77c.462.259,1.19.735,1.582,1.008l.525-.777C102.543-4.8,101.773-5.285,101.311-5.544Zm-1.3,4.97.525.924a8.518,8.518,0,0,0,2.338-.868,8.452,8.452,0,0,0,2.786-2.513l-.539-.952A7.136,7.136,0,0,1,102.4-1.358,7.768,7.768,0,0,1,100.009-.574Zm.224-3.374-.511.777a18.28,18.28,0,0,1,1.6.994l.511-.784C101.472-3.213,100.7-3.7,100.233-3.948Zm11.179-1.225a2.527,2.527,0,0,1-.728.091H108.22a7.82,7.82,0,0,1-.826-.049v.994c.147-.007.532-.049.826-.049h2.373a5.424,5.424,0,0,1-1.043,1.715,7.931,7.931,0,0,1-2.87,2.009l.721.756a9.221,9.221,0,0,0,2.632-1.967A15.963,15.963,0,0,1,111.8.308l.8-.693a19.678,19.678,0,0,0-1.953-2,10.292,10.292,0,0,0,1.1-1.925,3.307,3.307,0,0,1,.245-.434Zm6.706.679c.245,0,.511.014.756.028v-.9a5.484,5.484,0,0,1-.756.049H115.3a5.216,5.216,0,0,1-.742-.049v.9c.21-.014.5-.028.749-.028Zm-3.7.959c-.217,0-.462-.021-.672-.042v.917c.2-.014.469-.028.672-.028h1.925a3.008,3.008,0,0,1-.434,1.547,2.908,2.908,0,0,1-1.267,1l.819.6a3.359,3.359,0,0,0,1.407-1.344,4.441,4.441,0,0,0,.448-1.8H119c.2,0,.462.007.637.021v-.91a5.386,5.386,0,0,1-.637.042Zm12.194,3.43a21.529,21.529,0,0,0-1.533-2.912l-.875.357a8.461,8.461,0,0,1,.735,1.281c-.707.084-1.7.2-2.555.28.35-.938.917-2.716,1.141-3.4a7.965,7.965,0,0,1,.3-.777L122.71-5.5a5.194,5.194,0,0,1-.168.8c-.2.728-.805,2.646-1.211,3.682l-.189.007c-.231.007-.532.007-.77.007l.161,1.022c.224-.028.483-.063.658-.084.882-.091,3-.315,4.144-.448.126.3.238.588.329.826Zm2.24-1.155c-.259,0-.539-.343-.539-1.043a2.174,2.174,0,0,1,1.757-2.009,11.126,11.126,0,0,1-.371,1.68C129.416-1.694,129.136-1.26,128.849-1.26Zm1.9,1.547A2.717,2.717,0,0,0,133.4-2.471a2.645,2.645,0,0,0-2.8-2.709,3.091,3.091,0,0,0-3.192,2.968c0,1.169.651,2.016,1.414,2.016s1.358-.854,1.771-2.254a15.066,15.066,0,0,0,.413-1.883A1.716,1.716,0,0,1,132.454-2.5a1.877,1.877,0,0,1-1.575,1.855c-.182.042-.378.077-.644.112Zm4.963-3.3H137v.357h-1.288Zm0-.889H137v.357h-1.288Zm3.437,0v.357h-1.337V-3.9Zm0,1.246h-1.337V-3.01h1.337Zm1.456.938H139.1v-.371h.861v-2.38h-2.149v-.315h2.625V-5.46h-2.625v-.462H137v.462h-2.569v.679H137v.315h-2.058v2.38h3.339v.371h-4.011v.7h1.5l-.5.357a5.137,5.137,0,0,1,1,.98l.665-.49a4.81,4.81,0,0,0-.924-.847h2.275v.791c0,.091-.042.119-.154.126s-.56,0-.931-.014a2.829,2.829,0,0,1,.259.728A4.117,4.117,0,0,0,138.726.5c.294-.112.378-.3.378-.7v-.819h1.505ZM143.4-4.977v.364h-1.064v-.364Zm-1.064,1.358v-.4H143.4v.4Zm1.841-2.03h-2.667V.609h.826V-2.954h1.841Zm1.281,2.044v-.413h1.106v.413Zm1.106-1.372v.364H145.46v-.364Zm.84-.672h-2.737v2.716h1.9v2.52c0,.133-.049.182-.2.182s-.665.007-1.106-.021a3.018,3.018,0,0,1,.294.854A3.809,3.809,0,0,0,147,.448c.308-.126.406-.371.406-.847Zm5.768,1.463v-.735a6.022,6.022,0,0,1,.042-.651h-.994a4.617,4.617,0,0,1,.042.651v.735h-1.659v-.686a4.313,4.313,0,0,1,.042-.637h-.994a5.684,5.684,0,0,1,.042.63v.693h-.6a4.628,4.628,0,0,1-.756-.063V-3.3c.154-.014.406-.028.756-.028h.6v.952a5.659,5.659,0,0,1-.042.735h.98c-.007-.14-.028-.427-.028-.735v-.952h1.659v.266a2.458,2.458,0,0,1-1.946,2.793l.749.707c1.687-.742,2.107-1.8,2.107-3.535v-.231h.518c.371,0,.616.007.77.021v-.931a4.148,4.148,0,0,1-.77.049Zm6.1.714a11.438,11.438,0,0,0,1.855-1.505l-.749-.679a7.388,7.388,0,0,1-1.827,1.582,10.754,10.754,0,0,1-3.185,1.267l.5.854a13.686,13.686,0,0,0,2.408-.952v2.3a7.84,7.84,0,0,1-.049.917h1.106a4.813,4.813,0,0,1-.063-.917Zm8.743.9A22.862,22.862,0,0,0,165.1-3.661V-4.69a7.613,7.613,0,0,1,.063-.847h-1.092a4.883,4.883,0,0,1,.07.847V-.672a7.492,7.492,0,0,1-.07.973h1.092c-.028-.28-.063-.77-.063-.973V-2.653a20.219,20.219,0,0,1,2.527,1.043Z" transform="translate(762 237)" fill="#0181c0"/>
    <g id="logo-amano" transform="translate(762 194.633)">
      <path id="Path_1" data-name="Path 1" d="M646.166,46.065l-9.64-22.516s-.116-.23-.295-.23h-10.88a.157.157,0,0,0-.175.151v2.977a.2.2,0,0,0,.22.216H626.7c.858,0,1.118.476.912,1.153l-7.794,17.92c-.273.651-.484,1.459-1.383,1.518,0,0-1.126.087-1.5.087-.429,0-.44.56-.44.56v2.4s-.015.177.225.177h11.465a.26.26,0,0,0,.255-.241V47.56a.325.325,0,0,0-.336-.318h-1.706a.821.821,0,0,1-.619-1.216l1.132-2.593a.471.471,0,0,1,.42-.282h9.06c.333-.011.377.2.377.2L637.969,46c.384.872-.179,1.254-.946,1.254h-1.478a.209.209,0,0,0-.2.181v2.936s0,.108.14.108H649.1a.243.243,0,0,0,.238-.209l-.006-2.775s-.024-.2-.174-.2c-.105,0-1.114-.024-1.114-.024-1.288,0-1.458-.282-1.876-1.205m-17-7.661,2.432-5.63c.223-.538.362-.576.645-.037l2.468,5.771c.219.5.181.665-.806.626h-4.147c-.813,0-.821-.175-.592-.73" transform="translate(-616.502 -22.177)" fill="#0181c0"/>
      <path id="Path_2" data-name="Path 2" d="M718.692,46.068l-9.636-22.359s-.114-.227-.3-.227c-.1,0-9.476-.008-10.878-.008a.158.158,0,0,0-.172.156l0,2.9a.2.2,0,0,0,.211.22h1.312c.858,0,1.112.475.912,1.155L692.43,45.739c-.28.652-.488,1.46-1.383,1.518,0,0-1.208.087-1.577.087-.426,0-.436.561-.436.561v2.553s-.018.182.221.182h11.468a.262.262,0,0,0,.255-.246V47.8a.328.328,0,0,0-.341-.317h-1.705a1.043,1.043,0,0,1-.618-1.453l1.133-2.434a.461.461,0,0,1,.424-.286c.292,0,7.836,0,9.061,0,.324-.01.366.2.366.2L710.5,46a.99.99,0,0,1-.946,1.488h-1.48c-.163,0-.191.181-.191.181v2.878s0,.106.139.106h13.6a.241.241,0,0,0,.238-.212V47.733s-.021-.2-.3-.2c-.106,0-.992-.027-.992-.027-1.283,0-1.458-.515-1.877-1.438M701.52,38.6l2.614-5.818c.221-.539.362-.576.64-.037l2.473,5.771c.214.5.429.8-.811.722h-4.323c-.815,0-.824-.082-.592-.637" transform="translate(-617.794 -22.179)" fill="#0181c0"/>
      <path id="Path_3" data-name="Path 3" d="M668.683,36.861,663.447,23.61a.576.576,0,0,0-.506-.293H652.362a.216.216,0,0,0-.217.22V26.43a.2.2,0,0,0,.2.2c.192,0,1.075.028,1.075.028,1.253,0,1.225.719,1.225,1.688V45.854c0,.555-.152,1.4-1.2,1.4h-1.112a.174.174,0,0,0-.19.18v2.837a.174.174,0,0,0,.182.212H662.46c.187,0,.187-.223.187-.223V47.448a.162.162,0,0,0-.177-.2H661.33a1.123,1.123,0,0,1-1.276-1.137V36.669c0-1.182.3-.91.544-.282l5.571,13.955a.2.2,0,0,0,.209.139h3.693a.219.219,0,0,0,.19-.139l5.662-13.725c.323-.9.613-1,.613-.479v9.9c0,.5-.029,1.3-1.21,1.3h-1.192a.181.181,0,0,0-.2.218V50.4a.16.16,0,0,0,.164.186H686.1a.187.187,0,0,0,.181-.162V47.56s-.044-.191-.213-.191h-.849c-1.68,0-1.625-.866-1.625-1.373V28.109c0-1.317,1.034-1.4,1.593-1.4h.881c.2,0,.184-.235.184-.235l.013-2.854s-.03-.24-.2-.24H675.924a.433.433,0,0,0-.389.2l-5.858,13.865c-.438.961-.578.42-.994-.582" transform="translate(-617.137 -22.177)" fill="#0181c0"/>
      <path id="Path_4" data-name="Path 4" d="M733.63,33.509l10.93,17.33h8.7v-22.1c0-.97-.209-1.781,1.285-1.781,0,0,.792-.037,1-.037a.176.176,0,0,0,.19-.161V23.87s-.029-.227-.185-.227H745.212c-.19,0-.161.2-.161.2v2.91s-.029.17.17.17h1.22c1.061,0,1.25.781,1.25,1.371,0,0,.028,13.041.028,13.183s-.205.344-.4.043c-.215-.334-10.281-16.135-11.3-17.762a.312.312,0,0,0-.277-.19H725.057a.21.21,0,0,0-.219.248v2.874a.181.181,0,0,0,.185.149H726.2c.783,0,1.205.181,1.205,1.709V46.134c0,.628-.1,1.369-1.354,1.369,0,0-.939.008-1.146.008s-.19.234-.19.234v2.737s0,.234.194.234h10.276a.217.217,0,0,0,.226-.234V47.794a.2.2,0,0,0-.2-.186c-.175,0-1.186-.1-1.186-.1-1.341,0-1.222-.808-1.222-1.417V33.308c-.021-.686.25-.831.827.2" transform="translate(-618.43 -22.181)" fill="#0181c0"/>
      <path id="Path_5" data-name="Path 5" d="M757.553,37.216c0-8.545,6.218-15.06,15.2-15.06a15.073,15.073,0,0,1,15.263,15.15c0,8.548-5.667,15.475-15.263,15.475-8.462,0-15.2-6.376-15.2-15.566m15.2,11.482c5.745,0,7.311-5.105,7.311-11.391s-2.184-11-7.311-11c-5.563,0-7.145,4.708-7.145,11S767.565,48.7,772.751,48.7" transform="translate(-619.015 -22.156)" fill="#0181c0"/>
    </g>
  </g>
</svg>
