<svg xmlns="http://www.w3.org/2000/svg" width="214.95" height="46.048" viewBox="0 0 214.95 46.048">
  <g id="Group_14828" data-name="Group 14828" transform="translate(-50.3 -116.836)">
    <path id="Path_15147" data-name="Path 15147" d="M.97,0H3.43C5.06,0,6.25-.7,6.25-2.16A1.69,1.69,0,0,0,4.8-3.91v-.05A1.637,1.637,0,0,0,5.85-5.55c0-1.33-1.09-1.81-2.6-1.81H.97ZM2.13-4.29V-6.46H3.15c1.04,0,1.56.29,1.56,1.06,0,.69-.47,1.11-1.59,1.11Zm0,3.38v-2.5H3.3c1.17,0,1.81.36,1.81,1.19,0,.9-.66,1.31-1.81,1.31ZM11.81-5.5H10.69L9.81-2.67,9.38-1.12H9.33c-.17-.51-.34-1.06-.5-1.55L7.81-5.5H6.63L8.81-.04,8.7.34c-.2.59-.55,1.03-1.15,1.03a1.49,1.49,0,0,1-.4-.08l-.22.9a1.956,1.956,0,0,0,.69.11c1.16,0,1.74-.79,2.17-1.97Zm4.46,2.49.3-.99c.24-.8.47-1.61.68-2.45h.04c.23.83.45,1.65.7,2.45l.29.99ZM19.18,0h1.23L17.97-7.36H16.63L14.19,0h1.18L16-2.1h2.56Zm2.2,0h1.04V-3.64c0-.66-.09-1.61-.14-2.28h.04l.58,1.7L24.19-.71h.72l1.28-3.51.59-1.7h.04c-.06.67-.15,1.62-.15,2.28V0h1.08V-7.36H26.41L25.08-3.64c-.17.49-.31.99-.48,1.49h-.05c-.17-.5-.32-1-.49-1.49L22.71-7.36H21.38Zm9.41-3.01.3-.99c.24-.8.47-1.61.68-2.45h.04c.23.83.45,1.65.7,2.45l.29.99ZM33.7,0h1.23L32.49-7.36H31.15L28.71,0h1.18l.63-2.1h2.56Zm2.2,0H37V-3.47c0-.8-.09-1.65-.15-2.41h.05l.77,1.54L40.11,0H41.3V-7.36H40.2v3.43c0,.8.09,1.69.15,2.45H40.3l-.77-1.56L37.09-7.36H35.9ZM46.04.13c1.89,0,3.21-1.47,3.21-3.84S47.93-7.5,46.04-7.5s-3.2,1.42-3.2,3.79S44.15.13,46.04.13Zm0-1.01c-1.22,0-2.01-1.1-2.01-2.83s.79-2.78,2.01-2.78,2.02,1.05,2.02,2.78S47.26-.88,46.04-.88Z" transform="translate(216 158)" fill="#fff"/>
    <path id="Path_15145" data-name="Path 15145" d="M5-9.888C4.92-8.3,5.088-2.856.3-.2A5,5,0,0,1,1.5.936,10.247,10.247,0,0,0,5.94-5.088,9.516,9.516,0,0,0,10.668.936a4.69,4.69,0,0,1,1.1-1.212C7.3-2.376,6.7-7.548,6.6-9.2c.012-.252.024-.492.036-.684Zm19.44,8.16h-2.16v-.564h2.16ZM22.284-3.9h2.16v.516h-2.16ZM18.948-6.288v-.576h1.884v.576Zm5.28-.576v.576H22.284v-.576Zm2.916,3.48H25.9V-4.86H22.284v-.528h3.408V-7.764H22.284v-.492h4.584V-9.384H22.284v-.78H20.832v.78H16.356v1.128h4.476v.492H17.58v2.376h3.252v.528H17.28v.96h3.552v.516H16.08v1.092h4.752v.564H17.184V-.7h3.648v.372c0,.216-.072.288-.3.3-.192,0-.9,0-1.476-.024a4.4,4.4,0,0,1,.468,1.128,6.32,6.32,0,0,0,2.124-.2c.468-.2.636-.492.636-1.2V-.7h2.16V-.2H25.9V-2.292h1.248Zm8.52-1.176A1.547,1.547,0,0,0,37.2-3.024,1.547,1.547,0,0,0,38.736-4.56,1.547,1.547,0,0,0,37.2-6.1,1.547,1.547,0,0,0,35.664-4.56ZM53.676-8.2a7.179,7.179,0,0,0-.96-1.956l-1.272.42a7.476,7.476,0,0,1,.864,1.992Zm-.564,3.648c.048-.492.072-1.008.1-1.56h-1.56c-.024.564-.036,1.08-.084,1.56H48.408v1.332h2.94c-.4,1.452-1.368,2.4-4,2.952a4.963,4.963,0,0,1,.828,1.32c3.2-.78,4.32-2.184,4.752-4.272h2.58c-.108,1.764-.252,2.568-.48,2.784a.7.7,0,0,1-.5.132c-.312,0-1.056-.012-1.764-.06a3.108,3.108,0,0,1,.5,1.4,15.353,15.353,0,0,0,1.884-.024A1.516,1.516,0,0,0,56.28.5c.408-.444.576-1.632.708-4.476.024-.18.036-.576.036-.576Zm3-3.168a22.558,22.558,0,0,0,1.416-1.908l-1.6-.48a12.2,12.2,0,0,1-1.344,2.292l.264.1H49.944l.852-.4a7.256,7.256,0,0,0-1.236-1.86L48.324-9.4a7.863,7.863,0,0,1,1.068,1.68h-1.7v2.784h1.368V-6.4h7.476v1.464h1.44V-7.716Zm14.9,4.236c.048-.348.084-.708.12-1.068H69.708a10.016,10.016,0,0,1-.12,1.068H67.836v1.188h1.452A3.847,3.847,0,0,1,66.78-.06a4.036,4.036,0,0,1,.828,1.1,4.794,4.794,0,0,0,3.156-3.336h1.392A3.653,3.653,0,0,1,71.7-.5a.489.489,0,0,1-.384.132,10.163,10.163,0,0,1-1.032-.06,3.1,3.1,0,0,1,.384,1.32A9.169,9.169,0,0,0,72.012.864a1.319,1.319,0,0,0,.876-.42c.348-.384.564-1.308.756-3.384.024-.168.048-.54.048-.54Zm.528-4.3a3.646,3.646,0,0,1-.792,1.02,4.706,4.706,0,0,1-1-1.02Zm2.28,0V-8.964h-3.54a8.046,8.046,0,0,0,.444-.84l-1.332-.36A7.154,7.154,0,0,1,67.1-7.308a10.479,10.479,0,0,1,1.164.8,7.145,7.145,0,0,0,.54-.516,6.785,6.785,0,0,0,.852,1,7.271,7.271,0,0,1-1.464.552l.048-.276-.864-.288-.192.06h-.576l.588-.612a6.716,6.716,0,0,0-.876-.528A8.957,8.957,0,0,0,68.076-9.1l-.912-.576-.216.048H63.072v1.2h2.88a7.494,7.494,0,0,1-.756.756c-.324-.144-.66-.276-.948-.384l-.9.912a17.408,17.408,0,0,1,2.316,1.164H62.916v1.248h1.5a7.54,7.54,0,0,1-1.7,2.472,8,8,0,0,1,.648,1.38,7.27,7.27,0,0,0,1.5-2.22V-.528c0,.144-.048.168-.192.18s-.636,0-1.08-.012A4.754,4.754,0,0,1,64,1,3.539,3.539,0,0,0,65.688.744c.42-.216.516-.6.516-1.248V-4.728h.636a15.641,15.641,0,0,1-.384,1.656l.96.444a14.007,14.007,0,0,0,.588-2,4.541,4.541,0,0,1,.336.5,9.605,9.605,0,0,0,2.448-1.008A8.643,8.643,0,0,0,73.236-4.1a5.481,5.481,0,0,1,.9-1.212,9.337,9.337,0,0,1-2.208-.708,5.9,5.9,0,0,0,1.2-1.752ZM81.276-2.16c-.444,0-.924-.588-.924-1.788a3.726,3.726,0,0,1,3.012-3.444,19.074,19.074,0,0,1-.636,2.88C82.248-2.9,81.768-2.16,81.276-2.16ZM84.54.492c3-.456,4.536-2.232,4.536-4.728a4.535,4.535,0,0,0-4.8-4.644A5.3,5.3,0,0,0,78.8-3.792c0,2,1.116,3.456,2.424,3.456S83.556-1.8,84.264-4.2a25.826,25.826,0,0,0,.708-3.228,2.941,2.941,0,0,1,2.484,3.144,3.217,3.217,0,0,1-2.7,3.18c-.312.072-.648.132-1.1.192ZM100-4.548a17.459,17.459,0,0,1,2.292-.132,17.165,17.165,0,0,1,2.04.144l.036-1.428a20.632,20.632,0,0,0-2.088-.108c-.768,0-1.62.06-2.28.12Zm.936-3.816c-.648.156-1.32.288-1.992.4l.1-.456c.06-.264.168-.792.252-1.116l-1.812-.144a6.17,6.17,0,0,1-.048,1.2q-.036.288-.108.684c-.36.024-.708.036-1.056.036a11.7,11.7,0,0,1-1.5-.1L94.8-6.372c.42.024.864.048,1.44.048.24,0,.5-.012.78-.024-.084.336-.168.672-.252.984A26.2,26.2,0,0,1,94.716-.012L96.384.54a38.325,38.325,0,0,0,1.884-5.5c.132-.48.252-1.008.36-1.524.792-.1,1.6-.228,2.3-.384ZM99.264-3.1a8.156,8.156,0,0,0-.2,1.584c0,1.2,1.02,1.9,3.024,1.9a19.016,19.016,0,0,0,2.424-.168l.06-1.524a13.777,13.777,0,0,1-2.472.24c-1.272,0-1.572-.384-1.572-.9a4.111,4.111,0,0,1,.168-1Zm12.84,1.38c-.432,0-.672-.372-.672-.948A3.627,3.627,0,0,1,112.3-4.9a13.079,13.079,0,0,0,1.1,2.28A1.943,1.943,0,0,1,112.1-1.716Zm3.252-4.764A14.159,14.159,0,0,1,114.3-3.936a11.907,11.907,0,0,1-.84-1.884A4.633,4.633,0,0,1,115.356-6.48Zm1.932-1.692c.072-.3.18-.876.276-1.2l-1.644-.156a6.414,6.414,0,0,1-.084,1.128c-.036.18-.072.372-.12.576a6.2,6.2,0,0,0-2.688.708c-.084-.252-.156-.5-.216-.732-.1-.348-.192-.744-.264-1.128l-1.56.48a8.742,8.742,0,0,1,.48,1.236c.1.324.2.648.312.96a5.213,5.213,0,0,0-1.752,3.756c0,1.536.912,2.376,1.9,2.376a3.1,3.1,0,0,0,2.34-1.272c.12.156.264.312.408.468l1.188-.948c-.216-.216-.432-.456-.648-.708a14.467,14.467,0,0,0,1.608-3.78,2.546,2.546,0,0,1,1.92,2.616c0,1.488-1.02,2.82-3.636,3.048l.912,1.368C118.5.252,120.3-1.188,120.3-3.708a3.916,3.916,0,0,0-3.12-4.008ZM128.076-2.16c-.444,0-.924-.588-.924-1.788a3.726,3.726,0,0,1,3.012-3.444,19.076,19.076,0,0,1-.636,2.88C129.048-2.9,128.568-2.16,128.076-2.16ZM131.34.492c3-.456,4.536-2.232,4.536-4.728a4.535,4.535,0,0,0-4.8-4.644A5.3,5.3,0,0,0,125.6-3.792c0,2,1.116,3.456,2.424,3.456S130.356-1.8,131.064-4.2a25.828,25.828,0,0,0,.708-3.228,2.941,2.941,0,0,1,2.484,3.144,3.217,3.217,0,0,1-2.7,3.18c-.312.072-.648.132-1.1.192Z" transform="translate(50 127)" fill="#fff"/>
    <path id="Path_15146" data-name="Path 15146" d="M16.716-22.428a26.377,26.377,0,0,1,.224,4.144v4.648H7.532v-4.648a30.019,30.019,0,0,1,.224-4.144H1.736a27.3,27.3,0,0,1,.224,4.144V-3.276A26.605,26.605,0,0,1,1.736.868h6.02a28.749,28.749,0,0,1-.224-4.144V-8.708H16.94v5.432A27.067,27.067,0,0,1,16.716.868h6.048a29.76,29.76,0,0,1-.224-4.144V-18.284a26.605,26.605,0,0,1,.224-4.144ZM46.956.868c-.7-1.484-1.036-2.184-1.344-2.968-1.26-3.024-1.652-3.976-2.072-4.872-.9-1.988-1.54-2.632-2.968-3.08a6.188,6.188,0,0,0,2.66-1.4,6.1,6.1,0,0,0,1.652-4.592c0-4.032-2.632-6.384-7.168-6.384h-7.28c-1.9,0-2.94-.028-4.172-.084a29.85,29.85,0,0,1,.224,4.116V-3.332a27.649,27.649,0,0,1-.224,4.2h6.02A29.519,29.519,0,0,1,32.06-3.36V-7.952h2.856A3.06,3.06,0,0,1,37.1-7.2c.7.616,1.036,1.26,1.932,3.7A27.244,27.244,0,0,1,40.4.868ZM32.06-12.74v-4.984h4.4c1.736,0,2.632.812,2.632,2.38a2.442,2.442,0,0,1-2.66,2.6Zm42.728-7.28a26.546,26.546,0,0,1-2.912.14H66.864c.2-.756.28-1.092.448-1.764a12.267,12.267,0,0,1,.42-1.652L63.2-23.968a22.5,22.5,0,0,1-3.388,10v-5.712a26.456,26.456,0,0,1,.14-2.94,24.181,24.181,0,0,1-3.108.14H52.22a27.678,27.678,0,0,1-3.332-.168V-18.4a27.678,27.678,0,0,1,3.332-.168h3.416V-14.7H52a27.979,27.979,0,0,1-2.912-.112,25.117,25.117,0,0,1,.112,2.884V-3A3.065,3.065,0,0,0,50.12-.364c.672.532,1.9.728,4.48.728a10.506,10.506,0,0,0,4.648-.7A15.247,15.247,0,0,1,61.012,2.8a23.513,23.513,0,0,0,6.16-4.368,23.346,23.346,0,0,0,5.684,4.452A14.774,14.774,0,0,1,75.1-1.68a16.144,16.144,0,0,1-5.152-3.5,19.546,19.546,0,0,0,2.044-4.76,21.924,21.924,0,0,0,.9-6.076,17,17,0,0,1,1.9.112Zm-6.076,4A18.849,18.849,0,0,1,67.2-8.764a16.536,16.536,0,0,1-2.1-6.188c.2-.448.28-.616.448-1.064ZM53.4-10.808H56.98c1.008,0,1.54.028,2.212.056a15.441,15.441,0,0,1,1.9,2.268c.644-.784.868-1.064,1.26-1.624a22.378,22.378,0,0,0,2.24,5.1,15.634,15.634,0,0,1-3.976,2.8,16.484,16.484,0,0,0,.532-4.256A14.971,14.971,0,0,1,57.064-7.84v.672A12.719,12.719,0,0,1,56.84-4.2c-.2.532-.616.672-1.876.672-1.372,0-1.568-.112-1.568-1.008ZM80.584-21.616a19.372,19.372,0,0,1-2.884-.14v3.388a28.794,28.794,0,0,1,2.884-.112h6.832v.84H81.9c-1.624,0-2.156-.028-2.828-.084v2.856A22.257,22.257,0,0,1,81.9-14.98h5.516v.9H79.828a17.364,17.364,0,0,1-2.912-.14v3.416a24.437,24.437,0,0,1,2.912-.112h7.588v1.6H85.372c-.28-.56-.448-.9-.84-1.54L80.3-10.22c.2.252.224.308.448.56.2.252.2.252.252.336H79.8a22.964,22.964,0,0,1-2.912-.112v3.444a20.029,20.029,0,0,1,2.912-.14H99.568a20.03,20.03,0,0,1,2.912.14V-9.436a23.252,23.252,0,0,1-2.912.112h-1.2c.084-.112.084-.112.224-.308.252-.392.252-.392.392-.588l-4.172-.644a13.048,13.048,0,0,1-.924,1.54H91.7v-1.6h7.9a23.252,23.252,0,0,1,2.912.112v-3.416a17.788,17.788,0,0,1-2.912.14H91.7v-.9h5.824a22.543,22.543,0,0,1,2.828.112v-2.856c-.672.056-1.2.084-2.828.084H91.7v-.84h7.112a27.637,27.637,0,0,1,2.912.112v-3.388a19.334,19.334,0,0,1-2.912.14h-2.6c.476-.672.868-1.26,1.232-1.848l-4.564-.672a15.754,15.754,0,0,1-1.316,2.52H87.668a22.843,22.843,0,0,0-1.484-2.52l-4.508.56a14.649,14.649,0,0,1,1.344,1.96ZM83.832,2.548v-.84H95.48v.84h4.536A21.737,21.737,0,0,1,99.848-.5V-3.052a17.845,17.845,0,0,1,.112-2.324c-.728.056-1.372.084-2.632.084H82.068c-1.148,0-1.876-.028-2.632-.084a19.193,19.193,0,0,1,.112,2.436V-.532a22.749,22.749,0,0,1-.168,3.08Zm0-4.928H95.48v1.008H83.832Zm36.932-14.308c0-.28.028-.616.028-.98,0-1.12,0-1.12.028-2.184a21.436,21.436,0,0,1,.168-3.052h-5.376a22.688,22.688,0,0,1,.168,2.968v2.128c-.028.728-.028.728-.028,1.12h-6.16a21.91,21.91,0,0,1-4.144-.224v4.928c1.4-.112,2.044-.14,4.06-.14H115.5c-.084.924-.084.924-.14,1.344a8.777,8.777,0,0,1-1.176,3.528c-1.288,2.184-3.332,3.808-6.608,5.18a13.5,13.5,0,0,1,3.7,4.284A27,27,0,0,0,114.128.42a15.539,15.539,0,0,0,4.48-4.9c1.2-2.128,1.68-3.976,1.96-7.644h4.956a41.011,41.011,0,0,1,4.116.14v-4.928a23.486,23.486,0,0,1-4.2.224ZM153.412-18.2l2.044-.812a17.346,17.346,0,0,0-2.072-3.836l-2.744.924a17.412,17.412,0,0,1,1.54,2.828c-2.212,1.6-7.28,3.584-11.312,4.424v-3.78a22.927,22.927,0,0,1,.168-3.752H135.8a25.829,25.829,0,0,1,.168,3.724V-6.3a22.308,22.308,0,0,0,.112,2.968,4.138,4.138,0,0,0,1.568,3.024c1.288.9,3.22,1.232,7.056,1.232,2.24,0,5.376-.168,8.176-.42,1.512-.14,2.156-.2,2.884-.2l-.2-5.18a24.628,24.628,0,0,1-4.816.9c-1.68.168-3.864.28-5.432.28-2.268,0-3.668-.2-4.06-.532-.364-.364-.392-.588-.392-2.66v-3.136a50.978,50.978,0,0,0,13.328-4.34c.616-.308.616-.308,1.4-.672Zm.812-4.984a22.533,22.533,0,0,1,2.016,3.92l2.772-1.092a17.418,17.418,0,0,0-2.128-3.78Z" transform="translate(50 160)" fill="#fff"/>
  </g>
</svg>
