<svg xmlns="http://www.w3.org/2000/svg" width="198.658" height="54.524" viewBox="0 0 198.658 54.524">
  <g id="グループ_16135" data-name="グループ 16135" transform="translate(-30 -30.554)">
    <g id="グループ_16134" data-name="グループ 16134" transform="translate(0 -4)">
      <path id="パス_36859" data-name="パス 36859" d="M1.3-6.919H2.739v-.627h.836v.627H5.038v-.627h.968V-8.7H5.038v-.693H3.575V-8.7H2.739v-.693H1.3V-8.7H.451v1.155H1.3ZM2.024-5.1v-.605h.429V-5.1Zm2.321,0H3.916v-.605h.429ZM8.338-6.941c.011-.737.011-1.518.011-2.343H6.875v2.343H6.017v1.474h.825A9,9,0,0,1,5.874-.979L3.916-.814v-.33H5.742V-2.233H3.916v-.352H5.874V-3.718H3.916v-.341h1.87v-2.7H.671v2.7H2.453v.341H.572v1.133H2.453v.352H.737v1.089H2.453V-.7C1.661-.649.935-.605.33-.572L.484.737C1.87.627,3.773.462,5.588.286a4.048,4.048,0,0,1,.616.781C7.744-.363,8.173-2.5,8.294-5.467H9.02C8.965-2.145,8.877-.891,8.69-.616a.359.359,0,0,1-.352.209,6.949,6.949,0,0,1-.869-.044,3.871,3.871,0,0,1,.418,1.474A5.473,5.473,0,0,0,9.152.957a1.278,1.278,0,0,0,.869-.616c.33-.5.407-2.145.495-6.622,0-.176.011-.66.011-.66Zm2.948.55c1.947-.022,4.807-.077,7.535-.143a8.1,8.1,0,0,1,.814.825l1.221-1.023A13.616,13.616,0,0,0,17.9-8.976l-1.188.88c.143.088.275.176.418.264l-2.222.022c.319-.341.638-.693.946-1.056l-1.826-.539A10.109,10.109,0,0,1,12.936-7.8H11.187ZM11.924.814a4.838,4.838,0,0,0,1.562-2.5l-1.43-.506A3.917,3.917,0,0,1,10.6-.11Zm1.969-5.478H17.7v.77H13.893Zm1.76,4.18c-.44,0-.506-.033-.506-.352V-1.87a5.485,5.485,0,0,1,1.1.913L17.3-1.98a5.016,5.016,0,0,0-.825-.649h2.805V-5.918H12.408v3.289h2.3l-.319.3c.143.077.286.165.44.253H13.563V-.8c0,1.287.341,1.727,1.881,1.727H16.9c1.1,0,1.529-.33,1.705-1.65a4.364,4.364,0,0,1-1.4-.55c-.055.693-.121.792-.462.792Zm2.222-1.144A8.146,8.146,0,0,1,19.635.726l1.419-.8a8.164,8.164,0,0,0-1.87-2.277Zm10.725.9v.374H24.673V-.726Zm-.913-2.981v.363H24.673v-.363ZM24.673-2.222h4.609V-4.829H23.155v5.9h1.518V.8H28.6v.264h1.595V-1.87H24.673Zm6.644-6.457h-2.9c.077-.154.154-.308.22-.462l-1.518-.374a4.932,4.932,0,0,1-1.1,1.65v-.814H23.826c.077-.143.143-.286.209-.429L22.55-9.515A5.821,5.821,0,0,1,20.9-7.3a9.467,9.467,0,0,1,1.3.858,10.109,10.109,0,0,0,.858-.99h.011a6.066,6.066,0,0,1,.495,1.023l1.43-.407a4.164,4.164,0,0,0-.319-.616h.869a7.294,7.294,0,0,1,.792.385h-.968v.7H21.373v2.266h1.5V-5.17h6.666v1.089H31.1V-6.347H26.906V-6.71l.011.011a6.466,6.466,0,0,0,.693-.737h.506a6.843,6.843,0,0,1,.6,1.034l1.485-.4a5.694,5.694,0,0,0-.4-.638h1.507ZM35-2.629c-.33.11-.671.209-1,.319v-1.9h.924V-5.676H34V-7.359h1.122V-8.833H31.35v1.474h1.133v1.683H31.449v1.463h1.034v2.354c-.473.132-.9.253-1.265.341L31.57.11c1.1-.352,2.464-.792,3.707-1.221ZM36.9-5.72h.825v.671H36.9Zm0-1.9h.825v.66H36.9Zm2.9.66h-.748v-.66h.748Zm0,1.914h-.748V-5.72h.748ZM39.215-.737v-.792h2.211v-1.43H39.215v-.748h2.112V-8.965H35.464v5.258h2.112v.748H35.431v1.43h2.145v.792H34.705V.7h7.084V-.737Zm2.849-6.974L42.229-5.9a42.257,42.257,0,0,1,4.2-.616,4.489,4.489,0,0,0-1.4,3.212c0,2.343,2.1,3.674,4.554,3.861l.627-1.848c-1.9-.11-3.421-.748-3.421-2.365a3.054,3.054,0,0,1,2.211-2.86,13.873,13.873,0,0,1,2.112-.132L51.106-8.36c-.8.033-2.1.11-3.2.2-2.013.176-3.674.308-4.708.4C42.988-7.744,42.5-7.722,42.064-7.711ZM49.555-5.72l-.957.4a8.837,8.837,0,0,1,.836,1.507l.979-.429A14.579,14.579,0,0,0,49.555-5.72ZM50.8-6.248l-.946.429a9.212,9.212,0,0,1,.891,1.463l.968-.462C51.491-5.214,51.084-5.852,50.8-6.248Zm5.28-2.937C56-7.744,56.243-2.871,51.865-.33A5.328,5.328,0,0,1,53.229.957a9.723,9.723,0,0,0,3.894-5.17A8.7,8.7,0,0,0,61.358.946,4.7,4.7,0,0,1,62.59-.418c-4.081-1.936-4.609-6.457-4.7-8.041q.016-.412.033-.726ZM69.916-1.661H68.31v-.33h1.606ZM68.31-3.487h1.606v.3H68.31Zm-3-2.365v-.374h1.375v.374Zm4.4-.374v.374h-1.4v-.374ZM72.7-3.19H71.544V-4.543H68.31v-.33h3.036V-7.205H68.31v-.33h4.114V-8.778H68.31v-.627H66.682v.627H62.667v1.243h4.015v.33h-2.9v2.332h2.9v.33H63.536v1.056h3.146v.3h-4.29v1.2h4.29v.33H63.459V-.528h3.223V-.4c0,.187-.066.253-.275.264-.176,0-.825,0-1.276-.022a4.651,4.651,0,0,1,.517,1.232,5.469,5.469,0,0,0,2.024-.22c.473-.22.638-.528.638-1.254V-.528h1.606v.451h1.628V-1.991H72.7Zm3.729,1.254V-.814H74.756V-1.936ZM73.282,1.056h1.474V.561h1.672v.462h1.551V-3.311h-4.7Zm3.08-8.118a10.933,10.933,0,0,1-.374,1.518l.825.2H74.338l.913-.209a5.983,5.983,0,0,0-.418-1.507Zm.154,0h1.76V-8.437H76.384v-.869H74.833v.869H72.919v1.375h1.859L73.524-6.8a5.987,5.987,0,0,1,.33,1.452H72.71v1.441h5.7V-5.346H77.275c.165-.374.352-.891.572-1.441Zm5.445-1.782-.242.055H78.672V1.045h1.562V-7.293h.935c-.22.836-.517,1.914-.77,2.618a3.057,3.057,0,0,1,.946,2.123c0,.363-.066.572-.231.671a.659.659,0,0,1-.363.088,3.91,3.91,0,0,1-.5-.011,3.886,3.886,0,0,1,.385,1.562,6.28,6.28,0,0,0,.825-.033,1.694,1.694,0,0,0,.781-.308,1.957,1.957,0,0,0,.638-1.749,3.645,3.645,0,0,0-.935-2.53c.385-.9.825-2.167,1.188-3.256ZM86.4-7.733v.352h-1.3v-.352Zm-1.3,1.859v-.4h1.3v.4ZM87.9-9.009H83.523V1.045h1.584V-4.609H87.9Zm2.123,3.168V-6.27h1.353v.429Zm1.353-1.892v.352H90.024v-.352Zm1.617-1.276H88.506v4.433h2.871V-.847c0,.22-.088.3-.319.3s-1.1.011-1.76-.044a6.158,6.158,0,0,1,.561,1.639,5.877,5.877,0,0,0,2.42-.3c.539-.253.715-.693.715-1.573Zm10.384,5.126A4.312,4.312,0,0,0,98.8-8.316a5.017,5.017,0,0,0-5.192,4.84c0,1.881,1.034,3.355,2.4,3.355,1.3,0,2.288-1.474,2.937-3.674a21.892,21.892,0,0,0,.649-2.871,2.548,2.548,0,0,1,1.958,2.728A2.786,2.786,0,0,1,99.22-1.166a8.371,8.371,0,0,1-1.078.2L99.154.616C102.014.132,103.378-1.562,103.378-3.883Zm-8.041.231a3.28,3.28,0,0,1,2.442-2.97,16.328,16.328,0,0,1-.561,2.475c-.4,1.276-.726,1.947-1.166,1.947C95.667-2.2,95.337-2.7,95.337-3.652ZM104.346,0h2.464c2.387,0,4.037-1.287,4.037-4.136S109.2-8.2,106.7-8.2h-2.354Zm1.969-1.584V-6.622h.264c1.32,0,2.255.539,2.255,2.486s-.935,2.552-2.255,2.552ZM110.55,0h2.09l.7-1.6c.187-.429.374-.858.561-1.364h.044c.22.506.407.935.605,1.364l.759,1.6H117.5l-2.255-4.125,2.112-4.07H115.28l-.594,1.474c-.165.385-.341.814-.528,1.342h-.044c-.231-.528-.407-.957-.594-1.342L112.86-8.2h-2.189l2.123,3.982Zm11.935-8.9-1.76-.143a6.922,6.922,0,0,1-.187,1.2h-.429a14.481,14.481,0,0,1-1.98-.132v1.54c.583.055,1.386.077,1.837.077a10.422,10.422,0,0,1-2.354,2.838l1.419,1.067A12.137,12.137,0,0,1,120.054-3.7a2.6,2.6,0,0,1,1.617-.737.809.809,0,0,1,.605.231c-1.221.638-2.53,1.551-2.53,2.992,0,1.463,1.3,1.936,3.1,1.936a26.869,26.869,0,0,0,3.179-.2l.055-1.716a16.567,16.567,0,0,1-3.2.341c-1.034,0-1.375-.187-1.375-.649,0-.44.3-.8.99-1.21-.011.418-.033.825-.055,1.111h1.584c-.011-.5-.033-1.232-.044-1.837.583-.253,1.122-.462,1.54-.627s1.111-.418,1.5-.528l-.649-1.54c-.473.231-.924.44-1.408.649-.385.176-.748.319-1.188.528a1.591,1.591,0,0,0-1.463-.77,5.357,5.357,0,0,0-1.089.11,8.317,8.317,0,0,0,.429-.781c1.166-.044,2.519-.143,3.542-.275l.011-1.54a25.4,25.4,0,0,1-2.959.308C122.364-8.316,122.441-8.657,122.485-8.9Zm10.494,1.32H135.7v1.4h-2.717ZM135.256-2.2h2.189V-3.685h-2.189V-4.8H137.3V-8.965h-5.83V-4.8h2.178v3.608a2.553,2.553,0,0,1-.891-1.188c.088-.495.165-1.023.22-1.573L131.461-4.1A7.025,7.025,0,0,1,130.2-.055V-6.974c.286-.66.55-1.342.759-1.991l-1.474-.44A11.817,11.817,0,0,1,127.4-5.28a12.389,12.389,0,0,1,.748,1.76q.231-.28.462-.594V1.034H130.2v-.8a8,8,0,0,1,1.089.825,5.425,5.425,0,0,0,.957-1.617A3.807,3.807,0,0,0,135.619.792h2.013A5.336,5.336,0,0,1,138.1-.693c-.583.011-1.9.022-2.354.011-.165,0-.33,0-.495-.011Zm9.108-3.927h-1.155v-.451h1.155Zm0,1.738h-1.155v-.462h1.155Zm0,1.771h-1.155v-.5h1.155Zm-2.7,1.331h6.446V-2.618h-2.233v-.5h1.683V-4.389h-1.683v-.462h1.738V-6.127h-1.738v-.451h2.035V-7.909h-1.705c.176-.33.352-.693.528-1.045l-1.771-.308a10.765,10.765,0,0,1-.4,1.353h-.946q.247-.495.462-.99l-1.6-.462a7.653,7.653,0,0,1-2.376,3.256,10.461,10.461,0,0,1,1.166,1.276c.132-.11.253-.231.385-.363Zm-.7-6.116a9.723,9.723,0,0,0-1.716-1.716l-1.221.9a9.224,9.224,0,0,1,1.617,1.826ZM140.7-5.148h-2.673v1.474h1.144v2.156c-.429.319-.88.627-1.287.869l.737,1.6c.561-.473.99-.858,1.408-1.265A3.236,3.236,0,0,0,142.747.858c1.408.066,3.751.044,5.192-.033a7.316,7.316,0,0,1,.495-1.551,52.473,52.473,0,0,1-5.665.11A2.179,2.179,0,0,1,140.7-1.628Z" transform="translate(54 88)" fill="#111"/>
    </g>
    <g id="logo-amano" transform="translate(30 30.554)">
      <path id="パス_1" data-name="パス 1" d="M651.372,50.057,640.04,23.59s-.136-.27-.347-.27H626.9a.184.184,0,0,0-.206.178V27a.232.232,0,0,0,.259.254h1.534c1.009,0,1.314.56,1.073,1.355L620.4,49.671c-.321.765-.569,1.715-1.626,1.785,0,0-1.323.1-1.758.1-.5,0-.517.658-.517.658v2.816s-.017.208.264.208h13.477a.306.306,0,0,0,.3-.283V51.814a.382.382,0,0,0-.395-.374h-2.005a.965.965,0,0,1-.727-1.429l1.33-3.048a.553.553,0,0,1,.494-.331h10.65c.391-.013.443.231.443.231l1.4,3.114c.452,1.025-.21,1.474-1.112,1.474h-1.737a.246.246,0,0,0-.231.212v3.451s0,.127.165.127h16A.285.285,0,0,0,655.1,55l-.007-3.262s-.028-.232-.2-.232c-.124,0-1.309-.028-1.309-.028-1.513,0-1.714-.331-2.205-1.417m-19.978-9.005,2.859-6.618c.262-.633.426-.677.759-.044l2.9,6.784c.257.592.212.782-.948.735h-4.875c-.956,0-.965-.206-.7-.858" transform="translate(-616.502 -21.976)" fill="#0181c0"/>
      <path id="パス_2" data-name="パス 2" d="M723.9,50.033,712.57,23.75s-.134-.267-.351-.267c-.118,0-11.139-.009-12.787-.009a.186.186,0,0,0-.2.184l0,3.4a.23.23,0,0,0,.248.259h1.542c1.009,0,1.307.559,1.073,1.358l-9.07,20.968c-.329.767-.574,1.716-1.626,1.785,0,0-1.42.1-1.854.1-.5,0-.513.659-.513.659v3s-.021.214.26.214h13.481a.308.308,0,0,0,.3-.289V52.066a.385.385,0,0,0-.4-.373h-2a1.226,1.226,0,0,1-.726-1.708l1.333-2.861a.542.542,0,0,1,.5-.336c.343,0,9.211,0,10.651,0,.381-.012.431.233.431.233l1.407,2.93a1.164,1.164,0,0,1-1.112,1.749h-1.74c-.192,0-.224.212-.224.212V55.3s0,.125.164.125h15.992a.284.284,0,0,0,.279-.249V51.99s-.025-.236-.353-.236c-.125,0-1.166-.031-1.166-.031-1.508,0-1.713-.6-2.206-1.69m-20.186-8.784,3.072-6.84c.26-.634.426-.677.753-.044l2.907,6.784c.252.592.5.942-.954.849h-5.082c-.958,0-.969-.1-.7-.749" transform="translate(-605.292 -21.952)" fill="#0181c0"/>
      <path id="パス_3" data-name="パス 3" d="M671.586,39.238l-6.155-15.577a.676.676,0,0,0-.595-.344H652.4a.254.254,0,0,0-.255.259v3.4a.239.239,0,0,0,.233.231c.225,0,1.263.032,1.263.032,1.473,0,1.44.845,1.44,1.985V49.809c0,.652-.179,1.65-1.406,1.65h-1.307a.2.2,0,0,0-.223.211V55a.2.2,0,0,0,.214.249H664.27c.219,0,.219-.262.219-.262V51.683a.19.19,0,0,0-.208-.234h-1.339a1.32,1.32,0,0,1-1.5-1.337v-11.1c0-1.389.35-1.069.64-.331l6.548,16.4a.236.236,0,0,0,.246.164h4.341a.258.258,0,0,0,.223-.164L680.1,38.951c.38-1.062.72-1.179.72-.563V50.019c0,.592-.035,1.53-1.422,1.53h-1.4a.212.212,0,0,0-.231.256v3.351a.187.187,0,0,0,.193.218h14.1a.219.219,0,0,0,.212-.191V51.815s-.052-.224-.25-.224h-1c-1.974,0-1.911-1.018-1.911-1.614V28.95c0-1.548,1.216-1.645,1.873-1.645h1.036c.24,0,.216-.276.216-.276l.015-3.355s-.036-.282-.239-.282H680.1a.509.509,0,0,0-.457.233l-6.886,16.3c-.515,1.129-.679.494-1.168-.685" transform="translate(-610.994 -21.977)" fill="#0181c0"/>
      <path id="パス_4" data-name="パス 4" d="M735.195,35.253l12.848,20.371h10.228V29.646c0-1.141-.246-2.093,1.51-2.093,0,0,.931-.044,1.174-.044a.207.207,0,0,0,.224-.189v-3.4s-.035-.267-.217-.267H748.809c-.224,0-.189.238-.189.238v3.421s-.034.2.2.2h1.434c1.247,0,1.47.918,1.47,1.612,0,0,.032,15.33.032,15.5s-.241.4-.471.051C751.032,44.28,739.2,25.706,738,23.794a.367.367,0,0,0-.326-.223H725.117a.247.247,0,0,0-.257.291V27.24a.212.212,0,0,0,.217.175h1.386c.92,0,1.417.212,1.417,2.009V50.093c0,.738-.122,1.609-1.592,1.609,0,0-1.1.009-1.348.009s-.224.275-.224.275V55.2s0,.275.228.275h12.079a.255.255,0,0,0,.265-.275v-3.16a.237.237,0,0,0-.234-.218c-.206,0-1.395-.114-1.395-.114-1.576,0-1.436-.95-1.436-1.666V35.017c-.024-.806.294-.977.972.236" transform="translate(-599.778 -21.937)" fill="#0181c0"/>
      <path id="パス_5" data-name="パス 5" d="M757.553,39.859c0-10.045,7.309-17.7,17.866-17.7A17.719,17.719,0,0,1,793.36,39.965c0,10.048-6.662,18.191-17.942,18.191-9.947,0-17.866-7.5-17.866-18.3m17.866,13.5c6.753,0,8.594-6,8.594-13.39s-2.568-12.929-8.594-12.929c-6.539,0-8.4,5.534-8.4,12.929s2.3,13.39,8.4,13.39" transform="translate(-594.703 -22.156)" fill="#0181c0"/>
    </g>
  </g>
</svg>
