<svg xmlns="http://www.w3.org/2000/svg" xmlns:xlink="http://www.w3.org/1999/xlink" width="230" height="140" viewBox="0 0 230 140">
  <defs>
    <clipPath id="clip-path">
      <rect id="Rectangle_13531" data-name="Rectangle 13531" width="230" height="140" transform="translate(350 419)" fill="#fff"/>
    </clipPath>
  </defs>
  <g id="Group_21355" data-name="Group 21355" transform="translate(-350 -419)">
    <rect id="Rectangle_13504" data-name="Rectangle 13504" width="230" height="140" transform="translate(350 419)" fill="#fff"/>
    <g id="Mask_Group_143" data-name="Mask Group 143" clip-path="url(#clip-path)">
      <g id="Group_20400" data-name="Group 20400" transform="translate(357.607 210.527)">
        <g id="Group_20408" data-name="Group 20408" transform="translate(15.064 226.271)">
          <g id="Group_20402" data-name="Group 20402" transform="translate(26.113 27.643)">
            <g id="Group_20401" data-name="Group 20401" transform="translate(0.516 1.27)">
              <g id="Group_20400-2" data-name="Group 20400">
                <path id="Path_35156" data-name="Path 35156" d="M101.948,299.137a1.779,1.779,0,0,1-1.946,1.74,42.356,42.356,0,0,1-8.851-1.693,67.221,67.221,0,0,1-8.346-3.132c-.67-.314-1.356-.607-2.017-.94l-1.99-.992-1.959-1.05c-.657-.346-1.285-.731-1.93-1.1l-.963-.556-.945-.58c-.628-.39-1.263-.773-1.886-1.171-1.228-.817-2.484-1.609-3.681-2.471a160.665,160.665,0,0,1-26.29-23.534,6.5,6.5,0,0,1-.794-1.111,6.18,6.18,0,0,1-.5-1.224,6.424,6.424,0,0,1-.213-2.566,6.53,6.53,0,0,1,2.6-4.459h0a6.945,6.945,0,0,1,4.992-1.354,6.238,6.238,0,0,1,2.359.776,6.082,6.082,0,0,1,1.01.734,5.671,5.671,0,0,1,.867.945A150.041,150.041,0,0,0,72.75,280.558c.993.951,2.039,1.828,3.066,2.741.521.445,1.052.874,1.579,1.313l.793.655.81.63c.543.414,1.074.852,1.627,1.25l1.658,1.21,1.69,1.157c.562.391,1.145.739,1.719,1.113a61.789,61.789,0,0,0,7.176,3.9,38.181,38.181,0,0,0,7.62,2.6,1.992,1.992,0,0,1,1.461,2.018Z" transform="translate(-39.59 -252.9)" fill="#d3657d"/>
              </g>
            </g>
            <path id="Path_35157" data-name="Path 35157" d="M53.654,280.425,41.831,267.661c-3.576-3.861-3.715-9.751.145-13.327h0a9.975,9.975,0,0,1,13.835.378l11.822,12.764Z" transform="translate(-39.115 -251.731)" fill="#004999"/>
          </g>
          <path id="Path_35158" data-name="Path 35158" d="M52.7,416.671H72.758a3.092,3.092,0,0,0-.563-1.879,3.18,3.18,0,0,0-2.011-1.071,19.359,19.359,0,0,0-2.328-.135,12.333,12.333,0,0,1-5.442-1.576,18.421,18.421,0,0,0-2.612-1.426l-5.467.142a6.272,6.272,0,0,0-1.461,2.948A11.031,11.031,0,0,0,52.7,416.671Z" transform="translate(-11.84 -210.47)" fill="#0e1f40"/>
          <path id="Path_35159" data-name="Path 35159" d="M52.79,405.32l1.535,5.91,5.466-.143-.321-6.351Z" transform="translate(-11.83 -210.972)" fill="#eaaab8"/>
          <path id="Path_35160" data-name="Path 35160" d="M64.543,363.087a49.816,49.816,0,0,0-1.014-11.359c-2.66-12.876-7.445-37.676-7.445-37.679-.742-5.344-5.183-6.908-10.527-6.167-3.105.431-30.518,4.4-30.493,4.681l4.6,100.906,8.113-.278,8.694-77.865,13.338,24.456.01.029,5.647,53.868,7.793-.533Z" transform="translate(-15.064 -219.289)" fill="#004999"/>
          <path id="Path_35161" data-name="Path 35161" d="M19.012,416.672H39.069a3.087,3.087,0,0,0-.563-1.879,3.179,3.179,0,0,0-2.011-1.07,19.339,19.339,0,0,0-2.328-.135,12.318,12.318,0,0,1-5.442-1.576,18.534,18.534,0,0,0-2.612-1.426l-5.467.143a6.26,6.26,0,0,0-1.46,2.948A11.032,11.032,0,0,0,19.012,416.672Z" transform="translate(-14.728 -210.471)" fill="#0e1f40"/>
          <path id="Path_35162" data-name="Path 35162" d="M19.913,405.117l.653,6.1,5.466-.143.848-6.2Z" transform="translate(-14.648 -210.96)" fill="#eaaab8"/>
          <path id="Path_35163" data-name="Path 35163" d="M45.994,250.01h0a18.779,18.779,0,0,1,17.9,21.077l-6.333,51.3c-18.429,6.183-27.862,2.117-42.5-4.873l7.277-48.025A23.029,23.029,0,0,1,45.994,250.01Z" transform="translate(-15.064 -224.237)" fill="#6890cb"/>
          <path id="Path_35164" data-name="Path 35164" d="M67.026,307.878,97.61,311.8l17.666-38-30.584-3.926Z" transform="translate(-10.61 -222.533)" fill="#b9d9f2"/>
          <path id="Path_35165" data-name="Path 35165" d="M38.224,325.992l7.592-48.109a27.258,27.258,0,0,0-2.609-16.374l-3.276-6.524,6.113-3.069,3.277,6.524a34.066,34.066,0,0,1,3.26,20.46l-7.04,46.075Z" transform="translate(-13.079 -224.072)" fill="#004999"/>
          <path id="Path_35166" data-name="Path 35166" d="M50.031,245.366l-2.094,13.2a7.408,7.408,0,0,1-8.6-1.365L41.432,244Z" transform="translate(-12.983 -224.751)" fill="#eaaab8"/>
          <path id="Path_35167" data-name="Path 35167" d="M49.91,245.366l-.947,5.969a7.042,7.042,0,0,1-2,.136c-.219-.017-.438-.042-.654-.077a7.833,7.833,0,0,1-5.565-3.851L41.311,244Z" transform="translate(-12.862 -224.751)" fill="#d3657d"/>
          <path id="Path_35168" data-name="Path 35168" d="M55.208,238.851l-1.27,7.744a6.2,6.2,0,0,1-6.378,5.194h0a6.9,6.9,0,0,1-6.266-4.657,52.582,52.582,0,0,1-1.545-5.981,9.444,9.444,0,0,1,3.183-9.258,7.606,7.606,0,0,1,12.275,6.957Z" transform="translate(-12.966 -225.935)" fill="#eaaab8"/>
          <g id="Group_20403" data-name="Group 20403" transform="translate(24.724 0.501)">
            <path id="Path_35169" data-name="Path 35169" d="M52.883,235.023a14.659,14.659,0,0,1,.66,7.5,23.582,23.582,0,0,0,.87-8.579Z" transform="translate(-36.546 -226.114)" fill="#0e1f40"/>
            <path id="Path_35170" data-name="Path 35170" d="M39.689,241.575s-4.4-6.982.358-11.5c5.127-4.874,6.292-3.3,9.588-2.142,4.169,1.464,4.474,7.367,6.127,7.134.884-.124-4.586,2.353-7.609.494s-4.522-1.76-5.977.085c-1.544,1.958.094,5.842.094,5.842l-.991.281S40.366,238.953,39.689,241.575Z" transform="translate(-37.836 -226.732)" fill="#0e1f40"/>
          </g>
          <path id="Path_35171" data-name="Path 35171" d="M43.367,240.287A3.284,3.284,0,1,1,40.491,237,3.1,3.1,0,0,1,43.367,240.287Z" transform="translate(-13.194 -225.353)" fill="#eaaab8"/>
          <g id="Group_20404" data-name="Group 20404" transform="translate(22.944 28.099)">
            <path id="Path_35172" data-name="Path 35172" d="M49.082,264.735l-1.018-7.391.856-2.638,6.324,5.2-4.239.569L49.422,265.2l-6.6-2.9-5.45,3.051L36.2,256.245l3.055-4.094Z" transform="translate(-36.196 -252.151)" fill="#004999"/>
          </g>
          <g id="Group_20407" data-name="Group 20407" transform="translate(11.578 36.187)">
            <g id="Group_20406" data-name="Group 20406" transform="translate(0.516 1.27)">
              <g id="Group_20405" data-name="Group 20405">
                <path id="Path_35173" data-name="Path 35173" d="M88.56,307.007a1.777,1.777,0,0,1-1.945,1.74,42.364,42.364,0,0,1-8.851-1.693,67.2,67.2,0,0,1-8.346-3.132c-.671-.314-1.357-.608-2.017-.94l-1.991-.992-1.958-1.05c-.657-.346-1.287-.731-1.931-1.1l-.963-.556-.945-.581c-.628-.39-1.263-.773-1.886-1.17-1.227-.818-2.484-1.609-3.68-2.472a160.56,160.56,0,0,1-26.29-23.533,6.452,6.452,0,0,1-.794-1.112,6.021,6.021,0,0,1-.5-1.223,6.45,6.45,0,0,1-.214-2.567,6.536,6.536,0,0,1,2.6-4.459h0a6.943,6.943,0,0,1,4.992-1.353,6.209,6.209,0,0,1,2.358.776,5.97,5.97,0,0,1,1.011.734,5.766,5.766,0,0,1,.867.945,149.886,149.886,0,0,0,21.283,25.153c.993.952,2.038,1.829,3.065,2.743.521.444,1.052.874,1.579,1.313l.794.655.809.629c.543.415,1.075.852,1.629,1.251l1.657,1.208,1.69,1.159c.563.39,1.147.739,1.72,1.112a61.622,61.622,0,0,0,7.174,3.9,38.273,38.273,0,0,0,7.62,2.6,1.989,1.989,0,0,1,1.461,2.018Z" transform="translate(-26.203 -260.77)" fill="#e8a9b6"/>
              </g>
            </g>
            <path id="Path_35174" data-name="Path 35174" d="M40.266,288.294,28.443,275.531c-3.575-3.861-3.715-9.752.145-13.327h0a9.977,9.977,0,0,1,13.836.377l11.822,12.764Z" transform="translate(-25.728 -259.6)" fill="#004999"/>
          </g>
          <g id="Flat" transform="translate(24.613)">
            <path id="Path_35175" data-name="Path 35175" d="M60.007,235.52a1.491,1.491,0,0,1-1.056.237l-8.483-1.29,1.5-1.461,6.6-.5a1.993,1.993,0,0,1,1.943,1.122h0a1.492,1.492,0,0,1-.512,1.888Z" transform="translate(-36.642 -225.736)" fill="#6992cb"/>
            <path id="Path_35176" data-name="Path 35176" d="M42.88,235.951l1.276.066,5.338.28a6,6,0,0,0,4.623-1.813,6,6,0,0,1,3.545-1.773l1.565-.2-3.7.092h0l-1.569.038a13.44,13.44,0,0,0-4.3.82Z" transform="translate(-37.293 -225.736)" fill="#004999"/>
            <path id="Path_35177" data-name="Path 35177" d="M38.041,238.425l12.057-4.43a13.411,13.411,0,0,1,4.3-.819l1.569-.039-.641-1.438a9.15,9.15,0,0,0-9.952-5.289l-.08.014a9.149,9.149,0,0,0-2.937,1.061h0a9.15,9.15,0,0,0-4.546,9.11Z" transform="translate(-37.734 -226.271)" fill="#edeeee"/>
            <path id="Path_35178" data-name="Path 35178" d="M44.034,226.583a8.474,8.474,0,0,1,8.495,4.992l.725,1.63c.2-.014.4-.024.6-.029l1.569-.038-.641-1.436a9.15,9.15,0,0,0-9.953-5.29l-.078.014c-.242.042-.482.094-.718.157Z" transform="translate(-37.194 -226.271)" fill="#6992cb"/>
            <path id="Path_35179" data-name="Path 35179" d="M39.971,233.341l.7,3.988,4.817-1.769-1.768-3.852a8.212,8.212,0,0,1-.644-4.736,8.891,8.891,0,0,0-.911.454c-.089.051-.178.1-.265.157h0A6.341,6.341,0,0,0,39.971,233.341Z" transform="translate(-37.55 -226.21)" fill="#6992cb"/>
            <path id="Path_35180" data-name="Path 35180" d="M40.154,233.293a6.341,6.341,0,0,1,1.935-5.758,9.148,9.148,0,0,0-4.281,8.953l.233,1.828,2.817-1.036Z" transform="translate(-37.734 -226.162)" fill="#6992cb"/>
          </g>
        </g>
        <g id="Group_20409" data-name="Group 20409" transform="translate(51.357 348.276)">
          <path id="Path_35181" data-name="Path 35181" d="M102.363,422.84h5.9l-11.339-84.2H83.552Z" transform="translate(-45.486 -338.643)" fill="#0f1f40"/>
          <path id="Path_35182" data-name="Path 35182" d="M54.39,422.84h-5.9l11.339-84.2H73.2Z" transform="translate(-48.491 -338.643)" fill="#0f1f40"/>
        </g>
        <g id="Group_20411" data-name="Group 20411" transform="translate(89.487 306.326)">
          <path id="Path_35183" data-name="Path 35183" d="M83.786,315.928a1.9,1.9,0,0,1,2.459-.8c1.171.506,2.372.987,3.534,1.452l.851.341c.471.187.943.364,1.417.541l.789.3,1.1.414,1.11.388c.265.089.529.182.793.276.466.165.948.336,1.426.482l2.224.707,2.235.634c.472.136.958.252,1.426.365.27.065.541.13.807.2a50.21,50.21,0,0,0,8.906,1.343,33.884,33.884,0,0,0,8.611-.6c5.008-1.03,10-3.332,15.716-7.236,2.233-1.524,4.625-3.318,7.312-5.485,2.144-1.743,4.411-3.662,7.136-6.041a6.914,6.914,0,0,1,5.087-1.656,5.791,5.791,0,0,1,4.02,2.109,5.687,5.687,0,0,1,1.176,4.372,6.96,6.96,0,0,1-2.867,4.66c-3.1,2.156-5.685,3.9-8.136,5.475-3.207,2.049-5.946,3.664-8.622,5.086a66.355,66.355,0,0,1-9.414,4.176c-.3.1-.6.2-.895.3a43.53,43.53,0,0,1-9.412,1.988,41.063,41.063,0,0,1-10.463-.42,56.592,56.592,0,0,1-9.786-2.593c-.269-.1-.541-.2-.811-.3-.5-.18-1.016-.368-1.515-.571l-2.288-.932-2.241-.995c-.488-.212-.972-.445-1.44-.671-.257-.125-.515-.249-.774-.37l-1.1-.527-1.085-.55-.761-.387c-.469-.237-.938-.474-1.4-.72l-.793-.424c-1.14-.609-2.319-1.239-3.458-1.888A1.876,1.876,0,0,1,83.786,315.928Z" transform="translate(-83.61 -299.876)" fill="#d3657d"/>
          <g id="Group_20410" data-name="Group 20410" transform="translate(51.883)">
            <path id="Path_35184" data-name="Path 35184" d="M141.895,325.47l12.914-9.584a8.645,8.645,0,0,0,2.138-12.132l-.314-.189a8.807,8.807,0,0,0-12.321-1.825L131.4,311.324Z" transform="translate(-131.397 -300.005)" fill="#004999"/>
          </g>
        </g>
        <g id="Group_20413" data-name="Group 20413" transform="translate(135.731 313.201)">
          <path id="Path_35185" data-name="Path 35185" d="M132.943,360.258H168.02v13.478H132.943a6.739,6.739,0,0,1,0-13.478Z" transform="translate(-126.204 -301.715)" fill="#6890cb"/>
          <path id="Path_35186" data-name="Path 35186" d="M164.189,360.258h23.328V365.1a8.64,8.64,0,0,1-8.64,8.64H164.189a6.739,6.739,0,0,1,0-13.478Z" transform="translate(-123.525 -301.715)" fill="#6890cb"/>
          <path id="Path_35187" data-name="Path 35187" d="M182.4,306.337a5.745,5.745,0,0,1,5.746,5.746v52.8H150.13V306.337Z" transform="translate(-124.153 -306.337)" fill="#6890cb"/>
          <rect id="Rectangle_13526" data-name="Rectangle 13526" width="4.608" height="42.52" transform="translate(37.439 114.541) rotate(180)" fill="#0e1f40"/>
          <g id="Group_20412" data-name="Group 20412" transform="translate(15.957 101.649)">
            <rect id="Rectangle_13527" data-name="Rectangle 13527" width="4.608" height="21.461" transform="translate(38.356 10.73) rotate(120)" fill="#0e1f40"/>
            <rect id="Rectangle_13528" data-name="Rectangle 13528" width="4.608" height="21.461" transform="translate(18.585 0) rotate(60)" fill="#0e1f40"/>
          </g>
          <circle id="Ellipse_801" data-name="Ellipse 801" cx="4.723" cy="4.723" r="4.723" transform="translate(30.412 109.818)" fill="#0e1f40"/>
          <circle id="Ellipse_802" data-name="Ellipse 802" cx="4.723" cy="4.723" r="4.723" transform="translate(12.098 109.818)" fill="#0e1f40"/>
          <circle id="Ellipse_803" data-name="Ellipse 803" cx="4.723" cy="4.723" r="4.723" transform="translate(48.726 109.818)" fill="#0e1f40"/>
          <path id="Rectangle_13529" data-name="Rectangle 13529" d="M0,0H38.015a0,0,0,0,1,0,0V58.544a0,0,0,0,1,0,0H2.723A2.723,2.723,0,0,1,0,55.82V0A0,0,0,0,1,0,0Z" transform="translate(55.697 58.544) rotate(180)" fill="#0e1f40"/>
        </g>
        <path id="Path_35188" data-name="Path 35188" d="M116.515,416.608,99.153,416.6a2.679,2.679,0,0,1,.489-1.628,2.751,2.751,0,0,1,1.742-.925,16.839,16.839,0,0,1,2.015-.116,10.651,10.651,0,0,0,4.71-1.362,15.822,15.822,0,0,1,2.263-1.233l4.733.126a5.429,5.429,0,0,1,1.263,2.553A9.556,9.556,0,0,1,116.515,416.608Z" transform="translate(7.208 15.864)" fill="#0e1f40"/>
        <path id="Path_35189" data-name="Path 35189" d="M160.451,355.415a8.456,8.456,0,0,0-10.5-5.712l-.01,0-34.609,8.249c-.127.025-.252.059-.377.09l-.226.054h0a6.459,6.459,0,0,0-4.592,5.548v.011c-.02.2-.028.4-.029.607v.049h0l-1.652,53.168,6.057-.03,7.637-47.385,29.917-3.805a8.442,8.442,0,0,0,2.668-.339h.01A8.456,8.456,0,0,0,160.451,355.415Z" transform="translate(8.005 10.551)" fill="#004999"/>
        <path id="Path_35190" data-name="Path 35190" d="M134.171,416.6l-17.361,0a2.676,2.676,0,0,1,.487-1.628,2.75,2.75,0,0,1,1.74-.926,16.84,16.84,0,0,1,2.015-.117,10.654,10.654,0,0,0,4.71-1.365,15.929,15.929,0,0,1,2.262-1.234l4.732.124a5.417,5.417,0,0,1,1.265,2.551A9.558,9.558,0,0,1,134.171,416.6Z" transform="translate(8.722 15.864)" fill="#0e1f40"/>
        <path id="Path_35191" data-name="Path 35191" d="M132.448,417.043h-6.007l2.948-53.643v-.049c.007-.2.021-.407.045-.606v-.011a6.469,6.469,0,0,1,4.3-5.312l.071-.02c.164-.054.33-.1.5-.142L168.55,347.5l.01,0a8.456,8.456,0,0,1,9.434,13.172c-1.971,2.55-5.091,3.269-8.107,3.757-1.384.224-2.768.455-4.151.682l-6.068,1-6.725,1.1-6.121,1-4.257.7a7.816,7.816,0,0,0-1.215.2Z" transform="translate(9.548 10.352)" fill="#004999"/>
        <path id="Path_35192" data-name="Path 35192" d="M158.12,298.483h0a16.256,16.256,0,0,0-17.386,16.456l.6,40.522c10.022,7.911,27.951,9.89,37.2,3.955l-1.891-41.952A19.935,19.935,0,0,0,158.12,298.483Z" transform="translate(10.773 6.187)" fill="#6992cb"/>
        <g id="Group_20414" data-name="Group 20414" transform="translate(43.579 343.319)">
          <rect id="Rectangle_13530" data-name="Rectangle 13530" width="144.649" height="4.957" transform="translate(0 0)" fill="#0f1f40"/>
          <path id="Path_35193" data-name="Path 35193" d="M162.921,422.832h5.9l-11.339-84.189H144.11Z" transform="translate(-32.517 -333.686)" fill="#0f1f40"/>
          <path id="Path_35194" data-name="Path 35194" d="M114.948,422.832h-5.9l11.339-84.189h13.371Z" transform="translate(-35.522 -333.686)" fill="#0f1f40"/>
        </g>
        <path id="Path_35195" data-name="Path 35195" d="M165.26,306.263c4.254-3.165-7.9-14.715-12.047-6.825S165.26,306.263,165.26,306.263Z" transform="translate(11.784 6.04)" fill="#004999"/>
        <g id="Group_20416" data-name="Group 20416" transform="translate(160.619 305.478)">
          <g id="Group_20415" data-name="Group 20415">
            <path id="Path_35196" data-name="Path 35196" d="M165.552,306.049l-10.529,5.9.4-5.4-6.3,1.284,4.378-8.608a16.97,16.97,0,0,1,1.852.342l.328.4,6.506-.744.635,4.143A21.735,21.735,0,0,1,165.552,306.049Z" transform="translate(-149.127 -299.224)" fill="#004999"/>
          </g>
        </g>
        <g id="Group_20417" data-name="Group 20417" transform="translate(161.888 281.635)">
          <path id="Path_35197" data-name="Path 35197" d="M153.978,291.715l.144,13.175a7.306,7.306,0,0,0,8.586-.093l-.144-13.176Z" transform="translate(-149.98 -276.033)" fill="#eaaab8"/>
          <path id="Path_35198" data-name="Path 35198" d="M153.978,291.715l.066,5.959a6.973,6.973,0,0,0,1.926.42c.217.014.433.021.649.018a7.723,7.723,0,0,0,5.982-2.956l-.038-3.536Z" transform="translate(-149.98 -276.033)" fill="#d3657d"/>
          <path id="Path_35199" data-name="Path 35199" d="M150.3,284.929l.269,5.5.11,2.228a6.115,6.115,0,0,0,5.664,5.8,6.878,6.878,0,0,0,2.94-.43c.213-.082.421-.174.623-.274.126-.062.25-.127.371-.2a6.717,6.717,0,0,0,2.726-2.962c.5-1.072.976-2.252,1.427-3.5.259-.712.511-1.445.756-2.191a9.3,9.3,0,0,0-2.082-9.424,7.5,7.5,0,0,0-12.8,5.443Z" transform="translate(-150.296 -277.264)" fill="#eaaab8"/>
        </g>
        <g id="Group_20418" data-name="Group 20418" transform="translate(161.561 277.97)">
          <path id="Path_35200" data-name="Path 35200" d="M166.846,287.382c2.146-6.725-1.3-7.876-1.3-7.876.7-2.152-1.255-3.618-4.043-4.974-1-.486-3.4-1.382-7.285.494-1.048.506-4.765,3.845-3.4,5.534,1.24,1.533,3.452,1.971,5.3,2.191.611.074,1.226.123,1.839.17a4.939,4.939,0,0,0,4.6-2.382c-.724.719-1.046,3.043-.422,4.5s.024,4.069.024,4.069l.225-.035C163.824,286.921,165.412,286.159,166.846,287.382Z" transform="translate(-149.949 -273.888)" fill="#0e1f40"/>
          <path id="Path_35201" data-name="Path 35201" d="M151.539,281.375a25.477,25.477,0,0,0-1.037,6.789s-1.075-4.506-.1-7.663Z" transform="translate(-149.994 -273.321)" fill="#0e1f40"/>
        </g>
        <ellipse id="Ellipse_804" data-name="Ellipse 804" cx="3.217" cy="2.863" rx="3.217" ry="2.863" transform="translate(172.521 290.327) rotate(-0.628)" fill="#eaaab8"/>
        <g id="Group_20419" data-name="Group 20419" transform="translate(110.09 308.829)">
          <path id="Path_35202" data-name="Path 35202" d="M105.083,323.429c1.211.4,2.449.775,3.648,1.137l.877.265c.487.146.977.281,1.467.416.268.075.536.149.8.225l1.133.316,1.139.288q.406.1.809.2c.48.124.976.251,1.468.356l2.277.509,2.282.434c.484.094.978.168,1.456.24.274.04.547.081.818.126a50.187,50.187,0,0,0,8.99.556,33.928,33.928,0,0,0,8.525-1.352c4.9-1.468,9.671-4.2,15.019-8.589,2.091-1.713,4.316-3.711,6.8-6.105,1.979-1.922,4.069-4.032,6.578-6.646a6.914,6.914,0,0,1,4.922-2.1,5.788,5.788,0,0,1,4.19,1.749,5.677,5.677,0,0,1,1.555,4.251,6.959,6.959,0,0,1-2.446,4.9c-2.91,2.429-5.332,4.389-7.624,6.168-3.015,2.321-5.6,4.171-8.142,5.823a66.323,66.323,0,0,1-9.012,4.987,44.075,44.075,0,0,1-10.066,3.185,41.128,41.128,0,0,1-10.459.5,56.581,56.581,0,0,1-9.977-1.723c-.276-.076-.553-.15-.829-.224-.516-.137-1.048-.278-1.563-.438l-2.36-.726-2.319-.794-.035-.012c-.493-.165-.984-.351-1.458-.531-.267-.1-.535-.2-.8-.3L111.6,330.1l-1.128-.453c-.264-.108-.528-.213-.791-.319-.489-.194-.976-.39-1.46-.594l-.824-.352c-1.19-.507-2.421-1.031-3.613-1.579a1.876,1.876,0,0,1-1.082-2.353A1.9,1.9,0,0,1,105.083,323.429Z" transform="translate(-102.587 -302.191)" fill="#e8a9b6"/>
          <path id="Path_35203" data-name="Path 35203" d="M161.085,328.281,173.279,317.8a8.645,8.645,0,0,0,1.262-12.255l-.326-.166a8.807,8.807,0,0,0-12.421-.937L149.6,314.925Z" transform="translate(-98.557 -302.311)" fill="#004999"/>
        </g>
        <path id="Path_35204" data-name="Path 35204" d="M158.229,290.91c.061.008.124.013.189.017a2.331,2.331,0,0,0,2.732-1.831c.417-1.218.5-1.65.8-1.721.22-.052.315-.325.362-.651s.041-.363-.279-.553a11.107,11.107,0,0,0-2.858-.643l-.058.337a4.105,4.105,0,0,1,1.942.566c.5.507.009,2.495-.624,3.418a2.254,2.254,0,0,1-2.152.745Zm-2.516-5.257c-.388-.051-1.886-.825-2.992-1.116-.078-.021-.16-.041-.243-.06l-.059.338c.907.193,1.815.581,2.05,1.192.385,1-.929,3.1-1.873,3.459a2.061,2.061,0,0,1-1.011.08l-.055.317a2.484,2.484,0,0,0,2.525-1.308c.478-.73.579-1.825,1.445-1.689s.582,1.181.767,2.016a2.29,2.29,0,0,0,1.962,2.028l.054-.316a2.015,2.015,0,0,1-.989-.392c-.759-.63-1.239-3-.509-3.831a2.9,2.9,0,0,1,2.332-.5l.058-.337c-.069-.007-.139-.012-.206-.015C157.939,285.458,156.629,285.771,155.714,285.653Zm-3.235-1.176a11.34,11.34,0,0,0-2.885-.254c-.371.082-.388.116-.465.439s-.084.608.1.723c.258.157.179.592.13,1.866a2.17,2.17,0,0,0,1.911,2.557c.087.024.173.04.257.055l.055-.317a2.135,2.135,0,0,1-1.824-1.368c-.262-1.063,0-3.086.655-3.413a4.143,4.143,0,0,1,2,.05Z" transform="translate(11.488 4.966)" fill="#0f1f40" fill-rule="evenodd"/>
        <g id="Flat-2" data-name="Flat" transform="translate(155.869 277.597)">
          <path id="Path_35205" data-name="Path 35205" d="M145.4,282.578a1.454,1.454,0,0,0,1.033.231l8.285-1.259-1.469-1.428-6.451-.483a1.946,1.946,0,0,0-1.9,1.1h0a1.458,1.458,0,0,0,.5,1.844Z" transform="translate(-144.752 -273.022)" fill="#ed816a"/>
          <path id="Path_35206" data-name="Path 35206" d="M162.6,283l-1.246.065-5.214.274a5.861,5.861,0,0,1-4.516-1.772,5.874,5.874,0,0,0-3.462-1.732l-1.53-.2,3.618.089h0l1.532.037a13.126,13.126,0,0,1,4.2.8Z" transform="translate(-144.59 -273.022)" fill="#c13c33"/>
          <path id="Path_35207" data-name="Path 35207" d="M167.472,285.416,155.7,281.089a13.127,13.127,0,0,0-4.2-.8l-1.532-.038.624-1.4a8.937,8.937,0,0,1,9.722-5.166l.077.013a8.923,8.923,0,0,1,2.87,1.037h0a8.937,8.937,0,0,1,4.441,8.9Z" transform="translate(-144.305 -273.544)" fill="#edeeee"/>
          <path id="Path_35208" data-name="Path 35208" d="M161.091,273.849a8.275,8.275,0,0,0-8.3,4.877l-.709,1.591c-.194-.014-.39-.023-.586-.028l-1.532-.037.624-1.4a8.937,8.937,0,0,1,9.722-5.166l.077.013q.355.063.7.154Z" transform="translate(-144.305 -273.544)" fill="#ed816a"/>
          <path id="Path_35209" data-name="Path 35209" d="M164.615,280.45l-.688,3.9-4.706-1.728,1.726-3.762a8.021,8.021,0,0,0,.629-4.626,8.71,8.71,0,0,1,.89.444c.087.05.174.1.258.153h0A6.2,6.2,0,0,1,164.615,280.45Z" transform="translate(-143.511 -273.486)" fill="#ed816a"/>
          <path id="Path_35210" data-name="Path 35210" d="M164.338,280.4a6.2,6.2,0,0,0-1.89-5.624,8.938,8.938,0,0,1,4.182,8.746l-.228,1.786L163.65,284.3Z" transform="translate(-143.235 -273.439)" fill="#ed816a"/>
        </g>
      </g>
    </g>
  </g>
</svg>
