<svg xmlns="http://www.w3.org/2000/svg" xmlns:xlink="http://www.w3.org/1999/xlink" width="230" height="140" viewBox="0 0 230 140">
  <defs>
    <clipPath id="clip-path">
      <rect id="長方形_14060" data-name="長方形 14060" width="230" height="140" transform="translate(1010 419)" fill="#fff"/>
    </clipPath>
  </defs>
  <g id="マスクグループ_151" data-name="マスクグループ 151" transform="translate(-1010 -419)" clip-path="url(#clip-path)">
    <g id="グループ_21673" data-name="グループ 21673" transform="translate(943.268 -407.425)">
      <g id="グループ_21662" data-name="グループ 21662" transform="translate(84.371 836.333)">
        <path id="パス_36755" data-name="パス 36755" d="M425.88,1107.583h0a2.358,2.358,0,0,0-.319.04,56.146,56.146,0,0,1-6.311-.657s1.515,6.379,2.346,6.624c2.253.664,4.15,2.651,6.043,3.108a2.328,2.328,0,0,0,2.837-1.817h0a2.326,2.326,0,0,0,.081-.421h0a2.3,2.3,0,0,0-.244-1.285l-2.24-4.342A2.327,2.327,0,0,0,425.88,1107.583Z" transform="translate(-326.278 -1025.781)" fill="#d99ea4"/>
        <path id="パス_36756" data-name="パス 36756" d="M415.347,1103.82l3.9.814.792,7.313-4.823-.022Z" transform="translate(-323.457 -1023.58)" fill="#c0cbe6"/>
        <path id="パス_36757" data-name="パス 36757" d="M340.886,998.866l-.126,8.105s-6.9.268-13.81-.008c-6.074-.239-12.162-.9-13.594-2.524-1.633-1.854-2.807-16.119-3.546-29.022-.645-11.285-.96-21.528-.96-21.528s5.212,2.44,6.139,3.068c3.947,2.675,9.8,37,9.8,37S338.983,998.117,340.886,998.866Z" transform="translate(-248.996 -918.625)" fill="#f0f0f0"/>
        <path id="パス_36758" data-name="パス 36758" d="M488.341,1387.091l1.546,5.891,16.04.007S501.919,1385.206,488.341,1387.091Z" transform="translate(-374.643 -1221.669)" fill="#121b3c"/>
        <path id="パス_36759" data-name="パス 36759" d="M245.746,1320.363a4.542,4.542,0,0,1-2.91.767c-2.319,0-2.91-.767-2.91-.767v-32.569h5.82Z" transform="translate(-200.747 -1152.365)" fill="#a7b1ca"/>
        <path id="パス_36760" data-name="パス 36760" d="M187.58,1134.33c0,.022-.006.049-.01.073a30.413,30.413,0,0,1-.835,4.034,23.97,23.97,0,0,1-2.352,5.721c-3.152,5.316-9.13,11.233-23.465,13.165-.694.092-1.411.18-2.146.253q-2.006.206-4.22.306c-.094,0-.188.008-.282.01s-.188.008-.284.01a69.479,69.479,0,0,1-14.038-2.1c-10.68-2.534-17.638-7.75-22.038-14.1a0,0,0,0,1,0,0q-.56-.809-1.068-1.64a35.01,35.01,0,0,1-2.289-4.455,46.667,46.667,0,0,1-3.467-17.569,58,58,0,0,1,1.856-13.781,25.023,25.023,0,0,1,3.4-7.558,20.465,20.465,0,0,1,1.3-1.725,19.2,19.2,0,0,1,5.268-4.436c5.1-2.908,21.883-5.8,36.1,1.7C185.163,1106.038,189.1,1123.093,187.58,1134.33Z" transform="translate(-110.555 -1012.135)" fill="#9e3119"/>
        <path id="パス_36761" data-name="パス 36761" d="M211.258,1397.878H162.97a2.054,2.054,0,0,1-2.048-2.048h0a2.054,2.054,0,0,1,2.048-2.048h48.288a2.054,2.054,0,0,1,2.048,2.048h0A2.054,2.054,0,0,1,211.258,1397.878Z" transform="translate(-145.443 -1226.559)" fill="#a7b1ca"/>
        <path id="パス_36762" data-name="パス 36762" d="M201,1251.3a19.684,19.684,0,0,1-3.187,8.05c-3.152,4.386-9.13,9.269-23.465,10.864-.694.076-1.411.147-2.146.206q-2.006.172-4.22.253c-.094,0-.188.008-.282.008s-.188.008-.284.01a69.487,69.487,0,0,1-14.038-2.1c-10.68-2.534-17.638-7.75-22.038-14.1a0,0,0,0,1,0,0q-.56-.808-1.068-1.64c8.1-1.933,25.411-5.323,42.606-3.938,9.328.751,19,1.582,27.289,2.313Z" transform="translate(-123.986 -1124.918)" fill="#af4220"/>
        <path id="パス_36763" data-name="パス 36763" d="M169.175,950.288s-4.473-1.251-4.659-1.268c.208.321-1.9,2.7-6.341,3.326a3.705,3.705,0,0,1-1.546.878c-5.621.29-12.042-2.687-12.7-4.48-14.62,2.861-15.612,4.214-16,4.612-11.018,11.342-17.426,38.427-18.578,43.634a1.322,1.322,0,0,0,.574,1.4,42.225,42.225,0,0,0,12.429,5.154,52.186,52.186,0,0,0,6.356,1.18c.768,6.554,2.481,10.433,4.11,12.471,0,0,7.256-.1,15.168-.4,8.992-.347,20.176-.638,21.187-1.651C170.6,1013.709,175.723,978.924,169.175,950.288Zm-41.093,38.063c-.259,3.651.292,2.107.282,4.845-1.043-.351-1.972-.684-2.7-.984a4.115,4.115,0,0,1-1.668-.947s1.713-2.55,3.334-5.515a40.1,40.1,0,0,0,1.979-4.085C128.578,983.479,128.329,984.87,128.082,988.351Z" transform="translate(-109.321 -915.023)" fill="#f0f0f0"/>
        <path id="パス_36764" data-name="パス 36764" d="M247.1,914.41s1.227,10.059,1.365,11.481l-8.14,1.256-5.346-4.427a24.563,24.563,0,0,0,2.1-12.318Z" transform="translate(-197.284 -888.183)" fill="#d3657d"/>
        <path id="パス_36765" data-name="パス 36765" d="M178.405,1087.124a46.263,46.263,0,0,0-15.023,3.455c-1.629-2.038-3.487-8.967-4.255-15.521a52.173,52.173,0,0,1-6.356-1.18c1.192-4.12,2.424-8.318,3.308-11.327.729.3,1.658.633,2.7.984.01-2.738-.541-1.194-.282-4.845.247-3.481,1.225-9.118,3.046-9.455s2.276,8.271,3.1,16.17a53.347,53.347,0,0,0,1.717,10.064,6.793,6.793,0,0,0,1,2.044C170.761,1081.783,179.328,1084.507,178.405,1087.124Z" transform="translate(-139.738 -985.362)" fill="#dddfec"/>
        <path id="パス_36766" data-name="パス 36766" d="M250.32,880.7s-11.662.533-11.882-6.734-1.873-12.093,5.563-12.74,8.968,2.082,9.631,4.49S253.347,880.375,250.32,880.7Z" transform="translate(-199.49 -853.691)" fill="#e89ea3"/>
        <path id="パス_36767" data-name="パス 36767" d="M231.852,856.609s.871-9.7,11.26-9.35,5.895-9.478-3.032-10.926c0,0,.932,3.462-4.684,4.009C223.61,841.49,230.8,855.07,231.852,856.609Z" transform="translate(-192.904 -836.333)" fill="#0e1f40"/>
        <path id="パス_36768" data-name="パス 36768" d="M256.969,962.7l5.354-.568a.793.793,0,0,1,.542.991c-.129.844-1.894,3.127-2.559,3.241S255.518,964.249,256.969,962.7Z" transform="translate(-212.462 -924.393)" fill="#af4220"/>
        <path id="パス_36769" data-name="パス 36769" d="M177.364,1177.206s6.747,17.558,28.8,17.977c34.629.657,34.626.786,34.626.786s-2.64,16.762,21.928,39.51h13.833l-26.557-64.736-45.191-1.7s-31.593-.71-34.079,3.647C170.18,1173.633,177.364,1177.206,177.364,1177.206Z" transform="translate(-152.281 -1069.204)" fill="#15266b"/>
        <g id="グループ_21656" data-name="グループ 21656" transform="translate(0.53 82.839)">
          <path id="パス_36770" data-name="パス 36770" d="M160.921,1174.834a29.1,29.1,0,0,1-4.363.555c-.623.029-1.256.039-1.9.033-.055,0-.11,0-.165,0l-.5-.01a69.474,69.474,0,0,1-14.039-2.1c-13.951-3.309-21.55-11.2-25.4-20.192a46.67,46.67,0,0,1-3.467-17.569,58.022,58.022,0,0,1,1.856-13.781,25.044,25.044,0,0,1,3.4-7.558c.3-.449.623-.888.964-1.313.108-.139.22-.275.335-.412C127.249,1122.536,156.3,1154.5,160.921,1174.834Z" transform="translate(-111.087 -1112.483)" fill="#d17829"/>
          <path id="パス_36771" data-name="パス 36771" d="M160.192,1175.8a29.1,29.1,0,0,1-4.363.555c-.388.018-.778.029-1.174.033-.055,0-.11,0-.165,0l-.5-.01a69.483,69.483,0,0,1-14.039-2.1c-13.951-3.309-21.55-11.2-25.4-20.192a46.671,46.671,0,0,1-3.467-17.569,58.022,58.022,0,0,1,1.856-13.781,25.044,25.044,0,0,1,3.4-7.558c.3-.449.623-.888.964-1.313C127.288,1124.345,155.629,1155.728,160.192,1175.8Z" transform="translate(-111.087 -1113.445)" fill="#c04d20"/>
        </g>
        <g id="グループ_21657" data-name="グループ 21657" transform="translate(34.21 32.086)">
          <path id="パス_36772" data-name="パス 36772" d="M270.27,943.995s-.892,3.979-3.241,5.9l3.624,4.714s4.391-5.2,4.262-8.917A29.327,29.327,0,0,0,270.27,943.995Z" transform="translate(-253.93 -943.785)" fill="#c0cbe6"/>
          <path id="パス_36773" data-name="パス 36773" d="M270.766,943.995s-.679,3.745-3.029,5.67l3.482,4.287s3.822-4.443,4.192-8.257A29.334,29.334,0,0,0,270.766,943.995Z" transform="translate(-254.426 -943.785)" fill="#f0f0f0"/>
          <path id="パス_36774" data-name="パス 36774" d="M227.506,943.995s5.543,5.252,9.169,5.67l-2.481,6.194s-10.8-6.4-10.83-10.229C223.364,945.63,226.336,944.029,227.506,943.995Z" transform="translate(-223.364 -943.785)" fill="#c0cbe6"/>
          <path id="パス_36775" data-name="パス 36775" d="M228.826,943.294s5.148,5.462,8.773,5.88l-2.009,5.709s-10.874-6.122-10.906-9.954C224.684,944.929,227.656,943.328,228.826,943.294Z" transform="translate(-224.288 -943.294)" fill="#f0f0f0"/>
        </g>
        <path id="パス_36776" data-name="パス 36776" d="M123.574,1089.624s16.112,4.4,17.593,6.159l-.128,8.106s-16.841,1.065-29.014-6.555a1,1,0,0,1-.006-1.686C114.955,1093.782,122.011,1089.424,123.574,1089.624Z" transform="translate(-110.886 -1013.638)" fill="#f0f0f0"/>
        <path id="パス_36777" data-name="パス 36777" d="M333.55,1042.992c-6.074-.239-12.5-.656-13.593-2.524-3.671-6.26-.061-22.207-.8-35.111,5.819,11.842,1.507,21.285,2.619,27.469C322.881,1038.959,328.385,1041.74,333.55,1042.992Z" transform="translate(-255.597 -954.654)" fill="#dddfec"/>
        <g id="グループ_21659" data-name="グループ 21659" transform="translate(38.737 108.95)">
          <g id="グループ_21658" data-name="グループ 21658">
            <path id="パス_36778" data-name="パス 36778" d="M284.681,1208.708a7.807,7.807,0,0,1-1.953-.677,7.548,7.548,0,0,0-1.773-.628c-6.871-1-13.1-2.228-18.594-3.31q-2.162-.426-4.236-.828c-12.5-2.409-19.6-3.728-19.671-3.737h0c.07.008,7.218.9,19.74,3.315q2.078.4,4.238.829c5.49,1.081,11.712,2.306,18.572,3.307a7.81,7.81,0,0,1,1.895.663,7.523,7.523,0,0,0,1.828.641C286.534,1208.532,286.491,1208.958,284.681,1208.708Z" transform="translate(-238.453 -1199.527)" fill="#181f4a"/>
          </g>
        </g>
        <g id="グループ_21661" data-name="グループ 21661" transform="translate(80.147 80.603)">
          <g id="グループ_21660" data-name="グループ 21660">
            <path id="パス_36779" data-name="パス 36779" d="M376.825,1105.947l-.159-.449c-.014-.037-.027-.073-.039-.106l-.029-.08-.043-.12c-.012-.039-.024-.071-.034-.1s-.017-.049-.023-.063Z" transform="translate(-376.498 -1105.03)" fill="#181f4a"/>
            <path id="パス_36780" data-name="パス 36780" d="M376.5,1105.03c.006.014.012.035.023.063s.022.059.034.1l.043.12.029.08c.012.033.025.069.039.106l.159.449.08.223Z" transform="translate(-376.498 -1105.03)" fill="#181f4a"/>
            <path id="パス_36781" data-name="パス 36781" d="M376.5,1105.03c.006.014.012.035.023.063Z" transform="translate(-376.498 -1105.03)" fill="#181f4a"/>
            <path id="パス_36782" data-name="パス 36782" d="M443.52,1284.7l-.118.033c-4.234-7.558-8.8-16.683-13.028-26.374-.647-1.48-1.3-3.01-1.95-4.541-.713-1.689-1.423-3.4-2.113-5.1a6.1,6.1,0,0,1-.339-1.564v0c.124-.182.245-.368.365-.553,0,.014,0,.028,0,.043a7.537,7.537,0,0,0,.359,1.9c.688,1.691,1.4,3.4,2.111,5.09.647,1.529,1.3,3.057,1.948,4.536C434.986,1267.854,439.292,1277.156,443.52,1284.7Z" transform="translate(-411.131 -1204.135)" fill="#181f4a"/>
          </g>
        </g>
        <path id="パス_36783" data-name="パス 36783" d="M261.6,973.569s-1.015,9.579-1.2,12.784c-.507,9.016-.694,36.114-.694,36.114a6.156,6.156,0,0,0,1.312,4.252,24.254,24.254,0,0,0,3.228,3.179,11.946,11.946,0,0,0,3.236-5.836c.612-2.534-.856-23.812-2.337-37.985a127.031,127.031,0,0,0-1.974-12.7S261.965,973.165,261.6,973.569Z" transform="translate(-214.584 -932.227)" fill="#ca7900"/>
        <path id="パス_36784" data-name="パス 36784" d="M227.651,1119.439l-2.014-3.9a2.093,2.093,0,0,0-1.971-1.124h0c-.1.005-5.959-.555-5.959-.555s3.1,7.793,3.671,8.378a1.085,1.085,0,0,0,.772.331c1.366.009,5.4-.093,5.648-1.594a2.124,2.124,0,0,0,.073-.378h0A2.068,2.068,0,0,0,227.651,1119.439Z" transform="translate(-185.193 -1030.606)" fill="#e89ea3"/>
        <path id="パス_36785" data-name="パス 36785" d="M209.965,1110.172l3.9.815.792,7.313-4.823-.022Z" transform="translate(-179.685 -1028.026)" fill="#dddfec"/>
      </g>
      <path id="パス_36786" data-name="パス 36786" d="M352.571,1049.231h36.546l-9.5,25.151H343.926Z" transform="translate(-189.178 -149.033)" fill="#0e1f40"/>
      <g id="グループ_21663" data-name="グループ 21663" transform="translate(73.68 924.937)">
        <rect id="長方形_14055" data-name="長方形 14055" width="152.847" height="76.886" transform="translate(157.852 82.684) rotate(180)" fill="#abb2da"/>
        <rect id="長方形_14056" data-name="長方形 14056" width="27.243" height="76.886" transform="translate(32.248 82.684) rotate(180)" fill="#5c7dbd"/>
        <rect id="長方形_14057" data-name="長方形 14057" width="152.847" height="2.209" transform="translate(157.852 8.008) rotate(180)" fill="#9babd7"/>
        <rect id="長方形_14058" data-name="長方形 14058" width="27.243" height="2.209" transform="translate(32.248 8.008) rotate(180)" fill="#4269b0"/>
        <path id="パス_36787" data-name="パス 36787" d="M76.579,1137.5H233.638a2.9,2.9,0,0,0,2.9-2.9h0a2.9,2.9,0,0,0-2.9-2.9H76.579a2.9,2.9,0,0,0-2.9,2.9h0A2.9,2.9,0,0,0,76.579,1137.5Z" transform="translate(-73.68 -1131.7)" fill="#ccd3eb"/>
      </g>
      <g id="グループ_21672" data-name="グループ 21672" transform="translate(162.134 845.962)">
        <g id="グループ_21664" data-name="グループ 21664" transform="translate(35.3 131.514)">
          <path id="パス_36788" data-name="パス 36788" d="M525.007,1311.8l-9.527-.012,0-2.608a2.326,2.326,0,0,0-2.32-2.326l-12.412-.015a2.325,2.325,0,0,0-2.326,2.32l0,2.608-9.527-.012a2.644,2.644,0,0,0-2.648,2.641l-.024,19.781a2.645,2.645,0,0,0,2.641,2.648l36.112.044a2.644,2.644,0,0,0,2.648-2.641l.024-19.78A2.644,2.644,0,0,0,525.007,1311.8Zm-24.279-2.638a.02.02,0,0,1,.021-.02l12.412.015a.021.021,0,0,1,.021.021l0,2.608-12.454-.015Z" transform="translate(-486.223 -1306.841)" fill="#549e9d"/>
          <rect id="長方形_14059" data-name="長方形 14059" width="41.401" height="0.775" transform="translate(0.016 14.208) rotate(0.07)" fill="#549e9d" style="mix-blend-mode: multiply;isolation: isolate"/>
        </g>
        <g id="グループ_21670" data-name="グループ 21670" transform="translate(0 0)">
          <g id="グループ_21666" data-name="グループ 21666" transform="translate(0 86.994)">
            <path id="パス_36789" data-name="パス 36789" d="M499.9,1158.432s-53.92,19.461-54.545,20.984l-20.2,48.1c-5.52,1.81-7.4,5.466-7.4,5.466l16.727-.007,1.379-5.253H439.5c20.662-19.131,22.871-34.2,22.953-39.321a2,2,0,0,1,1.934-1.966c3.26-.1-2.972-.314,19.333-.737,23-.437,30.453-21.577,30.453-21.577Z" transform="translate(-402.993 -1158.432)" fill="#0e1f40"/>
            <g id="グループ_21665" data-name="グループ 21665">
              <path id="パス_36790" data-name="パス 36790" d="M386.889,1385.729l-1.612,6.143-16.727.007S372.729,1383.763,386.889,1385.729Z" transform="translate(-368.549 -1317.33)" fill="#0e1f40"/>
              <path id="パス_36791" data-name="パス 36791" d="M496.382,1166.949s-7.036,18.311-30.031,18.748c-22.3.423-30.833.636-34.093.737a2,2,0,0,0-1.935,1.966c-.081,5.118-2.29,20.19-22.952,39.321H392.945l23.1-57.677c.625-1.523,51.72-11.612,51.72-11.612Z" transform="translate(-385.627 -1158.432)" fill="#365a6c"/>
              <path id="パス_36792" data-name="パス 36792" d="M526.22,1199.7a8.163,8.163,0,0,0,2.037-.706,7.837,7.837,0,0,1,1.85-.655c7.165-1.045,13.661-2.324,19.391-3.453q2.255-.444,4.418-.864c13.041-2.512,20.441-3.888,20.515-3.9h0c-.074.009-7.527.942-20.587,3.458q-2.167.417-4.42.864c-5.725,1.127-12.214,2.4-19.368,3.448a8.179,8.179,0,0,0-1.977.692,7.833,7.833,0,0,1-1.906.669C524.288,1199.515,524.333,1199.958,526.22,1199.7Z" transform="translate(-477.915 -1180.616)" fill="#3d3c3d"/>
              <path id="パス_36793" data-name="パス 36793" d="M433.722,1278.95l.124.034c4.416-7.883,9.173-17.4,13.587-27.506.675-1.544,1.359-3.139,2.034-4.735.743-1.761,1.484-3.549,2.2-5.315a6.361,6.361,0,0,0,.354-1.631v0c-.13-.189-.256-.383-.381-.577,0,.015,0,.03,0,.045a7.88,7.88,0,0,1-.375,1.984c-.718,1.763-1.458,3.55-2.2,5.308-.675,1.595-1.358,3.188-2.031,4.731C442.622,1261.38,438.132,1271.081,433.722,1278.95Z" transform="translate(-414.172 -1214.985)" fill="#3d3c3d"/>
            </g>
          </g>
          <g id="グループ_21669" data-name="グループ 21669" transform="translate(11.515)">
            <g id="グループ_21667" data-name="グループ 21667" transform="translate(51.808)">
              <path id="パス_36794" data-name="パス 36794" d="M604.886,942.611a36.711,36.711,0,0,1-4.4-8.619l8.031-4.74C611.352,935.2,618,939.642,618,939.642S604.921,942.662,604.886,942.611Z" transform="translate(-594.233 -911.006)" fill="#d3657d"/>
              <path id="パス_36795" data-name="パス 36795" d="M583.442,896.927s12.614.577,12.853-7.285,2.026-13.081-6.018-13.781-9.7,2.252-10.418,4.856S580.167,896.574,583.442,896.927Z" transform="translate(-579.642 -873.559)" fill="#e89ea3"/>
              <path id="パス_36796" data-name="パス 36796" d="M580.035,875.589a7.515,7.515,0,0,1,5.618,5.629c1.384,4.963,7.334,9.908,9.174,9.663,0,0,10.9-14.707-.2-20.755C586.4,865.649,578.752,870.935,580.035,875.589Z" transform="translate(-579.818 -868.43)" fill="#0e1f40"/>
            </g>
            <g id="グループ_21668" data-name="グループ 21668" transform="translate(0 24.567)">
              <path id="パス_36797" data-name="パス 36797" d="M415.917,1119.761c.708-1.965,1.4-4.9,1.4-4.9a56.169,56.169,0,0,1-6.311.657,2.384,2.384,0,0,0-.319-.04h0a2.326,2.326,0,0,0-2.193,1.25l-1.564,3.031Z" transform="translate(-406.935 -1065.505)" fill="#e89ea3"/>
              <path id="パス_36798" data-name="パス 36798" d="M517.657,963.552c-.525-.8-1.041-1.575-1.539-2.319-2.671-3.993-4.016-6.4-6.022-8.155-4.1-3.588-11.973-2.637-12-2.633h0s-3.157,1.112-4.649,1.475a53.5,53.5,0,0,0-5.923,1.792c-.2.054-12.235,3.34-13.337,7.778-1.866,7.517-13.937,32.493-13.937,32.493s-18.042,4-23.256,5.855l-1.072,4.748,30.431-.037s9.252-9.316,14.54-17.537l.058.164c1.2,3.393,2.383,6.807,3.325,10,2.5,8.479,4.536,15.944,9.49,16.952,3.08.627,5.747,1.166,8.062,1.606,17.808,3.4,14.75,1.013,18.183-12.291a35,35,0,0,0,.305-15.333c1.023-.376,2.013-.777,2.926-1.2a17.441,17.441,0,0,0,3.224-1.852C529.586,982.671,523.148,971.906,517.657,963.552Z" transform="translate(-427.224 -950.327)" fill="#7b8591"/>
              <path id="パス_36799" data-name="パス 36799" d="M712.227,1009.254a17.438,17.438,0,0,1-3.224,1.852c-4.087-8.869-6.677-20.792-7.716-26.207.682.906,1.4,1.862,2.134,2.854C708.912,996.107,715.35,1006.872,712.227,1009.254Z" transform="translate(-612.988 -974.528)" fill="#7b8591" opacity="0.2" style="mix-blend-mode: multiply;isolation: isolate"/>
              <path id="パス_36800" data-name="パス 36800" d="M606.9,1093.722c-2.316-.44-4.983-.98-8.062-1.606-4.955-1.008-6.988-8.473-9.49-16.953-.942-3.188-2.124-6.6-3.325-10a4.709,4.709,0,0,1,3.05-3.393C592.795,1060.709,606.853,1087.122,606.9,1093.722Z" transform="translate(-532.303 -1028.321)" fill="#549e9d" opacity="0.2" style="mix-blend-mode: multiply;isolation: isolate"/>
            </g>
          </g>
        </g>
        <g id="グループ_21671" data-name="グループ 21671" transform="translate(41.755 56.494)">
          <path id="パス_36801" data-name="パス 36801" d="M562.643,1311.414H539.974V1276.7h-6.355v34.715H510.038a2.276,2.276,0,0,0-2.279,1.964,2.242,2.242,0,0,0,2.22,2.509H562.7a2.242,2.242,0,0,0,2.22-2.509A2.276,2.276,0,0,0,562.643,1311.414Z" transform="translate(-507.742 -1210.721)" fill="#a7b1ca"/>
          <path id="パス_36802" data-name="パス 36802" d="M616.34,1074.768c-2.735,17.01-6.652,41.226-7.315,44.465-.789,3.846-6.762,4.709-20.2,4.709-4.242,0-9.228-.086-15.029-.191-24.175-.438-32.9.191-32.9.191s-6.771-12.484,32.9-8.387c4.523.467,6.489-22.431,7.33-40.093a19.633,19.633,0,0,1,20.893-18.663,15.536,15.536,0,0,1,14.321,17.968Z" transform="translate(-530.646 -1056.757)" fill="#dc9e43"/>
          <path id="パス_36803" data-name="パス 36803" d="M616.34,1080.488c-2.735,17.01-6.652,41.226-7.315,44.465-.789,3.846-6.762,4.709-20.2,4.709H540.9s-6.771-12.484,32.9-8.387c14.818,3.031,11.737-38.659,12.073-42.123s6.645-12.1,13.776-13.876,14.1,3.865,14.1,3.865l0,0A15.454,15.454,0,0,1,616.34,1080.488Z" transform="translate(-530.646 -1062.477)" fill="#ca7900"/>
        </g>
      </g>
    </g>
  </g>
</svg>
