<svg xmlns="http://www.w3.org/2000/svg" width="301.408" height="30" viewBox="0 0 301.408 30">
  <g id="グループ_23588" data-name="グループ 23588" transform="translate(-40 -30)">
    <path id="パス_36860" data-name="パス 36860" d="M1.62-7.488h1.3v-.768H4.08v.768H5.388v-.768H6.576V-9.3H5.388v-.852H4.08V-9.3H2.916v-.852H1.62V-9.3H.552v1.044H1.62Zm.444,2.052v-.888h.8v.888Zm2.916,0h-.8v-.888h.8Zm3.984-2c.012-.828.012-1.692.012-2.616H7.668c0,.936,0,1.8-.012,2.616H6.564v1.32H7.632C7.548-3.9,7.284-2.16,6.42-.876V-1c-.744.072-1.5.144-2.244.2V-1.38H6.264v-1H4.176v-.576H6.4V-3.984H4.176v-.5h2.1V-7.272H.852v2.784H2.868v.5H.7v1.032H2.868v.576H.876v1H2.868v.7C1.956-.6,1.116-.54.444-.492L.588.7C1.98.564,3.912.384,5.808.18a4.063,4.063,0,0,1,.78.888C8.328-.492,8.8-2.892,8.928-6.12h1.128C9.984-2.232,9.876-.8,9.648-.492a.407.407,0,0,1-.4.216,8.076,8.076,0,0,1-1.068-.06A3.444,3.444,0,0,1,8.568,1,8.159,8.159,0,0,0,9.96.948a1.3,1.3,0,0,0,.876-.576c.372-.528.468-2.28.552-7.2,0-.156.012-.612.012-.612Zm4.116.42c2.088-.024,5.244-.1,8.232-.168a8.41,8.41,0,0,1,.984.972l1.068-.912A15.249,15.249,0,0,0,20.052-9.66L19-8.868c.264.156.54.336.816.516-1.116.024-2.22.036-3.264.036.42-.42.828-.9,1.2-1.356l-1.6-.48A13.108,13.108,0,0,1,14.82-8.3c-.672.012-1.3.012-1.836.012Zm7.2,2.88H15.648V-5.256H20.28ZM21.7-6.4h-7.38V-3h2.52l-.4.372A7.84,7.84,0,0,1,18.528-1.14l.948-.924A6.984,6.984,0,0,0,18.192-3h3.5ZM13.56.744a4.529,4.529,0,0,0,1.7-2.652l-1.272-.444A3.828,3.828,0,0,1,12.4-.084ZM17.592-.372c-.516,0-.6-.048-.6-.372V-2.28H15.576V-.708c0,1.212.348,1.6,1.848,1.6h1.824c1.1,0,1.512-.336,1.668-1.74a3.736,3.736,0,0,1-1.248-.5c-.06.864-.132.984-.552.984ZM20.34-1.848a8.5,8.5,0,0,1,1.992,2.5l1.26-.72A8.578,8.578,0,0,0,21.5-2.508ZM32.844-1v.672H28.092V-1Zm-.912-3.24v.624h-3.84v-.624Zm-3.84,1.644h5.256V-5.268H26.724V1.056h1.368V.732h4.752v.324H34.26v-3.1H28.092ZM35.52-9.324H32.04q.162-.306.288-.612l-1.356-.324a5.532,5.532,0,0,1-1.14,1.74v-.8H27.168c.1-.192.192-.384.276-.576l-1.332-.36a6.442,6.442,0,0,1-1.764,2.436,7.507,7.507,0,0,1,1.164.768,8.863,8.863,0,0,0,.96-1.152h.192a6.124,6.124,0,0,1,.552,1.152l1.284-.36a6.051,6.051,0,0,0-.4-.792h1.4c-.1.084-.2.168-.3.24.156.072.384.18.6.3H29.28v.84H24.864v2.376h1.344V-5.76h7.644v1.308h1.392V-6.828h-4.6v-.648a8.058,8.058,0,0,0,.66-.732H32a7.074,7.074,0,0,1,.72,1.176l1.32-.372a6.037,6.037,0,0,0-.5-.8h1.98ZM40.308-2.7c-.384.132-.78.252-1.176.372v-2.4h1.08V-6.036h-1.08V-8.148h1.284V-9.48h-3.96v1.332h1.32v2.112H36.564v1.308h1.212v2.82c-.552.156-1.044.288-1.464.4L36.636-.06c1.152-.372,2.592-.828,3.912-1.3Zm1.848-3.624h1.236v1.032H42.156Zm0-2.124h1.236V-7.44H42.156ZM45.78-7.44H44.592V-8.448H45.78Zm0,2.148H44.592V-6.324H45.78ZM44.724-.624v-1.14h2.544V-3.048H44.724V-4.08h2.412V-9.66H40.872v5.58h2.4v1.032H40.788v1.284h2.484v1.14H39.96v1.3h7.716v-1.3Zm4.1-7.608.156,1.644c1.392-.3,3.84-.564,4.968-.684a4.8,4.8,0,0,0-1.788,3.708c0,2.6,2.376,3.948,4.9,4.116l.564-1.644c-2.04-.108-3.888-.816-3.888-2.8a3.647,3.647,0,0,1,2.544-3.36A12.466,12.466,0,0,1,58.6-7.416l-.012-1.536c-.852.036-2.16.108-3.4.216-2.2.18-4.176.36-5.184.444C49.776-8.268,49.308-8.244,48.828-8.232ZM56.88-6.24l-.888.372A9.259,9.259,0,0,1,56.928-4.2l.912-.408A14.9,14.9,0,0,0,56.88-6.24Zm1.344-.552-.876.408a10.557,10.557,0,0,1,.984,1.62l.9-.432A17.95,17.95,0,0,0,58.224-6.792ZM5,5.112C4.92,6.7,5.088,12.144.3,14.8a5,5,0,0,1,1.2,1.14A10.247,10.247,0,0,0,5.94,9.912a9.516,9.516,0,0,0,4.728,6.024,4.69,4.69,0,0,1,1.1-1.212C7.3,12.624,6.7,7.452,6.6,5.8c.012-.252.024-.492.036-.684Zm15.84,8.16h-2.16v-.564h2.16ZM18.684,11.1h2.16v.516h-2.16ZM15.348,8.712V8.136h1.884v.576Zm5.28-.576v.576H18.684V8.136Zm2.916,3.48H22.3V10.14H18.684V9.612h3.408V7.236H18.684V6.744h4.584V5.616H18.684v-.78H17.232v.78H12.756V6.744h4.476v.492H13.98V9.612h3.252v.528H13.68v.96h3.552v.516H12.48v1.092h4.752v.564H13.584V14.3h3.648v.372c0,.216-.072.288-.3.3-.192,0-.9,0-1.476-.024a4.4,4.4,0,0,1,.468,1.128,6.32,6.32,0,0,0,2.124-.2c.468-.2.636-.492.636-1.2V14.3h2.16V14.8H22.3V12.708h1.248ZM30.48,5.988H28.272V4.92h-1.38V5.988H24.7V7.224H30.48Zm-1.788,6.648V14.22H26.448V12.636Zm-3.564,3.42h1.32v-.6h2.244v.552h1.392V11.4H25.128Zm3.456-8.8a12.566,12.566,0,0,1-.492,1.812l.972.252H25.92l1.128-.264a6.042,6.042,0,0,0-.492-1.752l-1.164.24a7.569,7.569,0,0,1,.42,1.776H24.444v1.3h6.168v-1.3H29.22c.2-.468.456-1.116.708-1.776Zm6-1.788-.216.048H30.984V16.044h1.392V6.864h1.452c-.288.912-.672,2.136-1.02,2.988A3.446,3.446,0,0,1,34.032,12.3c0,.408-.072.684-.288.816a1.01,1.01,0,0,1-.444.1,6.638,6.638,0,0,1-.672-.012,3.181,3.181,0,0,1,.348,1.392,6.208,6.208,0,0,0,.96-.024,2.019,2.019,0,0,0,.816-.3A2.035,2.035,0,0,0,35.4,12.48a3.831,3.831,0,0,0-1.2-2.808c.48-1.02,1.008-2.4,1.428-3.552Zm5.64,1v.624H38.4V6.468ZM38.4,8.8V8.112h1.824V8.8Zm3.156-3.48H36.984V16.044H38.4V9.936h3.156Zm2.2,3.5V8.112h1.9V8.82Zm1.9-2.352v.624h-1.9V6.468Zm1.44-1.152H42.4V9.972h3.252v4.32c0,.228-.084.312-.336.312s-1.14.012-1.9-.036a5.173,5.173,0,0,1,.5,1.464,6.529,6.529,0,0,0,2.472-.264c.528-.216.7-.636.7-1.452Zm12.036,5.46A4.57,4.57,0,0,0,54.276,6.1a5.332,5.332,0,0,0-5.508,5.136c0,2.028,1.1,3.492,2.436,3.492,1.308,0,2.34-1.488,3.06-3.912a24.268,24.268,0,0,0,.72-3.252,2.967,2.967,0,0,1,2.52,3.168,3.256,3.256,0,0,1-2.736,3.216,9.23,9.23,0,0,1-1.116.192l.9,1.428C57.576,15.1,59.124,13.308,59.124,10.776Zm-8.82.3A3.777,3.777,0,0,1,53.352,7.6a18.012,18.012,0,0,1-.636,2.9c-.492,1.62-.96,2.376-1.464,2.376C50.784,12.876,50.3,12.288,50.3,11.076ZM61.092,15h2.532c2.616,0,4.3-1.488,4.3-4.476s-1.68-4.416-4.392-4.416H61.092Zm1.776-1.428V7.536h.552c1.656,0,2.688.816,2.688,2.988s-1.032,3.048-2.688,3.048ZM68.4,15h1.884l.948-1.968c.216-.456.432-.924.648-1.464h.048c.264.54.468,1.008.7,1.464l1,1.968h1.968l-2.5-4.5,2.34-4.392H73.56l-.84,1.836c-.192.42-.372.852-.588,1.4h-.06c-.264-.552-.444-.984-.66-1.4l-.888-1.836H68.556l2.34,4.308ZM81.588,5.376,80,5.244a6.672,6.672,0,0,1-.24,1.38h-.576a15.614,15.614,0,0,1-2.112-.144v1.4c.66.048,1.536.072,2.028.072h.156a11.777,11.777,0,0,1-2.652,3.312l1.284.96a13.816,13.816,0,0,1,1.116-1.32,2.923,2.923,0,0,1,1.872-.828.923.923,0,0,1,.84.408c-1.368.708-2.808,1.668-2.808,3.2s1.392,2,3.276,2a30.018,30.018,0,0,0,3.4-.2l.048-1.548a19.631,19.631,0,0,1-3.408.336c-1.176,0-1.74-.18-1.74-.84,0-.6.48-1.068,1.38-1.584-.012.528-.024,1.1-.06,1.464h1.44c-.012-.552-.036-1.44-.048-2.112.732-.336,1.416-.6,1.956-.816.408-.156,1.044-.4,1.428-.5L85.98,8.5c-.444.228-.864.42-1.332.624-.492.216-1,.42-1.62.708a1.625,1.625,0,0,0-1.6-.924,4.066,4.066,0,0,0-1.356.24A8.378,8.378,0,0,0,80.76,7.92a35.747,35.747,0,0,0,3.912-.3l.012-1.392a30.38,30.38,0,0,1-3.4.348A11.479,11.479,0,0,0,81.588,5.376ZM90.3,4.848A13.179,13.179,0,0,1,87.924,9.48a9.545,9.545,0,0,1,.7,1.536c.24-.288.492-.624.732-.972v5.988h1.416V7.452a21.043,21.043,0,0,0,.852-2.22Zm3.36,1.74H97.1V8.46H93.66Zm2.532,5.868h2.532V11.124H96.192V9.7h2.352V5.34H92.3V9.7h2.448V13.98A3.016,3.016,0,0,1,93.5,12.4q.162-.792.252-1.656l-1.368-.132c-.168,1.932-.588,3.624-1.62,4.62a8.041,8.041,0,0,1,1.128.828,6.027,6.027,0,0,0,1.14-1.968c.9,1.356,2.2,1.692,3.876,1.692H99a4.817,4.817,0,0,1,.432-1.332c-.552.012-1.98.012-2.412.012q-.432,0-.828-.036Zm10.956-3.948h-1.56V7.752h1.56Zm0,1.944h-1.56V9.66h1.56Zm0,1.968h-1.56V11.6h1.56Zm-2.94,1.2H111.1v-1.2H108.5V11.6h2.016V10.452H108.5V9.66h2.064V8.508H108.5V7.752h2.388v-1.2h-2.124c.216-.408.432-.852.648-1.284l-1.572-.3a14.88,14.88,0,0,1-.5,1.584h-1.368a13.716,13.716,0,0,0,.612-1.272l-1.416-.408a8.7,8.7,0,0,1-2.652,3.648,10.114,10.114,0,0,1,1.044,1.128c.216-.192.432-.4.648-.624Zm-.936-6.576a10.428,10.428,0,0,0-1.884-1.908l-1.092.816a9.351,9.351,0,0,1,1.8,1.992Zm-.324,2.448h-2.7V10.8h1.344v2.616a14.38,14.38,0,0,1-1.488,1.1l.672,1.416c.612-.516,1.1-.972,1.584-1.44a3.738,3.738,0,0,0,3.108,1.332c1.464.06,4.008.036,5.5-.036a6.506,6.506,0,0,1,.444-1.392c-1.656.132-4.488.168-5.928.108a2.76,2.76,0,0,1-2.532-1.188Z" transform="translate(230 42)" fill="#111"/>
    <g id="logo-amano" transform="translate(40 30)">
      <path id="パス_1" data-name="パス 1" d="M645.56,45.6l-9.443-22.056s-.114-.225-.289-.225H625.171a.153.153,0,0,0-.171.148v2.916a.193.193,0,0,0,.216.212h1.279c.841,0,1.095.467.894,1.13L619.753,45.28c-.267.638-.474,1.429-1.355,1.487,0,0-1.1.086-1.465.086-.42,0-.431.548-.431.548v2.347s-.014.173.22.173h11.231a.255.255,0,0,0,.25-.236v-2.62a.318.318,0,0,0-.329-.312H626.2a.8.8,0,0,1-.606-1.191l1.108-2.54a.461.461,0,0,1,.412-.276h8.875c.326-.011.37.192.37.192l1.169,2.595c.376.854-.175,1.229-.927,1.229h-1.448a.2.2,0,0,0-.192.177v2.876s0,.106.138.106h13.331a.238.238,0,0,0,.233-.2L648.659,47s-.023-.193-.17-.193c-.1,0-1.091-.023-1.091-.023-1.261,0-1.429-.276-1.838-1.181m-16.648-7.5,2.382-5.515c.218-.527.355-.564.632-.037l2.418,5.653c.214.494.177.651-.79.613h-4.062c-.8,0-.8-.171-.58-.715" transform="translate(-616.502 -22.2)" fill="#0181c0"/>
      <path id="パス_2" data-name="パス 2" d="M718.086,45.607l-9.439-21.9s-.112-.222-.293-.222L697.7,23.474a.155.155,0,0,0-.168.153l0,2.837a.191.191,0,0,0,.207.216h1.285c.841,0,1.089.466.894,1.131l-7.559,17.473c-.274.639-.478,1.43-1.355,1.487,0,0-1.183.086-1.545.086-.418,0-.427.549-.427.549v2.5s-.017.178.216.178h11.234a.257.257,0,0,0,.25-.241V47.3a.321.321,0,0,0-.334-.311h-1.67a1.022,1.022,0,0,1-.605-1.423l1.11-2.384a.452.452,0,0,1,.416-.28c.286,0,7.676,0,8.876,0,.318-.01.359.194.359.194l1.173,2.442A.97.97,0,0,1,709.132,47h-1.45c-.16,0-.187.177-.187.177v2.819s0,.1.137.1h13.326a.236.236,0,0,0,.233-.208V47.238s-.021-.2-.294-.2c-.1,0-.972-.026-.972-.026-1.256,0-1.428-.5-1.839-1.409m-16.822-7.32,2.56-5.7c.216-.528.355-.564.627-.037l2.423,5.653c.21.494.42.785-.795.707h-4.235c-.8,0-.807-.08-.58-.624" transform="translate(-619.249 -22.206)" fill="#0181c0"/>
      <path id="パス_3" data-name="パス 3" d="M668.345,36.585,663.216,23.6a.564.564,0,0,0-.5-.287H652.358a.212.212,0,0,0-.213.216v2.833a.2.2,0,0,0,.194.192c.188,0,1.052.027,1.052.027,1.228,0,1.2.7,1.2,1.654V45.394c0,.544-.149,1.375-1.172,1.375h-1.089a.17.17,0,0,0-.186.176v2.779a.171.171,0,0,0,.178.208h9.926c.183,0,.183-.218.183-.218V46.955a.159.159,0,0,0-.173-.2h-1.116a1.1,1.1,0,0,1-1.25-1.114V36.4c0-1.157.292-.891.533-.276l5.457,13.67a.2.2,0,0,0,.2.137h3.618a.215.215,0,0,0,.186-.137l5.547-13.445c.317-.885.6-.982.6-.47v9.693c0,.494-.029,1.275-1.185,1.275h-1.168a.177.177,0,0,0-.192.214V49.85a.156.156,0,0,0,.161.182H685.4a.183.183,0,0,0,.177-.159V47.065s-.043-.187-.209-.187h-.831c-1.645,0-1.592-.849-1.592-1.345V28.011c0-1.29,1.013-1.371,1.561-1.371h.863c.2,0,.18-.23.18-.23l.012-2.8s-.03-.235-.2-.235h-9.926a.424.424,0,0,0-.381.194l-5.738,13.581c-.429.941-.566.412-.974-.571" transform="translate(-617.852 -22.2)" fill="#0181c0"/>
      <path id="パス_4" data-name="パス 4" d="M733.448,33.306l10.707,16.976h8.523V28.634c0-.951-.2-1.744,1.258-1.744,0,0,.776-.037.979-.037a.172.172,0,0,0,.187-.158V23.863s-.029-.222-.181-.222H744.794c-.187,0-.158.2-.158.2V26.69s-.029.166.167.166H746c1.039,0,1.225.765,1.225,1.343,0,0,.027,12.775.027,12.914s-.2.337-.392.042c-.211-.327-10.071-15.806-11.072-17.4a.306.306,0,0,0-.271-.186H725.05a.206.206,0,0,0-.214.242v2.815a.177.177,0,0,0,.181.146h1.155c.767,0,1.181.177,1.181,1.674V45.673c0,.615-.1,1.341-1.327,1.341,0,0-.92.008-1.123.008s-.187.229-.187.229v2.681s0,.229.19.229h10.066a.213.213,0,0,0,.221-.229V47.3a.2.2,0,0,0-.2-.182c-.171,0-1.162-.1-1.162-.1-1.313,0-1.2-.792-1.2-1.388V33.109c-.02-.672.245-.814.81.2" transform="translate(-620.601 -22.21)" fill="#0181c0"/>
      <path id="パス_5" data-name="パス 5" d="M757.553,36.908c0-8.37,6.091-14.752,14.888-14.752A14.765,14.765,0,0,1,787.392,37c0,8.373-5.551,15.159-14.951,15.159-8.289,0-14.888-6.246-14.888-15.248m14.888,11.247c5.627,0,7.162-5,7.162-11.159s-2.14-10.774-7.162-10.774c-5.45,0-7,4.611-7,10.774s1.919,11.159,7,11.159" transform="translate(-621.844 -22.156)" fill="#0181c0"/>
    </g>
  </g>
</svg>
