<svg xmlns="http://www.w3.org/2000/svg" xmlns:xlink="http://www.w3.org/1999/xlink" width="230" height="140" viewBox="0 0 230 140">
  <defs>
    <clipPath id="clip-path">
      <rect id="Rectangle_13525" data-name="Rectangle 13525" width="230" height="140" transform="translate(680 419)" fill="#fff"/>
    </clipPath>
  </defs>
  <g id="Group_21356" data-name="Group 21356" transform="translate(-680 -419)">
    <rect id="Rectangle_13491" data-name="Rectangle 13491" width="230" height="140" transform="translate(680 419)" fill="#fff"/>
    <g id="Mask_Group_142" data-name="Mask Group 142" clip-path="url(#clip-path)">
      <g id="Group_20387" data-name="Group 20387" transform="translate(713 436.597)">
        <g id="Group_20389" data-name="Group 20389" transform="translate(0 71.291)">
          <rect id="Rectangle_13510" data-name="Rectangle 13510" width="151.753" height="85.67" transform="translate(156.723 91.427) rotate(180)" fill="#a5c6e0"/>
          <rect id="Rectangle_13511" data-name="Rectangle 13511" width="27.048" height="85.67" transform="translate(32.017 91.427) rotate(180)" fill="#4e8ec5"/>
          <rect id="Rectangle_13512" data-name="Rectangle 13512" width="151.753" height="2.194" transform="translate(156.723 7.951) rotate(180)" fill="#94bbdb"/>
          <rect id="Rectangle_13513" data-name="Rectangle 13513" width="27.048" height="2.194" transform="translate(32.017 7.951) rotate(180)" fill="#3177b6"/>
          <g id="Group_20387-2" data-name="Group 20387" transform="translate(85.852 32.774)">
            <ellipse id="Ellipse_799" data-name="Ellipse 799" cx="17.048" cy="17.813" rx="17.048" ry="17.813" fill="#88b4d8"/>
            <ellipse id="Ellipse_800" data-name="Ellipse 800" cx="17.048" cy="17.813" rx="17.048" ry="17.813" transform="translate(1.925)" fill="#00878b"/>
            <path id="Path_35116" data-name="Path 35116" d="M389.9,2083.7h5.656a.557.557,0,0,0,.557-.557v-5.96a.558.558,0,0,1,.558-.558h6.964a.558.558,0,0,1,.558.558v5.96a.557.557,0,0,0,.558.557h5.656a.557.557,0,0,1,.557.558v7.326a.557.557,0,0,1-.557.557h-5.656a.558.558,0,0,0-.558.558v5.96a.557.557,0,0,1-.558.557h-6.964a.557.557,0,0,1-.558-.557v-5.96a.558.558,0,0,0-.557-.558H389.9a.557.557,0,0,1-.558-.557v-7.326A.558.558,0,0,1,389.9,2083.7Z" transform="translate(-381.182 -2070.107)" fill="#f4f9f4"/>
          </g>
          <g id="Group_20388" data-name="Group 20388" transform="translate(32.017 16.397)">
            <rect id="Rectangle_13514" data-name="Rectangle 13514" width="124.705" height="1.241" transform="translate(124.705 1.241) rotate(180)" fill="#c8e7f0"/>
            <rect id="Rectangle_13515" data-name="Rectangle 13515" width="124.705" height="1.241" transform="translate(124.705 4.655) rotate(180)" fill="#c8e7f0"/>
            <rect id="Rectangle_13516" data-name="Rectangle 13516" width="124.705" height="1.241" transform="translate(124.705 60.783) rotate(180)" fill="#c8e7f0"/>
            <rect id="Rectangle_13517" data-name="Rectangle 13517" width="124.705" height="1.241" transform="translate(124.705 64.196) rotate(180)" fill="#c8e7f0"/>
          </g>
          <path id="Path_35117" data-name="Path 35117" d="M76.558,1950.457H232.493a2.878,2.878,0,0,0,2.879-2.878h0a2.879,2.879,0,0,0-2.879-2.879H76.558a2.879,2.879,0,0,0-2.878,2.879h0A2.878,2.878,0,0,0,76.558,1950.457Z" transform="translate(-73.68 -1944.7)" fill="#c8e7f0"/>
        </g>
        <path id="Path_35118" data-name="Path 35118" d="M300.387,1941.245h34.037a.716.716,0,0,0,.716-.716h0a.716.716,0,0,0-.716-.716H300.387a.716.716,0,0,0-.716.716h0A.716.716,0,0,0,300.387,1941.245Z" transform="translate(-232.364 -1869.977)" fill="#1b519f"/>
        <g id="Group_20392" data-name="Group 20392" transform="translate(30.421 0)">
          <path id="Path_35119" data-name="Path 35119" d="M175.826,1841.1c.225,6.191,1.97,16.167,3.875,25.387h17.129l-7.769-33.169h-5.729A7.51,7.51,0,0,0,175.826,1841.1Z" transform="translate(-175.821 -1795.203)" fill="#0e1f40"/>
          <path id="Path_35120" data-name="Path 35120" d="M235.539,1714.5s-5.9-5.52-9.959-.354c-2.921,3.718.454,15.766,1.047,18.318.863,3.717-3.033,3.812-3.786,2.484a4.573,4.573,0,0,0,3.624,3.532,6.379,6.379,0,0,0,7.1-3.165c1.617-3.17.641-7.668.641-7.668" transform="translate(-208.837 -1709.969)" fill="#0e1f40"/>
          <path id="Path_35121" data-name="Path 35121" d="M248.744,1714.083a3.066,3.066,0,0,0-3.762,1.56c-1.626,2.729-1.128,5.643.266,6.141" transform="translate(-223.669 -1711.359)" fill="#1b519f"/>
          <path id="Path_35122" data-name="Path 35122" d="M261.677,1719.6s-.566,5.821-4.376,8.433c-3.941,2.7-8.2,3.6-11.392-5.147a15.239,15.239,0,0,1-.36-9.59c1.915-6.389,7.293-8.334,12.567-7.9,6.484.531,10.209,5.754,8.625,10.528C264.851,1721.615,261.677,1719.6,261.677,1719.6Z" transform="translate(-224.356 -1705.333)" fill="#0e1f40"/>
          <path id="Path_35123" data-name="Path 35123" d="M217.87,1820.863c3.29-6.319,8.8-18.354,9.075-18.671.236.478,3.166,6.213,9.05,6.1,1.068-.018,1.837-3.978,1.812-4.189l-1.2-1.212s7.111,1.069,10.649,5.4c2.554,3.128,7.978,15.338,10.334,20.782l19.954,9a11.481,11.481,0,0,1-1.862,5.387s-23.936-5.464-25.471-7.594L245,1828.653l-1.7,15.983H216.089s-.081-.894-.168-2.346c-.049-.832-.1-1.837-.13-2.973C215.6,1833.668,215.717,1824.99,217.87,1820.863Z" transform="translate(-203.842 -1773.344)" fill="#fff"/>
          <path id="Path_35124" data-name="Path 35124" d="M215.933,1926.849c.035,1.132.085,2.14.135,2.968l13.305,1.918.991-.267.44-2.126s-5.39-1.868-5.683-1.979C224.88,1927.271,218.32,1926.96,215.933,1926.849Z" transform="translate(-203.986 -1860.875)" fill="#daecf2"/>
          <path id="Path_35125" data-name="Path 35125" d="M264.231,1806.078s1.363,29.233-.84,40.677h-6.273l-3.771-41.544Z" transform="translate(-230.258 -1775.464)" fill="#00878b"/>
          <path id="Path_35126" data-name="Path 35126" d="M253.34,1770.822s3.091,7.563,9.067,6.135c1.847-.446,1.847-3.856,1.847-3.856s-.006-.065-.018-.182a2.809,2.809,0,0,1-.839-.311,3.577,3.577,0,0,1-.478-1.531c-.29-1.557-.51-3.73-.51-3.73l.194-.6,1.331.51a10.953,10.953,0,0,1,.211-2.358c.006-.029.015-.056.021-.082l-9.117-7.252S255.029,1768.118,253.34,1770.822Z" transform="translate(-230.252 -1742.006)" fill="#e89ea3"/>
          <path id="Path_35127" data-name="Path 35127" d="M263.865,1776.968s.331,6.349,6.446,7.736c-.29-1.557-.51-3.73-.51-3.73l.194-.6,1.331.51a10.958,10.958,0,0,1,.211-2.358Z" transform="translate(-237.643 -1755.633)" fill="#d3657d"/>
          <path id="Path_35128" data-name="Path 35128" d="M259.633,1728.086a19.652,19.652,0,0,0,1.229,5.9c1.6,4.041,4.525,5.99,7.939,5.17,1.763-.422,3.178-2.415,4.2-4.7a23.7,23.7,0,0,0,1.248-3.544c.919-3.4,1.614-6.436,1.614-6.436.112-2.222-.521-7.579-6.952-8.591S259.131,1720.607,259.633,1728.086Z" transform="translate(-234.637 -1712.654)" fill="#e89ea3"/>
          <path id="Path_35129" data-name="Path 35129" d="M267.971,1723.847s-.006-1.329-5.475-1.939c-4.719-.527-5.892-3.465-5.892-3.465s-1.472,5.865-5.479,5.044c-3.509-.718-1.173-9.49,3.218-11.073.433-.156,6.673-1.947,7.075-1.974a22.307,22.307,0,0,1,2.88.782,14.891,14.891,0,0,1,2.94,1.644c.56.6,2.609,2.56,2.966,3.736C274,1720.641,267.971,1723.847,267.971,1723.847Z" transform="translate(-227.503 -1708.919)" fill="#0e1f40"/>
          <path id="Path_35130" data-name="Path 35130" d="M190.066,1836.157l9.5-4.771,9.106-29.213s-7.031.655-11.4,3.657c-1.7,1.167-4.839,13.423-6.443,20.223C190.164,1828.879,189.134,1834.438,190.066,1836.157Z" transform="translate(-185.562 -1773.331)" fill="#fff"/>
          <path id="Path_35131" data-name="Path 35131" d="M285.32,1801.894a57.436,57.436,0,0,1,1,7.6,181.165,181.165,0,0,1,.388,19.482c-.534,8.942-1.2,15.451-1.2,15.451h1.164s4.35-18.876,6.308-23.414l-2.759-6.318,3.645-3.337s-5.831-8-8.549-9.463Z" transform="translate(-252.708 -1773.135)" fill="#d0e9f0"/>
          <path id="Path_35132" data-name="Path 35132" d="M238.79,1798.681c.529,4.3,1.029,11.036,1.563,17.242s1.668,23.458,1.668,23.458h-1.037s-6.129-19.329-7.638-21.789l1.869-7.341-3.937-3.759a25.719,25.719,0,0,1,7.349-11.781A24.094,24.094,0,0,0,238.79,1798.681Z" transform="translate(-214.76 -1768.091)" fill="#d0e9f0"/>
          <g id="Group_20390" data-name="Group 20390" transform="translate(29.212 64.735)">
            <path id="Path_35133" data-name="Path 35133" d="M286.3,1938.14a4.884,4.884,0,0,1,1.306.386,3.663,3.663,0,0,0,2.247.664h3.422a.5.5,0,0,0,.47-.55c-.054-.5-1.275-.751-1.7-.9a19.066,19.066,0,0,1-1.731-.886Z" transform="translate(-282.607 -1932.636)" fill="#d3657d"/>
            <path id="Path_35134" data-name="Path 35134" d="M276.365,1922.687l3.261,1.409s2.858.921,3.5,1.087c.373.1,2.9,1.084,5,1.925,1.53.612,2.913,1.034,2.71,1.53a1.255,1.255,0,0,1-1.194.6,17.132,17.132,0,0,1-3.637-.45c-1.208-.282-3.327-1.176-5.555-.805a13.657,13.657,0,0,1-6.548-.375" transform="translate(-273.903 -1922.687)" fill="#e89ea3"/>
            <path id="Path_35135" data-name="Path 35135" d="M294.384,1934.931s5.485,1.718,5.621,2.041c.318.757-.641.865-1.062.867a34.1,34.1,0,0,1-3.807-.611,19.562,19.562,0,0,0-4.541-.468" transform="translate(-285.623 -1931.284)" fill="#e89ea3"/>
            <path id="Path_35136" data-name="Path 35136" d="M307.984,1937.233a1.234,1.234,0,0,0,.453-.141.4.4,0,0,0,.227-.362.445.445,0,0,0-.161-.393,1.612,1.612,0,0,0-.408-.219c-.59-.236-1.211-.418-1.817-.625l-1.817-.635q-.906-.324-1.8-.675.926.269,1.843.562l1.83.6.91.316a9.156,9.156,0,0,1,.9.346,1.693,1.693,0,0,1,.425.255.532.532,0,0,1,.172.469.456.456,0,0,1-.285.392A1.237,1.237,0,0,1,307.984,1937.233Z" transform="translate(-294.093 -1930.758)" fill="#d3657d"/>
          </g>
          <path id="Path_35137" data-name="Path 35137" d="M190.944,1903.44c.778,1.909,2.329,2.685,8.459,4.121l17.49,3.914a6.339,6.339,0,0,0,2.023-6.125L198.58,1898Z" transform="translate(-186.44 -1840.615)" fill="#fff"/>
          <path id="Path_35138" data-name="Path 35138" d="M258.135,1759.732c-.1-.108-2.514-2.676-2.748-4.818-.159-1.459.06-2.459.619-2.816a1.32,1.32,0,0,1,1.425.169c1.549.93,2.663,4.635,2.709,4.792l-.191.057c-.011-.038-1.138-3.787-2.621-4.678-.507-.3-.916-.362-1.214-.172-.484.31-.677,1.267-.528,2.627.227,2.076,2.67,4.677,2.7,4.7Z" transform="translate(-231.654 -1738.069)" fill="#fff"/>
          <path id="Path_35139" data-name="Path 35139" d="M263.876,1770.769c1.6,4.041,4.525,5.99,7.939,5.171,1.763-.422,3.178-2.415,4.2-4.7a6.33,6.33,0,0,0-2.529-2.521c-1.282-.485-7.589-.564-7.589-.564A12.748,12.748,0,0,0,263.876,1770.769Z" transform="translate(-237.65 -1749.441)" fill="#fff"/>
          <g id="Group_20391" data-name="Group 20391" transform="translate(24.749 13.821)">
            <path id="Path_35140" data-name="Path 35140" d="M298.735,1762.842a1.684,1.684,0,0,1-.487-.072,1.858,1.858,0,0,1-1.179-1.148,3.015,3.015,0,0,1,1.03-3.426,1.782,1.782,0,0,1,2.8.841,3.016,3.016,0,0,1-1.03,3.426A1.977,1.977,0,0,1,298.735,1762.842Zm.5-4.713a1.671,1.671,0,0,0-.953.322,2.706,2.706,0,0,0-.919,3.057,1.473,1.473,0,0,0,2.33.7,2.707,2.707,0,0,0,.919-3.057,1.555,1.555,0,0,0-.98-.965A1.366,1.366,0,0,0,299.23,1758.129Z" transform="translate(-285.579 -1756.008)" fill="#0e1f40"/>
            <path id="Path_35141" data-name="Path 35141" d="M281.731,1757.866a1.688,1.688,0,0,1-.487-.072,1.858,1.858,0,0,1-1.179-1.148,2.886,2.886,0,0,1-.048-1.882h0a2.1,2.1,0,1,1,3.922,1.179,2.884,2.884,0,0,1-1.078,1.543A1.974,1.974,0,0,1,281.731,1757.866Zm.5-4.713a2.2,2.2,0,0,0-1.913,1.7h0a2.572,2.572,0,0,0,.039,1.678,1.473,1.473,0,0,0,2.33.7,2.572,2.572,0,0,0,.958-1.378,2.038,2.038,0,0,0-1.019-2.643A1.367,1.367,0,0,0,282.227,1753.153Z" transform="translate(-273.639 -1752.514)" fill="#0e1f40"/>
            <path id="Path_35142" data-name="Path 35142" d="M294.684,1762.47a1.984,1.984,0,0,0-1.289-.32l-.047-.307a2.278,2.278,0,0,1,1.516.374Z" transform="translate(-283.094 -1758.82)" fill="#0e1f40"/>
            <rect id="Rectangle_13518" data-name="Rectangle 13518" width="0.31" height="6.825" transform="translate(0 0.294) rotate(-71.658)" fill="#0e1f40"/>
          </g>
          <path id="Path_35143" data-name="Path 35143" d="M256.329,1756.7c-2.163,1.533-4.379-3.514-2.474-4.828,1.248-.861,2.351.7,2.351.7Z" transform="translate(-230.105 -1737.827)" fill="#e89ea3"/>
          <path id="Path_35144" data-name="Path 35144" d="M257.763,1755.7a1.728,1.728,0,0,1,.683.553,3.352,3.352,0,0,0-.34-1.23c-.071-.146.142-.274.219-.128a3.43,3.43,0,0,1,.055,3.293c-.07.122-.286.041-.234-.1a5.049,5.049,0,0,0,.277-1.081,1.753,1.753,0,0,0-.793-1.081C257.48,1755.842,257.612,1755.635,257.763,1755.7Z" transform="translate(-233.219 -1740.09)" fill="#d3657d"/>
          <path id="Path_35145" data-name="Path 35145" d="M272.441,1734.626a5.549,5.549,0,0,0,.573,1.442,5.966,5.966,0,0,0,.952,1.269,5.709,5.709,0,0,0,1.269.968,5.007,5.007,0,0,0,1.493.575,19.473,19.473,0,0,0,3.313.258c.56.017,1.123.032,1.683.1a5.3,5.3,0,0,1,.831.154,1.692,1.692,0,0,1,.739.392,1.662,1.662,0,0,0-.752-.34,5.183,5.183,0,0,0-.827-.1c-.556-.028-1.114-.008-1.673.011a19.754,19.754,0,0,1-3.388-.052,5.274,5.274,0,0,1-1.663-.529,6.278,6.278,0,0,1-1.449-.986,6.644,6.644,0,0,1-1.133-1.351,6.213,6.213,0,0,1-.746-1.635Z" transform="translate(-243.118 -1725.902)" fill="#0e1f40"/>
          <path id="Path_35146" data-name="Path 35146" d="M226.583,1737.436a3.47,3.47,0,0,1-.828-.1l.069-.257c.015,0,1.542.4,2.138-.522.422-.654-.1-2.976-.7-5.663-.849-3.8-1.9-8.527-1.163-11.836.9-4.02,3.321-4.99,3.424-5.03l.1.248c-.024.009-2.392.969-3.26,4.84-.729,3.251.32,7.947,1.163,11.72.639,2.859,1.143,5.118.661,5.866A1.814,1.814,0,0,1,226.583,1737.436Z" transform="translate(-210.883 -1711.438)" fill="#0e1f40"/>
          <path id="Path_35147" data-name="Path 35147" d="M223.489,1878.979c-.141,1.081-.33,2.151-.528,3.218-.106.532-.2,1.067-.317,1.6s-.219,1.063-.342,1.591l-.19-.351c1.422.494,2.831,1.022,4.233,1.57s2.792,1.13,4.156,1.784c-1.467-.369-2.9-.822-4.336-1.287s-2.849-.972-4.258-1.5l-.251-.094.06-.257c.124-.528.265-1.052.4-1.578s.282-1.048.423-1.572C222.832,1881.053,223.136,1880.01,223.489,1878.979Z" transform="translate(-208.004 -1827.262)" fill="#d0e9f0"/>
          <rect id="Rectangle_13519" data-name="Rectangle 13519" width="6.362" height="2.017" rx="1.009" transform="translate(24.128 43.239) rotate(174.445)" fill="#00878b"/>
        </g>
        <g id="Group_20395" data-name="Group 20395" transform="translate(66.615 22.619)">
          <path id="Path_35148" data-name="Path 35148" d="M358.915,1782.569l-1.512-1.01a1.479,1.479,0,0,0-.859-.278h-48.19a2.741,2.741,0,0,0-2.678,2.155l-8.3,37.884a1.493,1.493,0,0,0,.639,1.563l-.009,0,1.518,1.024.27-.77h47.238a2.742,2.742,0,0,0,2.678-2.155l8.3-37.884a1.473,1.473,0,0,0,.029-.292Z" transform="translate(-297.345 -1781.28)" fill="#c8e7f0"/>
          <path id="Path_35149" data-name="Path 35149" d="M303.927,1826.567h48.19a2.741,2.741,0,0,0,2.678-2.155l8.3-37.884a1.5,1.5,0,0,0-1.466-1.822h-48.19a2.742,2.742,0,0,0-2.678,2.155l-8.3,37.884A1.5,1.5,0,0,0,303.927,1826.567Z" transform="translate(-300.912 -1783.686)" fill="#6890cb"/>
          <path id="Path_35150" data-name="Path 35150" d="M397.5,1866.806a1.3,1.3,0,0,0-1.279-1.078h-6.306l-.793-.953-.349,1.6a1,1,0,0,0-.058.533l3.725,21.649h8.8Z" transform="translate(-361.495 -1839.908)" fill="#e6f4f3"/>
          <g id="Group_20393" data-name="Group 20393" transform="translate(27.573 24.192)">
            <path id="Path_35151" data-name="Path 35151" d="M393.665,1885.336h8.8l-3.743-21.75a1.3,1.3,0,0,0-1.279-1.078h-6.513a1.008,1.008,0,0,0-.993,1.179Z" transform="translate(-389.925 -1862.508)" fill="#c8e7f0"/>
          </g>
          <g id="Group_20394" data-name="Group 20394" transform="translate(15.125 46.481)">
            <path id="Rectangle_13520" data-name="Rectangle 13520" d="M0,0H13.154a0,0,0,0,1,0,0V0a2.191,2.191,0,0,1-2.191,2.191H0a0,0,0,0,1,0,0V0A0,0,0,0,1,0,0Z" transform="translate(13.154 2.191) rotate(180)" fill="#c8e7f0"/>
            <path id="Rectangle_13521" data-name="Rectangle 13521" d="M0,0H25.032a0,0,0,0,1,0,0V0a2.191,2.191,0,0,1-2.191,2.191H2.191A2.191,2.191,0,0,1,0,0V0A0,0,0,0,1,0,0Z" transform="translate(35.602 2.191) rotate(180)" fill="#1b519f"/>
          </g>
        </g>
        <g id="Group_20399" data-name="Group 20399" transform="translate(124.198 51.72)">
          <g id="Group_20397" data-name="Group 20397">
            <g id="Group_20396" data-name="Group 20396">
              <path id="Path_35152" data-name="Path 35152" d="M516.512,1895.483a14.517,14.517,0,0,0,6.354-9.057s-4.919,1.019-7.384,9.057" transform="translate(-508.097 -1884.211)" fill="#4eb8e3"/>
              <path id="Path_35153" data-name="Path 35153" d="M497.042,1895.483a14.517,14.517,0,0,1-6.354-9.057s4.919,1.019,7.384,9.057" transform="translate(-490.688 -1884.211)" fill="#4eb8e3"/>
              <path id="Path_35154" data-name="Path 35154" d="M514.911,1889.868a14.518,14.518,0,0,0,2.655-10.741s-4.219,2.726-3.615,11.113" transform="translate(-506.981 -1879.086)" fill="#4eb8e3"/>
              <path id="Path_35155" data-name="Path 35155" d="M506.96,1889.789a14.516,14.516,0,0,1-2.4-10.8s4.153,2.826,3.351,11.2" transform="translate(-500.245 -1878.988)" fill="#4eb8e3"/>
            </g>
          </g>
          <g id="Group_20398" data-name="Group 20398" transform="translate(1.818 10.056)">
            <rect id="Rectangle_13522" data-name="Rectangle 13522" width="11.378" height="9.516" transform="translate(11.378 9.516) rotate(180)" fill="#f4f9f4"/>
            <rect id="Rectangle_13523" data-name="Rectangle 13523" width="2.236" height="9.516" transform="translate(2.236 9.516) rotate(180)" fill="#d2ebed"/>
          </g>
        </g>
      </g>
    </g>
  </g>
</svg>
