<svg xmlns="http://www.w3.org/2000/svg" xmlns:xlink="http://www.w3.org/1999/xlink" width="230" height="140" viewBox="0 0 230 140">
  <defs>
    <clipPath id="clip-path">
      <rect id="長方形_14591" data-name="長方形 14591" width="230" height="140" transform="translate(1340 419)" fill="#fff"/>
    </clipPath>
    <clipPath id="clip-path-2">
      <rect id="長方形_14582" data-name="長方形 14582" width="206.722" height="178.46" fill="none"/>
    </clipPath>
    <clipPath id="clip-path-3">
      <rect id="長方形_14590" data-name="長方形 14590" width="171.395" height="196.628" fill="none"/>
    </clipPath>
    <clipPath id="clip-path-5">
      <rect id="長方形_14588" data-name="長方形 14588" width="25.637" height="60.124" fill="none"/>
    </clipPath>
  </defs>
  <g id="product_solutions04" transform="translate(-1340 -419)">
    <rect id="長方形_14577" data-name="長方形 14577" width="230" height="140" transform="translate(1340 419)" fill="#fff"/>
    <g id="マスクグループ_163" data-name="マスクグループ 163" clip-path="url(#clip-path)">
      <g id="グループ_24666" data-name="グループ 24666" transform="translate(-18167 17323.867)">
        <g id="グループ_24667" data-name="グループ 24667" transform="translate(19500 -16880.035)">
          <g id="グループ_24666-2" data-name="グループ 24666" clip-path="url(#clip-path-2)">
            <path id="パス_38903" data-name="パス 38903" d="M56.515,294.47H101.87a3.2,3.2,0,1,1,0,6.352H81.511v20.166H76.874V300.822H56.515a3.2,3.2,0,1,1,0-6.352" transform="translate(-32.316 -191.936)" fill="#0e1f40"/>
            <path id="パス_38904" data-name="パス 38904" d="M310.11,146.114s1.495-3.271,3.139-3.4,6.875-.868,7.249-.2a4.258,4.258,0,0,1-1.121,3.938c-1.121.868-8.071,2.27-8.071,2.27Z" transform="translate(-189.23 -92.707)" fill="#f49b67"/>
            <path id="パス_38905" data-name="パス 38905" d="M218.648,29.813s-.475.984-4.063.93-.62-3.062-.62-3.062l3.73,1.381Z" transform="translate(-129.858 -18.042)" fill="#6c6d6d"/>
            <path id="パス_38906" data-name="パス 38906" d="M158.126,37.106a18,18,0,0,0,1.654-6.8c-.052.36-.752,4.929-2.718,7.515C148.982,42.56,133.5,58.381,133.8,61.379c0,0-5.454-8.264-5.548-8.314,0,0-6.864-10.346,5.061-16.893,6.061-3.327,6.044-9.12,6.06-12.837.046-10.745,6.428-17.389,10.313-15.053a8.647,8.647,0,0,1,2.821-.657,2.535,2.535,0,0,0-1.075.456,10.4,10.4,0,0,1,5.1.872c4.451,2.259,8.434,22.529,1.592,28.153" transform="translate(-77.062 -4.963)" fill="#0e1f40"/>
            <path id="パス_38907" data-name="パス 38907" d="M186.1,75.047c.041.016-3.9,1.844-6.865,1.12-2.789-.679-4.611-3.909-4.572-3.916,1.181-.21,1.521-1.659,1.5-7.888l.534.094,8.977,1.588s-.2,2.524-.21,4.9c-.006,2,.13,3.889.641,4.1" transform="translate(-106.58 -41.951)" fill="#e89ea3"/>
            <path id="パス_38908" data-name="パス 38908" d="M188.85,66.219s-.2,2.523-.21,4.9c-5.023-.126-7.678-4.22-8.766-6.489Z" transform="translate(-109.759 -42.127)" fill="#d3657d"/>
            <path id="パス_38909" data-name="パス 38909" d="M172.264,31.282A22.414,22.414,0,0,1,169,24.39c-.451-2.268.842-10.676,10.3-9.465a13.891,13.891,0,0,1,5.329,1.8c2.053,1.239,5.017,3.914,1.7,11.25l-.861,2.478Z" transform="translate(-103.077 -9.651)" fill="#0e1f40"/>
            <path id="パス_38910" data-name="パス 38910" d="M188.379,42.122s-11.885.175-11.893-6.438-1.547-11.044,6.04-11.435,9.066,2.131,9.669,4.337-.725,13.32-3.816,13.536" transform="translate(-107.611 -15.779)" fill="#e89ea3"/>
            <path id="パス_38911" data-name="パス 38911" d="M171.175,22.739s8.118-4.958,10.686-1.53c.779-.6,2.165-1.028,4,.958,2.755,2.983.3,8.256.3,8.256-1.131.118-1.4-3.349-1.99-5.032a8.611,8.611,0,0,0-2.645-3.128c-1.037,2.088-3.889,7.085-7.819,7.988-4.994,1.147-7.16-.048-7.16-.048a12.507,12.507,0,0,0,4.626-7.463" transform="translate(-101.629 -13.037)" fill="#0e1f40"/>
            <path id="パス_38912" data-name="パス 38912" d="M128.126,118.365c-1.172-4.391,2.815-12.911,6.978-19.965,3.777-6.393,7.7-11.579,8.049-11.393,9.961,5.281,10.861.891,10.861.891s9.048,1.073,11.61,5.013c3.544,5.448,7.4,21.8,11.195,21.554,1.74-.111,19.255-5.992,19.255-5.992s2.918,2.442,2.359,5.437c0,0-8.648,5.173-15.961,8.474-3.868,1.746-7.364,2.968-9.007,2.622-3.331-.7-8.535-7.6-11.347-11.661l-.018-.027c-3.589,18.147,1.291,22.28-1.18,24.193-2.609,2.021-6.335-.962-14.534,2.212-5.378,2.084-12.84,5.1-17.864,5.621-2.635.276-4.6-.133-5.241-1.723-1.864-4.619,7.08-16.886,4.844-25.256" transform="translate(-75.07 -56.708)" fill="#b4c5e6"/>
            <path id="パス_38913" data-name="パス 38913" d="M200.428,63.138s.221.84,2.561.711c0,0,1.965-.109,1.9-1.032a7.024,7.024,0,0,0-4.465.321" transform="translate(-122.302 -40.803)" fill="#fff"/>
            <path id="パス_38914" data-name="パス 38914" d="M123.282,178.38c.641,1.589,2.607,2,5.241,1.723,3.477-1.353,18.5-6.551,18.329-10.073-.249-5.215-2.888-5.381-1.025-11.817,1.5-5.168-8.675-15.794-10.888-17.883-4.163,7.054-7.985,8.4-6.813,12.795,2.236,8.37-6.708,20.637-4.844,25.256" transform="translate(-75.07 -91.467)" fill="#789ad0"/>
            <path id="パス_38915" data-name="パス 38915" d="M223.317,160.978c2.812,4.061,8.016,10.961,11.347,11.661,1.643.346,5.139-.876,9.007-2.622a26.113,26.113,0,0,1-8.23.4c-2.888-.25-3.727-3.412-8.292-8.156-2.961-3.076-3.687-2.3-3.833-1.287" transform="translate(-136.269 -104.341)" fill="#789ad0"/>
            <path id="パス_38916" data-name="パス 38916" d="M183.575,9.755s-12.121,1.189-18.411-.41c0,0,.115-8.284,9.206-8.284s9.2,8.694,9.2,8.694" transform="translate(-100.784 -0.692)" fill="#e44a3d"/>
            <path id="パス_38917" data-name="パス 38917" d="M188.191,22.414s5.983.931,6.2,3.966c0,0-6.443-3.883-11.784.356-3.122,2.529-9.55-2.937-9.55-2.937Z" transform="translate(-105.598 -14.61)" fill="#e44a3d"/>
            <path id="パス_38918" data-name="パス 38918" d="M188.191,9.325s-4.371-1.055-15.137,1.384c0-.013,1.359-8.1,7.048-8.368,4.86-.227,7.511,4.326,8.14,7.042Z" transform="translate(-105.598 -1.52)" fill="#c23d32"/>
            <path id="パス_38919" data-name="パス 38919" d="M186.6.406c0,.224.627.406,1.4.406s1.4-.182,1.4-.406S188.773,0,188,0s-1.4.182-1.4.406" transform="translate(-113.863)" fill="#c23d32"/>
            <path id="パス_38920" data-name="パス 38920" d="M163.8,110.106c4.821-8.174.531-22.326.531-22.326l2.065-.312c3.029,2.09,4.378,13.659,4.378,13.659H182.6c.741-5.523-2.727-12.781-2.727-12.781l3.037.652c6.009,15.212,3.051,38.428,3.051,38.428h-15.9a14.766,14.766,0,0,1,.656-3.669c1.012-3.5-3.317-9.492-6.908-13.651" transform="translate(-99.952 -57.013)" fill="#e44a3d"/>
            <path id="パス_38921" data-name="パス 38921" d="M127.585,202.224h17.587c-.089,3.128,1.49,4.17,1.68,8.149.168,3.522-14.852,8.72-18.329,10.073-2.635.276-4.6-.133-5.241-1.723-1.273-3.156,2.5-9.884,4.3-16.5" transform="translate(-75.07 -131.81)" fill="#8c2b29"/>
            <path id="パス_38922" data-name="パス 38922" d="M135.265,161.045l0-.018,4.426-3.561a10.814,10.814,0,0,0,6.372-4.984c3.592,4.159,7.92,10.154,6.908,13.651a14.763,14.763,0,0,0-.656,3.669H134.724c.836-3.065,1.25-6.107.541-8.757" transform="translate(-82.209 -99.388)" fill="#c23d32"/>
            <path id="パス_38923" data-name="パス 38923" d="M185.26,188.985s2.1-2.143,4.518-2.138,3.875,1.236,3.925,1.906a3.808,3.808,0,0,1-2.534,3.194c-1.748.472-7.072.207-7.072.207Z" transform="translate(-112.336 -121.787)" fill="#e89ea3"/>
            <path id="パス_38924" data-name="パス 38924" d="M136.936,87.017s-9.687.533-13.04,4.711c-4.72,5.881-12.919,29.891-10.683,35.383l29.442.021s.743-3.114-.251-4.556-17.142-3.773-17.887-4.438,9.317-12.983,9.317-14.98,3.1-16.14,3.1-16.14" transform="translate(-68.852 -56.718)" fill="#b4c5e6"/>
            <path id="パス_38925" data-name="パス 38925" d="M170.722,101.128s-.921-10.968-4.379-13.659l-2.629.419s2.645,8.752,2.255,14.113,3.157,4.322,3.157,4.322Z" transform="translate(-99.899 -57.013)" fill="#e44a3d"/>
            <path id="パス_38926" data-name="パス 38926" d="M224.949,385.571a1.5,1.5,0,0,0,.963,1.388.016.016,0,0,0,.01,0c1.12.551,3.085.606,5.224.523.274-.01.52-.017.74-.017.058,0,.115,0,.172,0h.132c2.117.047,1.893.613,5.916.921,4.585.35,6.275-.9,6.545-1.475.227-.484-1.74-1.033-3.939-1.661l-.32-.092c-.293-.083-.587-.17-.88-.255-2.618-.777-5.195-1.7-5.837-4.066-.682-2.51,1.367-9.515,1.367-9.515l-7.267-.7s-.7,7.324-1.157,9.605a23.447,23.447,0,0,1-1.226,3.231c-.026.073-.05.146-.073.22a6.476,6.476,0,0,0-.371,1.888" transform="translate(-137.264 -241.576)" fill="#d6814d"/>
            <path id="パス_38927" data-name="パス 38927" d="M224.949,409.6a1.5,1.5,0,0,0,.963,1.388.016.016,0,0,0,.01,0,14.44,14.44,0,0,0,5.221.511c.274-.007.52-.008.744,0,.058,0,.115,0,.172,0h.132c2.117.047,1.893.613,5.916.921,4.585.35,6.275-.9,6.545-1.475.227-.484-1.74-1.033-3.939-1.661a15.1,15.1,0,0,1-7.036.536c-3.06-.514-6.1-1.874-8.284-2.328-.026.073-.05.146-.073.22a6.476,6.476,0,0,0-.371,1.888" transform="translate(-137.264 -265.605)" fill="#af3d35"/>
            <path id="パス_38928" data-name="パス 38928" d="M337.733,366.185c.4,1.8,3.28,1.5,6.494.8s2.45.133,7.024-.32,5.96-1.976,6.1-2.583c.125-.539-2.135-.729-4.559-.979-.3-.03-.611-.064-.918-.1-2.737-.307-4.741-1.884-7.228-3.18-2.355-1.227-5.869-6.228-5.869-6.228l-6.273.444s3.292,4.466,4.565,6.408a6.129,6.129,0,0,1,.616,3.819,6.428,6.428,0,0,0,.048,1.917" transform="translate(-202.895 -230.476)" fill="#d6814d"/>
            <path id="パス_38929" data-name="パス 38929" d="M352.263,384.78c3.214-.7,2.45.133,7.024-.32s5.96-1.976,6.1-2.583c.125-.539-2.136-.729-4.559-.979l-.023.041a13.915,13.915,0,0,1-6.551,1.819c-3.1.067-6.39-.727-8.533-.7a6.428,6.428,0,0,0,.048,1.917c.4,1.8,3.281,1.5,6.494.8" transform="translate(-210.93 -248.271)" fill="#af3d35"/>
            <path id="パス_38930" data-name="パス 38930" d="M250.557,270.029l-13.52,32.5a13.813,13.813,0,0,1-4.068-.333,18.42,18.42,0,0,1-3.932-1.711s3.354-31.206,9.5-37.7,12.017,7.24,12.017,7.24" transform="translate(-139.759 -170.151)" fill="#19488a"/>
            <path id="パス_38931" data-name="パス 38931" d="M135.35,231.139s38.847-11.734,47.511-9.237,34.677,48.728,34.677,48.728a5.072,5.072,0,0,1-2.189,1.235,23.057,23.057,0,0,1-5.1.467s-23.476-17.975-26.271-23.218-3.913-10.236-6.707-9.736-36.053,12.233-43.6,5.243a17.972,17.972,0,0,1-5.573-16.073Z" transform="translate(-78.025 -144.409)" fill="#0e1f40"/>
            <path id="パス_38932" data-name="パス 38932" d="M164.114,134.786l5.828-.174a.67.67,0,0,0,.687-.656l-.088-2.329a.682.682,0,0,0-.734-.613l-5.828.174a.669.669,0,0,0-.686.656l.087,2.329a.683.683,0,0,0,.734.613" transform="translate(-99.641 -85.395)" fill="#d4e6f6"/>
            <path id="パス_38979" data-name="パス 38979" d="M0,0,1.9.007l.009,2.275-1.9-.007Z" transform="matrix(0.999, -0.033, 0.033, 0.999, 68.109, 46.313)" fill="#5582c2"/>
            <path id="パス_38933" data-name="パス 38933" d="M165.678,133.73l2.363-.071a.3.3,0,0,0,.308-.294.306.306,0,0,0-.329-.275l-2.364.071a.3.3,0,0,0-.307.294.306.306,0,0,0,.329.275" transform="translate(-100.897 -86.749)" fill="#5582c2"/>
            <path id="パス_38934" data-name="パス 38934" d="M165.567,136.638l2.757-.083a.115.115,0,0,0,.117-.112.117.117,0,0,0-.125-.1l-2.757.083a.115.115,0,0,0-.117.112.116.116,0,0,0,.125.1" transform="translate(-100.953 -88.866)" fill="#5582c2"/>
            <path id="パス_38935" data-name="パス 38935" d="M165.6,137.649l2.757-.083a.115.115,0,0,0,.117-.112.117.117,0,0,0-.126-.1l-2.757.083a.115.115,0,0,0-.117.112.117.117,0,0,0,.126.1" transform="translate(-100.974 -89.525)" fill="#5582c2"/>
            <path id="パス_38936" data-name="パス 38936" d="M209.146,410.3H42.74v-54.07l166.406-.539Z" transform="translate(-26.08 -231.84)" fill="#1b519f"/>
            <rect id="長方形_14579" data-name="長方形 14579" width="166.406" height="14.14" transform="translate(16.66 80.605)" fill="#1b519f"/>
            <path id="パス_38937" data-name="パス 38937" d="M5.1,212.416h196.53a4.847,4.847,0,0,0,5.1-4.552v-1.087a4.847,4.847,0,0,0-5.1-4.552H5.1A4.848,4.848,0,0,0,0,206.776v1.087a4.847,4.847,0,0,0,5.1,4.552" transform="translate(0 -131.81)" fill="#0e1f40"/>
            <path id="パス_38938" data-name="パス 38938" d="M207.065,301.209l-164.325.539V272.1H207.065Z" transform="translate(-26.08 -177.358)" fill="#99bce3"/>
            <path id="パス_38939" data-name="パス 38939" d="M349.711,89.454h12.268a1.094,1.094,0,0,0,1.151-1.028v-2.5a1.094,1.094,0,0,0-1.151-1.028H349.711a1.1,1.1,0,0,0-1.151,1.028v2.5a1.1,1.1,0,0,0,1.151,1.028" transform="translate(-212.692 -55.339)" fill="#19488a"/>
            <path id="パス_38940" data-name="パス 38940" d="M333.327,116.118H356.1v-7.5H338.4a4.821,4.821,0,0,0-5.069,4.528Z" transform="translate(-203.397 -70.796)" fill="#4c86c6"/>
            <path id="パス_38941" data-name="パス 38941" d="M264.336,155.253h48.488V130.161H283.652a7.535,7.535,0,0,0-6.516,3.5Z" transform="translate(-161.299 -84.839)" fill="#19488a"/>
            <path id="パス_38942" data-name="パス 38942" d="M296.136,155.253h48.488V131.765a1.708,1.708,0,0,0-1.8-1.6H315.452a7.535,7.535,0,0,0-6.517,3.5Z" transform="translate(-180.703 -84.839)" fill="#4c86c6"/>
            <path id="パス_38943" data-name="パス 38943" d="M343.063,116.118h22.773v-5.9a1.708,1.708,0,0,0-1.8-1.6H348.132a4.821,4.821,0,0,0-5.069,4.528Z" transform="translate(-209.338 -70.796)" fill="#19488a"/>
            <rect id="長方形_14580" data-name="長方形 14580" width="2.342" height="3.705" transform="translate(143.657 34.115)" fill="#4c86c6"/>
            <path id="パス_38944" data-name="パス 38944" d="M353.951,89.454h12.268a1.094,1.094,0,0,0,1.151-1.028v-2.5a1.094,1.094,0,0,0-1.151-1.028H353.951A1.094,1.094,0,0,0,352.8,85.93v2.5a1.094,1.094,0,0,0,1.151,1.028" transform="translate(-215.28 -55.339)" fill="#4c86c6"/>
            <rect id="長方形_14581" data-name="長方形 14581" width="9.58" height="2.078" transform="translate(140.398 30.601)" fill="#19488a"/>
          </g>
        </g>
        <g id="グループ_24674" data-name="グループ 24674" transform="translate(19560.895 -16889)">
          <g id="グループ_24673" data-name="グループ 24673" transform="translate(0)" clip-path="url(#clip-path-3)">
            <g id="グループ_24672" data-name="グループ 24672">
              <g id="グループ_24671" data-name="グループ 24671" clip-path="url(#clip-path-3)">
                <path id="パス_38945" data-name="パス 38945" d="M148.134,356.545s-.434-4.74,1.275-6.715,4.692-3.317,6.281-2.054,3.353,6.745,3.264,7.584-10.82,1.185-10.82,1.185" transform="translate(-97.331 -225.156)" fill="#784d2a"/>
                <path id="パス_38946" data-name="パス 38946" d="M144.293,367.618l1.7,22.161,14.088-1.5-2.13-22.071Z" transform="translate(-94.839 -237.425)" fill="#93663f"/>
                <path id="パス_38947" data-name="パス 38947" d="M120.518,302.441s9.549-24.719,18.1-24.426c0,0,3.723,1.22-.16,5.056s-17.938,19.37-17.938,19.37" transform="translate(-79.213 -180.245)" fill="#79b657"/>
                <path id="パス_38948" data-name="パス 38948" d="M121.991,329.583s15.6-12.706,19.043-9.976c0,0,1.945,1.332-.349,2.463s-11.348,2.624-18.694,7.513" transform="translate(-80.181 -206.964)" fill="#79b657"/>
                <path id="パス_38949" data-name="パス 38949" d="M118.394,318.413c.1-.142,5.872-13.811,3.6-13.864s-3.6,13.864-3.6,13.864" transform="translate(-77.817 -197.45)" fill="#79b657"/>
                <path id="パス_38950" data-name="パス 38950" d="M86.056,347.465c.05-.212,9.819-12.852,9.819-12.852s3.122.028,3.757,1.9,2.538,1.311,3.441,2.22l-11.885,14.2Z" transform="translate(-56.562 -216.941)" fill="#ce8800"/>
                <path id="パス_38951" data-name="パス 38951" d="M191.165,405.054l-5.329-.714a1.848,1.848,0,0,1-1.56-2.081l1.837-14.429a1.819,1.819,0,0,1,2.029-1.6l5.329.714a1.848,1.848,0,0,1,1.56,2.081l-1.837,14.428a1.819,1.819,0,0,1-2.029,1.6" transform="translate(-121.108 -250.395)" fill="#6890cb"/>
                <path id="パス_38952" data-name="パス 38952" d="M199.908,384.159l-2.083-.279a.723.723,0,0,1-.61-.814l.718-5.639a.711.711,0,0,1,.793-.625l2.082.279a.722.722,0,0,1,.61.813l-.718,5.639a.711.711,0,0,1-.793.626" transform="translate(-129.62 -244.29)" fill="#6890cb"/>
                <path id="パス_38980" data-name="パス 38980" d="M.03.046,9.254.016,9.235,5.86.01,5.89Z" transform="matrix(0.129, -0.992, 0.992, 0.129, 65.284, 147.63)" fill="#ce8800"/>
                <path id="パス_38953" data-name="パス 38953" d="M164.089,427.6l-7.461-.405a.9.9,0,0,1-.835-.953l.125-2.421a.892.892,0,0,1,.929-.857l7.461.406a.9.9,0,0,1,.836.953l-.125,2.421a.893.893,0,0,1-.929.857" transform="translate(-102.397 -274.218)" fill="#6890cb"/>
                <path id="パス_38954" data-name="パス 38954" d="M167.746,422.8l-2.8-.152a.337.337,0,0,1-.314-.358l.047-.909a.335.335,0,0,1,.349-.322l2.8.152a.338.338,0,0,1,.314.358l-.047.909a.335.335,0,0,1-.349.322" transform="translate(-108.206 -272.988)" fill="#6890cb"/>
                <path id="パス_38981" data-name="パス 38981" d="M.019,0l1.8,0L1.811,9.24l-1.8,0Z" transform="translate(53.408 151.715) rotate(-86.97)" fill="#ce8800"/>
                <path id="パス_38978" data-name="パス 38978" d="M.4.28,27.516.1l-.259,39.028L.138,39.308Z" transform="translate(1.625 112.36) rotate(-15.706)" fill="#6890cb"/>
                <path id="パス_38982" data-name="パス 38982" d="M.03.037,19.64.013l-.02,15.629L.01,15.665Z" transform="translate(33.269 151.564) rotate(-87.231)" fill="#6890cb"/>
                <path id="パス_38983" data-name="パス 38983" d="M.02.007,3.8,0l-.013,10.48-3.785,0Z" transform="translate(21.967 150.593) rotate(-87.231)" fill="#6890cb"/>
                <path id="パス_38955" data-name="パス 38955" d="M228.676,511.693a8.076,8.076,0,1,0,7.868,8.073,7.973,7.973,0,0,0-7.868-8.073" transform="translate(-145.13 -331.749)" fill="#365a6c"/>
                <path id="パス_38956" data-name="パス 38956" d="M236.824,524.089a3.715,3.715,0,1,0,3.62,3.714,3.668,3.668,0,0,0-3.62-3.714" transform="translate(-153.278 -339.785)" fill="#6890cb"/>
                <path id="パス_38957" data-name="パス 38957" d="M45.594,511.693a8.076,8.076,0,1,0,7.868,8.073,7.973,7.973,0,0,0-7.868-8.073" transform="translate(-24.796 -331.749)" fill="#365a6c"/>
                <path id="パス_38958" data-name="パス 38958" d="M53.741,524.089a3.715,3.715,0,1,0,3.62,3.714,3.668,3.668,0,0,0-3.62-3.714" transform="translate(-32.943 -339.785)" fill="#6890cb"/>
                <path id="パス_38959" data-name="パス 38959" d="M99.669,266.615A1.159,1.159,0,0,0,98,266.551L87.93,276.14a1.218,1.218,0,0,0-.322.521l-1.279,4.124L1.813,284.9a1.168,1.168,0,0,0-.818.4,1.227,1.227,0,0,0-.305.873l1.73,36.491a1.2,1.2,0,0,0,1.093,1.149l69.4,5.167c.029,0,.058,0,.086,0a1.184,1.184,0,0,0,1.124-.844l14.2-45.782c.006-.018.012-.037.017-.056l1.425-4.6,9.844-9.373a1.233,1.233,0,0,0,.062-1.711M76.052,313.921l-7.762-.305,3.247-13.44,8.8-.077Zm-9.85-.387-8.736-.344,2.953-12.918,9.006-.078ZM54.724,325.19l2.267-9.917,8.709.342-2.466,10.208Zm-10.091-.751,1.736-9.584,8.539.336-2.25,9.845Zm-11.121-.828L34.87,314.4l9.433.371-1.723,9.512Zm-9.278-.691.655-8.909,7.923.312-1.347,9.136Zm-11.254-.838.539-8.518,9.324.366-.649,8.838ZM3.746,300.765l8.538-.074-.677,10.7-7.371-.29Zm10.59-.092,9.489-.082L23,311.836l-9.345-.367ZM24.882,286.2l-.9,12.291-9.51.082.754-11.9Zm12.164-.592L35.16,298.392l-9.129.08L26.94,286.1Zm12.651-.615-2.408,13.3-10.056.087,1.9-12.868Zm12.25-.6-3.152,13.791-9.422.082L51.8,284.89ZM36.922,300.476l9.985-.087-2.227,12.3-9.5-.373Zm-3.8,11.757-8.077-.318.834-11.343,8.974-.078Zm15.872-11.862,9.322-.081-2.929,12.818-8.637-.34Zm11.908-2.2,3.172-13.877,9.3-.453-3.442,14.25Zm-47.734-11.4-.748,11.821-8.771.076-.541-11.408ZM4.336,313.2l7.139.281-.535,8.447-6.213-.462Zm67.818,13.285-6.851-.51,2.483-10.28,7.621.3Zm8.837-28.493-8.946.078,3.463-14.336,10.057-.49Z" transform="translate(-0.453 -172.604)" fill="#0e1f40"/>
                <path id="パス_38960" data-name="パス 38960" d="M274.271,269.106a1.4,1.4,0,0,1-1.062-.492,1.48,1.48,0,0,1,.125-2.051l5.151-4.663a1.391,1.391,0,0,1,2,.128,1.48,1.48,0,0,1-.125,2.051l-5.15,4.663a1.39,1.39,0,0,1-.937.364" transform="translate(-179.339 -169.563)" fill="#ca7900"/>
                <path id="パス_38961" data-name="パス 38961" d="M3.146,358.021a1.433,1.433,0,0,1-1.413-1.382L0,320.147a1.439,1.439,0,0,1,1.346-1.522,1.425,1.425,0,0,1,1.483,1.381L4.562,356.5a1.439,1.439,0,0,1-1.346,1.522l-.07,0" transform="translate(0 -206.575)" fill="#0e1f40"/>
                <path id="パス_38962" data-name="パス 38962" d="M86.045,471.281,84.462,461.5a1.2,1.2,0,0,0,1.123-1.209v-13.24a1.224,1.224,0,0,0-.432-.937l-9.6-8.073a1.161,1.161,0,0,0-1.661.169,1.233,1.233,0,0,0,.165,1.7l9.167,7.71v11.478L15.607,460.36l-2.185-6.312a1.172,1.172,0,0,0-1.507-.736,1.219,1.219,0,0,0-.717,1.546l2.077,6-9.08,3.64a1.221,1.221,0,0,0-.67,1.568,1.183,1.183,0,0,0,1.1.771,1.156,1.156,0,0,0,.429-.083l9.874-3.958,1.417-.026,6.351,9.357c.328.483.94.157.913-.488l-.378-9,54.1-1,8,10.051c.28.352.786.061.71-.408" transform="translate(-2.262 -283.823)" fill="#0e1f40"/>
                <path id="パス_38963" data-name="パス 38963" d="M471.075,512.7s3.1,2.944,2.492,5.036-3.4,3.487-3.776,6.044-1.888,3.952-3.247,3.952h-6.48s-1-1.8,1.416-2.342,3.328-3.547,3.176-6.336a51.265,51.265,0,0,1,.227-6.509l5.135-1.24Z" transform="translate(-302.251 -331.495)" fill="#132a4e"/>
                <path id="パス_38964" data-name="パス 38964" d="M346.855,533.315s.755,6.2-.6,6.9-17.6.465-17.6.465,0-2.092,2.794-2.557,7.7-2.17,8.533-5.967,6.872,1.163,6.872,1.163" transform="translate(-216.015 -344.086)" fill="#132a4e"/>
                <path id="パス_38965" data-name="パス 38965" d="M338.9,265.931s.917,11.746,2,25.865c1.466,19.179,3.229,42.739,3.4,47.2.3,7.75,1.511,20.147,1.511,20.147s2.868,2.945,8.609,1.7A207.475,207.475,0,0,0,361,324.428c.023-.307.045-.616.068-.925,1.359-19.061,3.473-59.2,3.473-59.2Z" transform="translate(-222.751 -171.358)" fill="#365a6c"/>
                <g id="グループ_24670" data-name="グループ 24670" transform="translate(116.153 92.946)" style="mix-blend-mode: multiply;isolation: isolate">
                  <g id="グループ_24669" data-name="グループ 24669">
                    <g id="グループ_24668" data-name="グループ 24668" clip-path="url(#clip-path-5)">
                      <path id="パス_38966" data-name="パス 38966" d="M338.9,265.931s.917,11.746,2,25.865L361,324.428c.023-.307.045-.616.068-.925,1.359-19.061,3.473-59.2,3.473-59.2Z" transform="translate(-338.904 -264.304)" fill="#365a6c"/>
                    </g>
                  </g>
                </g>
                <path id="パス_38967" data-name="パス 38967" d="M351.13,258.755s16.538,42.539,27.412,62.53,14.273,25.57,14.273,25.57,6.23-2.557,6.8-4.3c0,0-4.158-38.593-11.441-48-4.115-5.316-8.949-21.27-9.175-26.849s-1.473-16.621-1.473-16.621Z" transform="translate(-230.787 -162.787)" fill="#365a6c"/>
                <path id="パス_38968" data-name="パス 38968" d="M291.865,240.256l-1.465,2.151a5.9,5.9,0,0,0-5.091,6.46s.251,2.432,1.818,1.731.86-.665,3.092-1.6,3.812-2.852,3.741-4.672l.725-1.9Z" transform="translate(-187.522 -155.766)" fill="#e89ea3"/>
                <path id="パス_38969" data-name="パス 38969" d="M380.786,60.4s-11.18,5.649-17.644,3.557a15.6,15.6,0,0,1,4.366-3.652c-.156-.95-.281-1.819-.379-2.6a42.37,42.37,0,0,1-.379-4.5l2.649-2.191,5.742-4.748a20.545,20.545,0,0,0,.293,4.26v.008a16.619,16.619,0,0,0,5.353,9.86" transform="translate(-238.682 -29.998)" fill="#e89ea3"/>
                <path id="パス_38970" data-name="パス 38970" d="M300.832,151.8a18.746,18.746,0,0,1-2.487-3.458s12.129-15.462,13.114-17.065,8.352-27.322,8.352-27.322l18.627-3.872S322.891,133,320.315,137.008c-4.256,6.631-16.99,16.5-16.99,16.5a7.65,7.65,0,0,1-2.493-1.708" transform="translate(-196.093 -64.887)" fill="#006165"/>
                <path id="パス_38971" data-name="パス 38971" d="M336.412,146.733a1.032,1.032,0,0,0,.679.266c2.427-.034,9.5,1.349,15.492.718a43.745,43.745,0,0,0,14.315-4.239c.637-.293,2.1-1.1,2.071-1.827-.021-.8-.1-1.961-.2-3.422a187.775,187.775,0,0,1-.355-23.906c.1-1.878.158-3.74.165-5.574.049-13.666-2.592-25.688-7.9-29.756-.453-.333-3.236,1.062-5.793,2.357a10.34,10.34,0,0,1-6.957.864L345.7,84.239a22.969,22.969,0,0,0-6.99,11.456c-1.1,4.549-1.748,12.751-2.1,21.252-.162,3.852-.292,7.737-.325,11.423v.132c-.031.365-.031.765-.031,1.13-.13,9.463,0,16.967.161,17.1" transform="translate(-220.972 -51.182)" fill="#00878b"/>
                <path id="パス_38972" data-name="パス 38972" d="M411.41,175.679a187.79,187.79,0,0,1-.354-23.907c.1-1.878.158-3.74.165-5.574-2.211-5.5-4.018-9.494-4.018-9.494H401.63s-4.085,28.633,9.78,38.974" transform="translate(-263.61 -88.631)" fill="#006165"/>
                <path id="パス_38973" data-name="パス 38973" d="M462.875,249.563l1.058,1.871s-2.072,4.5,2.844,6.185c0,0,2.115.548,2.3-.957s-.131-.913.176-3.037-.5-4.016-2.028-4.522l-1.205-1.184Z" transform="translate(-304.233 -160.735)" fill="#e89ea3"/>
                <path id="パス_38974" data-name="パス 38974" d="M416.208,142.289a17.793,17.793,0,0,1-4.182.239s-5.957-18.883-6.724-20.608-17.7-22.141-17.7-22.141l7.052-18.109s18.31,31.382,20.169,35.791c3.072,7.287,4.138,23.624,4.138,23.624a7.576,7.576,0,0,1-2.759,1.2" transform="translate(-254.762 -52.95)" fill="#00878b"/>
                <path id="パス_38975" data-name="パス 38975" d="M382.352,56.634a.007.007,0,0,1,0,0v0c-.112.2-3.438,6.314-8.3,7.17a42.309,42.309,0,0,1-.379-4.5l2.649-2.191c1.58-.933,3-1.541,3.534-1.424a6.95,6.95,0,0,1,2.5.936v0Z" transform="translate(-245.6 -36.101)" fill="#d3657d"/>
                <path id="パス_38976" data-name="パス 38976" d="M363.906,32.146s10.675,1.82,11.677-5.019,3.055-11.209-3.718-12.66-8.483.954-9.359,3.153-1.351,13.876,1.4,14.526" transform="translate(-237.815 -9.093)" fill="#e89ea3"/>
                <path id="パス_38977" data-name="パス 38977" d="M370.267,17.376s-1.1-.188-.918-1.736.174-3.572-1.053-3.195-1.288,1.385-1.792.8-.513-3.068-4.163-3.241-5.133,1.131-6.831.365-1.787-3.4-1.787-3.4A2.966,2.966,0,0,0,354.935,8.2s-2.832-3.974.447-6.7S362,.564,363.9.682c4.18.26,6.881.517,8.246,3.336s.8,10.645-1.88,13.358" transform="translate(-232.491 0)" fill="#0e1f40"/>
              </g>
            </g>
          </g>
        </g>
      </g>
    </g>
  </g>
</svg>
