<svg xmlns="http://www.w3.org/2000/svg" width="157.976" height="157.976" viewBox="0 0 157.976 157.976">
  <g id="Group_17521" data-name="Group 17521" transform="translate(-650.714 -1311.544)">
    <path id="Path_17153" data-name="Path 17153" d="M43.1,67.761,43,248-.072,205.161,0,110.862Z" transform="translate(826.128 1263.681) rotate(45)" fill="#c30f0e"/>
    <path id="Path_17157" data-name="Path 17157" d="M-32.664,0H-29.8V-3.952h1.392c2.512,0,4.7-1.248,4.7-4.08,0-2.944-2.16-3.872-4.784-3.872h-4.176ZM-29.8-6.208v-3.44h1.168c1.376,0,2.144.416,2.144,1.616,0,1.168-.672,1.824-2.064,1.824ZM-21.9,0h2.832V-9.1H-21.9Zm1.424-10.368a1.485,1.485,0,0,0,1.616-1.456A1.487,1.487,0,0,0-20.472-13.3,1.492,1.492,0,0,0-22.1-11.824,1.49,1.49,0,0,0-20.472-10.368ZM-12.744.224A4.536,4.536,0,0,0-9.752-.848L-10.84-2.72a2.61,2.61,0,0,1-1.584.64c-1.12,0-1.936-.96-1.936-2.464,0-1.52.784-2.48,2.032-2.48a1.736,1.736,0,0,1,1.168.5l1.328-1.824a3.94,3.94,0,0,0-2.656-.976,4.61,4.61,0,0,0-4.784,4.784A4.4,4.4,0,0,0-12.744.224ZM-8.168,0H-5.4V-2.224l1.088-1.232L-2.344,0H.744L-2.7-5.344.52-9.1H-2.568L-5.336-5.648H-5.4v-7.136H-8.168Zm18.8.224C13.8.224,15.4-1.584,15.4-5.6v-6.3H12.648V-5.3c0,2.256-.72,3.056-2.016,3.056-1.312,0-1.984-.8-1.984-3.056V-11.9H5.8v6.3C5.8-1.584,7.448.224,10.632.224ZM18.072,0h2.864V-3.952h1.392c2.512,0,4.7-1.248,4.7-4.08,0-2.944-2.16-3.872-4.784-3.872H18.072Zm2.864-6.208v-3.44H22.1c1.376,0,2.144.416,2.144,1.616,0,1.168-.672,1.824-2.064,1.824ZM29.944-4.32h1.84L32.2-9.728l.1-2.528H29.432l.1,2.528ZM30.856.224a1.7,1.7,0,0,0,1.7-1.776,1.692,1.692,0,0,0-1.7-1.76,1.689,1.689,0,0,0-1.68,1.76A1.693,1.693,0,0,0,30.856.224Z" transform="translate(736.031 1394.861) rotate(-45)" fill="#fff" stroke="rgba(0,0,0,0)" stroke-width="1"/>
  </g>
</svg>
