<svg id="Group_17465" data-name="Group 17465" xmlns="http://www.w3.org/2000/svg" xmlns:xlink="http://www.w3.org/1999/xlink" width="131.033" height="16.971" viewBox="0 0 131.033 16.971">
  <defs>
    <clipPath id="clip-path">
      <path id="Path_16554" data-name="Path 16554" d="M525.992,619.931v.677h.169c.749,0,.876,0,.876.227a3.072,3.072,0,0,1-.249.825c-.044.108-.094.241-.155.4l-2.457,6.33h0l-2.32-6.207a8.864,8.864,0,0,1-.464-1.268c0-.2.018-.3.814-.3h.173v-.677h-5.4v.677h.375c.631,0,.742.108.825.245a9.364,9.364,0,0,1,.674,1.326l3.581,9.6h2.108l3.718-9.6a9.179,9.179,0,0,1,.612-1.376c.08-.1.123-.2.739-.184l.209,0v-.677Z" transform="translate(-516.974 -619.931)" fill="none"/>
    </clipPath>
    <radialGradient id="radial-gradient" cx="0.5" cy="0.5" r="0.521" gradientTransform="matrix(0.922, 0, 0, -1, -1.344, 17.368)" gradientUnits="objectBoundingBox">
      <stop offset="0" stop-color="#00a0e9"/>
      <stop offset="1" stop-color="#0068b7"/>
    </radialGradient>
    <clipPath id="clip-path-2">
      <path id="Path_16555" data-name="Path 16555" d="M295.588,613.346a17.446,17.446,0,0,0-2.242.229c-3.548.551-8.333,2.778-12.743,5.75A54.316,54.316,0,0,0,269.176,630.1s7.349-8.124,11.4-8.394c1.185-.08,1.243.709,1.185,1.736a54.462,54.462,0,0,1-1.038,6.871s3.671-11.817,10.39-14.259c6.953-2.529-4.158,6.964-4.158,6.964,10.4-7.164,12.166-9.606,8.934-9.675Z" transform="translate(-269.176 -613.346)" fill="none"/>
    </clipPath>
    <radialGradient id="radial-gradient-2" cx="0.47" cy="0.5" r="0.685" gradientTransform="matrix(0.567, 0, 0, -1, -1.676, 12.456)" xlink:href="#radial-gradient"/>
    <clipPath id="clip-path-3">
      <path id="Path_16556" data-name="Path 16556" d="M291.839,614.822a71,71,0,0,0-6.105,6.469,79.7,79.7,0,0,1,6.545-5.547c1.956-1.52,2.237-1.2,2.317-1.837.036-.295-.086-.414-.31-.414a6.093,6.093,0,0,0-2.446,1.329" transform="translate(-285.734 -613.493)" fill="none"/>
    </clipPath>
    <radialGradient id="radial-gradient-3" cx="0.498" cy="0.5" r="0.535" gradientTransform="matrix(0.876, 0, 0, -1, -1.708, 27.091)" xlink:href="#radial-gradient"/>
    <clipPath id="clip-path-4">
      <path id="Path_16558" data-name="Path 16558" d="M548.376,621.133a6.13,6.13,0,0,0-1.475,4.234v.4a6.187,6.187,0,0,0,1.515,4.225,6.707,6.707,0,0,0,4.677,1.643,19.89,19.89,0,0,0,4.435-.432v-4.284a.176.176,0,0,1,.162-.187,2.258,2.258,0,0,1,.282-.011c.094,0,.191,0,.281,0l.141-.007v-.728h-4.266v.728l.141.007a3.842,3.842,0,0,1,.515.018.212.212,0,0,1,.216.216v3.329a.334.334,0,0,1-.241.324,3.191,3.191,0,0,1-.674.022,3.547,3.547,0,0,1-3.077-1.243,5.509,5.509,0,0,1-1.149-3.732,6.635,6.635,0,0,1,1.03-4,4.092,4.092,0,0,1,3.43-1.387,2.445,2.445,0,0,1,2.464,1.823l.011.155h.742v-2.212a14.542,14.542,0,0,0-2.039-.446,18.82,18.82,0,0,0-2.36-.144,6.957,6.957,0,0,0-4.759,1.7" transform="translate(-546.901 -619.436)" fill="none"/>
    </clipPath>
    <radialGradient id="radial-gradient-4" cy="0.5" r="0.486" gradientTransform="matrix(1.062, 0, 0, -1, 1.262, 16.899)" xlink:href="#radial-gradient"/>
  </defs>
  <path id="Path_16548" data-name="Path 16548" d="M347.693,621.371h-1.466a10.009,10.009,0,0,0-1.249.07c-.212.031-.319.223-.319.575,0,.264-.005.492-.016.684l-.008.155h-.816V620.75h9.872v2.106h-.817l-.007-.155c-.016-.192-.024-.42-.024-.684,0-.352-.1-.544-.311-.575a10.114,10.114,0,0,0-1.247-.07h-1.468v8.868a2.454,2.454,0,0,0,.187,1.256c.123.146.127.236.744.268l.333.007v.482h-4.644v-.482l.334-.007c.617-.032.618-.121.74-.268a2.516,2.516,0,0,0,.182-1.256Z" transform="translate(-311.691 -617.563)" fill="#231815"/>
  <path id="Path_16549" data-name="Path 16549" d="M373.568,627.865v6.427a2.6,2.6,0,0,0,.17,1.259c.113.134.119.223.753.265l.147.007v.482h-4.407v-.482l.149-.007c.626-.042.876-.131.992-.268a2.531,2.531,0,0,0,.175-1.256v-4.414a2.5,2.5,0,0,0-.175-1.251c-.116-.135-.366-.225-.992-.272l-.149-.008v-.482Z" transform="translate(-326.733 -621.615)" fill="#231815"/>
  <path id="Path_16550" data-name="Path 16550" d="M387.107,629.177a4.873,4.873,0,0,1,1.319-1.308,2.357,2.357,0,0,1,1.348-.458,1.918,1.918,0,0,1,1.346.442,2.1,2.1,0,0,1,.7,1.324,5.85,5.85,0,0,1,1.492-1.324,2.964,2.964,0,0,1,1.515-.442A2.4,2.4,0,0,1,397.5,629.9v4.131a2.613,2.613,0,0,0,.167,1.256c.111.132,0,.221.633.268l.147.007v.482h-4.321v-.482l.147-.007c.638-.047.89-.136,1-.268a2.624,2.624,0,0,0,.166-1.256v-3.858a2.643,2.643,0,0,0-.261-1.39.893.893,0,0,0-.842-.386,2.466,2.466,0,0,0-1.868,1.309v4.326a2.6,2.6,0,0,0,.17,1.256c.114.137-.028.226.605.268l.148.007.023.482h-4.322l-.024-.482.147-.007c.638-.041.891-.13,1-.264a2.635,2.635,0,0,0,.167-1.259v-3.858a2.688,2.688,0,0,0-.257-1.383.726.726,0,0,0-.741-.393,2.332,2.332,0,0,0-1.426.782,3.613,3.613,0,0,0-.855,1.276v3.577a2.59,2.59,0,0,0,.17,1.259c.113.134.244.223.878.264l.145.007v.482h-4.162v-.482l.148-.007c.628-.041.509-.131.625-.268a2.657,2.657,0,0,0,.15-1.256v-4.414a2.515,2.515,0,0,0-.175-1.251c-.116-.135,0-.225-.625-.272l-.148-.007v-.482h2.994Z" transform="translate(-334.64 -621.358)" fill="#231815"/>
  <path id="Path_16551" data-name="Path 16551" d="M447.151,627.359v2.79a2.452,2.452,0,0,0,.187,1.255c.124.147-.176.236.44.268l.333.007v.482h-4.32v-.482l.148-.007c.627-.041.511-.131.626-.268a2.524,2.524,0,0,0,.175-1.255v-7.476a2.5,2.5,0,0,0-.175-1.253c-.116-.133-.122-.222-.749-.263l-.147-.016v-.55h4.643l.533.014q3.332,0,3.333,3.035a3.3,3.3,0,0,1-1.211,2.788,5.919,5.919,0,0,1-3.637.931Zm0-.521h.268a3.007,3.007,0,0,0,2.276-.792,3.316,3.316,0,0,0,.756-2.372,2.115,2.115,0,0,0-2.505-2.495h-.8Z" transform="translate(-368.562 -617.472)" fill="#231815"/>
  <path id="Path_16552" data-name="Path 16552" d="M470.112,629.908v4.127a2.469,2.469,0,0,0,.182,1.259c.122.14.25.228.872.264l.335.007v.482h-4.6v-.482l.391-.007c.628-.042.45-.131.567-.268a2.527,2.527,0,0,0,.175-1.255V629.62a2.856,2.856,0,0,0-.175-1.251c-.081-.128-.127-.243-.567-.272l-.391-.008v-.482h3.213v1.341a3.633,3.633,0,0,1,3.233-1.536,1.848,1.848,0,0,1,.52.085v1.57H473a.481.481,0,0,0-.514-.4,3.026,3.026,0,0,0-2.376,1.236" transform="translate(-381.792 -621.358)" fill="#231815"/>
  <path id="Path_16553" data-name="Path 16553" d="M489.449,636.242a3.788,3.788,0,0,1-2.945-1.185,5.368,5.368,0,0,1,0-6.461,4.264,4.264,0,0,1,5.895,0,5.379,5.379,0,0,1,0,6.461,3.79,3.79,0,0,1-2.946,1.185m0-.475q.835,0,1.387-1.117a7.474,7.474,0,0,0,0-5.637q-.553-1.126-1.387-1.126t-1.382,1.126a7.484,7.484,0,0,0,0,5.637q.55,1.118,1.385,1.117" transform="translate(-392.343 -621.358)" fill="#231815"/>
  <rect id="Rectangle_11441" data-name="Rectangle 11441" width="3.499" height="1.15" transform="translate(103.015 9.244)" fill="#231815"/>
  <g id="Group_16497" data-name="Group 16497" transform="translate(106.661 2.834)">
    <g id="Group_16496" data-name="Group 16496" clip-path="url(#clip-path)">
      <rect id="Rectangle_11442" data-name="Rectangle 11442" width="12.84" height="11.845" fill="url(#radial-gradient)"/>
    </g>
  </g>
  <g id="Group_16499" data-name="Group 16499" transform="translate(0)">
    <g id="Group_16498" data-name="Group 16498" clip-path="url(#clip-path-2)">
      <rect id="Rectangle_11443" data-name="Rectangle 11443" width="29.945" height="16.971" transform="translate(0)" fill="url(#radial-gradient-2)"/>
    </g>
  </g>
  <g id="Group_16501" data-name="Group 16501" transform="translate(7.127 0.063)">
    <g id="Group_16500" data-name="Group 16500" clip-path="url(#clip-path-3)">
      <rect id="Rectangle_11444" data-name="Rectangle 11444" width="8.897" height="7.798" transform="translate(0 0)" fill="url(#radial-gradient-3)"/>
    </g>
  </g>
  <rect id="Rectangle_11445" data-name="Rectangle 11445" width="2.141" height="1.96" transform="translate(44.754 3.187)" fill="#231815"/>
  <path id="Path_16557" data-name="Path 16557" d="M426.232,634.209a1.78,1.78,0,0,1-1.912,1.074c-2.219,0-2.25-2.026-2.232-3.349h6.256v-.147a4.633,4.633,0,0,0-.99-3.144,3.764,3.764,0,0,0-2.827-1.016,4.528,4.528,0,0,0-3.259,1.213A4.12,4.12,0,0,0,420,631.951a4.852,4.852,0,0,0,.039.605l-.006.06c0,2,1.828,3.5,4.267,3.5,1.6,0,3.168-.524,3.821-1.916Zm-3.509-5.163a2.061,2.061,0,0,1,1.672-.747,1.752,1.752,0,0,1,1.478.576,2.989,2.989,0,0,1,.465,1.872l-.009.515H422.1a3.687,3.687,0,0,1,.62-2.216" transform="translate(-355.081 -621.479)" fill="#231815"/>
  <g id="Group_16503" data-name="Group 16503" transform="translate(119.542 2.621)">
    <g id="Group_16502" data-name="Group 16502" transform="translate(0)" clip-path="url(#clip-path-4)">
      <rect id="Rectangle_11446" data-name="Rectangle 11446" width="11.491" height="12.199" transform="translate(0 0)" fill="url(#radial-gradient-4)"/>
    </g>
  </g>
</svg>
