<svg id="Group_17363" data-name="Group 17363" xmlns="http://www.w3.org/2000/svg" xmlns:xlink="http://www.w3.org/1999/xlink" width="151.763" height="30" viewBox="0 0 151.763 30">
  <defs>
    <clipPath id="clip-path">
      <path id="Path_16555" data-name="Path 16555" d="M315.866,613.346a30.864,30.864,0,0,0-3.963.4c-6.273.974-14.731,4.91-22.525,10.164a96.023,96.023,0,0,0-20.2,19.055s12.991-14.365,20.15-14.838c2.1-.141,2.2,1.254,2.1,3.069a96.281,96.281,0,0,1-1.834,12.145s6.49-20.889,18.367-25.207c12.292-4.47-7.349,12.311-7.349,12.311,18.388-12.664,21.509-16.98,15.793-17.1Z" transform="translate(-269.176 -613.345)" fill="none"/>
    </clipPath>
    <radialGradient id="radial-gradient" cx="0.47" cy="0.5" r="0.685" gradientTransform="matrix(0.567, 0, 0, -1, -1.676, 12.456)" gradientUnits="objectBoundingBox">
      <stop offset="0" stop-color="#00a0e9"/>
      <stop offset="1" stop-color="#0068b7"/>
    </radialGradient>
    <clipPath id="clip-path-2">
      <path id="Path_16556" data-name="Path 16556" d="M296.527,615.842c-3.492,2.8-10.645,11.262-10.793,11.435,1.7-1.983,9.22-7.984,11.57-9.8,3.46-2.687,3.955-2.121,4.1-3.248.064-.521-.15-.732-.548-.732-.993,0-3.089,1.363-4.324,2.349" transform="translate(-285.734 -613.493)" fill="none"/>
    </clipPath>
    <radialGradient id="radial-gradient-2" cx="0.498" r="0.535" gradientTransform="matrix(0.876, 0, 0, -1, -1.708, 27.091)" xlink:href="#radial-gradient"/>
    <clipPath id="clip-path-3">
      <path id="Path_16554" data-name="Path 16554" d="M532.42,619.93v1.159h.29c1.283,0,1.5,0,1.5.389a5.265,5.265,0,0,1-.426,1.413c-.075.185-.161.413-.266.677l-4.212,10.843H529.3l-3.974-10.633a15.174,15.174,0,0,1-.8-2.172c0-.346.03-.518,1.394-.518h.3v-1.159h-9.25v1.159h.642c1.081,0,1.271.185,1.414.42a15.971,15.971,0,0,1,1.154,2.27l6.134,16.44h3.61l6.369-16.452a15.748,15.748,0,0,1,1.048-2.358c.136-.172.21-.339,1.266-.315l.357-.006v-1.159Z" transform="translate(-516.97 -619.928)" fill="none"/>
    </clipPath>
    <radialGradient id="radial-gradient-3" cx="0.5" r="0.521" gradientTransform="matrix(0.922, 0, 0, -1, -1.344, 17.368)" xlink:href="#radial-gradient"/>
    <clipPath id="clip-path-4">
      <path id="Path_16558" data-name="Path 16558" d="M549.427,622.341a10.51,10.51,0,0,0-2.527,7.252v.685a10.6,10.6,0,0,0,2.595,7.237c1.73,1.876,5.092,2.814,8.011,2.814a34.074,34.074,0,0,0,7.6-.74v-7.339a.3.3,0,0,1,.277-.32,3.853,3.853,0,0,1,.482-.019c.161,0,.326.006.48-.007l.241-.013v-1.247h-7.306v1.247l.241.013a6.569,6.569,0,0,1,.882.031.363.363,0,0,1,.37.37v5.7a.573.573,0,0,1-.414.555,5.476,5.476,0,0,1-1.154.037c-2.332,0-3.95-.511-5.271-2.129a9.4,9.4,0,0,1-1.969-6.393c0-3.056.587-5.2,1.765-6.856s3.7-2.494,5.875-2.377c3.511.185,4.2,2.882,4.221,3.123l.018.266h1.27v-3.789a25,25,0,0,0-3.492-.765,32.287,32.287,0,0,0-4.042-.247c-3.06,0-6.474,1.1-8.152,2.907" transform="translate(-546.896 -619.434)" fill="none"/>
    </clipPath>
    <radialGradient id="radial-gradient-4" cx="0.5" r="0.486" gradientTransform="matrix(1.062, 0, 0, -1, 1.262, 16.899)" xlink:href="#radial-gradient"/>
  </defs>
  <path id="Path_16545" data-name="Path 16545" d="M1087.923,634.44a7.341,7.341,0,0,1-2.789-.469,4.753,4.753,0,0,1-1.862-1.323,5.292,5.292,0,0,1-1.046-2.058,10.291,10.291,0,0,1-.326-2.69,6.67,6.67,0,0,1,.623-3.035,5.655,5.655,0,0,1,1.624-1.991,6.367,6.367,0,0,1,2.247-1.089,9.829,9.829,0,0,1,2.493-.327c.307,0,.648.009,1.024.025s.741.037,1.1.062.69.052,1,.08.557.06.734.092l-.549,1.509q-.3-.075-.827-.174t-1.151-.179q-.617-.081-1.209-.135c-.395-.036-.727-.056-.994-.056a8.531,8.531,0,0,0-1.528.118,3.209,3.209,0,0,0-1.187.475,2.482,2.482,0,0,0-.936,1.631,14.085,14.085,0,0,0-.267,2.992,7.415,7.415,0,0,0,.958,4.148,3.445,3.445,0,0,0,3.078,1.416c.395,0,.806-.014,1.231-.037s.848-.062,1.268-.112.833-.111,1.239-.186.786-.159,1.142-.259v.656a9.835,9.835,0,0,1-1.179.39q-.63.166-1.291.284t-1.328.179q-.665.062-1.291.062" transform="translate(-979.74 -608.995)" fill="#231815"/>
  <path id="Path_16546" data-name="Path 16546" d="M1099.48,633.75v-13.87l2-.42v14.289Z" transform="translate(-984.284 -608.479)" fill="#231815"/>
  <path id="Path_16547" data-name="Path 16547" d="M1110.1,635.88a5.357,5.357,0,0,1-3.656-1.119,4.132,4.132,0,0,1-1.268-3.27,5.139,5.139,0,0,1,.311-1.837,3.579,3.579,0,0,1,.933-1.391,4.3,4.3,0,0,1,1.543-.878,6.733,6.733,0,0,1,2.136-.308,7.057,7.057,0,0,1,2.122.291,4.139,4.139,0,0,1,1.543.852,3.523,3.523,0,0,1,.934,1.379,5.181,5.181,0,0,1,.312,1.866,5.124,5.124,0,0,1-.312,1.843,3.626,3.626,0,0,1-.934,1.391,4.165,4.165,0,0,1-1.543.878,6.8,6.8,0,0,1-2.122.3m-2.8-4.4a6.951,6.951,0,0,0,.156,1.579,2.71,2.71,0,0,0,.49,1.076,1.957,1.957,0,0,0,.86.619,3.613,3.613,0,0,0,1.268.2,4.9,4.9,0,0,0,1.053-.1,2.929,2.929,0,0,0,.89-.371,1.66,1.66,0,0,0,.7-1.119,8.66,8.66,0,0,0,.178-1.873,4.251,4.251,0,0,0-.661-2.64,2.513,2.513,0,0,0-2.1-.834,5.2,5.2,0,0,0-1.061.1,2.9,2.9,0,0,0-.882.347,1.122,1.122,0,0,0-.415.451,3.325,3.325,0,0,0-.274.7,4.925,4.925,0,0,0-.156.885q-.045.481-.045.978" transform="translate(-985.755 -610.446)" fill="#231815"/>
  <path id="Path_16548" data-name="Path 16548" d="M1123.3,627.325v5.885a2.876,2.876,0,0,0,.059.587,1.182,1.182,0,0,0,.245.519,1.353,1.353,0,0,0,.526.376,2.372,2.372,0,0,0,.92.151,4.511,4.511,0,0,0,.793-.075c.283-.049.567-.111.854-.186a8.609,8.609,0,0,0,.831-.259q.4-.15.727-.3v-6.7h2v8.46h-1.677l-.3-.989c-.226.108-.493.226-.794.366a9.825,9.825,0,0,1-.978.383,10.021,10.021,0,0,1-1.089.3,5.277,5.277,0,0,1-1.143.124,4.421,4.421,0,0,1-1.2-.154,2.62,2.62,0,0,1-.941-.469,2.2,2.2,0,0,1-.617-.778,2.505,2.505,0,0,1-.226-1.094v-6.144Z" transform="translate(-989.921 -610.51)" fill="#231815"/>
  <path id="Path_16549" data-name="Path 16549" d="M1143.623,625.269c-.01-.124-.015-.247-.015-.372-.01-.1-.015-.2-.015-.315v-4.7l1.988-.42v14.289h-1.32l-.55-.79h-.044q-.311.185-.654.351a7.411,7.411,0,0,1-.7.3,4.886,4.886,0,0,1-.779.217,4.612,4.612,0,0,1-.876.08,5.764,5.764,0,0,1-1.6-.226,3.715,3.715,0,0,1-1.364-.718,3.511,3.511,0,0,1-.949-1.292,4.741,4.741,0,0,1-.356-1.935,5.193,5.193,0,0,1,.349-1.955,3.877,3.877,0,0,1,1.009-1.46,4.489,4.489,0,0,1,1.6-.908,6.678,6.678,0,0,1,2.128-.315q.475,0,1.039.049c.375.033.747.071,1.112.112m-5.122,4.384a4.509,4.509,0,0,0,.2,1.434,2.546,2.546,0,0,0,.571.978,2.172,2.172,0,0,0,.89.555,3.587,3.587,0,0,0,1.142.174,6.986,6.986,0,0,0,1.216-.1,6.75,6.75,0,0,0,1.053-.267v-6.254q-.476-.062-.913-.093c-.292-.022-.606-.031-.942-.031a8.1,8.1,0,0,0-1.314.1,2.331,2.331,0,0,0-.927.321,1.623,1.623,0,0,0-.333.371,3.057,3.057,0,0,0-.32.637,4.882,4.882,0,0,0-.238.933,7.817,7.817,0,0,0-.087,1.248" transform="translate(-993.819 -608.479)" fill="#231815"/>
  <g id="Group_16913" data-name="Group 16913">
    <g id="Group_16498" data-name="Group 16498" clip-path="url(#clip-path)">
      <rect id="Rectangle_11443" data-name="Rectangle 11443" width="52.935" height="30" transform="translate(0 0.001)" fill="url(#radial-gradient)"/>
    </g>
  </g>
  <g id="Group_16914" data-name="Group 16914" transform="translate(12.599 0.113)">
    <g id="Group_16500" data-name="Group 16500" transform="translate(0 0)" clip-path="url(#clip-path-2)">
      <rect id="Rectangle_11444" data-name="Rectangle 11444" width="15.729" height="13.785" transform="translate(0 0)" fill="url(#radial-gradient-2)"/>
    </g>
  </g>
  <g id="Group_16915" data-name="Group 16915" transform="translate(53.295 5.363)">
    <g id="Group_16496" data-name="Group 16496" transform="translate(0 0)" clip-path="url(#clip-path-3)">
      <rect id="Rectangle_11442" data-name="Rectangle 11442" width="21.994" height="20.289" transform="translate(0.003 0.002)" fill="url(#radial-gradient-3)"/>
    </g>
  </g>
  <g id="Group_16916" data-name="Group 16916" transform="translate(75.362 4.999)">
    <g id="Group_16502" data-name="Group 16502" transform="translate(0 0)" clip-path="url(#clip-path-4)">
      <rect id="Rectangle_11446" data-name="Rectangle 11446" width="19.683" height="20.895" transform="translate(0.004 0.002)" fill="url(#radial-gradient-4)"/>
    </g>
  </g>
</svg>
