<svg xmlns="http://www.w3.org/2000/svg" width="624.137" height="121.845" viewBox="0 0 624.137 121.845">
  <g id="Group_8" data-name="Group 8" transform="translate(-683.326 -291.999)">
    <g id="logo-tayorou" transform="translate(683.326 291.999)">
      <g id="logo-tayorou-2" data-name="logo-tayorou">
        <path id="Path_123" data-name="Path 123" d="M103.319,19.9H66.3V33.458h37.019a6.827,6.827,0,0,1,6.855,6.855V58.137H78.64L73.612,72h36.562V88.758a6.827,6.827,0,0,1-6.855,6.855H66.3v13.558h37.019a20.415,20.415,0,0,0,20.414-20.414V40.314A20.513,20.513,0,0,0,103.319,19.9Z" transform="translate(34.701 10.541)" fill="#333"/>
        <ellipse id="Ellipse_20" data-name="Ellipse 20" cx="5.332" cy="5.637" rx="5.332" ry="5.637" transform="translate(210.991 70.202)" fill="#333"/>
        <path id="Path_124" data-name="Path 124" d="M234.7,27.6h-5.332V18H215.5v9.6h-5.789A20.415,20.415,0,0,0,189.3,48.011V58.37h13.558V48.011a6.827,6.827,0,0,1,6.855-6.855H234.7a9,9,0,0,1,8.988,8.988v2.133a32.031,32.031,0,0,1-1.828,10.664l-17.824,46.616h14.625l16-41.894v-.152a47.053,47.053,0,0,0,2.59-15.234V50.144A22.494,22.494,0,0,0,234.7,27.6Z" transform="translate(99.08 9.547)" fill="#333"/>
        <path id="Path_125" data-name="Path 125" d="M70.381,59.989a47.894,47.894,0,0,0,1.98-13.1v-3.5A25.1,25.1,0,0,0,47.378,18.4H16.91L0,58.922H14.777L26.05,32.111H47.53A11.248,11.248,0,0,1,58.8,43.384v3.5a32.032,32.032,0,0,1-1.828,10.664l-.3.914H33.819L28.792,72.328h22.7L36.866,111.784H51.339L65.963,72.328H74.8A10.191,10.191,0,0,0,70.381,59.989Z" transform="translate(0 9.756)" fill="#333"/>
        <path id="Path_126" data-name="Path 126" d="M164.665,18.6a40.667,40.667,0,0,0-40.675,40.675v3.2c-4.875,3.351-5.637,6.4-5.789,8.379-.152,4.723,3.5,7.617,5.789,9.293.3.152.609.457.914.609a29.685,29.685,0,0,0,9.14,18.433,44.657,44.657,0,0,0,30.773,12.8h0A40.667,40.667,0,0,0,205.492,71.31V59.275A40.9,40.9,0,0,0,164.665,18.6Zm27.117,52.862a27.177,27.177,0,0,1-27.117,27.117,30.726,30.726,0,0,1-18.89-7.008,13.912,13.912,0,0,0,5.637-3.2,3.355,3.355,0,0,0-4.266-5.18,6.407,6.407,0,0,1-7.008,1.676,13.378,13.378,0,0,1-1.676-5.941,10.427,10.427,0,0,0-3.656-7.617A10.783,10.783,0,0,0,137.7,64V59.275a27.117,27.117,0,0,1,54.233,0V71.462Z" transform="translate(61.864 9.861)" fill="#333"/>
        <path id="Path_127" data-name="Path 127" d="M168.07,26.448a4.583,4.583,0,0,1-4.57-4.57,5.376,5.376,0,0,1,.457-2.133l6.7-13.1a4.593,4.593,0,0,1,6.094-1.98,4.69,4.69,0,0,1,1.98,6.094h0l-6.7,13.1A4.278,4.278,0,0,1,168.07,26.448Z" transform="translate(85.576 2.318)" fill="#ffad29"/>
        <path id="Path_128" data-name="Path 128" d="M157.846,23.5a1.932,1.932,0,0,1-.914-.152,4.527,4.527,0,0,1-3.5-5.332l2.894-14.472a4.415,4.415,0,0,1,5.332-3.5,4.487,4.487,0,0,1,3.5,5.332l-2.894,14.472A4.551,4.551,0,0,1,157.846,23.5Z" transform="translate(80.262 0.083)" fill="#ffad29"/>
        <path id="Path_129" data-name="Path 129" d="M177.07,31.852a4.583,4.583,0,0,1-4.57-4.57,4.385,4.385,0,0,1,1.371-3.2L184.23,13.571a4.524,4.524,0,1,1,6.4,6.4h0L180.269,30.481A4.149,4.149,0,0,1,177.07,31.852Z" transform="translate(90.287 6.511)" fill="#ffad29"/>
        <path id="パス_17347" d="M267.887,48.234h2.437V37.113h-3.808c.152-.457.457-1.066.609-1.523h1.523a11.529,11.529,0,0,1,2.285.152V33.457a11.53,11.53,0,0,1-2.285.152h-5.484a11.531,11.531,0,0,1-2.285-.152v1.371a6.173,6.173,0,0,1-1.676,0h-1.676v-.152A5.712,5.712,0,0,1,257.681,33H255.4a7.417,7.417,0,0,1,.152,1.828h-1.371a11.529,11.529,0,0,1-2.285-.152v2.285c.762,0,1.523-.152,2.285-.152h1.371V38.18H252.5c0,.609.152,1.219.152,1.828v2.437a9.37,9.37,0,0,1-.152,1.98h2.59a17.265,17.265,0,0,1-3.352,4.113.463.463,0,0,0,0,.609h0a16.617,16.617,0,0,1,.914,1.676,13.668,13.668,0,0,0,3.2-4.113v3.656A10.057,10.057,0,0,1,255.7,52.5h2.285a10.057,10.057,0,0,1-.152-2.133V49a13.94,13.94,0,0,0-.152-2.437,8.017,8.017,0,0,0,1.828,2.133l.762.762a4.058,4.058,0,0,1,.914-1.523.377.377,0,0,0-.152-.609h0a11.091,11.091,0,0,1-2.742-2.59h2.59V38.484h-3.2V37.113h3.5V35.742a5.107,5.107,0,0,1,1.523,0h2.285a4.563,4.563,0,0,1-.609,1.523h-2.742V48.539h1.98l-.914.914a8.591,8.591,0,0,1-3.047,1.676A9.856,9.856,0,0,1,260.88,52.5c.152.152.3.3.609.152a9.6,9.6,0,0,0,3.961-3.047l-1.523-1.219h3.961l-1.371,1.219a12.7,12.7,0,0,0,3.5,2.894c.152.152.457,0,.609-.152a9.851,9.851,0,0,1,1.219-1.371A9.278,9.278,0,0,1,267.887,48.234ZM255.548,42.6h-1.219V40.312h1.219Zm3.2-2.285V42.6h-1.219V40.312Zm5.027-1.219h4.418v1.219h-4.418Zm0,3.047h4.418v1.219h-4.418Zm0,4.266V45.035h4.418v1.371Z" transform="translate(131.701 17.398)" fill="#333"/>
        <path id="パス_17348" d="M282.654,40.255a8.205,8.205,0,0,1-.152,1.676c-.152,3.047-.3,4.418-.3,5.332,0,2.285.914,3.2,2.742,3.2a5.324,5.324,0,0,0,3.352-1.219c.3-.3.457-.457.457-.762,0-.152,0-.3-.152-.3a4.5,4.5,0,0,1-.3-1.98,4.364,4.364,0,0,1-2.894,1.676c-.609,0-.762-.3-.762-1.066s.152-2.285.3-4.113a27.645,27.645,0,0,0,.152-3.047,6.549,6.549,0,0,0-.3-1.828,2.354,2.354,0,0,0-2.437-1.219,4.3,4.3,0,0,0-2.285.609,13.155,13.155,0,0,0-2.437,1.523,19.29,19.29,0,0,0-1.98,1.676v-.762a6.632,6.632,0,0,1,.914-1.066c.152-.3.3-.3.3-.457s-.457-.609-.914-1.066a11.835,11.835,0,0,1,.3-2.437c0-.152.152-.3.152-.457s-.152-.3-.457-.457a15.01,15.01,0,0,0-2.59-.3,10.057,10.057,0,0,1,.152,2.133v1.98a22.9,22.9,0,0,1-3.047.3h-.609a4.691,4.691,0,0,0,.457,1.98q.229.457.457.457a.56.56,0,0,0,.457-.152,12.9,12.9,0,0,1,2.59-.609v1.676c0,.152,0,.152-.152.3a39.7,39.7,0,0,1-4.113,4.723.472.472,0,0,0-.152.3c0,.152.152.3.609.762.609.762,1.066,1.066,1.219,1.066s.3-.152.457-.457a19.4,19.4,0,0,1,1.98-2.894c-.152,4.113-.152,4.113-.152,4.875v1.066c0,.3.152.457.762.457a7.417,7.417,0,0,0,1.828-.152c0-.152.152-.152,0-.3v-.3c-.152-1.371-.152-5.18-.152-6.855V42.693a29.261,29.261,0,0,1,2.285-2.133,8.592,8.592,0,0,1,3.656-1.98A1.965,1.965,0,0,1,282.654,40.255Z" transform="translate(141.004 17.607)" fill="#333"/>
        <path id="パス_17349" d="M297.464,40.56a7.916,7.916,0,0,0-3.809,1.066l1.98-1.98,2.437-2.437a8.447,8.447,0,0,1,1.219-.914c.457-.3.609-.457.609-.609s-.152-.457-.609-1.066c-.609-.914-.914-1.219-1.219-1.219a.56.56,0,0,0-.457.152c-.609.152-1.066.3-1.676.457a44.462,44.462,0,0,1-5.18.457,5.182,5.182,0,0,1-1.523-.152,6.113,6.113,0,0,0,.457,2.285q.229.457.457.457h.3a38.964,38.964,0,0,1,4.113-.762.4.4,0,0,1,.457.457c0,.152,0,.3-.152.3a61.6,61.6,0,0,1-5.332,5.637c-.914.914-1.676,1.523-2.133,1.98-.457.3-.609.457-.609.609a4.952,4.952,0,0,0,1.98,1.98c.152,0,.3-.152.457-.3A8.709,8.709,0,0,1,290.3,45.74a9.441,9.441,0,0,1,6.4-3.047,3.316,3.316,0,0,1,3.5,2.742v.457a3.467,3.467,0,0,1-1.523,2.894,4.458,4.458,0,0,0-4.113-2.894,3.22,3.22,0,0,0-3.5,2.742v.152c0,1.98,1.676,3.047,4.418,3.047a9.6,9.6,0,0,0,4.57-1.066,5.7,5.7,0,0,0,2.894-5.027,5.178,5.178,0,0,0-4.875-5.18Zm-2.742,9.14c-1.066,0-1.676-.457-1.676-1.066a1.019,1.019,0,0,1,1.066-.914,2,2,0,0,1,1.98,1.676c-.3.3-.762.3-1.371.3Z" transform="translate(150.111 17.607)" fill="#333"/>
        <path id="パス_17350" d="M311.561,36.373a32.208,32.208,0,0,0-1.676-3.2c-.152-.152-.3-.3-.457-.152l-1.828.609a13.7,13.7,0,0,1,1.828,3.656Z" transform="translate(160.998 17.376)" fill="#333"/>
        <path id="パス_17351" d="M318.634,47.7a29.178,29.178,0,0,0,.762-6.246,2.969,2.969,0,0,1,.152-1.219c-.457,0-1.371.152-2.133.152h-4.723a4.7,4.7,0,0,1,.152-1.371A3.356,3.356,0,0,1,313,37.8h-2.59v.762a7.417,7.417,0,0,1-.152,1.828H306.9a13.1,13.1,0,0,1-2.437-.152v2.285a13.1,13.1,0,0,1,2.437-.152H309.8a5.369,5.369,0,0,1-2.133,3.047A9.722,9.722,0,0,1,303.7,47.4c-.3,0-.3.3-.3.609a.149.149,0,0,0,.152.152,5.349,5.349,0,0,1,.762,1.219.791.791,0,0,0,.609.3,15.606,15.606,0,0,0,4.418-2.437,10.241,10.241,0,0,0,2.894-4.57c0-.152.152-.3.457-.3H316.5a.4.4,0,0,1,.457.457h0a15.027,15.027,0,0,1-.457,3.656c-.152.762-.457.914-1.523.914-.762,0-1.676-.152-2.437-.152a11.4,11.4,0,0,1,.609,2.437,21.022,21.022,0,0,1,2.133.152C317.263,49.683,318.177,49.073,318.634,47.7Z" transform="translate(158.8 19.91)" fill="#333"/>
        <path id="パス_17352" d="M303.1,42.209h1.98a.4.4,0,0,0,.457-.457V39.924a.4.4,0,0,1,.457-.457h12.492a.4.4,0,0,1,.457.457v1.828a.4.4,0,0,0,.457.457h1.98a5.182,5.182,0,0,1-.152-1.523V39.162a5.712,5.712,0,0,1,.152-1.676c-.762,0-1.523.152-2.133.152h-1.371c.3-.457.762-1.219,1.219-1.98.762-1.371.762-1.371.914-1.676l-1.828-.762c-.152-.152-.457,0-.609.3a18.094,18.094,0,0,1-1.98,3.808.56.56,0,0,1-.457.152h-8.074l1.98-.762a11.325,11.325,0,0,0-1.98-3.2.56.56,0,0,0-.457-.152l-1.828.609a16.582,16.582,0,0,1,2.133,3.5h-1.523a10.057,10.057,0,0,1-2.133-.152c0,.609.152,1.219.152,1.828v1.523C303.252,41.142,303.252,41.752,303.1,42.209Z" transform="translate(158.643 17.482)" fill="#333"/>
        <path id="パス_17353" d="M339.295,43.464a.791.791,0,0,0,.609-.3,5.148,5.148,0,0,1,.914-1.828,14.876,14.876,0,0,1-3.5-.914c-.3-.152-.3-.3-.152-.609v-.152a11.03,11.03,0,0,0,1.676-2.894h1.523V34.628a11.531,11.531,0,0,1-2.285.152h-4.418c.152-.457.3-.609.3-.762a2.573,2.573,0,0,0,.3-.762l-2.133-.457c-.152.609-.3,1.066-.457,1.676a12.026,12.026,0,0,1-3.2,4.113,4.105,4.105,0,0,1,1.219,1.066.463.463,0,0,0,.609,0h0a5.966,5.966,0,0,0,1.219-1.523,6.764,6.764,0,0,0,1.219,1.676.464.464,0,0,1,0,.609l-.152.152a16.246,16.246,0,0,1-2.894,1.066.791.791,0,0,1,.3-.609l-.914-1.066h-2.742l.457-.457-.457-.457a19.853,19.853,0,0,0,2.894-3.351,2.1,2.1,0,0,1,.457-.609l-1.219-1.219a7.341,7.341,0,0,1-1.828,0h-3.656a8.686,8.686,0,0,1-1.98-.152v2.133c.609,0,1.219-.152,1.828-.152H326.5c-.457.609-.914,1.066-1.371,1.676a.463.463,0,0,1-.609,0c-.3-.3-.609-.457-1.523-1.219l-1.371,1.219a14.234,14.234,0,0,1,2.742,2.437h-2.133a9.37,9.37,0,0,1-1.98-.152V41.94a7.417,7.417,0,0,1,1.828-.152H323.6a11.711,11.711,0,0,1-3.351,4.875c-.152.152-.152.3-.152.609.3.609.609,1.371.914,1.98a11,11,0,0,0,3.047-4.418v5.027c0,.457-.152.457-.609.457a7.647,7.647,0,0,1-1.828-.3,4.865,4.865,0,0,1,.457,2.133c.609,0,1.371.152,1.828.152,1.219,0,1.828-.152,2.133-.609a2.869,2.869,0,0,0,.3-1.219V41.94h1.371a10.824,10.824,0,0,1-1.219,2.742,5.471,5.471,0,0,1,1.523,1.066,9.046,9.046,0,0,0,.609-1.219v1.98c.609,0,1.066-.152,1.676-.152h1.676a7.541,7.541,0,0,1-4.875,4.266,5.474,5.474,0,0,1,1.066,1.523c.152.152.3.3.609.152a9.144,9.144,0,0,0,5.484-5.637c0-.152.3-.3.457-.3h2.438a13.333,13.333,0,0,1-.3,2.437c-.152,1.066-.457,1.371-1.066,1.371a13.334,13.334,0,0,1-2.437-.3,4.055,4.055,0,0,1,.457,1.828q0,.229.457.457c.609,0,1.219.152,1.828.152,1.676,0,2.133-.3,2.59-1.676a29.981,29.981,0,0,0,.762-5.332,1.933,1.933,0,0,1,.152-.914,6.172,6.172,0,0,1-1.676,0h-3.047a6.6,6.6,0,0,1,.152-.762V42.7H332.9a8.207,8.207,0,0,0,1.98-1.066A22.489,22.489,0,0,0,339.295,43.464Zm-6.551,1.066h-3.809c.3-.914.457-1.219.762-2.133a4.563,4.563,0,0,1,.609,1.219c.762-.3,1.676-.609,2.437-.914V44.53Zm.3-7.617H336.4a5.374,5.374,0,0,1-1.219,1.98.463.463,0,0,1-.609,0h0a17.23,17.23,0,0,1-1.523-1.98Z" transform="translate(167.54 17.293)" fill="#333"/>
        <path id="Path_130" data-name="Path 130" d="M257.627,59.061a4.47,4.47,0,0,0-2.437.609h-.152V55.1H252.6V70.791h2.438v-.457a3.874,3.874,0,0,0,2.59.609c2.894,0,4.722-1.98,4.722-5.332V64.24C262.35,61.041,260.522,59.061,257.627,59.061Zm2.285,5.332V68.2a.149.149,0,0,1-.152.152,4.2,4.2,0,0,1-3.809.152,2.9,2.9,0,0,1-1.066-2.59V64.393c0-1.828.914-2.894,2.437-2.894C259.608,61.346,259.912,63.174,259.912,64.393Z" transform="translate(132.211 28.965)" fill="#333"/>
        <path id="Path_131" data-name="Path 131" d="M265.789,65.365h0c-.152.152-.152,0-.152,0L262.742,57.9H260l4.418,11.425h0c-.609,1.828-1.219,1.98-2.437,1.98h-.3v2.437h.3c3.352,0,3.961-1.523,4.875-3.961l3.961-11.73h-2.59Z" transform="translate(136.084 30.431)" fill="#333"/>
        <path id="Path_132" data-name="Path 132" d="M280.384,55.1l-5.332,15.234-.152.457h2.133a.777.777,0,0,0,.762-.609l.914-2.894a.149.149,0,0,1,.152-.152h5.484l.914,2.894a1.012,1.012,0,0,0,.762.609h2.133L282.669,55.1Zm1.066,4.57h.152l1.676,5.18V65H279.47V64.85Z" transform="translate(143.883 28.965)" fill="#333"/>
        <path id="Path_133" data-name="Path 133" d="M293.555,63.783H293.4l-4.113-8.531-.152-.152H286.7V70.791h2.59V61.5a.149.149,0,0,1,.152-.152h.152l2.894,6.094h2.133l2.894-6.246s.152-.152.152,0v9.445h2.59V55.1h-2.437Z" transform="translate(150.059 28.965)" fill="#333"/>
        <path id="Path_134" data-name="Path 134" d="M304.184,55.152l-5.332,15.234-.152.457h2.133a.777.777,0,0,0,.762-.609l.914-2.894a.149.149,0,0,1,.152-.152h5.484l.914,2.894a1.012,1.012,0,0,0,.762.609h2.133L306.469,55Zm.914,4.57h0c.152-.152.152,0,.152,0l1.676,5.18v.152h-3.5a.149.149,0,0,1-.152-.152h0Z" transform="translate(156.34 28.913)" fill="#333"/>
        <path id="Path_135" data-name="Path 135" d="M318.726,65.307h0c-.152.152-.152.152-.152,0l-5.637-10.054-.152-.152H310.5V70.791h2.59V60.737a.149.149,0,0,1,.152-.152h.152l5.789,10.054h2.438V55.1h-2.59Z" transform="translate(162.516 28.965)" fill="#333"/>
        <path id="Path_136" data-name="Path 136" d="M327.089,55c-2.59,0-5.789,1.219-5.789,7.16v1.676c0,5.941,3.2,7.16,5.789,7.16s5.789-1.219,5.789-7.16V62.16C332.878,56.219,329.679,55,327.089,55Zm3.2,7.16v1.676c0,4.266-1.676,4.875-3.2,4.875s-3.2-.609-3.2-4.875V62.16c0-4.266,1.676-4.875,3.2-4.875s3.2.609,3.2,4.875Z" transform="translate(168.168 28.913)" fill="#333"/>
        <g id="Group_16393" data-name="Group 16393" transform="translate(517.956 50.703)">
          <path id="Path_137" data-name="Path 137" d="M346.7,51.633c-3.961,0-6.7-2.437-6.7-8.074V41.274c0-5.637,2.742-8.074,6.7-8.074s6.7,2.437,6.7,8.074v2.285C353.406,49.2,350.664,51.633,346.7,51.633Zm-3.656-8.074c0,3.809,1.219,5.484,3.656,5.484s3.656-1.523,3.656-5.484V41.274c0-3.809-1.371-5.484-3.656-5.484-2.437,0-3.656,1.523-3.656,5.484Z" transform="translate(-340 -33.2)" fill="#333"/>
          <path id="Path_138" data-name="Path 138" d="M367.049,34.009V50.614a.655.655,0,0,1-.609.609h-1.828c-.152,0-.457-.152-.457-.3L357.6,39.951a.327.327,0,0,0-.609.152V50.462a.655.655,0,0,1-.609.609h-1.676a.655.655,0,0,1-.609-.609V34.009a.655.655,0,0,1,.609-.609h1.676c.152,0,.457.152.457.3l6.551,11.121a.327.327,0,0,0,.609-.152V34.162a.655.655,0,0,1,.609-.609h1.676A.533.533,0,0,1,367.049,34.009Z" transform="translate(-332.62 -33.095)" fill="#333"/>
          <path id="Path_139" data-name="Path 139" d="M372.056,48.786h6.7a.655.655,0,0,1,.609.609v1.371a.655.655,0,0,1-.609.609h-9.75a.655.655,0,0,1-.609-.609V34.009a.655.655,0,0,1,.609-.609h1.828a.655.655,0,0,1,.609.609V48.025C371.447,48.482,371.6,48.786,372.056,48.786Z" transform="translate(-325.135 -33.095)" fill="#333"/>
          <path id="Path_140" data-name="Path 140" d="M382.737,51.376h-1.828a.655.655,0,0,1-.609-.609V34.009a.655.655,0,0,1,.609-.609h1.828a.655.655,0,0,1,.609.609V50.614A.7.7,0,0,1,382.737,51.376Z" transform="translate(-318.907 -33.095)" fill="#333"/>
          <path id="Path_141" data-name="Path 141" d="M401.1,34.009V50.614a.655.655,0,0,1-.609.609h-1.676c-.152,0-.457-.152-.457-.3L391.8,39.951a.327.327,0,0,0-.609.152V50.462a.655.655,0,0,1-.609.609h-1.676a.655.655,0,0,1-.609-.609V34.009a.655.655,0,0,1,.609-.609h1.676c.152,0,.457.152.457.3l6.551,11.121a.327.327,0,0,0,.609-.152V34.009a.655.655,0,0,1,.609-.609h1.676A.655.655,0,0,1,401.1,34.009Z" transform="translate(-314.72 -33.095)" fill="#333"/>
          <path id="Path_142" data-name="Path 142" d="M413.469,34.009V35.38a.655.655,0,0,1-.609.609h-6.7a.655.655,0,0,0-.609.609v3.5a.655.655,0,0,0,.609.609H412.1a.655.655,0,0,1,.609.609v1.371a.655.655,0,0,1-.609.609h-5.941a.655.655,0,0,0-.609.609v4.113a.655.655,0,0,0,.609.609h6.7a.655.655,0,0,1,.609.609v1.371a.655.655,0,0,1-.609.609h-9.75a.655.655,0,0,1-.609-.609V34.009a.655.655,0,0,1,.609-.609h9.75A.655.655,0,0,1,413.469,34.009Z" transform="translate(-307.288 -33.095)" fill="#333"/>
        </g>
      </g>
    </g>
  </g>
</svg>
