<svg xmlns="http://www.w3.org/2000/svg" width="160.929" height="30" viewBox="0 0 160.929 30">
  <g id="Group_17365" data-name="Group 17365" transform="translate(0 0)">
    <g id="Group_17114" data-name="Group 17114" transform="translate(38.082 4.826)">
      <rect id="Rectangle_11600" data-name="Rectangle 11600" width="2.491" height="2.491" transform="translate(13.574 5.415)" fill="#656464"/>
      <path id="Path_17015" data-name="Path 17015" d="M458.695,201.131h-4.129a2.665,2.665,0,0,0-2.666,2.663v4.627a2.665,2.665,0,0,0,2.665,2.665h4.128a2.665,2.665,0,0,0,2.665-2.665v-4.627a2.665,2.665,0,0,0-2.665-2.665m.175,7.078a1.486,1.486,0,0,1-1.642,1.634h-1.193a1.486,1.486,0,0,1-1.642-1.634v-4.2a1.486,1.486,0,0,1,1.642-1.633h1.193a1.485,1.485,0,0,1,1.642,1.633Z" transform="translate(-387.523 -190.74)" fill="#656464"/>
      <path id="Path_17016" data-name="Path 17016" d="M436.639,203.793v7.292h2.491V204.01a1.486,1.486,0,0,1,1.643-1.634h2.521v-1.248H439.3a2.665,2.665,0,0,0-2.665,2.665" transform="translate(-380.07 -190.74)" fill="#656464"/>
      <path id="Path_17017" data-name="Path 17017" d="M421.857,191.409H414.3v14.932h2.491v-6.854h5.068a2.665,2.665,0,0,0,2.665-2.664v-2.746a2.665,2.665,0,0,0-2.664-2.665m.173,5.2a1.486,1.486,0,0,1-1.642,1.634h-3.6v-5.588h3.6a1.486,1.486,0,0,1,1.642,1.634Z" transform="translate(-369.162 -185.994)" fill="#656464"/>
      <rect id="Rectangle_11601" data-name="Rectangle 11601" width="2.491" height="9.957" transform="translate(13.575 10.392)" fill="#656464"/>
      <path id="Path_17018" data-name="Path 17018" d="M326.091,191.406v1.248h4.732v13.688h2.491V192.648h4.732V191.4Z" transform="translate(-326.091 -185.99)" fill="#656464"/>
      <rect id="Rectangle_11602" data-name="Rectangle 11602" width="4.704" height="1.245" transform="translate(76.364 12.265)" fill="#656464"/>
      <path id="Path_17019" data-name="Path 17019" d="M399.091,201.131h-4.129a2.665,2.665,0,0,0-2.662,2.663v4.628a2.665,2.665,0,0,0,2.665,2.665h4.129a2.665,2.665,0,0,0,2.665-2.665v-.445h-2.491v.231a1.486,1.486,0,0,1-1.642,1.635h-1.2a1.486,1.486,0,0,1-1.643-1.635v-1.475h6.968v-2.939a2.665,2.665,0,0,0-2.665-2.665m.175,4.356h-4.478v-1.477a1.486,1.486,0,0,1,1.643-1.634h1.193a1.486,1.486,0,0,1,1.642,1.634Z" transform="translate(-358.419 -190.74)" fill="#656464"/>
      <path id="Path_17020" data-name="Path 17020" d="M372.986,201.131H370.11a2.649,2.649,0,0,1-2.839,0h-2.877a2.665,2.665,0,0,0-2.665,2.665v7.292h2.491V204.01a1.612,1.612,0,1,1,3.224,0v7.078h2.491V204.01a1.613,1.613,0,1,1,3.225,0v7.078h2.491v-7.295a2.665,2.665,0,0,0-2.664-2.665" transform="translate(-343.493 -190.74)" fill="#656464"/>
      <path id="Path_17021" data-name="Path 17021" d="M505.152,180.825v17.308l-11.6-17.3h0v-.007h-3.393v20.348h3.4v-17.3l11.6,17.3h3.393V180.825Z" transform="translate(-406.202 -180.825)" fill="#656464"/>
      <path id="Path_17022" data-name="Path 17022" d="M548.615,180.825h-4.143L538.82,188.9l-6.288-8.073H530.46l7.379,9.474-7.612,10.874h4.143l5.653-8.073,6.284,8.073h2.071L541,191.7Z" transform="translate(-425.769 -180.825)" fill="#656464"/>
    </g>
    <path id="Path_17033" data-name="Path 17033" d="M263.523,223.8H257v-6.522h4.43a2.092,2.092,0,0,1,2.092,2.093Z" transform="translate(-257 -193.799)" fill="#207cbf"/>
    <path id="Path_17034" data-name="Path 17034" d="M278.82,223.8H272.3v-6.522h4.43a2.092,2.092,0,0,1,2.092,2.093Z" transform="translate(-264.47 -193.799)" fill="#207cbf"/>
    <path id="Path_17035" data-name="Path 17035" d="M294.112,223.8H287.59v-6.522h4.43a2.092,2.092,0,0,1,2.092,2.093Z" transform="translate(-271.936 -193.799)" fill="#207cbf"/>
    <path id="Path_17036" data-name="Path 17036" d="M309.406,223.8h-6.522v-6.522h4.43a2.093,2.093,0,0,1,2.092,2.093Z" transform="translate(-279.404 -193.799)" fill="#207cbf"/>
    <path id="Path_17037" data-name="Path 17037" d="M278.82,208.5H272.3v-6.522h4.43a2.092,2.092,0,0,1,2.092,2.092Z" transform="translate(-264.47 -186.331)" fill="#448d9d"/>
    <path id="Path_17038" data-name="Path 17038" d="M294.112,208.5H287.59v-6.522h4.43a2.092,2.092,0,0,1,2.092,2.092Z" transform="translate(-271.936 -186.331)" fill="#448d9d"/>
    <path id="Path_17039" data-name="Path 17039" d="M309.406,208.5h-6.522v-6.522h4.43a2.093,2.093,0,0,1,2.092,2.092Z" transform="translate(-279.404 -186.331)" fill="#448d9d"/>
    <path id="Path_17040" data-name="Path 17040" d="M294.112,193.211H287.59v-6.522h4.43a2.092,2.092,0,0,1,2.092,2.093Z" transform="translate(-271.936 -178.863)" fill="#5d9c6e"/>
    <path id="Path_17041" data-name="Path 17041" d="M309.406,193.211h-6.522v-6.522h4.43a2.093,2.093,0,0,1,2.092,2.093Z" transform="translate(-279.404 -178.863)" fill="#5d9c6e"/>
    <path id="Path_17042" data-name="Path 17042" d="M309.406,177.917h-6.522v-6.522h4.43a2.093,2.093,0,0,1,2.092,2.093Z" transform="translate(-279.404 -171.395)" fill="#73ab31"/>
  </g>
</svg>
