<svg id="logo-timepro-vg" xmlns="http://www.w3.org/2000/svg" xmlns:xlink="http://www.w3.org/1999/xlink" width="231.619" height="30" viewBox="0 0 231.619 30">
  <defs>
    <clipPath id="clip-path">
      <path id="Path_16554" data-name="Path 16554" d="M532.913,619.931v1.2h.3c1.324,0,1.547,0,1.547.4a5.429,5.429,0,0,1-.44,1.458c-.075.191-.166.426-.274.7l-4.343,11.189H529.7l-4.1-10.969a15.651,15.651,0,0,1-.821-2.241c0-.357.031-.535,1.439-.535h.306v-1.2h-9.544v1.2h.662c1.115,0,1.312.191,1.458.433a16.488,16.488,0,0,1,1.19,2.343l6.329,16.965h3.726l6.572-16.975a16.286,16.286,0,0,1,1.082-2.433c.141-.178.217-.35,1.307-.325l.369-.006v-1.2Z" transform="translate(-516.974 -619.931)" fill="none"/>
    </clipPath>
    <radialGradient id="radial-gradient" cx="0.5" cy="0.5" r="0.521" gradientTransform="matrix(0.922, 0, 0, -1, -1.344, 17.368)" gradientUnits="objectBoundingBox">
      <stop offset="0" stop-color="#00a0e9"/>
      <stop offset="1" stop-color="#0068b7"/>
    </radialGradient>
    <clipPath id="clip-path-2">
      <path id="Path_16555" data-name="Path 16555" d="M315.863,613.346a30.871,30.871,0,0,0-3.963.405c-6.272.974-14.73,4.91-22.524,10.163a96.025,96.025,0,0,0-20.2,19.054s12.991-14.36,20.148-14.837c2.1-.141,2.2,1.254,2.1,3.068a96.259,96.259,0,0,1-1.834,12.147s6.488-20.889,18.366-25.205c12.291-4.47-7.349,12.31-7.349,12.31,18.387-12.663,21.5-16.975,15.791-17.1Z" transform="translate(-269.176 -613.346)" fill="none"/>
    </clipPath>
    <radialGradient id="radial-gradient-2" cx="0.47" r="0.685" gradientTransform="matrix(0.567, 0, 0, -1, -1.676, 12.456)" xlink:href="#radial-gradient"/>
    <clipPath id="clip-path-3">
      <path id="Path_16556" data-name="Path 16556" d="M296.527,615.841c-3.492,2.8-10.645,11.26-10.789,11.434,1.7-1.983,9.22-7.984,11.569-9.808,3.458-2.687,3.955-2.12,4.1-3.248.064-.521-.151-.732-.548-.732-.994,0-3.088,1.363-4.324,2.349" transform="translate(-285.738 -613.488)" fill="none"/>
    </clipPath>
    <radialGradient id="radial-gradient-3" cx="0.498" r="0.535" gradientTransform="matrix(0.876, 0, 0, -1, -1.708, 27.091)" xlink:href="#radial-gradient"/>
    <clipPath id="clip-path-4">
      <path id="Path_16558" data-name="Path 16558" d="M549.508,622.435a10.843,10.843,0,0,0-2.607,7.483v.707a10.913,10.913,0,0,0,2.678,7.469c1.784,1.936,5.255,2.9,8.266,2.9a35.159,35.159,0,0,0,7.841-.767v-7.57a.312.312,0,0,1,.286-.33,3.977,3.977,0,0,1,.5-.019c.166,0,.337.006.5-.007l.249-.013v-1.286h-7.54v1.286l.249.013a6.8,6.8,0,0,1,.91.032.377.377,0,0,1,.382.382V638.6a.591.591,0,0,1-.427.573,5.639,5.639,0,0,1-1.19.038c-2.407,0-4.074-.528-5.438-2.2a9.7,9.7,0,0,1-2.032-6.6c0-3.153.6-5.363,1.821-7.075s3.815-2.573,6.063-2.452c3.621.191,4.33,2.974,4.356,3.222l.019.274H565.7v-3.91a25.806,25.806,0,0,0-3.6-.789,33.273,33.273,0,0,0-4.171-.255c-3.158,0-6.68,1.14-8.413,3" transform="translate(-546.901 -619.435)" fill="none"/>
    </clipPath>
    <radialGradient id="radial-gradient-4" r="0.486" gradientTransform="matrix(1.062, 0, 0, -1, 1.262, 16.899)" xlink:href="#radial-gradient"/>
  </defs>
  <path id="Path_16548" data-name="Path 16548" d="M350.666,621.849h-2.592a17.623,17.623,0,0,0-2.208.124c-.377.054-.563.394-.563,1.016q0,.7-.027,1.207l-.014.275H343.82v-3.72h17.449v3.722h-1.445l-.013-.275q-.042-.509-.042-1.207c0-.622-.183-.963-.549-1.016a17.833,17.833,0,0,0-2.2-.124h-2.6v15.675a4.336,4.336,0,0,0,.33,2.22c.218.259.226.417,1.315.473l.589.012v.852h-8.21v-.852l.591-.012c1.09-.057,1.092-.214,1.308-.473a4.442,4.442,0,0,0,.322-2.22Z" transform="translate(-287.028 -615.117)" fill="#231815"/>
  <path id="Path_16549" data-name="Path 16549" d="M376.129,627.865v11.361a4.577,4.577,0,0,0,.3,2.225c.2.238.211.394,1.332.468l.259.012v.853h-7.791v-.853l.262-.012c1.107-.075,1.548-.232,1.754-.473a4.471,4.471,0,0,0,.309-2.22v-7.8a4.431,4.431,0,0,0-.309-2.212c-.205-.239-.647-.4-1.754-.481l-.262-.014v-.852Z" transform="translate(-293.344 -616.818)" fill="#231815"/>
  <path id="Path_16550" data-name="Path 16550" d="M389.4,630.531a8.609,8.609,0,0,1,2.331-2.312,4.166,4.166,0,0,1,2.382-.809,3.39,3.39,0,0,1,2.379.781,3.719,3.719,0,0,1,1.234,2.339,10.338,10.338,0,0,1,2.641-2.339,5.24,5.24,0,0,1,2.678-.781c2.675,0,4.727,1.467,4.727,4.4v7.3a4.622,4.622,0,0,0,.295,2.219c.2.233-.007.39,1.12.473l.26.013v.853H401.81v-.853l.26-.013c1.127-.083,1.573-.241,1.77-.473a4.622,4.622,0,0,0,.293-2.219v-6.82a4.674,4.674,0,0,0-.461-2.457,1.579,1.579,0,0,0-1.489-.679c-1.109-.021-2.334.853-3.3,2.313v7.646a4.584,4.584,0,0,0,.3,2.219c.2.242-.049.4,1.07.473l.263.013.042.852h-7.64l-.042-.852.26-.013c1.127-.076,1.575-.226,1.769-.467a4.656,4.656,0,0,0,.3-2.225V632.3a4.754,4.754,0,0,0-.453-2.445,1.283,1.283,0,0,0-1.31-.7,4.122,4.122,0,0,0-2.521,1.381,6.386,6.386,0,0,0-1.509,2.254v6.323a4.577,4.577,0,0,0,.3,2.226c.2.238.431.394,1.551.467l.257.013v.853h-7.362v-.853l.261-.013c1.109-.075.9-.232,1.105-.473a4.687,4.687,0,0,0,.266-2.219v-7.806a4.441,4.441,0,0,0-.309-2.212c-.2-.238,0-.4-1.1-.481l-.262-.013v-.852H389.4Z" transform="translate(-296.664 -616.708)" fill="#231815"/>
  <path id="Path_16551" data-name="Path 16551" d="M449.823,632.554v4.931a4.321,4.321,0,0,0,.33,2.22c.22.26-.312.418.779.473l.589.013v.853h-7.637v-.853l.262-.013c1.108-.075.905-.231,1.107-.473a4.532,4.532,0,0,0,.309-2.22V624.271a4.429,4.429,0,0,0-.309-2.215c-.2-.236-.215-.392-1.324-.464l-.26-.027v-.973h8.206l.942.024q5.889,0,5.892,5.366a5.83,5.83,0,0,1-2.141,4.928q-2.135,1.643-6.429,1.645Zm0-.92h.473a5.316,5.316,0,0,0,4.024-1.4,5.858,5.858,0,0,0,1.337-4.193,3.738,3.738,0,0,0-4.428-4.411h-1.406Z" transform="translate(-310.908 -615.079)" fill="#231815"/>
  <path id="Path_16552" data-name="Path 16552" d="M472.579,631.823v7.294a4.355,4.355,0,0,0,.323,2.226c.216.247.442.4,1.541.467l.592.013v.853H466.9v-.853l.692-.013c1.109-.075.8-.232,1-.473a4.471,4.471,0,0,0,.309-2.22v-7.8a5.048,5.048,0,0,0-.309-2.212c-.143-.226-.226-.43-1-.481l-.692-.011v-.852h5.679v2.371c1.236-2.1,3.717-2.716,5.715-2.716a3.268,3.268,0,0,1,.919.151v2.776h-1.525a.851.851,0,0,0-.905-.7,5.343,5.343,0,0,0-4.2,2.188" transform="translate(-316.463 -616.711)" fill="#231815"/>
  <path id="Path_16553" data-name="Path 16553" d="M492.539,643.021a6.7,6.7,0,0,1-5.206-2.1,9.489,9.489,0,0,1,0-11.42,7.538,7.538,0,0,1,10.42,0,9.506,9.506,0,0,1-.007,11.42,6.7,6.7,0,0,1-5.206,2.1m0-.84q1.476,0,2.451-1.974a13.212,13.212,0,0,0,0-9.964q-.981-1.99-2.451-1.991t-2.443,1.991a13.23,13.23,0,0,0,0,9.964q.972,1.977,2.447,1.974" transform="translate(-320.893 -616.711)" fill="#231815"/>
  <rect id="Rectangle_11441" data-name="Rectangle 11441" width="6.184" height="2.033" transform="translate(182.092 16.339)" fill="#231815"/>
  <g id="Group_16497" data-name="Group 16497" transform="translate(188.535 5.01)">
    <g id="Group_16496" data-name="Group 16496" clip-path="url(#clip-path)">
      <rect id="Rectangle_11442" data-name="Rectangle 11442" width="22.697" height="20.937" fill="url(#radial-gradient)"/>
    </g>
  </g>
  <g id="Group_16499" data-name="Group 16499">
    <g id="Group_16498" data-name="Group 16498" clip-path="url(#clip-path-2)">
      <rect id="Rectangle_11443" data-name="Rectangle 11443" width="52.931" height="29.998" transform="translate(0)" fill="url(#radial-gradient-2)"/>
    </g>
  </g>
  <g id="Group_16501" data-name="Group 16501" transform="translate(12.601 0.108)">
    <g id="Group_16500" data-name="Group 16500" transform="translate(0 0)" clip-path="url(#clip-path-3)">
      <rect id="Rectangle_11444" data-name="Rectangle 11444" width="15.727" height="13.784" transform="translate(-0.003 0.004)" fill="url(#radial-gradient-3)"/>
    </g>
  </g>
  <rect id="Rectangle_11445" data-name="Rectangle 11445" width="3.784" height="3.464" transform="translate(79.109 5.633)" fill="#231815"/>
  <path id="Path_16557" data-name="Path 16557" d="M431.014,639.257c-.453,1.3-1.632,1.9-3.379,1.9-3.923,0-3.977-3.581-3.946-5.92h11.059v-.26a8.189,8.189,0,0,0-1.75-5.557,6.653,6.653,0,0,0-5-1.8,8,8,0,0,0-5.761,2.145,7.284,7.284,0,0,0-2.241,5.5,8.593,8.593,0,0,0,.069,1.07l-.01.106c0,3.536,3.232,6.187,7.544,6.187,2.825,0,5.6-.926,6.755-3.387Zm-6.2-9.129a3.644,3.644,0,0,1,2.955-1.32,3.093,3.093,0,0,1,2.613,1.018,5.282,5.282,0,0,1,.822,3.309l-.017.91h-7.469a6.518,6.518,0,0,1,1.1-3.917" transform="translate(-305.245 -616.757)" fill="#231815"/>
  <g id="Group_16503" data-name="Group 16503" transform="translate(211.305 4.633)">
    <g id="Group_16502" data-name="Group 16502" transform="translate(0 0)" clip-path="url(#clip-path-4)">
      <rect id="Rectangle_11446" data-name="Rectangle 11446" width="20.311" height="21.562" transform="translate(0 0.001)" fill="url(#radial-gradient-4)"/>
    </g>
  </g>
</svg>
