<svg xmlns="http://www.w3.org/2000/svg" xmlns:xlink="http://www.w3.org/1999/xlink" width="622.82" height="434" viewBox="0 0 622.82 434">
  <defs>
    <clipPath id="clip-path">
      <rect id="Rectangle_11769" data-name="Rectangle 11769" width="55.346" height="40.656" transform="translate(0 0)" fill="#5d9c6e"/>
    </clipPath>
  </defs>
  <g id="Group_17319" data-name="Group 17319" transform="translate(-647.65 -1245)">
    <g id="Group_17288" data-name="Group 17288" transform="translate(46.47 -20)">
      <g id="Rectangle_11770" data-name="Rectangle 11770" transform="translate(1004 1287)" fill="#fff" stroke="#73ab31" stroke-width="3">
        <rect width="220" height="104" rx="52" stroke="none"/>
        <rect x="1.5" y="1.5" width="217" height="101" rx="50.5" fill="none"/>
      </g>
      <g id="Rectangle_11771" data-name="Rectangle 11771" transform="translate(1004 1441)" fill="#fff" stroke="#5d9c6e" stroke-width="3">
        <rect width="220" height="104" rx="52" stroke="none"/>
        <rect x="1.5" y="1.5" width="217" height="101" rx="50.5" fill="none"/>
      </g>
      <g id="Rectangle_11772" data-name="Rectangle 11772" transform="translate(1004 1595)" fill="#fff" stroke="#207cbf" stroke-width="3">
        <rect width="220" height="104" rx="52" stroke="none"/>
        <rect x="1.5" y="1.5" width="217" height="101" rx="50.5" fill="none"/>
      </g>
      <g id="Group_17275" data-name="Group 17275" transform="translate(1059.213 1475.667)">
        <path id="Path_17254" data-name="Path 17254" d="M583.74,453.447a34.22,34.22,0,0,1-.937,6.993l-2.105-.819a25.883,25.883,0,0,0,.959-6.524Zm-2.924-3.555c.49.047,1.006.069,1.451.069a2.579,2.579,0,0,0,.372-.022c.469-.587.63-.843,1.146-1.544-.116-.165-.116-.165-.327-.445a21.576,21.576,0,0,0-2.736-3.181l1.308-1.918c.376.4.376.4.748.819a17.62,17.62,0,0,0,.937-1.8,15.449,15.449,0,0,0,.8-2.082l2.245.819a4.53,4.53,0,0,0-.4.725,36.3,36.3,0,0,1-2.2,4c.465.585.583.725.887,1.17a22.532,22.532,0,0,0,2.339-4.281l2.152,1.1c-.164.234-.327.49-.656,1.052a61.155,61.155,0,0,1-3.695,5.473c1.357-.071,1.753-.094,2.548-.164-.258-.656-.4-.959-.841-1.894l1.707-.679a34.83,34.83,0,0,1,1.987,4.632l-1.964.819c-.142-.469-.142-.492-.258-.961-.819.094-.819.094-1.662.165v7.414a14.378,14.378,0,0,0,.14,2.456H584.3a15.677,15.677,0,0,0,.14-2.479v-7.2c-.843.045-.843.045-2.316.14a9.765,9.765,0,0,0-1.075.14Zm8.232,3.11a53.032,53.032,0,0,1,.983,5.638l-1.918.443a35.764,35.764,0,0,0-.888-5.613Zm2.55-5.5a13.033,13.033,0,0,1-1.45,1.1,5.537,5.537,0,0,0-1.333-2.105,12.515,12.515,0,0,0,2.946-2.41,13.3,13.3,0,0,0,2.572-3.929h2.55a12.7,12.7,0,0,0,3.228,4.21,16.012,16.012,0,0,0,2.854,2.034,7.27,7.27,0,0,0-1.193,2.363,16.86,16.86,0,0,1-1.638-1.193v1.637a16.27,16.27,0,0,0-2.1-.093H593.7a17.513,17.513,0,0,0-2.105.093Zm1.589,13.963h-2.525c.069-.794.118-1.542.118-2.409v-5.729a15.242,15.242,0,0,0-.094-2.129c.585.045,1.1.069,2.011.069h6.619a19.066,19.066,0,0,0,1.918-.069,16.014,16.014,0,0,0-.094,2.105V458.8a24.111,24.111,0,0,0,.116,2.666h-2.618v-1.31h-5.451Zm5.051-14.546c.539,0,.8,0,1.077-.025a17.143,17.143,0,0,1-3.647-4.256A17.576,17.576,0,0,1,592.3,446.9c.421.025.656.025,1.217.025Zm-5.051,10.991h5.473v-4.466h-5.473Z" transform="translate(-551.487 -439.788)" fill="#5d9c6e"/>
        <path id="Path_17255" data-name="Path 17255" d="M605.059,449.938c-.14.4-.185.514-.374,1.028l-2.737-.325a37.059,37.059,0,0,0,1.965-5.849,23.1,23.1,0,0,0,.961-5l2.923.327a24.049,24.049,0,0,0-.656,2.479h8.584a19.261,19.261,0,0,0,2.875-.14v2.69a27.577,27.577,0,0,0-2.759-.118h-9.309c-.209.772-.351,1.31-.7,2.525h8.817a14.806,14.806,0,0,0,2.385-.116c-.162.935-.209,1.4-.467,4.328-.024.256-.046.443-.093.794h1.637a27.858,27.858,0,0,0,2.83-.14v2.666a27.355,27.355,0,0,0-2.83-.142h-1.989a12.06,12.06,0,0,1-1.495,4.772c-.726,1.053-1.638,1.38-3.813,1.38-1.03,0-1.824-.047-3.789-.187a9.686,9.686,0,0,0-.772-2.69,31.873,31.873,0,0,0,4.537.421c.91,0,1.38-.187,1.682-.679a11.7,11.7,0,0,0,.937-3.017h-11.18a29.438,29.438,0,0,0-2.968.142v-2.666a27.249,27.249,0,0,0,2.992.14h11.531c.14-1.1.187-1.45.281-2.619Z" transform="translate(-538.762 -439.788)" fill="#5d9c6e"/>
        <path id="Path_17256" data-name="Path 17256" d="M567.023,457.952a5.867,5.867,0,0,0-.084-1.257h1.953a8.191,8.191,0,0,0-.083,1.257h5.338a6.957,6.957,0,0,0-.084-1.257h1.955a7.982,7.982,0,0,0-.086,1.257h1.122a13.684,13.684,0,0,0,1.854-.1v1.718a15.586,15.586,0,0,0-1.854-.086h-1.122v4.778h1.36a15.928,15.928,0,0,0,1.888-.1v1.718a13.88,13.88,0,0,0-1.836-.1H575.61a9.41,9.41,0,0,0,4.045,1.869,8.624,8.624,0,0,0-.833,1.787,14.143,14.143,0,0,1-3.044-1.53v1.139a12.43,12.43,0,0,0-1.547-.067H572.26v1.19h4.15a14.219,14.219,0,0,0,1.886-.1V471.9a16.009,16.009,0,0,0-2.023-.1H566.8a16.906,16.906,0,0,0-2.041.1v-1.82a17.671,17.671,0,0,0,1.94.086h3.791v-1.19h-1.7a12.582,12.582,0,0,0-1.547.067v-1.156a12.277,12.277,0,0,1-3.046,1.581,6.1,6.1,0,0,0-.833-1.768,8.361,8.361,0,0,0,3.946-1.921h-1.667a14.414,14.414,0,0,0-1.836.1V464.16a13.666,13.666,0,0,0,1.836.1h1.377v-4.778h-.935c-.715,0-1.276.035-1.869.086v-1.718a14.267,14.267,0,0,0,1.869.1Zm2.483,7.822a9.2,9.2,0,0,1-1.615,1.616c.3.015.492.015.9.015h1.7a5.552,5.552,0,0,0-.084-1.19h1.937a5.837,5.837,0,0,0-.084,1.19h1.972c.408,0,.6,0,.851-.015a8.7,8.7,0,0,1-1.7-1.616Zm4.642-6.292h-5.338v.7h5.338Zm0,2.041h-5.338v.681h5.338Zm0,2.023h-5.338v.715h5.338Z" transform="translate(-563.367 -428.198)" fill="#5d9c6e"/>
        <path id="Path_17257" data-name="Path 17257" d="M576.091,461.286a19.084,19.084,0,0,0-2.022.1v-2.075a14.561,14.561,0,0,0,2.022.12h4.37v-1.207a10.662,10.662,0,0,0-.1-1.583h2.125a8.555,8.555,0,0,0-.12,1.564v1.225h4.608a13.863,13.863,0,0,0,2.06-.12v2.075a19.852,19.852,0,0,0-2.06-.1h-3.637a16.883,16.883,0,0,0,2.548,3.572,14.646,14.646,0,0,0,3.708,2.857,6.882,6.882,0,0,0-1.156,1.852,19.1,19.1,0,0,1-2.857-2.363v1.938a12.186,12.186,0,0,0-1.7-.1h-1.513V470.2a15.448,15.448,0,0,0,.12,2.107h-2.142a15.787,15.787,0,0,0,.12-2.107v-1.156h-1.343a12.017,12.017,0,0,0-1.7.1V467.22a16.183,16.183,0,0,1-2.756,2.38,5.82,5.82,0,0,0-1.155-1.785,15.99,15.99,0,0,0,5.916-6.53Zm4.37,3.248a16.5,16.5,0,0,1,.137-1.9,16.927,16.927,0,0,1-3.095,4.505,10.506,10.506,0,0,0,1.512.069h1.446Zm3.553,2.67a10.426,10.426,0,0,0,1.5-.069,18.321,18.321,0,0,1-3.3-4.505,13.884,13.884,0,0,1,.152,1.888V467.2Z" transform="translate(-556.416 -428.233)" fill="#5d9c6e"/>
        <path id="Path_17258" data-name="Path 17258" d="M597.194,462.341a7.491,7.491,0,0,0-.479,1.07,12.026,12.026,0,0,1-3.942,5.747,15.166,15.166,0,0,1-4.457,2.314,5.911,5.911,0,0,0-1.326-1.974,11.042,11.042,0,0,0,4.728-2.243,8.847,8.847,0,0,0,2.737-3.979h-8.279a17.424,17.424,0,0,0-2.176.084v-2.073a12.13,12.13,0,0,0,2.208.118H594.3a7.405,7.405,0,0,0,1.922-.153Zm-11.751-5.153a9.613,9.613,0,0,0,1.99.12h5.933a9.612,9.612,0,0,0,1.99-.12v2.092a13.19,13.19,0,0,0-1.955-.084h-6a13.208,13.208,0,0,0-1.955.084Z" transform="translate(-549.223 -427.86)" fill="#5d9c6e"/>
        <path id="Path_17259" data-name="Path 17259" d="M606.689,458.287a6.84,6.84,0,0,0-.629.6,30.319,30.319,0,0,1-4.013,3.5v7.259a12.651,12.651,0,0,0,.086,1.886h-2.38a9.643,9.643,0,0,0,.1-1.834v-5.987a27.512,27.512,0,0,1-6.068,2.756,6.377,6.377,0,0,0-1.139-1.938,24.867,24.867,0,0,0,8.926-4.421,13.616,13.616,0,0,0,3.162-3.18Z" transform="translate(-543.297 -428.039)" fill="#5d9c6e"/>
        <path id="Path_17260" data-name="Path 17260" d="M616.573,460.906a4.126,4.126,0,0,0-.475.834,12.4,12.4,0,0,1-4.167,4.964,5.626,5.626,0,0,0-1.7-1.377,8.563,8.563,0,0,0,2.8-2.4c.239-.34.342-.494.647-1-.273.052-.391.069-.647.1-1.716.2-3.467.425-5.237.679v3.826a7.707,7.707,0,0,0,.069,1.463c.118.664.662.849,2.4.849a18.837,18.837,0,0,0,5.22-.662l.1,2.3a10.347,10.347,0,0,0-1.036.067,37.979,37.979,0,0,1-4.217.29,11.641,11.641,0,0,1-3.027-.29,2.22,2.22,0,0,1-1.461-1.564,6.494,6.494,0,0,1-.172-2.142v-3.9l-1.6.206a10.061,10.061,0,0,0-1.886.322l-.223-2.109a3.852,3.852,0,0,0,.408.019,13.6,13.6,0,0,0,1.5-.12l1.8-.221v-2.329a8.5,8.5,0,0,0-.1-1.615h2.346a8.208,8.208,0,0,0-.1,1.581v2.142l6.189-.748a3.161,3.161,0,0,0,1.308-.29Z" transform="translate(-536.907 -427.922)" fill="#5d9c6e"/>
        <path id="Path_17261" data-name="Path 17261" d="M611.775,468.2a16.245,16.245,0,0,0,5.031-1.257,11.361,11.361,0,0,0,5.052-4.167,14.17,14.17,0,0,0,1.733-3.4,7.346,7.346,0,0,0,1.8,1.667,14.927,14.927,0,0,1-5.39,6.664,18.34,18.34,0,0,1-6.477,2.55,5.954,5.954,0,0,0-1.123.29Zm1.444-10.56a24.2,24.2,0,0,1,4.387,3.282l-1.465,1.854a17.772,17.772,0,0,0-4.333-3.452Z" transform="translate(-530.184 -427.549)" fill="#5d9c6e"/>
        <path id="Path_17262" data-name="Path 17262" d="M633.689,470.886a32.608,32.608,0,0,0-5.22-5.05,20.2,20.2,0,0,1-6.477,4.913,6.88,6.88,0,0,0-1.379-1.886,14.017,14.017,0,0,0,3.4-1.871,16.376,16.376,0,0,0,5.712-6.921l.189-.442c-.273.017-.273.017-5.63.1a13.58,13.58,0,0,0-1.854.135l-.068-2.176a7.384,7.384,0,0,0,1.5.1h.408l5.985-.084a3.663,3.663,0,0,0,1.512-.187l1.124,1.156a3.24,3.24,0,0,0-.544.919,22.618,22.618,0,0,1-2.651,4.692,26.406,26.406,0,0,1,3.144,2.466c.426.374.426.374,2.484,2.363Z" transform="translate(-524.126 -427.632)" fill="#5d9c6e"/>
      </g>
      <g id="Group_17277" data-name="Group 17277" transform="translate(1059.213 1320.677)">
        <path id="Path_17266" data-name="Path 17266" d="M584.594,363.631a18.283,18.283,0,0,1-1.849,6.477,8.54,8.54,0,0,0-2.1-1.426,12.049,12.049,0,0,0,1.824-5.542Zm1.053-11.556a9.025,9.025,0,0,0-.118-1.869h2.759a11.034,11.034,0,0,0-.093,1.825v.583h2.082a11.257,11.257,0,0,0,2.2-.14V355a13.92,13.92,0,0,0-2.2-.118h-6.995a14.6,14.6,0,0,0-2.245.118v-2.527a10.859,10.859,0,0,0,2.223.14h2.387Zm-1.288,10.2a20.984,20.984,0,0,0-2.269.094,19.7,19.7,0,0,0,.094-2.152V358.2a19.3,19.3,0,0,0-.094-2.1,20.443,20.443,0,0,0,2.245.093h5.006a19.521,19.521,0,0,0,2.2-.093,16.379,16.379,0,0,0-.094,2.058v2.082a17.416,17.416,0,0,0,.094,2.129,19.137,19.137,0,0,0-2.174-.094h-1.239v7.04a2.207,2.207,0,0,1-.679,1.8,3.692,3.692,0,0,1-2.2.421c-.256,0-.538,0-1.193-.024a8.946,8.946,0,0,0-.49-2.385,8.752,8.752,0,0,0,1.52.118c.492,0,.609-.094.609-.516v-6.455Zm.258-2.127h4.4V358.3h-4.4Zm5.683,2.736a30.637,30.637,0,0,1,1.566,3.6l-1.94,1.052a16.841,16.841,0,0,0-1.4-3.905Zm4-4.7a13.484,13.484,0,0,0-2.176.116v-2.643a12.247,12.247,0,0,0,2.176.118h.654c.071-1.288.094-2.129.094-3.206a14.522,14.522,0,0,0-.116-2.221H597.6a15.1,15.1,0,0,0-.12,2.105c-.022,1.1-.045,2.012-.138,3.322h2.643a13.63,13.63,0,0,0,2.291-.118V358.3a14.91,14.91,0,0,0-2.291-.116h-2.877c-.071.469-.071.538-.211,1.4h2.127a12.139,12.139,0,0,0-.093,1.847l-.069,6.971c-.024.421.116.514.772.514.817,0,.888-.258.888-4.163a6.942,6.942,0,0,0,2.129.89c-.094,2.852-.189,3.764-.539,4.559-.372.866-1.075,1.146-2.759,1.146a5.049,5.049,0,0,1-2.082-.3c-.492-.234-.678-.656-.654-1.52l.069-8.094V360.9a23.266,23.266,0,0,1-2.408,6.828,16.426,16.426,0,0,1-3.228,4.234,10.848,10.848,0,0,0-1.871-1.987,12.646,12.646,0,0,0,1.776-1.871,13.5,13.5,0,0,0,2.456-4.352,23.367,23.367,0,0,0,1.311-5.565Zm5.307-7.6a20.557,20.557,0,0,1,2.574,3.44l-1.895,1.45a18.249,18.249,0,0,0-2.432-3.718Z" transform="translate(-551.523 -350.204)" fill="#73ab31"/>
        <path id="Path_17267" data-name="Path 17267" d="M602.828,359.514a17.221,17.221,0,0,0-2.409.118v-2.223a21.036,21.036,0,0,0,2.409.094h2.83c-.352-.748-.608-1.286-.865-1.729h-2.527c-1.146,0-2.034.046-2.784.115v-2.338a19.984,19.984,0,0,0,2.666.14h.75a9.845,9.845,0,0,0-1.593-2.174l2.339-.89a16.406,16.406,0,0,1,1.8,3.064h1.335v-1.66a12.907,12.907,0,0,0-.118-1.825h2.55a15.635,15.635,0,0,0-.071,1.733v1.753H610.8v-1.753a17.034,17.034,0,0,0-.071-1.733h2.55a12.2,12.2,0,0,0-.118,1.825v1.66h1.473a12.458,12.458,0,0,0,1.684-3.135l2.41.89c-.563.935-.937,1.52-1.451,2.245h.654a19.123,19.123,0,0,0,2.644-.14v2.338c-.725-.069-1.638-.115-2.784-.115h-2.338c-.445.934-.539,1.144-.865,1.729h2.71a21.316,21.316,0,0,0,2.41-.094v2.223a17.014,17.014,0,0,0-2.41-.118h-6.1v1.123h4.89a16.819,16.819,0,0,0,2.407-.116v2.105a17.029,17.029,0,0,0-2.407-.116H611.2v1.168h6.525a20.832,20.832,0,0,0,2.832-.14v2.339a25.094,25.094,0,0,0-2.806-.14h-4.7a12.208,12.208,0,0,0,3.18,1.871,20.1,20.1,0,0,0,4.863,1.332,9.358,9.358,0,0,0-1.332,2.387c-3.931-1.077-6.572-2.5-8.677-4.632a15.869,15.869,0,0,1,.071,1.66V369.5a13.212,13.212,0,0,0,.164,2.361h-2.759a17.61,17.61,0,0,0,.138-2.385v-1.124a15.608,15.608,0,0,1,.071-1.589,13.02,13.02,0,0,1-3.368,2.572,22.557,22.557,0,0,1-4.772,1.965,9.536,9.536,0,0,0-1.426-2.245,16.818,16.818,0,0,0,7.647-3.32H602.5a25.484,25.484,0,0,0-2.828.14v-2.339a21.859,21.859,0,0,0,2.806.14h6.2v-1.168h-4.632a16.693,16.693,0,0,0-2.385.116V360.52a16.485,16.485,0,0,0,2.385.116h4.632v-1.123ZM612,357.5a13.756,13.756,0,0,0,.772-1.729h-5.333a15.093,15.093,0,0,1,.7,1.729Z" transform="translate(-538.799 -350.205)" fill="#73ab31"/>
        <path id="Path_17268" data-name="Path 17268" d="M567.021,368.246a5.894,5.894,0,0,0-.084-1.259h1.955a7.987,7.987,0,0,0-.084,1.259h5.338a6.982,6.982,0,0,0-.084-1.259h1.955a8.021,8.021,0,0,0-.086,1.259h1.123a13.37,13.37,0,0,0,1.854-.1v1.717a15.957,15.957,0,0,0-1.854-.084H575.93v4.778h1.362a15.541,15.541,0,0,0,1.886-.1v1.718a13.914,13.914,0,0,0-1.835-.1h-1.734a9.429,9.429,0,0,0,4.045,1.869,8.578,8.578,0,0,0-.831,1.787,14.187,14.187,0,0,1-3.044-1.532v1.141a12.419,12.419,0,0,0-1.549-.069h-1.972v1.192h4.15a14.515,14.515,0,0,0,1.886-.1v1.836a16.321,16.321,0,0,0-2.023-.1H566.8a17.276,17.276,0,0,0-2.041.1V380.37a18.135,18.135,0,0,0,1.94.086h3.791v-1.192h-1.7a12.559,12.559,0,0,0-1.547.069v-1.156a12.353,12.353,0,0,1-3.044,1.581,6.025,6.025,0,0,0-.834-1.768,8.376,8.376,0,0,0,3.946-1.922h-1.667a14.443,14.443,0,0,0-1.835.1v-1.718a13.385,13.385,0,0,0,1.835.1h1.377v-4.778h-.935c-.715,0-1.276.034-1.869.084v-1.717a13.941,13.941,0,0,0,1.869.1Zm2.483,7.822a9.136,9.136,0,0,1-1.615,1.615c.305.017.492.017.9.017h1.7a5.534,5.534,0,0,0-.084-1.19h1.937a5.837,5.837,0,0,0-.084,1.19h1.972c.41,0,.6,0,.851-.017a8.655,8.655,0,0,1-1.7-1.615Zm4.642-6.292h-5.338v.7h5.338Zm0,2.041h-5.338v.679h5.338Zm0,2.023h-5.338v.715h5.338Z" transform="translate(-563.365 -338.701)" fill="#73ab31"/>
        <path id="Path_17269" data-name="Path 17269" d="M576.089,371.579a19.543,19.543,0,0,0-2.023.1v-2.075a14.553,14.553,0,0,0,2.023.12h4.37v-1.207a10.418,10.418,0,0,0-.1-1.583h2.125a8.568,8.568,0,0,0-.12,1.566v1.224h4.61a13.846,13.846,0,0,0,2.058-.12v2.075a20.32,20.32,0,0,0-2.058-.1h-3.639a16.912,16.912,0,0,0,2.548,3.57,14.611,14.611,0,0,0,3.71,2.857,6.853,6.853,0,0,0-1.158,1.854,19.219,19.219,0,0,1-2.857-2.365v1.938a12.442,12.442,0,0,0-1.7-.1h-1.514v1.156a15.485,15.485,0,0,0,.12,2.109H580.34a15.522,15.522,0,0,0,.12-2.109v-1.156h-1.343a12.27,12.27,0,0,0-1.7.1v-1.922a16.176,16.176,0,0,1-2.754,2.382,5.863,5.863,0,0,0-1.156-1.787,16,16,0,0,0,5.916-6.528Zm4.37,3.248a16.461,16.461,0,0,1,.136-1.9,16.977,16.977,0,0,1-3.094,4.505,10.827,10.827,0,0,0,1.512.067h1.446Zm3.553,2.668a10.746,10.746,0,0,0,1.5-.067,18.389,18.389,0,0,1-3.3-4.505,13.834,13.834,0,0,1,.152,1.888V377.5Z" transform="translate(-556.414 -338.736)" fill="#73ab31"/>
        <path id="Path_17270" data-name="Path 17270" d="M597.192,372.634a7.692,7.692,0,0,0-.479,1.07,12.027,12.027,0,0,1-3.942,5.747,15.106,15.106,0,0,1-4.456,2.312,5.944,5.944,0,0,0-1.325-1.972,11.047,11.047,0,0,0,4.726-2.245,8.854,8.854,0,0,0,2.739-3.979h-8.281a17.334,17.334,0,0,0-2.176.086v-2.075a11.938,11.938,0,0,0,2.208.12h8.1a7.39,7.39,0,0,0,1.92-.153Zm-11.751-5.153a9.613,9.613,0,0,0,1.991.12h5.935a9.6,9.6,0,0,0,1.989-.12v2.092a12.888,12.888,0,0,0-1.955-.086h-6a12.913,12.913,0,0,0-1.957.086Z" transform="translate(-549.221 -338.362)" fill="#73ab31"/>
        <path id="Path_17271" data-name="Path 17271" d="M606.687,368.581a6.8,6.8,0,0,0-.629.595,30.118,30.118,0,0,1-4.013,3.5v7.261a12.887,12.887,0,0,0,.086,1.886h-2.38a9.636,9.636,0,0,0,.1-1.836V374a27.489,27.489,0,0,1-6.069,2.754,6.418,6.418,0,0,0-1.139-1.938,24.839,24.839,0,0,0,8.926-4.421,13.582,13.582,0,0,0,3.162-3.181Z" transform="translate(-543.295 -338.542)" fill="#73ab31"/>
        <path id="Path_17272" data-name="Path 17272" d="M616.572,371.2a4.1,4.1,0,0,0-.475.833A12.393,12.393,0,0,1,611.931,377a5.628,5.628,0,0,0-1.7-1.377,8.53,8.53,0,0,0,2.8-2.4c.239-.339.342-.492.647-1-.273.052-.391.069-.647.1-1.716.2-3.467.425-5.235.679v3.826a7.656,7.656,0,0,0,.067,1.463c.118.662.664.849,2.4.849a18.821,18.821,0,0,0,5.22-.662l.1,2.3a9.454,9.454,0,0,0-1.037.067,37.953,37.953,0,0,1-4.217.29,11.725,11.725,0,0,1-3.027-.29,2.22,2.22,0,0,1-1.461-1.564,6.492,6.492,0,0,1-.172-2.142v-3.9l-1.6.206a10.133,10.133,0,0,0-1.886.322l-.223-2.109c.187.017.324.017.408.017a13.581,13.581,0,0,0,1.5-.118l1.8-.221v-2.329a8.524,8.524,0,0,0-.1-1.616h2.346a8.219,8.219,0,0,0-.1,1.581v2.144l6.189-.75a3.178,3.178,0,0,0,1.31-.288Z" transform="translate(-536.905 -338.424)" fill="#73ab31"/>
        <path id="Path_17273" data-name="Path 17273" d="M611.774,378.5a16.261,16.261,0,0,0,5.033-1.259,11.353,11.353,0,0,0,5.05-4.167,14.065,14.065,0,0,0,1.733-3.4,7.371,7.371,0,0,0,1.8,1.667A14.916,14.916,0,0,1,620,378a18.37,18.37,0,0,1-6.477,2.55,6,6,0,0,0-1.123.29Zm1.444-10.56a24.042,24.042,0,0,1,4.387,3.282l-1.463,1.852a17.843,17.843,0,0,0-4.335-3.45Z" transform="translate(-530.181 -338.051)" fill="#73ab31"/>
        <path id="Path_17274" data-name="Path 17274" d="M633.687,381.179a32.694,32.694,0,0,0-5.22-5.051,20.177,20.177,0,0,1-6.477,4.915,6.888,6.888,0,0,0-1.379-1.888,13.909,13.909,0,0,0,3.4-1.871,16.362,16.362,0,0,0,5.712-6.919l.189-.443c-.273.018-.273.018-5.63.1a13.58,13.58,0,0,0-1.854.135l-.067-2.176a7.381,7.381,0,0,0,1.5.1h.408l5.985-.084a3.724,3.724,0,0,0,1.512-.187l1.124,1.156a3.25,3.25,0,0,0-.544.919,22.593,22.593,0,0,1-2.651,4.692,26.526,26.526,0,0,1,3.145,2.464c.425.376.425.376,2.483,2.365Z" transform="translate(-524.124 -338.134)" fill="#73ab31"/>
      </g>
      <g id="Group_17276" data-name="Group 17276" transform="translate(1059.213 1627.316)">
        <path id="Path_17278" data-name="Path 17278" d="M566.972,540.957a5.725,5.725,0,0,0-.086-1.257h1.957a7.91,7.91,0,0,0-.086,1.257h5.34a6.917,6.917,0,0,0-.086-1.257h1.957a7.947,7.947,0,0,0-.086,1.257H577a13.663,13.663,0,0,0,1.854-.1v1.716a15.975,15.975,0,0,0-1.854-.084h-1.123v4.778h1.36a15.537,15.537,0,0,0,1.888-.1v1.718a13.918,13.918,0,0,0-1.837-.1h-1.733a9.4,9.4,0,0,0,4.045,1.869,8.664,8.664,0,0,0-.833,1.787,14.3,14.3,0,0,1-3.044-1.53v1.138a12.774,12.774,0,0,0-1.546-.067h-1.974v1.192h4.15a14.557,14.557,0,0,0,1.888-.1V554.9a16.4,16.4,0,0,0-2.024-.1h-9.472a17.236,17.236,0,0,0-2.039.1v-1.819a18.074,18.074,0,0,0,1.94.086h3.791v-1.192h-1.7a12.966,12.966,0,0,0-1.547.067v-1.156a12.212,12.212,0,0,1-3.044,1.583,6.037,6.037,0,0,0-.833-1.768,8.383,8.383,0,0,0,3.946-1.921h-1.667a14.438,14.438,0,0,0-1.836.1v-1.718a13.375,13.375,0,0,0,1.836.1h1.377v-4.778h-.935c-.713,0-1.274.035-1.871.084v-1.716a14.327,14.327,0,0,0,1.871.1Zm2.483,7.822a9.135,9.135,0,0,1-1.615,1.615c.305.017.492.017.9.017h1.7a5.408,5.408,0,0,0-.086-1.19h1.938a5.825,5.825,0,0,0-.084,1.19h1.974c.408,0,.593,0,.849-.017a8.545,8.545,0,0,1-1.7-1.615Zm4.642-6.292h-5.34v.7h5.34Zm0,2.041h-5.34v.681h5.34Zm0,2.023h-5.34v.715h5.34Z" transform="translate(-563.315 -510.949)" fill="#207cbf"/>
        <path id="Path_17279" data-name="Path 17279" d="M576.04,544.291a19.526,19.526,0,0,0-2.023.1v-2.073a14.527,14.527,0,0,0,2.023.12h4.37V541.23a10.654,10.654,0,0,0-.1-1.581h2.125a8.412,8.412,0,0,0-.12,1.564v1.225h4.608a13.806,13.806,0,0,0,2.058-.12v2.073a20.252,20.252,0,0,0-2.058-.1h-3.639a16.88,16.88,0,0,0,2.55,3.572,14.614,14.614,0,0,0,3.708,2.857,6.88,6.88,0,0,0-1.156,1.852,19.011,19.011,0,0,1-2.857-2.363v1.938a12.159,12.159,0,0,0-1.7-.1h-1.514V553.2a15.2,15.2,0,0,0,.12,2.109h-2.144a15.506,15.506,0,0,0,.121-2.109v-1.156h-1.343a12.032,12.032,0,0,0-1.7.1v-1.922a16.105,16.105,0,0,1-2.754,2.38,5.853,5.853,0,0,0-1.155-1.785,16,16,0,0,0,5.916-6.53Zm4.37,3.248a16.838,16.838,0,0,1,.135-1.9,16.844,16.844,0,0,1-3.095,4.505,10.538,10.538,0,0,0,1.514.069h1.446Zm3.553,2.67a10.417,10.417,0,0,0,1.5-.069,18.324,18.324,0,0,1-3.3-4.505,13.864,13.864,0,0,1,.152,1.888v2.687Z" transform="translate(-556.365 -510.984)" fill="#207cbf"/>
        <path id="Path_17280" data-name="Path 17280" d="M597.142,545.346a7.721,7.721,0,0,0-.477,1.07,12.017,12.017,0,0,1-3.944,5.748,15.1,15.1,0,0,1-4.455,2.313,5.925,5.925,0,0,0-1.327-1.972,11.061,11.061,0,0,0,4.728-2.243,8.882,8.882,0,0,0,2.737-3.979h-8.279a17.431,17.431,0,0,0-2.178.084v-2.073a12.159,12.159,0,0,0,2.21.118h8.094a7.4,7.4,0,0,0,1.921-.153Zm-11.75-5.153a9.614,9.614,0,0,0,1.991.12h5.933a9.614,9.614,0,0,0,1.991-.12v2.092a13.136,13.136,0,0,0-1.955-.086h-6a13.121,13.121,0,0,0-1.955.086Z" transform="translate(-549.173 -510.61)" fill="#207cbf"/>
        <path id="Path_17281" data-name="Path 17281" d="M606.639,541.292a6.823,6.823,0,0,0-.629.6,30.343,30.343,0,0,1-4.013,3.5v7.259a12.66,12.66,0,0,0,.086,1.886H599.7a9.483,9.483,0,0,0,.1-1.836v-5.985a27.515,27.515,0,0,1-6.069,2.756,6.336,6.336,0,0,0-1.139-1.94,24.821,24.821,0,0,0,8.926-4.419,13.593,13.593,0,0,0,3.164-3.18Z" transform="translate(-543.246 -510.79)" fill="#207cbf"/>
        <path id="Path_17282" data-name="Path 17282" d="M616.523,543.911a4.253,4.253,0,0,0-.477.836,12.358,12.358,0,0,1-4.167,4.962,5.623,5.623,0,0,0-1.7-1.375,8.555,8.555,0,0,0,2.806-2.4c.238-.341.342-.494.647-1-.273.052-.391.069-.647.1-1.718.2-3.467.425-5.237.678v3.828a7.346,7.346,0,0,0,.069,1.461c.118.666.662.851,2.4.851a18.843,18.843,0,0,0,5.22-.662l.1,2.3a9.912,9.912,0,0,0-1.036.066,37.991,37.991,0,0,1-4.215.292,11.625,11.625,0,0,1-3.027-.292,2.217,2.217,0,0,1-1.463-1.562,6.524,6.524,0,0,1-.17-2.142v-3.9l-1.6.2a10.237,10.237,0,0,0-1.888.324l-.221-2.11a3.833,3.833,0,0,0,.408.019,13.554,13.554,0,0,0,1.5-.118l1.8-.221v-2.329a8.668,8.668,0,0,0-.1-1.616h2.346a8.2,8.2,0,0,0-.1,1.583v2.142l6.191-.748a3.163,3.163,0,0,0,1.308-.29Z" transform="translate(-536.855 -510.673)" fill="#207cbf"/>
        <path id="Path_17283" data-name="Path 17283" d="M611.724,551.208a16.291,16.291,0,0,0,5.033-1.257,11.355,11.355,0,0,0,5.05-4.166,14.171,14.171,0,0,0,1.734-3.4,7.343,7.343,0,0,0,1.8,1.667,14.919,14.919,0,0,1-5.392,6.664,18.347,18.347,0,0,1-6.476,2.55,5.918,5.918,0,0,0-1.122.29Zm1.446-10.56a24.179,24.179,0,0,1,4.387,3.282l-1.465,1.854a17.744,17.744,0,0,0-4.335-3.452Z" transform="translate(-530.133 -510.299)" fill="#207cbf"/>
        <path id="Path_17284" data-name="Path 17284" d="M633.638,553.891a32.688,32.688,0,0,0-5.222-5.05,20.172,20.172,0,0,1-6.476,4.913,6.891,6.891,0,0,0-1.379-1.886,14.049,14.049,0,0,0,3.4-1.871,16.387,16.387,0,0,0,5.712-6.921l.189-.442c-.273.017-.273.017-5.63.1a13.776,13.776,0,0,0-1.854.136l-.067-2.176a7.506,7.506,0,0,0,1.5.1h.408l5.985-.084a3.67,3.67,0,0,0,1.512-.187l1.122,1.156a3.28,3.28,0,0,0-.543.919,22.62,22.62,0,0,1-2.653,4.692,26.423,26.423,0,0,1,3.145,2.464c.426.376.426.376,2.483,2.365Z" transform="translate(-524.074 -510.382)" fill="#207cbf"/>
        <path id="Path_17285" data-name="Path 17285" d="M585.255,525.994v-2.468h7.768c-.024,6.01.244,7.672,1.685,10.531,1.711,3.005,3.445,4.472,8.112,6.865l-1.637,2.272a20,20,0,0,1-5.254-3.567c-2.321-2.2-3.1-3.566-4.128-7.232-.856,4.74-3.738,8.087-9.847,11.385l-1.638-2.3c3.373-1.539,6.255-3.689,7.43-5.5,1.807-2.4,2.685-5.766,2.638-9.993Z" transform="translate(-551.661 -522.036)" fill="#207cbf"/>
        <path id="Path_17286" data-name="Path 17286" d="M598.921,541.9H608.3v-2.3h-7.575v-2.1H608.3V535.64c-4.372.244-5.668.293-8.013.342l-.978-2.1c1.809-.024,2.1-.049,4.178-.1a22.779,22.779,0,0,0,1.369-2.956h-2.933v-2.053h15.3v2.053h-2.739a26,26,0,0,1,4.692,4.446l-2.051,1.466a12.922,12.922,0,0,0-1.32-1.637c-2.078.147-2.493.2-5.181.366L610.6,537.5h7.747v2.1H610.6v2.3h9.724v2.174h-21.4Zm.244-16.713H608.3v-2.54h2.444v2.54h9.162v4.888h-2.3v-2.835H601.463v3.005h-2.3Zm13.878,5.645H607.3c-.635,1.369-.733,1.588-1.417,2.882l3.934-.121c1.124-.072,2.223-.123,3.347-.17.1,0,.465-.025,1.027-.049a25.948,25.948,0,0,0-2.372-1.881Z" transform="translate(-538.909 -522.642)" fill="#207cbf"/>
      </g>
      <rect id="Rectangle_11773" data-name="Rectangle 11773" width="74.556" height="49.029" transform="translate(1073.646 1265.49)" fill="#fff"/>
      <rect id="Rectangle_11774" data-name="Rectangle 11774" width="96.467" height="45.658" transform="translate(1066.904 1422.869)" fill="#fff"/>
      <rect id="Rectangle_11775" data-name="Rectangle 11775" width="52.644" height="45.658" transform="translate(1087.13 1571.393)" fill="#fff"/>
      <g id="Group_17279" data-name="Group 17279" transform="translate(1074.331 1422.379)">
        <path id="Path_17263" data-name="Path 17263" d="M580.3,430.685a4.172,4.172,0,1,1,4.173-4.173,4.172,4.172,0,0,1-4.173,4.173" transform="translate(-570.806 -401.83)" fill="#5d9c6e"/>
        <path id="Path_17264" data-name="Path 17264" d="M572.969,421.168v16.958a1.269,1.269,0,0,0,1.271,1.269h3.26v4.118a1.272,1.272,0,0,0,1.273,1.272h30.76a1.271,1.271,0,0,0,1.269-1.272V426.554a1.27,1.27,0,0,0-1.269-1.269h-3.263v-4.118A1.272,1.272,0,0,0,605,419.895H574.24a1.272,1.272,0,0,0-1.271,1.273m2.538,1.269h28.222v14.418H596.66a6.075,6.075,0,0,1-1.042,2.54H605a1.269,1.269,0,0,0,1.269-1.269v-10.3h1.994v14.418H580.041v-2.848h5.608a6.034,6.034,0,0,1-1.043-2.54h-9.1Z" transform="translate(-572.969 -403.507)" fill="#5d9c6e"/>
        <path id="Path_17265" data-name="Path 17265" d="M585.592,436.78a5.267,5.267,0,1,1,5.267-5.267,5.268,5.268,0,0,1-5.267,5.267" transform="translate(-567.927 -399.154)" fill="#5d9c6e"/>
        <g id="Group_17274" data-name="Group 17274" transform="translate(27.02 0)" clip-path="url(#clip-path)">
          <path id="Path_17314" data-name="Path 17314" d="M569.625,419.275l-47.693-8.411a1.2,1.2,0,0,0-1.384.969l-5.264,29.86a1.192,1.192,0,0,0,.967,1.38l47.692,8.411a1.194,1.194,0,0,0,1.384-.966l5.266-29.862a1.194,1.194,0,0,0-.969-1.382m-6.44,29.653-45.341-8,4.852-27.509,45.341,7.994Z" transform="translate(-515.268 -410.848)" fill="#5d9c6e"/>
          <rect id="Rectangle_11759" data-name="Rectangle 11759" width="1.239" height="43.052" transform="translate(8.238 6.035) rotate(-79.999)" fill="#5d9c6e"/>
          <rect id="Rectangle_11760" data-name="Rectangle 11760" width="1.238" height="43.053" transform="translate(6.269 17.196) rotate(-79.999)" fill="#5d9c6e"/>
          <rect id="Rectangle_11761" data-name="Rectangle 11761" width="0.742" height="43.053" transform="translate(7.278 11.466) rotate(-79.999)" fill="#5d9c6e"/>
          <path id="Path_17315" data-name="Path 17315" d="M561.017,430.913l-42.4-7.475-.13.73,42.4,7.477Z" transform="translate(-513.059 -402.216)" fill="#5d9c6e"/>
          <rect id="Rectangle_11762" data-name="Rectangle 11762" width="23.903" height="1.236" transform="translate(45.503 35.623) rotate(-80.103)" fill="#5d9c6e"/>
          <rect id="Rectangle_11763" data-name="Rectangle 11763" width="11.952" height="0.744" transform="matrix(0.174, -0.985, 0.985, 0.174, 13.642, 17.868)" fill="#5d9c6e"/>
          <path id="Path_17316" data-name="Path 17316" d="M530.193,415.306l-.732-.131-2.075,11.771.732.13Z" transform="translate(-506.96 -407.881)" fill="#5d9c6e"/>
          <rect id="Rectangle_11764" data-name="Rectangle 11764" width="11.95" height="0.744" transform="matrix(0.174, -0.985, 0.985, 0.174, 27.205, 20.258)" fill="#5d9c6e"/>
          <rect id="Rectangle_11765" data-name="Rectangle 11765" width="11.951" height="0.742" transform="matrix(0.175, -0.985, 0.985, 0.175, 33.987, 21.455)" fill="#5d9c6e"/>
          <path id="Path_17317" data-name="Path 17317" d="M542.265,417.433l-.732-.13-2.075,11.771.732.128Z" transform="translate(-498.684 -406.422)" fill="#5d9c6e"/>
          <rect id="Rectangle_11766" data-name="Rectangle 11766" width="6.966" height="0.742" transform="translate(35.349 33.619) rotate(-80.069)" fill="#5d9c6e"/>
          <rect id="Rectangle_11767" data-name="Rectangle 11767" width="23.903" height="1.236" transform="translate(4.287 28.353) rotate(-79.934)" fill="#5d9c6e"/>
          <rect id="Rectangle_11768" data-name="Rectangle 11768" width="1.235" height="43.052" transform="translate(4.301 28.357) rotate(-80.001)" fill="#5d9c6e"/>
        </g>
      </g>
      <g id="Group_17278" data-name="Group 17278" transform="translate(1087.431 1265)">
        <rect id="Rectangle_11736" data-name="Rectangle 11736" width="3.209" height="3.706" transform="translate(20.429 11.766)" fill="#73ab31"/>
        <rect id="Rectangle_11737" data-name="Rectangle 11737" width="3.211" height="3.706" transform="translate(24.744 11.766)" fill="#73ab31"/>
        <rect id="Rectangle_11738" data-name="Rectangle 11738" width="2.833" height="3.273" transform="translate(10.404 18.599)" fill="#73ab31"/>
        <rect id="Rectangle_11739" data-name="Rectangle 11739" width="2.833" height="3.271" transform="translate(10.404 25.432)" fill="#73ab31"/>
        <rect id="Rectangle_11740" data-name="Rectangle 11740" width="2.833" height="3.271" transform="translate(10.404 32.265)" fill="#73ab31"/>
        <rect id="Rectangle_11741" data-name="Rectangle 11741" width="3.208" height="3.706" transform="translate(29.059 11.766)" fill="#73ab31"/>
        <rect id="Rectangle_11742" data-name="Rectangle 11742" width="3.209" height="3.708" transform="translate(20.429 5.075)" fill="#73ab31"/>
        <rect id="Rectangle_11743" data-name="Rectangle 11743" width="3.211" height="3.708" transform="translate(24.744 5.075)" fill="#73ab31"/>
        <rect id="Rectangle_11744" data-name="Rectangle 11744" width="3.208" height="3.708" transform="translate(29.059 5.075)" fill="#73ab31"/>
        <rect id="Rectangle_11745" data-name="Rectangle 11745" width="3.209" height="3.706" transform="translate(20.429 18.599)" fill="#73ab31"/>
        <rect id="Rectangle_11746" data-name="Rectangle 11746" width="3.211" height="3.706" transform="translate(24.744 18.599)" fill="#73ab31"/>
        <rect id="Rectangle_11747" data-name="Rectangle 11747" width="3.208" height="3.706" transform="translate(29.059 18.599)" fill="#73ab31"/>
        <rect id="Rectangle_11748" data-name="Rectangle 11748" width="3.209" height="3.706" transform="translate(20.429 25.432)" fill="#73ab31"/>
        <rect id="Rectangle_11749" data-name="Rectangle 11749" width="3.211" height="3.706" transform="translate(24.744 25.432)" fill="#73ab31"/>
        <rect id="Rectangle_11750" data-name="Rectangle 11750" width="3.208" height="3.706" transform="translate(29.059 25.432)" fill="#73ab31"/>
        <rect id="Rectangle_11751" data-name="Rectangle 11751" width="3.209" height="3.706" transform="translate(20.429 32.265)" fill="#73ab31"/>
        <rect id="Rectangle_11752" data-name="Rectangle 11752" width="3.211" height="3.706" transform="translate(24.744 32.265)" fill="#73ab31"/>
        <rect id="Rectangle_11753" data-name="Rectangle 11753" width="3.208" height="3.706" transform="translate(29.059 32.265)" fill="#73ab31"/>
        <rect id="Rectangle_11754" data-name="Rectangle 11754" width="2.835" height="3.271" transform="translate(39.573 25.432)" fill="#73ab31"/>
        <rect id="Rectangle_11755" data-name="Rectangle 11755" width="2.835" height="3.271" transform="translate(39.573 32.265)" fill="#73ab31"/>
        <rect id="Rectangle_11756" data-name="Rectangle 11756" width="2.835" height="3.273" transform="translate(39.573 38.454)" fill="#73ab31"/>
        <path id="Path_17275" data-name="Path 17275" d="M626.4,363.172h7.148v-2.65H629.16V338.813a1.376,1.376,0,0,0-1.377-1.377h-10.33V320.547a1.378,1.378,0,0,0-1.377-1.375H598.223a1.376,1.376,0,0,0-1.377,1.375v12.42H586.51a1.375,1.375,0,0,0-1.375,1.375v26.179h-4.394v2.65h36.711V340.19H626.4Zm-29.558-2.81h-2.924V358.2a1.417,1.417,0,1,0-2.833,0v2.161h-3.2v-24.64h8.957ZM614.7,334.343v26.019h-3.233V357.35h-8.628v3.012H599.6V321.926h15.1Z" transform="translate(-580.741 -319.172)" fill="#73ab31"/>
      </g>
      <path id="Path_17276" data-name="Path 17276" d="M618.458,530.652l-32.715-.585V490.979l32.715.585Z" transform="translate(510.118 1079.599)" fill="#207cbf"/>
      <path id="Path_17277" data-name="Path 17277" d="M618.458,530.652l-32.715-.585V490.979l32.715.585Z" transform="translate(510.118 1079.599)" fill="none" stroke="#207cbf" stroke-linecap="round" stroke-linejoin="round" stroke-width="0.8"/>
      <path id="Path_17287" data-name="Path 17287" d="M615.442,530.666l-25.918,3.824V495.4l25.918-3.823Z" transform="translate(512.71 1080.01)" fill="#fff"/>
      <path id="Path_17288" data-name="Path 17288" d="M615.442,530.666l-25.918,3.824V495.4l25.918-3.823Z" transform="translate(512.71 1080.01)" fill="none" stroke="#207cbf" stroke-linecap="round" stroke-linejoin="round" stroke-width="1.4"/>
      <path id="Path_17289" data-name="Path 17289" d="M597.274,506.151a2.754,2.754,0,1,1-2.754-2.752,2.754,2.754,0,0,1,2.754,2.752" transform="translate(514.247 1088.113)" fill="#207cbf"/>
      <g id="Group_17284" data-name="Group 17284" transform="translate(15 8)">
        <rect id="Rectangle_11776" data-name="Rectangle 11776" width="40" height="10" transform="translate(919 1326)" fill="#73ab31"/>
        <rect id="Rectangle_11777" data-name="Rectangle 11777" width="10" height="40" transform="translate(934 1311)" fill="#73ab31"/>
      </g>
      <g id="Group_17285" data-name="Group 17285" transform="translate(15 162)">
        <rect id="Rectangle_11776-2" data-name="Rectangle 11776" width="40" height="10" transform="translate(919 1326)" fill="#5d9c6e"/>
        <rect id="Rectangle_11777-2" data-name="Rectangle 11777" width="10" height="40" transform="translate(934 1311)" fill="#5d9c6e"/>
      </g>
      <g id="Group_17286" data-name="Group 17286" transform="translate(15 316)">
        <rect id="Rectangle_11776-3" data-name="Rectangle 11776" width="40" height="10" transform="translate(919 1326)" fill="#207cbf"/>
        <rect id="Rectangle_11777-3" data-name="Rectangle 11777" width="10" height="40" transform="translate(934 1311)" fill="#207cbf"/>
      </g>
      <g id="Group_17287" data-name="Group 17287" transform="translate(-77.97 -38.487)">
        <path id="Path_17294" data-name="Path 17294" d="M1002.282,454.323c0,45.317-39.428,82.394-87.618,82.394H788.391c-48.19,0-87.618-37.077-87.618-82.394s39.428-82.394,87.618-82.394H914.664C962.854,371.929,1002.282,409.006,1002.282,454.323Z" transform="translate(-20.274 1021.881)" fill="#fff" stroke="#448d9d" stroke-miterlimit="10" stroke-width="2.699"/>
        <path id="Path_17319" data-name="Path 17319" d="M5.5-13.12H4.02a17.314,17.314,0,0,1-2.2-.12v2.38a20.613,20.613,0,0,1,2.2-.1H5.5v4.2H3.54A17.607,17.607,0,0,1,.98-6.9v2.44A17.974,17.974,0,0,1,3.54-4.6H16.5a18.282,18.282,0,0,1,2.58.14V-6.9a17.673,17.673,0,0,1-2.6.14H14.44v-4.2h1.64a21.9,21.9,0,0,1,2.26.1v-2.38a17.454,17.454,0,0,1-2.26.12H14.44V-14.4a14.472,14.472,0,0,1,.12-2.1H12.1a10.794,10.794,0,0,1,.12,2.08v1.3H7.72v-1.34a12.8,12.8,0,0,1,.12-2.06H5.38a13.437,13.437,0,0,1,.12,2.08ZM7.72-6.76v-4.2h4.5v4.2ZM6.6-4.2A8.536,8.536,0,0,1,4.28-1.96,14.007,14.007,0,0,1,1-.26,9.335,9.335,0,0,1,2.52,1.6,15.58,15.58,0,0,0,5.44-.1,14.561,14.561,0,0,0,8.5-3.02Zm4.86,1.24a15.838,15.838,0,0,0,2.68,2.5,16.686,16.686,0,0,0,3.52,2.14A8.4,8.4,0,0,1,19.14-.28,16.969,16.969,0,0,1,16.06-1.8,10.729,10.729,0,0,1,13.3-4.22Zm17.3-9.56a16.678,16.678,0,0,1-2.24-.1,23.384,23.384,0,0,1,.08,2.34v6.32a15.181,15.181,0,0,1-.1,2.18h2.26a10.864,10.864,0,0,1-.12-2.18V-4.98h2.7v.84a15.385,15.385,0,0,1-.12,2.22h2.22a12.791,12.791,0,0,1-.12-2.22v-.84h3v.78c0,.52-.02.56-.46.56a9.651,9.651,0,0,1-1.32-.12A4.917,4.917,0,0,1,35-1.86c.38.02.72.02.9.02,1.24,0,1.74-.12,2.1-.46.28-.3.36-.7.36-1.84V-10.3a21.7,21.7,0,0,1,.08-2.32,12.746,12.746,0,0,1-2.04.1H34.8a26.573,26.573,0,0,0,2.58-1.9,7.624,7.624,0,0,1,1-.76l-1.02-1.24a10.069,10.069,0,0,1-2.26.14H28.62a17.8,17.8,0,0,1-2.38-.12v2.04a14.819,14.819,0,0,1,2.08-.1h1.9l-1.54.9a11.53,11.53,0,0,1,1.66,1.04Zm4.56,1.7h3v1.3h-3Zm-1.98,0v1.3h-2.7v-1.3Zm-2.7,2.9h2.7v1.34h-2.7Zm7.68,1.34h-3V-7.92h3Zm-1.86-7.88a18.98,18.98,0,0,1-2,1.5c-1.18-.88-1.36-1-2.08-1.5ZM20.7-15.08a19.142,19.142,0,0,1,3.4,3.74l1.66-1.62a23.182,23.182,0,0,0-3.46-3.62Zm.06,8.06a6.643,6.643,0,0,1,1.28-.1h1.02v4.26A11.467,11.467,0,0,1,20.42-.94l1.08,2.2A16.77,16.77,0,0,0,23.72-.68a3.6,3.6,0,0,0,.32-.3A4.859,4.859,0,0,0,26.36.72a14.881,14.881,0,0,0,4.5.5c3.36,0,5.38-.04,8-.16a13.372,13.372,0,0,1,.58-2.38,56.414,56.414,0,0,1-8.36.52,16.245,16.245,0,0,1-3.98-.36,3.7,3.7,0,0,1-1-.52,3.046,3.046,0,0,1-.98-1.12V-7.08a20.151,20.151,0,0,1,.08-2.18,8.668,8.668,0,0,1-1.52.1h-1.4a8.4,8.4,0,0,1-1.52-.1Zm27.9-9.52a13.082,13.082,0,0,1,.08,1.68c0,4.8-1.08,8.08-3.66,11.04A13.332,13.332,0,0,1,40.72-.48a5.983,5.983,0,0,1,1.56,2.06,16.869,16.869,0,0,0,3.1-2.3,13.924,13.924,0,0,0,3.08-3.84A14.311,14.311,0,0,0,50.02-8.6a15.812,15.812,0,0,0,2.66,5.46,19.469,19.469,0,0,0,5.08,4.72A7.441,7.441,0,0,1,59.32-.64a13.319,13.319,0,0,1-3.1-2.16,13.405,13.405,0,0,1-3.16-3.8,14.356,14.356,0,0,1-1.96-7.88,13.232,13.232,0,0,1,.14-2.06ZM68.76-5.88H62.98a13.721,13.721,0,0,1-2.16-.1v1.9a14.324,14.324,0,0,1,2.2-.1h5.74v.86H63.98a14.526,14.526,0,0,1-1.9-.08v1.86a13.632,13.632,0,0,1,1.98-.1h4.7v.96c0,.36-.16.46-.78.46A22.681,22.681,0,0,1,65.44-.4a5.692,5.692,0,0,1,.62,1.98c.64.04,1.44.08,1.92.08,2.44,0,2.94-.38,2.94-2.18V-1.64h4.42v.78h2.24a15.037,15.037,0,0,1-.1-2.16V-4.18a11.883,11.883,0,0,1,1.74.1v-1.9a11.3,11.3,0,0,1-1.74.1v-.7a13.532,13.532,0,0,1,.06-1.82c-.56.04-.96.06-2.14.06H70.92V-9.1h4.6c.64,0,1.16.02,1.6.06a12.638,12.638,0,0,1-.06-1.34V-11.7a13.614,13.614,0,0,1,.06-1.4c-.48.04-.92.06-1.68.06H70.92v-.76h5.74a19.286,19.286,0,0,1,2.34.12v-1.98a18.76,18.76,0,0,1-2.46.12H70.92a5.651,5.651,0,0,1,.14-1.36H68.64a7.391,7.391,0,0,1,.12,1.36H63.4a18.552,18.552,0,0,1-2.46-.12v1.98a19.286,19.286,0,0,1,2.34-.12h5.48v.76H64.54c-.76,0-1.18-.02-1.7-.06.04.48.06.84.06,1.4v1.32c0,.5-.02.92-.06,1.34.46-.04.96-.06,1.68-.06h4.24v.76h-4.7a14.969,14.969,0,0,1-1.88-.08v1.74a16.612,16.612,0,0,1,1.84-.08h4.74Zm2.16,0v-.88h4.42v.88Zm0,1.7h4.42v.86H70.92Zm-2.16-7.3v.82H65.02v-.82Zm2.16,0h4.02v.82H70.92Zm12.14,3.3a32.282,32.282,0,0,1,4,3.86A32.924,32.924,0,0,1,90.92.72l2.1-1.68c-1.04-1.42-1.8-2.38-2.64-3.34a30.935,30.935,0,0,0,6.46-7.58,6.244,6.244,0,0,1,.88-1.18l-1.4-1.58a5.237,5.237,0,0,1-1.66.16l-11.12.02a14.587,14.587,0,0,1-2.6-.14v2.54a21.691,21.691,0,0,1,2.56-.1h9.54c.42,0,.72-.02.92-.04a.513.513,0,0,0-.04.1,1.4,1.4,0,0,0-.12.18,26.454,26.454,0,0,1-2.44,3.26,24.562,24.562,0,0,1-2.62,2.52c-.14-.12-.14-.12-1.24-1.24-.82-.8-1.42-1.34-2.48-2.22Zm33.36,6.76C114-3.76,114-3.76,113.5-4.2a31,31,0,0,0-3.7-2.9,26.487,26.487,0,0,0,3.12-5.52,3.847,3.847,0,0,1,.64-1.08l-1.32-1.36a4.332,4.332,0,0,1-1.78.22l-7.04.1h-.48a8.752,8.752,0,0,1-1.76-.12l.08,2.56a15.762,15.762,0,0,1,2.18-.16c6.3-.1,6.3-.1,6.62-.12l-.22.52a19.278,19.278,0,0,1-6.72,8.14,16.512,16.512,0,0,1-4,2.2A8.023,8.023,0,0,1,100.74.5a23.767,23.767,0,0,0,7.62-5.78A38.447,38.447,0,0,1,114.5.66Zm16.12-12.94a5.25,5.25,0,0,1-1.76.24c-4.88.04-4.88.04-5.2.08a9.966,9.966,0,0,0,.48-.96,10.538,10.538,0,0,1,.6-1.12l-2.6-.58a12.192,12.192,0,0,1-1.16,2.78,17.194,17.194,0,0,1-5.02,5.7,6.349,6.349,0,0,1,2,1.6A20.691,20.691,0,0,0,124.56-12l6.22-.06a19.108,19.108,0,0,1-2.24,4.72,26.032,26.032,0,0,0-4.02-2.68L123-8.24a22.642,22.642,0,0,1,4.1,2.86,14.518,14.518,0,0,1-3.28,2.78,20.156,20.156,0,0,1-3.9,2,6.348,6.348,0,0,1,1.66,2.06,19.529,19.529,0,0,0,9.12-7.64,33.545,33.545,0,0,0,2.56-5.5,3.582,3.582,0,0,1,.62-1.34Zm3.98,8.08a21.956,21.956,0,0,1,3.26-.1H150.4a21.956,21.956,0,0,1,3.26.1V-9.06a19.641,19.641,0,0,1-3.24.14H139.76a19.641,19.641,0,0,1-3.24-.14Z" transform="translate(748.984 1472.152)" fill="#448d9d"/>
        <path id="Path_17320" data-name="Path 17320" d="M30-9.98A2.373,2.373,0,0,0,27.62-7.6,2.373,2.373,0,0,0,30-5.22,2.373,2.373,0,0,0,32.38-7.6,2.373,2.373,0,0,0,30-9.98Zm15.24-2.48a15.143,15.143,0,0,1,.7,2.22l.62-.28v1.76a10.711,10.711,0,0,1,2.02-.12H57.1a14,14,0,0,1,1.98.12v-1.96a12.661,12.661,0,0,1-1.98.1H53.6v-.8h2.78a12.452,12.452,0,0,1,1.7.08v-1.78a11.445,11.445,0,0,1-1.66.08H53.6v-.74h3.1a13.866,13.866,0,0,1,2.04.1V-15.6a10.794,10.794,0,0,1-2.08.12H53.6a5.544,5.544,0,0,1,.12-1.36h-2.3a5.544,5.544,0,0,1,.12,1.36H49.06a10.92,10.92,0,0,1-2.08-.12v1.92a11.9,11.9,0,0,1,1.98-.1h2.58v.74H49.28a12.832,12.832,0,0,1-1.7-.08v1.78a13.282,13.282,0,0,1,1.68-.08h2.28v.8H48.58c-.78,0-1.18-.02-1.68-.06l.54-.24a13.259,13.259,0,0,0-1.02-2.6l-1.18.46v-1.66a13.449,13.449,0,0,1,.12-2.14H43.02a13.716,13.716,0,0,1,.14,2.14V-.88a18.615,18.615,0,0,1-.14,2.54h2.34a21.611,21.611,0,0,1-.12-2.48ZM49.58-1.5H55.7v.68c0,.4-.12.48-.76.48a14.1,14.1,0,0,1-1.96-.18,7.719,7.719,0,0,1,.46,1.92c.98.06,1.36.08,1.8.08,2.02,0,2.56-.4,2.56-1.92V-6.08a17.283,17.283,0,0,1,.08-2.06,12.994,12.994,0,0,1-1.8.08H49.04c-.7,0-1.12-.02-1.6-.06.04.56.06.94.06,1.7V-.66a16.617,16.617,0,0,1-.1,2.28h2.3a17.155,17.155,0,0,1-.12-2.28Zm0-1.64v-.82H55.7v.82Zm0-2.44V-6.4H55.7v.82ZM42.1-7.02a24.6,24.6,0,0,0,.64-5.58l-1.58-.36a17.482,17.482,0,0,1-.66,5.28ZM77.88-9.88a13.946,13.946,0,0,1-1.9.08H72.22v-4.38h4.36c-.08,1.48-.18,1.68-.8,1.68a14.47,14.47,0,0,1-2.06-.24,7.231,7.231,0,0,1,.44,1.88,17.681,17.681,0,0,0,1.8.1c2.2,0,2.48-.42,2.72-4.1.02-.48.04-.72.1-1.3a12.228,12.228,0,0,1-1.86.1H72a13.333,13.333,0,0,1-1.88-.1,20.157,20.157,0,0,1,.1,2.04V-.74a14.377,14.377,0,0,1-.14,2.38h2.28a17.208,17.208,0,0,1-.14-1.88A12.929,12.929,0,0,1,73.34,1.5a13.6,13.6,0,0,0,2.38-2.58,16.885,16.885,0,0,0,2.72,2.6A12.155,12.155,0,0,1,79.6-.6a9.574,9.574,0,0,1-2.76-2.32,22.464,22.464,0,0,0,1.7-4.96,4.245,4.245,0,0,1,.24-.88ZM72.22-7.9h.32a15.675,15.675,0,0,0,1.9,5.06A10.154,10.154,0,0,1,72.22-.52Zm4.32,0a14,14,0,0,1-.98,3.18,11.348,11.348,0,0,1-1.2-3.18ZM66.46-11.5v-1.54h1.18a13.349,13.349,0,0,1,1.66.08v-2.08a11.986,11.986,0,0,1-1.66.08H66.46v-.36a11.061,11.061,0,0,1,.08-1.52H64.38a7.5,7.5,0,0,1,.12,1.52v.36H63.14a11.986,11.986,0,0,1-1.66-.08v2.08a13.349,13.349,0,0,1,1.66-.08H64.5v1.54H62.7a10.425,10.425,0,0,1-1.74-.1v2.12a9.677,9.677,0,0,1,1.44-.08,12.608,12.608,0,0,1,.52,2.22H62.7a9.45,9.45,0,0,1-1.74-.1v2.12A14.539,14.539,0,0,1,62.7-5.4h1.78v1.6H63.04a12.552,12.552,0,0,1-1.66-.08v2.1a13.145,13.145,0,0,1,1.66-.08h1.44V-.4a16,16,0,0,1-.12,2.04h2.2C66.5,1,66.46.26,66.46-.4V-1.86h1.36a12.944,12.944,0,0,1,1.66.08v-2.1a12.552,12.552,0,0,1-1.66.08H66.46V-5.4h1.56a14.117,14.117,0,0,1,1.74.08V-7.44a7.978,7.978,0,0,1-1.54.1h-.24a13,13,0,0,0,.66-2.22,8.909,8.909,0,0,1,1.12.08V-11.6a10.281,10.281,0,0,1-1.74.1ZM64.8-7.34a14.509,14.509,0,0,0-.5-2.22h2.4a12.751,12.751,0,0,1-.6,2.22Zm32.1-6.94a11.158,11.158,0,0,1-1.98,2.36,13.587,13.587,0,0,1-1.24-1,21.806,21.806,0,0,0,2.06-2.3l-1.66-1.1a10.985,10.985,0,0,1-1.68,2.16,4.994,4.994,0,0,1-1.34-2.26,11.174,11.174,0,0,1-1.72.08H85.58a9,9,0,0,1-1.66-.1v2.02a8.9,8.9,0,0,1,1.22-.08h2.64a10.446,10.446,0,0,1-1.9,2.02,24.735,24.735,0,0,0-2.8-2.44L81.6-13.6a16.751,16.751,0,0,1,2.68,2.34,16.979,16.979,0,0,1-3.76,1.98,6.249,6.249,0,0,1,1.08,1.9,21.734,21.734,0,0,0,4.98-3.1v1.3a7.537,7.537,0,0,1,1.26-.08h4.42a7.672,7.672,0,0,1,1.34.08v-1.18a19.313,19.313,0,0,0,4.84,2.9,6.525,6.525,0,0,1,1.04-2,20.887,20.887,0,0,1-3.04-1.42,21.67,21.67,0,0,0,1.76-1.86,2.746,2.746,0,0,1,.36-.42Zm-8.94,3.24h-.7a16.023,16.023,0,0,0,2.76-3.14,17.293,17.293,0,0,0,2.76,3.14H87.96ZM82.98-.8a12.558,12.558,0,0,1-1.94-.1V1.26a14.819,14.819,0,0,1,2.08-.1H96.96a14.646,14.646,0,0,1,2.08.1V-.9a12.847,12.847,0,0,1-1.96.1H93.66c.14-.2.6-1.06.92-1.66l-1.66-.6h1.94A13.142,13.142,0,0,1,96.3-3a9.8,9.8,0,0,1-.08-1.46V-7a8.765,8.765,0,0,1,.08-1.34,11.315,11.315,0,0,1-1.56.08H85.3a12.412,12.412,0,0,1-1.58-.08,9.758,9.758,0,0,1,.08,1.36v2.52A11.484,11.484,0,0,1,83.72-3a12.893,12.893,0,0,1,1.44-.06H87.3l-1.76.64A7.7,7.7,0,0,1,86.36-.8Zm5.54,0a16.192,16.192,0,0,0-1-2.26h5A11.935,11.935,0,0,1,91.5-.8ZM85.86-6.48H94.1v1.62H85.86Zm21.76,3.86a18.175,18.175,0,0,0,.96-3.2l-1.52-.5a15.229,15.229,0,0,1-.8,3.26Zm1.14-4.64a13.472,13.472,0,0,1,1.76,3.18l1.54-1.02a13.023,13.023,0,0,0-1.74-2.98Zm-4.66-2.86v1.34h-1.02a16.992,16.992,0,0,1-1.98-.1v2.04a16.36,16.36,0,0,1,1.96-.1h1.04v5.6a14.805,14.805,0,0,1-3.12.42l.3,2.2a12.07,12.07,0,0,1,1.58-.36A44.81,44.81,0,0,0,108.22-.5v-.8l.64,1.42c.34-.24.34-.24.66-.46,1.36-.94,1.36-.94,1.7-1.18a17.035,17.035,0,0,0,1.42-1.12v1.9c0,.44-.14.52-.88.52a7.847,7.847,0,0,1-1.56-.2,5.782,5.782,0,0,1,.46,2.02c.78.06,1.32.08,1.76.08,1.62,0,2.2-.48,2.2-1.82V-2.7q-.06-1.62-.12-2.22a11.176,11.176,0,0,0,1.52,3.1A12.2,12.2,0,0,0,118.46.76a8.439,8.439,0,0,1,1.2-1.96,9.711,9.711,0,0,1-3.08-2.88,22.353,22.353,0,0,0,2.66-2.84L117.6-8.08a9.659,9.659,0,0,1-1.94,2.4,9.431,9.431,0,0,1-.96-2.96h2.68a17.043,17.043,0,0,1,1.9.1v-1.98a12.371,12.371,0,0,1-1.92.12h-.12c.08-1.04.18-2.8.24-3.84a16.93,16.93,0,0,1,.12-1.94,14.863,14.863,0,0,1-1.84.08h-4.7a13.6,13.6,0,0,1-2-.1v1.92a15.75,15.75,0,0,1,1.9-.08h4.48c-.02.54-.02.6-.06,1.1h-4.04a10.327,10.327,0,0,1-1.82-.1v1.9a13.907,13.907,0,0,1,1.82-.08h3.96c-.02.34-.04.54-.08,1.14h-5.06a12.92,12.92,0,0,1-1.92-.12v1.66a9.221,9.221,0,0,1-1.42.08h-.8v-1.34h.58a7.022,7.022,0,0,1,1.18.06v-1.5l.16.14a7.216,7.216,0,0,1,1.22-1.78,7.986,7.986,0,0,1-2.92-3.36h-2.2a9.238,9.238,0,0,1-3.46,4.32,5.993,5.993,0,0,1,.92,1.9c.42-.34.54-.44.92-.78v1.06a11.656,11.656,0,0,1,1.18-.06Zm8.54,1.48v3.8a21.385,21.385,0,0,1-4.44,2.9v-.42c-1.06.32-1.42.44-2.18.62v-5.2h.8a8.208,8.208,0,0,1,1.56.1V-8.56a14.2,14.2,0,0,1,1.78-.08Zm-9.4-3.28a11.918,11.918,0,0,0,2-2.84,11.838,11.838,0,0,0,2.12,2.82c-.26.02-.38.02-.74.02h-3.38Zm.4,9.58a21.529,21.529,0,0,0-.88-3.88l-1.56.48a20.132,20.132,0,0,1,.84,3.9Z" transform="translate(751.851 1503.054)" fill="#448d9d"/>
        <path id="Path_17321" data-name="Path 17321" d="M30-9.98A2.373,2.373,0,0,0,27.62-7.6,2.373,2.373,0,0,0,30-5.22,2.373,2.373,0,0,0,32.38-7.6,2.373,2.373,0,0,0,30-9.98Zm21.74-.4v1.24H49.3a12.49,12.49,0,0,1-1.72-.06c.04.5.06.82.06,1.38v2.86c0,.46-.02.76-.06,1.28a16.381,16.381,0,0,1,1.84-.08h1.56c-.92,1.88-2.24,2.8-4.84,3.36A5.881,5.881,0,0,1,47.4,1.62c2.76-.94,4.38-2.3,5.36-4.42A8.173,8.173,0,0,0,54.44-.7a11.67,11.67,0,0,0,4,2.34A6.242,6.242,0,0,1,59.54-.5,8.6,8.6,0,0,1,54.2-3.76h2.06a16.688,16.688,0,0,1,1.88.08c-.04-.56-.06-.84-.06-1.52V-7.66c0-.52.02-.94.06-1.54-.52.04-.94.06-1.76.06H53.74v-1.24H54.8c.8,0,1.16.02,1.62.06v-1.06a17.848,17.848,0,0,0,2.22,1.3,7.789,7.789,0,0,1,1.04-1.98,13.639,13.639,0,0,1-3.52-2.06A8.709,8.709,0,0,1,53.8-16.7H51.58a10.754,10.754,0,0,1-2.34,2.92,15.453,15.453,0,0,1-2.14,1.62V-13.3a5.535,5.535,0,0,1-1.08.08h-.6V-14.8a14.307,14.307,0,0,1,.1-2.08H43.26a13.033,13.033,0,0,1,.12,2.1v1.56h-1a7.82,7.82,0,0,1-1.34-.08v2.18a7.969,7.969,0,0,1,1.34-.08h.8a19.509,19.509,0,0,1-2.64,6.18,7.284,7.284,0,0,1,1.14,2.14c.48-1,.76-1.6.84-1.82a23.431,23.431,0,0,0,.98-2.82c-.08.96-.12,1.96-.12,2.62V-.76a20.294,20.294,0,0,1-.12,2.46h2.28a19.842,19.842,0,0,1-.12-2.46V-5.94c0-1.18-.04-2.06-.1-2.66a15.522,15.522,0,0,0,1.36,2.7,8.362,8.362,0,0,1,.92-1.9,11.773,11.773,0,0,1-2.06-3.4h.52c.24,0,.38,0,.7.02a8.9,8.9,0,0,1,.66,1.24,14.412,14.412,0,0,0,1.9-1.28v.9c.54-.04.82-.06,1.62-.06ZM51.7-7.44a12.635,12.635,0,0,1-.16,1.96H49.62V-7.44Zm4.38,0v1.96H53.52a14.981,14.981,0,0,0,.18-1.96Zm-5.14-4.78H50.5a13.165,13.165,0,0,0,2.26-2.72,11.3,11.3,0,0,0,2.52,2.72H50.94ZM61.72-3.36a13.763,13.763,0,0,1,2.08-.12c.86,0,.88,0,4.9-.18V-.38a10.966,10.966,0,0,1-.12,2.02h2.56A10.943,10.943,0,0,1,71-.38V-3.76c1.78-.08,1.78-.08,5.24-.36.32.44.52.72,1.06,1.5l1.72-1.34A34.084,34.084,0,0,0,75.24-8.1L73.6-7.02c.62.6.84.82,1.24,1.24-2.36.14-2.72.16-4.28.2a25.394,25.394,0,0,0,3.18-2.88c.28-.28.44-.44.64-.62l-2.26-.96a13.2,13.2,0,0,1-2.64,3.06c-.62-.46-.76-.54-1.24-.86a23.354,23.354,0,0,0,2.14-2.52h6v2.32h2.3a9.732,9.732,0,0,1-.08-1.42v-1.52a10.785,10.785,0,0,1,.06-1.32,20.759,20.759,0,0,1-2.14.08H70.94v-1.3h5.5c1.04,0,1.84.04,2.42.1v-2.14a18.552,18.552,0,0,1-2.46.12H70.94v-.12a5.63,5.63,0,0,1,.14-1.3H68.6a7.147,7.147,0,0,1,.12,1.3v.12H63.58a18.414,18.414,0,0,1-2.44-.12v2.14a18.812,18.812,0,0,1,2.42-.1h5.16v1.3H63.46c-.82,0-1.38-.02-2.12-.08a12.732,12.732,0,0,1,.06,1.42v1.44a10.442,10.442,0,0,1-.08,1.38H63.6v-2.3h4.26a11.315,11.315,0,0,1-1.24,1.48c-.42-.26-.7-.42-1.38-.78L63.98-8.08a33.677,33.677,0,0,1,3.94,2.4l-.2.16c-2.3.04-2.3.04-2.78.04a26.482,26.482,0,0,1-3.5-.14Zm4,.04A6.531,6.531,0,0,1,63.9-1.78,11.068,11.068,0,0,1,61.02-.5a7.113,7.113,0,0,1,1.64,1.78,14.023,14.023,0,0,0,4.88-3.44ZM72.1-2.2a22.91,22.91,0,0,0,5.42,3.42A8.712,8.712,0,0,1,79-.74,16.116,16.116,0,0,1,73.68-3.6ZM95.78-16.76a9.046,9.046,0,0,1-1.22,2.18c-.06-.06-.2-.2-.44-.42l-.62.86v-.62c-.02-.32-.02-.58-.02-.64a4.927,4.927,0,0,1,.12-1.34H91.4a12.773,12.773,0,0,1,.14,2.28v.94l-1.42-.96a9.229,9.229,0,0,1-1.04,1.88c-.2-.28-.28-.38-.48-.62a19.694,19.694,0,0,0,1.74-2.8l-1.64-.82a9.585,9.585,0,0,1-1.28,2.38l-.44-.42L85.82-13.5c.22.2.3.26.44.4-.24.02-.6.04-1.02.04h-.36v-1.68a16.818,16.818,0,0,1,.08-2.08H82.8a14.279,14.279,0,0,1,.1,2.1v1.66h-.68a5.538,5.538,0,0,1-1.36-.1v2.14a12.784,12.784,0,0,1,1.36-.08h.48a25.327,25.327,0,0,1-.82,2.7,15.494,15.494,0,0,1-1.5,3.18,6.234,6.234,0,0,1,.96,2.2A19.122,19.122,0,0,0,83.08-7.5c-.12,1.68-.16,2.4-.16,3.3V-.68a19.187,19.187,0,0,1-.12,2.46h2.18a17.648,17.648,0,0,1-.1-2.46V-6.44c0-.7-.04-1.88-.08-2.44a10.6,10.6,0,0,0,.94,1.84,7.2,7.2,0,0,1,.58-1.4l.08.62c.28-.06,1.32-.2,2.86-.4.54-.08.88-.14,1.4-.22.02.22.04.34.08.68l1.12-.4c.04.38.06.54.14,1.12H87.88a11.308,11.308,0,0,1-1.64-.08V-5.1c.4-.04.76-.06,1.5-.08A6.713,6.713,0,0,1,85.14.1a7.55,7.55,0,0,1,1.6,1.44,9.1,9.1,0,0,0,2.48-4.16,6.638,6.638,0,0,0,1.66,1.4c.14-.26.14-.26.42-.76a5.516,5.516,0,0,1,.54-.88,6.981,6.981,0,0,1-2.22-1.68,4.993,4.993,0,0,0,.06-.64h2.66A12.306,12.306,0,0,0,93.36-2.1a13.491,13.491,0,0,1-4.6,1.98A5.728,5.728,0,0,1,89.9,1.66,15.6,15.6,0,0,0,94.28-.58c1.14,1.5,2.06,2.16,3.06,2.16a1.383,1.383,0,0,0,1.3-.64,6.98,6.98,0,0,0,.82-2.82,4.9,4.9,0,0,1-1.52-1.1c-.2,1.86-.38,2.42-.74,2.42-.3,0-.82-.44-1.4-1.24a16.006,16.006,0,0,0,2.18-2.4l-1.54-.98h.68a16.315,16.315,0,0,1,2.1.12v-2.1a10.173,10.173,0,0,1-2.1.12h-.44l.76-.72a5.4,5.4,0,0,0-1.04-.82c.58-.06,1.06-.12,1.46-.18.08.38.12.52.22.96l1.4-.46A16.872,16.872,0,0,0,98.3-11.4l-1.26.46a5.338,5.338,0,0,1,.36.78c-.62.06-.84.08-1.44.12a19.418,19.418,0,0,0,1.6-1.8c.98-1.28.98-1.28,1.4-1.8L97.5-14.7c-.64,1.04-.82,1.34-1.24,1.92-.26-.3-.3-.36-.54-.62a18.582,18.582,0,0,0,1.7-2.46Zm-.62,5.34a15.933,15.933,0,0,1-1.28,1.44H93.6c-.08-1.42-.08-1.42-.1-3.24A10.88,10.88,0,0,1,95.16-11.42ZM94.9-7.9a3.627,3.627,0,0,1,1.26.86H93.92c-.1-.74-.12-.8-.16-1.26.28-.02.48-.04.5-.04a6.011,6.011,0,0,0,.86-.1c.08,0,.2-.02.38-.04Zm-8.48-5.06a13.853,13.853,0,0,1,1.66,1.86c-.36.48-.58.76-1.26,1.54h-.36a1.847,1.847,0,0,1-.3-.02l.06.44A6.734,6.734,0,0,1,85-11.1h.28a8.01,8.01,0,0,1,1.14.08Zm10,7.78A5.321,5.321,0,0,1,94.9-3.3a7.743,7.743,0,0,1-.64-1.88ZM89.94-10.7c.18.4.22.52.36.84a14.171,14.171,0,0,1-1.46.16,23.659,23.659,0,0,0,2.28-2.94c.14-.2.2-.3.44-.64,0,.9.04,1.82.16,3.5a9.278,9.278,0,0,0-.52-1.32ZM101-10.94a9.21,9.21,0,0,1,1.3-.14c1.38-.08,4.78-.44,6.06-.64.14.32.24.56.46,1.08l1.8-1.06a29.963,29.963,0,0,0-2.48-4.18l-1.6.78c.44.72.56.9.92,1.6-1.24.16-1.72.2-3,.28.46-.76,1.18-2.1,1.42-2.62a6.4,6.4,0,0,1,.38-.74L103.94-17a13.926,13.926,0,0,1-1.68,3.88h-.3a1.364,1.364,0,0,1-.24.02,8.8,8.8,0,0,1-.96-.06Zm11.88-4.14a8.524,8.524,0,0,1,.1-1.62h-2.3a10.023,10.023,0,0,1,.1,1.72V-10a1.2,1.2,0,0,0,.78,1.32,7.135,7.135,0,0,0,2.74.28c2.62,0,3.38-.12,3.9-.62.46-.46.64-1.14.8-3.02a7.456,7.456,0,0,1-2-.62c-.04,1.48-.12,1.88-.34,2.08-.26.2-.72.26-2.34.26-1.26,0-1.44-.08-1.44-.56v-1.26a28.019,28.019,0,0,0,4.62-1.76c.98-.48.98-.48,1.4-.66l-1.48-1.84A10.044,10.044,0,0,1,115.1-15a12.742,12.742,0,0,1-2.22.84Zm.02,9.24A8.236,8.236,0,0,1,113-7.5h-2.3a9.815,9.815,0,0,1,.1,1.78V-.46a1.3,1.3,0,0,0,.62,1.3c.52.32,1.16.4,3.12.4,2.52,0,3.22-.14,3.76-.74.52-.58.74-1.34.88-3.22a8.155,8.155,0,0,1-2.04-.68,5.923,5.923,0,0,1-.32,2.3c-.18.3-.68.4-2,.4a6.013,6.013,0,0,1-1.42-.1c-.38-.08-.5-.2-.5-.54V-3.22a28.831,28.831,0,0,0,2.98-.92c.62-.24,2.58-1.12,3.16-1.44l-1.52-1.76a13.211,13.211,0,0,1-4.62,2.16Zm-11,5.3a16.792,16.792,0,0,1-.1,2.18h2.28a17.463,17.463,0,0,1-.1-2.22V-2.56h3.36V-.9c-.04.3-.12.36-.54.36a7.062,7.062,0,0,1-1.34-.14,8.145,8.145,0,0,1,.44,2.04c.36.02.66.02.84.02a4.057,4.057,0,0,0,2.1-.38c.4-.24.56-.7.56-1.56V-8.52c0-1,.02-1.32.06-1.88a14.559,14.559,0,0,1-1.8.08h-4.4a14.2,14.2,0,0,1-1.44-.06,17.573,17.573,0,0,1,.08,1.84Zm2.06-7.96h3.38v1.24h-3.38Zm0,2.96h3.38V-4.3h-3.38Z" transform="translate(751.851 1533.954)" fill="#448d9d"/>
        <g id="Group_17281" data-name="Group 17281" transform="translate(762.528 1585.646)">
          <path id="Path_17302" data-name="Path 17302" d="M736.485,492.8v36.052h.321c3.345,8.683,33.258,15.485,69.678,15.485s66.331-6.8,69.676-15.485h.323V492.8Z" transform="translate(-736.485 -392.496)" fill="#448d9d"/>
          <path id="Path_17304" data-name="Path 17304" d="M876.484,502.711c0,9.451-31.347,17.114-70,17.114s-70-7.663-70-17.114c0-9.432,31.339-17.1,70-17.1s70,7.673,70,17.1" transform="translate(-736.485 -402.406)" fill="#fff"/>
          <path id="Path_17305" data-name="Path 17305" d="M876.484,502.711c0,9.451-31.347,17.114-70,17.114s-70-7.663-70-17.114c0-9.432,31.339-17.1,70-17.1S876.484,493.279,876.484,502.711Z" transform="translate(-736.485 -402.406)" fill="none" stroke="#448d9d" stroke-linecap="round" stroke-linejoin="round" stroke-width="0.992"/>
          <path id="Path_17306" data-name="Path 17306" d="M736.485,475.3v36.061h.321c3.345,8.664,33.258,15.476,69.678,15.476s66.331-6.812,69.676-15.476h.323V475.3Z" transform="translate(-736.485 -416.598)" fill="#448d9d"/>
          <path id="Path_17308" data-name="Path 17308" d="M876.484,485.22c0,9.449-31.347,17.1-70,17.1s-70-7.654-70-17.1,31.339-17.114,70-17.114,70,7.663,70,17.114" transform="translate(-736.485 -426.514)" fill="#fff"/>
          <path id="Path_17309" data-name="Path 17309" d="M876.484,485.22c0,9.449-31.347,17.1-70,17.1s-70-7.654-70-17.1,31.339-17.114,70-17.114S876.484,475.769,876.484,485.22Z" transform="translate(-736.485 -426.514)" fill="none" stroke="#448d9d" stroke-linecap="round" stroke-linejoin="round" stroke-width="0.992"/>
          <path id="Path_17310" data-name="Path 17310" d="M736.485,457.807v36.042h.321c3.345,8.7,33.258,15.495,69.678,15.495s66.331-6.8,69.676-15.495h.323V457.807Z" transform="translate(-736.485 -440.702)" fill="#448d9d"/>
          <path id="Path_17312" data-name="Path 17312" d="M876.484,467.718c0,9.451-31.347,17.1-70,17.1s-70-7.651-70-17.1,31.339-17.1,70-17.1,70,7.654,70,17.1" transform="translate(-736.485 -450.613)" fill="#fff"/>
          <path id="Path_17313" data-name="Path 17313" d="M876.484,467.718c0,9.451-31.347,17.1-70,17.1s-70-7.651-70-17.1,31.339-17.1,70-17.1S876.484,458.267,876.484,467.718Z" transform="translate(-736.485 -450.613)" fill="none" stroke="#448d9d" stroke-linecap="round" stroke-linejoin="round" stroke-width="0.992"/>
        </g>
        <rect id="Rectangle_11758" data-name="Rectangle 11758" width="126.57" height="92.939" transform="translate(768.621 1325.605)" fill="#fff"/>
        <g id="Group_17280" data-name="Group 17280" transform="translate(780.945 1325.487)">
          <path id="Path_17295" data-name="Path 17295" d="M783.861,372.06c5.314,0,9.622-4.865,9.622-10.863s-4.308-10.873-9.622-10.873-9.62,4.862-9.62,10.873,4.306,10.863,9.62,10.863" transform="translate(-699.358 -333.369)" fill="#448d9d"/>
          <path id="Path_17296" data-name="Path 17296" d="M757.21,372.06c5.316,0,9.622-4.865,9.622-10.863s-4.306-10.873-9.622-10.873-9.62,4.862-9.62,10.873,4.308,10.863,9.62,10.863" transform="translate(-736.073 -333.369)" fill="#448d9d"/>
          <path id="Path_17297" data-name="Path 17297" d="M772.569,372.992c7.285,0,13.191-6.667,13.191-14.9s-5.906-14.9-13.191-14.9-13.186,6.664-13.186,14.9,5.9,14.9,13.186,14.9" transform="translate(-719.826 -343.193)" fill="#448d9d"/>
          <path id="Path_17298" data-name="Path 17298" d="M771.173,368.613v-.7l-1.862-5.048,1.541-2.76-.92-3.593h-5.421l-.925,3.593,1.545,2.76-1.864,5.048v.7l3.952,12.181v.1Z" transform="translate(-714.475 -324.849)" fill="#448d9d"/>
          <path id="Path_17299" data-name="Path 17299" d="M793.9,396.234H780.554c-.012-.057,0-.121-.009-.176l-4.52-34.816,5.38,3.628,6.562-4.525c.34-.231,1.957.19,2.325.35l3.243,1.127c3.319,1.479,5.93,4.56,5.145,11.536s-4.805,9.991-4.779,22.875" transform="translate(-696.9 -319.656)" fill="#448d9d"/>
          <path id="Path_17300" data-name="Path 17300" d="M803.977,361.66l-11.068-4.841a.89.89,0,0,0-.673-.014.871.871,0,0,0-.478.473l-10.471,29.58-10.476-29.58a.87.87,0,0,0-.48-.473.884.884,0,0,0-.67.014L758.6,361.66a.869.869,0,0,0-.506.623L753.058,401.1h56.454l-5.029-38.814a.87.87,0,0,0-.506-.623M796.309,376.9h-3.671L791.5,373.41l2.972-2.157,2.97,2.157Z" transform="translate(-728.54 -324.522)" fill="#448d9d"/>
          <path id="Path_17301" data-name="Path 17301" d="M763.888,365.283l-7.563-5.1a1.176,1.176,0,0,0-1.139-.1l-8.075,3.531a1.2,1.2,0,0,0-.7.953l-3.662,32.084H764.6a3.038,3.038,0,0,1,.019-.354l4.472-34.518Z" transform="translate(-742.746 -320.07)" fill="#448d9d"/>
        </g>
        <path id="Path_17318" data-name="Path 17318" d="M13.423-25.637a20.278,20.278,0,0,1,.124,2.6c0,7.44-1.674,12.524-5.673,17.112A20.665,20.665,0,0,1,1.116-.744,9.274,9.274,0,0,1,3.534,2.449,26.147,26.147,0,0,0,8.339-1.116a21.583,21.583,0,0,0,4.774-5.952,22.182,22.182,0,0,0,2.418-6.262,24.508,24.508,0,0,0,4.123,8.463,30.177,30.177,0,0,0,7.874,7.316A11.533,11.533,0,0,1,29.946-.992,20.645,20.645,0,0,1,25.141-4.34a20.778,20.778,0,0,1-4.9-5.89A22.252,22.252,0,0,1,17.2-22.444a20.509,20.509,0,0,1,.217-3.193ZM53.878-9.114H44.919a21.267,21.267,0,0,1-3.348-.155v2.945a22.2,22.2,0,0,1,3.41-.155h8.9v1.333H46.469a22.515,22.515,0,0,1-2.945-.124v2.883a21.13,21.13,0,0,1,3.069-.155h7.285v1.488c0,.558-.248.713-1.209.713A35.155,35.155,0,0,1,48.732-.62a8.823,8.823,0,0,1,.961,3.069c.992.062,2.232.124,2.976.124,3.782,0,4.557-.589,4.557-3.379V-2.542h6.851v1.209h3.472a23.308,23.308,0,0,1-.155-3.348v-1.8a18.418,18.418,0,0,1,2.7.155V-9.269a17.514,17.514,0,0,1-2.7.155V-10.2a20.976,20.976,0,0,1,.093-2.821c-.868.062-1.488.093-3.317.093H57.226v-1.178h7.13c.992,0,1.8.031,2.48.093a19.59,19.59,0,0,1-.093-2.077v-2.046a21.1,21.1,0,0,1,.093-2.17c-.744.062-1.426.093-2.6.093H57.226V-21.39h8.9a29.894,29.894,0,0,1,3.627.186v-3.069a29.079,29.079,0,0,1-3.813.186H57.226a8.758,8.758,0,0,1,.217-2.108H53.692a11.455,11.455,0,0,1,.186,2.108H45.57a28.755,28.755,0,0,1-3.813-.186V-21.2a29.894,29.894,0,0,1,3.627-.186h8.494v1.178H47.337c-1.178,0-1.829-.031-2.635-.093.062.744.093,1.3.093,2.17v2.046c0,.775-.031,1.426-.093,2.077.713-.062,1.488-.093,2.6-.093h6.572v1.178H46.593a23.2,23.2,0,0,1-2.914-.124v2.7a25.748,25.748,0,0,1,2.852-.124h7.347Zm3.348,0v-1.364h6.851v1.364Zm0,2.635h6.851v1.333H57.226ZM53.878-17.794v1.271h-5.8v-1.271Zm3.348,0h6.231v1.271H57.226Z" transform="translate(794.73 1441.424)" fill="#448d9d"/>
      </g>
    </g>
  </g>
</svg>
