<svg xmlns="http://www.w3.org/2000/svg" width="590.025" height="109.993" viewBox="0 0 590.025 109.993">
  <g id="Group_17115" data-name="Group 17115" transform="translate(-1065 -373.15)">
    <g id="Group_17114" data-name="Group 17114" transform="translate(1075 373.151)">
      <rect id="Rectangle_11600" data-name="Rectangle 11600" width="9.135" height="9.133" transform="translate(179.389 37.548)" fill="#656464"/>
      <path id="Path_17015" data-name="Path 17015" d="M476.811,201.132H461.672A9.769,9.769,0,0,0,451.9,210.9v16.966a9.771,9.771,0,0,0,9.771,9.771h15.139a9.77,9.77,0,0,0,9.771-9.771V210.9a9.769,9.769,0,0,0-9.771-9.771m.64,25.951c0,2.69-1.148,5.991-6.021,5.991h-4.375c-4.872,0-6.021-3.3-6.021-5.991v-15.4c0-2.689,1.148-5.989,6.021-5.989h4.375c4.872,0,6.021,3.3,6.021,5.989Z" transform="translate(-86.241 -145.342)" fill="#656464"/>
      <path id="Path_17016" data-name="Path 17016" d="M436.639,210.9V237.64h9.131V211.689c0-2.69,1.15-5.991,6.022-5.991h9.242v-4.567H446.41a9.77,9.77,0,0,0-9.771,9.771" transform="translate(-99.613 -145.342)" fill="#656464"/>
      <path id="Path_17017" data-name="Path 17017" d="M442.01,191.409H414.3v54.75h9.131V221.028l18.581,0a9.772,9.772,0,0,0,9.771-9.771V201.18a9.772,9.772,0,0,0-9.771-9.771m.638,19.058c0,2.69-1.148,5.991-6.021,5.991l-13.2,0V195.976h13.2c4.872,0,6.021,3.3,6.021,5.991Z" transform="translate(-119.188 -153.86)" fill="#656464"/>
      <rect id="Rectangle_11601" data-name="Rectangle 11601" width="9.131" height="36.508" transform="translate(179.393 55.792)" fill="#656464"/>
      <path id="Path_17018" data-name="Path 17018" d="M326.091,191.409v4.565h17.351v50.185h9.131V195.974h17.349v-4.565Z" transform="translate(-196.471 -153.86)" fill="#656464"/>
      <rect id="Rectangle_11602" data-name="Rectangle 11602" width="17.246" height="4.565" transform="translate(409.603 62.662)" fill="#656464"/>
      <path id="Path_17019" data-name="Path 17019" d="M417.2,201.132H402.066A9.771,9.771,0,0,0,392.3,210.9v16.968a9.77,9.77,0,0,0,9.771,9.769H417.2a9.769,9.769,0,0,0,9.771-9.769v-1.636h-9.131v.848c0,2.692-1.15,5.992-6.021,5.992h-4.375c-4.874,0-6.022-3.3-6.022-5.992v-5.415h25.55V210.9a9.769,9.769,0,0,0-9.771-9.771m.64,15.972H401.426v-5.415c0-2.69,1.148-5.991,6.022-5.991h4.375c4.871,0,6.021,3.3,6.021,5.991Z" transform="translate(-138.466 -145.342)" fill="#656464"/>
      <path id="Path_17020" data-name="Path 17020" d="M403,201.132H392.455a9.707,9.707,0,0,0-5.2,1.512,9.713,9.713,0,0,0-5.206-1.512H371.5a9.77,9.77,0,0,0-9.769,9.771V237.64h9.131V211.689c0-2.67,1.137-5.934,5.91-5.987,4.777.052,5.91,3.317,5.91,5.987l0,25.951h9.131V211.689c0-2.67,1.137-5.934,5.912-5.987,4.775.052,5.912,3.317,5.912,5.987V237.64h9.131V210.9A9.772,9.772,0,0,0,403,201.132" transform="translate(-165.245 -145.342)" fill="#656464"/>
      <path id="Path_17021" data-name="Path 17021" d="M545.142,180.825v63.459L502.6,180.854v-.028H490.156v74.605H502.6V192.017l42.544,63.414h12.443V180.825Z" transform="translate(-52.725 -163.133)" fill="#656464"/>
      <path id="Path_17022" data-name="Path 17022" d="M597.648,180.825H582.458l-20.728,29.6-23.056-29.6H531.08l27.056,34.735-27.917,39.87h15.189l20.726-29.6,23.056,29.6h7.595L569.731,220.7Z" transform="translate(-17.623 -163.133)" fill="#656464"/>
    </g>
    <path id="Path_17033" data-name="Path 17033" d="M280.915,241.189H257V217.277h16.242a7.671,7.671,0,0,1,7.67,7.672Z" transform="translate(807.997 241.955)" fill="#207cbf"/>
    <path id="Path_17034" data-name="Path 17034" d="M296.209,241.189H272.3V217.277h16.242a7.671,7.671,0,0,1,7.67,7.672Z" transform="translate(821.397 241.955)" fill="#207cbf"/>
    <path id="Path_17035" data-name="Path 17035" d="M311.5,241.189H287.59V217.277h16.242a7.671,7.671,0,0,1,7.67,7.672Z" transform="translate(834.796 241.955)" fill="#207cbf"/>
    <path id="Path_17036" data-name="Path 17036" d="M326.8,241.189H302.884V217.277h16.242a7.672,7.672,0,0,1,7.67,7.672Z" transform="translate(848.196 241.955)" fill="#207cbf"/>
    <path id="Path_17037" data-name="Path 17037" d="M296.209,225.895H272.3V201.983h16.242a7.67,7.67,0,0,1,7.67,7.67Z" transform="translate(821.397 228.555)" fill="#448d9d"/>
    <path id="Path_17038" data-name="Path 17038" d="M311.5,225.895H287.59V201.983h16.242a7.67,7.67,0,0,1,7.67,7.67Z" transform="translate(834.796 228.555)" fill="#448d9d"/>
    <path id="Path_17039" data-name="Path 17039" d="M326.8,225.895H302.884V201.983h16.242a7.672,7.672,0,0,1,7.67,7.67Z" transform="translate(848.196 228.555)" fill="#448d9d"/>
    <path id="Path_17040" data-name="Path 17040" d="M311.5,210.6H287.59V186.689h16.242a7.671,7.671,0,0,1,7.67,7.672Z" transform="translate(834.796 215.155)" fill="#5d9c6e"/>
    <path id="Path_17041" data-name="Path 17041" d="M326.8,210.6H302.884V186.689h16.242a7.672,7.672,0,0,1,7.67,7.672Z" transform="translate(848.196 215.155)" fill="#5d9c6e"/>
    <path id="Path_17042" data-name="Path 17042" d="M326.8,195.307H302.884V171.395h16.242a7.672,7.672,0,0,1,7.67,7.672Z" transform="translate(848.196 201.755)" fill="#73ab31"/>
  </g>
</svg>
