<svg xmlns="http://www.w3.org/2000/svg" width="64" height="64" viewBox="0 0 64 64">
  <g id="Group_66" data-name="Group 66" transform="translate(-770 -1695)">
    <rect id="Rectangle_49" data-name="Rectangle 49" width="64" height="64" rx="32" transform="translate(770 1695)" fill="#595959"/>
    <g id="icon-word" transform="translate(786 1711)">
      <rect id="Rectangle_11216" data-name="Rectangle 11216" width="32" height="32" fill="#fff" opacity="0"/>
      <path id="Path_120" data-name="Path 120" d="M32.991,3.2h0a.569.569,0,0,0,.569-.569V.569A.569.569,0,0,0,32.991,0H12.76l-.027.107V0a4.8,4.8,0,0,0-4.8,4.8c0,.17.027,22.4.027,22.4H7.933a4.8,4.8,0,0,0,4.8,4.8v-.107L12.76,32H32.991a.569.569,0,0,0,.569-.569V10.4l-.022-3.342a.822.822,0,0,0-.56-.756A1.708,1.708,0,0,1,32.6,3.356.554.554,0,0,1,32.991,3.2Zm-20.258,0h16.28a4.724,4.724,0,0,0,0,3.2H12.733A1.6,1.6,0,0,1,11.16,5.065V4.8h-.027A1.6,1.6,0,0,1,12.733,3.2Zm0,25.6a1.6,1.6,0,0,1-1.6-1.6h.027V9.6h3.2v9.6l3.2-1.6,3.2,1.6V9.6h9.6V28.8Z" transform="translate(-4.733)" fill="#fff"/>
    </g>
  </g>
</svg>
