<svg xmlns="http://www.w3.org/2000/svg" width="171.536" height="151.172" viewBox="0 0 171.536 151.172">
  <g id="Group_22890" data-name="Group 22890" transform="translate(-2954.903 662.862)">
    <path id="Path_35629" data-name="Path 35629" d="M3030.725-645.809c-.027-2.172-.025-4.827-1.647-6.5a2.223,2.223,0,0,0-2.322-.7,1.959,1.959,0,0,0-1.2,2.115,2.6,2.6,0,0,0,1.487,2.092,3.268,3.268,0,0,0,2.992-.763,8.14,8.14,0,0,0,2.126-1.989c.492-.728,1.009-2.009.407-2.81a1.933,1.933,0,0,0-2.246-.345,3.385,3.385,0,0,0-1.838,1.826,3.282,3.282,0,0,0,.168,2.824,6.354,6.354,0,0,0,2.083,2.038,28.645,28.645,0,0,0,3.258,1.99c.886.46,1.992.741,2.678-.2a3.58,3.58,0,0,0,.383-2.548c-.114-.881-.254-2.134-1.006-2.718a2.5,2.5,0,0,0-1.46-.379c-.629-.038-1.256-.079-1.886-.111a3.042,3.042,0,0,0-2.357.653c-.767.764-.75,2.051-.714,3.057a5.456,5.456,0,0,0,.909,3.087,2.215,2.215,0,0,0,2.372.98,3.345,3.345,0,0,0,1.808-2.2,14.248,14.248,0,0,0,.684-3.642,16.869,16.869,0,0,0,.02-3.721c-.228-1.7-1.368-4.45-3.562-3.99-1.842.385-2.482,2.878-2.274,4.473a6.193,6.193,0,0,0,3.574,4.746,12.363,12.363,0,0,0,3.208.972,1.324,1.324,0,0,0,1.22-.307,2.028,2.028,0,0,0,.38-1.389,8.769,8.769,0,0,1,.425-2.693,8.883,8.883,0,0,1,.858-1.725,6.338,6.338,0,0,0,1.211-3.372,6.7,6.7,0,0,0-.489-2.6,4.37,4.37,0,0,0-1.742-1.833,4.116,4.116,0,0,0-2.255-.732c-.792.031-1.583.024-2.377.016-1.777-.022-3.683-.175-5.294.721a11.5,11.5,0,0,0-3.374,3.54,6.161,6.161,0,0,0-1.441,2.878,3.724,3.724,0,0,0,1.222,2.89,4.677,4.677,0,0,0,5.448,1.151,5.674,5.674,0,0,0,2.894-5.058,6.317,6.317,0,0,0-.16-1.571,3.037,3.037,0,0,0-.591-1.36c-.639-.7-1.7-.2-2.281.32a5.033,5.033,0,0,0-1.3,4.626c.418,1.937,2.092,2.986,3.873,3.512,1.169.346,2.357.623,3.538.93,1.269.33,2.534.687,3.81.988,1.018.239,2.285.083,2.461-1.161a3.5,3.5,0,0,0-1-2.749,3.735,3.735,0,0,0-2.788-1.132,5.192,5.192,0,0,0-2.987.808,2.6,2.6,0,0,0-1.014,2.391,1.838,1.838,0,0,0,.47,1.112,2.2,2.2,0,0,0,1.478.482,8.791,8.791,0,0,0,3.581-.368c1.1-.406,1.127-1.728,1.252-2.721.27-2.125.191-4.464-1.441-6.053-1.359-1.325-3.309-1.777-5.095-2.207a13.4,13.4,0,0,0-3.764-.478c-.98.045-2.088.22-2.454,1.272a2.61,2.61,0,0,0,.893,2.585,8.887,8.887,0,0,0,2.9,1.667,7.581,7.581,0,0,0,1.666.506,1.21,1.21,0,0,0,1.211-.559,3.864,3.864,0,0,0,.346-2.987,6.417,6.417,0,0,0-4.093-4.366,3.724,3.724,0,0,0-3.1.17,3.956,3.956,0,0,0-1.712,2.215c-.636,2.006.466,3.922,1.972,5.19.373.314.913-.223.538-.539-1.3-1.094-2.333-2.692-1.774-4.449a3.131,3.131,0,0,1,1.448-1.807,3.135,3.135,0,0,1,2.661.043,5.652,5.652,0,0,1,3.317,3.694,2.967,2.967,0,0,1-.289,2.491c-.3.331-.851.052-1.212-.062a10.762,10.762,0,0,1-1.44-.567,5.848,5.848,0,0,1-2.218-1.535c-.451-.6-.733-1.626.141-2a3.69,3.69,0,0,1,1.273-.2,9.494,9.494,0,0,1,1.7.1,26.314,26.314,0,0,1,3.064.681,7.34,7.34,0,0,1,3.687,1.9c1.272,1.4,1.25,3.413,1.033,5.18a11.475,11.475,0,0,1-.217,1.379,1,1,0,0,1-.919.854,9.482,9.482,0,0,1-3.155.2c-.4-.039-.752-.118-.91-.525a1.833,1.833,0,0,1-.032-1.072,2.058,2.058,0,0,1,1.615-1.425,4.625,4.625,0,0,1,2.8-.026,2.919,2.919,0,0,1,1.637,1.666,2.072,2.072,0,0,1,.152,1.271c-.162.539-.793.539-1.247.457-1.036-.19-2.062-.524-3.081-.789l-3.169-.824a15.934,15.934,0,0,1-2.344-.71,3.727,3.727,0,0,1-2.413-3.348,3.834,3.834,0,0,1,1.58-3.439c.314-.168.687-.276.9.086a3.737,3.737,0,0,1,.386,1.28,5.929,5.929,0,0,1-.209,2.625,4.243,4.243,0,0,1-3.416,3.1,4.352,4.352,0,0,1-4.175-2.521,2.74,2.74,0,0,1,.41-2.647c.46-.724.991-1.412,1.517-2.091a7.294,7.294,0,0,1,2.709-2.416,10.945,10.945,0,0,1,4.468-.426c.7.01,1.411.031,2.112,0a3.3,3.3,0,0,1,1.649.31,4.566,4.566,0,0,1,1.712,1.334,4.388,4.388,0,0,1,.646,2.073,4.512,4.512,0,0,1-.589,2.866,15.534,15.534,0,0,0-1.436,2.769,8.818,8.818,0,0,0-.4,2.125,9.139,9.139,0,0,1-.066,1.249c-.114.521-.539.428-.953.33a8.16,8.16,0,0,1-4.685-2.327,4.838,4.838,0,0,1-.953-4.747,2.424,2.424,0,0,1,1.326-1.531,1.766,1.766,0,0,1,1.831.816c1.229,1.569,1.086,3.842.942,5.711a17.8,17.8,0,0,1-.432,2.988,4.2,4.2,0,0,1-1.207,2.347c-.683.521-1.46.073-1.906-.531a4.764,4.764,0,0,1-.741-2.677c-.023-.794-.108-2,.592-2.547a2.983,2.983,0,0,1,2.038-.319l1.5.088c.426.024.935,0,1.216.38a3.109,3.109,0,0,1,.4,1.152,8.233,8.233,0,0,1,.193,1.172c.05.605.091,1.584-.51,1.962a1.326,1.326,0,0,1-1.236-.133c-.476-.227-.937-.5-1.393-.764a26.767,26.767,0,0,1-2.57-1.687,4,4,0,0,1-1.488-1.806,2.538,2.538,0,0,1,1.615-3.2,2.719,2.719,0,0,1,.39-.1.918.918,0,0,1,.828.242c.242.33.04.911-.091,1.256a4.6,4.6,0,0,1-1.474,1.849,5.284,5.284,0,0,1-2.378,1.353,1.549,1.549,0,0,1-1.647-1.215,1.245,1.245,0,0,1,.66-1.633,1.349,1.349,0,0,1,.164-.058,1.924,1.924,0,0,1,1.727,1.078c1.031,1.6,1.01,3.635,1.031,5.465a.382.382,0,0,0,.4.365.382.382,0,0,0,.365-.365Z" transform="translate(24.522)" fill="#6d7c83"/>
    <g id="Group_22845" data-name="Group 22845" transform="translate(3054.229 -593.287)">
      <path id="Path_35630" data-name="Path 35630" d="M3034.1-530.629h-6.029l11.589-80.981h13.666Z" transform="translate(-3028.07 611.61)" fill="#214157"/>
    </g>
    <g id="Group_22850" data-name="Group 22850" transform="translate(2961.049 -653.512)">
      <g id="Group_22846" data-name="Group 22846">
        <path id="Path_35631" data-name="Path 35631" d="M2976-567.577h-6.892l-9.676-88.4h6.891Z" transform="translate(-2959.43 655.974)" fill="#ffca32"/>
      </g>
      <g id="Group_22847" data-name="Group 22847" transform="translate(66.244 88.398)">
        <path id="Path_35632" data-name="Path 35632" d="M3027.318-538.048h-4.707l-14.383-52.808h4.707Z" transform="translate(-3008.228 590.856)" fill="#dcab28"/>
      </g>
      <g id="Group_22848" data-name="Group 22848" transform="translate(10.398 88.398)">
        <path id="Path_35633" data-name="Path 35633" d="M2986.177-590.856l-14.38,52.808h-4.707l14.38-52.808Z" transform="translate(-2967.09 590.856)" fill="#dcab28"/>
      </g>
      <g id="Group_22849" data-name="Group 22849" transform="translate(11.861 81.307)">
        <rect id="Rectangle_13782" data-name="Rectangle 13782" width="7.09" height="74.492" transform="translate(74.492 0) rotate(90)" fill="#ffca32"/>
      </g>
    </g>
    <g id="Group_22876" data-name="Group 22876" transform="translate(2976.086 -650.662)">
      <g id="Group_22851" data-name="Group 22851" transform="translate(4.902)">
        <path id="Path_35634" data-name="Path 35634" d="M2980.019-645.806c-5.345,6.054-6.926,14.375-5.281,21.956.652,3.012,2.094,6.264,5.227,7.488,2.552,1,5.489.361,8.177-.289l14.886-3.6c3.832-.927,7.745-1.887,11.023-3.895s5.858-5.3,5.718-8.859c-.15-3.766-3.163-6.877-6.012-9.645q-3.529-3.429-7.056-6.859c-1.4-1.356-2.7-3.177-4.716-3.8-4.776-1.476-11.008.163-15.192,2.308A24.335,24.335,0,0,0,2980.019-645.806Z" transform="translate(-2974.118 653.875)" fill="#050f64"/>
      </g>
      <g id="Group_22854" data-name="Group 22854" transform="translate(46.713 128.725)">
        <g id="Group_22852" data-name="Group 22852" transform="translate(1.006)">
          <path id="Path_35635" data-name="Path 35635" d="M3005.661-559.043c-.166,5.012,7.207,8.336,8.548,8.631.882.2,1.231-.928,1.4-1.7a7.455,7.455,0,0,1-3.6-2.571c-2.313-2.68-2.33-4.291-2.33-4.291l-4.009-.076Z" transform="translate(-3005.659 559.05)" fill="#f5bdc8"/>
        </g>
        <g id="Group_22853" data-name="Group 22853" transform="translate(0 0.007)">
          <path id="Path_35636" data-name="Path 35636" d="M3005.927-559.045c.035,4.953,6.75,7.911,8.091,8.207a1.636,1.636,0,0,0,1.858-1.276c.361.117,1.424.455,1.751.607,1.191.553.136,1.45-.929,1.879a5.827,5.827,0,0,1-3.406.043c-2.55-.561-5.9-3.54-6.605-4.689l-.084,5.468-1.685-.031.1-6.421A6.79,6.79,0,0,1,3005.927-559.045Z" transform="translate(-3004.918 559.045)" fill="#050f64"/>
        </g>
      </g>
      <g id="Group_22855" data-name="Group 22855" transform="translate(8.767 58.519)">
        <path id="Path_35637" data-name="Path 35637" d="M3035-603.21v-.012a7.308,7.308,0,0,0-6.792-6.864l-41.006-.657h-.011a9.579,9.579,0,0,0-10.219,8.893c-.366,5.278,8.895,10.219,8.895,10.219s25.95,2.047,36.01-1.136l8.143,52.381h4.4S3035.017-602.983,3035-603.21Z" transform="translate(-2976.965 610.767)" fill="#050f64"/>
      </g>
      <g id="Group_22858" data-name="Group 22858" transform="translate(61.111 128.899)">
        <g id="Group_22856" data-name="Group 22856" transform="translate(0.844)">
          <path id="Path_35638" data-name="Path 35638" d="M3016.146-558.915c-.072,5.015,7.362,8.2,8.708,8.468.886.179,1.214-.952,1.37-1.725a7.449,7.449,0,0,1-3.652-2.5c-2.363-2.638-2.411-4.248-2.411-4.248h-4.009Z" transform="translate(-3016.146 558.922)" fill="#f5bdc8"/>
        </g>
        <g id="Group_22857" data-name="Group 22857" transform="translate(0 0.007)">
          <path id="Path_35639" data-name="Path 35639" d="M3016.368-558.917c.129,4.952,6.9,7.784,8.244,8.053a1.636,1.636,0,0,0,1.834-1.31c.363.11,1.432.429,1.762.574,1.2.531.163,1.446-.893,1.9a5.821,5.821,0,0,1-3.4.107c-2.562-.512-5.965-3.429-6.692-4.563l-.008,5.065h-1.686l.008-6.018A6.807,6.807,0,0,1,3016.368-558.917Z" transform="translate(-3015.524 558.917)" fill="#050f64"/>
        </g>
      </g>
      <g id="Group_22859" data-name="Group 22859" transform="translate(40.507 11.659)">
        <rect id="Rectangle_13783" data-name="Rectangle 13783" width="12.841" height="14.822" transform="translate(8.182 0) rotate(33.503)" fill="#050f64"/>
      </g>
      <g id="Group_22865" data-name="Group 22865" transform="translate(47.923 31.894)">
        <g id="Group_22860" data-name="Group 22860" transform="translate(33.31 11.683)">
          <path id="Path_35640" data-name="Path 35640" d="M3037.213-616.74l-6.866,8.25c.093.012.189.02.281.029a33.591,33.591,0,0,0,8.8-.438,48.568,48.568,0,0,0,8.02-2.222c2.183-.791,4.452-1.724,7.355-3.023,2.625-1.173,5.151-2.385,7.06-3.31a1.986,1.986,0,0,0,.68-.531,2.285,2.285,0,0,0,.327-2.319,2.226,2.226,0,0,0-2.689-1.374c-2.954.933-5.211,1.618-7.318,2.213-2.87.813-5.18,1.391-7.265,1.818a41.185,41.185,0,0,1-7.047.9C3038.1-616.736,3037.656-616.735,3037.213-616.74Z" transform="translate(-3030.347 621.774)" fill="#ea8096"/>
        </g>
        <g id="Group_22861" data-name="Group 22861" transform="translate(0.565 1.191)">
          <path id="Path_35641" data-name="Path 35641" d="M3006.225-625.549l3.291-3.954a7.106,7.106,0,0,0-2,1.664c-.161.194-.318.4-.462.614A7.229,7.229,0,0,0,3006.225-625.549Z" transform="translate(-3006.225 629.503)" fill="#f5bdc8"/>
        </g>
        <g id="Group_22862" data-name="Group 22862" transform="translate(0.48 0.467)">
          <path id="Path_35642" data-name="Path 35642" d="M3008.458-618.269c4,2.3,8.061,4.586,12.336,6.721,2.146,1.06,4.322,2.1,6.635,3.018a50,50,0,0,0,7.257,2.331,33.985,33.985,0,0,0,7.844.905,35.326,35.326,0,0,0,7.669-.914,57.511,57.511,0,0,0,7-2.115c2.239-.818,4.405-1.712,6.527-2.647l-2.2-6c-2.145.646-4.283,1.233-6.4,1.724a49.5,49.5,0,0,1-6.256,1.086,26.629,26.629,0,0,1-5.913-.022,24.58,24.58,0,0,1-5.572-1.371,54.513,54.513,0,0,1-10.915-5.886c-3.619-2.4-7.218-5.048-10.819-7.751-2.366-1.763-6.089-.687-8.171,2.416S3005.823-619.792,3008.458-618.269Z" transform="translate(-3006.163 630.036)" fill="#00dffe"/>
        </g>
        <g id="Group_22863" data-name="Group 22863">
          <path id="Path_35643" data-name="Path 35643" d="M3008.347-617.732c1.423.817,2.78,1.59,4.1,2.328l1.834-2.2,5.081,2.783-1.4,2.423h0c.908.477,1.816.941,2.741,1.4,2.069,1.019,4.306,2.093,6.672,3.034a50.584,50.584,0,0,0,7.328,2.353c.384.089.767.172,1.152.247l-.9-3.09,24.884-2.738.768,2.234c1.1-.445,2.24-.93,3.433-1.453l.409-.181-2.506-6.843-.431.13c-2.316.7-4.4,1.258-6.372,1.717a48.946,48.946,0,0,1-6.194,1.075,26.289,26.289,0,0,1-5.808-.02,24.221,24.221,0,0,1-5.467-1.344c-.527-.193-1.057-.406-1.6-.639l-.937,2.16-14.566-6.193,2.357-3.866c-2.362-1.67-4.67-3.383-6.868-5.035-2.356-1.757-6.007-.961-8.312,1.811a8.729,8.729,0,0,0-.541.724,7.586,7.586,0,0,0-1.236,5.871A5.072,5.072,0,0,0,3008.347-617.732Z" transform="translate(-3005.809 630.38)" fill="#fff"/>
        </g>
        <g id="Group_22864" data-name="Group 22864" transform="translate(0.48 0.467)">
          <path id="Path_35644" data-name="Path 35644" d="M3008.458-618.269c4,2.3,8.061,4.586,12.336,6.721,2.146,1.06,4.322,2.1,6.635,3.018a50,50,0,0,0,7.257,2.331,33.985,33.985,0,0,0,7.844.905,35.326,35.326,0,0,0,7.669-.914,57.511,57.511,0,0,0,7-2.115c2.239-.818,4.405-1.712,6.527-2.647l-2.2-6c-2.145.646-4.283,1.233-6.4,1.724a49.5,49.5,0,0,1-6.256,1.086,26.629,26.629,0,0,1-5.913-.022,24.58,24.58,0,0,1-5.572-1.371,54.513,54.513,0,0,1-10.915-5.886c-3.619-2.4-7.218-5.048-10.819-7.751-2.366-1.763-6.089-.687-8.171,2.416S3005.823-619.792,3008.458-618.269Z" transform="translate(-3006.163 630.036)" fill="#009dff"/>
        </g>
      </g>
      <g id="Group_22866" data-name="Group 22866" transform="translate(0.561 24.445)">
        <path id="Path_35645" data-name="Path 35645" d="M3021.5-632.306h0a17.794,17.794,0,0,1,.011,26.971L2999.785-584.1c-7.8-2.87-15.153-6.056-28.865-9.427l29.1-36.315A14.721,14.721,0,0,1,3021.5-632.306Z" transform="translate(-2970.92 635.868)" fill="#009dff"/>
      </g>
      <g id="Group_22867" data-name="Group 22867" transform="translate(3.185 24.046)">
        <path id="Path_35646" data-name="Path 35646" d="M2988.564-616.405l-.363-.311-15.349,19.285.377.293Zm38.911-2.313a18.3,18.3,0,0,0-1.223-6.57l-.388.305a17.908,17.908,0,0,1-.29,13.261l.4.277A18.289,18.289,0,0,0,3027.475-618.718Zm-17.7-16.974-.11-.468-.2.022a15.239,15.239,0,0,0-10.519,6.106l-6.758,8.373.449.2,6.681-8.274A14.663,14.663,0,0,1,3009.778-635.693Z" transform="translate(-2972.853 636.161)" fill="#fff"/>
      </g>
      <g id="Group_22868" data-name="Group 22868" transform="translate(0.476 58.515)">
        <path id="Path_35647" data-name="Path 35647" d="M3028.943-600.463v-.012a7.309,7.309,0,0,0-6.276-7.5c-.053-.007-41.082-2.723-41.082-2.723h-.011a9.579,9.579,0,0,0-10.65,8.373,9.579,9.579,0,0,0,8.372,10.65s25.479,3.32,35.6.767l2.906,50.353,4.59.079S3028.934-600.236,3028.943-600.463Z" transform="translate(-2970.857 610.77)" fill="#050f64"/>
      </g>
      <g id="Group_22869" data-name="Group 22869" transform="translate(0 58.207)">
        <path id="Path_35648" data-name="Path 35648" d="M3027.426-585.275c-.7,6.418-1.536,14.052-2.316,21.185h.484c.782-7.162,1.608-14.726,2.3-21.082Zm-4.566-23.094-4.82-.322v.478c2.9.193,4.741.318,4.754.318a7.309,7.309,0,0,1,6.277,7.5l0,.012c0,.042-.221,2.08-.582,5.381l.487-.052c.33-3.035.539-4.981.569-5.273l0-.026v-.024A7.762,7.762,0,0,0,3022.861-608.369Zm-24.662-1.637v.479l10.666.707.075-.475Zm-14.578-.485,6.5.429.164-.467-7.061-.468Zm-12.636,9.3c-.157,0-.317,0-.478,0a10.078,10.078,0,0,0,7.019,9.675l.211-.437A9.575,9.575,0,0,1,2970.984-601.189Zm13.29,10.146-.234.458c4.052.425,10.191.972,16.244,1.147l.1-.478C2994.434-590.083,2988.346-590.621,2984.274-591.043Zm30.748.214a35.835,35.835,0,0,1-6.6.855l.087.472a38.79,38.79,0,0,0,6.074-.733l.853,14.739h.478Zm9.347,33.516c-1.045,9.56-1.85,16.913-1.85,16.913l-3.88-.066.009.478,4.3.073.048-.432c.321-2.942,1.022-9.338,1.85-16.905Zm-7.989-9.98c-.129.033-.3.073-.471.119l1.242,21.51h.48Z" transform="translate(-2970.506 610.997)" fill="#155bcd"/>
      </g>
      <g id="Group_22875" data-name="Group 22875" transform="translate(22.776 0.562)">
        <g id="Group_22870" data-name="Group 22870" transform="translate(22.682 24.246)">
          <path id="Path_35649" data-name="Path 35649" d="M3016.883-629.194l-9.831,4.563a6.01,6.01,0,0,1-2.974-6.406l9.833-4.562Z" transform="translate(-3003.993 635.6)" fill="#f4bcc7"/>
        </g>
        <g id="Group_22871" data-name="Group 22871" transform="translate(29.21 24.66)">
          <path id="Path_35650" data-name="Path 35650" d="M3014.273-628.889l-2.438,1.132a7.708,7.708,0,0,1-2.491-2.8c-.032-.065-.066-.132-.1-.2a4.692,4.692,0,0,1-.195-3.5l2.249-1.044Z" transform="translate(-3008.802 635.295)" fill="#ea8096"/>
        </g>
        <g id="Group_22872" data-name="Group 22872" transform="translate(29.978 18.375)">
          <path id="Path_35651" data-name="Path 35651" d="M3025.449-629.287l-7.073,3.079a6.717,6.717,0,0,1-8.574-3.068h0a3.784,3.784,0,0,1-.188-3.1,11.32,11.32,0,0,1,1.785-2.919,11.406,11.406,0,0,1,4.695-3.949l2.29-.68,8.57,7.643Z" transform="translate(-3009.367 639.925)" fill="#f4bcc7"/>
        </g>
        <g id="Group_22873" data-name="Group 22873">
          <path id="Path_35652" data-name="Path 35652" d="M3001.3-652.08c5.745,2.5,10.81,5.431,17.48,5.962,5.808.464,12.512.376,16.993,4.113a12.683,12.683,0,0,1,2.876,3.44,16.189,16.189,0,0,1,1.98,8.388,8.386,8.386,0,0,1-2.051,5.274,5.059,5.059,0,0,1-5.712,1.22c-1.754-.855-2.434-2.51-2.99-4.108a9.062,9.062,0,0,0-1.755-3.409c-1.413-1.5-4.008-2.95-6.349-2.524a7.135,7.135,0,0,0-2.3.977,5.132,5.132,0,0,1-.581.305,6.269,6.269,0,0,1-1.684,1.113c-2.586,1.063-5.475-.623-6.98-2.644-3.163-4.245-5.911-3.481-10.409-1.1-10.017,5.3-17.418-13.086-8.584-17.523a7.13,7.13,0,0,1,.733-.316C2994.941-654.014,2998.459-653.312,3001.3-652.08Z" transform="translate(-2987.284 653.461)" fill="#050f64"/>
        </g>
        <g id="Group_22874" data-name="Group 22874" transform="translate(32.325 16.265)">
          <circle id="Ellipse_856" data-name="Ellipse 856" cx="2.57" cy="2.57" r="2.57" transform="translate(0 1.436) rotate(-16.228)" fill="#f4bcc7"/>
        </g>
      </g>
    </g>
    <g id="Group_22883" data-name="Group 22883" transform="translate(2954.903 -632.952)">
      <g id="Group_22877" data-name="Group 22877" transform="translate(0 29.533)">
        <rect id="Rectangle_13784" data-name="Rectangle 13784" width="171.536" height="5.066" fill="#265b7f"/>
      </g>
      <g id="グループ_22373" data-name="グループ 22373" transform="translate(89.645)">
        <g id="グループ_22370" data-name="グループ 22370" transform="translate(0 28.236)">
          <rect id="長方形_13691" data-name="長方形 13691" width="55.551" height="1.865" fill="#6ab82d"/>
        </g>
        <g id="グループ_22371" data-name="グループ 22371" transform="translate(21.049)">
          <path id="パス_35405" data-name="パス 35405" d="M3070.947-612.593h-34.5l10.658-28.236h34.5Z" transform="translate(-3036.444 640.829)" fill="#6ab82d"/>
        </g>
        <g id="グループ_22372" data-name="グループ 22372" transform="translate(41.307 10.84)">
          <path id="パス_35406" data-name="パス 35406" d="M3055.631-627.109c-.7,2.9-2.139,5.034-3.213,4.773s-1.373-2.818-.671-5.714,2.14-5.032,3.212-4.773S3056.332-630,3055.631-627.109Z" transform="translate(-3051.367 632.844)" fill="#fff"/>
        </g>
      </g>
      <g id="Group_22878" data-name="Group 22878" transform="translate(10.27 34.599)">
        <rect id="Rectangle_13785" data-name="Rectangle 13785" width="150.996" height="6.584" fill="#265b7f"/>
      </g>
      <g id="Group_22882" data-name="Group 22882" transform="translate(8.049 39.665)">
        <g id="Group_22879" data-name="Group 22879">
          <path id="Path_35653" data-name="Path 35653" d="M2966.861-530.629h-6.029l11.589-80.981h13.666Z" transform="translate(-2960.832 611.61)" fill="#265b7f"/>
        </g>
        <g id="Group_22880" data-name="Group 22880" transform="translate(38.906)">
          <path id="Path_35654" data-name="Path 35654" d="M3008.718-530.629h6.029l-11.589-80.981h-13.666Z" transform="translate(-2989.492 611.61)" fill="#265b7f"/>
        </g>
        <g id="Group_22881" data-name="Group 22881" transform="translate(130.184)">
          <path id="Path_35655" data-name="Path 35655" d="M3075.956-530.629h6.029L3070.4-611.61H3056.73Z" transform="translate(-3056.73 611.61)" fill="#265b7f"/>
        </g>
      </g>
    </g>
    <g id="Group_22889" data-name="Group 22889" transform="translate(3007.919 -624.993)">
      <g id="Group_22884" data-name="Group 22884" transform="translate(33.163 12.166)">
        <path id="Path_35656" data-name="Path 35656" d="M3025.321-621.173l-6.935,8.19c.092.014.187.022.28.031a33.558,33.558,0,0,0,8.8-.362,48.551,48.551,0,0,0,8.038-2.153c2.191-.774,4.468-1.687,7.382-2.961,2.635-1.15,5.171-2.34,7.087-3.248a2,2,0,0,0,.686-.524,2.283,2.283,0,0,0,.346-2.316,2.226,2.226,0,0,0-2.677-1.4c-2.962.908-5.225,1.573-7.336,2.15-2.878.789-5.194,1.347-7.282,1.755a41.134,41.134,0,0,1-7.055.838C3026.21-621.162,3025.764-621.163,3025.321-621.173Z" transform="translate(-3018.386 626.004)" fill="#f5bdc8"/>
      </g>
      <g id="Group_22885" data-name="Group 22885" transform="translate(0.587 1.161)">
        <path id="Path_35657" data-name="Path 35657" d="M2994.389-630.185l3.326-3.926a7.109,7.109,0,0,0-2.012,1.647c-.163.194-.32.4-.466.61A7.233,7.233,0,0,0,2994.389-630.185Z" transform="translate(-2994.389 634.111)" fill="#f5bdc8"/>
      </g>
      <g id="Group_22886" data-name="Group 22886" transform="translate(0.48 0.467)">
        <path id="Path_35658" data-name="Path 35658" d="M2996.569-622.894c3.983,2.334,8.022,4.654,12.277,6.827,2.136,1.078,4.3,2.137,6.61,3.073a49.89,49.89,0,0,0,7.237,2.393,33.936,33.936,0,0,0,7.835.973,35.351,35.351,0,0,0,7.677-.848,57.373,57.373,0,0,0,7.016-2.055c2.246-.8,4.419-1.674,6.549-2.59l-2.145-6.018c-2.149.627-4.292,1.2-6.416,1.67a49.892,49.892,0,0,1-6.265,1.033,26.8,26.8,0,0,1-5.913-.073,24.643,24.643,0,0,1-5.561-1.419,54.464,54.464,0,0,1-10.863-5.981c-3.6-2.431-7.176-5.108-10.754-7.844-2.35-1.782-6.08-.738-8.19,2.347S2993.947-624.439,2996.569-622.894Z" transform="translate(-2994.31 634.622)" fill="#00dffe"/>
      </g>
      <g id="Group_22887" data-name="Group 22887">
        <path id="Path_35659" data-name="Path 35659" d="M2996.454-622.36c1.416.829,2.767,1.614,4.078,2.363l1.854-2.188,5.055,2.828-1.416,2.411h0c.9.485,1.81.957,2.729,1.425,2.061,1.037,4.289,2.13,6.646,3.091a50.461,50.461,0,0,0,7.307,2.415c.384.094.766.179,1.15.258l-.871-3.1,24.906-2.524.75,2.24c1.1-.436,2.247-.91,3.446-1.423l.41-.178-2.448-6.862-.431.125c-2.322.679-4.411,1.222-6.387,1.663a49.082,49.082,0,0,1-6.2,1.022,26.218,26.218,0,0,1-5.806-.071,24.114,24.114,0,0,1-5.454-1.391c-.525-.2-1.055-.414-1.595-.652l-.954,2.15-14.512-6.317,2.389-3.846c-2.347-1.692-4.64-3.424-6.825-5.095-2.34-1.776-6-1.011-8.327,1.739a8.668,8.668,0,0,0-.547.719,7.59,7.59,0,0,0-1.287,5.86A5.078,5.078,0,0,0,2996.454-622.36Z" transform="translate(-2993.957 634.966)" fill="#fff"/>
      </g>
      <g id="Group_22888" data-name="Group 22888" transform="translate(0.48 0.467)">
        <path id="Path_35660" data-name="Path 35660" d="M2996.569-622.894c3.983,2.334,8.022,4.654,12.277,6.827,2.136,1.078,4.3,2.137,6.61,3.073a49.89,49.89,0,0,0,7.237,2.393,33.936,33.936,0,0,0,7.835.973,35.351,35.351,0,0,0,7.677-.848,57.373,57.373,0,0,0,7.016-2.055c2.246-.8,4.419-1.674,6.549-2.59l-2.145-6.018c-2.149.627-4.292,1.2-6.416,1.67a49.892,49.892,0,0,1-6.265,1.033,26.8,26.8,0,0,1-5.913-.073,24.643,24.643,0,0,1-5.561-1.419,54.464,54.464,0,0,1-10.863-5.981c-3.6-2.431-7.176-5.108-10.754-7.844-2.35-1.782-6.08-.738-8.19,2.347S2993.947-624.439,2996.569-622.894Z" transform="translate(-2994.31 634.622)" fill="#009dff"/>
      </g>
    </g>
  </g>
</svg>
