<svg xmlns="http://www.w3.org/2000/svg" width="75.244" height="225.598" viewBox="0 0 75.244 225.598">
  <g id="Group_22916" data-name="Group 22916" transform="translate(-3156.442 716.031)">
    <g id="Group_22912" data-name="Group 22912" transform="translate(3156.442 -686.35)">
      <g id="Group_22891" data-name="Group 22891" transform="translate(0 190.29)">
        <path id="Path_35661" data-name="Path 35661" d="M3174.985-552.448h-18.543a2.86,2.86,0,0,1,.521-1.738,2.943,2.943,0,0,1,1.859-.989,17.867,17.867,0,0,1,2.152-.125,11.405,11.405,0,0,0,5.031-1.457,16.926,16.926,0,0,1,2.415-1.317l5.054.132a5.785,5.785,0,0,1,1.351,2.725A10.19,10.19,0,0,1,3174.985-552.448Z" transform="translate(-3156.442 558.074)" fill="#214157"/>
      </g>
      <g id="Group_22892" data-name="Group 22892" transform="translate(57.622 184.895)">
        <path id="Path_35662" data-name="Path 35662" d="M3215.441-557.309l-17.41,6.382a2.861,2.861,0,0,1-.108-1.81,2.939,2.939,0,0,1,1.405-1.569,17.826,17.826,0,0,1,1.977-.858,11.371,11.371,0,0,0,4.221-3.1,16.989,16.989,0,0,1,1.814-2.068l4.792-1.615a5.788,5.788,0,0,1,2.2,2.093A10.261,10.261,0,0,1,3215.441-557.309Z" transform="translate(-3197.819 561.948)" fill="#214157"/>
      </g>
      <g id="Group_22893" data-name="Group 22893" transform="translate(10.922 90.3)">
        <path id="Path_35663" data-name="Path 35663" d="M3169.318-586.248a70.872,70.872,0,0,1,1.3-8.553c2.128-9.9,7.555-35.074,7.555-35.074l39.86,3.183-3.506,37.151,11.245,54.256-6.034,2.335-18.8-54.366c-.039-.145-5.107-21.535-5.107-21.535l-12.189,21.425-12.5,57.682h-6.863Z" transform="translate(-3164.285 629.875)" fill="#265b7f"/>
      </g>
      <g id="Group_22897" data-name="Group 22897" transform="translate(10.21 16.957)">
        <g id="Group_22895" data-name="Group 22895">
          <g id="Group_22894" data-name="Group 22894">
            <path id="Path_35664" data-name="Path 35664" d="M3195.108-680.891a1.756,1.756,0,0,1-1.144,2.04q-3.426.779-6.775,1.735c-2.228.639-4.422,1.348-6.541,2.153-.268.1-.527.2-.79.308l-.392.155c-.127.052-.209.092-.315.138l-.3.134c-.1.045-.206.091-.259.123l-.382.207a11.369,11.369,0,0,0-1.309.852,4.529,4.529,0,0,0-.924.912,1.359,1.359,0,0,0-.31,1.1,1.079,1.079,0,0,0,.377.565,2.4,2.4,0,0,0,.638.355,5.11,5.11,0,0,0,1.3.294,6.47,6.47,0,0,0,1.08.017c.157-.013.3-.031.434-.052a1.019,1.019,0,0,1,.165-.006h.343c.015,0,.026,0,.068,0l.407.034c2.161.181,4.392.248,6.636.253s4.512-.06,6.786-.174a4.645,4.645,0,0,1,3.712,1.884,7.487,7.487,0,0,1,1.566,4.717,7.073,7.073,0,0,1-1.691,4.683,4.845,4.845,0,0,1-4.045,1.7c-2.449-.28-4.9-.613-7.364-1.024s-4.931-.893-7.425-1.522l-1.123-.283-.672-.171c-.227-.057-.434-.106-.7-.184l-1.51-.429c-.492-.156-.975-.322-1.457-.48a22.2,22.2,0,0,1-5.036-2.427,11.326,11.326,0,0,1-3.249-3.22,7.624,7.624,0,0,1-.915-1.987,5.8,5.8,0,0,1-.176-2.344,6.16,6.16,0,0,1,.727-2.157,9.158,9.158,0,0,1,1.317-1.789l.395-.408.432-.391.216-.194.235-.187.472-.368c.333-.237.674-.466,1.023-.692.372-.213.719-.439,1.108-.636a30.037,30.037,0,0,1,4.933-2.019l1.286-.381c.224-.068.4-.114.58-.16l.545-.139c.176-.043.375-.095.531-.129l.456-.1c.3-.064.608-.135.912-.192,2.427-.492,4.839-.851,7.247-1.132s4.806-.489,7.2-.635A1.735,1.735,0,0,1,3195.108-680.891Z" transform="translate(-3163.773 682.541)" fill="#ea8096"/>
          </g>
        </g>
        <g id="Group_22896" data-name="Group 22896" transform="translate(9.231 9.092)">
          <path id="Path_35665" data-name="Path 35665" d="M3170.4-659.357l16.579,2.555c5.192.173,9.677-3.53,9.85-8.723h0a9.849,9.849,0,0,0-9.224-10.08l-12.263-.408Z" transform="translate(-3170.402 676.012)" fill="#009dff"/>
        </g>
      </g>
      <g id="Group_22898" data-name="Group 22898" transform="translate(24.809 25.693)">
        <path id="Path_35666" data-name="Path 35666" d="M3198.139-676.049h0a17.361,17.361,0,0,0-20.042,15.874l-3.839,48.514c15.593,8.938,25.324,6.875,39.86,3.184l1.947-45.638A21.289,21.289,0,0,0,3198.139-676.049Z" transform="translate(-3174.257 676.268)" fill="#009dff"/>
      </g>
      <g id="Group_22899" data-name="Group 22899" transform="translate(24.244 25.152)">
        <path id="Path_35667" data-name="Path 35667" d="M3176.408-643.505l.535.079,1.313-16.6a17.369,17.369,0,0,1,17.289-16.093,17.307,17.307,0,0,1,2.753.219,21.233,21.233,0,0,1,11.767,6.03l.413-.354a21.752,21.752,0,0,0-12.1-6.208,18.075,18.075,0,0,0-2.72-.226,17.934,17.934,0,0,0-17.947,16.593Zm39.782-9.619-1.176,27.49a3.679,3.679,0,0,1,.538.132l1.195-28.009Zm-42.339,41.913.3.17a48.753,48.753,0,0,0,13.288,5.487c.025-.175.052-.357.08-.544a48.465,48.465,0,0,1-13.1-5.412l1.621-20.463-.533-.095Z" transform="translate(-3173.851 676.656)" fill="#155bcd"/>
      </g>
      <g id="Group_22906" data-name="Group 22906" transform="translate(31.332)">
        <g id="Group_22903" data-name="Group 22903" transform="translate(5.323 6.067)">
          <g id="Group_22900" data-name="Group 22900" transform="translate(4.649 14.171)">
            <path id="Path_35668" data-name="Path 35668" d="M3186.1-679.217l1.484,12.347a6.894,6.894,0,0,0,8.045-.966l-1.483-12.348Z" transform="translate(-3186.102 680.185)" fill="#f5bdc8"/>
          </g>
          <g id="Group_22901" data-name="Group 22901" transform="translate(4.649 14.171)">
            <path id="Path_35669" data-name="Path 35669" d="M3186.1-679.217l.671,5.584a6.521,6.521,0,0,0,1.852.2c.2-.007.408-.024.61-.049a7.289,7.289,0,0,0,5.311-3.385l-.4-3.314Z" transform="translate(-3186.102 680.185)" fill="#ea8096"/>
          </g>
          <g id="Group_22902" data-name="Group 22902">
            <path id="Path_35670" data-name="Path 35670" d="M3182.848-682.336l.816,5.136.332,2.078a5.771,5.771,0,0,0,5.909,4.866,6.447,6.447,0,0,0,2.714-.7c.191-.1.377-.2.557-.32.111-.071.221-.145.327-.223a6.332,6.332,0,0,0,2.256-3.058c.364-1.057.685-2.213.981-3.429.17-.693.332-1.408.485-2.132a8.785,8.785,0,0,0-2.919-8.63,6.736,6.736,0,0,0-7.446-.888A6.785,6.785,0,0,0,3182.848-682.336Z" transform="translate(-3182.763 690.361)" fill="#f5bdc8"/>
          </g>
        </g>
        <g id="Group_22904" data-name="Group 22904">
          <path id="Path_35671" data-name="Path 35671" d="M3184.206-691.409s-2.01,1.112-2.36-2.659a6.444,6.444,0,0,0,5.447.409c2.835-1.191,3.825-1.427,4.947-.454,0,0,5.492-1.3,7.364,4.192,0,0,5.3,4.087.724,12.864l-3.724.628-1.661-2.93s4.289-5.09-.631-6.718c-5.6-1.855-8.119,4.488-8.119,4.488l-.116-2.785-1.2,1.594a21.423,21.423,0,0,0,.2,6.778,26.629,26.629,0,0,1-1.277-5.348l-.739.986a5.133,5.133,0,0,0-.025-3.741,2.945,2.945,0,0,1,.186-3.541s-2.128,1.1-4.287-1.68C3178.941-689.325,3181.056-688.7,3184.206-691.409Z" transform="translate(-3178.941 694.718)" fill="#050f64"/>
        </g>
        <g id="Group_22905" data-name="Group 22905" transform="translate(15.481 13.244)">
          <ellipse id="Ellipse_857" data-name="Ellipse 857" cx="3.036" cy="2.702" rx="3.036" ry="2.702" transform="matrix(0.993, -0.119, 0.119, 0.993, 0, 0.725)" fill="#f5bdc8"/>
        </g>
      </g>
      <g id="Group_22911" data-name="Group 22911" transform="translate(24.89 18.716)">
        <g id="Group_22908" data-name="Group 22908">
          <g id="Group_22907" data-name="Group 22907">
            <path id="Path_35672" data-name="Path 35672" d="M3205.1-679.706a1.755,1.755,0,0,1-1.045,2.093c-2.254.631-4.488,1.315-6.681,2.064s-4.352,1.56-6.428,2.468c-.262.11-.515.23-.773.345l-.384.174c-.124.057-.2.1-.308.152l-.291.149a2.646,2.646,0,0,0-.252.135l-.372.226a11.34,11.34,0,0,0-1.266.915,4.549,4.549,0,0,0-.88.955,1.368,1.368,0,0,0-.255,1.117,1.072,1.072,0,0,0,.405.544,2.352,2.352,0,0,0,.654.324,5.128,5.128,0,0,0,1.316.23,6.3,6.3,0,0,0,1.079-.036c.156-.02.3-.043.43-.072a1.147,1.147,0,0,1,.165-.013l.2-.008.1,0,.048,0c.017,0,.028,0,.069,0l.406.013c2.169.077,4.4.033,6.642-.07s4.5-.278,6.77-.5a4.646,4.646,0,0,1,3.8,1.7,7.486,7.486,0,0,1,1.793,4.633,7.079,7.079,0,0,1-1.462,4.761,4.84,4.84,0,0,1-3.958,1.894c-2.459-.159-4.927-.373-7.406-.663s-4.969-.652-7.491-1.16l-1.135-.228-.68-.138c-.23-.046-.437-.085-.709-.15l-1.529-.354c-.5-.132-.989-.274-1.478-.409a22.164,22.164,0,0,1-5.147-2.181,11.3,11.3,0,0,1-3.4-3.057,7.578,7.578,0,0,1-1.011-1.941,5.824,5.824,0,0,1-.291-2.331,6.2,6.2,0,0,1,.621-2.191,9.133,9.133,0,0,1,1.23-1.851l.373-.427.412-.411.208-.2.225-.2.454-.391q.481-.378.989-.741c.361-.231.7-.474,1.075-.689a30.107,30.107,0,0,1,4.828-2.257l1.266-.443c.221-.081.393-.134.572-.189l.536-.164c.174-.053.371-.113.525-.156l.45-.121c.3-.078.6-.164.9-.235,2.4-.61,4.793-1.086,7.185-1.484s4.777-.72,7.16-.983A1.735,1.735,0,0,1,3205.1-679.706Z" transform="translate(-3174.315 681.278)" fill="#ea8096"/>
          </g>
        </g>
        <g id="Group_22909" data-name="Group 22909" transform="translate(9.875 9.65)">
          <path id="Path_35673" data-name="Path 35673" d="M3181.406-657.281l16.682,1.746c5.2-.081,9.495-4,9.416-9.193h0a9.849,9.849,0,0,0-9.7-9.62l-12.269.19Z" transform="translate(-3181.406 674.349)" fill="#0181c0"/>
        </g>
        <g id="Group_22910" data-name="Group 22910" transform="translate(9.13 9.051)">
          <path id="Path_35674" data-name="Path 35674" d="M3189.207-674.044l8.8-.134a9.11,9.11,0,0,1,4.653,1.213l.481-.425a9.769,9.769,0,0,0-5.143-1.388l-8.748.134Zm-8.336,17.456,6.21.649c.033-.2.071-.393.107-.591l-5.571-.583,2.565-10.495-.626.031Zm14.364.9-.181.582,3.218.337h.035c.124,0,.248-.006.37-.011a10.127,10.127,0,0,0,8.768-5.712l-.529-.251a9.553,9.553,0,0,1-8.618,5.375Z" transform="translate(-3180.871 674.779)" fill="#155bcd"/>
        </g>
      </g>
    </g>
    <g id="Group_22913" data-name="Group 22913" transform="translate(3191.299 -711.673)">
      <path id="Path_35675" data-name="Path 35675" d="M3190.906-707.876l-5.338,1.963.919-6.989-5.015,10.476,6.388-2.137-1.192,9.07Z" transform="translate(-3181.472 712.902)" fill="#f39c13"/>
    </g>
    <g id="Group_22914" data-name="Group 22914" transform="translate(3206.56 -716.031)">
      <path id="Path_35676" data-name="Path 35676" d="M3206.818-707.476l-7.481-.81,5.2-7.745-12.1,9.472,8.83,1.221-6.745,10.052Z" transform="translate(-3192.431 716.031)" fill="#f39c13"/>
    </g>
    <g id="Group_22915" data-name="Group 22915" transform="translate(3215.687 -694.707)">
      <path id="Path_35677" data-name="Path 35677" d="M3211.2-694.922l-3.824-3.733,6.3-2.048-10.914-.016,4.4,4.554-8.175,2.658Z" transform="translate(-3198.985 700.719)" fill="#f39c13"/>
    </g>
  </g>
</svg>
