<svg xmlns="http://www.w3.org/2000/svg" width="346" height="259.5" viewBox="0 0 346 259.5">
  <g id="img" transform="translate(-350 -7509)">
    <rect id="Rectangle_13556" data-name="Rectangle 13556" width="346" height="259.5" transform="translate(350 7509)" fill="#f4f4f4"/>
    <g id="Group_22036" data-name="Group 22036" transform="translate(-1791.934 8391.957)">
      <g id="Group_21822" data-name="Group 21822" transform="translate(2196.934 -844.138)">
        <g id="Group_21815" data-name="Group 21815">
          <g id="Group_21749" data-name="Group 21749">
            <g id="Group_21748" data-name="Group 21748">
              <path id="Path_35269" data-name="Path 35269" d="M2432.69-834.76v119.429H2196.934V-834.76a9.178,9.178,0,0,1,9.177-9.177h217.4A9.178,9.178,0,0,1,2432.69-834.76Z" transform="translate(-2196.934 843.937)" fill="#2d3d45"/>
            </g>
          </g>
          <g id="Group_21751" data-name="Group 21751" transform="translate(15.123 15.123)">
            <g id="Group_21750" data-name="Group 21750">
              <rect id="Rectangle_13614" data-name="Rectangle 13614" width="205.508" height="113.484" fill="#fff"/>
            </g>
          </g>
          <g id="Group_21753" data-name="Group 21753" transform="translate(8.249 8.249)">
            <g id="Group_21752" data-name="Group 21752">
              <path id="Path_35270" data-name="Path 35270" d="M2205.617-835.254v112.109h219.256V-835.254Z" transform="translate(-2205.617 835.254)" fill="#fff"/>
            </g>
          </g>
          <g id="Group_21810" data-name="Group 21810" transform="translate(21.375 17.803)">
            <g id="Group_21781" data-name="Group 21781" transform="translate(0 15.431)">
              <g id="Group_21756" data-name="Group 21756" transform="translate(0 26.37)">
                <g id="Group_21755" data-name="Group 21755">
                  <g id="Group_21754" data-name="Group 21754">
                    <rect id="Rectangle_13615" data-name="Rectangle 13615" width="8.818" height="51.2" fill="#e5e6eb"/>
                  </g>
                </g>
              </g>
              <g id="Group_21759" data-name="Group 21759" transform="translate(12.279 13.315)">
                <g id="Group_21758" data-name="Group 21758">
                  <g id="Group_21757" data-name="Group 21757">
                    <rect id="Rectangle_13616" data-name="Rectangle 13616" width="8.818" height="64.255" fill="#e5e6eb"/>
                  </g>
                </g>
              </g>
              <g id="Group_21762" data-name="Group 21762" transform="translate(24.558 5.237)">
                <g id="Group_21761" data-name="Group 21761">
                  <g id="Group_21760" data-name="Group 21760">
                    <rect id="Rectangle_13617" data-name="Rectangle 13617" width="8.818" height="72.333" fill="#e5e6eb"/>
                  </g>
                </g>
              </g>
              <g id="Group_21765" data-name="Group 21765" transform="translate(36.837 23.147)">
                <g id="Group_21764" data-name="Group 21764">
                  <g id="Group_21763" data-name="Group 21763">
                    <rect id="Rectangle_13618" data-name="Rectangle 13618" width="8.818" height="54.423" fill="#e5e6eb"/>
                  </g>
                </g>
              </g>
              <g id="Group_21768" data-name="Group 21768" transform="translate(49.116 58.143)">
                <g id="Group_21767" data-name="Group 21767">
                  <g id="Group_21766" data-name="Group 21766">
                    <rect id="Rectangle_13619" data-name="Rectangle 13619" width="8.818" height="19.427" fill="#e5e6eb"/>
                  </g>
                </g>
              </g>
              <g id="Group_21771" data-name="Group 21771" transform="translate(61.395 10.542)">
                <g id="Group_21770" data-name="Group 21770">
                  <g id="Group_21769" data-name="Group 21769">
                    <rect id="Rectangle_13620" data-name="Rectangle 13620" width="8.818" height="67.028" fill="#e5e6eb"/>
                  </g>
                </g>
              </g>
              <g id="Group_21774" data-name="Group 21774" transform="translate(73.674)">
                <g id="Group_21773" data-name="Group 21773">
                  <g id="Group_21772" data-name="Group 21772">
                    <rect id="Rectangle_13621" data-name="Rectangle 13621" width="8.818" height="77.57" fill="#e5e6eb"/>
                  </g>
                </g>
              </g>
              <g id="Group_21777" data-name="Group 21777" transform="translate(85.953 49.05)">
                <g id="Group_21776" data-name="Group 21776">
                  <g id="Group_21775" data-name="Group 21775">
                    <rect id="Rectangle_13622" data-name="Rectangle 13622" width="8.818" height="28.52" fill="#e5e6eb"/>
                  </g>
                </g>
              </g>
              <g id="Group_21780" data-name="Group 21780" transform="translate(98.232 26.5)">
                <g id="Group_21779" data-name="Group 21779">
                  <g id="Group_21778" data-name="Group 21778">
                    <rect id="Rectangle_13623" data-name="Rectangle 13623" width="8.818" height="51.07" fill="#e5e6eb"/>
                  </g>
                </g>
              </g>
            </g>
            <g id="Group_21809" data-name="Group 21809" transform="translate(85.953)">
              <g id="Group_21784" data-name="Group 21784" transform="translate(0 49.601)">
                <g id="Group_21783" data-name="Group 21783">
                  <g id="Group_21782" data-name="Group 21782">
                    <rect id="Rectangle_13624" data-name="Rectangle 13624" width="8.818" height="43.401" fill="#e5e6eb"/>
                  </g>
                </g>
              </g>
              <g id="Group_21787" data-name="Group 21787" transform="translate(12.279)">
                <g id="Group_21786" data-name="Group 21786">
                  <g id="Group_21785" data-name="Group 21785">
                    <rect id="Rectangle_13625" data-name="Rectangle 13625" width="8.818" height="93.001" fill="#e5e6eb"/>
                  </g>
                </g>
              </g>
              <g id="Group_21790" data-name="Group 21790" transform="translate(24.558 25.973)">
                <g id="Group_21789" data-name="Group 21789">
                  <g id="Group_21788" data-name="Group 21788">
                    <rect id="Rectangle_13626" data-name="Rectangle 13626" width="8.818" height="67.028" fill="#e5e6eb"/>
                  </g>
                </g>
              </g>
              <g id="Group_21793" data-name="Group 21793" transform="translate(36.837 38.578)">
                <g id="Group_21792" data-name="Group 21792">
                  <g id="Group_21791" data-name="Group 21791">
                    <rect id="Rectangle_13627" data-name="Rectangle 13627" width="8.818" height="54.423" fill="#e5e6eb"/>
                  </g>
                </g>
              </g>
              <g id="Group_21796" data-name="Group 21796" transform="translate(49.116 54.062)">
                <g id="Group_21795" data-name="Group 21795">
                  <g id="Group_21794" data-name="Group 21794">
                    <rect id="Rectangle_13628" data-name="Rectangle 13628" width="8.818" height="38.939" fill="#e5e6eb"/>
                  </g>
                </g>
              </g>
              <g id="Group_21799" data-name="Group 21799" transform="translate(61.395 25.973)">
                <g id="Group_21798" data-name="Group 21798">
                  <g id="Group_21797" data-name="Group 21797">
                    <rect id="Rectangle_13629" data-name="Rectangle 13629" width="8.818" height="67.028" fill="#e5e6eb"/>
                  </g>
                </g>
              </g>
              <g id="Group_21802" data-name="Group 21802" transform="translate(73.674 7.494)">
                <g id="Group_21801" data-name="Group 21801">
                  <g id="Group_21800" data-name="Group 21800">
                    <rect id="Rectangle_13630" data-name="Rectangle 13630" width="8.818" height="85.507" fill="#e5e6eb"/>
                  </g>
                </g>
              </g>
              <g id="Group_21805" data-name="Group 21805" transform="translate(85.953 46.501)">
                <g id="Group_21804" data-name="Group 21804">
                  <g id="Group_21803" data-name="Group 21803">
                    <rect id="Rectangle_13631" data-name="Rectangle 13631" width="8.818" height="46.501" fill="#e5e6eb"/>
                  </g>
                </g>
              </g>
              <g id="Group_21808" data-name="Group 21808" transform="translate(98.233 69.751)">
                <g id="Group_21807" data-name="Group 21807">
                  <g id="Group_21806" data-name="Group 21806">
                    <rect id="Rectangle_13632" data-name="Rectangle 13632" width="8.818" height="23.25" fill="#e5e6eb"/>
                  </g>
                </g>
              </g>
            </g>
          </g>
          <g id="Group_21812" data-name="Group 21812" transform="translate(65.08 160.233)">
            <g id="Group_21811" data-name="Group 21811">
              <path id="Path_35271" data-name="Path 35271" d="M2371.034-649.323l-12.082-14.011h0v-11.937h-81.431v11.938l-12.081,14.01Z" transform="translate(-2265.439 675.271)" fill="#e5e6eb"/>
            </g>
          </g>
          <g id="Group_21814" data-name="Group 21814" transform="translate(65.08 160.233)" opacity="0.1">
            <g id="Group_21813" data-name="Group 21813">
              <path id="Path_35272" data-name="Path 35272" d="M2371.034-649.323l-12.082-14.011h0v-11.937h-81.431v11.938l-12.081,14.01Z" transform="translate(-2265.439 675.271)" fill="#050f64"/>
            </g>
          </g>
        </g>
        <g id="Group_21817" data-name="Group 21817" transform="translate(0 128.606)">
          <g id="Group_21816" data-name="Group 21816">
            <path id="Path_35273" data-name="Path 35273" d="M2432.69-708.562v22.449a9.177,9.177,0,0,1-9.178,9.177h-217.4a9.177,9.177,0,0,1-9.177-9.177v-22.449Z" transform="translate(-2196.934 708.562)" fill="#cdcfdc"/>
          </g>
        </g>
        <g id="Group_21819" data-name="Group 21819" transform="translate(0 120.358)">
          <g id="Group_21818" data-name="Group 21818">
            <rect id="Rectangle_13633" data-name="Rectangle 13633" width="8.249" height="235.755" transform="translate(235.755) rotate(90)" fill="#2d3d45"/>
          </g>
        </g>
        <g id="Group_21821" data-name="Group 21821" transform="translate(111.112 137.654)">
          <g id="Group_21820" data-name="Group 21820">
            <circle id="Ellipse_816" data-name="Ellipse 816" cx="6.766" cy="6.766" r="6.766" fill="#050f64"/>
          </g>
        </g>
      </g>
      <g id="Group_21925" data-name="Group 21925" transform="translate(2209.776 -776.131)">
        <g id="Group_21824" data-name="Group 21824" transform="translate(0 5.038)">
          <g id="Group_21823" data-name="Group 21823">
            <rect id="Rectangle_13634" data-name="Rectangle 13634" width="125.488" height="113.136" rx="5.838" fill="#265b7f"/>
          </g>
        </g>
        <g id="Group_21826" data-name="Group 21826" transform="translate(4.159 27.918)">
          <g id="Group_21825" data-name="Group 21825">
            <rect id="Rectangle_13635" data-name="Rectangle 13635" width="86.096" height="117.169" transform="translate(117.169) rotate(90)" fill="#fff"/>
          </g>
        </g>
        <g id="Group_21897" data-name="Group 21897" transform="translate(9.705 33.464)">
          <g id="Group_21828" data-name="Group 21828">
            <g id="Group_21827" data-name="Group 21827">
              <rect id="Rectangle_13636" data-name="Rectangle 13636" width="12.858" height="12.858" fill="#e5e6eb"/>
            </g>
          </g>
          <g id="Group_21830" data-name="Group 21830" transform="translate(15.537)">
            <g id="Group_21829" data-name="Group 21829">
              <rect id="Rectangle_13637" data-name="Rectangle 13637" width="12.858" height="12.858" fill="#e5e6eb"/>
            </g>
          </g>
          <g id="Group_21832" data-name="Group 21832" transform="translate(31.073)">
            <g id="Group_21831" data-name="Group 21831">
              <rect id="Rectangle_13638" data-name="Rectangle 13638" width="12.858" height="12.858" fill="#0181c0"/>
            </g>
          </g>
          <g id="Group_21834" data-name="Group 21834" transform="translate(46.61)">
            <g id="Group_21833" data-name="Group 21833">
              <rect id="Rectangle_13639" data-name="Rectangle 13639" width="12.858" height="12.858" fill="#0181c0"/>
            </g>
          </g>
          <g id="Group_21836" data-name="Group 21836" transform="translate(62.146)">
            <g id="Group_21835" data-name="Group 21835">
              <rect id="Rectangle_13640" data-name="Rectangle 13640" width="12.858" height="12.858" fill="#0181c0"/>
            </g>
          </g>
          <g id="Group_21838" data-name="Group 21838" transform="translate(77.683)">
            <g id="Group_21837" data-name="Group 21837">
              <rect id="Rectangle_13641" data-name="Rectangle 13641" width="12.858" height="12.858" fill="#0181c0"/>
            </g>
          </g>
          <g id="Group_21840" data-name="Group 21840" transform="translate(93.219)">
            <g id="Group_21839" data-name="Group 21839">
              <rect id="Rectangle_13642" data-name="Rectangle 13642" width="12.858" height="12.858" fill="#0181c0"/>
            </g>
          </g>
          <g id="Group_21842" data-name="Group 21842" transform="translate(0 15.537)">
            <g id="Group_21841" data-name="Group 21841">
              <rect id="Rectangle_13643" data-name="Rectangle 13643" width="12.858" height="12.858" fill="#0181c0"/>
            </g>
          </g>
          <g id="Group_21844" data-name="Group 21844" transform="translate(15.537 15.537)">
            <g id="Group_21843" data-name="Group 21843">
              <rect id="Rectangle_13644" data-name="Rectangle 13644" width="12.858" height="12.858" fill="#0181c0"/>
            </g>
          </g>
          <g id="Group_21846" data-name="Group 21846" transform="translate(31.073 15.537)">
            <g id="Group_21845" data-name="Group 21845">
              <rect id="Rectangle_13645" data-name="Rectangle 13645" width="12.858" height="12.858" fill="#0181c0"/>
            </g>
          </g>
          <g id="Group_21848" data-name="Group 21848" transform="translate(46.61 15.537)">
            <g id="Group_21847" data-name="Group 21847">
              <rect id="Rectangle_13646" data-name="Rectangle 13646" width="12.858" height="12.858" fill="#0181c0"/>
            </g>
          </g>
          <g id="Group_21850" data-name="Group 21850" transform="translate(62.146 15.537)">
            <g id="Group_21849" data-name="Group 21849">
              <rect id="Rectangle_13647" data-name="Rectangle 13647" width="12.858" height="12.858" fill="#0181c0"/>
            </g>
          </g>
          <g id="Group_21852" data-name="Group 21852" transform="translate(77.683 15.537)">
            <g id="Group_21851" data-name="Group 21851">
              <rect id="Rectangle_13648" data-name="Rectangle 13648" width="12.858" height="12.858" fill="#0181c0"/>
            </g>
          </g>
          <g id="Group_21854" data-name="Group 21854" transform="translate(93.219 15.537)">
            <g id="Group_21853" data-name="Group 21853">
              <rect id="Rectangle_13649" data-name="Rectangle 13649" width="12.858" height="12.858" fill="#0181c0"/>
            </g>
          </g>
          <g id="Group_21856" data-name="Group 21856" transform="translate(0 31.073)">
            <g id="Group_21855" data-name="Group 21855">
              <rect id="Rectangle_13650" data-name="Rectangle 13650" width="12.858" height="12.858" fill="#0181c0"/>
            </g>
          </g>
          <g id="Group_21858" data-name="Group 21858" transform="translate(15.537 31.073)">
            <g id="Group_21857" data-name="Group 21857">
              <rect id="Rectangle_13651" data-name="Rectangle 13651" width="12.858" height="12.858" fill="#0181c0"/>
            </g>
          </g>
          <g id="Group_21860" data-name="Group 21860" transform="translate(31.073 31.073)">
            <g id="Group_21859" data-name="Group 21859">
              <rect id="Rectangle_13652" data-name="Rectangle 13652" width="12.858" height="12.858" fill="#6ab82d"/>
            </g>
          </g>
          <g id="Group_21862" data-name="Group 21862" transform="translate(46.61 31.073)">
            <g id="Group_21861" data-name="Group 21861">
              <rect id="Rectangle_13653" data-name="Rectangle 13653" width="12.858" height="12.858" fill="#0181c0"/>
            </g>
          </g>
          <g id="Group_21864" data-name="Group 21864" transform="translate(62.146 31.073)">
            <g id="Group_21863" data-name="Group 21863">
              <rect id="Rectangle_13654" data-name="Rectangle 13654" width="12.858" height="12.858" fill="#0181c0"/>
            </g>
          </g>
          <g id="Group_21866" data-name="Group 21866" transform="translate(77.683 31.073)">
            <g id="Group_21865" data-name="Group 21865">
              <rect id="Rectangle_13655" data-name="Rectangle 13655" width="12.858" height="12.858" fill="#0181c0"/>
            </g>
          </g>
          <g id="Group_21868" data-name="Group 21868" transform="translate(93.219 31.073)">
            <g id="Group_21867" data-name="Group 21867">
              <rect id="Rectangle_13656" data-name="Rectangle 13656" width="12.858" height="12.858" fill="#0181c0"/>
            </g>
          </g>
          <g id="Group_21870" data-name="Group 21870" transform="translate(0 46.61)">
            <g id="Group_21869" data-name="Group 21869">
              <rect id="Rectangle_13657" data-name="Rectangle 13657" width="12.858" height="12.858" fill="#0181c0"/>
            </g>
          </g>
          <g id="Group_21872" data-name="Group 21872" transform="translate(15.537 46.61)">
            <g id="Group_21871" data-name="Group 21871">
              <rect id="Rectangle_13658" data-name="Rectangle 13658" width="12.858" height="12.858" fill="#0181c0"/>
            </g>
          </g>
          <g id="Group_21874" data-name="Group 21874" transform="translate(31.073 46.61)">
            <g id="Group_21873" data-name="Group 21873">
              <rect id="Rectangle_13659" data-name="Rectangle 13659" width="12.858" height="12.858" fill="#0181c0"/>
            </g>
          </g>
          <g id="Group_21876" data-name="Group 21876" transform="translate(46.61 46.61)">
            <g id="Group_21875" data-name="Group 21875">
              <rect id="Rectangle_13660" data-name="Rectangle 13660" width="12.858" height="12.858" fill="#0181c0"/>
            </g>
          </g>
          <g id="Group_21878" data-name="Group 21878" transform="translate(62.146 46.61)">
            <g id="Group_21877" data-name="Group 21877">
              <rect id="Rectangle_13661" data-name="Rectangle 13661" width="12.858" height="12.858" fill="#0181c0"/>
            </g>
          </g>
          <g id="Group_21880" data-name="Group 21880" transform="translate(77.683 46.61)">
            <g id="Group_21879" data-name="Group 21879">
              <rect id="Rectangle_13662" data-name="Rectangle 13662" width="12.858" height="12.858" fill="#0181c0"/>
            </g>
          </g>
          <g id="Group_21882" data-name="Group 21882" transform="translate(93.219 46.61)">
            <g id="Group_21881" data-name="Group 21881">
              <rect id="Rectangle_13663" data-name="Rectangle 13663" width="12.858" height="12.858" fill="#0181c0"/>
            </g>
          </g>
          <g id="Group_21884" data-name="Group 21884" transform="translate(0 62.146)">
            <g id="Group_21883" data-name="Group 21883">
              <rect id="Rectangle_13664" data-name="Rectangle 13664" width="12.858" height="12.858" fill="#0181c0"/>
            </g>
          </g>
          <g id="Group_21886" data-name="Group 21886" transform="translate(15.537 62.146)">
            <g id="Group_21885" data-name="Group 21885">
              <rect id="Rectangle_13665" data-name="Rectangle 13665" width="12.858" height="12.858" fill="#0181c0"/>
            </g>
          </g>
          <g id="Group_21888" data-name="Group 21888" transform="translate(31.073 62.146)">
            <g id="Group_21887" data-name="Group 21887">
              <rect id="Rectangle_13666" data-name="Rectangle 13666" width="12.858" height="12.858" fill="#0181c0"/>
            </g>
          </g>
          <g id="Group_21890" data-name="Group 21890" transform="translate(46.61 62.146)">
            <g id="Group_21889" data-name="Group 21889">
              <rect id="Rectangle_13667" data-name="Rectangle 13667" width="12.858" height="12.858" fill="#0181c0"/>
            </g>
          </g>
          <g id="Group_21892" data-name="Group 21892" transform="translate(62.146 62.146)">
            <g id="Group_21891" data-name="Group 21891">
              <rect id="Rectangle_13668" data-name="Rectangle 13668" width="12.858" height="12.858" fill="#0181c0"/>
            </g>
          </g>
          <g id="Group_21894" data-name="Group 21894" transform="translate(77.683 62.146)">
            <g id="Group_21893" data-name="Group 21893">
              <rect id="Rectangle_13669" data-name="Rectangle 13669" width="12.858" height="12.858" fill="#e5e6eb"/>
            </g>
          </g>
          <g id="Group_21896" data-name="Group 21896" transform="translate(93.219 62.146)">
            <g id="Group_21895" data-name="Group 21895">
              <rect id="Rectangle_13670" data-name="Rectangle 13670" width="12.858" height="12.858" fill="#e5e6eb"/>
            </g>
          </g>
        </g>
        <g id="Group_21924" data-name="Group 21924" transform="translate(14.356)">
          <g id="Group_21899" data-name="Group 21899" transform="translate(0 8.365)">
            <g id="Group_21898" data-name="Group 21898">
              <circle id="Ellipse_817" data-name="Ellipse 817" cx="3.79" cy="3.79" r="3.79" fill="#214157"/>
            </g>
          </g>
          <g id="Group_21901" data-name="Group 21901" transform="translate(17.839 8.365)">
            <g id="Group_21900" data-name="Group 21900">
              <circle id="Ellipse_818" data-name="Ellipse 818" cx="3.79" cy="3.79" r="3.79" fill="#214157"/>
            </g>
          </g>
          <g id="Group_21903" data-name="Group 21903" transform="translate(35.678 8.365)">
            <g id="Group_21902" data-name="Group 21902">
              <circle id="Ellipse_819" data-name="Ellipse 819" cx="3.79" cy="3.79" r="3.79" fill="#214157"/>
            </g>
          </g>
          <g id="Group_21905" data-name="Group 21905" transform="translate(53.517 8.365)">
            <g id="Group_21904" data-name="Group 21904">
              <circle id="Ellipse_820" data-name="Ellipse 820" cx="3.79" cy="3.79" r="3.79" fill="#214157"/>
            </g>
          </g>
          <g id="Group_21907" data-name="Group 21907" transform="translate(71.356 8.365)">
            <g id="Group_21906" data-name="Group 21906">
              <circle id="Ellipse_821" data-name="Ellipse 821" cx="3.79" cy="3.79" r="3.79" fill="#214157"/>
            </g>
          </g>
          <g id="Group_21923" data-name="Group 21923" transform="translate(0.902)">
            <g id="Group_21909" data-name="Group 21909" transform="translate(88.294 8.365)">
              <g id="Group_21908" data-name="Group 21908">
                <circle id="Ellipse_822" data-name="Ellipse 822" cx="3.79" cy="3.79" r="3.79" fill="#214157"/>
              </g>
            </g>
            <g id="Group_21922" data-name="Group 21922">
              <g id="Group_21911" data-name="Group 21911">
                <g id="Group_21910" data-name="Group 21910">
                  <path id="Path_35274" data-name="Path 35274" d="M2229.4-772.351a2.888,2.888,0,0,0-2.888,2.888v8.089a2.888,2.888,0,0,0,2.888,2.888,2.888,2.888,0,0,0,2.888-2.888v-8.089A2.888,2.888,0,0,0,2229.4-772.351Z" transform="translate(-2226.513 772.351)" fill="#4686b2"/>
                </g>
              </g>
              <g id="Group_21913" data-name="Group 21913" transform="translate(17.839)">
                <g id="Group_21912" data-name="Group 21912">
                  <path id="Path_35275" data-name="Path 35275" d="M2248.179-772.351a2.888,2.888,0,0,0-2.888,2.888v8.089a2.888,2.888,0,0,0,2.888,2.888,2.888,2.888,0,0,0,2.888-2.888v-8.089A2.888,2.888,0,0,0,2248.179-772.351Z" transform="translate(-2245.291 772.351)" fill="#4686b2"/>
                </g>
              </g>
              <g id="Group_21915" data-name="Group 21915" transform="translate(35.678)">
                <g id="Group_21914" data-name="Group 21914">
                  <path id="Path_35276" data-name="Path 35276" d="M2266.957-772.351a2.888,2.888,0,0,0-2.888,2.888v8.089a2.888,2.888,0,0,0,2.888,2.888,2.888,2.888,0,0,0,2.888-2.888v-8.089A2.888,2.888,0,0,0,2266.957-772.351Z" transform="translate(-2264.069 772.351)" fill="#4686b2"/>
                </g>
              </g>
              <g id="Group_21917" data-name="Group 21917" transform="translate(53.517)">
                <g id="Group_21916" data-name="Group 21916">
                  <path id="Path_35277" data-name="Path 35277" d="M2285.735-772.351a2.888,2.888,0,0,0-2.888,2.888v8.089a2.888,2.888,0,0,0,2.888,2.888,2.888,2.888,0,0,0,2.888-2.888v-8.089A2.888,2.888,0,0,0,2285.735-772.351Z" transform="translate(-2282.847 772.351)" fill="#4686b2"/>
                </g>
              </g>
              <g id="Group_21919" data-name="Group 21919" transform="translate(71.356)">
                <g id="Group_21918" data-name="Group 21918">
                  <path id="Path_35278" data-name="Path 35278" d="M2304.513-772.351a2.888,2.888,0,0,0-2.888,2.888v8.089a2.888,2.888,0,0,0,2.888,2.888,2.888,2.888,0,0,0,2.888-2.888v-8.089A2.888,2.888,0,0,0,2304.513-772.351Z" transform="translate(-2301.625 772.351)" fill="#4686b2"/>
                </g>
              </g>
              <g id="Group_21921" data-name="Group 21921" transform="translate(89.196)">
                <g id="Group_21920" data-name="Group 21920">
                  <path id="Path_35279" data-name="Path 35279" d="M2323.291-772.351a2.888,2.888,0,0,0-2.888,2.888v8.089a2.888,2.888,0,0,0,2.888,2.888,2.888,2.888,0,0,0,2.888-2.888v-8.089A2.888,2.888,0,0,0,2323.291-772.351Z" transform="translate(-2320.403 772.351)" fill="#4686b2"/>
                </g>
              </g>
            </g>
          </g>
        </g>
      </g>
      <g id="Group_21975" data-name="Group 21975" transform="translate(2340.754 -815.065)">
        <g id="Group_21932" data-name="Group 21932" transform="translate(9.285 22.995)">
          <g id="Group_21927" data-name="Group 21927" transform="translate(0 0.777)">
            <g id="Group_21926" data-name="Group 21926">
              <path id="Path_35280" data-name="Path 35280" d="M2359.229-751.988c2.264-.56,4.518-1.135,6.741-1.758s4.417-1.282,6.53-2.044a38.292,38.292,0,0,0,5.958-2.677,23.3,23.3,0,0,0,4.885-3.666,27.9,27.9,0,0,0,3.772-4.825,55.442,55.442,0,0,0,3.086-5.7c.235-.5.478-.994.7-1.51l.686-1.533c.444-1.041.893-2.071,1.322-3.131.869-2.1,1.705-4.247,2.535-6.4a5.464,5.464,0,0,1,7.45-2.508h0a5.428,5.428,0,0,1,2.86,7.362c-1.164,2.067-2.337,4.135-3.568,6.2-.605,1.034-1.247,2.068-1.877,3.1l-.981,1.546c-.323.515-.677,1.028-1.014,1.541a63.808,63.808,0,0,1-4.531,6.045,35.561,35.561,0,0,1-5.729,5.422,30.194,30.194,0,0,1-6.932,3.778,44.165,44.165,0,0,1-7.2,2.058c-2.388.487-4.754.836-7.107,1.139s-4.7.55-7.034.779a1.576,1.576,0,0,1-1.661-1.373h0A1.585,1.585,0,0,1,2359.229-751.988Z" transform="translate(-2358.097 788.311)" fill="#ea8096"/>
            </g>
          </g>
          <g id="Group_21929" data-name="Group 21929" transform="translate(28.458 0.437)">
            <g id="Group_21928" data-name="Group 21928">
              <path id="Path_35281" data-name="Path 35281" d="M2401.6-765.408l6.12-12.367a7.419,7.419,0,0,0-3.11-10.1h0a7.912,7.912,0,0,0-10.437,3.4l-6.12,12.367Z" transform="translate(-2388.054 788.669)" fill="#0181c0"/>
            </g>
          </g>
          <g id="Group_21931" data-name="Group 21931" transform="translate(27.877)">
            <g id="Group_21930" data-name="Group 21930">
              <path id="Path_35282" data-name="Path 35282" d="M2393.57-784.319l.413.141.161-.324a7.912,7.912,0,0,1,10.438-3.4,6.988,6.988,0,0,1,3.341,3.494l.543.184a7.422,7.422,0,0,0-3.693-4.069,7.915,7.915,0,0,0-.964-.4,8.339,8.339,0,0,0-10.055,4Zm-6.128,12.381,5.905,2.922.141-.415-5.466-2.7,3.442-6.955-.412-.141Zm14.128,6.507-2-.992-.141.413,2.341,1.159,5.565-11.245-.413-.141Z" transform="translate(-2387.442 789.129)" fill="#265b7f"/>
            </g>
          </g>
        </g>
        <g id="Group_21934" data-name="Group 21934" transform="translate(26.213 152.587)">
          <g id="Group_21933" data-name="Group 21933">
            <path id="Path_35283" data-name="Path 35283" d="M2390.812-648.2h-14.9a2.283,2.283,0,0,1,.419-1.4,2.355,2.355,0,0,1,1.492-.8,14.405,14.405,0,0,1,1.729-.1,9.149,9.149,0,0,0,4.041-1.171,13.653,13.653,0,0,1,1.942-1.058l4.06.106a4.646,4.646,0,0,1,1.085,2.189A8.194,8.194,0,0,1,2390.812-648.2Z" transform="translate(-2375.916 652.716)" fill="#2d3d45"/>
          </g>
        </g>
        <g id="Group_21936" data-name="Group 21936" transform="translate(55.219 152.587)">
          <g id="Group_21935" data-name="Group 21935">
            <path id="Path_35284" data-name="Path 35284" d="M2421.346-648.2h-14.9a2.294,2.294,0,0,1,.419-1.4,2.355,2.355,0,0,1,1.492-.8,14.4,14.4,0,0,1,1.729-.1,9.153,9.153,0,0,0,4.042-1.171,13.576,13.576,0,0,1,1.941-1.058l4.06.106a4.651,4.651,0,0,1,1.084,2.189A8.194,8.194,0,0,1,2421.346-648.2Z" transform="translate(-2406.449 652.716)" fill="#2d3d45"/>
          </g>
        </g>
        <g id="Group_21938" data-name="Group 21938" transform="translate(35.044 72.583)">
          <g id="Group_21937" data-name="Group 21937">
            <path id="Path_35285" data-name="Path 35285" d="M2385.212-656.892l1.619-45.907s.055-.824.076-.948l3.968-31.863c.271-4,32.04,2.344,32.04,2.344l-3.56,76.506-5.253-.167-7.641-61.3-8.671,16.451-7.2,45.019Z" transform="translate(-2385.212 736.931)" fill="#265b7f"/>
          </g>
        </g>
        <g id="Group_21940" data-name="Group 21940" transform="translate(40.707 21.888)">
          <g id="Group_21939" data-name="Group 21939">
            <path id="Path_35286" data-name="Path 35286" d="M2410.011-790.133h0A13.947,13.947,0,0,0,2394-777.271l-2.823,38.994c12.574,7.1,20.381,5.387,32.04,2.344l1.318-36.675A17.1,17.1,0,0,0,2410.011-790.133Z" transform="translate(-2391.173 790.294)" fill="#0181c0"/>
          </g>
        </g>
        <g id="Group_21942" data-name="Group 21942" transform="translate(40.254 21.455)">
          <g id="Group_21941" data-name="Group 21941">
            <path id="Path_35287" data-name="Path 35287" d="M2423.733-751.133h.436l.639-17.813h-.434ZM2390.7-738.056l.241.134c6.167,3.483,11.425,5.034,17.047,5.034,4.266,0,8.355-.868,13.385-2.151l.015-.451c-10.687,2.732-18.321,3.914-30.234-2.809l.9-12.465-.434-.032Zm19.292-52.1c.085.013.169.027.252.042l-.032-.447-.154-.024a14.485,14.485,0,0,0-2.187-.165,14.407,14.407,0,0,0-14.327,13.426l-.865,11.967h.434l.864-11.939a13.951,13.951,0,0,1,13.895-13.021A14.138,14.138,0,0,1,2409.988-790.155Z" transform="translate(-2390.696 790.75)" fill="#265b7f"/>
          </g>
        </g>
        <g id="Group_21954" data-name="Group 21954" transform="translate(46.919)">
          <g id="Group_21949" data-name="Group 21949" transform="translate(3.485 5.885)">
            <g id="Group_21944" data-name="Group 21944" transform="translate(3.754 11.28)">
              <g id="Group_21943" data-name="Group 21943">
                <path id="Path_35288" data-name="Path 35288" d="M2405.332-794.452l1.25,9.846a5.5,5.5,0,0,0,6.415-.815l-1.25-9.845Z" transform="translate(-2405.332 795.266)" fill="#f5bdc8"/>
              </g>
            </g>
            <g id="Group_21946" data-name="Group 21946" transform="translate(3.754 11.28)">
              <g id="Group_21945" data-name="Group 21945">
                <path id="Path_35289" data-name="Path 35289" d="M2405.332-794.452,2405.9-790a5.218,5.218,0,0,0,1.478.147q.245-.011.488-.043a5.815,5.815,0,0,0,4.22-2.73l-.335-2.642Z" transform="translate(-2405.332 795.266)" fill="#ea8096"/>
              </g>
            </g>
            <g id="Group_21948" data-name="Group 21948">
              <g id="Group_21947" data-name="Group 21947">
                <path id="Path_35290" data-name="Path 35290" d="M2401.454-800.7l.679,4.095.274,1.657a4.6,4.6,0,0,0,4.741,3.85,5.152,5.152,0,0,0,2.162-.577,5.01,5.01,0,0,0,.443-.258c.089-.057.176-.117.26-.18a5.062,5.062,0,0,0,1.784-2.453c.284-.846.535-1.77.764-2.741.132-.555.256-1.126.375-1.7a7.006,7.006,0,0,0-2.376-6.87,5.372,5.372,0,0,0-5.946-.67A5.414,5.414,0,0,0,2401.454-800.7Z" transform="translate(-2401.381 807.14)" fill="#f5bdc8"/>
              </g>
            </g>
          </g>
          <g id="Group_21951" data-name="Group 21951">
            <g id="Group_21950" data-name="Group 21950">
              <path id="Path_35291" data-name="Path 35291" d="M2399.981-799.758a2.257,2.257,0,0,1-.57-1.8,4.188,4.188,0,0,0-.206-1.935c-.367-.747-1.226-1.1-1.445-1.914a2.262,2.262,0,0,1,.8-2.031l3.862-4.2a6.111,6.111,0,0,1,1.738-1.477,1.986,1.986,0,0,1,2.143.194c.334.275.593.676.937.932a2.825,2.825,0,0,0,2.563.021,4.4,4.4,0,0,1,3.207.074,3.188,3.188,0,0,1,1.707,3.112,6.6,6.6,0,0,1-.628,1.614,2.389,2.389,0,0,0-.17,1.755c.291.781,1.081,1.068,1.7,1.512a4.288,4.288,0,0,1,1.628,2.918,3.851,3.851,0,0,1-.937,3.078,1.507,1.507,0,0,1-2.283.072c-.691-.878-.449-2.56-1.345-3.087-1.076-.634-2.14,1.412-3.207.751-.571-.353-.724-1.28-1.229-1.765-.666-.641-1.542-.275-2.208-.02a12.1,12.1,0,0,1-2.164.566,3.649,3.649,0,0,0-1.763.914C2401.535-799.985,2400.767-799.181,2399.981-799.758Z" transform="translate(-2397.712 813.334)" fill="#050f64"/>
            </g>
          </g>
          <g id="Group_21953" data-name="Group 21953" transform="translate(11.597 11.564)">
            <g id="Group_21952" data-name="Group 21952">
              <ellipse id="Ellipse_823" data-name="Ellipse 823" cx="2.423" cy="2.156" rx="2.423" ry="2.156" transform="translate(0 0.611) rotate(-7.239)" fill="#f5bdc8"/>
            </g>
          </g>
        </g>
        <g id="Group_21974" data-name="Group 21974" transform="translate(0 29.466)">
          <g id="Group_21961" data-name="Group 21961" transform="translate(12.539)">
            <g id="Group_21956" data-name="Group 21956" transform="translate(0 1.065)">
              <g id="Group_21955" data-name="Group 21955">
                <path id="Path_35292" data-name="Path 35292" d="M2363.12-747.388c1.053,0,2.121-.036,3.154-.068l.756-.023c.42-.013.839-.036,1.258-.059.23-.012.459-.025.688-.035l.97-.05.967-.074c.229-.019.458-.035.687-.052.409-.029.83-.059,1.243-.105l1.916-.2,1.9-.258c.4-.053.809-.125,1.2-.195.224-.04.449-.08.673-.116a41.442,41.442,0,0,0,7.183-1.925,28.042,28.042,0,0,0,6.32-3.3c3.448-2.435,6.468-5.824,9.5-10.667,1.187-1.891,2.4-4.037,3.722-6.565,1.045-2.023,2.126-4.226,3.4-6.929a5.71,5.71,0,0,1,3.3-2.933,4.781,4.781,0,0,1,3.739.27,4.686,4.686,0,0,1,2.333,2.919,5.743,5.743,0,0,1-.63,4.474c-1.641,2.666-3.022,4.836-4.349,6.831-1.75,2.608-3.29,4.736-4.845,6.695a54.683,54.683,0,0,1-5.745,6.269,36.33,36.33,0,0,1-7.043,5.136,33.9,33.9,0,0,1-8.056,3.137,46.623,46.623,0,0,1-8.261,1.27c-.237.012-.473.029-.709.044-.439.028-.893.057-1.338.067l-2.039.05L2373-743.79h-.03c-.429,0-.862-.016-1.281-.032-.236-.01-.472-.018-.709-.024l-1.008-.035-1-.058-.7-.042c-.433-.024-.867-.049-1.3-.082l-.738-.059c-1.064-.085-2.165-.172-3.242-.287a1.549,1.549,0,0,1-1.466-1.558A1.57,1.57,0,0,1,2363.12-747.388Z" transform="translate(-2361.522 781.196)" fill="#f4bcc7"/>
              </g>
            </g>
            <g id="Group_21958" data-name="Group 21958" transform="translate(37.337 0.417)">
              <g id="Group_21957" data-name="Group 21957">
                <path id="Path_35293" data-name="Path 35293" d="M2413.32-759.476l6.793-11.409a7.139,7.139,0,0,0-2.23-9.924l-.3-.045a7.271,7.271,0,0,0-9.968,2.528l-6.794,11.408Z" transform="translate(-2400.824 781.878)" fill="#0181c0"/>
              </g>
            </g>
            <g id="Group_21960" data-name="Group 21960" transform="translate(36.764)">
              <g id="Group_21959" data-name="Group 21959">
                <path id="Path_35294" data-name="Path 35294" d="M2405.436-775.551l.37.2,1.782-2.993a7.27,7.27,0,0,1,8.01-3.334l.177-.387a7.614,7.614,0,0,0-1.934-.249,7.73,7.73,0,0,0-6.614,3.756Zm-5.215,8.756,7.962,4.742.2-.365-7.593-4.52,1.422-2.388-.37-.2Zm19.863-4.111-5.387,9.047.4.144,5.348-8.978a8.01,8.01,0,0,0,1-5.786,7.14,7.14,0,0,0-2.7-4.257l-.205.368A7.186,7.186,0,0,1,2420.083-770.906Z" transform="translate(-2400.221 782.317)" fill="#265b7f"/>
              </g>
            </g>
          </g>
          <g id="Group_21971" data-name="Group 21971" transform="translate(0 12.794)">
            <g id="Group_21964" data-name="Group 21964" transform="translate(10.693 16.166)">
              <g id="Group_21963" data-name="Group 21963">
                <g id="Group_21962" data-name="Group 21962">
                  <rect id="Rectangle_13671" data-name="Rectangle 13671" width="39.435" height="1.324" transform="translate(0 6.345) rotate(-9.258)" fill="#050f64"/>
                </g>
              </g>
            </g>
            <g id="Group_21967" data-name="Group 21967">
              <g id="Group_21966" data-name="Group 21966">
                <g id="Group_21965" data-name="Group 21965">
                  <path id="Path_35295" data-name="Path 35295" d="M2359.016-746.338l24.174-3.941-10.692-18.57-24.175,3.941Z" transform="translate(-2348.323 768.849)" fill="#265b7f"/>
                </g>
              </g>
            </g>
            <g id="Group_21970" data-name="Group 21970" transform="translate(14.865 8.569)">
              <g id="Group_21969" data-name="Group 21969">
                <g id="Group_21968" data-name="Group 21968">
                  <ellipse id="Ellipse_824" data-name="Ellipse 824" cx="1.419" cy="3.83" rx="1.419" ry="3.83" transform="translate(0 1.103) rotate(-22.879)" fill="#fff"/>
                </g>
              </g>
            </g>
          </g>
          <g id="Group_21973" data-name="Group 21973" transform="translate(28.781 22.596)">
            <g id="Group_21972" data-name="Group 21972">
              <path id="Path_35296" data-name="Path 35296" d="M2404.69-753.66c-.452.455-.908.891-1.363,1.312a36.251,36.251,0,0,1-7.043,5.136,33.842,33.842,0,0,1-8.056,3.136,46.2,46.2,0,0,1-8.063,1.256l-1.545-4.538c.034,0,.066-.012.1-.017.225-.039.45-.079.673-.115a41.631,41.631,0,0,0,7.183-1.927,27.92,27.92,0,0,0,6.319-3.3,30.032,30.032,0,0,0,6.081-5.819c.281.394.573.778.868,1.163a13.808,13.808,0,0,0,1.359,1.584,7.136,7.136,0,0,0,1.361,1.214l.942.539A5.066,5.066,0,0,0,2404.69-753.66Z" transform="translate(-2378.619 758.532)" fill="#f4bcc7"/>
            </g>
          </g>
        </g>
      </g>
      <g id="Group_21998" data-name="Group 21998" transform="translate(2302.912 -708.479)">
        <g id="Group_21978" data-name="Group 21978" transform="translate(0 12.269)">
          <g id="Group_21977" data-name="Group 21977">
            <g id="Group_21976" data-name="Group 21976">
              <rect id="Rectangle_13672" data-name="Rectangle 13672" width="53.64" height="38.253" fill="#265b7f"/>
            </g>
          </g>
        </g>
        <g id="Group_21981" data-name="Group 21981" transform="translate(0 12.269)">
          <g id="Group_21980" data-name="Group 21980">
            <g id="Group_21979" data-name="Group 21979">
              <path id="Path_35297" data-name="Path 35297" d="M2357.241-667.03h-43.861l-4.889-21.194h53.64Z" transform="translate(-2308.49 688.224)" fill="#214157"/>
            </g>
          </g>
        </g>
        <g id="Group_21984" data-name="Group 21984" transform="translate(0 12.269)">
          <g id="Group_21983" data-name="Group 21983">
            <g id="Group_21982" data-name="Group 21982">
              <path id="Path_35298" data-name="Path 35298" d="M2355.011-669.151h-39.4l-7.119-19.072h53.64Z" transform="translate(-2308.49 688.224)" fill="#265b7f"/>
            </g>
          </g>
        </g>
        <g id="Group_21993" data-name="Group 21993" transform="translate(12.907 28.932)">
          <g id="Group_21988" data-name="Group 21988">
            <g id="Group_21987" data-name="Group 21987">
              <g id="Group_21986" data-name="Group 21986">
                <g id="Group_21985" data-name="Group 21985">
                  <rect id="Rectangle_13673" data-name="Rectangle 13673" width="3.236" height="7.226" fill="#4686b2"/>
                </g>
              </g>
            </g>
          </g>
          <g id="Group_21992" data-name="Group 21992" transform="translate(24.591)">
            <g id="Group_21991" data-name="Group 21991">
              <g id="Group_21990" data-name="Group 21990">
                <g id="Group_21989" data-name="Group 21989">
                  <rect id="Rectangle_13674" data-name="Rectangle 13674" width="3.236" height="7.226" fill="#4686b2"/>
                </g>
              </g>
            </g>
          </g>
        </g>
        <g id="Group_21997" data-name="Group 21997" transform="translate(14.066)">
          <g id="Group_21996" data-name="Group 21996">
            <g id="Group_21995" data-name="Group 21995">
              <g id="Group_21994" data-name="Group 21994">
                <path id="Path_35299" data-name="Path 35299" d="M2348.8-688.384h-2.786a9.979,9.979,0,0,0-9.968-9.967,9.979,9.979,0,0,0-9.968,9.967H2323.3a12.769,12.769,0,0,1,12.755-12.754A12.769,12.769,0,0,1,2348.8-688.384Z" transform="translate(-2323.296 701.138)" fill="#214157"/>
              </g>
            </g>
          </g>
        </g>
      </g>
      <g id="Group_22027" data-name="Group 22027" transform="translate(2265.687 -847.958)">
        <g id="Group_22001" data-name="Group 22001">
          <g id="Group_22000" data-name="Group 22000">
            <g id="Group_21999" data-name="Group 21999">
              <circle id="Ellipse_825" data-name="Ellipse 825" cx="30.706" cy="30.706" r="30.706" fill="#6ab82d"/>
            </g>
          </g>
        </g>
        <g id="Group_22004" data-name="Group 22004" transform="translate(5.633 5.632)">
          <g id="Group_22003" data-name="Group 22003">
            <g id="Group_22002" data-name="Group 22002">
              <circle id="Ellipse_826" data-name="Ellipse 826" cx="25.073" cy="25.073" r="25.073" fill="#fff"/>
            </g>
          </g>
        </g>
        <g id="Group_22007" data-name="Group 22007" transform="translate(30.221 7.025)">
          <g id="Group_22006" data-name="Group 22006">
            <g id="Group_22005" data-name="Group 22005">
              <rect id="Rectangle_13675" data-name="Rectangle 13675" width="0.969" height="3.997" fill="#050f64"/>
            </g>
          </g>
        </g>
        <g id="Group_22010" data-name="Group 22010" transform="translate(30.033 10.081)">
          <g id="Group_22009" data-name="Group 22009">
            <g id="Group_22008" data-name="Group 22008">
              <path id="Path_35300" data-name="Path 35300" d="M2309.811-835.768l-5.9,16.122-.786,2.15a1.719,1.719,0,0,0-1.531-.941,1.728,1.728,0,0,0-.673.137l.788-2.152,5.9-16.123a1.176,1.176,0,0,1,1.507-.7A1.173,1.173,0,0,1,2309.811-835.768Z" transform="translate(-2300.919 837.346)" fill="#265b7f"/>
            </g>
          </g>
        </g>
        <g id="Group_22013" data-name="Group 22013" transform="translate(31.078 30.442)">
          <g id="Group_22012" data-name="Group 22012">
            <g id="Group_22011" data-name="Group 22011">
              <path id="Path_35301" data-name="Path 35301" d="M2316.878-805.253a1.174,1.174,0,0,1-.971.511,1.154,1.154,0,0,1-.659-.2l-11.337-7.737-1.892-1.294a1.714,1.714,0,0,0,1.345-1.672,1.617,1.617,0,0,0-.021-.264l1.893,1.291,11.334,7.737A1.175,1.175,0,0,1,2316.878-805.253Z" transform="translate(-2302.019 815.913)" fill="#6ab82d"/>
            </g>
          </g>
        </g>
        <g id="Group_22017" data-name="Group 22017" transform="translate(26.971 26.972)">
          <g id="Group_22016" data-name="Group 22016">
            <g id="Group_22015" data-name="Group 22015">
              <g id="Group_22014" data-name="Group 22014">
                <path id="Path_35302" data-name="Path 35302" d="M2303.748-818.757a3.711,3.711,0,0,0-2.2-.807c-.039,0-.077,0-.115,0a3.738,3.738,0,0,0-3.734,3.734,3.738,3.738,0,0,0,3.734,3.733,3.727,3.727,0,0,0,2.264-.767,3.741,3.741,0,0,0,1.325-1.939,3.626,3.626,0,0,0,.146-1.027A3.727,3.727,0,0,0,2303.748-818.757Zm-1.946,4.6a1.55,1.55,0,0,1-.372.043,1.716,1.716,0,0,1-1.717-1.715,1.719,1.719,0,0,1,1.044-1.58,1.728,1.728,0,0,1,.673-.137,1.719,1.719,0,0,1,1.531.941,1.643,1.643,0,0,1,.165.511,1.618,1.618,0,0,1,.021.264A1.714,1.714,0,0,1,2301.8-814.159Z" transform="translate(-2297.696 819.566)" fill="#6ab82d"/>
              </g>
            </g>
          </g>
        </g>
        <g id="Group_22020" data-name="Group 22020" transform="translate(7.025 30.221)">
          <g id="Group_22019" data-name="Group 22019">
            <g id="Group_22018" data-name="Group 22018">
              <rect id="Rectangle_13676" data-name="Rectangle 13676" width="0.969" height="3.997" transform="translate(0 0.969) rotate(-90)" fill="#050f64"/>
            </g>
          </g>
        </g>
        <g id="Group_22023" data-name="Group 22023" transform="translate(30.221 50.389)">
          <g id="Group_22022" data-name="Group 22022">
            <g id="Group_22021" data-name="Group 22021">
              <rect id="Rectangle_13677" data-name="Rectangle 13677" width="0.969" height="3.997" transform="translate(0.969 3.997) rotate(180)" fill="#050f64"/>
            </g>
          </g>
        </g>
        <g id="Group_22026" data-name="Group 22026" transform="translate(50.389 30.221)">
          <g id="Group_22025" data-name="Group 22025">
            <g id="Group_22024" data-name="Group 22024">
              <rect id="Rectangle_13678" data-name="Rectangle 13678" width="0.969" height="3.997" transform="translate(3.997) rotate(90)" fill="#050f64"/>
            </g>
          </g>
        </g>
      </g>
      <g id="Group_22035" data-name="Group 22035" transform="translate(2214.568 -831.397)">
        <g id="Group_22029" data-name="Group 22029">
          <g id="Group_22028" data-name="Group 22028">
            <circle id="Ellipse_827" data-name="Ellipse 827" cx="10.834" cy="10.834" r="10.834" transform="translate(0 21.387) rotate(-80.783)" fill="#e5e6eb"/>
          </g>
        </g>
        <g id="Group_22034" data-name="Group 22034" transform="translate(8.314 6.286)">
          <g id="Group_22031" data-name="Group 22031" transform="translate(0 6.553)">
            <g id="Group_22030" data-name="Group 22030">
              <path id="Path_35303" data-name="Path 35303" d="M2228.363-817.01a4.115,4.115,0,0,0-4.115,4.115v1.372h8.23v-1.372A4.115,4.115,0,0,0,2228.363-817.01Z" transform="translate(-2224.248 817.01)" fill="#fff"/>
            </g>
          </g>
          <g id="Group_22033" data-name="Group 22033" transform="translate(1.25)">
            <g id="Group_22032" data-name="Group 22032">
              <path id="Path_35304" data-name="Path 35304" d="M2228.428-818.179a2.864,2.864,0,0,0,2.865-2.864,2.865,2.865,0,0,0-2.865-2.865,2.865,2.865,0,0,0-2.864,2.865A2.865,2.865,0,0,0,2228.428-818.179Z" transform="translate(-2225.564 823.908)" fill="#fff"/>
            </g>
          </g>
        </g>
      </g>
    </g>
  </g>
</svg>
