<svg xmlns="http://www.w3.org/2000/svg" width="700" height="220" viewBox="0 0 700 220">
  <g id="img-step-01-2" transform="translate(-320 -4057)">
    <rect id="Rectangle_14067" data-name="Rectangle 14067" width="700" height="220" transform="translate(320 4057)" fill="#fff"/>
    <g id="Group_23537" data-name="Group 23537">
      <path id="Path_35953" data-name="Path 35953" d="M3.178-9.982v1.456c1.12.084,2.338.154,3.766.154,1.3,0,2.926-.1,3.892-.168V-10c-1.036.1-2.548.2-3.906.2A32.144,32.144,0,0,1,3.178-9.982Zm.84,5.768L2.576-4.34A8.576,8.576,0,0,0,2.3-2.366C2.3-.532,3.92.462,6.93.462a20.052,20.052,0,0,0,4.8-.49l-.014-1.54a17.958,17.958,0,0,1-4.844.56c-2.142,0-3.122-.7-3.122-1.694A4.99,4.99,0,0,1,4.018-4.214Zm22.806-.7a5.182,5.182,0,0,0-5.488-5.278,6.068,6.068,0,0,0-6.258,5.824c0,2.338,1.274,3.878,2.66,3.878s2.548-1.582,3.388-4.438a27.877,27.877,0,0,0,.84-3.934,3.722,3.722,0,0,1,3.388,3.906A4.027,4.027,0,0,1,21.966-.98a8.653,8.653,0,0,1-1.246.2L21.546.532C24.948.042,26.824-1.974,26.824-4.914Zm-10.332.406a4.68,4.68,0,0,1,3.99-4.326,22.289,22.289,0,0,1-.77,3.612c-.644,2.156-1.3,3.066-1.932,3.066C17.178-2.156,16.492-2.9,16.492-4.508Zm15.764-6.4-.8,1.2c.868.49,2.366,1.484,3.08,2l.826-1.2C34.706-9.38,33.124-10.416,32.256-10.906ZM29.946-.924,30.772.518A16.4,16.4,0,0,0,35.42-1.218,16.666,16.666,0,0,0,40.894-6.23L40.04-7.714A14.4,14.4,0,0,1,34.678-2.52,15.374,15.374,0,0,1,29.946-.924Zm.182-6.8-.8,1.2a35.037,35.037,0,0,1,3.122,1.96l.812-1.246C32.606-6.272,31.01-7.266,30.128-7.728ZM54.222-9.31l-1.078-.7a3.567,3.567,0,0,1-.9.1h-6.79a12.556,12.556,0,0,1-1.512-.112v1.568c.35-.028.91-.056,1.512-.056h6.874a9.667,9.667,0,0,1-1.75,4.3A9.235,9.235,0,0,1,45.108-.882l1.2,1.316A10.789,10.789,0,0,0,51.884-3.36,13.879,13.879,0,0,0,53.97-8.5,4.254,4.254,0,0,1,54.222-9.31Zm6.356,8.022A14.656,14.656,0,0,1,60.466.5h1.722a16.4,16.4,0,0,1-.112-1.792V-5.614A36.658,36.658,0,0,1,67.368-3.43L68-4.956A47.456,47.456,0,0,0,62.076-7.2V-9.38c0-.49.056-1.106.1-1.568H60.452a10.135,10.135,0,0,1,.126,1.568Zm11.9-8.806v1.4c.392-.028.812-.042,1.3-.042H75.5v2.7H72.968c-.406,0-1.022-.028-1.414-.07v1.47c.406-.028,1.036-.056,1.414-.056H75.5v2.954c0,1.26.644,2.072,2.954,2.072,1.33,0,2.772-.056,3.794-.126l.084-1.5a30.229,30.229,0,0,1-3.64.2c-1.218,0-1.708-.35-1.708-1.092V-4.69h4.536c.308,0,.868,0,1.232.028L82.74-6.09c-.336.028-.952.056-1.246.056H76.986v-2.7h3.486c.5,0,.854.028,1.2.042v-1.4a9.929,9.929,0,0,1-1.2.056H73.78C73.29-10.038,72.87-10.066,72.478-10.094Zm14.28-.28v1.442c.378-.028.9-.056,1.372-.056h4.718c.448,0,.952.028,1.4.056v-1.442a11.74,11.74,0,0,1-1.4.084H88.116A10.557,10.557,0,0,1,86.758-10.374ZM85.106-6.832v1.456c.392-.028.854-.042,1.274-.042h4.046a6.471,6.471,0,0,1-.84,3.3A5.83,5.83,0,0,1,87-.028l1.288.952A6.846,6.846,0,0,0,91.07-1.694a8.593,8.593,0,0,0,.868-3.724H95.55c.364,0,.84.014,1.176.028V-6.832a8.931,8.931,0,0,1-1.176.07H86.38A12.267,12.267,0,0,1,85.106-6.832Zm9.912-4.606-.9.378a16.71,16.71,0,0,1,1.106,1.932l.924-.392A20.288,20.288,0,0,0,95.018-11.438Zm1.582-.6-.9.378A14.051,14.051,0,0,1,96.852-9.73l.91-.406A17.841,17.841,0,0,0,96.6-12.04ZM105.21-.308l.924.77a4.352,4.352,0,0,1,.532-.35,14.731,14.731,0,0,0,4.774-3.864l-.854-1.2a9.849,9.849,0,0,1-3.808,3.22V-9.478a8.432,8.432,0,0,1,.07-1.12h-1.624a10.261,10.261,0,0,1,.084,1.12V-1.19A4.038,4.038,0,0,1,105.21-.308ZM98.756-.434l1.344.9a7.865,7.865,0,0,0,2.492-3.92,30.671,30.671,0,0,0,.434-5.978,10.479,10.479,0,0,1,.07-1.12h-1.624a4.363,4.363,0,0,1,.112,1.134,24.275,24.275,0,0,1-.406,5.586A6.48,6.48,0,0,1,98.756-.434Zm19.852-10.71-1.456-.112a6.972,6.972,0,0,1-.322,1.666c-.28.014-.56.014-.826.014A18.1,18.1,0,0,1,113.6-9.73v1.316c.784.056,1.75.084,2.338.084h.406a14.066,14.066,0,0,1-3.164,4.088l1.2.9a15.228,15.228,0,0,1,1.274-1.5,3.568,3.568,0,0,1,2.324-1.008,1.127,1.127,0,0,1,1.148.7c-1.624.826-3.3,1.918-3.3,3.64s1.624,2.226,3.71,2.226a35.651,35.651,0,0,0,3.892-.252l.042-1.414a23.84,23.84,0,0,1-3.892.364c-1.414,0-2.324-.2-2.324-1.148,0-.826.756-1.47,1.96-2.128-.014.686-.028,1.484-.056,1.974h1.33c-.014-.672-.028-1.792-.042-2.59.98-.448,1.89-.812,2.6-1.092.42-.168,1.022-.392,1.428-.518L123.9-7.378c-.448.224-.854.406-1.33.616-.658.308-1.372.6-2.24,1.008a1.843,1.843,0,0,0-1.876-1.19,4.112,4.112,0,0,0-1.792.42,11.234,11.234,0,0,0,1.078-1.848,43.257,43.257,0,0,0,4.606-.364v-1.3a32.277,32.277,0,0,1-4.116.406C118.412-10.234,118.524-10.752,118.608-11.144Zm14.98,2.73.056-.014a4.334,4.334,0,0,0-.5-1.218h3.052a9.86,9.86,0,0,1-.518,1.232Zm2.086,5.39h-1.89V-4.046h1.89Zm-3.71-6.524a6.168,6.168,0,0,1,.49,1.134h-1.722v7.336h1.19V-7.392h2.3v.84h-1.876v.84h1.876v.9H132.86v3.052h.924v-.49h2.828V-4.816H135.2v-.9h1.89v-.84H135.2v-.84h2.394v5.04c0,.154-.056.21-.21.21s-.7.014-1.26-.014a4.6,4.6,0,0,1,.378,1.092,4.95,4.95,0,0,0,1.792-.2c.406-.2.5-.5.5-1.092V-8.414h-1.918c.182-.35.406-.756.616-1.19l-.168-.042h1.89v-1.036h-3.934v-1.064h-1.26v1.064H130.3v1.036h2.058Zm-1.988.392a10.407,10.407,0,0,0-2.212-2.24l-.994.728a10,10,0,0,1,2.156,2.338ZM129.6-6.314h-2.926v1.2h1.68v3.374a19.3,19.3,0,0,1-1.834,1.428L127.162.98c.686-.6,1.3-1.162,1.89-1.736a4.665,4.665,0,0,0,3.794,1.61c1.624.056,4.592.028,6.2-.042a5.669,5.669,0,0,1,.42-1.274c-1.778.126-5.026.168-6.608.1-1.554-.07-2.66-.5-3.262-1.47Zm18.158,2.03V-6.356h3.388v2.072Zm-4.4,0c.042-.518.056-1.036.056-1.512v-.56h3.038v2.072Zm3.094-5.264v1.974h-3.038V-9.548Zm4.69,1.974h-3.388V-9.548h3.388Zm1.3-3.22H142.128V-5.81c0,1.974-.14,4.452-1.666,6.146a4.309,4.309,0,0,1,1.022.854,8.031,8.031,0,0,0,1.75-4.242h3.22v4h1.3v-4h3.388V-.546c0,.266-.1.35-.35.35s-1.19.014-2.086-.028a5.379,5.379,0,0,1,.434,1.26A7.664,7.664,0,0,0,151.76.812c.5-.2.686-.588.686-1.344Zm8.778.868c.1.28.224.644.364,1.078a28.885,28.885,0,0,1-5.474-.182l.028,1.414a36.814,36.814,0,0,0,5.936.042A19.265,19.265,0,0,0,163.6-4.662c-.476-.056-1.47-.14-2.212-.2l-.1,1.162a33.573,33.573,0,0,1,3.528.42l.7-1.008a6.631,6.631,0,0,1-.672-.826,15.6,15.6,0,0,1-1.442-2.6,24.129,24.129,0,0,0,2.73-.546l-.168-1.4a17.3,17.3,0,0,1-3.024.672,15.225,15.225,0,0,1-.6-2.31l-1.512.182C160.986-10.7,161.126-10.234,161.224-9.926Zm-2.66,5.488-1.386-.308a5.5,5.5,0,0,0-.7,2.45c0,1.946,1.736,2.968,4.48,2.982A19.122,19.122,0,0,0,164.64.378l.07-1.4a17.7,17.7,0,0,1-3.668.336c-2.016-.014-3.15-.56-3.15-1.82A3.543,3.543,0,0,1,158.564-4.438Zm19.95-6.44h-1.5a9.25,9.25,0,0,1,.1,1.148v1.82c-1.4.126-2.926.266-4.214.392.014-.672.014-1.26.014-1.652a11.061,11.061,0,0,1,.07-1.274H171.43a8.316,8.316,0,0,1,.1,1.344v1.708c-.588.056-1.05.1-1.358.126-.588.056-1.162.084-1.582.084l.154,1.428c.364-.056,1.092-.154,1.526-.21.308-.042.742-.084,1.26-.14,0,1.344,0,2.786.014,3.388.056,2.31.42,3.066,3.822,3.066A39.408,39.408,0,0,0,179.41.112l.042-1.5a26.133,26.133,0,0,1-4.172.35c-2.282,0-2.338-.448-2.38-1.89-.028-.574-.014-1.96,0-3.332,1.3-.14,2.828-.28,4.186-.392a19.949,19.949,0,0,1-.14,2.03c-.028.308-.168.364-.49.364a8.156,8.156,0,0,1-1.344-.182l-.028,1.218a16.49,16.49,0,0,0,1.96.21c.672,0,.994-.182,1.134-.854a21.323,21.323,0,0,0,.21-2.884c.518-.028.98-.056,1.344-.056s.98-.028,1.218-.014V-8.19c-.364.028-.84.07-1.2.084-.392.028-.854.056-1.33.1.014-.56.014-1.162.028-1.764A8.319,8.319,0,0,1,178.514-10.878Zm8.75,9.324a.931.931,0,0,1,1.022-.8,1.72,1.72,0,0,1,1.652,1.736,7.46,7.46,0,0,1-.994.056C187.95-.56,187.264-.938,187.264-1.554Zm-2.044-8.918.042,1.442c.322-.042.686-.07,1.036-.084.728-.042,3.15-.154,3.892-.182-.7.616-2.324,1.96-3.108,2.6-.826.686-2.576,2.156-3.668,3.052L184.436-2.6c1.652-1.764,2.968-2.814,5.208-2.814,1.75,0,3.038.952,3.038,2.268a2.274,2.274,0,0,1-1.484,2.2,2.763,2.763,0,0,0-2.912-2.45,2.128,2.128,0,0,0-2.31,1.974C185.976-.154,187.264.7,189.2.7c3.15,0,4.928-1.6,4.928-3.822,0-1.96-1.736-3.4-4.074-3.4a5.8,5.8,0,0,0-1.68.238c.994-.812,2.716-2.268,3.43-2.8.294-.224.588-.42.882-.6l-.77-1.008a4.174,4.174,0,0,1-.9.126c-.756.07-3.948.154-4.676.154A10.169,10.169,0,0,1,185.22-10.472Zm14.5,9.2V-4.83h6.594v3.556Zm6.594-8.26v3.416h-6.594V-9.534Zm-7.924-1.316V.952h1.33V.042h6.594V.9H207.7V-10.85Z" transform="translate(340 4094)" fill="#111"/>
      <path id="Path_35952" data-name="Path 35952" d="M.616,0h6.65V-1.372H4.69c-.5,0-1.148.042-1.68.1C5.194-3.36,6.776-5.418,6.776-7.406A2.914,2.914,0,0,0,3.668-10.5,4,4,0,0,0,.532-8.96l.91.9a2.8,2.8,0,0,1,2.03-1.148,1.673,1.673,0,0,1,1.75,1.89c0,1.694-1.568,3.7-4.606,6.384ZM11.97.182C13.986.182,15.3-1.61,15.3-5.194c0-3.556-1.316-5.306-3.332-5.306S8.638-8.764,8.638-5.194,9.954.182,11.97.182Zm0-1.274c-1.05,0-1.792-1.12-1.792-4.1,0-2.954.742-4.032,1.792-4.032s1.792,1.078,1.792,4.032C13.762-2.212,13.02-1.092,11.97-1.092ZM16.576,0h6.65V-1.372H20.65c-.5,0-1.148.042-1.68.1,2.184-2.086,3.766-4.144,3.766-6.132A2.914,2.914,0,0,0,19.628-10.5a4,4,0,0,0-3.136,1.54l.91.9a2.8,2.8,0,0,1,2.03-1.148,1.673,1.673,0,0,1,1.75,1.89c0,1.694-1.568,3.7-4.606,6.384Zm8.568,0h5.88V-1.33H29.008v-8.988H27.79a6.06,6.06,0,0,1-2.24.8V-8.5H27.4V-1.33H25.144Zm6.944,2.52h1.12L37.1-11.186H35.98ZM41.37.182C43.386.182,44.7-1.61,44.7-5.194c0-3.556-1.316-5.306-3.332-5.306s-3.332,1.736-3.332,5.306S39.354.182,41.37.182Zm0-1.274c-1.05,0-1.792-1.12-1.792-4.1,0-2.954.742-4.032,1.792-4.032s1.792,1.078,1.792,4.032C43.162-2.212,42.42-1.092,41.37-1.092Zm6.09-6.02c0-1.344.7-2.142,1.582-2.142,1.12,0,1.89.924,2.044,2.954a2.449,2.449,0,0,1-1.96,1.26C48.048-5.04,47.46-5.8,47.46-7.112Zm1.3,7.294C50.75.182,52.6-1.442,52.6-5.5c0-3.416-1.6-5-3.57-5a3.151,3.151,0,0,0-3.066,3.388c0,2.156,1.162,3.234,2.884,3.234a3.1,3.1,0,0,0,2.268-1.2c-.1,2.94-1.176,3.948-2.422,3.948a2.29,2.29,0,0,1-1.68-.77L46.13-.91A3.536,3.536,0,0,0,48.762.182ZM53.508,2.52h1.12L58.52-11.186H57.4ZM62.79.182c2.016,0,3.332-1.792,3.332-5.376,0-3.556-1.316-5.306-3.332-5.306s-3.332,1.736-3.332,5.306S60.774.182,62.79.182Zm0-1.274c-1.05,0-1.792-1.12-1.792-4.1,0-2.954.742-4.032,1.792-4.032s1.792,1.078,1.792,4.032C64.582-2.212,63.84-1.092,62.79-1.092ZM67.984,0h5.88V-1.33H71.848v-8.988H70.63a6.06,6.06,0,0,1-2.24.8V-8.5h1.848V-1.33H67.984Z" transform="translate(340 4124)" fill="#666"/>
      <path id="Path_35951" data-name="Path 35951" d="M3.178-9.982v1.456c1.12.084,2.338.154,3.766.154,1.3,0,2.926-.1,3.892-.168V-10c-1.036.1-2.548.2-3.906.2A32.144,32.144,0,0,1,3.178-9.982Zm.84,5.768L2.576-4.34A8.576,8.576,0,0,0,2.3-2.366C2.3-.532,3.92.462,6.93.462a20.052,20.052,0,0,0,4.8-.49l-.014-1.54a17.958,17.958,0,0,1-4.844.56c-2.142,0-3.122-.7-3.122-1.694A4.99,4.99,0,0,1,4.018-4.214Zm22.806-.7a5.182,5.182,0,0,0-5.488-5.278,6.068,6.068,0,0,0-6.258,5.824c0,2.338,1.274,3.878,2.66,3.878s2.548-1.582,3.388-4.438a27.877,27.877,0,0,0,.84-3.934,3.722,3.722,0,0,1,3.388,3.906A4.027,4.027,0,0,1,21.966-.98a8.653,8.653,0,0,1-1.246.2L21.546.532C24.948.042,26.824-1.974,26.824-4.914Zm-10.332.406a4.68,4.68,0,0,1,3.99-4.326,22.289,22.289,0,0,1-.77,3.612c-.644,2.156-1.3,3.066-1.932,3.066C17.178-2.156,16.492-2.9,16.492-4.508Zm15.764-6.4-.8,1.2c.868.49,2.366,1.484,3.08,2l.826-1.2C34.706-9.38,33.124-10.416,32.256-10.906ZM29.946-.924,30.772.518A16.4,16.4,0,0,0,35.42-1.218,16.666,16.666,0,0,0,40.894-6.23L40.04-7.714A14.4,14.4,0,0,1,34.678-2.52,15.374,15.374,0,0,1,29.946-.924Zm.182-6.8-.8,1.2a35.037,35.037,0,0,1,3.122,1.96l.812-1.246C32.606-6.272,31.01-7.266,30.128-7.728ZM54.222-9.31l-1.078-.7a3.567,3.567,0,0,1-.9.1h-6.79a12.556,12.556,0,0,1-1.512-.112v1.568c.35-.028.91-.056,1.512-.056h6.874a9.667,9.667,0,0,1-1.75,4.3A9.235,9.235,0,0,1,45.108-.882l1.2,1.316A10.789,10.789,0,0,0,51.884-3.36,13.879,13.879,0,0,0,53.97-8.5,4.254,4.254,0,0,1,54.222-9.31Zm6.356,8.022A14.656,14.656,0,0,1,60.466.5h1.722a16.4,16.4,0,0,1-.112-1.792V-5.614A36.658,36.658,0,0,1,67.368-3.43L68-4.956A47.456,47.456,0,0,0,62.076-7.2V-9.38c0-.49.056-1.106.1-1.568H60.452a10.135,10.135,0,0,1,.126,1.568Zm11.9-8.806v1.4c.392-.028.812-.042,1.3-.042H75.5v2.7H72.968c-.406,0-1.022-.028-1.414-.07v1.47c.406-.028,1.036-.056,1.414-.056H75.5v2.954c0,1.26.644,2.072,2.954,2.072,1.33,0,2.772-.056,3.794-.126l.084-1.5a30.229,30.229,0,0,1-3.64.2c-1.218,0-1.708-.35-1.708-1.092V-4.69h4.536c.308,0,.868,0,1.232.028L82.74-6.09c-.336.028-.952.056-1.246.056H76.986v-2.7h3.486c.5,0,.854.028,1.2.042v-1.4a9.929,9.929,0,0,1-1.2.056H73.78C73.29-10.038,72.87-10.066,72.478-10.094Zm14.28-.28v1.442c.378-.028.9-.056,1.372-.056h4.718c.448,0,.952.028,1.4.056v-1.442a11.74,11.74,0,0,1-1.4.084H88.116A10.557,10.557,0,0,1,86.758-10.374ZM85.106-6.832v1.456c.392-.028.854-.042,1.274-.042h4.046a6.471,6.471,0,0,1-.84,3.3A5.83,5.83,0,0,1,87-.028l1.288.952A6.846,6.846,0,0,0,91.07-1.694a8.593,8.593,0,0,0,.868-3.724H95.55c.364,0,.84.014,1.176.028V-6.832a8.931,8.931,0,0,1-1.176.07H86.38A12.267,12.267,0,0,1,85.106-6.832Zm9.912-4.606-.9.378a16.71,16.71,0,0,1,1.106,1.932l.924-.392A20.288,20.288,0,0,0,95.018-11.438Zm1.582-.6-.9.378A14.051,14.051,0,0,1,96.852-9.73l.91-.406A17.841,17.841,0,0,0,96.6-12.04ZM105.21-.308l.924.77a4.352,4.352,0,0,1,.532-.35,14.731,14.731,0,0,0,4.774-3.864l-.854-1.2a9.849,9.849,0,0,1-3.808,3.22V-9.478a8.432,8.432,0,0,1,.07-1.12h-1.624a10.261,10.261,0,0,1,.084,1.12V-1.19A4.038,4.038,0,0,1,105.21-.308ZM98.756-.434l1.344.9a7.865,7.865,0,0,0,2.492-3.92,30.671,30.671,0,0,0,.434-5.978,10.479,10.479,0,0,1,.07-1.12h-1.624a4.363,4.363,0,0,1,.112,1.134,24.275,24.275,0,0,1-.406,5.586A6.48,6.48,0,0,1,98.756-.434Zm19.852-10.71-1.456-.112a6.972,6.972,0,0,1-.322,1.666c-.28.014-.56.014-.826.014A18.1,18.1,0,0,1,113.6-9.73v1.316c.784.056,1.75.084,2.338.084h.406a14.066,14.066,0,0,1-3.164,4.088l1.2.9a15.228,15.228,0,0,1,1.274-1.5,3.568,3.568,0,0,1,2.324-1.008,1.127,1.127,0,0,1,1.148.7c-1.624.826-3.3,1.918-3.3,3.64s1.624,2.226,3.71,2.226a35.651,35.651,0,0,0,3.892-.252l.042-1.414a23.84,23.84,0,0,1-3.892.364c-1.414,0-2.324-.2-2.324-1.148,0-.826.756-1.47,1.96-2.128-.014.686-.028,1.484-.056,1.974h1.33c-.014-.672-.028-1.792-.042-2.59.98-.448,1.89-.812,2.6-1.092.42-.168,1.022-.392,1.428-.518L123.9-7.378c-.448.224-.854.406-1.33.616-.658.308-1.372.6-2.24,1.008a1.843,1.843,0,0,0-1.876-1.19,4.112,4.112,0,0,0-1.792.42,11.234,11.234,0,0,0,1.078-1.848,43.257,43.257,0,0,0,4.606-.364v-1.3a32.277,32.277,0,0,1-4.116.406C118.412-10.234,118.524-10.752,118.608-11.144Zm9.7,1.4V-8.19c.364-.028,1.078-.056,1.624-.056h6.538V-2h-6.706c-.6,0-1.218-.042-1.624-.07V-.49c.406-.028,1.106-.056,1.68-.056h6.636c0,.294-.014.56-.014.756h1.6c-.028-.308-.056-.994-.056-1.484V-8.512c0-.364.014-.868.028-1.176-.252.014-.742.028-1.12.028h-6.958C129.472-9.66,128.8-9.7,128.31-9.744Zm22.4-.1a.887.887,0,0,1,.882-.882.885.885,0,0,1,.868.882.872.872,0,0,1-.868.868A.875.875,0,0,1,150.71-9.842Zm-.742,0a1.633,1.633,0,0,0,.462,1.134,7.413,7.413,0,0,1-1.33.672A38.444,38.444,0,0,1,143.99-6.4V-9.324a12.7,12.7,0,0,1,.084-1.288h-1.638a8.357,8.357,0,0,1,.1,1.288v7.658c0,1.176.644,1.736,1.778,1.946a15.255,15.255,0,0,0,2.3.14,41,41,0,0,0,4.914-.28V-1.47a23.381,23.381,0,0,1-4.83.462,12.073,12.073,0,0,1-1.75-.1c-.658-.14-.952-.308-.952-.98V-4.942A54.117,54.117,0,0,0,149.6-6.706c.448-.168,1.008-.42,1.47-.6l-.588-1.358a1.63,1.63,0,0,0,1.106.434,1.61,1.61,0,0,0,1.61-1.61,1.622,1.622,0,0,0-1.61-1.624A1.625,1.625,0,0,0,149.968-9.842Zm5.39,3.6v1.736c.476-.042,1.316-.07,2.086-.07h7.616c.616,0,1.26.056,1.568.07V-6.244c-.35.028-.9.084-1.568.084h-7.616C156.688-6.16,155.82-6.216,155.358-6.244Zm19.866-3.682c.1.28.224.644.364,1.078a28.885,28.885,0,0,1-5.474-.182l.028,1.414a36.814,36.814,0,0,0,5.936.042A19.265,19.265,0,0,0,177.6-4.662c-.476-.056-1.47-.14-2.212-.2l-.1,1.162a33.573,33.573,0,0,1,3.528.42l.7-1.008a6.631,6.631,0,0,1-.672-.826,15.6,15.6,0,0,1-1.442-2.6,24.129,24.129,0,0,0,2.73-.546l-.168-1.4a17.3,17.3,0,0,1-3.024.672,15.225,15.225,0,0,1-.6-2.31l-1.512.182C174.986-10.7,175.126-10.234,175.224-9.926Zm-2.66,5.488-1.386-.308a5.5,5.5,0,0,0-.7,2.45c0,1.946,1.736,2.968,4.48,2.982A19.122,19.122,0,0,0,178.64.378l.07-1.4a17.7,17.7,0,0,1-3.668.336c-2.016-.014-3.15-.56-3.15-1.82A3.543,3.543,0,0,1,172.564-4.438Zm19.95-6.44h-1.5a9.25,9.25,0,0,1,.1,1.148v1.82c-1.4.126-2.926.266-4.214.392.014-.672.014-1.26.014-1.652a11.061,11.061,0,0,1,.07-1.274H185.43a8.316,8.316,0,0,1,.1,1.344v1.708c-.588.056-1.05.1-1.358.126-.588.056-1.162.084-1.582.084l.154,1.428c.364-.056,1.092-.154,1.526-.21.308-.042.742-.084,1.26-.14,0,1.344,0,2.786.014,3.388.056,2.31.42,3.066,3.822,3.066A39.408,39.408,0,0,0,193.41.112l.042-1.5a26.133,26.133,0,0,1-4.172.35c-2.282,0-2.338-.448-2.38-1.89-.028-.574-.014-1.96,0-3.332,1.3-.14,2.828-.28,4.186-.392a19.949,19.949,0,0,1-.14,2.03c-.028.308-.168.364-.49.364a8.156,8.156,0,0,1-1.344-.182l-.028,1.218a16.49,16.49,0,0,0,1.96.21c.672,0,.994-.182,1.134-.854a21.323,21.323,0,0,0,.21-2.884c.518-.028.98-.056,1.344-.056s.98-.028,1.218-.014V-8.19c-.364.028-.84.07-1.2.084-.392.028-.854.056-1.33.1.014-.56.014-1.162.028-1.764A8.319,8.319,0,0,1,192.514-10.878Zm11.466,7.5-1.3-.126a8.228,8.228,0,0,0-.238,1.75c0,1.386,1.232,2.128,3.514,2.128a21.617,21.617,0,0,0,2.772-.2l.042-1.414a15.821,15.821,0,0,1-2.8.28c-1.792,0-2.17-.574-2.17-1.2A5.14,5.14,0,0,1,203.98-3.374Zm-1.6-7.714-1.68-.126a5.727,5.727,0,0,1-.056,1.26c-.028.266-.1.63-.168,1.05-.49.042-.966.056-1.4.056a13.193,13.193,0,0,1-1.708-.112l.028,1.372c.5.042,1.022.056,1.666.056.35,0,.728-.014,1.134-.028-.112.462-.224.924-.336,1.358A32.38,32.38,0,0,1,197.484.07l1.526.518a42.29,42.29,0,0,0,2.212-6.44c.154-.588.308-1.232.448-1.834a25.084,25.084,0,0,0,2.814-.476V-9.548a24.565,24.565,0,0,1-2.534.49c.07-.308.126-.588.168-.826C202.174-10.164,202.3-10.738,202.384-11.088Zm1.106,4.256v1.3a23.561,23.561,0,0,1,2.646-.154,17.692,17.692,0,0,1,2.38.182l.042-1.344a23.729,23.729,0,0,0-2.45-.112C205.212-6.958,204.246-6.9,203.49-6.832Zm9.856-3.038L211.638-9.9a7.163,7.163,0,0,1,.112,1.316c0,.84.014,2.52.154,3.752C212.282-1.148,213.584.2,215,.2c1.022,0,1.89-.826,2.772-3.22l-1.106-1.3c-.322,1.274-.938,2.8-1.638,2.8-.938,0-1.512-1.484-1.722-3.682a31.345,31.345,0,0,1-.1-3.15A11.461,11.461,0,0,1,213.346-9.87Zm7.168.35-1.386.462c1.414,1.68,2.212,4.788,2.45,7.2l1.442-.56A15.25,15.25,0,0,0,220.514-9.52Zm10.6,8.176h1.918v.966h-1.918ZM233.03-3.99h-1.918v-.9h1.918Zm0,1.778h-1.918v-.91h1.918Zm-6.8-.476V-5.74h1.414v3.052Zm1.414-7.056v2.87h-1.414v-2.87Zm9.786,9.366h-3.262v-.966h2.59v-.868h-2.59v-.91h2.59V-3.99h-2.59v-.9h2.912V-5.88H234.5q.252-.441.5-.924l-.546-.112h2.534v-4.326h-3.626v.91h2.478v.812h-2.31v.854h2.31v.84h-2.506v.91h.322a9.633,9.633,0,0,1-.392,1.036h-1.736c.182-.308.35-.616.49-.91l-.42-.126h1.246v-4.326h-3.556v.91h2.436v.812h-2.212v.854h2.212v.84h-2.45v.91h1.428a8.853,8.853,0,0,1-1.918,2.7v-6.664h-3.7V-.364h1.134V-1.54h2.562V-3.416c.14.154.266.322.35.434a6.517,6.517,0,0,0,.8-.742v4.76h1.176V.616h6.314Zm4.3-.9V-4.83h6.594v3.556Zm6.594-8.26v3.416h-6.594V-9.534Zm-7.924-1.316V.952h1.33V.042h6.594V.9H249.7V-10.85Z" transform="translate(340 4164)" fill="#111"/>
      <path id="Path_35950" data-name="Path 35950" d="M12.6-10.92H1.4V.28H12.6ZM1.96-.28V-10.36H12.04V-.28Zm15.12-6.4A16.965,16.965,0,0,0,20.944-10.5a18.323,18.323,0,0,0,4.032,3.822Zm4.564,4.214h4.074V-3.6H21.644V-5.53h3.5V-6.566a17.534,17.534,0,0,0,1.54.98,7.634,7.634,0,0,1,.854-1.148,16.567,16.567,0,0,1-5.992-5.054h-1.33A15.938,15.938,0,0,1,14.49-6.58a5.13,5.13,0,0,1,.826,1.05,16.52,16.52,0,0,0,1.61-1.036V-5.53h3.346V-3.6h-4v1.134h4v2.03H15.134V.742H26.95V-.434H21.644ZM29.106-9.45l.154,1.54c1.554-.336,4.816-.672,6.23-.826a5.637,5.637,0,0,0-2.38,4.55c0,3.094,2.87,4.564,5.614,4.69L39.242-.98c-2.324-.1-4.7-.952-4.7-3.5a4.642,4.642,0,0,1,3.108-4.214,12.488,12.488,0,0,1,2.716-.21v-1.414c-.966.042-2.366.126-3.864.252-2.576.21-5.068.448-6.09.546C30.142-9.492,29.652-9.464,29.106-9.45ZM54.824-4.914a5.182,5.182,0,0,0-5.488-5.278,6.068,6.068,0,0,0-6.258,5.824c0,2.338,1.274,3.878,2.66,3.878s2.548-1.582,3.388-4.438a27.877,27.877,0,0,0,.84-3.934,3.722,3.722,0,0,1,3.388,3.906A4.027,4.027,0,0,1,49.966-.98a8.653,8.653,0,0,1-1.246.2L49.546.532C52.948.042,54.824-1.974,54.824-4.914Zm-10.332.406a4.68,4.68,0,0,1,3.99-4.326,22.289,22.289,0,0,1-.77,3.612c-.644,2.156-1.3,3.066-1.932,3.066C45.178-2.156,44.492-2.9,44.492-4.508ZM59.724-1.274V-4.83h6.594v3.556Zm6.594-8.26v3.416H59.724V-9.534ZM58.394-10.85V.952h1.33V.042h6.594V.9H67.7V-10.85ZM96.6-10.92H85.4V.28H96.6ZM85.96-.28V-10.36H96.04V-.28ZM102.032-4.4a18.236,18.236,0,0,0,.126-2.072h6.02V-4.4Zm6.146-5.39v2.072h-6.02V-9.786Zm1.372-1.26h-8.722v4.4c0,2.2-.21,4.942-2.394,6.818a4.94,4.94,0,0,1,.994.952,7.732,7.732,0,0,0,2.394-4.256h6.356v2.45c0,.294-.112.406-.42.406-.336.014-1.456.028-2.548-.028a5.449,5.449,0,0,1,.56,1.372,9.248,9.248,0,0,0,3-.266c.56-.21.784-.616.784-1.456Zm29.05.126H127.4V.28h11.2ZM127.96-.28V-10.36h10.08V-.28Zm19.67-11.27h-1.4v4.424c0,1.82-1.078,5.432-5.558,7.14a5.887,5.887,0,0,1,.91,1.092,8.84,8.84,0,0,0,5.348-5.824,8.972,8.972,0,0,0,5.53,5.824,6.258,6.258,0,0,1,.9-1.2c-4.606-1.666-5.726-5.208-5.726-7.042Zm3.71,2.562a22.309,22.309,0,0,1-1.946,3.878l1.106.518a38.654,38.654,0,0,0,2.268-3.836Zm-8.624.028a5.592,5.592,0,0,1-1.75,3.85l1.162.756c1.218-.952,1.666-2.632,1.89-4.326ZM180.6-10.92H169.4V.28h11.2ZM169.96-.28V-10.36h10.08V-.28Zm16.954-8.036-.252.056h-3.836v1.316h3.36a9.381,9.381,0,0,1-3.752,5.74A5.262,5.262,0,0,1,183.5-.182c2.016-1.414,3.626-4.088,4.3-7.812ZM193.9-9.534a24.3,24.3,0,0,1-3.094,3.3,19.171,19.171,0,0,1-1.078-3.01v-2.492h-1.372V-.658c0,.252-.112.35-.392.35s-1.162.014-2.114-.028a6.117,6.117,0,0,1,.5,1.442,7.716,7.716,0,0,0,2.66-.266c.5-.238.714-.644.714-1.5V-5.824A11.016,11.016,0,0,0,194.572.07a5.681,5.681,0,0,1,1.008-1.2,9.367,9.367,0,0,1-4.214-4.032A32.248,32.248,0,0,0,195.1-8.68ZM12.6,13.08H1.4v11.2H12.6ZM1.96,23.72V13.64H12.04V23.72Zm25.088-6.832V15.6H21.686V12.268H20.3V15.6H14.966v1.288h4.76A14.046,14.046,0,0,1,14.392,22.6a6.516,6.516,0,0,1,.966,1.106A15.176,15.176,0,0,0,20.3,18.344v6.762h1.386v-6.79a16.294,16.294,0,0,0,4.928,5.348,5.3,5.3,0,0,1,.966-1.12,15.024,15.024,0,0,1-5.362-5.656ZM54.6,13.08H43.4v11.2H54.6ZM43.96,23.72V13.64H54.04V23.72Zm16.086-7.28a15,15,0,0,0,2.9-2.94,15.661,15.661,0,0,0,3.038,2.94Zm3.57,3.934H68.18v-1.12H63.616V17.588h2.842v-.8a17.676,17.676,0,0,0,2.24,1.386,7.411,7.411,0,0,1,.84-1.162,15.413,15.413,0,0,1-5.992-4.788h-1.33A15.028,15.028,0,0,1,56.5,17.182a5.045,5.045,0,0,1,.812,1.05A19.684,19.684,0,0,0,59.5,16.86v.728h2.744v1.666H57.778v1.12h4.466v3.178H57.106v1.134h11.8V23.552H63.616ZM58.8,21A9.119,9.119,0,0,1,60.032,23.5l1.134-.5a9.113,9.113,0,0,0-1.3-2.408ZM65.506,23.5A24.843,24.843,0,0,0,67.2,21.032l-1.246-.462a15.49,15.49,0,0,1-1.414,2.492ZM96.6,13.08H85.4v11.2H96.6ZM85.96,23.72V13.64H96.04V23.72Zm19.712-.5V17.924h4.69V16.65h-4.69V12.282h-1.386V16.65h-4.62v1.274h4.62v5.292H98.77V24.49h12.5V23.216ZM138.6,13.08H127.4v11.2h11.2ZM127.96,23.72V13.64h10.08V23.72Zm15.764-.994V19.17h6.594v3.556Zm6.594-8.26v3.416h-6.594V14.466Zm-7.924-1.316v11.8h1.33v-.91h6.594V24.9H151.7V13.15Z" transform="translate(340 4194)" fill="#666"/>
      <path id="Path_35949" data-name="Path 35949" d="M12.6-10.92H1.4V.28H12.6ZM1.96-.28V-10.36H12.04V-.28Zm15.12-6.4A16.965,16.965,0,0,0,20.944-10.5a18.323,18.323,0,0,0,4.032,3.822Zm4.564,4.214h4.074V-3.6H21.644V-5.53h3.5V-6.566a17.534,17.534,0,0,0,1.54.98,7.634,7.634,0,0,1,.854-1.148,16.567,16.567,0,0,1-5.992-5.054h-1.33A15.938,15.938,0,0,1,14.49-6.58a5.13,5.13,0,0,1,.826,1.05,16.52,16.52,0,0,0,1.61-1.036V-5.53h3.346V-3.6h-4v1.134h4v2.03H15.134V.742H26.95V-.434H21.644ZM29.106-9.45l.154,1.54c1.554-.336,4.816-.672,6.23-.826a5.637,5.637,0,0,0-2.38,4.55c0,3.094,2.87,4.564,5.614,4.69L39.242-.98c-2.324-.1-4.7-.952-4.7-3.5a4.642,4.642,0,0,1,3.108-4.214,12.488,12.488,0,0,1,2.716-.21v-1.414c-.966.042-2.366.126-3.864.252-2.576.21-5.068.448-6.09.546C30.142-9.492,29.652-9.464,29.106-9.45ZM54.824-4.914a5.182,5.182,0,0,0-5.488-5.278,6.068,6.068,0,0,0-6.258,5.824c0,2.338,1.274,3.878,2.66,3.878s2.548-1.582,3.388-4.438a27.877,27.877,0,0,0,.84-3.934,3.722,3.722,0,0,1,3.388,3.906A4.027,4.027,0,0,1,49.966-.98a8.653,8.653,0,0,1-1.246.2L49.546.532C52.948.042,54.824-1.974,54.824-4.914Zm-10.332.406a4.68,4.68,0,0,1,3.99-4.326,22.289,22.289,0,0,1-.77,3.612c-.644,2.156-1.3,3.066-1.932,3.066C45.178-2.156,44.492-2.9,44.492-4.508ZM59.724-1.274V-4.83h6.594v3.556Zm6.594-8.26v3.416H59.724V-9.534ZM58.394-10.85V.952h1.33V.042h6.594V.9H67.7V-10.85ZM96.6-10.92H85.4V.28H96.6ZM85.96-.28V-10.36H96.04V-.28ZM102.032-4.4a18.236,18.236,0,0,0,.126-2.072h6.02V-4.4Zm6.146-5.39v2.072h-6.02V-9.786Zm1.372-1.26h-8.722v4.4c0,2.2-.21,4.942-2.394,6.818a4.94,4.94,0,0,1,.994.952,7.732,7.732,0,0,0,2.394-4.256h6.356v2.45c0,.294-.112.406-.42.406-.336.014-1.456.028-2.548-.028a5.449,5.449,0,0,1,.56,1.372,9.248,9.248,0,0,0,3-.266c.56-.21.784-.616.784-1.456Zm29.05.126H127.4V.28h11.2ZM127.96-.28V-10.36h10.08V-.28Zm19.67-11.27h-1.4v4.424c0,1.82-1.078,5.432-5.558,7.14a5.887,5.887,0,0,1,.91,1.092,8.84,8.84,0,0,0,5.348-5.824,8.972,8.972,0,0,0,5.53,5.824,6.258,6.258,0,0,1,.9-1.2c-4.606-1.666-5.726-5.208-5.726-7.042Zm3.71,2.562a22.309,22.309,0,0,1-1.946,3.878l1.106.518a38.654,38.654,0,0,0,2.268-3.836Zm-8.624.028a5.592,5.592,0,0,1-1.75,3.85l1.162.756c1.218-.952,1.666-2.632,1.89-4.326ZM180.6-10.92H169.4V.28h11.2ZM169.96-.28V-10.36h10.08V-.28Zm16.954-8.036-.252.056h-3.836v1.316h3.36a9.381,9.381,0,0,1-3.752,5.74A5.262,5.262,0,0,1,183.5-.182c2.016-1.414,3.626-4.088,4.3-7.812ZM193.9-9.534a24.3,24.3,0,0,1-3.094,3.3,19.171,19.171,0,0,1-1.078-3.01v-2.492h-1.372V-.658c0,.252-.112.35-.392.35s-1.162.014-2.114-.028a6.117,6.117,0,0,1,.5,1.442,7.716,7.716,0,0,0,2.66-.266c.5-.238.714-.644.714-1.5V-5.824A11.016,11.016,0,0,0,194.572.07a5.681,5.681,0,0,1,1.008-1.2,9.367,9.367,0,0,1-4.214-4.032A32.248,32.248,0,0,0,195.1-8.68ZM12.6,13.08H1.4v11.2H12.6ZM1.96,23.72V13.64H12.04V23.72Zm25.088-6.832V15.6H21.686V12.268H20.3V15.6H14.966v1.288h4.76A14.046,14.046,0,0,1,14.392,22.6a6.516,6.516,0,0,1,.966,1.106A15.176,15.176,0,0,0,20.3,18.344v6.762h1.386v-6.79a16.294,16.294,0,0,0,4.928,5.348,5.3,5.3,0,0,1,.966-1.12,15.024,15.024,0,0,1-5.362-5.656ZM54.6,13.08H43.4v11.2H54.6ZM43.96,23.72V13.64H54.04V23.72Zm16.086-7.28a15,15,0,0,0,2.9-2.94,15.661,15.661,0,0,0,3.038,2.94Zm3.57,3.934H68.18v-1.12H63.616V17.588h2.842v-.8a17.676,17.676,0,0,0,2.24,1.386,7.411,7.411,0,0,1,.84-1.162,15.413,15.413,0,0,1-5.992-4.788h-1.33A15.028,15.028,0,0,1,56.5,17.182a5.045,5.045,0,0,1,.812,1.05A19.684,19.684,0,0,0,59.5,16.86v.728h2.744v1.666H57.778v1.12h4.466v3.178H57.106v1.134h11.8V23.552H63.616ZM58.8,21A9.119,9.119,0,0,1,60.032,23.5l1.134-.5a9.113,9.113,0,0,0-1.3-2.408ZM65.506,23.5A24.843,24.843,0,0,0,67.2,21.032l-1.246-.462a15.49,15.49,0,0,1-1.414,2.492ZM96.6,13.08H85.4v11.2H96.6ZM85.96,23.72V13.64H96.04V23.72Zm19.712-.5V17.924h4.69V16.65h-4.69V12.282h-1.386V16.65h-4.62v1.274h4.62v5.292H98.77V24.49h12.5V23.216ZM138.6,13.08H127.4v11.2h11.2ZM127.96,23.72V13.64h10.08V23.72Zm15.764-.994V19.17h6.594v3.556Zm6.594-8.26v3.416h-6.594V14.466Zm-7.924-1.316v11.8h1.33v-.91h6.594V24.9H151.7V13.15Z" transform="translate(646 4224)" fill="#666"/>
      <path id="Path_35948" data-name="Path 35948" d="M3.178-9.982v1.456c1.12.084,2.338.154,3.766.154,1.3,0,2.926-.1,3.892-.168V-10c-1.036.1-2.548.2-3.906.2A32.144,32.144,0,0,1,3.178-9.982Zm.84,5.768L2.576-4.34A8.576,8.576,0,0,0,2.3-2.366C2.3-.532,3.92.462,6.93.462a20.052,20.052,0,0,0,4.8-.49l-.014-1.54a17.958,17.958,0,0,1-4.844.56c-2.142,0-3.122-.7-3.122-1.694A4.99,4.99,0,0,1,4.018-4.214Zm22.806-.7a5.182,5.182,0,0,0-5.488-5.278,6.068,6.068,0,0,0-6.258,5.824c0,2.338,1.274,3.878,2.66,3.878s2.548-1.582,3.388-4.438a27.877,27.877,0,0,0,.84-3.934,3.722,3.722,0,0,1,3.388,3.906A4.027,4.027,0,0,1,21.966-.98a8.653,8.653,0,0,1-1.246.2L21.546.532C24.948.042,26.824-1.974,26.824-4.914Zm-10.332.406a4.68,4.68,0,0,1,3.99-4.326,22.289,22.289,0,0,1-.77,3.612c-.644,2.156-1.3,3.066-1.932,3.066C17.178-2.156,16.492-2.9,16.492-4.508Zm15.764-6.4-.8,1.2c.868.49,2.366,1.484,3.08,2l.826-1.2C34.706-9.38,33.124-10.416,32.256-10.906ZM29.946-.924,30.772.518A16.4,16.4,0,0,0,35.42-1.218,16.666,16.666,0,0,0,40.894-6.23L40.04-7.714A14.4,14.4,0,0,1,34.678-2.52,15.374,15.374,0,0,1,29.946-.924Zm.182-6.8-.8,1.2a35.037,35.037,0,0,1,3.122,1.96l.812-1.246C32.606-6.272,31.01-7.266,30.128-7.728ZM54.222-9.31l-1.078-.7a3.567,3.567,0,0,1-.9.1h-6.79a12.556,12.556,0,0,1-1.512-.112v1.568c.35-.028.91-.056,1.512-.056h6.874a9.667,9.667,0,0,1-1.75,4.3A9.235,9.235,0,0,1,45.108-.882l1.2,1.316A10.789,10.789,0,0,0,51.884-3.36,13.879,13.879,0,0,0,53.97-8.5,4.254,4.254,0,0,1,54.222-9.31Zm6.356,8.022A14.656,14.656,0,0,1,60.466.5h1.722a16.4,16.4,0,0,1-.112-1.792V-5.614A36.658,36.658,0,0,1,67.368-3.43L68-4.956A47.456,47.456,0,0,0,62.076-7.2V-9.38c0-.49.056-1.106.1-1.568H60.452a10.135,10.135,0,0,1,.126,1.568Zm11.9-8.806v1.4c.392-.028.812-.042,1.3-.042H75.5v2.7H72.968c-.406,0-1.022-.028-1.414-.07v1.47c.406-.028,1.036-.056,1.414-.056H75.5v2.954c0,1.26.644,2.072,2.954,2.072,1.33,0,2.772-.056,3.794-.126l.084-1.5a30.229,30.229,0,0,1-3.64.2c-1.218,0-1.708-.35-1.708-1.092V-4.69h4.536c.308,0,.868,0,1.232.028L82.74-6.09c-.336.028-.952.056-1.246.056H76.986v-2.7h3.486c.5,0,.854.028,1.2.042v-1.4a9.929,9.929,0,0,1-1.2.056H73.78C73.29-10.038,72.87-10.066,72.478-10.094Zm14.28-.28v1.442c.378-.028.9-.056,1.372-.056h4.718c.448,0,.952.028,1.4.056v-1.442a11.74,11.74,0,0,1-1.4.084H88.116A10.557,10.557,0,0,1,86.758-10.374ZM85.106-6.832v1.456c.392-.028.854-.042,1.274-.042h4.046a6.471,6.471,0,0,1-.84,3.3A5.83,5.83,0,0,1,87-.028l1.288.952A6.846,6.846,0,0,0,91.07-1.694a8.593,8.593,0,0,0,.868-3.724H95.55c.364,0,.84.014,1.176.028V-6.832a8.931,8.931,0,0,1-1.176.07H86.38A12.267,12.267,0,0,1,85.106-6.832Zm9.912-4.606-.9.378a16.71,16.71,0,0,1,1.106,1.932l.924-.392A20.288,20.288,0,0,0,95.018-11.438Zm1.582-.6-.9.378A14.051,14.051,0,0,1,96.852-9.73l.91-.406A17.841,17.841,0,0,0,96.6-12.04ZM105.21-.308l.924.77a4.352,4.352,0,0,1,.532-.35,14.731,14.731,0,0,0,4.774-3.864l-.854-1.2a9.849,9.849,0,0,1-3.808,3.22V-9.478a8.432,8.432,0,0,1,.07-1.12h-1.624a10.261,10.261,0,0,1,.084,1.12V-1.19A4.038,4.038,0,0,1,105.21-.308ZM98.756-.434l1.344.9a7.865,7.865,0,0,0,2.492-3.92,30.671,30.671,0,0,0,.434-5.978,10.479,10.479,0,0,1,.07-1.12h-1.624a4.363,4.363,0,0,1,.112,1.134,24.275,24.275,0,0,1-.406,5.586A6.48,6.48,0,0,1,98.756-.434Zm19.852-10.71-1.456-.112a6.972,6.972,0,0,1-.322,1.666c-.28.014-.56.014-.826.014A18.1,18.1,0,0,1,113.6-9.73v1.316c.784.056,1.75.084,2.338.084h.406a14.066,14.066,0,0,1-3.164,4.088l1.2.9a15.228,15.228,0,0,1,1.274-1.5,3.568,3.568,0,0,1,2.324-1.008,1.127,1.127,0,0,1,1.148.7c-1.624.826-3.3,1.918-3.3,3.64s1.624,2.226,3.71,2.226a35.651,35.651,0,0,0,3.892-.252l.042-1.414a23.84,23.84,0,0,1-3.892.364c-1.414,0-2.324-.2-2.324-1.148,0-.826.756-1.47,1.96-2.128-.014.686-.028,1.484-.056,1.974h1.33c-.014-.672-.028-1.792-.042-2.59.98-.448,1.89-.812,2.6-1.092.42-.168,1.022-.392,1.428-.518L123.9-7.378c-.448.224-.854.406-1.33.616-.658.308-1.372.6-2.24,1.008a1.843,1.843,0,0,0-1.876-1.19,4.112,4.112,0,0,0-1.792.42,11.234,11.234,0,0,0,1.078-1.848,43.257,43.257,0,0,0,4.606-.364v-1.3a32.277,32.277,0,0,1-4.116.406C118.412-10.234,118.524-10.752,118.608-11.144Zm9.7,1.4V-8.19c.364-.028,1.078-.056,1.624-.056h6.538V-2h-6.706c-.6,0-1.218-.042-1.624-.07V-.49c.406-.028,1.106-.056,1.68-.056h6.636c0,.294-.014.56-.014.756h1.6c-.028-.308-.056-.994-.056-1.484V-8.512c0-.364.014-.868.028-1.176-.252.014-.742.028-1.12.028h-6.958C129.472-9.66,128.8-9.7,128.31-9.744Zm22.4-.1a.887.887,0,0,1,.882-.882.885.885,0,0,1,.868.882.872.872,0,0,1-.868.868A.875.875,0,0,1,150.71-9.842Zm-.742,0a1.633,1.633,0,0,0,.462,1.134,7.413,7.413,0,0,1-1.33.672A38.444,38.444,0,0,1,143.99-6.4V-9.324a12.7,12.7,0,0,1,.084-1.288h-1.638a8.357,8.357,0,0,1,.1,1.288v7.658c0,1.176.644,1.736,1.778,1.946a15.255,15.255,0,0,0,2.3.14,41,41,0,0,0,4.914-.28V-1.47a23.381,23.381,0,0,1-4.83.462,12.073,12.073,0,0,1-1.75-.1c-.658-.14-.952-.308-.952-.98V-4.942A54.117,54.117,0,0,0,149.6-6.706c.448-.168,1.008-.42,1.47-.6l-.588-1.358a1.63,1.63,0,0,0,1.106.434,1.61,1.61,0,0,0,1.61-1.61,1.622,1.622,0,0,0-1.61-1.624A1.625,1.625,0,0,0,149.968-9.842Zm5.39,3.6v1.736c.476-.042,1.316-.07,2.086-.07h7.616c.616,0,1.26.056,1.568.07V-6.244c-.35.028-.9.084-1.568.084h-7.616C156.688-6.16,155.82-6.216,155.358-6.244Zm19.866-3.682c.1.28.224.644.364,1.078a28.885,28.885,0,0,1-5.474-.182l.028,1.414a36.814,36.814,0,0,0,5.936.042A19.265,19.265,0,0,0,177.6-4.662c-.476-.056-1.47-.14-2.212-.2l-.1,1.162a33.573,33.573,0,0,1,3.528.42l.7-1.008a6.631,6.631,0,0,1-.672-.826,15.6,15.6,0,0,1-1.442-2.6,24.129,24.129,0,0,0,2.73-.546l-.168-1.4a17.3,17.3,0,0,1-3.024.672,15.225,15.225,0,0,1-.6-2.31l-1.512.182C174.986-10.7,175.126-10.234,175.224-9.926Zm-2.66,5.488-1.386-.308a5.5,5.5,0,0,0-.7,2.45c0,1.946,1.736,2.968,4.48,2.982A19.122,19.122,0,0,0,178.64.378l.07-1.4a17.7,17.7,0,0,1-3.668.336c-2.016-.014-3.15-.56-3.15-1.82A3.543,3.543,0,0,1,172.564-4.438Zm19.95-6.44h-1.5a9.25,9.25,0,0,1,.1,1.148v1.82c-1.4.126-2.926.266-4.214.392.014-.672.014-1.26.014-1.652a11.061,11.061,0,0,1,.07-1.274H185.43a8.316,8.316,0,0,1,.1,1.344v1.708c-.588.056-1.05.1-1.358.126-.588.056-1.162.084-1.582.084l.154,1.428c.364-.056,1.092-.154,1.526-.21.308-.042.742-.084,1.26-.14,0,1.344,0,2.786.014,3.388.056,2.31.42,3.066,3.822,3.066A39.408,39.408,0,0,0,193.41.112l.042-1.5a26.133,26.133,0,0,1-4.172.35c-2.282,0-2.338-.448-2.38-1.89-.028-.574-.014-1.96,0-3.332,1.3-.14,2.828-.28,4.186-.392a19.949,19.949,0,0,1-.14,2.03c-.028.308-.168.364-.49.364a8.156,8.156,0,0,1-1.344-.182l-.028,1.218a16.49,16.49,0,0,0,1.96.21c.672,0,.994-.182,1.134-.854a21.323,21.323,0,0,0,.21-2.884c.518-.028.98-.056,1.344-.056s.98-.028,1.218-.014V-8.19c-.364.028-.84.07-1.2.084-.392.028-.854.056-1.33.1.014-.56.014-1.162.028-1.764A8.319,8.319,0,0,1,192.514-10.878Zm11.466,7.5-1.3-.126a8.228,8.228,0,0,0-.238,1.75c0,1.386,1.232,2.128,3.514,2.128a21.617,21.617,0,0,0,2.772-.2l.042-1.414a15.821,15.821,0,0,1-2.8.28c-1.792,0-2.17-.574-2.17-1.2A5.14,5.14,0,0,1,203.98-3.374Zm-1.6-7.714-1.68-.126a5.727,5.727,0,0,1-.056,1.26c-.028.266-.1.63-.168,1.05-.49.042-.966.056-1.4.056a13.193,13.193,0,0,1-1.708-.112l.028,1.372c.5.042,1.022.056,1.666.056.35,0,.728-.014,1.134-.028-.112.462-.224.924-.336,1.358A32.38,32.38,0,0,1,197.484.07l1.526.518a42.29,42.29,0,0,0,2.212-6.44c.154-.588.308-1.232.448-1.834a25.084,25.084,0,0,0,2.814-.476V-9.548a24.565,24.565,0,0,1-2.534.49c.07-.308.126-.588.168-.826C202.174-10.164,202.3-10.738,202.384-11.088Zm1.106,4.256v1.3a23.561,23.561,0,0,1,2.646-.154,17.692,17.692,0,0,1,2.38.182l.042-1.344a23.729,23.729,0,0,0-2.45-.112C205.212-6.958,204.246-6.9,203.49-6.832Zm9.856-3.038L211.638-9.9a7.163,7.163,0,0,1,.112,1.316c0,.84.014,2.52.154,3.752C212.282-1.148,213.584.2,215,.2c1.022,0,1.89-.826,2.772-3.22l-1.106-1.3c-.322,1.274-.938,2.8-1.638,2.8-.938,0-1.512-1.484-1.722-3.682a31.345,31.345,0,0,1-.1-3.15A11.461,11.461,0,0,1,213.346-9.87Zm7.168.35-1.386.462c1.414,1.68,2.212,4.788,2.45,7.2l1.442-.56A15.25,15.25,0,0,0,220.514-9.52Zm7.21,8.246V-4.83h6.594v3.556Zm6.594-8.26v3.416h-6.594V-9.534Zm-7.924-1.316V.952h1.33V.042h6.594V.9H235.7V-10.85Z" transform="translate(646 4164)" fill="#111"/>
      <g id="Group_23528" data-name="Group 23528" transform="translate(10 44)">
        <path id="Path_35954" data-name="Path 35954" d="M6.5-4.83A4.289,4.289,0,0,0,9.73-3.318a4.251,4.251,0,0,0,3.71-2.506L12.208-6.5A2.92,2.92,0,0,1,9.744-4.718,2.9,2.9,0,0,1,7.5-5.81,4.289,4.289,0,0,0,4.27-7.322,4.251,4.251,0,0,0,.56-4.816l1.232.672A2.92,2.92,0,0,1,4.256-5.922,2.9,2.9,0,0,1,6.5-4.83Z" transform="translate(764 4150)" fill="#666"/>
        <g id="Rectangle_14065" data-name="Rectangle 14065" transform="translate(636 4134)" fill="#fff" stroke="#666" stroke-width="1">
          <rect width="120" height="20" stroke="none"/>
          <rect x="0.5" y="0.5" width="119" height="19" fill="none"/>
        </g>
        <g id="Rectangle_14066" data-name="Rectangle 14066" transform="translate(786 4134)" fill="#fff" stroke="#666" stroke-width="1">
          <rect width="120" height="20" stroke="none"/>
          <rect x="0.5" y="0.5" width="119" height="19" fill="none"/>
        </g>
      </g>
    </g>
  </g>
</svg>
