<svg xmlns="http://www.w3.org/2000/svg" width="346" height="259.5" viewBox="0 0 346 259.5">
  <g id="Group_23576" data-name="Group 23576" transform="translate(-787 -7509)">
    <rect id="Rectangle_13557" data-name="Rectangle 13557" width="346" height="259.5" transform="translate(787 7509)" fill="#f4f4f4"/>
    <g id="Group_21747" data-name="Group 21747" transform="translate(-1654.275 8394.27)">
      <g id="Group_21616" data-name="Group 21616" transform="translate(2523.275 -833.773)">
        <g id="Group_21604" data-name="Group 21604">
          <g id="Group_21596" data-name="Group 21596">
            <g id="Group_21592" data-name="Group 21592" transform="translate(1.316 1.317)">
              <g id="Group_21591" data-name="Group 21591">
                <g id="Group_21590" data-name="Group 21590">
                  <path id="Path_35234" data-name="Path 35234" d="M2630.729-815.7v142.439a16.77,16.77,0,0,1-16.77,16.77h-72.6a16.678,16.678,0,0,1-10.088-3.378,16.738,16.738,0,0,1-6.679-13.392V-815.7a16.769,16.769,0,0,1,16.768-16.767h72.6A16.769,16.769,0,0,1,2630.729-815.7Z" transform="translate(-2524.59 832.468)" fill="#fff"/>
                </g>
              </g>
            </g>
            <g id="Group_21595" data-name="Group 21595">
              <g id="Group_21594" data-name="Group 21594">
                <g id="Group_21593" data-name="Group 21593">
                  <path id="Path_35235" data-name="Path 35235" d="M2613.96-655.175h-72.6a18.1,18.1,0,0,1-18.085-18.085V-815.7a18.105,18.105,0,0,1,18.085-18.085h72.6a18.105,18.105,0,0,1,18.084,18.085V-673.26A18.1,18.1,0,0,1,2613.96-655.175Zm-72.6-175.978a15.472,15.472,0,0,0-15.454,15.454V-673.26a15.472,15.472,0,0,0,15.454,15.454h72.6a15.472,15.472,0,0,0,15.454-15.454V-815.7a15.472,15.472,0,0,0-15.454-15.454Z" transform="translate(-2523.275 833.784)" fill="#265b7f"/>
                </g>
              </g>
            </g>
          </g>
          <g id="Group_21598" data-name="Group 21598" transform="translate(29.592 1.315)">
            <g id="Group_21597" data-name="Group 21597">
              <path id="Rectangle_13569" data-name="Rectangle 13569" d="M0,0H55.106a0,0,0,0,1,0,0V10.492a.236.236,0,0,1-.236.236H.236A.236.236,0,0,1,0,10.492V0A0,0,0,0,1,0,0Z" fill="#265b7f"/>
            </g>
          </g>
          <g id="Group_21601" data-name="Group 21601" transform="translate(46.908 6.022)">
            <g id="Group_21600" data-name="Group 21600">
              <g id="Group_21599" data-name="Group 21599">
                <rect id="Rectangle_13570" data-name="Rectangle 13570" width="20.475" height="1.315" fill="#fff"/>
              </g>
            </g>
          </g>
          <g id="Group_21603" data-name="Group 21603" transform="translate(76.572 5.064)">
            <g id="Group_21602" data-name="Group 21602">
              <circle id="Ellipse_808" data-name="Ellipse 808" cx="1.616" cy="1.616" r="1.616" fill="#fff"/>
            </g>
          </g>
        </g>
        <g id="Group_21615" data-name="Group 21615" transform="translate(8.841 20.539)">
          <g id="Group_21606" data-name="Group 21606" transform="translate(0)">
            <g id="Group_21605" data-name="Group 21605">
              <rect id="Rectangle_13571" data-name="Rectangle 13571" width="91.09" height="32.701" rx="3.078" fill="#6ab82d"/>
            </g>
          </g>
          <g id="Group_21608" data-name="Group 21608" transform="translate(0 37.321)">
            <g id="Group_21607" data-name="Group 21607">
              <rect id="Rectangle_13572" data-name="Rectangle 13572" width="91.09" height="32.701" rx="3.078" fill="#e5e6eb"/>
            </g>
          </g>
          <g id="Group_21610" data-name="Group 21610" transform="translate(0 74.642)">
            <g id="Group_21609" data-name="Group 21609">
              <path id="Path_35236" data-name="Path 35236" d="M2534.057-738.653h40.193c1.075,0,1.947,1.379,1.947,3.08v16.7c0,1.7-.872,3.08-1.947,3.08h-40.193c-1.074,0-1.946-1.379-1.946-3.08v-16.7C2532.111-737.274,2532.982-738.653,2534.057-738.653Z" transform="translate(-2532.111 738.653)" fill="#e5e6eb"/>
            </g>
          </g>
          <g id="Group_21612" data-name="Group 21612" transform="translate(47.005 74.642)">
            <g id="Group_21611" data-name="Group 21611">
              <path id="Path_35237" data-name="Path 35237" d="M2623.175-735.573v16.7c0,1.7-.872,3.08-1.946,3.08h-40.193c-1.074,0-1.946-1.379-1.946-3.08v-16.7c0-1.7.871-3.08,1.946-3.08h40.193C2622.3-738.653,2623.175-737.274,2623.175-735.573Z" transform="translate(-2579.091 738.653)" fill="#e5e6eb"/>
            </g>
          </g>
          <g id="Group_21614" data-name="Group 21614" transform="translate(0 102.12)">
            <g id="Group_21613" data-name="Group 21613">
              <rect id="Rectangle_13573" data-name="Rectangle 13573" width="91.09" height="42.545" rx="3.078" fill="#e5e6eb"/>
            </g>
          </g>
        </g>
      </g>
      <g id="Group_21670" data-name="Group 21670" transform="translate(2591.879 -855.27)">
        <g id="Group_21617" data-name="Group 21617" transform="translate(0 2.881)">
          <rect id="Rectangle_13574" data-name="Rectangle 13574" width="71.78" height="64.715" rx="3.171" fill="#265b7f"/>
        </g>
        <g id="Group_21618" data-name="Group 21618" transform="translate(2.379 15.969)">
          <rect id="Rectangle_13575" data-name="Rectangle 13575" width="49.247" height="67.021" transform="translate(67.021 0) rotate(90)" fill="#fff"/>
        </g>
        <g id="Group_21654" data-name="Group 21654" transform="translate(5.552 19.142)">
          <g id="Group_21619" data-name="Group 21619">
            <rect id="Rectangle_13576" data-name="Rectangle 13576" width="7.355" height="7.355" fill="#e5e6eb"/>
          </g>
          <g id="Group_21620" data-name="Group 21620" transform="translate(8.887)">
            <rect id="Rectangle_13577" data-name="Rectangle 13577" width="7.355" height="7.355" fill="#e5e6eb"/>
          </g>
          <g id="Group_21621" data-name="Group 21621" transform="translate(17.774)">
            <rect id="Rectangle_13578" data-name="Rectangle 13578" width="7.355" height="7.355" fill="#0181c0"/>
          </g>
          <g id="Group_21622" data-name="Group 21622" transform="translate(26.661)">
            <rect id="Rectangle_13579" data-name="Rectangle 13579" width="7.355" height="7.355" fill="#0181c0"/>
          </g>
          <g id="Group_21623" data-name="Group 21623" transform="translate(35.548)">
            <rect id="Rectangle_13580" data-name="Rectangle 13580" width="7.355" height="7.355" fill="#0181c0"/>
          </g>
          <g id="Group_21624" data-name="Group 21624" transform="translate(44.435)">
            <rect id="Rectangle_13581" data-name="Rectangle 13581" width="7.355" height="7.355" fill="#0181c0"/>
          </g>
          <g id="Group_21625" data-name="Group 21625" transform="translate(53.322)">
            <rect id="Rectangle_13582" data-name="Rectangle 13582" width="7.355" height="7.355" fill="#0181c0"/>
          </g>
          <g id="Group_21626" data-name="Group 21626" transform="translate(0 8.887)">
            <rect id="Rectangle_13583" data-name="Rectangle 13583" width="7.355" height="7.355" fill="#0181c0"/>
          </g>
          <g id="Group_21627" data-name="Group 21627" transform="translate(8.887 8.887)">
            <rect id="Rectangle_13584" data-name="Rectangle 13584" width="7.355" height="7.355" fill="#0181c0"/>
          </g>
          <g id="Group_21628" data-name="Group 21628" transform="translate(17.774 8.887)">
            <rect id="Rectangle_13585" data-name="Rectangle 13585" width="7.355" height="7.355" fill="#0181c0"/>
          </g>
          <g id="Group_21629" data-name="Group 21629" transform="translate(26.661 8.887)">
            <rect id="Rectangle_13586" data-name="Rectangle 13586" width="7.355" height="7.355" fill="#0181c0"/>
          </g>
          <g id="Group_21630" data-name="Group 21630" transform="translate(35.548 8.887)">
            <rect id="Rectangle_13587" data-name="Rectangle 13587" width="7.355" height="7.355" fill="#6ab82d"/>
          </g>
          <g id="Group_21631" data-name="Group 21631" transform="translate(44.435 8.887)">
            <rect id="Rectangle_13588" data-name="Rectangle 13588" width="7.355" height="7.355" fill="#0181c0"/>
          </g>
          <g id="Group_21632" data-name="Group 21632" transform="translate(53.322 8.887)">
            <rect id="Rectangle_13589" data-name="Rectangle 13589" width="7.355" height="7.355" fill="#0181c0"/>
          </g>
          <g id="Group_21633" data-name="Group 21633" transform="translate(0 17.774)">
            <rect id="Rectangle_13590" data-name="Rectangle 13590" width="7.355" height="7.355" fill="#0181c0"/>
          </g>
          <g id="Group_21634" data-name="Group 21634" transform="translate(8.887 17.774)">
            <rect id="Rectangle_13591" data-name="Rectangle 13591" width="7.355" height="7.355" fill="#0181c0"/>
          </g>
          <g id="Group_21635" data-name="Group 21635" transform="translate(17.774 17.774)">
            <rect id="Rectangle_13592" data-name="Rectangle 13592" width="7.355" height="7.355" fill="#0181c0"/>
          </g>
          <g id="Group_21636" data-name="Group 21636" transform="translate(26.661 17.774)">
            <rect id="Rectangle_13593" data-name="Rectangle 13593" width="7.355" height="7.355" fill="#0181c0"/>
          </g>
          <g id="Group_21637" data-name="Group 21637" transform="translate(35.548 17.774)">
            <rect id="Rectangle_13594" data-name="Rectangle 13594" width="7.355" height="7.355" fill="#0181c0"/>
          </g>
          <g id="Group_21638" data-name="Group 21638" transform="translate(44.435 17.774)">
            <rect id="Rectangle_13595" data-name="Rectangle 13595" width="7.355" height="7.355" fill="#0181c0"/>
          </g>
          <g id="Group_21639" data-name="Group 21639" transform="translate(53.322 17.774)">
            <rect id="Rectangle_13596" data-name="Rectangle 13596" width="7.355" height="7.355" fill="#0181c0"/>
          </g>
          <g id="Group_21640" data-name="Group 21640" transform="translate(0 26.661)">
            <rect id="Rectangle_13597" data-name="Rectangle 13597" width="7.355" height="7.355" fill="#0181c0"/>
          </g>
          <g id="Group_21641" data-name="Group 21641" transform="translate(8.887 26.661)">
            <rect id="Rectangle_13598" data-name="Rectangle 13598" width="7.355" height="7.355" fill="#0181c0"/>
          </g>
          <g id="Group_21642" data-name="Group 21642" transform="translate(17.774 26.661)">
            <rect id="Rectangle_13599" data-name="Rectangle 13599" width="7.355" height="7.355" fill="#0181c0"/>
          </g>
          <g id="Group_21643" data-name="Group 21643" transform="translate(26.661 26.661)">
            <rect id="Rectangle_13600" data-name="Rectangle 13600" width="7.355" height="7.355" fill="#0181c0"/>
          </g>
          <g id="Group_21644" data-name="Group 21644" transform="translate(35.548 26.661)">
            <rect id="Rectangle_13601" data-name="Rectangle 13601" width="7.355" height="7.355" fill="#0181c0"/>
          </g>
          <g id="Group_21645" data-name="Group 21645" transform="translate(44.435 26.661)">
            <rect id="Rectangle_13602" data-name="Rectangle 13602" width="7.355" height="7.355" fill="#0181c0"/>
          </g>
          <g id="Group_21646" data-name="Group 21646" transform="translate(53.322 26.661)">
            <rect id="Rectangle_13603" data-name="Rectangle 13603" width="7.355" height="7.355" fill="#0181c0"/>
          </g>
          <g id="Group_21647" data-name="Group 21647" transform="translate(0 35.548)">
            <rect id="Rectangle_13604" data-name="Rectangle 13604" width="7.355" height="7.355" fill="#0181c0"/>
          </g>
          <g id="Group_21648" data-name="Group 21648" transform="translate(8.887 35.548)">
            <rect id="Rectangle_13605" data-name="Rectangle 13605" width="7.355" height="7.355" fill="#0181c0"/>
          </g>
          <g id="Group_21649" data-name="Group 21649" transform="translate(17.774 35.548)">
            <rect id="Rectangle_13606" data-name="Rectangle 13606" width="7.355" height="7.355" fill="#0181c0"/>
          </g>
          <g id="Group_21650" data-name="Group 21650" transform="translate(26.661 35.548)">
            <rect id="Rectangle_13607" data-name="Rectangle 13607" width="7.355" height="7.355" fill="#0181c0"/>
          </g>
          <g id="Group_21651" data-name="Group 21651" transform="translate(35.548 35.548)">
            <rect id="Rectangle_13608" data-name="Rectangle 13608" width="7.355" height="7.355" fill="#0181c0"/>
          </g>
          <g id="Group_21652" data-name="Group 21652" transform="translate(44.435 35.548)">
            <rect id="Rectangle_13609" data-name="Rectangle 13609" width="7.355" height="7.355" fill="#e5e6eb"/>
          </g>
          <g id="Group_21653" data-name="Group 21653" transform="translate(53.322 35.548)">
            <rect id="Rectangle_13610" data-name="Rectangle 13610" width="7.355" height="7.355" fill="#e5e6eb"/>
          </g>
        </g>
        <g id="Group_21669" data-name="Group 21669" transform="translate(8.212)">
          <g id="Group_21655" data-name="Group 21655" transform="translate(0 4.785)">
            <circle id="Ellipse_809" data-name="Ellipse 809" cx="2.168" cy="2.168" r="2.168" fill="#214157"/>
          </g>
          <g id="Group_21656" data-name="Group 21656" transform="translate(10.204 4.785)">
            <circle id="Ellipse_810" data-name="Ellipse 810" cx="2.168" cy="2.168" r="2.168" fill="#214157"/>
          </g>
          <g id="Group_21657" data-name="Group 21657" transform="translate(20.408 4.785)">
            <circle id="Ellipse_811" data-name="Ellipse 811" cx="2.168" cy="2.168" r="2.168" fill="#214157"/>
          </g>
          <g id="Group_21658" data-name="Group 21658" transform="translate(30.612 4.785)">
            <circle id="Ellipse_812" data-name="Ellipse 812" cx="2.168" cy="2.168" r="2.168" fill="#214157"/>
          </g>
          <g id="Group_21659" data-name="Group 21659" transform="translate(40.816 4.785)">
            <circle id="Ellipse_813" data-name="Ellipse 813" cx="2.168" cy="2.168" r="2.168" fill="#214157"/>
          </g>
          <g id="Group_21668" data-name="Group 21668" transform="translate(0.515)">
            <g id="Group_21660" data-name="Group 21660" transform="translate(50.505 4.785)">
              <circle id="Ellipse_814" data-name="Ellipse 814" cx="2.168" cy="2.168" r="2.168" fill="#214157"/>
            </g>
            <g id="Group_21667" data-name="Group 21667">
              <g id="Group_21661" data-name="Group 21661">
                <path id="Path_35238" data-name="Path 35238" d="M2602.218-855.27a1.652,1.652,0,0,0-1.652,1.652v4.626a1.652,1.652,0,0,0,1.652,1.652,1.652,1.652,0,0,0,1.652-1.652v-4.626A1.652,1.652,0,0,0,2602.218-855.27Z" transform="translate(-2600.566 855.27)" fill="#4686b2"/>
              </g>
              <g id="Group_21662" data-name="Group 21662" transform="translate(10.204)">
                <path id="Path_35239" data-name="Path 35239" d="M2612.417-855.27a1.652,1.652,0,0,0-1.652,1.652v4.626a1.652,1.652,0,0,0,1.652,1.652,1.652,1.652,0,0,0,1.652-1.652v-4.626A1.652,1.652,0,0,0,2612.417-855.27Z" transform="translate(-2610.765 855.27)" fill="#4686b2"/>
              </g>
              <g id="Group_21663" data-name="Group 21663" transform="translate(20.409)">
                <path id="Path_35240" data-name="Path 35240" d="M2622.616-855.27a1.652,1.652,0,0,0-1.652,1.652v4.626a1.652,1.652,0,0,0,1.652,1.652,1.652,1.652,0,0,0,1.652-1.652v-4.626A1.652,1.652,0,0,0,2622.616-855.27Z" transform="translate(-2620.964 855.27)" fill="#4686b2"/>
              </g>
              <g id="Group_21664" data-name="Group 21664" transform="translate(30.612)">
                <path id="Path_35241" data-name="Path 35241" d="M2632.814-855.27a1.652,1.652,0,0,0-1.652,1.652v4.626a1.652,1.652,0,0,0,1.652,1.652,1.652,1.652,0,0,0,1.652-1.652v-4.626A1.652,1.652,0,0,0,2632.814-855.27Z" transform="translate(-2631.162 855.27)" fill="#4686b2"/>
              </g>
              <g id="Group_21665" data-name="Group 21665" transform="translate(40.817)">
                <path id="Path_35242" data-name="Path 35242" d="M2643.013-855.27a1.652,1.652,0,0,0-1.652,1.652v4.626a1.652,1.652,0,0,0,1.652,1.652,1.652,1.652,0,0,0,1.652-1.652v-4.626A1.652,1.652,0,0,0,2643.013-855.27Z" transform="translate(-2641.361 855.27)" fill="#4686b2"/>
              </g>
              <g id="Group_21666" data-name="Group 21666" transform="translate(51.021)">
                <path id="Path_35243" data-name="Path 35243" d="M2653.212-855.27a1.652,1.652,0,0,0-1.652,1.652v4.626a1.652,1.652,0,0,0,1.652,1.652,1.652,1.652,0,0,0,1.652-1.652v-4.626A1.652,1.652,0,0,0,2653.212-855.27Z" transform="translate(-2651.56 855.27)" fill="#4686b2"/>
              </g>
            </g>
          </g>
        </g>
      </g>
      <g id="Group_21746" data-name="Group 21746" transform="translate(2648.49 -820.031)">
        <g id="Group_21675" data-name="Group 21675" transform="translate(0 23.51)">
          <g id="Group_21672" data-name="Group 21672" transform="translate(7.021 0.527)">
            <g id="Group_21671" data-name="Group 21671">
              <path id="Path_35244" data-name="Path 35244" d="M2645.447-796.025l2.582,12.633,1.252.094-2.58-12.633Z" transform="translate(-2645.447 796.025)" fill="#0181c0"/>
            </g>
          </g>
          <g id="Group_21674" data-name="Group 21674">
            <g id="Group_21673" data-name="Group 21673">
              <path id="Path_35245" data-name="Path 35245" d="M2638.429-796.552l2.582,12.633,7.021.527-2.582-12.633Z" transform="translate(-2638.429 796.552)" fill="#050f64"/>
            </g>
          </g>
        </g>
        <g id="Group_21683" data-name="Group 21683" transform="translate(2.303 22.954)">
          <g id="Group_21682" data-name="Group 21682">
            <g id="Group_21677" data-name="Group 21677" transform="translate(0.776 0.246)">
              <g id="Group_21676" data-name="Group 21676">
                <path id="Path_35246" data-name="Path 35246" d="M2643.213-790.814a1.555,1.555,0,0,1,1.631,1.185,24.037,24.037,0,0,0,1.136,5.483,11.421,11.421,0,0,0,1.081,2.307l.16.252.17.237c.109.162.235.3.35.445a5.6,5.6,0,0,0,.759.727,4.176,4.176,0,0,0,.809.507,3.908,3.908,0,0,0,.859.3c.143.043.3.057.45.087.16.012.309.039.475.039a6.344,6.344,0,0,0,1-.034,10.5,10.5,0,0,0,2.187-.514,17.6,17.6,0,0,0,2.282-.993,31.625,31.625,0,0,0,4.494-2.9q1.1-.837,2.162-1.745c.707-.611,1.411-1.229,2.1-1.878a97.646,97.646,0,0,0,7.852-8.362,3.9,3.9,0,0,1,3.353-1.174,6.7,6.7,0,0,1,3.922,1.844h0a6.283,6.283,0,0,1,2.012,3.851,4.076,4.076,0,0,1-1.27,3.536,107.551,107.551,0,0,1-10.132,7.675c-.892.593-1.811,1.163-2.737,1.721s-1.883,1.087-2.854,1.6a39.077,39.077,0,0,1-6.2,2.631,24.411,24.411,0,0,1-3.458.831,16.7,16.7,0,0,1-3.788.179,12.254,12.254,0,0,1-1.994-.313c-.333-.072-.667-.184-1-.288-.329-.125-.658-.239-.976-.4a9.818,9.818,0,0,1-3.32-2.5,10.922,10.922,0,0,1-1.151-1.6c-.153-.278-.317-.553-.444-.835l-.2-.42-.176-.422a16.07,16.07,0,0,1-.928-3.365,27.889,27.889,0,0,1-.25-6.467A1.487,1.487,0,0,1,2643.213-790.814Z" transform="translate(-2641.506 796.862)" fill="#ea8096"/>
              </g>
            </g>
            <g id="Group_21679" data-name="Group 21679" transform="translate(0.374)">
              <g id="Group_21678" data-name="Group 21678">
                <path id="Path_35247" data-name="Path 35247" d="M2682.668-791.106a7.133,7.133,0,0,0-2.224-3.894h0a7.645,7.645,0,0,0-3.976-2.049,3.417,3.417,0,0,0-3.209.942c-2.233,2.583-4.55,5.07-6.976,7.373q-1.817,1.73-3.722,3.282a41.739,41.739,0,0,1-3.884,2.823,22.455,22.455,0,0,1-3.955,2.041,8.841,8.841,0,0,1-3.526.683,3.851,3.851,0,0,1-1.345-.3,3.846,3.846,0,0,1-1.2-.827,8.8,8.8,0,0,1-1.914-3.451l-5.634,1.353a17.875,17.875,0,0,0,.813,3.084,13.064,13.064,0,0,0,1.609,3.095,10.745,10.745,0,0,0,2.749,2.683,10.868,10.868,0,0,0,3.607,1.55,13.775,13.775,0,0,0,3.657.335,19.325,19.325,0,0,0,3.351-.438,30.408,30.408,0,0,0,5.9-2,50.448,50.448,0,0,0,5.22-2.749q2.491-1.492,4.806-3.148c3.1-2.2,6.012-4.557,8.824-7A3.577,3.577,0,0,0,2682.668-791.106Z" transform="translate(-2641.105 797.108)" fill="#265b7f"/>
              </g>
            </g>
            <g id="Group_21681" data-name="Group 21681" transform="translate(0 0.23)">
              <g id="Group_21680" data-name="Group 21680">
                <path id="Path_35248" data-name="Path 35248" d="M2641.105-783.127l4.035-.97-.153-.3-4.256,1.023.052.3a18.025,18.025,0,0,0,.829,3.142,13.518,13.518,0,0,0,1.444,2.871l.34-.077a13.334,13.334,0,0,1-1.477-2.909A17.842,17.842,0,0,1,2641.105-783.127Zm41.886-8.034a7.435,7.435,0,0,0-2.323-4.076,8.56,8.56,0,0,0-2.462-1.641l-.345.214a8.2,8.2,0,0,1,2.583,1.664,8.024,8.024,0,0,1,1.491,1.884,6.2,6.2,0,0,1,.732,2.009,3.582,3.582,0,0,1-1.026,3.386c-2.812,2.445-5.728,4.8-8.824,7q-2.32,1.649-4.805,3.148-.95.569-1.931,1.107l.054.342c.675-.366,1.355-.755,2.045-1.169,1.6-.96,3.227-2.024,4.827-3.162,2.852-2.025,5.744-4.322,8.85-7.024A3.9,3.9,0,0,0,2682.991-791.161Zm-11.292-3.176-.271-.185c-1.842,2.053-3.612,3.881-5.37,5.55-1.218,1.159-2.463,2.257-3.7,3.266a41.437,41.437,0,0,1-3.853,2.8,21.9,21.9,0,0,1-3.9,2.012,9.05,9.05,0,0,1-3.1.671c-.1,0-.193,0-.291-.009a3.565,3.565,0,0,1-1.236-.272,3.494,3.494,0,0,1-1.094-.758,5.959,5.959,0,0,1-.895-1.182l-.33.075a6.358,6.358,0,0,0,1,1.341,3.851,3.851,0,0,0,1.2.828,3.9,3.9,0,0,0,1.344.3,8.849,8.849,0,0,0,3.526-.683,22.532,22.532,0,0,0,3.956-2.041,41.561,41.561,0,0,0,3.884-2.823q1.9-1.546,3.722-3.282C2668.15-790.507,2669.952-792.387,2671.7-794.337Zm-10.44,20.16a27.731,27.731,0,0,1-4.369,1.358,19.123,19.123,0,0,1-3.351.438,13.731,13.731,0,0,1-3.657-.333,10.551,10.551,0,0,1-1.7-.542l-.325.22a11.115,11.115,0,0,0,1.956.639,13.915,13.915,0,0,0,3.156.355q.293,0,.587-.012a19.464,19.464,0,0,0,3.408-.444,28.081,28.081,0,0,0,4.4-1.37Z" transform="translate(-2640.731 796.878)" fill="#0181c0"/>
              </g>
            </g>
          </g>
        </g>
        <g id="Group_21685" data-name="Group 21685" transform="translate(9.433 158.884)">
          <g id="Group_21684" data-name="Group 21684">
            <path id="Path_35249" data-name="Path 35249" d="M2663.079-656.376l-15.221-.719a2.349,2.349,0,0,1,.5-1.406,2.416,2.416,0,0,1,1.565-.74,14.734,14.734,0,0,1,1.771-.019,9.361,9.361,0,0,0,4.186-1,13.953,13.953,0,0,1,2.034-.988l4.143.305a4.755,4.755,0,0,1,1,2.289A8.381,8.381,0,0,1,2663.079-656.376Z" transform="translate(-2647.858 661.25)" fill="#2d3d45"/>
          </g>
        </g>
        <g id="Group_21687" data-name="Group 21687" transform="translate(57.193 154.701)">
          <g id="Group_21686" data-name="Group 21686">
            <path id="Path_35250" data-name="Path 35250" d="M2710.073-661.619l-14.306,5.245a2.344,2.344,0,0,1-.09-1.488,2.415,2.415,0,0,1,1.155-1.29,14.655,14.655,0,0,1,1.626-.7,9.359,9.359,0,0,0,3.469-2.547,14.042,14.042,0,0,1,1.491-1.7l3.937-1.327a4.754,4.754,0,0,1,1.813,1.72A8.4,8.4,0,0,1,2710.073-661.619Z" transform="translate(-2695.592 665.431)" fill="#2d3d45"/>
          </g>
        </g>
        <g id="Group_21689" data-name="Group 21689" transform="translate(18.817 76.963)">
          <g id="Group_21688" data-name="Group 21688">
            <path id="Path_35251" data-name="Path 35251" d="M2661.372-707.275a58.037,58.037,0,0,1,1.067-7.029c1.749-8.133,6.208-28.824,6.208-28.824l32.757,2.616-2.882,30.531,9.241,44.587-4.958,1.918-15.447-44.677c-.033-.119-4.2-17.7-4.2-17.7l-10.018,17.607-10.268,47.4-5.64-.415Z" transform="translate(-2657.236 743.128)" fill="#2d3d45"/>
          </g>
        </g>
        <g id="Group_21710" data-name="Group 21710" transform="translate(41.416 82.456)">
          <g id="Group_21692" data-name="Group 21692" transform="translate(9.172)">
            <g id="Group_21691" data-name="Group 21691">
              <g id="Group_21690" data-name="Group 21690">
                <path id="Path_35252" data-name="Path 35252" d="M2702.324-722.307h-11.641a1.694,1.694,0,0,1-1.692-1.692v-6.125a7.521,7.521,0,0,1,7.512-7.513,7.521,7.521,0,0,1,7.512,7.513V-724A1.693,1.693,0,0,1,2702.324-722.307Zm-11.237-2.1h10.832v-5.721a5.423,5.423,0,0,0-5.416-5.417,5.423,5.423,0,0,0-5.416,5.417Z" transform="translate(-2688.991 737.637)" fill="#265b7f"/>
              </g>
            </g>
          </g>
          <g id="Group_21694" data-name="Group 21694" transform="translate(0 7.905)">
            <g id="Group_21693" data-name="Group 21693">
              <rect id="Rectangle_13611" data-name="Rectangle 13611" width="33.368" height="22.886" rx="2.706" fill="#265b7f"/>
            </g>
          </g>
          <g id="Group_21697" data-name="Group 21697" transform="translate(0 9.87)">
            <g id="Group_21696" data-name="Group 21696">
              <g id="Group_21695" data-name="Group 21695">
                <path id="Path_35253" data-name="Path 35253" d="M2710.689-717.175l-14.182-2.647-14.182,2.647a2.288,2.288,0,0,1-2.5-2.278v-8.318h33.368v8.318A2.288,2.288,0,0,1,2710.689-717.175Z" transform="translate(-2679.824 727.772)" fill="#214157"/>
              </g>
            </g>
          </g>
          <g id="Group_21699" data-name="Group 21699" transform="translate(0 7.905)">
            <g id="Group_21698" data-name="Group 21698">
              <path id="Path_35254" data-name="Path 35254" d="M2679.824-729.736v8.317a2.287,2.287,0,0,0,2.5,2.278l14.182-1.337,14.182,1.337a2.287,2.287,0,0,0,2.5-2.278v-8.317Z" transform="translate(-2679.824 729.736)" fill="#265b7f"/>
            </g>
          </g>
          <g id="Group_21701" data-name="Group 21701" transform="translate(13.998 14.282)">
            <g id="Group_21700" data-name="Group 21700">
              <path id="Path_35255" data-name="Path 35255" d="M2693.814-723.363v4.779a1.417,1.417,0,0,0,1.417,1.416h2.541a1.416,1.416,0,0,0,1.416-1.416v-4.779Z" transform="translate(-2693.814 723.363)" fill="#6ab82d"/>
            </g>
          </g>
          <g id="Group_21703" data-name="Group 21703" transform="translate(15.592 17.47)">
            <g id="Group_21702" data-name="Group 21702">
              <path id="Path_35256" data-name="Path 35256" d="M2696.5-720.176a1.092,1.092,0,0,0-1.092,1.092v2.971a1.092,1.092,0,0,0,1.092,1.092,1.092,1.092,0,0,0,1.092-1.092v-2.971A1.092,1.092,0,0,0,2696.5-720.176Z" transform="translate(-2695.408 720.176)" fill="#6ab82d"/>
            </g>
          </g>
          <g id="Group_21706" data-name="Group 21706" transform="translate(7.491 6.355)">
            <g id="Group_21705" data-name="Group 21705">
              <g id="Group_21704" data-name="Group 21704">
                <rect id="Rectangle_13612" data-name="Rectangle 13612" width="5.241" height="1.55" fill="#6ab82d"/>
              </g>
            </g>
          </g>
          <g id="Group_21709" data-name="Group 21709" transform="translate(20.528 6.355)">
            <g id="Group_21708" data-name="Group 21708">
              <g id="Group_21707" data-name="Group 21707">
                <rect id="Rectangle_13613" data-name="Rectangle 13613" width="5.241" height="1.55" fill="#6ab82d"/>
              </g>
            </g>
          </g>
        </g>
        <g id="Group_21712" data-name="Group 21712" transform="translate(30.229 21.691)">
          <g id="Group_21711" data-name="Group 21711">
            <path id="Path_35257" data-name="Path 35257" d="M2701.4-740.482c-10.979,3.525-20.366,3.5-32.757-2.616l.478-33.216.072-4.27.027-1.568.051-3.019c0-.423.029-.841.072-1.252a13.352,13.352,0,0,1,8.294-10.987,12.664,12.664,0,0,1,1.332-.456,13.291,13.291,0,0,1,4.924-.442q.675.065,1.333.184a16.067,16.067,0,0,1,2.759.748,16.382,16.382,0,0,1,10.171,11.179,16.4,16.4,0,0,1,.537,3.863l.008.413.028,1.568.041,1.982Z" transform="translate(-2668.642 798.37)" fill="#265b7f"/>
          </g>
        </g>
        <g id="Group_21715" data-name="Group 21715" transform="translate(29.955 22.954)">
          <g id="Group_21714" data-name="Group 21714">
            <g id="Group_21713" data-name="Group 21713">
              <path id="Path_35258" data-name="Path 35258" d="M2668.53-754.174h.271l.318-22.14,0-.22-.272.054,0,.161Zm22.284-41.838a16.374,16.374,0,0,1,7.341,9.815c.033.125.066.247.093.375l.266-.06c-.03-.128-.062-.255-.095-.383a16.645,16.645,0,0,0-7.464-9.981Zm8.371,19.7-.269.06,2.033,29.289h.275Zm-30.248-5.374h.275l.008-.465.049-3.02c0-.421.03-.839.073-1.251a13.34,13.34,0,0,1,7.081-10.427l-.09-.258a13.555,13.555,0,0,0-7.26,10.656c-.046.418-.071.847-.076,1.277Zm-.568,38.755.153.076a52.087,52.087,0,0,0,9.9,3.8,36.591,36.591,0,0,0,9.326,1.226,42.943,42.943,0,0,0,12.677-2.06l-.082-.258c-10.53,3.188-19.709,2.974-31.7-2.944l.079-5.5h-.269Z" transform="translate(-2668.369 797.108)" fill="#0181c0"/>
            </g>
          </g>
        </g>
        <g id="Group_21718" data-name="Group 21718" transform="translate(38.416 26.502)">
          <g id="Group_21717" data-name="Group 21717">
            <g id="Group_21716" data-name="Group 21716">
              <path id="Path_35259" data-name="Path 35259" d="M2682.475-793.145q-.906-.207-1.811-.417a136.31,136.31,0,0,0-3.646,39.452q1.439,1.955,2.931,3.839,1.1-2.089,2.262-4.108A134.237,134.237,0,0,1,2682.475-793.145Z" transform="translate(-2676.825 793.562)" fill="#6ab82d"/>
            </g>
          </g>
        </g>
        <g id="Group_21733" data-name="Group 21733" transform="translate(33.416)">
          <g id="Group_21725" data-name="Group 21725" transform="translate(2.807 3.06)">
            <g id="Group_21720" data-name="Group 21720" transform="translate(3.528 11.22)">
              <g id="Group_21719" data-name="Group 21719">
                <path id="Path_35260" data-name="Path 35260" d="M2678.16-805.162l.963,9.718a5.451,5.451,0,0,0,6.357-.616l-.963-9.718Z" transform="translate(-2678.16 805.778)" fill="#f4bcc7"/>
              </g>
            </g>
            <g id="Group_21722" data-name="Group 21722" transform="translate(3.528 11.22)">
              <g id="Group_21721" data-name="Group 21721">
                <path id="Path_35261" data-name="Path 35261" d="M2678.16-805.162l.435,4.4a5.19,5.19,0,0,0,1.456.187c.161,0,.322-.012.482-.028a5.736,5.736,0,0,0,4.242-2.564l-.258-2.607Z" transform="translate(-2678.16 805.778)" fill="#ea8096"/>
              </g>
            </g>
            <g id="Group_21724" data-name="Group 21724">
              <g id="Group_21723" data-name="Group 21723">
                <path id="Path_35262" data-name="Path 35262" d="M2674.684-810.819l.782,5.683a4.553,4.553,0,0,0,4.577,3.922h0a5.054,5.054,0,0,0,4.686-3.276,38.376,38.376,0,0,0,1.249-4.338,6.886,6.886,0,0,0-2.156-6.826,5.329,5.329,0,0,0-5.854-.829A5.317,5.317,0,0,0,2674.684-810.819Z" transform="translate(-2674.634 816.992)" fill="#f4bcc7"/>
              </g>
            </g>
          </g>
          <g id="Group_21730" data-name="Group 21730">
            <g id="Group_21727" data-name="Group 21727" transform="translate(2.569 5.282)">
              <g id="Group_21726" data-name="Group 21726">
                <path id="Path_35263" data-name="Path 35263" d="M2675.634-813.952a10.666,10.666,0,0,0-.629,5.465,17.192,17.192,0,0,1-.473-6.284Z" transform="translate(-2674.395 814.771)" fill="#050f64"/>
              </g>
            </g>
            <g id="Group_21729" data-name="Group 21729">
              <g id="Group_21728" data-name="Group 21728">
                <path id="Path_35264" data-name="Path 35264" d="M2688.032-808.968s2.868-4.752-.534-8.15c-3.667-3.662-5.947-3.154-8.387-2.374-3.086.986-4.718,2.144-5.926,1.942-.645-.109-1.235-.623-1.322-.255a4.578,4.578,0,0,0,1.72,4.038c1.876,1.519,4.215,1.175,6.469-.122s3.35-1.2,4.381.181c1.094,1.461-.181,4.265-.181,4.265l.721.226S2687.587-810.9,2688.032-808.968Z" transform="translate(-2671.828 820.05)" fill="#050f64"/>
              </g>
            </g>
          </g>
          <g id="Group_21732" data-name="Group 21732" transform="translate(11.48 8.391)">
            <g id="Group_21731" data-name="Group 21731">
              <ellipse id="Ellipse_815" data-name="Ellipse 815" cx="2.393" cy="2.122" rx="2.393" ry="2.122" transform="matrix(0.996, -0.089, 0.089, 0.996, 0, 0.428)" fill="#f4bcc7"/>
            </g>
          </g>
        </g>
        <g id="Group_21736" data-name="Group 21736" transform="translate(39.223 21.947)">
          <g id="Group_21735" data-name="Group 21735">
            <g id="Group_21734" data-name="Group 21734">
              <path id="Path_35265" data-name="Path 35265" d="M2687.979-797.376l-4.7,7.7-1.714-3.666-3.634,3.145-.3-7.211a11.224,11.224,0,0,1,1.254-.435l2.76,2.843,3.632-3.113A15.4,15.4,0,0,1,2687.979-797.376Z" transform="translate(-2677.632 798.114)" fill="#0181c0"/>
            </g>
          </g>
        </g>
        <g id="Group_21745" data-name="Group 21745" transform="translate(48.815 26.102)">
          <g id="Group_21739" data-name="Group 21739" transform="translate(7.112 54.825)">
            <g id="Group_21738" data-name="Group 21738">
              <g id="Group_21737" data-name="Group 21737">
                <path id="Path_35266" data-name="Path 35266" d="M2694.458-736.113l1.138-3.053,3.078,1.485-1.637,2.811a1.5,1.5,0,0,1-1.93.71A1.5,1.5,0,0,1,2694.458-736.113Z" transform="translate(-2694.327 739.166)" fill="#f4bcc7"/>
              </g>
            </g>
          </g>
          <g id="Group_21741" data-name="Group 21741" transform="translate(0.183 0.2)">
            <g id="Group_21740" data-name="Group 21740">
              <path id="Path_35267" data-name="Path 35267" d="M2698.858-737.507l-3.651-1.6a103.347,103.347,0,0,0,3.945-12.494,38.478,38.478,0,0,0,.921-6.158,26.794,26.794,0,0,0-.271-5.957,34.2,34.2,0,0,0-4.169-11.209c-1.016-1.8-2.154-3.56-3.357-5.3l-.917-1.3-.952-1.286-.476-.642-.494-.635-.987-1.271c-.048-.061-.1-.125-.141-.188a4.8,4.8,0,0,1-.792-1.817,5.338,5.338,0,0,1-.047-1.952,5.36,5.36,0,0,1,2.066-3.417l.011-.007a5.068,5.068,0,0,1,3.991-.934,5.232,5.232,0,0,1,3.462,2.364l.9,1.5.45.75.436.763c.291.511.584,1.016.871,1.53l.841,1.557c1.1,2.092,2.148,4.237,3.077,6.466a50.333,50.333,0,0,1,2.319,6.962,36.664,36.664,0,0,1,1.081,7.4,33.79,33.79,0,0,1-.553,7.416,44.53,44.53,0,0,1-1.9,6.93c-.791,2.215-1.7,4.34-2.662,6.415S2699.886-739.513,2698.858-737.507Z" transform="translate(-2687.401 793.762)" fill="#265b7f"/>
            </g>
          </g>
          <g id="Group_21744" data-name="Group 21744">
            <g id="Group_21743" data-name="Group 21743">
              <g id="Group_21742" data-name="Group 21742">
                <path id="Path_35268" data-name="Path 35268" d="M2690.408-782.812l-.477-.64-.494-.636-.987-1.271c-.047-.061-.1-.124-.141-.188a4.82,4.82,0,0,1-.792-1.817,6.24,6.24,0,0,1-.1-.666l-.2-.039a5.738,5.738,0,0,0,.1.745,4.988,4.988,0,0,0,.825,1.892c.046.066.1.132.145.2l1.479,1.9.476.641.18.243.2-.065Zm2.8,3.96-.176.1c.862,1.3,1.617,2.509,2.284,3.677l.189-.071C2694.793-776.4,2694.021-777.632,2693.21-778.852Zm3.958-12.567a5.465,5.465,0,0,0-3.593-2.452,5.257,5.257,0,0,0-2.182.049,5.308,5.308,0,0,0-1.965.922l-.011.009a5.521,5.521,0,0,0-1.92,2.647l.2.036a5.361,5.361,0,0,1,1.841-2.525l.012-.007a5.065,5.065,0,0,1,3.99-.934,5.232,5.232,0,0,1,3.462,2.364l.406.677.119-.189Zm8.921,19.589a50.425,50.425,0,0,0-2.328-6.991c-.844-2.027-1.853-4.147-3.086-6.484l-.843-1.558,0,0-.19.066.018.033.842,1.557c1.1,2.092,2.147,4.236,3.076,6.465a50.263,50.263,0,0,1,2.318,6.963q.342,1.375.588,2.786l.2-.009Q2706.442-770.41,2706.089-771.829Zm.011,16.437a46.375,46.375,0,0,1-1.578,5.362c-.791,2.215-1.7,4.34-2.662,6.416q-.585,1.261-1.192,2.5l.113.222c.454-.929.866-1.793,1.26-2.64,1.111-2.4,1.958-4.444,2.668-6.432a46.573,46.573,0,0,0,1.581-5.365C2706.226-755.35,2706.163-755.37,2706.1-755.393Zm-6.948,3.786a38.448,38.448,0,0,0,.921-6.157,26.927,26.927,0,0,0-.27-5.957,27.278,27.278,0,0,0-.653-2.963l-.179.1a26.5,26.5,0,0,1,.635,2.893,26.816,26.816,0,0,1,.268,5.913,37.792,37.792,0,0,1-.917,6.125q-.193.851-.418,1.706l.177.114Q2698.95-750.719,2699.152-751.607Zm-1.112,3.48c-.9,3.122-2.008,6.2-3.02,8.946l-.064.175,1.947.856c0-.076-.006-.15-.008-.221l-1.688-.741c1.1-2.984,2.16-5.97,3.022-8.948Z" transform="translate(-2687.219 793.962)" fill="#0181c0"/>
              </g>
            </g>
          </g>
        </g>
      </g>
    </g>
  </g>
</svg>
