<svg xmlns="http://www.w3.org/2000/svg" width="346" height="259.5" viewBox="0 0 346 259.5">
  <g id="img" transform="translate(-1224 -7509)">
    <rect id="Rectangle_13558" data-name="Rectangle 13558" width="346" height="259.5" transform="translate(1224 7509)" fill="#f4f4f4"/>
    <g id="Group_23445" data-name="Group 23445">
      <g id="Group_23442" data-name="Group 23442" transform="translate(1293 7572.164)">
        <g id="Group_21815" data-name="Group 21815" transform="translate(0)">
          <g id="Group_21749" data-name="Group 21749">
            <g id="Group_21748" data-name="Group 21748">
              <path id="Path_35269" data-name="Path 35269" d="M2405.457-835.82v105.633H2196.934V-835.82a8.118,8.118,0,0,1,8.117-8.117h192.288A8.119,8.119,0,0,1,2405.457-835.82Z" transform="translate(-2196.934 843.937)" fill="#2d3d45"/>
            </g>
          </g>
          <g id="Group_21751" data-name="Group 21751" transform="translate(13.376 13.376)">
            <g id="Group_21750" data-name="Group 21750">
              <rect id="Rectangle_13614" data-name="Rectangle 13614" width="181.769" height="100.375" fill="#fff"/>
            </g>
          </g>
          <g id="Group_21753" data-name="Group 21753" transform="translate(7.296 7.296)">
            <g id="Group_21752" data-name="Group 21752">
              <path id="Path_35270" data-name="Path 35270" d="M2205.617-835.254V-736.1h193.93v-99.158Z" transform="translate(-2205.617 835.254)" fill="#fff"/>
            </g>
          </g>
          <g id="Group_21810" data-name="Group 21810" transform="translate(18.906 15.746)">
            <g id="Group_21781" data-name="Group 21781" transform="translate(0 13.649)">
              <g id="Group_21756" data-name="Group 21756" transform="translate(0 23.324)">
                <g id="Group_21755" data-name="Group 21755">
                  <g id="Group_21754" data-name="Group 21754">
                    <rect id="Rectangle_13615" data-name="Rectangle 13615" width="7.799" height="45.286" fill="#e5e6eb"/>
                  </g>
                </g>
              </g>
              <g id="Group_21759" data-name="Group 21759" transform="translate(10.861 11.777)">
                <g id="Group_21758" data-name="Group 21758">
                  <g id="Group_21757" data-name="Group 21757">
                    <rect id="Rectangle_13616" data-name="Rectangle 13616" width="7.799" height="56.832" fill="#e5e6eb"/>
                  </g>
                </g>
              </g>
              <g id="Group_21762" data-name="Group 21762" transform="translate(21.721 4.632)">
                <g id="Group_21761" data-name="Group 21761">
                  <g id="Group_21760" data-name="Group 21760">
                    <rect id="Rectangle_13617" data-name="Rectangle 13617" width="7.799" height="63.978" fill="#e5e6eb"/>
                  </g>
                </g>
              </g>
              <g id="Group_21765" data-name="Group 21765" transform="translate(32.582 20.473)">
                <g id="Group_21764" data-name="Group 21764">
                  <g id="Group_21763" data-name="Group 21763">
                    <rect id="Rectangle_13618" data-name="Rectangle 13618" width="7.799" height="48.136" fill="#e5e6eb"/>
                  </g>
                </g>
              </g>
              <g id="Group_21768" data-name="Group 21768" transform="translate(43.443 51.427)">
                <g id="Group_21767" data-name="Group 21767">
                  <g id="Group_21766" data-name="Group 21766">
                    <rect id="Rectangle_13619" data-name="Rectangle 13619" width="7.799" height="17.183" fill="#e5e6eb"/>
                  </g>
                </g>
              </g>
              <g id="Group_21771" data-name="Group 21771" transform="translate(54.303 9.324)">
                <g id="Group_21770" data-name="Group 21770">
                  <g id="Group_21769" data-name="Group 21769">
                    <rect id="Rectangle_13620" data-name="Rectangle 13620" width="7.799" height="59.285" fill="#e5e6eb"/>
                  </g>
                </g>
              </g>
              <g id="Group_21774" data-name="Group 21774" transform="translate(65.164)">
                <g id="Group_21773" data-name="Group 21773">
                  <g id="Group_21772" data-name="Group 21772">
                    <rect id="Rectangle_13621" data-name="Rectangle 13621" width="7.799" height="68.609" fill="#e5e6eb"/>
                  </g>
                </g>
              </g>
              <g id="Group_21777" data-name="Group 21777" transform="translate(76.025 43.384)">
                <g id="Group_21776" data-name="Group 21776">
                  <g id="Group_21775" data-name="Group 21775">
                    <rect id="Rectangle_13622" data-name="Rectangle 13622" width="7.799" height="25.226" fill="#e5e6eb"/>
                  </g>
                </g>
              </g>
              <g id="Group_21780" data-name="Group 21780" transform="translate(86.885 23.439)">
                <g id="Group_21779" data-name="Group 21779">
                  <g id="Group_21778" data-name="Group 21778">
                    <rect id="Rectangle_13623" data-name="Rectangle 13623" width="7.799" height="45.171" fill="#e5e6eb"/>
                  </g>
                </g>
              </g>
            </g>
            <g id="Group_21809" data-name="Group 21809" transform="translate(76.025)">
              <g id="Group_21784" data-name="Group 21784" transform="translate(0 43.871)">
                <g id="Group_21783" data-name="Group 21783">
                  <g id="Group_21782" data-name="Group 21782">
                    <rect id="Rectangle_13624" data-name="Rectangle 13624" width="7.799" height="38.387" fill="#e5e6eb"/>
                  </g>
                </g>
              </g>
              <g id="Group_21787" data-name="Group 21787" transform="translate(10.861)">
                <g id="Group_21786" data-name="Group 21786">
                  <g id="Group_21785" data-name="Group 21785">
                    <rect id="Rectangle_13625" data-name="Rectangle 13625" width="7.799" height="82.258" fill="#e5e6eb"/>
                  </g>
                </g>
              </g>
              <g id="Group_21790" data-name="Group 21790" transform="translate(21.721 22.973)">
                <g id="Group_21789" data-name="Group 21789">
                  <g id="Group_21788" data-name="Group 21788">
                    <rect id="Rectangle_13626" data-name="Rectangle 13626" width="7.799" height="59.285" fill="#e5e6eb"/>
                  </g>
                </g>
              </g>
              <g id="Group_21793" data-name="Group 21793" transform="translate(32.582 34.122)">
                <g id="Group_21792" data-name="Group 21792">
                  <g id="Group_21791" data-name="Group 21791">
                    <rect id="Rectangle_13627" data-name="Rectangle 13627" width="7.799" height="48.136" fill="#e5e6eb"/>
                  </g>
                </g>
              </g>
              <g id="Group_21796" data-name="Group 21796" transform="translate(43.443 47.817)">
                <g id="Group_21795" data-name="Group 21795">
                  <g id="Group_21794" data-name="Group 21794">
                    <rect id="Rectangle_13628" data-name="Rectangle 13628" width="7.799" height="34.441" fill="#e5e6eb"/>
                  </g>
                </g>
              </g>
              <g id="Group_21799" data-name="Group 21799" transform="translate(54.303 22.973)">
                <g id="Group_21798" data-name="Group 21798">
                  <g id="Group_21797" data-name="Group 21797">
                    <rect id="Rectangle_13629" data-name="Rectangle 13629" width="7.799" height="59.285" fill="#e5e6eb"/>
                  </g>
                </g>
              </g>
              <g id="Group_21802" data-name="Group 21802" transform="translate(65.164 6.628)">
                <g id="Group_21801" data-name="Group 21801">
                  <g id="Group_21800" data-name="Group 21800">
                    <rect id="Rectangle_13630" data-name="Rectangle 13630" width="7.799" height="75.63" fill="#e5e6eb"/>
                  </g>
                </g>
              </g>
              <g id="Group_21805" data-name="Group 21805" transform="translate(76.025 41.129)">
                <g id="Group_21804" data-name="Group 21804">
                  <g id="Group_21803" data-name="Group 21803">
                    <rect id="Rectangle_13631" data-name="Rectangle 13631" width="7.799" height="41.129" fill="#e5e6eb"/>
                  </g>
                </g>
              </g>
              <g id="Group_21808" data-name="Group 21808" transform="translate(86.886 61.694)">
                <g id="Group_21807" data-name="Group 21807">
                  <g id="Group_21806" data-name="Group 21806">
                    <rect id="Rectangle_13632" data-name="Rectangle 13632" width="7.799" height="20.565" fill="#e5e6eb"/>
                  </g>
                </g>
              </g>
            </g>
          </g>
          <g id="Group_21812" data-name="Group 21812" transform="translate(57.562 141.723)">
            <g id="Group_21811" data-name="Group 21811">
              <path id="Path_35271" data-name="Path 35271" d="M2358.836-652.321l-10.687-12.392h0v-10.558h-72.024v10.559l-10.686,12.392Z" transform="translate(-2265.439 675.271)" fill="#e5e6eb"/>
            </g>
          </g>
          <g id="Group_21814" data-name="Group 21814" transform="translate(57.562 141.723)" opacity="0.1">
            <g id="Group_21813" data-name="Group 21813">
              <path id="Path_35272" data-name="Path 35272" d="M2358.836-652.321l-10.687-12.392h0v-10.558h-72.024v10.559l-10.686,12.392Z" transform="translate(-2265.439 675.271)" fill="#050f64"/>
            </g>
          </g>
        </g>
        <g id="Group_21817" data-name="Group 21817" transform="translate(0 113.75)">
          <g id="Group_21816" data-name="Group 21816">
            <path id="Path_35273" data-name="Path 35273" d="M2405.457-708.562v19.856a8.118,8.118,0,0,1-8.118,8.117H2205.051a8.117,8.117,0,0,1-8.117-8.117v-19.856Z" transform="translate(-2196.934 708.562)" fill="#e5e6eb"/>
          </g>
        </g>
        <g id="Group_21819" data-name="Group 21819" transform="translate(0 106.454)">
          <g id="Group_21818" data-name="Group 21818" transform="translate(0 0)">
            <rect id="Rectangle_13633" data-name="Rectangle 13633" width="7.296" height="208.523" transform="translate(208.523 0) rotate(90)" fill="#2d3d45"/>
          </g>
        </g>
        <g id="Group_21821" data-name="Group 21821" transform="translate(98.277 121.753)">
          <g id="Group_21820" data-name="Group 21820">
            <ellipse id="Ellipse_816" data-name="Ellipse 816" cx="5.984" cy="5.984" rx="5.984" ry="5.984" fill="#050f64"/>
          </g>
        </g>
      </g>
      <g id="Group_23443" data-name="Group 23443" transform="translate(1340 7559.145)">
        <g id="Group_22162" data-name="Group 22162" transform="translate(0 32.974)">
          <g id="Group_22157" data-name="Group 22157">
            <g id="Group_22156" data-name="Group 22156">
              <g id="Group_22155" data-name="Group 22155">
                <g id="Group_22154" data-name="Group 22154">
                  <path id="Path_35328" data-name="Path 35328" d="M2271.235-601.026a8.081,8.081,0,0,1-8.08,8.08,8.059,8.059,0,0,1-2.513-.4.026.026,0,0,1-.012,0v9.391c0,.054,0,.108.006.161a2.472,2.472,0,0,1-2.467,2.312h-9.388a8.018,8.018,0,0,0,.4-2.512,8.08,8.08,0,0,0-8.08-8.08,8.08,8.08,0,0,0-8.081,8.08,8.046,8.046,0,0,0,.4,2.512h-9.389a2.473,2.473,0,0,1-2.473-2.474V-618.1a2.474,2.474,0,0,1,2.473-2.473h34.139a2.473,2.473,0,0,1,2.467,2.312c0,.054-.006.107-.006.161v9.393a.026.026,0,0,1,.012,0,8.059,8.059,0,0,1,2.513-.4A8.08,8.08,0,0,1,2271.235-601.026Z" transform="translate(-2221.558 620.569)" fill="#0181c0"/>
                </g>
              </g>
            </g>
          </g>
          <g id="Group_22161" data-name="Group 22161" transform="translate(0 28.493)">
            <g id="Group_22160" data-name="Group 22160">
              <g id="Group_22159" data-name="Group 22159">
                <g id="Group_22158" data-name="Group 22158">
                  <path id="Path_35329" data-name="Path 35329" d="M2260.631-526.6c0,.054,0,.108.006.162a2.472,2.472,0,0,1-2.467,2.312h-34.139a2.473,2.473,0,0,1-2.473-2.473v-34.138a2.474,2.474,0,0,1,2.473-2.474h9.389a8.044,8.044,0,0,1-.4-2.512,8.08,8.08,0,0,1,8.081-8.08,8.08,8.08,0,0,1,8.08,8.08,8.016,8.016,0,0,1-.4,2.512h9.388a2.473,2.473,0,0,1,2.467,2.312c0,.054-.006.107-.006.162v9.388a8.057,8.057,0,0,0-2.512-.4,8.079,8.079,0,0,0-8.08,8.08,8.079,8.079,0,0,0,8.08,8.08,8.053,8.053,0,0,0,2.512-.4Z" transform="translate(-2221.558 573.808)" fill="#6ab82d"/>
                </g>
              </g>
            </g>
          </g>
        </g>
        <g id="Group_23437" data-name="Group 23437" transform="translate(38.471 0)">
          <g id="Group_22116" data-name="Group 22116">
            <g id="Group_22115" data-name="Group 22115">
              <g id="Group_22114" data-name="Group 22114">
                <g id="Group_22412" data-name="Group 22412">
                  <path id="Path_35317" data-name="Path 35317" d="M2296.331-691.2l19.194,28.232a2.474,2.474,0,0,1-.655,3.436l-7.764,5.278a8.047,8.047,0,0,1,1.742,1.853,8.079,8.079,0,0,1-2.14,11.225,8.08,8.08,0,0,1-11.224-2.139,8.081,8.081,0,0,1-1.083-2.3l-7.763,5.278a2.473,2.473,0,0,1-3.341-.525c-.026-.046-.055-.092-.086-.137l-5.277-7.764a8.058,8.058,0,0,0,2.3-1.082,8.08,8.08,0,0,0,2.139-11.225,8.08,8.08,0,0,0-11.224-2.139,8.05,8.05,0,0,0-1.854,1.743l-5.278-7.765c-.03-.045-.061-.088-.095-.13a2.471,2.471,0,0,1,.741-3.3l28.231-19.193A2.473,2.473,0,0,1,2296.331-691.2Z" transform="translate(-2263.581 692.28)" fill="#d0d63f"/>
                </g>
              </g>
            </g>
          </g>
        </g>
        <g id="Group_23439" data-name="Group 23439" transform="translate(62.818 51.719)">
          <g id="Group_22285" data-name="Group 22285">
            <g id="Group_22284" data-name="Group 22284">
              <g id="Group_22283" data-name="Group 22283">
                <path id="Path_35365" data-name="Path 35365" d="M2325.477-607.022l28.913,18.15a2.474,2.474,0,0,1,.781,3.41l-18.15,28.913a2.473,2.473,0,0,1-3.27.86c-.044-.032-.088-.062-.135-.091l-7.954-4.993a.046.046,0,0,1,0,.011,8.044,8.044,0,0,1-1,2.34,8.079,8.079,0,0,1-11.139,2.547,8.078,8.078,0,0,1-2.548-11.139,8.026,8.026,0,0,1,1.674-1.916.017.017,0,0,1,.008-.007l-7.954-4.994c-.046-.029-.093-.056-.14-.081a2.472,2.472,0,0,1-.646-3.319l4.991-7.951a8.068,8.068,0,0,0,1.917,1.674,8.08,8.08,0,0,0,11.139-2.548,8.08,8.08,0,0,0-2.547-11.139,8.065,8.065,0,0,0-2.34-1l4.992-7.951A2.473,2.473,0,0,1,2325.477-607.022Z" transform="translate(-2303.537 607.401)" fill="#265b7f"/>
              </g>
            </g>
          </g>
        </g>
      </g>
      <g id="Group_23444" data-name="Group 23444" transform="translate(1454.223 7541)">
        <g id="Group_22001" data-name="Group 22001">
          <g id="Group_22000" data-name="Group 22000">
            <g id="Group_21999" data-name="Group 21999">
              <ellipse id="Ellipse_825" data-name="Ellipse 825" cx="39.609" cy="39.609" rx="39.609" ry="39.609" fill="#6ab82d"/>
            </g>
          </g>
        </g>
        <g id="Group_22004" data-name="Group 22004" transform="translate(7.266 7.265)">
          <g id="Group_22003" data-name="Group 22003">
            <g id="Group_22002" data-name="Group 22002">
              <ellipse id="Ellipse_826" data-name="Ellipse 826" cx="32.343" cy="32.343" rx="32.343" ry="32.343" fill="#fff"/>
            </g>
          </g>
        </g>
        <g id="Group_22007" data-name="Group 22007" transform="translate(38.984 9.062)">
          <g id="Group_22006" data-name="Group 22006">
            <g id="Group_22005" data-name="Group 22005">
              <rect id="Rectangle_13675" data-name="Rectangle 13675" width="1.25" height="5.156" fill="#050f64"/>
            </g>
          </g>
        </g>
        <g id="Group_22010" data-name="Group 22010" transform="translate(38.741 13.004)">
          <g id="Group_22009" data-name="Group 22009">
            <g id="Group_22008" data-name="Group 22008">
              <path id="Path_35300" data-name="Path 35300" d="M2312.389-835.311l-7.613,20.8-1.014,2.773a2.219,2.219,0,0,0-1.976-1.214,2.229,2.229,0,0,0-.868.177l1.016-2.776,7.612-20.8a1.518,1.518,0,0,1,1.944-.9A1.513,1.513,0,0,1,2312.389-835.311Z" transform="translate(-2300.919 837.346)" fill="#265b7f"/>
            </g>
          </g>
        </g>
        <g id="Group_22013" data-name="Group 22013" transform="translate(40.09 39.269)">
          <g id="Group_22012" data-name="Group 22012">
            <g id="Group_22011" data-name="Group 22011">
              <path id="Path_35301" data-name="Path 35301" d="M2321.187-802.162a1.514,1.514,0,0,1-1.253.659,1.491,1.491,0,0,1-.85-.264l-14.625-9.98-2.44-1.669a2.211,2.211,0,0,0,1.735-2.157,2.055,2.055,0,0,0-.027-.341l2.441,1.666,14.62,9.98A1.515,1.515,0,0,1,2321.187-802.162Z" transform="translate(-2302.019 815.913)" fill="#6ab82d"/>
            </g>
          </g>
        </g>
        <g id="Group_22017" data-name="Group 22017" transform="translate(34.792 34.793)">
          <g id="Group_22016" data-name="Group 22016">
            <g id="Group_22015" data-name="Group 22015">
              <g id="Group_22014" data-name="Group 22014">
                <path id="Path_35302" data-name="Path 35302" d="M2305.5-818.522a4.788,4.788,0,0,0-2.842-1.041c-.05,0-.1,0-.148,0a4.822,4.822,0,0,0-4.817,4.817,4.822,4.822,0,0,0,4.817,4.815,4.807,4.807,0,0,0,2.92-.989,4.824,4.824,0,0,0,1.709-2.5,4.686,4.686,0,0,0,.188-1.325A4.807,4.807,0,0,0,2305.5-818.522Zm-2.51,5.93a2,2,0,0,1-.48.055,2.214,2.214,0,0,1-2.214-2.212,2.218,2.218,0,0,1,1.347-2.038,2.229,2.229,0,0,1,.868-.177,2.219,2.219,0,0,1,1.976,1.214,2.14,2.14,0,0,1,.213.659,2.109,2.109,0,0,1,.026.341A2.211,2.211,0,0,1,2302.994-812.592Z" transform="translate(-2297.696 819.566)" fill="#6ab82d"/>
              </g>
            </g>
          </g>
        </g>
        <g id="Group_22020" data-name="Group 22020" transform="translate(9.062 38.984)">
          <g id="Group_22019" data-name="Group 22019" transform="translate(0 0)">
            <g id="Group_22018" data-name="Group 22018" transform="translate(0)">
              <rect id="Rectangle_13676" data-name="Rectangle 13676" width="1.25" height="5.156" transform="translate(0 1.25) rotate(-90)" fill="#050f64"/>
            </g>
          </g>
        </g>
        <g id="Group_22023" data-name="Group 22023" transform="translate(38.984 64.999)">
          <g id="Group_22022" data-name="Group 22022" transform="translate(0 0)">
            <g id="Group_22021" data-name="Group 22021">
              <rect id="Rectangle_13677" data-name="Rectangle 13677" width="1.25" height="5.156" transform="translate(1.25 5.156) rotate(180)" fill="#050f64"/>
            </g>
          </g>
        </g>
        <g id="Group_22026" data-name="Group 22026" transform="translate(64.999 38.984)">
          <g id="Group_22025" data-name="Group 22025" transform="translate(0 0)">
            <g id="Group_22024" data-name="Group 22024">
              <rect id="Rectangle_13678" data-name="Rectangle 13678" width="1.25" height="5.156" transform="translate(5.156) rotate(90)" fill="#050f64"/>
            </g>
          </g>
        </g>
      </g>
    </g>
  </g>
</svg>
