<svg id="Group_16795" data-name="Group 16795" xmlns="http://www.w3.org/2000/svg" xmlns:xlink="http://www.w3.org/1999/xlink" width="389.175" height="75.303" viewBox="0 0 389.175 75.303">
  <defs>
    <clipPath id="clip-path">
      <path id="Path_16554" data-name="Path 16554" d="M543.758,619.931v2.009h.5c2.225,0,2.6,0,2.6.674a9.146,9.146,0,0,1-.739,2.451c-.13.32-.279.716-.461,1.176l-7.3,18.8h-.011l-6.891-18.436a26.281,26.281,0,0,1-1.379-3.766c0-.6.052-.9,2.417-.9h.514v-2.009h-16.04v2.009h1.113c1.873,0,2.2.321,2.451.728a27.694,27.694,0,0,1,2,3.938l10.635,28.5h6.26l11.043-28.525A27.3,27.3,0,0,1,552.3,622.5c.236-.3.364-.588,2.195-.546l.62-.01v-2.009Z" transform="translate(-516.974 -619.931)" fill="none"/>
    </clipPath>
    <radialGradient id="radial-gradient" cx="0.5" cy="0.5" r="0.521" gradientTransform="matrix(0.922, 0, 0, -1, -1.344, 17.368)" gradientUnits="objectBoundingBox">
      <stop offset="0" stop-color="#00a0e9"/>
      <stop offset="1" stop-color="#0068b7"/>
    </radialGradient>
    <clipPath id="clip-path-2">
      <path id="Path_16555" data-name="Path 16555" d="M347.622,613.346a51.894,51.894,0,0,0-6.659.68c-10.539,1.636-24.75,8.25-37.846,17.077-19.817,13.366-33.94,32.015-33.94,32.015S291,638.99,303.031,638.188c3.521-.237,3.691,2.107,3.521,5.156-.472,8.454-3.082,20.406-3.082,20.406s10.9-35.1,30.86-42.351c20.651-7.511-12.348,20.684-12.348,20.684,30.894-21.278,36.134-28.529,26.533-28.736Z" transform="translate(-269.176 -613.346)" fill="none"/>
    </clipPath>
    <radialGradient id="radial-gradient-2" cx="0.47" cy="0.5" r="0.685" gradientTransform="matrix(0.567, 0, 0, -1, -1.676, 12.456)" xlink:href="#radial-gradient"/>
    <clipPath id="clip-path-3">
      <path id="Path_16556" data-name="Path 16556" d="M303.867,617.441c-5.867,4.7-17.885,18.92-18.133,19.213,2.854-3.331,15.492-13.414,19.438-16.474,5.81-4.515,6.645-3.563,6.88-5.457.107-.876-.255-1.23-.92-1.23-1.67,0-5.189,2.289-7.265,3.948" transform="translate(-285.734 -613.493)" fill="none"/>
    </clipPath>
    <radialGradient id="radial-gradient-3" cx="0.498" cy="0.5" r="0.535" gradientTransform="matrix(0.876, 0, 0, -1, -1.708, 27.091)" xlink:href="#radial-gradient"/>
    <clipPath id="clip-path-4">
      <path id="Path_16558" data-name="Path 16558" d="M551.282,624.475q-4.223,4.5-4.381,12.574v1.188q.155,7.843,4.5,12.549c3,3.252,8.829,4.88,13.89,4.88a59.081,59.081,0,0,0,13.171-1.284V641.658a.523.523,0,0,1,.48-.555,6.661,6.661,0,0,1,.836-.032c.279,0,.566.011.833-.011l.418-.022v-2.162H568.36v2.162l.418.022a11.4,11.4,0,0,1,1.529.053.63.63,0,0,1,.642.642v9.887a.993.993,0,0,1-.717.963,9.5,9.5,0,0,1-2,.064c-4.044,0-6.849-.887-9.138-3.692s-3.413-6.13-3.413-11.084c0-5.3,1.018-9.01,3.06-11.888s6.41-4.324,10.188-4.12c6.088.321,7.276,5,7.319,5.414l.032.46h2.2v-6.57a43.307,43.307,0,0,0-6.054-1.325,55.894,55.894,0,0,0-7.01-.428c-5.306,0-11.224,1.915-14.135,5.039" transform="translate(-546.901 -619.436)" fill="none"/>
    </clipPath>
    <radialGradient id="radial-gradient-4" cy="0.5" r="0.486" gradientTransform="matrix(1.062, 0, 0, -1, 1.262, 16.899)" xlink:href="#radial-gradient"/>
  </defs>
  <path id="Path_35902" data-name="Path 35902" d="M6.828-9.5l-1.74-.54A4.967,4.967,0,0,1,4.536-8.8,11.142,11.142,0,0,1,.72-4.8l1.3,1A14.433,14.433,0,0,0,5.184-6.912H8.616A8.518,8.518,0,0,1,7.3-4.26c-.756-.5-1.512-1-2.148-1.356L4.08-4.524c.612.384,1.4.924,2.184,1.5a10.194,10.194,0,0,1-4.4,2.6L3.252.792a11.291,11.291,0,0,0,4.3-2.844c.492.4.936.768,1.26,1.068L9.948-2.34c-.348-.288-.816-.636-1.332-1.008A13.741,13.741,0,0,0,10.392-6.8a5.645,5.645,0,0,1,.4-.852L9.564-8.412A3.81,3.81,0,0,1,8.52-8.28H6.084A12.928,12.928,0,0,1,6.828-9.5Zm7.116,4.836L14.7-3.156a24.045,24.045,0,0,0,4.236-1.728v3.84A13.439,13.439,0,0,1,18.852.528h1.9a8.25,8.25,0,0,1-.108-1.572V-5.892a22.011,22.011,0,0,0,3.228-2.6l-1.3-1.236a15.384,15.384,0,0,1-3.384,2.916A19.3,19.3,0,0,1,13.944-4.668ZM32.82-9.048l-1.908-.4a8.733,8.733,0,0,1-.288,1.392c-.348,1.248-1.38,4.536-2.076,6.312-.108,0-.228.012-.324.012-.4.012-.912.012-1.32.012L27.18.036c.384-.048.828-.108,1.128-.144,1.512-.156,5.148-.54,7.092-.768.228.516.42,1.008.576,1.416L37.6-.18a36.907,36.907,0,0,0-2.628-4.992l-1.5.612a14.505,14.505,0,0,1,1.26,2.2c-1.212.144-2.916.336-4.38.48.6-1.608,1.572-4.656,1.956-5.832C32.484-8.244,32.664-8.688,32.82-9.048ZM48.288-8.8a.7.7,0,0,1,.7-.7.694.694,0,0,1,.684.7.692.692,0,0,1-.684.684A.694.694,0,0,1,48.288-8.8Zm-.744,0a1.329,1.329,0,0,0,.024.228,5.178,5.178,0,0,1-.684.048H41.328a13.361,13.361,0,0,1-1.428-.1v1.692c.3-.024.876-.048,1.428-.048h5.58a7.541,7.541,0,0,1-1.4,3.384,7.867,7.867,0,0,1-4.7,2.82L42.108.672a9.638,9.638,0,0,0,4.824-3.324,12.114,12.114,0,0,0,1.8-4.368c.036-.108.06-.228.1-.36a.684.684,0,0,0,.156.012A1.439,1.439,0,0,0,50.412-8.8a1.442,1.442,0,0,0-1.428-1.44A1.444,1.444,0,0,0,47.544-8.8Zm5.808.288c.024.336.024.828.024,1.164v5.868c0,.576-.036,1.62-.036,1.68H55c0-.036,0-.312-.012-.648h5.784c0,.348-.012.624-.012.648h1.656c0-.048-.024-1.2-.024-1.668v-5.88c0-.36,0-.8.024-1.164-.432.024-.888.024-1.188.024h-6.6C54.3-8.484,53.844-8.5,53.352-8.508ZM54.984-6.96h5.8v4.98h-5.8Zm23.088-3.156-.984.408c.228.348.468.768.672,1.164a5.034,5.034,0,0,1-.564.024H71.64a13.361,13.361,0,0,1-1.428-.1v1.692c.312-.024.876-.048,1.428-.048h5.58a7.541,7.541,0,0,1-1.4,3.384,7.867,7.867,0,0,1-4.7,2.82L72.42.672a9.585,9.585,0,0,0,4.824-3.324A12.375,12.375,0,0,0,79.056-7.02a3.918,3.918,0,0,1,.264-.828l-.768-.5L79-8.532A15.826,15.826,0,0,0,78.072-10.116Zm1.68-.3-1,.4a15.549,15.549,0,0,1,.96,1.62l1-.432C80.484-9.252,80.052-9.984,79.752-10.416Zm3.156,5.748.756,1.512A24.045,24.045,0,0,0,87.9-4.884v3.84A13.44,13.44,0,0,1,87.816.528h1.9A8.25,8.25,0,0,1,89.6-1.044V-5.892a22.011,22.011,0,0,0,3.228-2.6l-1.3-1.236a15.384,15.384,0,0,1-3.384,2.916A19.3,19.3,0,0,1,82.908-4.668Zm21.216-4.548-1.008.42a10.839,10.839,0,0,1,1.056,1.884l1.044-.444A20.4,20.4,0,0,0,104.124-9.216Zm1.644-.576-1.02.42a11.531,11.531,0,0,1,1.128,1.824L106.9-8A15.431,15.431,0,0,0,105.768-9.792ZM98.9-9.444l-.864,1.32c.792.444,2.04,1.248,2.712,1.716l.888-1.32C101.016-8.172,99.7-9.012,98.9-9.444Zm-2.22,8.52.9,1.572a15.092,15.092,0,0,0,4.008-1.476,14.475,14.475,0,0,0,4.764-4.32l-.924-1.632a12.148,12.148,0,0,1-4.668,4.5A12.869,12.869,0,0,1,96.684-.924Zm.372-5.784-.864,1.32c.8.432,2.052,1.236,2.736,1.716L99.8-5.016C99.192-5.448,97.872-6.276,97.056-6.708Zm12.612,1.152v1.884c.444-.036,1.248-.06,1.932-.06h6.444c.5,0,1.116.048,1.4.06V-5.556c-.312.024-.84.072-1.4.072H111.6C110.976-5.484,110.1-5.52,109.668-5.556Z" transform="translate(100.613 74.511)"/>
  <g id="Group_16496" data-name="Group 16496" transform="translate(0 0)">
    <path id="Path_16548" data-name="Path 16548" d="M355.323,622.6h-4.354a29.659,29.659,0,0,0-3.71.208c-.629.091-.946.662-.946,1.708q0,1.178-.046,2.031l-.024.462H343.82V620.75h29.319v6.255h-2.428l-.022-.462q-.071-.855-.07-2.031c0-1.046-.307-1.617-.923-1.708a29.963,29.963,0,0,0-3.7-.208h-4.361v26.338q0,3.07.555,3.729c.367.435.377.7,2.209.8l.99.02v1.432H351.591v-1.432l.993-.02c1.832-.095,1.836-.361,2.2-.8s.541-1.682.541-3.729Z" transform="translate(-248.394 -611.284)" fill="#231815"/>
    <path id="Path_16549" data-name="Path 16549" d="M380.141,627.865v19.088q0,3.135.506,3.738c.336.4.354.662,2.237.786l.436.021v1.432h-13.09V651.5l.441-.021c1.86-.124,2.6-.39,2.947-.8s.52-1.652.52-3.729v-13.11q0-3.116-.52-3.716c-.345-.4-1.086-.67-2.947-.808l-.441-.023v-1.431Z" transform="translate(-241.041 -609.303)" fill="#231815"/>
    <path id="Path_16550" data-name="Path 16550" d="M393,632.656a14.46,14.46,0,0,1,3.917-3.885,7,7,0,0,1,4-1.359,5.7,5.7,0,0,1,4,1.312,6.248,6.248,0,0,1,2.074,3.932,17.361,17.361,0,0,1,4.431-3.932,8.806,8.806,0,0,1,4.5-1.312c4.495,0,7.943,2.465,7.943,7.4v12.269q0,3.137.5,3.729c.33.391-.011.656,1.881.8l.437.022v1.432H413.849v-1.432l.437-.022c1.893-.139,2.644-.4,2.974-.8s.494-1.638.494-3.729V635.619a7.853,7.853,0,0,0-.775-4.129,2.653,2.653,0,0,0-2.5-1.147c-1.864-.036-3.922,1.433-5.548,3.886v12.848q0,3.116.506,3.729c.338.407-.082.673,1.8.8l.441.022.069,1.432H398.908l-.07-1.432.437-.022c1.893-.123,2.645-.386,2.972-.785s.5-1.648.5-3.739V635.619a7.984,7.984,0,0,0-.763-4.108,2.158,2.158,0,0,0-2.2-1.168,6.927,6.927,0,0,0-4.237,2.321A10.735,10.735,0,0,0,393,636.453v10.625q0,3.137.506,3.739c.336.4.724.662,2.607.785l.431.022v1.432H384.186v-1.432l.438-.022c1.864-.123,1.511-.389,1.858-.8s.446-1.652.446-3.729v-13.11q0-3.116-.519-3.716c-.344-.4.006-.669-1.856-.808l-.44-.022v-1.431H393Z" transform="translate(-237.176 -609.43)" fill="#231815"/>
    <path id="Path_16551" data-name="Path 16551" d="M454.01,640.692v8.285q0,3.072.555,3.729c.37.436-.524.7,1.308.8l.989.022v1.432h-12.83v-1.432l.44-.022c1.861-.123,1.516-.388,1.86-.8s.52-1.651.52-3.729v-22.2q0-3.126-.52-3.721c-.344-.4-.362-.66-2.224-.78l-.437-.046v-1.635h13.789l1.583.041q9.895,0,9.9,9.016,0,5.511-3.6,8.28t-10.8,2.764Zm0-1.546h.8q4.516,0,6.762-2.352t2.246-7.045q0-3.987-1.71-5.7t-5.73-1.707H454.01Z" transform="translate(-220.594 -611.329)" fill="#231815"/>
    <path id="Path_16552" data-name="Path 16552" d="M476.442,634.822v12.256q0,3.116.542,3.739c.363.414.743.677,2.589.785l.993.022v1.432H466.9v-1.432l1.162-.022c1.864-.124,1.337-.39,1.684-.8s.52-1.652.52-3.729v-13.11a8.481,8.481,0,0,0-.52-3.717c-.239-.381-.377-.722-1.684-.808l-1.162-.023v-1.431h9.544v3.984c2.076-3.523,6.246-4.561,9.6-4.561a5.5,5.5,0,0,1,1.544.253v4.665h-2.562a1.431,1.431,0,0,0-1.527-1.18c-2.274.081-5.593,1.225-7.058,3.672" transform="translate(-214.127 -609.429)" fill="#231815"/>
    <path id="Path_16553" data-name="Path 16553" d="M497.38,653.635a11.25,11.25,0,0,1-8.747-3.521q-3.212-3.53-3.21-9.6t3.21-9.588a12.666,12.666,0,0,1,17.508,0q3.193,3.513,3.2,9.588t-3.208,9.6a11.255,11.255,0,0,1-8.749,3.521m-.008-1.411q2.479,0,4.119-3.318a22.2,22.2,0,0,0,0-16.742q-1.641-3.345-4.119-3.346t-4.1,3.346a22.229,22.229,0,0,0-.008,16.742q1.633,3.321,4.112,3.318" transform="translate(-208.97 -609.429)" fill="#231815"/>
    <rect id="Rectangle_11441" data-name="Rectangle 11441" width="10.391" height="3.416" transform="translate(305.961 27.454)" fill="#231815"/>
    <g id="Group_16497" data-name="Group 16497" transform="translate(316.788 8.418)">
      <g id="Group_16496-2" data-name="Group 16496" clip-path="url(#clip-path)">
        <rect id="Rectangle_11442" data-name="Rectangle 11442" width="38.136" height="35.179" fill="url(#radial-gradient)"/>
      </g>
    </g>
    <g id="Group_16499" data-name="Group 16499" transform="translate(0 0)">
      <g id="Group_16498" data-name="Group 16498" clip-path="url(#clip-path-2)">
        <rect id="Rectangle_11443" data-name="Rectangle 11443" width="88.939" height="50.404" transform="translate(0)" fill="url(#radial-gradient-2)"/>
      </g>
    </g>
    <g id="Group_16501" data-name="Group 16501" transform="translate(21.168 0.188)">
      <g id="Group_16500" data-name="Group 16500" clip-path="url(#clip-path-3)">
        <rect id="Rectangle_11444" data-name="Rectangle 11444" width="26.426" height="23.161" transform="translate(0 0)" fill="url(#radial-gradient-3)"/>
      </g>
    </g>
    <rect id="Rectangle_11445" data-name="Rectangle 11445" width="6.359" height="5.821" transform="translate(132.923 9.464)" fill="#231815"/>
    <path id="Path_16557" data-name="Path 16557" d="M438.509,647.177c-.761,2.18-2.742,3.188-5.677,3.188-6.591,0-6.682-6.017-6.63-9.947h18.582v-.436c0-3.73-.979-7.324-2.939-9.337s-4.758-3.018-8.4-3.018a13.449,13.449,0,0,0-9.68,3.6A12.238,12.238,0,0,0,420,640.472a14.459,14.459,0,0,0,.115,1.8l-.016.179c0,5.942,5.431,10.4,12.674,10.4,4.748,0,9.409-1.556,11.35-5.692Zm-10.422-15.336a6.122,6.122,0,0,1,4.965-2.218c2.084,0,3.476.569,4.391,1.711s1.381,2.991,1.381,5.56l-.028,1.529H426.245c0-2.484.616-5.1,1.842-6.581" transform="translate(-227.184 -609.371)" fill="#231815"/>
    <g id="Group_16503" data-name="Group 16503" transform="translate(355.047 7.785)">
      <g id="Group_16502" data-name="Group 16502" transform="translate(0)" clip-path="url(#clip-path-4)">
        <rect id="Rectangle_11446" data-name="Rectangle 11446" width="34.129" height="36.23" transform="translate(0 0)" fill="url(#radial-gradient-4)"/>
      </g>
    </g>
  </g>
</svg>
