<svg id="Group_16917" data-name="Group 16917" xmlns="http://www.w3.org/2000/svg" xmlns:xlink="http://www.w3.org/1999/xlink" width="307.133" height="79.468" viewBox="0 0 307.133 79.468">
  <defs>
    <clipPath id="clip-path">
      <path id="Path_16555" data-name="Path 16555" d="M363.668,613.346a62.454,62.454,0,0,0-8.021.819c-12.7,1.971-29.813,9.937-45.587,20.57-23.87,16.1-40.883,38.564-40.883,38.564s26.292-29.064,40.78-30.03c4.241-.285,4.446,2.538,4.241,6.21-.568,10.183-3.713,24.58-3.713,24.58s13.134-42.277,37.172-51.014c24.876-9.047-14.874,24.914-14.874,24.914C370,622.33,376.307,613.6,364.742,613.346Z" transform="translate(-269.176 -613.346)" fill="none"/>
    </clipPath>
    <radialGradient id="radial-gradient" cx="0.47" cy="0.5" r="0.685" gradientTransform="matrix(0.567, 0, 0, -1, -1.676, 12.456)" gradientUnits="objectBoundingBox">
      <stop offset="0" stop-color="#00a0e9"/>
      <stop offset="1" stop-color="#0068b7"/>
    </radialGradient>
    <clipPath id="clip-path-2">
      <path id="Path_16556" data-name="Path 16556" d="M307.576,618.248c-7.067,5.664-21.543,22.791-21.842,23.143,3.437-4.013,18.66-16.158,23.414-19.843,7-5.439,8-4.292,8.288-6.574.129-1.055-.308-1.482-1.109-1.482-2.011,0-6.25,2.758-8.751,4.755" transform="translate(-285.734 -613.493)" fill="none"/>
    </clipPath>
    <radialGradient id="radial-gradient-2" cx="0.498" r="0.535" gradientTransform="matrix(0.876, 0, 0, -1, -1.708, 27.091)" xlink:href="#radial-gradient"/>
    <clipPath id="clip-path-3">
      <path id="Path_16554" data-name="Path 16554" d="M548.236,619.931v2.346h.586c2.6,0,3.035,0,3.035.786a10.661,10.661,0,0,1-.863,2.86c-.151.375-.325.836-.537,1.373l-8.517,21.944h-.013l-8.043-21.519a30.7,30.7,0,0,1-1.61-4.4c0-.7.061-1.049,2.822-1.049h.6v-2.346H516.974v2.346h1.3c2.186,0,2.573.375,2.861.849a32.374,32.374,0,0,1,2.335,4.6l12.413,33.271h7.307L556.079,627.7a31.91,31.91,0,0,1,2.122-4.772c.276-.349.425-.686,2.562-.637l.724-.012v-2.346Z" transform="translate(-516.974 -619.931)" fill="none"/>
    </clipPath>
    <radialGradient id="radial-gradient-3" cx="0.5" r="0.521" gradientTransform="matrix(0.922, 0, 0, -1, -1.344, 17.368)" xlink:href="#radial-gradient"/>
    <clipPath id="clip-path-4">
      <path id="Path_16558" data-name="Path 16558" d="M552.015,625.318q-4.929,5.255-5.114,14.677v1.386q.181,9.154,5.251,14.647c3.5,3.8,10.3,5.7,16.212,5.7,3.522,0,10.253-.188,15.374-1.5V645.374a.612.612,0,0,1,.561-.648,7.837,7.837,0,0,1,.976-.037c.325,0,.661.012.973-.013l.488-.025v-2.523H571.948v2.523l.488.025a13.3,13.3,0,0,1,1.785.063.735.735,0,0,1,.749.749v11.54a1.159,1.159,0,0,1-.837,1.124,11.085,11.085,0,0,1-2.336.075c-4.72,0-7.993-1.036-10.666-4.31s-3.984-7.155-3.984-12.937c0-6.184,1.188-10.517,3.572-13.876s7.482-5.047,11.891-4.809c7.106.375,8.492,5.833,8.543,6.319l.037.538h2.571v-7.668a50.524,50.524,0,0,0-7.067-1.547,65.268,65.268,0,0,0-8.182-.5c-6.194,0-13.1,2.235-16.5,5.882" transform="translate(-546.901 -619.436)" fill="none"/>
    </clipPath>
    <radialGradient id="radial-gradient-4" cx="0.5" r="0.486" gradientTransform="matrix(1.062, 0, 0, -1, 1.262, 16.899)" xlink:href="#radial-gradient"/>
  </defs>
  <g id="Group_16795" data-name="Group 16795" transform="translate(106.97 64.676)">
    <path id="Path_35901" data-name="Path 35901" d="M9.108-10.116l-.984.408c.228.348.468.768.672,1.164a5.035,5.035,0,0,1-.564.024H2.676a13.361,13.361,0,0,1-1.428-.1v1.692c.312-.024.876-.048,1.428-.048h5.58a7.541,7.541,0,0,1-1.4,3.384,7.867,7.867,0,0,1-4.7,2.82L3.456.672A9.585,9.585,0,0,0,8.28-2.652,12.375,12.375,0,0,0,10.092-7.02a3.918,3.918,0,0,1,.264-.828l-.768-.5.444-.18A15.827,15.827,0,0,0,9.108-10.116Zm1.68-.3-1,.4a15.549,15.549,0,0,1,.96,1.62l1-.432C11.52-9.252,11.088-9.984,10.788-10.416Zm3.156,5.748L14.7-3.156a24.045,24.045,0,0,0,4.236-1.728v3.84A13.439,13.439,0,0,1,18.852.528h1.9a8.25,8.25,0,0,1-.108-1.572V-5.892a22.011,22.011,0,0,0,3.228-2.6l-1.3-1.236a15.384,15.384,0,0,1-3.384,2.916A19.3,19.3,0,0,1,13.944-4.668ZM35.16-9.216l-1.008.42a10.839,10.839,0,0,1,1.056,1.884l1.044-.444A20.406,20.406,0,0,0,35.16-9.216ZM36.8-9.792l-1.02.42a11.531,11.531,0,0,1,1.128,1.824L37.932-8A15.431,15.431,0,0,0,36.8-9.792Zm-6.864.348-.864,1.32c.792.444,2.04,1.248,2.712,1.716l.888-1.32C32.052-8.172,30.732-9.012,29.94-9.444ZM27.72-.924l.9,1.572A15.092,15.092,0,0,0,32.628-.828a14.475,14.475,0,0,0,4.764-4.32L36.468-6.78A12.148,12.148,0,0,1,31.8-2.28,12.869,12.869,0,0,1,27.72-.924Zm.372-5.784-.864,1.32c.8.432,2.052,1.236,2.736,1.716l.876-1.344C30.228-5.448,28.908-6.276,28.092-6.708ZM40.7-5.556v1.884c.444-.036,1.248-.06,1.932-.06H49.08c.5,0,1.116.048,1.4.06V-5.556c-.312.024-.84.072-1.4.072H42.636C42.012-5.484,41.136-5.52,40.7-5.556Zm22.9-3.8-1.752-.576a5.773,5.773,0,0,1-.54,1.26,10.566,10.566,0,0,1-3.744,3.864l1.344,1a13.678,13.678,0,0,0,3.024-2.9H65.3a8.53,8.53,0,0,1-1.7,3.276A9.564,9.564,0,0,1,58.764-.48L60.18.792a11.2,11.2,0,0,0,4.848-3.384A12.52,12.52,0,0,0,67.116-6.6a4.8,4.8,0,0,1,.4-.864L66.288-8.22a3.848,3.848,0,0,1-1.044.144H62.832c.012-.024.024-.036.036-.06C63.012-8.4,63.324-8.94,63.6-9.36Zm9,.156v1.548c.348-.024.864-.036,1.248-.036h4.6c.432,0,1,.012,1.32.036V-9.2a11.314,11.314,0,0,1-1.3.06h-4.62A10.115,10.115,0,0,1,72.6-9.2Zm8.172,3.48L79.7-6.384a2.531,2.531,0,0,1-.876.12h-5.94c-.372,0-.888-.036-1.392-.072v1.56c.5-.048,1.1-.06,1.392-.06h5.8A5.206,5.206,0,0,1,77.448-2.76,8.094,8.094,0,0,1,73.3-.66L74.484.7A8.986,8.986,0,0,0,78.768-1.9,8.624,8.624,0,0,0,80.544-5.22,4.445,4.445,0,0,1,80.772-5.724ZM89.988-9.8H88.14a5.929,5.929,0,0,1,.1,1.1v.924H85.668a9.955,9.955,0,0,1-1.224-.06A7.662,7.662,0,0,1,84.5-6.8v2.076a9.1,9.1,0,0,1-.06,1.008H86.1c-.024-.24-.036-.612-.036-.888V-6.36h5.952a7.124,7.124,0,0,1-1.068,3.084,5.874,5.874,0,0,1-2.724,2.052,9.773,9.773,0,0,1-1.692.468L87.78.684a7.626,7.626,0,0,0,4.9-3.6,11.176,11.176,0,0,0,1.116-3.4,8.012,8.012,0,0,1,.24-.96l-1.044-.636a2.92,2.92,0,0,1-1,.132H89.9V-8.7A8.722,8.722,0,0,1,89.988-9.8Zm14.52.876-1.008.42a10.28,10.28,0,0,1,1.056,1.86l1.044-.468C105.324-7.656,104.844-8.424,104.508-8.928Zm1.572-.66-1,.468a11.235,11.235,0,0,1,1.116,1.8l1.008-.492A15.891,15.891,0,0,0,106.08-9.588ZM99.72-.972A12.994,12.994,0,0,1,99.6.7h1.884c-.06-.492-.12-1.332-.12-1.668v-3.4a32.148,32.148,0,0,1,4.344,1.788l.672-1.668a41.747,41.747,0,0,0-5.016-1.872V-7.872a13.049,13.049,0,0,1,.108-1.452H99.6a8.468,8.468,0,0,1,.12,1.452Z" transform="translate(0 14)"/>
  </g>
  <g id="Group_16913" data-name="Group 16913" transform="translate(0 0)">
    <path id="Path_16545" data-name="Path 16545" d="M1094.095,647.73a14.859,14.859,0,0,1-5.644-.95,9.619,9.619,0,0,1-3.768-2.678,10.714,10.714,0,0,1-2.118-4.165,20.837,20.837,0,0,1-.659-5.442,13.505,13.505,0,0,1,1.261-6.142,11.459,11.459,0,0,1,3.287-4.029,12.9,12.9,0,0,1,4.548-2.2,19.889,19.889,0,0,1,5.045-.662c.621,0,1.312.018,2.073.049s1.5.075,2.221.126,1.4.105,2.026.162,1.127.122,1.486.188l-1.111,3.053q-.6-.151-1.679-.351t-2.328-.362c-.832-.108-1.648-.2-2.448-.275s-1.471-.114-2.011-.114a17.273,17.273,0,0,0-3.092.239,6.5,6.5,0,0,0-2.4.962,5.027,5.027,0,0,0-1.893,3.3,28.494,28.494,0,0,0-.54,6.056q0,5.532,1.938,8.393t6.229,2.867c.8,0,1.631-.027,2.492-.075s1.717-.126,2.567-.227,1.687-.225,2.508-.377,1.591-.323,2.311-.524v1.327a19.829,19.829,0,0,1-2.387.788q-1.276.335-2.611.575t-2.688.362q-1.348.126-2.611.126" transform="translate(-875.15 -596.237)" fill="#231815"/>
    <path id="Path_16546" data-name="Path 16546" d="M1099.485,648.381V620.309l4.052-.851v28.923Z" transform="translate(-866.344 -597.239)" fill="#231815"/>
    <path id="Path_16547" data-name="Path 16547" d="M1115.149,644.891q-4.834,0-7.4-2.265t-2.566-6.618a10.4,10.4,0,0,1,.63-3.716,7.234,7.234,0,0,1,1.89-2.814,8.694,8.694,0,0,1,3.123-1.777,13.622,13.622,0,0,1,4.323-.624,14.286,14.286,0,0,1,4.294.588,8.366,8.366,0,0,1,3.124,1.725,7.136,7.136,0,0,1,1.89,2.792,10.5,10.5,0,0,1,.63,3.776,10.375,10.375,0,0,1-.63,3.73,7.35,7.35,0,0,1-1.89,2.814,8.426,8.426,0,0,1-3.124,1.776,13.742,13.742,0,0,1-4.294.614m-5.673-8.908a14.025,14.025,0,0,0,.315,3.2,5.48,5.48,0,0,0,.99,2.176,3.952,3.952,0,0,0,1.741,1.252,7.308,7.308,0,0,0,2.567.4,9.926,9.926,0,0,0,2.132-.2,5.937,5.937,0,0,0,1.8-.75,3.362,3.362,0,0,0,1.411-2.265,17.549,17.549,0,0,0,.36-3.79q0-3.652-1.337-5.342a5.084,5.084,0,0,0-4.247-1.688,10.518,10.518,0,0,0-2.146.2,5.863,5.863,0,0,0-1.786.7,2.269,2.269,0,0,0-.84.913,6.724,6.724,0,0,0-.555,1.426,10.024,10.024,0,0,0-.315,1.791q-.092.975-.091,1.975" transform="translate(-863.49 -593.423)" fill="#231815"/>
    <path id="Path_16548" data-name="Path 16548" d="M1125.355,627.326v11.91a5.831,5.831,0,0,0,.12,1.189,2.4,2.4,0,0,0,.5,1.051,2.733,2.733,0,0,0,1.066.764,4.792,4.792,0,0,0,1.862.3,9.123,9.123,0,0,0,1.605-.152c.572-.1,1.146-.224,1.726-.375a17.473,17.473,0,0,0,1.683-.524q.811-.3,1.471-.6V627.326h4.054v17.114h-3.394l-.6-2c-.461.219-1,.464-1.608.74s-1.27.534-1.981.774a20.2,20.2,0,0,1-2.206.612,10.681,10.681,0,0,1-2.313.251,8.953,8.953,0,0,1-2.431-.312,5.3,5.3,0,0,1-1.9-.95,4.451,4.451,0,0,1-1.248-1.576,5.07,5.07,0,0,1-.45-2.215V627.326Z" transform="translate(-855.415 -593.298)" fill="#231815"/>
    <path id="Path_16549" data-name="Path 16549" d="M1151.03,631.219c-.019-.251-.03-.5-.03-.752-.019-.2-.03-.413-.03-.638v-9.52l4.024-.85V648.38h-2.672l-1.112-1.6h-.088c-.42.249-.862.488-1.322.712s-.935.431-1.424.614a9.878,9.878,0,0,1-1.577.438,9.331,9.331,0,0,1-1.773.162,11.651,11.651,0,0,1-3.242-.45,7.516,7.516,0,0,1-2.762-1.452,7.1,7.1,0,0,1-1.921-2.615,9.583,9.583,0,0,1-.72-3.916,10.506,10.506,0,0,1,.705-3.952,7.85,7.85,0,0,1,2.041-2.954,9.081,9.081,0,0,1,3.244-1.837,13.514,13.514,0,0,1,4.308-.638c.641,0,1.342.032,2.1.1s1.511.143,2.251.227m-10.358,8.856a9.131,9.131,0,0,0,.406,2.9,5.151,5.151,0,0,0,1.156,1.977,4.4,4.4,0,0,0,1.8,1.124,7.248,7.248,0,0,0,2.311.351,14.128,14.128,0,0,0,2.461-.212,13.664,13.664,0,0,0,2.133-.54V633.02q-.964-.126-1.848-.188c-.59-.044-1.226-.063-1.9-.063a16.39,16.39,0,0,0-2.66.2,4.722,4.722,0,0,0-1.876.65,3.291,3.291,0,0,0-.674.751,6.147,6.147,0,0,0-.647,1.289,9.844,9.844,0,0,0-.481,1.888,15.831,15.831,0,0,0-.18,2.528" transform="translate(-847.862 -597.239)" fill="#231815"/>
    <g id="Group_16913-2" data-name="Group 16913" transform="translate(0 0)">
      <g id="Group_16498" data-name="Group 16498" clip-path="url(#clip-path)">
        <rect id="Rectangle_11443" data-name="Rectangle 11443" width="107.131" height="60.714" transform="translate(0)" fill="url(#radial-gradient)"/>
      </g>
    </g>
    <g id="Group_16914" data-name="Group 16914" transform="translate(25.499 0.226)">
      <g id="Group_16500" data-name="Group 16500" clip-path="url(#clip-path-2)">
        <rect id="Rectangle_11444" data-name="Rectangle 11444" width="31.831" height="27.898" transform="translate(0 0)" fill="url(#radial-gradient-2)"/>
      </g>
    </g>
    <g id="Group_16915" data-name="Group 16915" transform="translate(107.869 10.856)">
      <g id="Group_16496" data-name="Group 16496" clip-path="url(#clip-path-3)">
        <rect id="Rectangle_11442" data-name="Rectangle 11442" width="44.513" height="41.061" fill="url(#radial-gradient-3)"/>
      </g>
    </g>
    <g id="Group_16916" data-name="Group 16916" transform="translate(152.525 10.118)">
      <g id="Group_16502" data-name="Group 16502" transform="translate(0)" clip-path="url(#clip-path-4)">
        <rect id="Rectangle_11446" data-name="Rectangle 11446" width="39.835" height="42.288" transform="translate(0 0)" fill="url(#radial-gradient-4)"/>
      </g>
    </g>
  </g>
</svg>
