<svg id="Group_17115" data-name="Group 17115" xmlns="http://www.w3.org/2000/svg" width="323.298" height="60.27" viewBox="0 0 323.298 60.27">
  <g id="Group_17114" data-name="Group 17114" transform="translate(76.503 9.695)">
    <rect id="Rectangle_11600" data-name="Rectangle 11600" width="5.005" height="5.004" transform="translate(27.271 10.88)" fill="#656464"/>
    <path id="Path_17015" data-name="Path 17015" d="M465.55,201.132h-8.3a5.353,5.353,0,0,0-5.354,5.354v9.3a5.354,5.354,0,0,0,5.354,5.354h8.3a5.354,5.354,0,0,0,5.354-5.354v-9.3a5.353,5.353,0,0,0-5.354-5.354m.351,14.22a2.985,2.985,0,0,1-3.3,3.282h-2.4a2.985,2.985,0,0,1-3.3-3.282v-8.436a2.985,2.985,0,0,1,3.3-3.282h2.4a2.985,2.985,0,0,1,3.3,3.282Z" transform="translate(-322.565 -180.257)" fill="#656464"/>
    <path id="Path_17016" data-name="Path 17016" d="M436.639,206.486v14.65h5v-14.22a2.986,2.986,0,0,1,3.3-3.283h5.064v-2.5h-8.013a5.354,5.354,0,0,0-5.354,5.354" transform="translate(-322.993 -180.257)" fill="#656464"/>
    <path id="Path_17017" data-name="Path 17017" d="M429.482,191.409H414.3v30h5v-13.77l10.181,0a5.354,5.354,0,0,0,5.354-5.354v-5.519a5.354,5.354,0,0,0-5.354-5.354m.35,10.443a2.985,2.985,0,0,1-3.3,3.282l-7.232,0V193.911h7.232a2.985,2.985,0,0,1,3.3,3.282Z" transform="translate(-323.619 -180.529)" fill="#656464"/>
    <rect id="Rectangle_11601" data-name="Rectangle 11601" width="5.003" height="20.004" transform="translate(27.273 20.876)" fill="#656464"/>
    <path id="Path_17018" data-name="Path 17018" d="M326.091,191.409v2.5H335.6v27.5h5v-27.5h9.506v-2.5Z" transform="translate(-326.091 -180.529)" fill="#656464"/>
    <rect id="Rectangle_11602" data-name="Rectangle 11602" width="9.45" height="2.501" transform="translate(153.414 24.641)" fill="#656464"/>
    <path id="Path_17019" data-name="Path 17019" d="M405.944,201.132h-8.3a5.354,5.354,0,0,0-5.354,5.354v9.3a5.353,5.353,0,0,0,5.354,5.353h8.3a5.353,5.353,0,0,0,5.354-5.353v-.9h-5v.465a2.986,2.986,0,0,1-3.3,3.283h-2.4a2.986,2.986,0,0,1-3.3-3.283v-2.967h14v-5.9a5.353,5.353,0,0,0-5.354-5.354m.351,8.751h-9v-2.967a2.985,2.985,0,0,1,3.3-3.283H403a2.986,2.986,0,0,1,3.3,3.283Z" transform="translate(-324.236 -180.257)" fill="#656464"/>
    <path id="Path_17020" data-name="Path 17020" d="M384.343,201.132h-5.777a5.318,5.318,0,0,0-2.852.829,5.322,5.322,0,0,0-2.853-.829h-5.778a5.353,5.353,0,0,0-5.353,5.354v14.65h5v-14.22a3.239,3.239,0,1,1,6.477,0v14.22h5v-14.22a3.24,3.24,0,1,1,6.479,0v14.22h5v-14.65a5.354,5.354,0,0,0-5.354-5.354" transform="translate(-325.092 -180.257)" fill="#656464"/>
    <path id="Path_17021" data-name="Path 17021" d="M520.285,180.825V215.6l-23.311-34.756h0v-.014h-6.818V221.7h6.818V186.957L520.285,221.7H527.1V180.825Z" transform="translate(-321.494 -180.825)" fill="#656464"/>
    <path id="Path_17022" data-name="Path 17022" d="M567.166,180.825h-8.323l-11.358,16.219-12.633-16.219H530.69l14.825,19.033-15.3,21.846h8.323L549.9,205.486,562.531,221.7h4.161l-14.824-19.033Z" transform="translate(-320.371 -180.825)" fill="#656464"/>
  </g>
  <path id="Path_17033" data-name="Path 17033" d="M270.105,230.379H257v-13.1h8.9a4.2,4.2,0,0,1,4.2,4.2Z" transform="translate(-257.003 -170.109)" fill="#207cbf"/>
  <path id="Path_17034" data-name="Path 17034" d="M285.4,230.379H272.3v-13.1h8.9a4.2,4.2,0,0,1,4.2,4.2Z" transform="translate(-256.574 -170.109)" fill="#207cbf"/>
  <path id="Path_17035" data-name="Path 17035" d="M300.692,230.379h-13.1v-13.1h8.9a4.2,4.2,0,0,1,4.2,4.2Z" transform="translate(-256.146 -170.109)" fill="#207cbf"/>
  <path id="Path_17036" data-name="Path 17036" d="M315.986,230.379h-13.1v-13.1h8.9a4.2,4.2,0,0,1,4.2,4.2Z" transform="translate(-255.717 -170.109)" fill="#207cbf"/>
  <path id="Path_17037" data-name="Path 17037" d="M285.4,215.085H272.3v-13.1h8.9a4.2,4.2,0,0,1,4.2,4.2Z" transform="translate(-256.574 -170.538)" fill="#448d9d"/>
  <path id="Path_17038" data-name="Path 17038" d="M300.692,215.085h-13.1v-13.1h8.9a4.2,4.2,0,0,1,4.2,4.2Z" transform="translate(-256.146 -170.538)" fill="#448d9d"/>
  <path id="Path_17039" data-name="Path 17039" d="M315.986,215.085h-13.1v-13.1h8.9a4.2,4.2,0,0,1,4.2,4.2Z" transform="translate(-255.717 -170.538)" fill="#448d9d"/>
  <path id="Path_17040" data-name="Path 17040" d="M300.692,199.791h-13.1v-13.1h8.9a4.2,4.2,0,0,1,4.2,4.2Z" transform="translate(-256.146 -170.967)" fill="#5d9c6e"/>
  <path id="Path_17041" data-name="Path 17041" d="M315.986,199.791h-13.1v-13.1h8.9a4.2,4.2,0,0,1,4.2,4.2Z" transform="translate(-255.717 -170.967)" fill="#5d9c6e"/>
  <path id="Path_17042" data-name="Path 17042" d="M315.986,184.5h-13.1v-13.1h8.9a4.2,4.2,0,0,1,4.2,4.2Z" transform="translate(-255.717 -171.395)" fill="#73ab31"/>
</svg>
