<svg xmlns="http://www.w3.org/2000/svg" width="689.602" height="126.865" viewBox="0 0 689.602 126.865">
  <g id="グループ_23716" data-name="グループ 23716" transform="translate(-615 -11680)">
    <text id="まずは気軽にお問い合わせください" transform="translate(960 11708)" fill="#5fa826" font-size="24" font-family="NotoSansJP-Bold, Noto Sans JP" font-weight="700"><tspan x="-192" y="0">まずは</tspan><tspan y="0">気軽</tspan><tspan y="0">にお</tspan><tspan y="0">問</tspan><tspan y="0">い</tspan><tspan y="0">合</tspan><tspan y="0">わせください</tspan></text>
    <text id="お問い合わせ" transform="translate(1154.602 11774)" fill="#111" font-size="50" font-family="NotoSansJP-Medium, Noto Sans JP" font-weight="500"><tspan x="-150" y="0">お</tspan><tspan y="0">問</tspan><tspan y="0">い</tspan><tspan y="0">合</tspan><tspan y="0">わせ</tspan></text>
    <g id="グループ_23713" data-name="グループ 23713" transform="translate(502.681 11342.338)">
      <g id="グループ_23708" data-name="グループ 23708" transform="translate(112.319 376.663)">
        <g id="グループ_23707" data-name="グループ 23707">
          <g id="グループ_23703" data-name="グループ 23703" transform="translate(92.316 12.698)">
            <g id="グループ_23702" data-name="グループ 23702">
              <path id="パス_36181" data-name="パス 36181" d="M211.316,416.478c.41,8.643,4.833,12.795,10.686,12.795,4.559,0,7.213-2.314,9.052-6.669a2.384,2.384,0,0,1,2.178-1.7c1.292,0,2.857.884,2.857,2.314a3.151,3.151,0,0,1-.272,1.292c-2.655,5.377-6.669,8.916-13.815,8.916-10.14,0-15.722-7.827-15.722-18.1,0-10.14,5.717-17.967,15.79-17.967,10.208,0,14.5,9.256,14.5,14.768,0,3-.952,4.355-4.014,4.355Zm19.261-4.082c.681,0,1.02-.478,1.02-1.157a4.65,4.65,0,0,0-.136-1.021c-1.088-4.9-4.014-8.711-9.392-8.711-5.581,0-9.664,3.879-10.616,10.889Z" transform="translate(-206.28 -389.723)" fill="#262626"/>
              <path id="パス_36182" data-name="パス 36182" d="M246.266,416.338c-1.424,0-1.823-.8-1.823-1.708s.4-1.652,1.823-1.652h9.052c1.368,0,1.823.74,1.823,1.652a1.589,1.589,0,0,1-1.823,1.708Z" transform="translate(-206.948 -389.997)" fill="#262626"/>
              <path id="パス_36183" data-name="パス 36183" d="M266.792,432.694a1.989,1.989,0,0,1-1.992,1.366,2.177,2.177,0,0,1-2.449-2.049,2.822,2.822,0,0,1,.285-1.253l15.658-38.09c.684-1.822,1.482-2.733,3.132-2.733,1.822,0,2.675.912,3.359,2.733L300.1,430.7a3.591,3.591,0,0,1,.285,1.2,2.481,2.481,0,0,1-4.669.74l-4.782-12.469H271.689Zm22.718-16.341-6.263-16.227c-.456-1.2-1.254-3.3-1.88-5.125-.512,1.822-1.31,3.929-1.765,5.125l-6.376,16.227Z" transform="translate(-207.262 -389.593)" fill="#262626"/>
              <path id="パス_36184" data-name="パス 36184" d="M331.8,429.107c-.8,1.708-1.368,2.333-2.79,2.333-1.48,0-2.049-.683-2.847-2.333l-8.37-17.935c-2.334-5.01-4.326-10.078-6.49-15.259.229,5.58.343,10.876.4,16.741l.113,19.072a2.18,2.18,0,0,1-2.334,2.334,2.108,2.108,0,0,1-2.276-2.334V393.237c0-2.505,1.025-3.3,2.96-3.3s2.562.8,3.758,3.3l12.355,26.133c1.025,2.163,2.106,5.125,2.79,7.06.74-1.936,1.823-4.9,2.789-7.06l11.615-26.133c1.139-2.505,1.935-3.3,3.872-3.3s2.79.8,2.79,3.3v38.488a2.108,2.108,0,0,1-2.276,2.334,2.15,2.15,0,0,1-2.336-2.334l.172-18.5c.057-6.263.227-11.9.456-17.308-2.164,5.181-3.987,10.02-6.32,15.2Z" transform="translate(-208.048 -389.593)" fill="#262626"/>
              <path id="パス_36185" data-name="パス 36185" d="M362.649,432.694a1.988,1.988,0,0,1-1.992,1.366,2.177,2.177,0,0,1-2.449-2.049,2.808,2.808,0,0,1,.285-1.253l15.658-38.09c.684-1.822,1.481-2.733,3.131-2.733,1.823,0,2.675.912,3.359,2.733L395.956,430.7a3.567,3.567,0,0,1,.285,1.2,2.48,2.48,0,0,1-4.668.74l-4.783-12.469H367.547Zm22.718-16.341L379.1,400.126c-.457-1.2-1.253-3.3-1.879-5.125-.513,1.822-1.31,3.929-1.765,5.125l-6.377,16.227Z" transform="translate(-208.941 -389.593)" fill="#262626"/>
              <path id="パス_36186" data-name="パス 36186" d="M437.339,430.7c0,2.392-.569,3.359-2.277,3.359-1.822,0-2.505-.853-4.214-3.359l-17.706-25.678c-2.105-3.017-3.814-6.205-5.863-9.564.228,3.586.284,7.458.284,11.159l.171,25.108a2.167,2.167,0,0,1-2.392,2.334,2.108,2.108,0,0,1-2.276-2.334V393.237c0-2.22.854-3.3,2.789-3.3,2.106,0,2.848,1.083,4.441,3.3L428.4,419.484a67.378,67.378,0,0,1,4.782,8.541c-.227-3.36-.4-7.174-.4-10.875l-.115-24.824a2.184,2.184,0,0,1,2.278-2.392,2.268,2.268,0,0,1,2.39,2.392Z" transform="translate(-209.726 -389.593)" fill="#262626"/>
              <path id="パス_36187" data-name="パス 36187" d="M463.407,434.394c-12.469,0-18.788-9.677-18.788-22.545,0-12.925,6.433-22.262,18.845-22.262,12.641,0,18.674,9.338,18.674,22.262C482.138,424.717,476.047,434.394,463.407,434.394Zm0-4.041c9,0,14.063-7.118,14.063-18.5,0-11.444-5.01-18.219-14.006-18.219-8.769,0-14.176,6.775-14.176,18.219C449.288,423.235,454.582,430.353,463.407,430.353Z" transform="translate(-210.454 -389.587)" fill="#262626"/>
            </g>
          </g>
          <g id="グループ_23706" data-name="グループ 23706">
            <g id="グループ_23704" data-name="グループ 23704" transform="translate(0 0.364)">
              <path id="パス_36188" data-name="パス 36188" d="M161.975,421.634A32.562,32.562,0,0,1,178.87,436.74l1.978.912c1.241.573,2.318,1.031,3.388,1.44h0c-1.613-5.607-6.307-12.6-13.758-17.636a34.973,34.973,0,0,0-11.151-4.979c.482,1.153,1.007,2.3,1.6,3.405C161.257,420.485,161.622,421.054,161.975,421.634Z" transform="translate(-113.142 -377.723)" fill="#0092e5"/>
              <path id="パス_36189" data-name="パス 36189" d="M151.188,417.962l-.283-.726c-.062-.155-.123-.312-.177-.458l-.041-.119c-.136-.384-.252-.744-.368-1.1l-.179-.568c-.026-.081-.047-.16-.072-.24a33.446,33.446,0,0,0-3.738.18,43.58,43.58,0,0,0-1.383-6.737c-.06-.211-.112-.421-.175-.632-.11-.368-.211-.736-.331-1.105-.191-.585-.374-1.168-.592-1.755-.3-.808-.652-1.649-1.03-2.5-.172-.387-.361-.781-.549-1.176-.1-.2-.208-.413-.31-.619-4.04-8.136-11.809-17.563-26.85-23.239h0a2.088,2.088,0,0,0-.344-.089c-.02,0-.037-.012-.057-.016a2.068,2.068,0,0,0-2.063.93l0,0a2.089,2.089,0,0,0-.179.361l-.007.013a1.923,1.923,0,0,0-.054.205,1.953,1.953,0,0,0-.053.2,2.062,2.062,0,0,0,1.309,2.247c1.085.409,2.122.842,3.126,1.291,11.1,4.963,17.359,12.205,20.888,18.734a40.257,40.257,0,0,1,2.2,4.785c.038.1.085.207.122.307a40.49,40.49,0,0,1,2.269,9.469,39.783,39.783,0,0,0-5.017,1.481c-17.677,6.49-18.42,16.149-18.226,18.954a9.2,9.2,0,0,0,7.3,8.585,9.607,9.607,0,0,0,1.487.2c3.376.187,10.163-1.057,16.15-12.087,1.672-3.079,2.791-7.971,2.673-13.719a29.6,29.6,0,0,1,4.945-.165C151.434,418.552,151.306,418.252,151.188,417.962ZM140.534,429.7c-4.1,7.55-8.81,9.535-11.857,8.871a4.655,4.655,0,0,1-3.665-4.367c-.267-3.87,3.276-9.413,14.019-13.358a33.612,33.612,0,0,1,3.471-1.069A21.521,21.521,0,0,1,140.534,429.7Z" transform="translate(-112.319 -377.033)" fill="#0092e5"/>
            </g>
            <g id="グループ_23705" data-name="グループ 23705" transform="translate(0.31)">
              <path id="パス_36190" data-name="パス 36190" d="M135.091,400.19a36.237,36.237,0,0,1-9.1-5.47,32.415,32.415,0,0,1-8.089-9.671l-1.915-.857c-1.03-.461-2.017-.87-3.018-1.248-.119-.044-.225-.107-.336-.161,1.187,4.756,5.2,10.553,10.735,15.118a38.146,38.146,0,0,0,14.407,7.506c-.488-1.164-1.019-2.32-1.623-3.439C135.823,401.358,135.45,400.778,135.091,400.19Z" transform="translate(-112.634 -376.77)" fill="#5da71e"/>
              <path id="パス_36191" data-name="パス 36191" d="M184.616,442.059a2.061,2.061,0,0,0-1.322-1.845c-1.226-.47-2.384-.973-3.507-1.49C168.857,433.683,162.667,426.5,159.169,420a40.278,40.278,0,0,1-2.155-4.691c-.071-.184-.15-.373-.216-.555a39.757,39.757,0,0,1-2.147-8.987,36.825,36.825,0,0,0,4.923-1.4c17.709-6.4,18.5-16.056,18.321-18.862a9.2,9.2,0,0,0-7.255-8.62c-2.341-.518-10.544-1.216-17.7,11.8-1.67,3.039-2.794,7.9-2.67,13.628a28.955,28.955,0,0,1-4.922.059c.258.61.5,1.191.693,1.718s.363,1.043.532,1.564l.083.258c.063.191.118.382.175.574a32.883,32.883,0,0,0,3.731-.1,43.758,43.758,0,0,0,1.784,8.026l.183.583c.114.352.226.7.352,1.055.01.028.019.054.027.081l.015.044h0c.071.194.155.4.235.607l.053.137.15.387c.15.368.31.749.478,1.136l.268.621c3.808,8.505,11.622,18.839,27.706,25,.023.009.046.007.069.015a2.041,2.041,0,0,0,.471.1c.049.006.1.01.149.012a2.065,2.065,0,0,0,.557-.057c.022,0,.041-.015.063-.022a2.074,2.074,0,0,0,.477-.208c.029-.018.062-.033.09-.053a2.032,2.032,0,0,0,.417-.368c.025-.029.046-.059.069-.088a2.032,2.032,0,0,0,.3-.518,2.076,2.076,0,0,0,.107-.4,2.039,2.039,0,0,0,.022-.3c0-.035.008-.071.007-.106Zm-28.27-50.32c3.769-6.86,8.023-9.1,11.049-8.928a5.354,5.354,0,0,1,.852.116,4.658,4.658,0,0,1,3.643,4.385c.248,3.873-3.324,9.4-14.086,13.287a31.227,31.227,0,0,1-3.417,1.022A21.168,21.168,0,0,1,156.346,391.739Z" transform="translate(-113.207 -376.663)" fill="#5da71e"/>
            </g>
          </g>
        </g>
      </g>
      <g id="グループ_23709" data-name="グループ 23709" transform="translate(206.696 443.735)">
        <path id="パス_36192" data-name="パス 36192" d="M208.948,452.349a26.526,26.526,0,0,1,3.993,1.458c1.267.548,1.542.654,1.542,1.118a.616.616,0,0,1-.548.655,1.807,1.807,0,0,1-.635-.232,37.594,37.594,0,0,0-4.288-1.733c-.338-.126-.634-.252-.634-.675A.567.567,0,0,1,208.948,452.349Zm.719,11.512c0-.422.105-.485,1.162-.8,3.189-.929,8.617-3.7,13.138-9.949.4-.549.549-.76.845-.76a.674.674,0,0,1,.7.612c0,.4-2.683,4.182-6.421,7.14a21.888,21.888,0,0,1-8.725,4.5A.692.692,0,0,1,209.667,463.861Zm1.12-16.771a27.838,27.838,0,0,1,4.034,1.479c1.1.485,1.479.633,1.479,1.077a.631.631,0,0,1-.571.654,1.758,1.758,0,0,1-.634-.21,35.39,35.39,0,0,0-4.266-1.732c-.254-.084-.613-.233-.613-.655A.588.588,0,0,1,210.787,447.09Z" transform="translate(-208.378 -444.968)" fill="#3b3938" stroke="#3b3938" stroke-miterlimit="10" stroke-width="0.25"/>
        <path id="パス_36193" data-name="パス 36193" d="M230.533,449.625a.612.612,0,1,1,0-1.224h13.181c.993,0,2.2,0,2.2,1.542a17.1,17.1,0,0,1-11.07,14.363.6.6,0,0,1-.59-.634c0-.337.147-.422.866-.76a17,17,0,0,0,7.816-7.245,14.5,14.5,0,0,0,1.648-5.3c0-.74-.507-.74-1.161-.74Z" transform="translate(-208.755 -444.991)" fill="#3b3938" stroke="#3b3938" stroke-miterlimit="10" stroke-width="0.25"/>
        <path id="パス_36194" data-name="パス 36194" d="M257.718,464.463c0,.234-.042.613-.654.613-.635,0-.677-.338-.677-.613v-17.32c0-.233.042-.634.655-.634s.676.359.676.634v5.6a43.544,43.544,0,0,1,8.914,5.048c.57.4.717.549.717.845a.707.707,0,0,1-.654.718c-.274,0-.38-.084-1.394-.845a41.639,41.639,0,0,0-7.583-4.414Z" transform="translate(-209.219 -444.958)" fill="#3b3938" stroke="#3b3938" stroke-miterlimit="10" stroke-width="0.25"/>
        <path id="パス_36195" data-name="パス 36195" d="M275.88,465a.534.534,0,0,1-.571.612c-.444,0-.612-.169-.612-.612v-11.66c-.487.74-1.67,2.6-2.261,2.6a.732.732,0,0,1-.654-.717.87.87,0,0,1,.316-.592,23,23,0,0,0,4.668-8.2c.084-.253.19-.464.529-.464.253,0,.634.147.634.506a19.366,19.366,0,0,1-2.048,4.838Zm14.828-15.737a.543.543,0,1,1,0,1.078h-6.844v4.034h6.358a.543.543,0,1,1,0,1.078h-6.358v4.034h6.358a.543.543,0,1,1,0,1.078h-6.358V465a.534.534,0,0,1-.57.612c-.422,0-.634-.148-.634-.612v-14.66h-1.289a24.293,24.293,0,0,1-1.986,3.147c-.359.466-.717.929-1.078.929a.71.71,0,0,1-.654-.7c0-.212.127-.338.317-.549a18.7,18.7,0,0,0,3.844-6.654c.105-.3.19-.548.591-.548a.527.527,0,0,1,.592.528,12.755,12.755,0,0,1-1.078,2.767Z" transform="translate(-209.488 -444.949)" fill="#3b3938" stroke="#3b3938" stroke-miterlimit="10" stroke-width="0.25"/>
        <path id="パス_36196" data-name="パス 36196" d="M298.65,450.448c-.781,0-1.1.36-1.1,1.1v2.218h4.161c1.563,0,2.069.507,2.069,2.048a39.336,39.336,0,0,1-.232,4.394c-.274,1.818-.8,2.535-2.43,2.535-.252,0-1.394-.021-1.626-.021-.211,0-.653,0-.653-.655,0-.613.422-.613.59-.613.021,0,1.31.042,1.542.042.529,0,1.078-.105,1.31-1.119a28.865,28.865,0,0,0,.316-4.33c0-1.078-.211-1.247-1.288-1.247h-3.759v1.036a30.949,30.949,0,0,1-.676,6.4,12.022,12.022,0,0,1-1.057,2.81.482.482,0,0,1-.443.3.727.727,0,0,1-.718-.654,1.114,1.114,0,0,1,.191-.592c.866-1.626,1.479-3.739,1.479-8.2v-4.435c0-1.563.528-2.134,2.133-2.134h7.329c-.063-1.521-.063-1.754-.063-2.472,0-.591,0-.971.59-.971.549,0,.592.379.592.633.021.444.042,2.408.063,2.81h6.739c.253,0,.59.042.59.549,0,.528-.316.57-.59.57h-6.7a49.185,49.185,0,0,0,.866,7.245,14.5,14.5,0,0,0,.466,1.838,20.142,20.142,0,0,0,3.252-6.569c.106-.338.191-.612.549-.612.275,0,.7.169.7.548a22.925,22.925,0,0,1-4.056,7.9c1.436,3.316,2.641,3.507,2.957,3.507.338,0,.845-.148,1.373-3.274.042-.316.106-.549.485-.549a.548.548,0,0,1,.613.507,16.469,16.469,0,0,1-.634,2.746c-.19.57-.57,1.773-1.774,1.773-2.006,0-3.505-3.041-3.865-3.823a16.59,16.59,0,0,1-5.872,3.675.668.668,0,0,1-.634-.654c0-.317.253-.423.507-.529a16.684,16.684,0,0,0,5.514-3.632,24.693,24.693,0,0,1-1.078-4.648c-.316-2.238-.443-4.2-.528-5.45Zm12.864-3.21c1.226.991,1.226,1.1,1.226,1.288a.7.7,0,0,1-.655.654c-.211,0-.253-.084-.823-.59a17.931,17.931,0,0,0-1.542-1.247c-.233-.19-.38-.3-.38-.549a.651.651,0,0,1,.529-.571C310.2,446.182,311.092,446.9,311.514,447.238Z" transform="translate(-209.889 -444.947)" fill="#3b3938" stroke="#3b3938" stroke-miterlimit="10" stroke-width="0.25"/>
        <path id="パス_36197" data-name="パス 36197" d="M320.009,454.21c-.191,0-.591,0-.591-.548,0-.529.359-.55.591-.55h7.013v-3.337h-8.639a.5.5,0,0,1-.591-.55.513.513,0,0,1,.591-.548h8.639v-2.071a.523.523,0,0,1,.571-.612c.464,0,.654.148.654.612v2.071h8.64a.528.528,0,0,1,.612.548c0,.55-.444.55-.612.55h-8.64v3.337h3.169c1.035,0,1.2,0,1.584.191a1.08,1.08,0,0,1,.613,1.035c0,1.436-2.494,4.9-4.816,6.7a20.853,20.853,0,0,0,7.182,2.809,8.057,8.057,0,0,1,1.014.232c.211.064.274.233.274.466a.625.625,0,0,1-.612.676,23.268,23.268,0,0,1-8.914-3.422,25.925,25.925,0,0,1-9.083,3.422.648.648,0,0,1-.654-.676.527.527,0,0,1,.528-.591,24.834,24.834,0,0,0,8.154-2.894,12.835,12.835,0,0,1-4.182-5.217.617.617,0,0,1,.634-.612c.3,0,.4.169.549.421a14.117,14.117,0,0,0,4.056,4.668c2.851-2.133,4.457-5.069,4.457-5.618,0-.486-.4-.486-.866-.486Z" transform="translate(-210.294 -444.949)" fill="#3b3938" stroke="#3b3938" stroke-miterlimit="10" stroke-width="0.25"/>
        <path id="パス_36198" data-name="パス 36198" d="M344.81,463.545c0,.465,0,1.352-.824,1.605-.359.127-.4.127-2.261.127a.58.58,0,0,1-.654-.633c0-.55.443-.55.634-.55.211,0,1.141.021,1.33,0a.679.679,0,0,0,.613-.781v-5.365a20.458,20.458,0,0,1-2.366.76.538.538,0,0,1-.507-.591.469.469,0,0,1,.36-.508c.337-.147,2.111-.7,2.513-.823v-5.6h-2.176c-.147,0-.591,0-.591-.507,0-.528.422-.528.591-.528h2.176V446.52c0-.211.022-.59.591-.59.464,0,.571.253.571.59v3.634h1.732c.21,0,.57.021.57.528,0,.465-.317.507-.57.507H344.81v5.153c.338-.127,1.309-.528,1.563-.633a1.062,1.062,0,0,1,.359-.106c.338,0,.422.338.422.529a.5.5,0,0,1-.3.465c-.3.169-1.352.612-2.048.886Zm3.21-7.2c-.232,0-.571-.063-.571-.485,0-.338.17-.506.571-.506h2.957a13.955,13.955,0,0,0,.169-2.156H348.21c-.169,0-.57-.021-.57-.485,0-.4.295-.486.57-.486h8.238a27.483,27.483,0,0,0,1.965-3.421c.359-.761.4-.846.717-.846a.594.594,0,0,1,.592.529,16.9,16.9,0,0,1-1.987,3.738h1.479c.253,0,.571.063.571.466,0,.359-.191.506-.571.506h-6.929a17.376,17.376,0,0,1-.169,2.156h7.563c.274,0,.59.085.59.485,0,.337-.169.506-.59.506h-7.732a17.252,17.252,0,0,1-.549,1.944h5.83c.654,0,1.627,0,1.627.951a2.883,2.883,0,0,1-.8,1.711,13.026,13.026,0,0,1-1.985,1.816,12.221,12.221,0,0,0,3.781,1.521c.211.042.465.106.465.466a.66.66,0,0,1-.655.7,12.882,12.882,0,0,1-4.562-2.028,14.423,14.423,0,0,1-5.345,1.964.572.572,0,0,1-.548-.612.469.469,0,0,1,.443-.486,15.159,15.159,0,0,0,4.5-1.6,8.6,8.6,0,0,1-2.2-2.556.564.564,0,0,1,.571-.549.587.587,0,0,1,.486.317,10.718,10.718,0,0,0,2.133,2.217c1.246-.8,2.429-1.965,2.429-2.535,0-.337-.274-.337-.548-.337h-5.978a16.813,16.813,0,0,1-3.253,5.069c-.36.381-1.12,1.161-1.5,1.161a.645.645,0,0,1-.635-.612c0-.21.148-.337.4-.549a14.891,14.891,0,0,0,3.613-4.668,12.637,12.637,0,0,0,1.12-3.3Zm9.675-8.976a57.056,57.056,0,0,1-5.682.59c-1.162.085-3.254.211-4.351.211a.555.555,0,0,1-.634-.549c0-.464.379-.464.591-.485a57.253,57.253,0,0,0,9.7-.782c.233-.042,1.289-.274,1.458-.274.19,0,.528.169.528.676C359.3,447.09,359,447.154,357.694,447.365Zm-8.132,2.3a7.269,7.269,0,0,1,.528,1.458.541.541,0,0,1-.57.528c-.338,0-.38-.106-.654-.761-.192-.464-.254-.57-.55-1.245a1.219,1.219,0,0,1-.169-.486c0-.338.38-.507.57-.507C349.119,448.653,349.162,448.717,349.562,449.667Zm4.288-.211a8.38,8.38,0,0,1,.592,1.605.571.571,0,0,1-.592.57c-.359,0-.4-.147-.634-.74-.084-.19-.21-.548-.571-1.33-.232-.528-.274-.57-.274-.7,0-.274.316-.485.592-.485C353.322,448.379,353.407,448.422,353.85,449.456Z" transform="translate(-210.697 -444.948)" fill="#3b3938" stroke="#3b3938" stroke-miterlimit="10" stroke-width="0.25"/>
        <path id="パス_36199" data-name="パス 36199" d="M368.5,447.863a.563.563,0,0,1,.634-.654c.655,0,.655.464.655.654v3.865h7.647v-4.457a.564.564,0,0,1,.633-.655c.655,0,.655.466.655.655v4.457h3.443c.211,0,.635.022.635.591,0,.466-.191.634-.635.634h-3.443v1.964c0,2.24-.169,4.88-2.155,7.2a8.553,8.553,0,0,1-3.907,2.641.634.634,0,0,1-.634-.677c0-.274.19-.421.759-.7,4.077-1.944,4.648-5.429,4.648-8.238v-2.2h-7.647v5.365a.577.577,0,0,1-.634.676.584.584,0,0,1-.655-.676v-5.365h-3.444c-.19,0-.612,0-.612-.612,0-.486.233-.613.612-.613H368.5Z" transform="translate(-211.111 -444.96)" fill="#3b3938" stroke="#3b3938" stroke-miterlimit="10" stroke-width="0.25"/>
        <path id="パス_36200" data-name="パス 36200" d="M403.7,455.2a.634.634,0,1,1,0,1.266H387.009a.572.572,0,0,1-.655-.612.588.588,0,0,1,.655-.654Z" transform="translate(-211.495 -445.11)" fill="#3b3938" stroke="#3b3938" stroke-miterlimit="10" stroke-width="0.25"/>
        <path id="パス_36201" data-name="パス 36201" d="M411.315,459.894c0,2.324.485,2.831,6.738,2.831,1.732,0,3.928-.042,5.893-.169.338-.021.465-.042.57-.042a.556.556,0,0,1,.613.613.55.55,0,0,1-.507.634c-.718.147-5.555.169-6.971.169-5.408,0-7.646-.275-7.646-3.845V447.348c0-.253.021-.613.612-.613.485,0,.7.127.7.613v6.78a47.114,47.114,0,0,0,9.759-3.147c.675-.339.738-.36.886-.36a.654.654,0,0,1,.591.676c0,.274-.147.422-.845.739a50.412,50.412,0,0,1-10.392,3.232Zm12.252-12.484a11.277,11.277,0,0,1,1.394,2.514.678.678,0,0,1-.7.59c-.3,0-.38-.147-1.078-1.352-.4-.7-.992-1.626-1.2-1.942a.909.909,0,0,1-.19-.466.614.614,0,0,1,.718-.528C422.8,446.27,422.869,446.4,423.566,447.411Zm2.809-1.394a10.922,10.922,0,0,1,1.479,2.619.688.688,0,0,1-.677.591c-.316,0-.4-.148-1.141-1.436-.3-.528-.379-.654-1.16-1.859a.981.981,0,0,1-.192-.465.6.6,0,0,1,.719-.529C425.7,445,425.825,445.045,426.375,446.017Z" transform="translate(-211.909 -444.93)" fill="#3b3938" stroke="#3b3938" stroke-miterlimit="10" stroke-width="0.25"/>
        <path id="パス_36202" data-name="パス 36202" d="M431.925,449.346a.549.549,0,0,1-.634-.612c0-.591.4-.613.634-.613H442.4c.74,0,1.86,0,1.86,1.416,0,1.31-1.88,4.837-3.465,6.908a41.282,41.282,0,0,1,6.254,6.062c.316.4.421.548.421.76a.694.694,0,0,1-.675.676c-.317,0-.466-.169-.74-.528a38.95,38.95,0,0,0-6.02-6.021,23.119,23.119,0,0,1-9.189,6.907.68.68,0,0,1-.655-.7c0-.3.107-.38.782-.719,9.527-4.625,11.871-12.778,11.871-13.032,0-.381-.169-.508-.845-.508Z" transform="translate(-212.263 -444.986)" fill="#3b3938" stroke="#3b3938" stroke-miterlimit="10" stroke-width="0.25"/>
      </g>
    </g>
  </g>
</svg>
