<svg xmlns="http://www.w3.org/2000/svg" width="567" height="136.796" viewBox="0 0 567 136.796">
  <g id="グループ_23711" data-name="グループ 23711" transform="translate(-112.319 -376.663)">
    <g id="グループ_23708" data-name="グループ 23708" transform="translate(112.319 376.663)">
      <g id="グループ_23707" data-name="グループ 23707">
        <g id="グループ_23703" data-name="グループ 23703" transform="translate(143.8 19.78)">
          <g id="グループ_23702" data-name="グループ 23702">
            <path id="パス_36181" data-name="パス 36181" d="M214.125,427.143c.638,13.463,7.528,19.931,16.645,19.931,7.1,0,11.236-3.6,14.1-10.388a3.713,3.713,0,0,1,3.393-2.649c2.012,0,4.45,1.377,4.45,3.6a4.908,4.908,0,0,1-.424,2.013c-4.135,8.376-10.388,13.888-21.519,13.888-15.8,0-24.49-12.191-24.49-28.2,0-15.8,8.905-27.987,24.6-27.987,15.9,0,22.58,14.418,22.58,23,0,4.666-1.483,6.784-6.253,6.784Zm30-6.359c1.061,0,1.589-.744,1.589-1.8a7.243,7.243,0,0,0-.211-1.59c-1.694-7.632-6.253-13.569-14.629-13.569-8.693,0-15.053,6.042-16.536,16.962Z" transform="translate(-206.28 -385.467)" fill="#262626"/>
            <path id="パス_36182" data-name="パス 36182" d="M247.282,418.212c-2.218,0-2.839-1.241-2.839-2.66s.621-2.573,2.839-2.573h14.1c2.13,0,2.839,1.152,2.839,2.573s-.709,2.66-2.839,2.66Z" transform="translate(-186.038 -377.18)" fill="#262626"/>
            <path id="パス_36183" data-name="パス 36183" d="M269.269,456.541a3.1,3.1,0,0,1-3.1,2.127c-1.862,0-3.815-.975-3.815-3.192a4.4,4.4,0,0,1,.444-1.951l24.39-59.333c1.065-2.837,2.308-4.258,4.879-4.258,2.837,0,4.167,1.42,5.232,4.258l23.856,59.244a5.593,5.593,0,0,1,.444,1.864c0,2.04-1.862,3.281-3.814,3.281a3.517,3.517,0,0,1-3.459-2.129l-7.449-19.422H276.9Zm35.388-25.454L294.9,405.811c-.71-1.863-1.953-5.145-2.928-7.983-.8,2.837-2.04,6.12-2.749,7.983l-9.932,25.276Z" transform="translate(-176.54 -389.403)" fill="#262626"/>
            <path id="パス_36184" data-name="パス 36184" d="M345.522,450.953c-1.243,2.66-2.13,3.635-4.346,3.635-2.3,0-3.192-1.064-4.435-3.635L323.7,423.015c-3.636-7.8-6.738-15.7-10.11-23.769.357,8.691.534,16.942.621,26.077l.176,29.708a3.4,3.4,0,0,1-3.636,3.636,3.284,3.284,0,0,1-3.546-3.636V395.079c0-3.9,1.6-5.145,4.611-5.145s3.991,1.243,5.854,5.145l19.245,40.707c1.6,3.37,3.281,7.983,4.346,11,1.152-3.015,2.839-7.628,4.345-11L363.7,395.079c1.774-3.9,3.015-5.145,6.031-5.145s4.346,1.243,4.346,5.145v59.952a3.284,3.284,0,0,1-3.546,3.636,3.35,3.35,0,0,1-3.639-3.636l.268-28.824c.089-9.756.354-18.535.71-26.961-3.371,8.07-6.21,15.609-9.845,23.68Z" transform="translate(-152.746 -389.403)" fill="#262626"/>
            <path id="パス_36185" data-name="パス 36185" d="M365.125,456.541a3.1,3.1,0,0,1-3.1,2.127c-1.862,0-3.815-.975-3.815-3.192a4.374,4.374,0,0,1,.444-1.951l24.39-59.333c1.065-2.837,2.306-4.258,4.877-4.258,2.839,0,4.167,1.42,5.232,4.258l23.856,59.244a5.556,5.556,0,0,1,.444,1.864c0,2.04-1.863,3.281-3.812,3.281a3.517,3.517,0,0,1-3.459-2.129l-7.45-19.422H372.755Zm35.388-25.454-9.755-25.276c-.712-1.863-1.951-5.145-2.928-7.983-.8,2.837-2.04,6.12-2.749,7.983l-9.934,25.276Z" transform="translate(-125.695 -389.403)" fill="#262626"/>
            <path id="パス_36186" data-name="パス 36186" d="M456.454,453.435c0,3.727-.886,5.232-3.548,5.232-2.837,0-3.9-1.328-6.564-5.232l-27.581-40c-3.28-4.7-5.941-9.666-9.134-14.9.355,5.586.442,11.617.442,17.382l.266,39.111c0,2.573-1.687,3.636-3.727,3.636a3.284,3.284,0,0,1-3.546-3.636V395.079c0-3.459,1.33-5.145,4.345-5.145,3.281,0,4.437,1.687,6.917,5.145l28.2,40.885a104.961,104.961,0,0,1,7.449,13.3c-.354-5.234-.618-11.175-.618-16.94l-.179-38.667a3.4,3.4,0,0,1,3.549-3.727,3.533,3.533,0,0,1,3.724,3.727Z" transform="translate(-101.903 -389.403)" fill="#262626"/>
            <path id="パス_36187" data-name="パス 36187" d="M473.885,459.383c-19.422,0-29.266-15.075-29.266-35.118,0-20.133,10.021-34.678,29.355-34.678,19.69,0,29.089,14.545,29.089,34.678C503.062,444.308,493.574,459.383,473.885,459.383Zm0-6.295c14.013,0,21.906-11.088,21.906-28.824,0-17.826-7.8-28.38-21.818-28.38-13.659,0-22.082,10.554-22.082,28.38C451.892,442,460.139,453.088,473.885,453.088Z" transform="translate(-79.862 -389.587)" fill="#262626"/>
          </g>
        </g>
        <g id="グループ_23706" data-name="グループ 23706">
          <g id="グループ_23704" data-name="グループ 23704" transform="translate(0 0.567)">
            <path id="パス_36188" data-name="パス 36188" d="M163.451,424.51a50.721,50.721,0,0,1,26.317,23.53l3.081,1.42c1.933.892,3.61,1.605,5.277,2.244l0,0c-2.513-8.734-9.824-19.631-21.43-27.471a54.479,54.479,0,0,0-17.37-7.756c.751,1.8,1.569,3.578,2.5,5.3C162.332,422.719,162.9,423.607,163.451,424.51Z" transform="translate(-87.384 -356.11)" fill="#0092e5"/>
            <path id="パス_36189" data-name="パス 36189" d="M172.865,440.789l-.441-1.131c-.1-.242-.191-.485-.275-.713l-.064-.185c-.211-.6-.392-1.159-.574-1.719l-.279-.885c-.04-.125-.073-.249-.112-.373a52.087,52.087,0,0,0-5.823.28,67.884,67.884,0,0,0-2.155-10.494c-.093-.329-.174-.655-.272-.984-.171-.574-.329-1.146-.516-1.722-.3-.911-.583-1.82-.923-2.733-.468-1.258-1.016-2.568-1.6-3.9-.268-.6-.562-1.217-.856-1.832-.152-.317-.324-.643-.484-.964-6.293-12.673-18.394-27.358-41.825-36.2l-.006,0a3.251,3.251,0,0,0-.536-.139c-.031-.006-.058-.018-.089-.024a3.221,3.221,0,0,0-3.214,1.449l-.006.006a3.254,3.254,0,0,0-.279.562l-.011.02a2.989,2.989,0,0,0-.084.32,3.036,3.036,0,0,0-.083.318,3.212,3.212,0,0,0,2.039,3.5c1.69.637,3.306,1.312,4.87,2.011,17.292,7.73,27.039,19.012,32.537,29.182a62.7,62.7,0,0,1,3.42,7.453c.06.158.132.323.19.479a63.071,63.071,0,0,1,3.534,14.75,61.968,61.968,0,0,0-7.814,2.306c-27.535,10.11-28.692,25.155-28.391,29.525a14.335,14.335,0,0,0,11.366,13.373,14.974,14.974,0,0,0,2.317.3c5.258.291,15.831-1.647,25.157-18.827,2.6-4.8,4.348-12.416,4.164-21.371a46.116,46.116,0,0,1,7.7-.257C173.248,441.707,173.049,441.24,172.865,440.789Zm-16.6,18.279c-6.386,11.761-13.723,14.853-18.469,13.818a7.251,7.251,0,0,1-5.708-6.8c-.416-6.028,5.1-14.663,21.837-20.808a52.338,52.338,0,0,1,5.407-1.665C159.367,450.04,158.18,455.549,156.27,459.068Z" transform="translate(-112.319 -377.033)" fill="#0092e5"/>
          </g>
          <g id="グループ_23705" data-name="グループ 23705" transform="translate(0.482)">
            <path id="パス_36190" data-name="パス 36190" d="M147.615,409.9a56.445,56.445,0,0,1-14.173-8.521,50.492,50.492,0,0,1-12.6-15.064l-2.983-1.334c-1.6-.718-3.142-1.354-4.7-1.944-.185-.069-.35-.167-.523-.251,1.849,7.409,8.1,16.438,16.721,23.549A59.42,59.42,0,0,0,151.8,418.024c-.761-1.814-1.587-3.613-2.528-5.356C148.755,411.717,148.175,410.814,147.615,409.9Z" transform="translate(-112.634 -373.416)" fill="#5da71e"/>
            <path id="パス_36191" data-name="パス 36191" d="M206.513,478.531a3.211,3.211,0,0,0-2.06-2.874c-1.91-.732-3.713-1.515-5.464-2.322-17.024-7.853-26.666-19.046-32.116-29.159a62.74,62.74,0,0,1-3.356-7.308c-.11-.286-.234-.582-.337-.865a61.931,61.931,0,0,1-3.344-14,57.366,57.366,0,0,0,7.669-2.189c27.586-9.972,28.818-25.01,28.539-29.381a14.336,14.336,0,0,0-11.3-13.428c-3.647-.807-16.424-1.895-27.566,18.385-2.6,4.734-4.353,12.309-4.16,21.228a45.1,45.1,0,0,1-7.667.092c.4.95.773,1.855,1.079,2.677s.565,1.625.828,2.436l.13.4c.1.3.184.6.272.894a51.226,51.226,0,0,0,5.813-.155,68.162,68.162,0,0,0,2.779,12.5l.285.908c.178.548.352,1.094.548,1.644.015.043.029.084.043.125l.023.069h0c.11.3.242.629.366.946l.083.213.234.6c.234.574.484,1.166.745,1.769l.418.967c5.932,13.249,18.1,29.346,43.158,38.943.035.014.072.011.107.023a3.177,3.177,0,0,0,.733.155c.076.009.155.015.233.018a3.216,3.216,0,0,0,.868-.089c.034-.008.064-.023.1-.034a3.233,3.233,0,0,0,.742-.324c.046-.028.1-.052.141-.083a3.163,3.163,0,0,0,.649-.574c.038-.044.072-.092.107-.138a3.166,3.166,0,0,0,.47-.807,3.233,3.233,0,0,0,.167-.617,3.175,3.175,0,0,0,.034-.47c0-.055.012-.11.011-.165Zm-44.036-78.383c5.871-10.685,12.5-14.169,17.211-13.907a8.335,8.335,0,0,1,1.327.181,7.255,7.255,0,0,1,5.675,6.83c.386,6.033-5.177,14.637-21.942,20.7a48.645,48.645,0,0,1-5.323,1.592C159.38,409.119,160.569,403.623,162.477,400.147Z" transform="translate(-95.28 -376.663)" fill="#5da71e"/>
          </g>
        </g>
      </g>
    </g>
    <g id="グループ_23709" data-name="グループ 23709" transform="translate(259.329 481.14)">
      <path id="パス_36192" data-name="パス 36192" d="M209.266,455.282c.857,0,5.4,1.907,6.22,2.271,1.974.854,2.4,1.019,2.4,1.742a.96.96,0,0,1-.854,1.021,2.814,2.814,0,0,1-.989-.361,58.55,58.55,0,0,0-6.679-2.7c-.526-.2-.987-.393-.987-1.051A.883.883,0,0,1,209.266,455.282Zm1.12,17.932c0-.658.164-.756,1.81-1.25,4.968-1.448,13.423-5.757,20.465-15.5.626-.856.855-1.185,1.316-1.185a1.05,1.05,0,0,1,1.085.953c0,.626-4.18,6.515-10,11.122-6.911,5.5-13.1,7.009-13.59,7.009A1.078,1.078,0,0,1,210.386,473.214Zm1.745-26.124c.756,0,4.9,1.709,6.284,2.3,1.709.756,2.3.986,2.3,1.677a.984.984,0,0,1-.889,1.019,2.736,2.736,0,0,1-.987-.328,55.14,55.14,0,0,0-6.645-2.7c-.4-.132-.955-.363-.955-1.021A.915.915,0,0,1,212.131,447.09Z" transform="translate(-208.378 -443.785)" fill="#3b3938" stroke="#3b3938" stroke-miterlimit="10" stroke-width="0.25"/>
      <path id="パス_36193" data-name="パス 36193" d="M230.886,450.308a.954.954,0,1,1,0-1.907h20.532c1.547,0,3.424,0,3.424,2.4a26.2,26.2,0,0,1-7.306,15.858c-4.212,4.343-9.443,6.515-9.937,6.515a.934.934,0,0,1-.92-.987c0-.525.23-.657,1.348-1.185A26.475,26.475,0,0,0,250.2,459.72a22.589,22.589,0,0,0,2.566-8.26c0-1.152-.79-1.152-1.809-1.152Z" transform="translate(-196.962 -443.089)" fill="#3b3938" stroke="#3b3938" stroke-miterlimit="10" stroke-width="0.25"/>
      <path id="パス_36194" data-name="パス 36194" d="M258.461,474.476c0,.364-.066.955-1.019.955-.989,0-1.054-.526-1.054-.955V447.5c0-.363.066-.987,1.021-.987s1.053.559,1.053.987v8.72a67.826,67.826,0,0,1,13.885,7.863c.888.624,1.117.856,1.117,1.316a1.1,1.1,0,0,1-1.019,1.119c-.427,0-.592-.132-2.172-1.316a64.86,64.86,0,0,0-11.812-6.876Z" transform="translate(-182.913 -444.093)" fill="#3b3938" stroke="#3b3938" stroke-miterlimit="10" stroke-width="0.25"/>
      <path id="パス_36195" data-name="パス 36195" d="M278.165,475.618a.832.832,0,0,1-.889.953c-.692,0-.953-.263-.953-.953V457.455c-.759,1.152-2.6,4.046-3.521,4.046a1.14,1.14,0,0,1-1.019-1.117,1.356,1.356,0,0,1,.493-.923,35.831,35.831,0,0,0,7.271-12.767c.132-.393.3-.722.823-.722.395,0,.987.23.987.788a30.168,30.168,0,0,1-3.191,7.536Zm23.1-24.514a.846.846,0,1,1,0,1.679H290.6v6.284h9.9a.846.846,0,1,1,0,1.679h-9.9v6.284h9.9a.846.846,0,1,1,0,1.679h-9.9v6.91a.832.832,0,0,1-.888.953c-.658,0-.987-.231-.987-.953V452.782h-2.008a37.839,37.839,0,0,1-3.093,4.9c-.559.725-1.117,1.448-1.679,1.448a1.106,1.106,0,0,1-1.019-1.085c0-.331.2-.526.494-.855a29.133,29.133,0,0,0,5.988-10.365c.164-.461.3-.854.92-.854a.821.821,0,0,1,.923.822,19.868,19.868,0,0,1-1.679,4.31Z" transform="translate(-174.748 -444.378)" fill="#3b3938" stroke="#3b3938" stroke-miterlimit="10" stroke-width="0.25"/>
      <path id="パス_36196" data-name="パス 36196" d="M300.876,452.992c-1.217,0-1.709.56-1.709,1.711v3.456h6.481c2.435,0,3.223.79,3.223,3.191a61.273,61.273,0,0,1-.361,6.844c-.427,2.831-1.25,3.948-3.785,3.948-.393,0-2.172-.032-2.533-.032-.329,0-1.018,0-1.018-1.021,0-.955.657-.955.92-.955.032,0,2.04.066,2.4.066.823,0,1.679-.164,2.04-1.743a44.962,44.962,0,0,0,.493-6.745c0-1.679-.329-1.942-2.006-1.942h-5.855v1.613a48.209,48.209,0,0,1-1.053,9.969,18.724,18.724,0,0,1-1.647,4.377.75.75,0,0,1-.69.461,1.133,1.133,0,0,1-1.119-1.019,1.735,1.735,0,0,1,.3-.923c1.348-2.533,2.3-5.825,2.3-12.767v-6.908c0-2.435.822-3.324,3.323-3.324H312c-.1-2.369-.1-2.732-.1-3.851,0-.921,0-1.512.92-1.512.856,0,.923.591.923.986.032.692.066,3.751.1,4.377h10.5c.395,0,.92.066.92.856,0,.822-.493.888-.92.888H313.906a76.611,76.611,0,0,0,1.348,11.285,22.593,22.593,0,0,0,.725,2.863,31.375,31.375,0,0,0,5.066-10.232c.165-.526.3-.953.856-.953.428,0,1.087.263,1.087.854a35.709,35.709,0,0,1-6.318,12.306c2.237,5.165,4.114,5.462,4.607,5.462.526,0,1.316-.231,2.138-5.1.066-.493.165-.855.756-.855a.854.854,0,0,1,.955.79,25.655,25.655,0,0,1-.987,4.278c-.3.888-.888,2.762-2.764,2.762-3.125,0-5.46-4.737-6.021-5.955-3.651,3.554-8.589,5.725-9.147,5.725a1.041,1.041,0,0,1-.987-1.019c0-.494.395-.66.79-.823a25.988,25.988,0,0,0,8.589-5.658,38.467,38.467,0,0,1-1.679-7.24c-.493-3.486-.69-6.547-.822-8.489Zm20.038-5c1.91,1.544,1.91,1.711,1.91,2.006a1.1,1.1,0,0,1-1.021,1.019c-.329,0-.395-.132-1.282-.92a27.946,27.946,0,0,0-2.4-1.942c-.363-.3-.592-.461-.592-.856a1.014,1.014,0,0,1,.823-.889C318.874,446.347,320.257,447.464,320.914,447.992Z" transform="translate(-162.614 -444.423)" fill="#3b3938" stroke="#3b3938" stroke-miterlimit="10" stroke-width="0.25"/>
      <path id="パス_36197" data-name="パス 36197" d="M321.246,458.792c-.3,0-.921,0-.921-.854,0-.823.559-.857.921-.857H332.17v-5.2H318.713a.784.784,0,0,1-.921-.857.8.8,0,0,1,.921-.854H332.17v-3.226a.815.815,0,0,1,.889-.953c.722,0,1.019.231,1.019.953v3.226h13.458a.823.823,0,0,1,.953.854c0,.857-.692.857-.953.857H334.079v5.2h4.936c1.612,0,1.876,0,2.467.3a1.683,1.683,0,0,1,.955,1.611c0,2.237-3.884,7.635-7.5,10.431,2.205,1.35,4.573,2.8,11.187,4.375a12.543,12.543,0,0,1,1.579.361c.329.1.427.363.427.725a.974.974,0,0,1-.953,1.053,36.245,36.245,0,0,1-13.885-5.33,40.383,40.383,0,0,1-14.149,5.33,1.01,1.01,0,0,1-1.019-1.053.821.821,0,0,1,.822-.921c2.533-.526,7.9-1.547,12.7-4.509-4.509-3.586-6.515-7.634-6.515-8.126a.961.961,0,0,1,.987-.953c.461,0,.626.263.856.656a21.991,21.991,0,0,0,6.318,7.271c4.441-3.323,6.942-7.9,6.942-8.751,0-.758-.624-.758-1.348-.758Z" transform="translate(-150.343 -444.367)" fill="#3b3938" stroke="#3b3938" stroke-miterlimit="10" stroke-width="0.25"/>
      <path id="パス_36198" data-name="パス 36198" d="M347.06,473.369c0,.724,0,2.106-1.284,2.5-.559.2-.624.2-3.521.2a.9.9,0,0,1-1.019-.986c0-.857.69-.857.987-.857.329,0,1.777.032,2.072,0a1.058,1.058,0,0,0,.955-1.217v-8.358a31.859,31.859,0,0,1-3.685,1.185.838.838,0,0,1-.79-.921.73.73,0,0,1,.56-.791c.525-.23,3.289-1.085,3.915-1.282v-8.719h-3.39c-.23,0-.92,0-.92-.79,0-.822.657-.822.92-.822h3.39v-5.661c0-.329.034-.92.921-.92.722,0,.889.395.889.92v5.661h2.7c.328,0,.888.032.888.822,0,.724-.494.79-.888.79h-2.7v8.027c.526-.2,2.039-.822,2.435-.986a1.654,1.654,0,0,1,.559-.165c.526,0,.658.526.658.823a.777.777,0,0,1-.461.724c-.461.263-2.106.953-3.191,1.38Zm5-11.221c-.361,0-.889-.1-.889-.756,0-.526.265-.788.889-.788h4.607a21.733,21.733,0,0,0,.263-3.358h-4.573c-.263,0-.888-.032-.888-.756,0-.626.459-.758.888-.758H365.19a42.818,42.818,0,0,0,3.061-5.329c.559-1.186.624-1.318,1.117-1.318a.925.925,0,0,1,.923.823c0,.624-1.778,3.851-3.095,5.823h2.3c.395,0,.889.1.889.725,0,.559-.3.788-.889.788H358.707a27.058,27.058,0,0,1-.263,3.358h11.781c.427,0,.92.132.92.756,0,.525-.263.788-.92.788H358.18a26.883,26.883,0,0,1-.856,3.029h9.081c1.019,0,2.534,0,2.534,1.481a4.491,4.491,0,0,1-1.252,2.664,20.288,20.288,0,0,1-3.091,2.828,19.036,19.036,0,0,0,5.889,2.369c.329.066.724.165.724.725a1.028,1.028,0,0,1-1.021,1.085,20.065,20.065,0,0,1-7.106-3.159,22.467,22.467,0,0,1-8.325,3.059.892.892,0,0,1-.854-.953.731.731,0,0,1,.69-.758,23.613,23.613,0,0,0,7.008-2.5c-1.414-1.185-3.422-3.422-3.422-3.982a.878.878,0,0,1,.889-.856.915.915,0,0,1,.758.494,16.7,16.7,0,0,0,3.323,3.454c1.941-1.25,3.783-3.061,3.783-3.948,0-.525-.427-.525-.854-.525h-9.313a26.19,26.19,0,0,1-5.067,7.9c-.56.594-1.745,1.809-2.335,1.809a1,1,0,0,1-.989-.953c0-.328.231-.525.624-.856a23.2,23.2,0,0,0,5.627-7.271,19.687,19.687,0,0,0,1.745-5.135Zm15.07-13.982a88.854,88.854,0,0,1-8.85.92c-1.81.132-5.069.329-6.778.329a.864.864,0,0,1-.987-.855c0-.722.591-.722.921-.756a89.188,89.188,0,0,0,15.1-1.218c.363-.066,2.008-.427,2.271-.427.3,0,.822.263.822,1.053C369.631,447.738,369.17,447.837,367.13,448.166Zm-12.667,3.586a11.32,11.32,0,0,1,.822,2.271.842.842,0,0,1-.888.822c-.526,0-.592-.165-1.019-1.186-.3-.722-.4-.888-.857-1.939a1.9,1.9,0,0,1-.263-.758c0-.526.592-.79.888-.79C353.773,450.173,353.839,450.272,354.463,451.752Zm6.679-.329a13.055,13.055,0,0,1,.923,2.5.89.89,0,0,1-.923.888c-.559,0-.624-.23-.987-1.152-.13-.3-.327-.854-.889-2.072-.361-.822-.427-.888-.427-1.085,0-.427.493-.756.923-.756C360.32,449.746,360.452,449.812,361.142,451.423Z" transform="translate(-138.153 -444.401)" fill="#3b3938" stroke="#3b3938" stroke-miterlimit="10" stroke-width="0.25"/>
      <path id="パス_36199" data-name="パス 36199" d="M370.764,448.558a.877.877,0,0,1,.987-1.019c1.021,0,1.021.722,1.021,1.019v6.021h11.911v-6.942a.878.878,0,0,1,.986-1.021c1.021,0,1.021.725,1.021,1.021v6.942h5.363c.329,0,.989.034.989.921,0,.725-.3.987-.989.987h-5.363v3.059c0,3.489-.263,7.6-3.356,11.221-2.237,2.6-5.43,4.114-6.086,4.114a.987.987,0,0,1-.987-1.054c0-.427.3-.657,1.183-1.084,6.351-3.029,7.24-8.457,7.24-12.832v-3.424H372.771v8.358a.9.9,0,0,1-.987,1.053.909.909,0,0,1-1.021-1.053v-8.358H365.4c-.3,0-.953,0-.953-.953,0-.758.363-.955.953-.955h5.364Z" transform="translate(-125.598 -444.036)" fill="#3b3938" stroke="#3b3938" stroke-miterlimit="10" stroke-width="0.25"/>
      <path id="パス_36200" data-name="パス 36200" d="M413.369,455.2a.987.987,0,1,1,0,1.973H387.375a.89.89,0,0,1-1.021-.953.916.916,0,0,1,1.021-1.019Z" transform="translate(-113.977 -439.486)" fill="#3b3938" stroke="#3b3938" stroke-miterlimit="10" stroke-width="0.25"/>
      <path id="パス_36201" data-name="パス 36201" d="M412.045,468.24c0,3.619.756,4.409,10.5,4.409,2.7,0,6.119-.066,9.179-.263.526-.032.724-.066.888-.066a.866.866,0,0,1,.955.955.856.856,0,0,1-.79.987c-1.119.23-8.653.263-10.858.263-8.423,0-11.91-.428-11.91-5.99V448.7c0-.395.032-.955.953-.955.756,0,1.087.2,1.087.955v10.561a73.388,73.388,0,0,0,15.2-4.9c1.051-.528,1.149-.56,1.38-.56a1.019,1.019,0,0,1,.921,1.053c0,.427-.23.658-1.316,1.151a78.526,78.526,0,0,1-16.187,5.035Zm19.084-19.445c.2.3,2.172,3.191,2.172,3.916a1.055,1.055,0,0,1-1.087.92c-.461,0-.592-.23-1.679-2.106-.624-1.085-1.546-2.533-1.876-3.026a1.416,1.416,0,0,1-.3-.725.957.957,0,0,1,1.119-.822C429.943,447.017,430.043,447.215,431.129,448.794Zm4.375-2.172c.2.231,2.3,3.323,2.3,4.08a1.071,1.071,0,0,1-1.054.921c-.493,0-.624-.231-1.777-2.237-.461-.822-.591-1.019-1.807-2.9a1.528,1.528,0,0,1-.3-.724.935.935,0,0,1,1.12-.823C434.452,445.043,434.648,445.109,435.5,446.622Z" transform="translate(-101.433 -444.93)" fill="#3b3938" stroke="#3b3938" stroke-miterlimit="10" stroke-width="0.25"/>
      <path id="パス_36202" data-name="パス 36202" d="M432.892,450.029a.856.856,0,0,1-.987-.953c0-.921.626-.955.987-.955H449.21c1.152,0,2.9,0,2.9,2.205,0,2.04-2.929,7.534-5.4,10.76a64.3,64.3,0,0,1,9.741,9.443c.493.624.656.854.656,1.185a1.081,1.081,0,0,1-1.051,1.053c-.494,0-.725-.263-1.152-.822a60.674,60.674,0,0,0-9.377-9.378c-6.154,7.534-13.885,10.759-14.314,10.759a1.06,1.06,0,0,1-1.021-1.085c0-.461.167-.592,1.218-1.12,14.84-7.205,18.492-19.9,18.492-20.3,0-.594-.263-.791-1.316-.791Z" transform="translate(-90.725 -443.238)" fill="#3b3938" stroke="#3b3938" stroke-miterlimit="10" stroke-width="0.25"/>
    </g>
  </g>
</svg>
