<svg xmlns="http://www.w3.org/2000/svg" width="413" height="140" viewBox="0 0 413 140">
  <path id="Path_35621" data-name="Path 35621" d="M533.22,3.951c-.326-.214-.6-.481-.869-.695a16.56,16.56,0,0,0-4.672-13.47,16.84,16.84,0,0,0-13.2-5.024,20.333,20.333,0,0,0-.76-2.139,21.981,21.981,0,0,0-14.884-12.24,22.651,22.651,0,0,0-16.187,2.084A21.976,21.976,0,0,0,465.972-39.4c-8.8-1.176-16.351,3.153-19.664,7.483l-.489.642a25.822,25.822,0,0,0-19.936-11.653c-10.1-.7-18.415,4.543-22.163,9.675a24.911,24.911,0,0,0-19.555-12.241,25.365,25.365,0,0,0-20.1,7.7,26.484,26.484,0,0,0-17-7.269,26.086,26.086,0,0,0-20.967,8.713c-.164.213-.327.374-.489.588a23.39,23.39,0,0,0-16.785-7.7,23.046,23.046,0,0,0-17.436,7.27,23.632,23.632,0,0,0-18.8-9.568c-9.4-.054-16.731,5.452-19.664,10.423a23.314,23.314,0,0,0-12.439-4.276c-8.312-.428-15.265,3.795-18.415,7.8-.434.535-.815,1.016-1.141,1.5a23.851,23.851,0,0,0-16.079-8.125c-10.321-.909-18.741,5.292-21.783,10.744-.272.428-.488.909-.706,1.336a21.033,21.033,0,0,0-16.133-1.5,20.394,20.394,0,0,0-13.146,12.24,8.857,8.857,0,0,0-.326,1.123,17.213,17.213,0,0,0-13.362,8.82,16.6,16.6,0,0,0,1.358,18.013A21.228,21.228,0,0,0,137.818,14c-4.563,2.887-9.506,9.943-8.909,18.6a20.769,20.769,0,0,0,13.2,18.281c0,.161-.055.267-.055.428-.924,5.826,2.01,15.394,10.647,20.1,8.582,4.864,18.414,2.406,22.977-1.39a2.629,2.629,0,0,0,.434-.374,23.262,23.262,0,0,0,16.08,11.867c9.18,1.764,17.383-2.352,21.13-6.682a2.71,2.71,0,0,1,.38-.427c3.15,5.5,11.191,11.813,21.566,11.92a26.428,26.428,0,0,0,16.187-5.453,6.864,6.864,0,0,0,.6.695,24.136,24.136,0,0,0,37.481-2.3,1.128,1.128,0,0,1,.218-.321,14.813,14.813,0,0,0,3.2,3.795c3.857,3.421,10.539,7.7,18.8,6.842a23.5,23.5,0,0,0,14.123-6.521,1.108,1.108,0,0,0,.218.321c3.2,5.238,11.081,11.065,21.13,10.851s17.709-6.415,20.643-11.813c.217-.375.434-.8.651-1.176a23.556,23.556,0,0,0,37.862,1.5,20.075,20.075,0,0,0,12.114,2.726A19.573,19.573,0,0,0,433.161,76.7c.054-.107.163-.267.217-.374a24.765,24.765,0,0,0,38.677-.748c.435.32.924.641,1.413.962a23.227,23.227,0,0,0,33.353-10.9,21.6,21.6,0,0,0,17.98-8.873,21.105,21.105,0,0,0,3.911-13.951,21.945,21.945,0,0,0,3.313-1.871,23.355,23.355,0,0,0,9.833-18.121C541.967,14.214,537.458,7.158,533.22,3.951Z" transform="translate(-128.86 45.76)" fill="#fff"/>
</svg>
