<svg xmlns="http://www.w3.org/2000/svg" width="195" height="190" viewBox="0 0 195 190">
  <g id="Group_23575" data-name="Group 23575" transform="translate(-550 -3381)">
    <g id="Group_23454" data-name="Group 23454" transform="translate(0 270)">
      <circle id="Ellipse_865" data-name="Ellipse 865" cx="95" cy="95" r="95" transform="translate(555 3111)" fill="#f1f8ea"/>
      <g id="Group_23435" data-name="Group 23435" transform="translate(-1615.776 3953.958)">
        <g id="Group_21925" data-name="Group 21925" transform="translate(2209.776 -782.456)">
          <g id="Group_21824" data-name="Group 21824" transform="translate(0 3.642)">
            <g id="Group_21823" data-name="Group 21823">
              <rect id="Rectangle_13634" data-name="Rectangle 13634" width="90.716" height="81.786" rx="5.838" fill="#265b7f"/>
            </g>
          </g>
          <g id="Group_21826" data-name="Group 21826" transform="translate(3.007 20.182)">
            <g id="Group_21825" data-name="Group 21825" transform="translate(0)">
              <rect id="Rectangle_13635" data-name="Rectangle 13635" width="62.239" height="84.702" transform="translate(84.702 0) rotate(90)" fill="#fff"/>
            </g>
          </g>
          <g id="Group_21897" data-name="Group 21897" transform="translate(7.016 24.192)">
            <g id="Group_21828" data-name="Group 21828">
              <g id="Group_21827" data-name="Group 21827">
                <rect id="Rectangle_13636" data-name="Rectangle 13636" width="9.295" height="9.295" fill="#e5e6eb"/>
              </g>
            </g>
            <g id="Group_21830" data-name="Group 21830" transform="translate(11.231)">
              <g id="Group_21829" data-name="Group 21829">
                <rect id="Rectangle_13637" data-name="Rectangle 13637" width="9.295" height="9.295" fill="#e5e6eb"/>
              </g>
            </g>
            <g id="Group_21832" data-name="Group 21832" transform="translate(22.463)">
              <g id="Group_21831" data-name="Group 21831">
                <rect id="Rectangle_13638" data-name="Rectangle 13638" width="9.295" height="9.295" fill="#0181c0"/>
              </g>
            </g>
            <g id="Group_21834" data-name="Group 21834" transform="translate(33.694)">
              <g id="Group_21833" data-name="Group 21833">
                <rect id="Rectangle_13639" data-name="Rectangle 13639" width="9.295" height="9.295" fill="#0181c0"/>
              </g>
            </g>
            <g id="Group_21836" data-name="Group 21836" transform="translate(44.926)">
              <g id="Group_21835" data-name="Group 21835">
                <rect id="Rectangle_13640" data-name="Rectangle 13640" width="9.295" height="9.295" fill="#0181c0"/>
              </g>
            </g>
            <g id="Group_21838" data-name="Group 21838" transform="translate(56.157)">
              <g id="Group_21837" data-name="Group 21837">
                <rect id="Rectangle_13641" data-name="Rectangle 13641" width="9.295" height="9.295" fill="#0181c0"/>
              </g>
            </g>
            <g id="Group_21840" data-name="Group 21840" transform="translate(67.389)">
              <g id="Group_21839" data-name="Group 21839">
                <rect id="Rectangle_13642" data-name="Rectangle 13642" width="9.295" height="9.295" fill="#0181c0"/>
              </g>
            </g>
            <g id="Group_21842" data-name="Group 21842" transform="translate(0 11.231)">
              <g id="Group_21841" data-name="Group 21841">
                <rect id="Rectangle_13643" data-name="Rectangle 13643" width="9.295" height="9.295" fill="#0181c0"/>
              </g>
            </g>
            <g id="Group_21844" data-name="Group 21844" transform="translate(11.231 11.231)">
              <g id="Group_21843" data-name="Group 21843">
                <rect id="Rectangle_13644" data-name="Rectangle 13644" width="9.295" height="9.295" fill="#0181c0"/>
              </g>
            </g>
            <g id="Group_21846" data-name="Group 21846" transform="translate(22.463 11.231)">
              <g id="Group_21845" data-name="Group 21845">
                <rect id="Rectangle_13645" data-name="Rectangle 13645" width="9.295" height="9.295" fill="#0181c0"/>
              </g>
            </g>
            <g id="Group_21848" data-name="Group 21848" transform="translate(33.694 11.231)">
              <g id="Group_21847" data-name="Group 21847">
                <rect id="Rectangle_13646" data-name="Rectangle 13646" width="9.295" height="9.295" fill="#0181c0"/>
              </g>
            </g>
            <g id="Group_21850" data-name="Group 21850" transform="translate(44.926 11.231)">
              <g id="Group_21849" data-name="Group 21849">
                <rect id="Rectangle_13647" data-name="Rectangle 13647" width="9.295" height="9.295" fill="#0181c0"/>
              </g>
            </g>
            <g id="Group_21852" data-name="Group 21852" transform="translate(56.157 11.231)">
              <g id="Group_21851" data-name="Group 21851">
                <rect id="Rectangle_13648" data-name="Rectangle 13648" width="9.295" height="9.295" fill="#0181c0"/>
              </g>
            </g>
            <g id="Group_21854" data-name="Group 21854" transform="translate(67.389 11.231)">
              <g id="Group_21853" data-name="Group 21853">
                <rect id="Rectangle_13649" data-name="Rectangle 13649" width="9.295" height="9.295" fill="#0181c0"/>
              </g>
            </g>
            <g id="Group_21856" data-name="Group 21856" transform="translate(0 22.463)">
              <g id="Group_21855" data-name="Group 21855">
                <rect id="Rectangle_13650" data-name="Rectangle 13650" width="9.295" height="9.295" fill="#0181c0"/>
              </g>
            </g>
            <g id="Group_21858" data-name="Group 21858" transform="translate(11.231 22.463)">
              <g id="Group_21857" data-name="Group 21857">
                <rect id="Rectangle_13651" data-name="Rectangle 13651" width="9.295" height="9.295" fill="#0181c0"/>
              </g>
            </g>
            <g id="Group_21860" data-name="Group 21860" transform="translate(22.463 22.463)">
              <g id="Group_21859" data-name="Group 21859">
                <rect id="Rectangle_13652" data-name="Rectangle 13652" width="9.295" height="9.295" fill="#6ab82d"/>
              </g>
            </g>
            <g id="Group_21862" data-name="Group 21862" transform="translate(33.694 22.463)">
              <g id="Group_21861" data-name="Group 21861">
                <rect id="Rectangle_13653" data-name="Rectangle 13653" width="9.295" height="9.295" fill="#0181c0"/>
              </g>
            </g>
            <g id="Group_21864" data-name="Group 21864" transform="translate(44.926 22.463)">
              <g id="Group_21863" data-name="Group 21863">
                <rect id="Rectangle_13654" data-name="Rectangle 13654" width="9.295" height="9.295" fill="#0181c0"/>
              </g>
            </g>
            <g id="Group_21866" data-name="Group 21866" transform="translate(56.157 22.463)">
              <g id="Group_21865" data-name="Group 21865">
                <rect id="Rectangle_13655" data-name="Rectangle 13655" width="9.295" height="9.295" fill="#0181c0"/>
              </g>
            </g>
            <g id="Group_21868" data-name="Group 21868" transform="translate(67.389 22.463)">
              <g id="Group_21867" data-name="Group 21867">
                <rect id="Rectangle_13656" data-name="Rectangle 13656" width="9.295" height="9.295" fill="#0181c0"/>
              </g>
            </g>
            <g id="Group_21870" data-name="Group 21870" transform="translate(0 33.694)">
              <g id="Group_21869" data-name="Group 21869">
                <rect id="Rectangle_13657" data-name="Rectangle 13657" width="9.295" height="9.295" fill="#0181c0"/>
              </g>
            </g>
            <g id="Group_21872" data-name="Group 21872" transform="translate(11.231 33.694)">
              <g id="Group_21871" data-name="Group 21871">
                <rect id="Rectangle_13658" data-name="Rectangle 13658" width="9.295" height="9.295" fill="#0181c0"/>
              </g>
            </g>
            <g id="Group_21874" data-name="Group 21874" transform="translate(22.463 33.694)">
              <g id="Group_21873" data-name="Group 21873">
                <rect id="Rectangle_13659" data-name="Rectangle 13659" width="9.295" height="9.295" fill="#0181c0"/>
              </g>
            </g>
            <g id="Group_21876" data-name="Group 21876" transform="translate(33.694 33.694)">
              <g id="Group_21875" data-name="Group 21875">
                <rect id="Rectangle_13660" data-name="Rectangle 13660" width="9.295" height="9.295" fill="#0181c0"/>
              </g>
            </g>
            <g id="Group_21878" data-name="Group 21878" transform="translate(44.926 33.694)">
              <g id="Group_21877" data-name="Group 21877">
                <rect id="Rectangle_13661" data-name="Rectangle 13661" width="9.295" height="9.295" fill="#0181c0"/>
              </g>
            </g>
            <g id="Group_21880" data-name="Group 21880" transform="translate(56.157 33.694)">
              <g id="Group_21879" data-name="Group 21879">
                <rect id="Rectangle_13662" data-name="Rectangle 13662" width="9.295" height="9.295" fill="#0181c0"/>
              </g>
            </g>
            <g id="Group_21882" data-name="Group 21882" transform="translate(67.389 33.694)">
              <g id="Group_21881" data-name="Group 21881">
                <rect id="Rectangle_13663" data-name="Rectangle 13663" width="9.295" height="9.295" fill="#0181c0"/>
              </g>
            </g>
            <g id="Group_21884" data-name="Group 21884" transform="translate(0 44.926)">
              <g id="Group_21883" data-name="Group 21883">
                <rect id="Rectangle_13664" data-name="Rectangle 13664" width="9.295" height="9.295" fill="#0181c0"/>
              </g>
            </g>
            <g id="Group_21886" data-name="Group 21886" transform="translate(11.231 44.926)">
              <g id="Group_21885" data-name="Group 21885">
                <rect id="Rectangle_13665" data-name="Rectangle 13665" width="9.295" height="9.295" fill="#0181c0"/>
              </g>
            </g>
            <g id="Group_21888" data-name="Group 21888" transform="translate(22.463 44.926)">
              <g id="Group_21887" data-name="Group 21887">
                <rect id="Rectangle_13666" data-name="Rectangle 13666" width="9.295" height="9.295" fill="#0181c0"/>
              </g>
            </g>
            <g id="Group_21890" data-name="Group 21890" transform="translate(33.694 44.926)">
              <g id="Group_21889" data-name="Group 21889">
                <rect id="Rectangle_13667" data-name="Rectangle 13667" width="9.295" height="9.295" fill="#0181c0"/>
              </g>
            </g>
            <g id="Group_21892" data-name="Group 21892" transform="translate(44.926 44.926)">
              <g id="Group_21891" data-name="Group 21891">
                <rect id="Rectangle_13668" data-name="Rectangle 13668" width="9.295" height="9.295" fill="#0181c0"/>
              </g>
            </g>
            <g id="Group_21894" data-name="Group 21894" transform="translate(56.157 44.926)">
              <g id="Group_21893" data-name="Group 21893">
                <rect id="Rectangle_13669" data-name="Rectangle 13669" width="9.295" height="9.295" fill="#e5e6eb"/>
              </g>
            </g>
            <g id="Group_21896" data-name="Group 21896" transform="translate(67.389 44.926)">
              <g id="Group_21895" data-name="Group 21895">
                <rect id="Rectangle_13670" data-name="Rectangle 13670" width="9.295" height="9.295" fill="#e5e6eb"/>
              </g>
            </g>
          </g>
          <g id="Group_21924" data-name="Group 21924" transform="translate(10.378)">
            <g id="Group_21899" data-name="Group 21899" transform="translate(0 6.047)">
              <g id="Group_21898" data-name="Group 21898">
                <circle id="Ellipse_817" data-name="Ellipse 817" cx="2.74" cy="2.74" r="2.74" fill="#214157"/>
              </g>
            </g>
            <g id="Group_21901" data-name="Group 21901" transform="translate(12.896 6.047)">
              <g id="Group_21900" data-name="Group 21900">
                <circle id="Ellipse_818" data-name="Ellipse 818" cx="2.74" cy="2.74" r="2.74" fill="#214157"/>
              </g>
            </g>
            <g id="Group_21903" data-name="Group 21903" transform="translate(25.792 6.047)">
              <g id="Group_21902" data-name="Group 21902">
                <circle id="Ellipse_819" data-name="Ellipse 819" cx="2.74" cy="2.74" r="2.74" fill="#214157"/>
              </g>
            </g>
            <g id="Group_21905" data-name="Group 21905" transform="translate(38.688 6.047)">
              <g id="Group_21904" data-name="Group 21904">
                <circle id="Ellipse_820" data-name="Ellipse 820" cx="2.74" cy="2.74" r="2.74" fill="#214157"/>
              </g>
            </g>
            <g id="Group_21907" data-name="Group 21907" transform="translate(51.584 6.047)">
              <g id="Group_21906" data-name="Group 21906">
                <circle id="Ellipse_821" data-name="Ellipse 821" cx="2.74" cy="2.74" r="2.74" fill="#214157"/>
              </g>
            </g>
            <g id="Group_21923" data-name="Group 21923" transform="translate(0.652)">
              <g id="Group_21909" data-name="Group 21909" transform="translate(63.828 6.047)">
                <g id="Group_21908" data-name="Group 21908">
                  <circle id="Ellipse_822" data-name="Ellipse 822" cx="2.74" cy="2.74" r="2.74" fill="#214157"/>
                </g>
              </g>
              <g id="Group_21922" data-name="Group 21922">
                <g id="Group_21911" data-name="Group 21911">
                  <g id="Group_21910" data-name="Group 21910">
                    <path id="Path_35274" data-name="Path 35274" d="M2228.6-772.351a2.088,2.088,0,0,0-2.088,2.088v5.848a2.088,2.088,0,0,0,2.088,2.088,2.088,2.088,0,0,0,2.088-2.088v-5.848A2.088,2.088,0,0,0,2228.6-772.351Z" transform="translate(-2226.513 772.351)" fill="#4686b2"/>
                  </g>
                </g>
                <g id="Group_21913" data-name="Group 21913" transform="translate(12.896)">
                  <g id="Group_21912" data-name="Group 21912">
                    <path id="Path_35275" data-name="Path 35275" d="M2247.379-772.351a2.088,2.088,0,0,0-2.088,2.088v5.848a2.088,2.088,0,0,0,2.088,2.088,2.088,2.088,0,0,0,2.088-2.088v-5.848A2.088,2.088,0,0,0,2247.379-772.351Z" transform="translate(-2245.291 772.351)" fill="#4686b2"/>
                  </g>
                </g>
                <g id="Group_21915" data-name="Group 21915" transform="translate(25.792)">
                  <g id="Group_21914" data-name="Group 21914">
                    <path id="Path_35276" data-name="Path 35276" d="M2266.157-772.351a2.088,2.088,0,0,0-2.088,2.088v5.848a2.088,2.088,0,0,0,2.088,2.088,2.088,2.088,0,0,0,2.088-2.088v-5.848A2.088,2.088,0,0,0,2266.157-772.351Z" transform="translate(-2264.069 772.351)" fill="#4686b2"/>
                  </g>
                </g>
                <g id="Group_21917" data-name="Group 21917" transform="translate(38.688)">
                  <g id="Group_21916" data-name="Group 21916">
                    <path id="Path_35277" data-name="Path 35277" d="M2284.935-772.351a2.088,2.088,0,0,0-2.088,2.088v5.848a2.088,2.088,0,0,0,2.088,2.088,2.088,2.088,0,0,0,2.088-2.088v-5.848A2.088,2.088,0,0,0,2284.935-772.351Z" transform="translate(-2282.847 772.351)" fill="#4686b2"/>
                  </g>
                </g>
                <g id="Group_21919" data-name="Group 21919" transform="translate(51.584)">
                  <g id="Group_21918" data-name="Group 21918">
                    <path id="Path_35278" data-name="Path 35278" d="M2303.713-772.351a2.088,2.088,0,0,0-2.088,2.088v5.848a2.088,2.088,0,0,0,2.088,2.088,2.088,2.088,0,0,0,2.088-2.088v-5.848A2.088,2.088,0,0,0,2303.713-772.351Z" transform="translate(-2301.625 772.351)" fill="#4686b2"/>
                  </g>
                </g>
                <g id="Group_21921" data-name="Group 21921" transform="translate(64.48)">
                  <g id="Group_21920" data-name="Group 21920">
                    <path id="Path_35279" data-name="Path 35279" d="M2322.491-772.351a2.088,2.088,0,0,0-2.088,2.088v5.848a2.088,2.088,0,0,0,2.088,2.088,2.088,2.088,0,0,0,2.088-2.088v-5.848A2.088,2.088,0,0,0,2322.491-772.351Z" transform="translate(-2320.403 772.351)" fill="#4686b2"/>
                  </g>
                </g>
              </g>
            </g>
          </g>
        </g>
        <g id="Group_21998" data-name="Group 21998" transform="translate(2277.104 -733.55)">
          <g id="Group_21978" data-name="Group 21978" transform="translate(0 8.869)">
            <g id="Group_21977" data-name="Group 21977">
              <g id="Group_21976" data-name="Group 21976">
                <rect id="Rectangle_13672" data-name="Rectangle 13672" width="38.777" height="27.653" fill="#265b7f"/>
              </g>
            </g>
          </g>
          <g id="Group_21981" data-name="Group 21981" transform="translate(0 8.869)">
            <g id="Group_21980" data-name="Group 21980">
              <g id="Group_21979" data-name="Group 21979">
                <path id="Path_35297" data-name="Path 35297" d="M2343.732-672.9h-31.708l-3.535-15.321h38.777Z" transform="translate(-2308.49 688.224)" fill="#214157"/>
              </g>
            </g>
          </g>
          <g id="Group_21984" data-name="Group 21984" transform="translate(0 8.869)">
            <g id="Group_21983" data-name="Group 21983">
              <g id="Group_21982" data-name="Group 21982">
                <path id="Path_35298" data-name="Path 35298" d="M2342.121-674.436h-28.484l-5.146-13.787h38.777Z" transform="translate(-2308.49 688.224)" fill="#265b7f"/>
              </g>
            </g>
          </g>
          <g id="Group_21993" data-name="Group 21993" transform="translate(9.33 20.915)">
            <g id="Group_21988" data-name="Group 21988">
              <g id="Group_21987" data-name="Group 21987">
                <g id="Group_21986" data-name="Group 21986">
                  <g id="Group_21985" data-name="Group 21985">
                    <rect id="Rectangle_13673" data-name="Rectangle 13673" width="2.339" height="5.224" fill="#4686b2"/>
                  </g>
                </g>
              </g>
            </g>
            <g id="Group_21992" data-name="Group 21992" transform="translate(17.777)">
              <g id="Group_21991" data-name="Group 21991">
                <g id="Group_21990" data-name="Group 21990">
                  <g id="Group_21989" data-name="Group 21989">
                    <rect id="Rectangle_13674" data-name="Rectangle 13674" width="2.339" height="5.224" fill="#4686b2"/>
                  </g>
                </g>
              </g>
            </g>
          </g>
          <g id="Group_21997" data-name="Group 21997" transform="translate(10.168)">
            <g id="Group_21996" data-name="Group 21996">
              <g id="Group_21995" data-name="Group 21995">
                <g id="Group_21994" data-name="Group 21994">
                  <path id="Path_35299" data-name="Path 35299" d="M2341.736-691.918h-2.014a7.214,7.214,0,0,0-7.206-7.206,7.214,7.214,0,0,0-7.206,7.206H2323.3a9.231,9.231,0,0,1,9.22-9.22A9.231,9.231,0,0,1,2341.736-691.918Z" transform="translate(-2323.296 701.138)" fill="#214157"/>
                </g>
              </g>
            </g>
          </g>
        </g>
        <g id="Group_22027" data-name="Group 22027" transform="translate(2287.785 -798.958)">
          <g id="Group_22001" data-name="Group 22001">
            <g id="Group_22000" data-name="Group 22000">
              <g id="Group_21999" data-name="Group 21999">
                <circle id="Ellipse_825" data-name="Ellipse 825" cx="22.197" cy="22.197" r="22.197" fill="#6ab82d"/>
              </g>
            </g>
          </g>
          <g id="Group_22004" data-name="Group 22004" transform="translate(4.072 4.072)">
            <g id="Group_22003" data-name="Group 22003">
              <g id="Group_22002" data-name="Group 22002">
                <circle id="Ellipse_826" data-name="Ellipse 826" cx="18.126" cy="18.126" r="18.126" fill="#fff"/>
              </g>
            </g>
          </g>
          <g id="Group_22007" data-name="Group 22007" transform="translate(21.847 5.079)">
            <g id="Group_22006" data-name="Group 22006">
              <g id="Group_22005" data-name="Group 22005">
                <rect id="Rectangle_13675" data-name="Rectangle 13675" width="0.701" height="2.89" fill="#050f64"/>
              </g>
            </g>
          </g>
          <g id="Group_22010" data-name="Group 22010" transform="translate(21.711 7.288)">
            <g id="Group_22009" data-name="Group 22009">
              <g id="Group_22008" data-name="Group 22008">
                <path id="Path_35300" data-name="Path 35300" d="M2307.347-836.205l-4.266,11.655-.568,1.554a1.243,1.243,0,0,0-1.107-.681,1.249,1.249,0,0,0-.486.1l.569-1.556,4.266-11.656a.85.85,0,0,1,1.089-.505A.848.848,0,0,1,2307.347-836.205Z" transform="translate(-2300.919 837.346)" fill="#265b7f"/>
              </g>
            </g>
          </g>
          <g id="Group_22013" data-name="Group 22013" transform="translate(22.467 22.007)">
            <g id="Group_22012" data-name="Group 22012">
              <g id="Group_22011" data-name="Group 22011">
                <path id="Path_35301" data-name="Path 35301" d="M2312.761-808.207a.849.849,0,0,1-.7.37.835.835,0,0,1-.476-.148l-8.2-5.593-1.367-.935a1.239,1.239,0,0,0,.972-1.209,1.167,1.167,0,0,0-.015-.191l1.368.933,8.193,5.593A.849.849,0,0,1,2312.761-808.207Z" transform="translate(-2302.019 815.913)" fill="#6ab82d"/>
              </g>
            </g>
          </g>
          <g id="Group_22017" data-name="Group 22017" transform="translate(19.498 19.498)">
            <g id="Group_22016" data-name="Group 22016">
              <g id="Group_22015" data-name="Group 22015">
                <g id="Group_22014" data-name="Group 22014">
                  <path id="Path_35302" data-name="Path 35302" d="M2302.071-818.981a2.683,2.683,0,0,0-1.593-.583c-.028,0-.056,0-.083,0a2.7,2.7,0,0,0-2.7,2.7,2.7,2.7,0,0,0,2.7,2.7,2.694,2.694,0,0,0,1.636-.554,2.7,2.7,0,0,0,.958-1.4,2.622,2.622,0,0,0,.105-.742A2.694,2.694,0,0,0,2302.071-818.981Zm-1.406,3.323a1.121,1.121,0,0,1-.269.031,1.241,1.241,0,0,1-1.241-1.24,1.243,1.243,0,0,1,.755-1.142,1.249,1.249,0,0,1,.486-.1,1.243,1.243,0,0,1,1.107.681,1.193,1.193,0,0,1,.119.369,1.167,1.167,0,0,1,.015.191A1.239,1.239,0,0,1,2300.665-815.658Z" transform="translate(-2297.696 819.566)" fill="#6ab82d"/>
                </g>
              </g>
            </g>
          </g>
          <g id="Group_22020" data-name="Group 22020" transform="translate(5.079 21.847)">
            <g id="Group_22019" data-name="Group 22019" transform="translate(0 0)">
              <g id="Group_22018" data-name="Group 22018">
                <rect id="Rectangle_13676" data-name="Rectangle 13676" width="0.701" height="2.89" transform="translate(0 0.701) rotate(-90)" fill="#050f64"/>
              </g>
            </g>
          </g>
          <g id="Group_22023" data-name="Group 22023" transform="translate(21.847 36.426)">
            <g id="Group_22022" data-name="Group 22022" transform="translate(0 0)">
              <g id="Group_22021" data-name="Group 22021">
                <rect id="Rectangle_13677" data-name="Rectangle 13677" width="0.701" height="2.89" transform="translate(0.701 2.89) rotate(180)" fill="#050f64"/>
              </g>
            </g>
          </g>
          <g id="Group_22026" data-name="Group 22026" transform="translate(36.426 21.847)">
            <g id="Group_22025" data-name="Group 22025" transform="translate(0)">
              <g id="Group_22024" data-name="Group 22024">
                <rect id="Rectangle_13678" data-name="Rectangle 13678" width="0.701" height="2.89" transform="translate(2.89 0) rotate(90)" fill="#050f64"/>
              </g>
            </g>
          </g>
        </g>
      </g>
    </g>
    <g id="Group_23456" data-name="Group 23456" transform="translate(0 270)">
      <circle id="Ellipse_862" data-name="Ellipse 862" cx="30" cy="30" r="30" transform="translate(550 3111)" fill="#6ab82d"/>
      <path id="Path_35885" data-name="Path 35885" d="M-3.328.128a4.192,4.192,0,0,1-2.36-.68A4.559,4.559,0,0,1-7.312-2.528,7.342,7.342,0,0,1-7.9-5.6a7.342,7.342,0,0,1,.592-3.072,4.559,4.559,0,0,1,1.624-1.976,4.192,4.192,0,0,1,2.36-.68,4.164,4.164,0,0,1,2.344.68A4.559,4.559,0,0,1,.64-8.672,7.342,7.342,0,0,1,1.232-5.6,7.342,7.342,0,0,1,.64-2.528,4.559,4.559,0,0,1-.984-.552,4.164,4.164,0,0,1-3.328.128Zm0-1.424A2.537,2.537,0,0,0-1.176-2.4,5.368,5.368,0,0,0-.368-5.6a5.368,5.368,0,0,0-.808-3.2A2.537,2.537,0,0,0-3.328-9.9,2.552,2.552,0,0,0-5.5-8.8,5.368,5.368,0,0,0-6.3-5.6,5.368,5.368,0,0,0-5.5-2.4,2.552,2.552,0,0,0-3.328-1.3Zm10.32-9.9V0H5.408V-9.808H2.88V-11.2Z" transform="translate(580 3147)" fill="#fff"/>
    </g>
  </g>
</svg>
