<svg xmlns="http://www.w3.org/2000/svg" width="195" height="190" viewBox="0 0 195 190">
  <g id="Group_23577" data-name="Group 23577" transform="translate(-860 -3381)">
    <g id="Group_23453" data-name="Group 23453" transform="translate(0 270)">
      <circle id="Ellipse_866" data-name="Ellipse 866" cx="95" cy="95" r="95" transform="translate(865 3111)" fill="#f1f8ea"/>
      <g id="Group_23434" data-name="Group 23434" transform="translate(904 3150)">
        <g id="Group_21616" data-name="Group 21616" transform="translate(0 11.936)">
          <g id="Group_21604" data-name="Group 21604">
            <g id="Group_21596" data-name="Group 21596">
              <g id="Group_21592" data-name="Group 21592" transform="translate(0.731 0.731)">
                <g id="Group_21591" data-name="Group 21591">
                  <g id="Group_21590" data-name="Group 21590">
                    <path id="Path_35234" data-name="Path 35234" d="M2583.524-823.158v79.09a9.311,9.311,0,0,1-9.312,9.311H2533.9a9.26,9.26,0,0,1-5.6-1.876,9.294,9.294,0,0,1-3.709-7.436v-79.09a9.311,9.311,0,0,1,9.311-9.31h40.312A9.311,9.311,0,0,1,2583.524-823.158Z" transform="translate(-2524.59 832.468)" fill="#fff"/>
                  </g>
                </g>
              </g>
              <g id="Group_21595" data-name="Group 21595">
                <g id="Group_21594" data-name="Group 21594">
                  <g id="Group_21593" data-name="Group 21593">
                    <path id="Path_35235" data-name="Path 35235" d="M2573.628-734.611h-40.312a10.053,10.053,0,0,1-10.042-10.042v-79.09a10.053,10.053,0,0,1,10.042-10.042h40.312a10.053,10.053,0,0,1,10.042,10.042v79.09A10.053,10.053,0,0,1,2573.628-734.611Zm-40.312-97.713a8.59,8.59,0,0,0-8.581,8.581v79.09a8.59,8.59,0,0,0,8.581,8.581h40.312a8.59,8.59,0,0,0,8.581-8.581v-79.09a8.59,8.59,0,0,0-8.581-8.581Z" transform="translate(-2523.275 833.784)" fill="#265b7f"/>
                  </g>
                </g>
              </g>
            </g>
            <g id="Group_21598" data-name="Group 21598" transform="translate(16.431 0.73)">
              <g id="Group_21597" data-name="Group 21597">
                <path id="Rectangle_13569" data-name="Rectangle 13569" d="M0,0H30.6a0,0,0,0,1,0,0V5.721a.236.236,0,0,1-.236.236H.236A.236.236,0,0,1,0,5.721V0A0,0,0,0,1,0,0Z" fill="#265b7f"/>
              </g>
            </g>
            <g id="Group_21601" data-name="Group 21601" transform="translate(26.046 3.344)">
              <g id="Group_21600" data-name="Group 21600">
                <g id="Group_21599" data-name="Group 21599">
                  <rect id="Rectangle_13570" data-name="Rectangle 13570" width="11.369" height="0.73" fill="#fff"/>
                </g>
              </g>
            </g>
            <g id="Group_21603" data-name="Group 21603" transform="translate(42.517 2.812)">
              <g id="Group_21602" data-name="Group 21602">
                <circle id="Ellipse_808" data-name="Ellipse 808" cx="0.897" cy="0.897" r="0.897" fill="#fff"/>
              </g>
            </g>
          </g>
          <g id="Group_21615" data-name="Group 21615" transform="translate(4.909 11.404)">
            <g id="Group_21606" data-name="Group 21606" transform="translate(0)">
              <g id="Group_21605" data-name="Group 21605">
                <rect id="Rectangle_13571" data-name="Rectangle 13571" width="50.578" height="18.157" rx="3.078" fill="#6ab82d"/>
              </g>
            </g>
            <g id="Group_21608" data-name="Group 21608" transform="translate(0 20.723)">
              <g id="Group_21607" data-name="Group 21607">
                <rect id="Rectangle_13572" data-name="Rectangle 13572" width="50.578" height="18.157" rx="3.078" fill="#e5e6eb"/>
              </g>
            </g>
            <g id="Group_21610" data-name="Group 21610" transform="translate(0 41.445)">
              <g id="Group_21609" data-name="Group 21609">
                <path id="Path_35236" data-name="Path 35236" d="M2533.191-738.653h22.317c.6,0,1.081.766,1.081,1.71v9.272c0,.944-.484,1.71-1.081,1.71h-22.317c-.6,0-1.081-.766-1.081-1.71v-9.272C2532.111-737.888,2532.595-738.653,2533.191-738.653Z" transform="translate(-2532.111 738.653)" fill="#e5e6eb"/>
              </g>
            </g>
            <g id="Group_21612" data-name="Group 21612" transform="translate(26.1 41.445)">
              <g id="Group_21611" data-name="Group 21611">
                <path id="Path_35237" data-name="Path 35237" d="M2603.569-736.943v9.272c0,.944-.484,1.71-1.081,1.71h-22.317c-.6,0-1.08-.766-1.08-1.71v-9.272c0-.944.484-1.71,1.08-1.71h22.317C2603.085-738.653,2603.569-737.888,2603.569-736.943Z" transform="translate(-2579.091 738.653)" fill="#e5e6eb"/>
              </g>
            </g>
            <g id="Group_21614" data-name="Group 21614" transform="translate(0 56.703)">
              <g id="Group_21613" data-name="Group 21613">
                <rect id="Rectangle_13573" data-name="Rectangle 13573" width="50.578" height="23.623" rx="3.078" fill="#e5e6eb"/>
              </g>
            </g>
          </g>
        </g>
        <g id="Group_21670" data-name="Group 21670" transform="translate(38.093 0)">
          <g id="Group_21617" data-name="Group 21617" transform="translate(0 1.6)">
            <rect id="Rectangle_13574" data-name="Rectangle 13574" width="39.856" height="35.933" rx="3.171" fill="#265b7f"/>
          </g>
          <g id="Group_21618" data-name="Group 21618" transform="translate(1.321 8.867)">
            <rect id="Rectangle_13575" data-name="Rectangle 13575" width="27.345" height="37.214" transform="translate(37.214 0) rotate(90)" fill="#fff"/>
          </g>
          <g id="Group_21654" data-name="Group 21654" transform="translate(3.083 10.628)">
            <g id="Group_21619" data-name="Group 21619">
              <rect id="Rectangle_13576" data-name="Rectangle 13576" width="4.084" height="4.084" fill="#e5e6eb"/>
            </g>
            <g id="Group_21620" data-name="Group 21620" transform="translate(4.935)">
              <rect id="Rectangle_13577" data-name="Rectangle 13577" width="4.084" height="4.084" fill="#e5e6eb"/>
            </g>
            <g id="Group_21621" data-name="Group 21621" transform="translate(9.869)">
              <rect id="Rectangle_13578" data-name="Rectangle 13578" width="4.084" height="4.084" fill="#0181c0"/>
            </g>
            <g id="Group_21622" data-name="Group 21622" transform="translate(14.804)">
              <rect id="Rectangle_13579" data-name="Rectangle 13579" width="4.084" height="4.084" fill="#0181c0"/>
            </g>
            <g id="Group_21623" data-name="Group 21623" transform="translate(19.738)">
              <rect id="Rectangle_13580" data-name="Rectangle 13580" width="4.084" height="4.084" fill="#0181c0"/>
            </g>
            <g id="Group_21624" data-name="Group 21624" transform="translate(24.673)">
              <rect id="Rectangle_13581" data-name="Rectangle 13581" width="4.084" height="4.084" fill="#0181c0"/>
            </g>
            <g id="Group_21625" data-name="Group 21625" transform="translate(29.607)">
              <rect id="Rectangle_13582" data-name="Rectangle 13582" width="4.084" height="4.084" fill="#0181c0"/>
            </g>
            <g id="Group_21626" data-name="Group 21626" transform="translate(0 4.935)">
              <rect id="Rectangle_13583" data-name="Rectangle 13583" width="4.084" height="4.084" fill="#0181c0"/>
            </g>
            <g id="Group_21627" data-name="Group 21627" transform="translate(4.935 4.935)">
              <rect id="Rectangle_13584" data-name="Rectangle 13584" width="4.084" height="4.084" fill="#0181c0"/>
            </g>
            <g id="Group_21628" data-name="Group 21628" transform="translate(9.869 4.935)">
              <rect id="Rectangle_13585" data-name="Rectangle 13585" width="4.084" height="4.084" fill="#0181c0"/>
            </g>
            <g id="Group_21629" data-name="Group 21629" transform="translate(14.804 4.935)">
              <rect id="Rectangle_13586" data-name="Rectangle 13586" width="4.084" height="4.084" fill="#0181c0"/>
            </g>
            <g id="Group_21630" data-name="Group 21630" transform="translate(19.738 4.935)">
              <rect id="Rectangle_13587" data-name="Rectangle 13587" width="4.084" height="4.084" fill="#6ab82d"/>
            </g>
            <g id="Group_21631" data-name="Group 21631" transform="translate(24.673 4.935)">
              <rect id="Rectangle_13588" data-name="Rectangle 13588" width="4.084" height="4.084" fill="#0181c0"/>
            </g>
            <g id="Group_21632" data-name="Group 21632" transform="translate(29.607 4.935)">
              <rect id="Rectangle_13589" data-name="Rectangle 13589" width="4.084" height="4.084" fill="#0181c0"/>
            </g>
            <g id="Group_21633" data-name="Group 21633" transform="translate(0 9.869)">
              <rect id="Rectangle_13590" data-name="Rectangle 13590" width="4.084" height="4.084" fill="#0181c0"/>
            </g>
            <g id="Group_21634" data-name="Group 21634" transform="translate(4.935 9.869)">
              <rect id="Rectangle_13591" data-name="Rectangle 13591" width="4.084" height="4.084" fill="#0181c0"/>
            </g>
            <g id="Group_21635" data-name="Group 21635" transform="translate(9.869 9.869)">
              <rect id="Rectangle_13592" data-name="Rectangle 13592" width="4.084" height="4.084" fill="#0181c0"/>
            </g>
            <g id="Group_21636" data-name="Group 21636" transform="translate(14.804 9.869)">
              <rect id="Rectangle_13593" data-name="Rectangle 13593" width="4.084" height="4.084" fill="#0181c0"/>
            </g>
            <g id="Group_21637" data-name="Group 21637" transform="translate(19.738 9.869)">
              <rect id="Rectangle_13594" data-name="Rectangle 13594" width="4.084" height="4.084" fill="#0181c0"/>
            </g>
            <g id="Group_21638" data-name="Group 21638" transform="translate(24.673 9.869)">
              <rect id="Rectangle_13595" data-name="Rectangle 13595" width="4.084" height="4.084" fill="#0181c0"/>
            </g>
            <g id="Group_21639" data-name="Group 21639" transform="translate(29.607 9.869)">
              <rect id="Rectangle_13596" data-name="Rectangle 13596" width="4.084" height="4.084" fill="#0181c0"/>
            </g>
            <g id="Group_21640" data-name="Group 21640" transform="translate(0 14.804)">
              <rect id="Rectangle_13597" data-name="Rectangle 13597" width="4.084" height="4.084" fill="#0181c0"/>
            </g>
            <g id="Group_21641" data-name="Group 21641" transform="translate(4.935 14.804)">
              <rect id="Rectangle_13598" data-name="Rectangle 13598" width="4.084" height="4.084" fill="#0181c0"/>
            </g>
            <g id="Group_21642" data-name="Group 21642" transform="translate(9.869 14.804)">
              <rect id="Rectangle_13599" data-name="Rectangle 13599" width="4.084" height="4.084" fill="#0181c0"/>
            </g>
            <g id="Group_21643" data-name="Group 21643" transform="translate(14.804 14.804)">
              <rect id="Rectangle_13600" data-name="Rectangle 13600" width="4.084" height="4.084" fill="#0181c0"/>
            </g>
            <g id="Group_21644" data-name="Group 21644" transform="translate(19.738 14.804)">
              <rect id="Rectangle_13601" data-name="Rectangle 13601" width="4.084" height="4.084" fill="#0181c0"/>
            </g>
            <g id="Group_21645" data-name="Group 21645" transform="translate(24.673 14.804)">
              <rect id="Rectangle_13602" data-name="Rectangle 13602" width="4.084" height="4.084" fill="#0181c0"/>
            </g>
            <g id="Group_21646" data-name="Group 21646" transform="translate(29.607 14.804)">
              <rect id="Rectangle_13603" data-name="Rectangle 13603" width="4.084" height="4.084" fill="#0181c0"/>
            </g>
            <g id="Group_21647" data-name="Group 21647" transform="translate(0 19.738)">
              <rect id="Rectangle_13604" data-name="Rectangle 13604" width="4.084" height="4.084" fill="#0181c0"/>
            </g>
            <g id="Group_21648" data-name="Group 21648" transform="translate(4.935 19.738)">
              <rect id="Rectangle_13605" data-name="Rectangle 13605" width="4.084" height="4.084" fill="#0181c0"/>
            </g>
            <g id="Group_21649" data-name="Group 21649" transform="translate(9.869 19.738)">
              <rect id="Rectangle_13606" data-name="Rectangle 13606" width="4.084" height="4.084" fill="#0181c0"/>
            </g>
            <g id="Group_21650" data-name="Group 21650" transform="translate(14.804 19.738)">
              <rect id="Rectangle_13607" data-name="Rectangle 13607" width="4.084" height="4.084" fill="#0181c0"/>
            </g>
            <g id="Group_21651" data-name="Group 21651" transform="translate(19.738 19.738)">
              <rect id="Rectangle_13608" data-name="Rectangle 13608" width="4.084" height="4.084" fill="#0181c0"/>
            </g>
            <g id="Group_21652" data-name="Group 21652" transform="translate(24.673 19.738)">
              <rect id="Rectangle_13609" data-name="Rectangle 13609" width="4.084" height="4.084" fill="#e5e6eb"/>
            </g>
            <g id="Group_21653" data-name="Group 21653" transform="translate(29.607 19.738)">
              <rect id="Rectangle_13610" data-name="Rectangle 13610" width="4.084" height="4.084" fill="#e5e6eb"/>
            </g>
          </g>
          <g id="Group_21669" data-name="Group 21669" transform="translate(4.56)">
            <g id="Group_21655" data-name="Group 21655" transform="translate(0 2.657)">
              <circle id="Ellipse_809" data-name="Ellipse 809" cx="1.204" cy="1.204" r="1.204" fill="#214157"/>
            </g>
            <g id="Group_21656" data-name="Group 21656" transform="translate(5.666 2.657)">
              <circle id="Ellipse_810" data-name="Ellipse 810" cx="1.204" cy="1.204" r="1.204" fill="#214157"/>
            </g>
            <g id="Group_21657" data-name="Group 21657" transform="translate(11.332 2.657)">
              <circle id="Ellipse_811" data-name="Ellipse 811" cx="1.204" cy="1.204" r="1.204" fill="#214157"/>
            </g>
            <g id="Group_21658" data-name="Group 21658" transform="translate(16.998 2.657)">
              <circle id="Ellipse_812" data-name="Ellipse 812" cx="1.204" cy="1.204" r="1.204" fill="#214157"/>
            </g>
            <g id="Group_21659" data-name="Group 21659" transform="translate(22.663 2.657)">
              <circle id="Ellipse_813" data-name="Ellipse 813" cx="1.204" cy="1.204" r="1.204" fill="#214157"/>
            </g>
            <g id="Group_21668" data-name="Group 21668" transform="translate(0.286)">
              <g id="Group_21660" data-name="Group 21660" transform="translate(28.043 2.657)">
                <circle id="Ellipse_814" data-name="Ellipse 814" cx="1.204" cy="1.204" r="1.204" fill="#214157"/>
              </g>
              <g id="Group_21667" data-name="Group 21667">
                <g id="Group_21661" data-name="Group 21661">
                  <path id="Path_35238" data-name="Path 35238" d="M2601.483-855.27a.918.918,0,0,0-.917.917v2.569a.918.918,0,0,0,.917.917.917.917,0,0,0,.917-.917v-2.569A.917.917,0,0,0,2601.483-855.27Z" transform="translate(-2600.566 855.27)" fill="#4686b2"/>
                </g>
                <g id="Group_21662" data-name="Group 21662" transform="translate(5.666)">
                  <path id="Path_35239" data-name="Path 35239" d="M2611.682-855.27a.917.917,0,0,0-.917.917v2.569a.917.917,0,0,0,.917.917.917.917,0,0,0,.917-.917v-2.569A.917.917,0,0,0,2611.682-855.27Z" transform="translate(-2610.765 855.27)" fill="#4686b2"/>
                </g>
                <g id="Group_21663" data-name="Group 21663" transform="translate(11.332)">
                  <path id="Path_35240" data-name="Path 35240" d="M2621.881-855.27a.917.917,0,0,0-.917.917v2.569a.917.917,0,0,0,.917.917.917.917,0,0,0,.917-.917v-2.569A.917.917,0,0,0,2621.881-855.27Z" transform="translate(-2620.964 855.27)" fill="#4686b2"/>
                </g>
                <g id="Group_21664" data-name="Group 21664" transform="translate(16.998)">
                  <path id="Path_35241" data-name="Path 35241" d="M2632.079-855.27a.917.917,0,0,0-.917.917v2.569a.917.917,0,0,0,.917.917.917.917,0,0,0,.917-.917v-2.569A.917.917,0,0,0,2632.079-855.27Z" transform="translate(-2631.162 855.27)" fill="#4686b2"/>
                </g>
                <g id="Group_21665" data-name="Group 21665" transform="translate(22.664)">
                  <path id="Path_35242" data-name="Path 35242" d="M2642.278-855.27a.917.917,0,0,0-.917.917v2.569a.917.917,0,0,0,.917.917.917.917,0,0,0,.917-.917v-2.569A.917.917,0,0,0,2642.278-855.27Z" transform="translate(-2641.361 855.27)" fill="#4686b2"/>
                </g>
                <g id="Group_21666" data-name="Group 21666" transform="translate(28.33)">
                  <path id="Path_35243" data-name="Path 35243" d="M2652.477-855.27a.917.917,0,0,0-.917.917v2.569a.917.917,0,0,0,.917.917.917.917,0,0,0,.917-.917v-2.569A.917.917,0,0,0,2652.477-855.27Z" transform="translate(-2651.56 855.27)" fill="#4686b2"/>
                </g>
              </g>
            </g>
          </g>
        </g>
        <g id="Group_21746" data-name="Group 21746" transform="translate(69.526 19.566)">
          <g id="Group_21675" data-name="Group 21675" transform="translate(0 13.054)">
            <g id="Group_21672" data-name="Group 21672" transform="translate(3.899 0.293)">
              <g id="Group_21671" data-name="Group 21671">
                <path id="Path_35244" data-name="Path 35244" d="M2645.447-796.025l1.434,7.014.7.052-1.433-7.014Z" transform="translate(-2645.447 796.025)" fill="#0181c0"/>
              </g>
            </g>
            <g id="Group_21674" data-name="Group 21674">
              <g id="Group_21673" data-name="Group 21673">
                <path id="Path_35245" data-name="Path 35245" d="M2638.429-796.552l1.434,7.015,3.9.293-1.433-7.015Z" transform="translate(-2638.429 796.552)" fill="#050f64"/>
              </g>
            </g>
          </g>
          <g id="Group_21683" data-name="Group 21683" transform="translate(1.279 12.745)">
            <g id="Group_21682" data-name="Group 21682">
              <g id="Group_21677" data-name="Group 21677" transform="translate(0.431 0.137)">
                <g id="Group_21676" data-name="Group 21676">
                  <path id="Path_35246" data-name="Path 35246" d="M2642.453-793.5a.864.864,0,0,1,.906.658,13.359,13.359,0,0,0,.631,3.044,6.372,6.372,0,0,0,.6,1.281l.089.14.094.132c.061.09.131.165.194.247a3.1,3.1,0,0,0,.421.4,2.323,2.323,0,0,0,.449.282,2.17,2.17,0,0,0,.477.169c.079.024.168.032.25.048s.172.022.264.022a3.514,3.514,0,0,0,.558-.019,5.833,5.833,0,0,0,1.214-.286,9.782,9.782,0,0,0,1.267-.552,17.55,17.55,0,0,0,2.5-1.611q.609-.465,1.2-.969c.393-.339.783-.682,1.165-1.043a54.223,54.223,0,0,0,4.36-4.643,2.163,2.163,0,0,1,1.862-.652,3.722,3.722,0,0,1,2.178,1.024h0a3.488,3.488,0,0,1,1.117,2.138,2.263,2.263,0,0,1-.7,1.963,59.735,59.735,0,0,1-5.626,4.262c-.5.329-1.006.646-1.52.956s-1.045.6-1.585.887a21.692,21.692,0,0,1-3.443,1.461,13.541,13.541,0,0,1-1.92.462,9.275,9.275,0,0,1-2.1.1,6.8,6.8,0,0,1-1.107-.174c-.185-.04-.371-.1-.553-.16s-.366-.133-.542-.22a5.453,5.453,0,0,1-1.843-1.386,6.048,6.048,0,0,1-.639-.889c-.085-.154-.176-.307-.247-.464l-.111-.233-.1-.234a8.9,8.9,0,0,1-.515-1.868,15.483,15.483,0,0,1-.139-3.591A.825.825,0,0,1,2642.453-793.5Z" transform="translate(-2641.506 796.862)" fill="#ea8096"/>
                </g>
              </g>
              <g id="Group_21679" data-name="Group 21679" transform="translate(0.208)">
                <g id="Group_21678" data-name="Group 21678">
                  <path id="Path_35247" data-name="Path 35247" d="M2664.183-793.775a3.962,3.962,0,0,0-1.235-2.162h0a4.245,4.245,0,0,0-2.208-1.138,1.9,1.9,0,0,0-1.782.523c-1.24,1.434-2.526,2.815-3.873,4.094q-1.009.961-2.067,1.822a23.183,23.183,0,0,1-2.156,1.568,12.475,12.475,0,0,1-2.2,1.133,4.908,4.908,0,0,1-1.958.379,2.137,2.137,0,0,1-.747-.164,2.134,2.134,0,0,1-.666-.459,4.886,4.886,0,0,1-1.063-1.916l-3.128.751a9.907,9.907,0,0,0,.451,1.712,7.257,7.257,0,0,0,.893,1.718,5.973,5.973,0,0,0,1.526,1.49,6.036,6.036,0,0,0,2,.86,7.65,7.65,0,0,0,2.031.186,10.737,10.737,0,0,0,1.86-.243,16.876,16.876,0,0,0,3.277-1.112,28.024,28.024,0,0,0,2.9-1.527q1.384-.828,2.669-1.748c1.719-1.221,3.338-2.531,4.9-3.889A1.987,1.987,0,0,0,2664.183-793.775Z" transform="translate(-2641.105 797.108)" fill="#265b7f"/>
                </g>
              </g>
              <g id="Group_21681" data-name="Group 21681" transform="translate(0 0.128)">
                <g id="Group_21680" data-name="Group 21680">
                  <path id="Path_35248" data-name="Path 35248" d="M2640.939-789.242l2.24-.538-.085-.166-2.363.568.029.168a10.019,10.019,0,0,0,.46,1.744,7.5,7.5,0,0,0,.8,1.594l.189-.043a7.4,7.4,0,0,1-.82-1.615A9.908,9.908,0,0,1,2640.939-789.242ZM2664.2-793.7a4.13,4.13,0,0,0-1.29-2.263,4.757,4.757,0,0,0-1.367-.911l-.192.119a4.555,4.555,0,0,1,1.435.924,4.45,4.45,0,0,1,.827,1.046,3.445,3.445,0,0,1,.407,1.115,1.989,1.989,0,0,1-.57,1.88c-1.561,1.358-3.181,2.667-4.9,3.888q-1.289.916-2.668,1.748-.528.316-1.072.614l.03.19c.375-.2.752-.419,1.135-.649.891-.533,1.792-1.124,2.68-1.756,1.583-1.124,3.189-2.4,4.914-3.9A2.167,2.167,0,0,0,2664.2-793.7Zm-6.27-1.763-.151-.1c-1.023,1.14-2.005,2.155-2.981,3.082-.677.643-1.368,1.253-2.056,1.813a23.034,23.034,0,0,1-2.139,1.555,12.165,12.165,0,0,1-2.164,1.117,5.026,5.026,0,0,1-1.723.373c-.054,0-.107,0-.162-.005a1.98,1.98,0,0,1-.686-.151,1.938,1.938,0,0,1-.607-.421,3.312,3.312,0,0,1-.5-.656l-.183.042a3.538,3.538,0,0,0,.553.744,2.137,2.137,0,0,0,.666.459,2.165,2.165,0,0,0,.746.164,4.913,4.913,0,0,0,1.958-.379,12.516,12.516,0,0,0,2.2-1.133,23.107,23.107,0,0,0,2.157-1.568q1.057-.858,2.067-1.822C2655.956-793.34,2656.956-794.384,2657.926-795.467Zm-5.8,11.194a15.4,15.4,0,0,1-2.426.754,10.611,10.611,0,0,1-1.861.243,7.62,7.62,0,0,1-2.031-.185,5.862,5.862,0,0,1-.947-.3l-.181.122a6.173,6.173,0,0,0,1.086.355,7.727,7.727,0,0,0,1.753.2q.163,0,.326-.007a10.8,10.8,0,0,0,1.892-.247,15.586,15.586,0,0,0,2.445-.76Z" transform="translate(-2640.731 796.878)" fill="#0181c0"/>
                </g>
              </g>
            </g>
          </g>
          <g id="Group_21685" data-name="Group 21685" transform="translate(5.238 88.221)">
            <g id="Group_21684" data-name="Group 21684">
              <path id="Path_35249" data-name="Path 35249" d="M2656.309-658.544l-8.452-.4a1.3,1.3,0,0,1,.275-.781,1.342,1.342,0,0,1,.869-.411,8.18,8.18,0,0,1,.983-.011,5.2,5.2,0,0,0,2.324-.556,7.731,7.731,0,0,1,1.13-.549l2.3.169a2.637,2.637,0,0,1,.557,1.271A4.653,4.653,0,0,1,2656.309-658.544Z" transform="translate(-2647.858 661.25)" fill="#2d3d45"/>
            </g>
          </g>
          <g id="Group_21687" data-name="Group 21687" transform="translate(31.757 85.898)">
            <g id="Group_21686" data-name="Group 21686">
              <path id="Path_35250" data-name="Path 35250" d="M2703.633-663.314l-7.944,2.912a1.3,1.3,0,0,1-.05-.826,1.342,1.342,0,0,1,.641-.716,8.151,8.151,0,0,1,.9-.391,5.2,5.2,0,0,0,1.926-1.414,7.8,7.8,0,0,1,.827-.944l2.186-.737a2.639,2.639,0,0,1,1.007.955A4.67,4.67,0,0,1,2703.633-663.314Z" transform="translate(-2695.592 665.431)" fill="#2d3d45"/>
            </g>
          </g>
          <g id="Group_21689" data-name="Group 21689" transform="translate(10.448 42.734)">
            <g id="Group_21688" data-name="Group 21688">
              <path id="Path_35251" data-name="Path 35251" d="M2659.533-723.22a32.205,32.205,0,0,1,.593-3.9c.971-4.516,3.447-16,3.447-16l18.189,1.453-1.6,16.953,5.131,24.757-2.753,1.065-8.577-24.807c-.018-.066-2.33-9.827-2.33-9.827l-5.563,9.776-5.7,26.32-3.132-.231Z" transform="translate(-2657.236 743.128)" fill="#2d3d45"/>
            </g>
          </g>
          <g id="Group_21710" data-name="Group 21710" transform="translate(22.997 45.784)">
            <g id="Group_21692" data-name="Group 21692" transform="translate(5.093)">
              <g id="Group_21691" data-name="Group 21691">
                <g id="Group_21690" data-name="Group 21690">
                  <path id="Path_35252" data-name="Path 35252" d="M2696.394-729.125h-6.464a.941.941,0,0,1-.939-.939v-3.4a4.176,4.176,0,0,1,4.171-4.172,4.176,4.176,0,0,1,4.171,4.172v3.4A.94.94,0,0,1,2696.394-729.125Zm-6.239-1.164h6.015v-3.177a3.011,3.011,0,0,0-3.007-3.008,3.011,3.011,0,0,0-3.007,3.008Z" transform="translate(-2688.991 737.637)" fill="#265b7f"/>
                </g>
              </g>
            </g>
            <g id="Group_21694" data-name="Group 21694" transform="translate(0 4.389)">
              <g id="Group_21693" data-name="Group 21693">
                <rect id="Rectangle_13611" data-name="Rectangle 13611" width="18.528" height="12.708" rx="2.706" fill="#265b7f"/>
              </g>
            </g>
            <g id="Group_21697" data-name="Group 21697" transform="translate(0 5.481)">
              <g id="Group_21696" data-name="Group 21696">
                <g id="Group_21695" data-name="Group 21695">
                  <path id="Path_35253" data-name="Path 35253" d="M2696.962-721.888l-7.875-1.47-7.875,1.47a1.27,1.27,0,0,1-1.389-1.265v-4.619h18.527v4.619A1.27,1.27,0,0,1,2696.962-721.888Z" transform="translate(-2679.824 727.772)" fill="#214157"/>
                </g>
              </g>
            </g>
            <g id="Group_21699" data-name="Group 21699" transform="translate(0 4.389)">
              <g id="Group_21698" data-name="Group 21698">
                <path id="Path_35254" data-name="Path 35254" d="M2679.824-729.736v4.618a1.27,1.27,0,0,0,1.389,1.265l7.875-.742,7.875.742a1.27,1.27,0,0,0,1.389-1.265v-4.618Z" transform="translate(-2679.824 729.736)" fill="#265b7f"/>
              </g>
            </g>
            <g id="Group_21701" data-name="Group 21701" transform="translate(7.772 7.93)">
              <g id="Group_21700" data-name="Group 21700">
                <path id="Path_35255" data-name="Path 35255" d="M2693.814-723.363v2.654a.787.787,0,0,0,.787.786h1.411a.787.787,0,0,0,.786-.786v-2.654Z" transform="translate(-2693.814 723.363)" fill="#6ab82d"/>
              </g>
            </g>
            <g id="Group_21703" data-name="Group 21703" transform="translate(8.658 9.7)">
              <g id="Group_21702" data-name="Group 21702">
                <path id="Path_35256" data-name="Path 35256" d="M2696.014-720.176a.606.606,0,0,0-.606.606v1.649a.606.606,0,0,0,.606.606.606.606,0,0,0,.606-.606v-1.649A.606.606,0,0,0,2696.014-720.176Z" transform="translate(-2695.408 720.176)" fill="#6ab82d"/>
              </g>
            </g>
            <g id="Group_21706" data-name="Group 21706" transform="translate(4.159 3.529)">
              <g id="Group_21705" data-name="Group 21705">
                <g id="Group_21704" data-name="Group 21704">
                  <rect id="Rectangle_13612" data-name="Rectangle 13612" width="2.91" height="0.861" fill="#6ab82d"/>
                </g>
              </g>
            </g>
            <g id="Group_21709" data-name="Group 21709" transform="translate(11.398 3.529)">
              <g id="Group_21708" data-name="Group 21708">
                <g id="Group_21707" data-name="Group 21707">
                  <rect id="Rectangle_13613" data-name="Rectangle 13613" width="2.91" height="0.861" fill="#6ab82d"/>
                </g>
              </g>
            </g>
          </g>
          <g id="Group_21712" data-name="Group 21712" transform="translate(16.785 12.044)">
            <g id="Group_21711" data-name="Group 21711">
              <path id="Path_35257" data-name="Path 35257" d="M2686.83-766.228c-6.1,1.957-11.308,1.943-18.189-1.453l.266-18.443.04-2.371.015-.871.028-1.676c0-.235.016-.467.04-.695a7.414,7.414,0,0,1,4.605-6.1,7.032,7.032,0,0,1,.739-.253,7.383,7.383,0,0,1,2.734-.245q.375.036.74.1a8.933,8.933,0,0,1,1.532.416,9.1,9.1,0,0,1,5.648,6.207,9.118,9.118,0,0,1,.3,2.145l0,.229.016.871.023,1.1Z" transform="translate(-2668.642 798.37)" fill="#265b7f"/>
            </g>
          </g>
          <g id="Group_21715" data-name="Group 21715" transform="translate(16.633 12.745)">
            <g id="Group_21714" data-name="Group 21714">
              <g id="Group_21713" data-name="Group 21713">
                <path id="Path_35258" data-name="Path 35258" d="M2668.458-773.269h.15l.177-12.293,0-.122-.151.03v.09Zm12.373-23.231a9.092,9.092,0,0,1,4.076,5.45c.019.069.037.137.052.208l.148-.033c-.017-.071-.034-.142-.052-.213a9.243,9.243,0,0,0-4.145-5.542Zm4.648,10.938-.149.033,1.129,16.262h.153Zm-16.8-2.984h.153l0-.258.027-1.677c0-.234.017-.466.041-.695a7.407,7.407,0,0,1,3.931-5.789l-.05-.143a7.526,7.526,0,0,0-4.031,5.917c-.026.232-.04.471-.042.709Zm-.315,21.519.085.042a28.913,28.913,0,0,0,5.5,2.107,20.316,20.316,0,0,0,5.178.681,23.847,23.847,0,0,0,7.039-1.144l-.046-.143c-5.846,1.77-10.944,1.651-17.6-1.635l.044-3.053h-.15Z" transform="translate(-2668.369 797.108)" fill="#0181c0"/>
              </g>
            </g>
          </g>
          <g id="Group_21718" data-name="Group 21718" transform="translate(21.331 14.715)">
            <g id="Group_21717" data-name="Group 21717">
              <g id="Group_21716" data-name="Group 21716">
                <path id="Path_35259" data-name="Path 35259" d="M2679.962-793.33l-1.005-.232a75.7,75.7,0,0,0-2.024,21.906q.8,1.086,1.628,2.132.61-1.16,1.256-2.281A74.534,74.534,0,0,1,2679.962-793.33Z" transform="translate(-2676.825 793.562)" fill="#6ab82d"/>
              </g>
            </g>
          </g>
          <g id="Group_21733" data-name="Group 21733" transform="translate(18.554)">
            <g id="Group_21725" data-name="Group 21725" transform="translate(1.559 1.699)">
              <g id="Group_21720" data-name="Group 21720" transform="translate(1.959 6.23)">
                <g id="Group_21719" data-name="Group 21719">
                  <path id="Path_35260" data-name="Path 35260" d="M2678.16-805.436l.535,5.4a3.027,3.027,0,0,0,3.53-.342l-.534-5.4Z" transform="translate(-2678.16 805.778)" fill="#f4bcc7"/>
                </g>
              </g>
              <g id="Group_21722" data-name="Group 21722" transform="translate(1.959 6.23)">
                <g id="Group_21721" data-name="Group 21721">
                  <path id="Path_35261" data-name="Path 35261" d="M2678.16-805.436l.242,2.441a2.883,2.883,0,0,0,.808.1c.09,0,.179-.007.268-.016a3.186,3.186,0,0,0,2.356-1.424l-.143-1.448Z" transform="translate(-2678.16 805.778)" fill="#ea8096"/>
                </g>
              </g>
              <g id="Group_21724" data-name="Group 21724">
                <g id="Group_21723" data-name="Group 21723">
                  <path id="Path_35262" data-name="Path 35262" d="M2674.662-813.564l.434,3.155a2.528,2.528,0,0,0,2.542,2.178h0a2.807,2.807,0,0,0,2.6-1.819,21.323,21.323,0,0,0,.693-2.409,3.823,3.823,0,0,0-1.2-3.79,2.959,2.959,0,0,0-3.25-.461A2.952,2.952,0,0,0,2674.662-813.564Z" transform="translate(-2674.634 816.992)" fill="#f4bcc7"/>
                </g>
              </g>
            </g>
            <g id="Group_21730" data-name="Group 21730">
              <g id="Group_21727" data-name="Group 21727" transform="translate(1.426 2.933)">
                <g id="Group_21726" data-name="Group 21726">
                  <path id="Path_35263" data-name="Path 35263" d="M2675.083-814.316a5.922,5.922,0,0,0-.349,3.034,9.547,9.547,0,0,1-.263-3.489Z" transform="translate(-2674.395 814.771)" fill="#050f64"/>
                </g>
              </g>
              <g id="Group_21729" data-name="Group 21729">
                <g id="Group_21728" data-name="Group 21728">
                  <path id="Path_35264" data-name="Path 35264" d="M2680.825-813.9s1.592-2.638-.3-4.526c-2.036-2.033-3.3-1.751-4.657-1.318-1.713.548-2.62,1.191-3.291,1.078-.358-.061-.685-.346-.734-.142a2.542,2.542,0,0,0,.955,2.242c1.042.843,2.34.652,3.592-.068s1.86-.664,2.433.1c.608.811-.1,2.368-.1,2.368l.4.125S2680.578-814.967,2680.825-813.9Z" transform="translate(-2671.828 820.05)" fill="#050f64"/>
                </g>
              </g>
            </g>
            <g id="Group_21732" data-name="Group 21732" transform="translate(6.375 4.659)">
              <g id="Group_21731" data-name="Group 21731" transform="translate(0 0)">
                <ellipse id="Ellipse_815" data-name="Ellipse 815" cx="1.329" cy="1.178" rx="1.329" ry="1.178" transform="matrix(0.996, -0.089, 0.089, 0.996, 0, 0.238)" fill="#f4bcc7"/>
              </g>
            </g>
          </g>
          <g id="Group_21736" data-name="Group 21736" transform="translate(21.779 12.186)">
            <g id="Group_21735" data-name="Group 21735">
              <g id="Group_21734" data-name="Group 21734">
                <path id="Path_35265" data-name="Path 35265" d="M2683.377-797.7l-2.609,4.274-.952-2.035-2.018,1.746-.167-4a6.207,6.207,0,0,1,.7-.242l1.532,1.579,2.017-1.728A8.545,8.545,0,0,1,2683.377-797.7Z" transform="translate(-2677.632 798.114)" fill="#0181c0"/>
              </g>
            </g>
          </g>
          <g id="Group_21745" data-name="Group 21745" transform="translate(27.105 14.493)">
            <g id="Group_21739" data-name="Group 21739" transform="translate(3.949 30.442)">
              <g id="Group_21738" data-name="Group 21738">
                <g id="Group_21737" data-name="Group 21737">
                  <path id="Path_35266" data-name="Path 35266" d="M2694.4-737.471l.632-1.7,1.709.825-.909,1.561a.832.832,0,0,1-1.072.394A.832.832,0,0,1,2694.4-737.471Z" transform="translate(-2694.327 739.166)" fill="#f4bcc7"/>
                </g>
              </g>
            </g>
            <g id="Group_21741" data-name="Group 21741" transform="translate(0.101 0.111)">
              <g id="Group_21740" data-name="Group 21740">
                <path id="Path_35267" data-name="Path 35267" d="M2693.763-762.526l-2.027-.891a57.389,57.389,0,0,0,2.191-6.937,21.354,21.354,0,0,0,.511-3.419,14.873,14.873,0,0,0-.15-3.308,18.988,18.988,0,0,0-2.315-6.224c-.564-1-1.2-1.977-1.864-2.942l-.509-.721-.529-.714-.264-.357-.274-.353-.548-.706c-.027-.034-.053-.069-.078-.1a2.664,2.664,0,0,1-.439-1.009,2.963,2.963,0,0,1-.026-1.084,2.975,2.975,0,0,1,1.147-1.9l.006,0a2.814,2.814,0,0,1,2.216-.519,2.9,2.9,0,0,1,1.922,1.313l.5.833.25.417.242.424c.162.284.325.564.483.849l.467.864c.613,1.162,1.193,2.353,1.708,3.59a27.959,27.959,0,0,1,1.288,3.866,20.364,20.364,0,0,1,.6,4.112,18.783,18.783,0,0,1-.307,4.118,24.746,24.746,0,0,1-1.056,3.848c-.439,1.23-.945,2.41-1.479,3.562S2694.334-763.64,2693.763-762.526Z" transform="translate(-2687.401 793.762)" fill="#265b7f"/>
              </g>
            </g>
            <g id="Group_21744" data-name="Group 21744">
              <g id="Group_21743" data-name="Group 21743">
                <g id="Group_21742" data-name="Group 21742">
                  <path id="Path_35268" data-name="Path 35268" d="M2688.989-787.771l-.265-.356-.274-.353-.548-.706c-.026-.034-.053-.069-.078-.1a2.676,2.676,0,0,1-.44-1.009,3.458,3.458,0,0,1-.053-.37l-.112-.022a3.2,3.2,0,0,0,.057.414,2.771,2.771,0,0,0,.458,1.051c.025.037.053.073.08.108l.821,1.057.265.356.1.135.111-.036Zm1.556,2.2-.1.053c.478.719.9,1.393,1.268,2.042l.1-.039C2691.424-784.211,2691-784.9,2690.545-785.572Zm2.2-6.978a3.034,3.034,0,0,0-1.995-1.362,2.919,2.919,0,0,0-1.212.027,2.949,2.949,0,0,0-1.091.512l-.006.005a3.066,3.066,0,0,0-1.066,1.47l.11.02a2.976,2.976,0,0,1,1.022-1.4l.007,0a2.812,2.812,0,0,1,2.215-.519,2.9,2.9,0,0,1,1.922,1.313l.225.376.066-.1Zm4.953,10.877a27.962,27.962,0,0,0-1.293-3.881c-.469-1.126-1.029-2.3-1.713-3.6l-.468-.865v0l-.106.037.01.018.468.864c.612,1.162,1.192,2.352,1.708,3.59a27.893,27.893,0,0,1,1.287,3.866c.127.509.237,1.026.327,1.547l.111-.005Q2697.892-780.885,2697.7-781.673Zm.006,9.127a25.745,25.745,0,0,1-.876,2.977c-.439,1.23-.945,2.41-1.478,3.563q-.325.7-.662,1.389l.063.123c.252-.516.481-1,.7-1.466.617-1.333,1.087-2.468,1.482-3.572a25.875,25.875,0,0,0,.878-2.979Zm-3.858,2.1a21.362,21.362,0,0,0,.511-3.419,14.976,14.976,0,0,0-.15-3.308,15.209,15.209,0,0,0-.363-1.645l-.1.056a14.661,14.661,0,0,1,.353,1.607,14.892,14.892,0,0,1,.149,3.283,20.994,20.994,0,0,1-.509,3.4q-.107.473-.232.947l.1.063Q2693.733-769.951,2693.845-770.444Zm-.617,1.932c-.5,1.733-1.115,3.44-1.677,4.967l-.036.1,1.081.476c0-.042,0-.083,0-.123l-.937-.412c.61-1.657,1.2-3.315,1.678-4.968Z" transform="translate(-2687.219 793.962)" fill="#0181c0"/>
                </g>
              </g>
            </g>
          </g>
        </g>
      </g>
    </g>
    <g id="Group_23457" data-name="Group 23457" transform="translate(0 270)">
      <circle id="Ellipse_863" data-name="Ellipse 863" cx="30" cy="30" r="30" transform="translate(860 3111)" fill="#6ab82d"/>
      <path id="Path_35884" data-name="Path 35884" d="M-4.96.128a4.192,4.192,0,0,1-2.36-.68A4.559,4.559,0,0,1-8.944-2.528,7.342,7.342,0,0,1-9.536-5.6a7.342,7.342,0,0,1,.592-3.072A4.559,4.559,0,0,1-7.32-10.648a4.192,4.192,0,0,1,2.36-.68,4.164,4.164,0,0,1,2.344.68A4.559,4.559,0,0,1-.992-8.672,7.342,7.342,0,0,1-.4-5.6,7.342,7.342,0,0,1-.992-2.528,4.559,4.559,0,0,1-2.616-.552,4.164,4.164,0,0,1-4.96.128Zm0-1.424A2.537,2.537,0,0,0-2.808-2.4,5.368,5.368,0,0,0-2-5.6a5.368,5.368,0,0,0-.808-3.2A2.537,2.537,0,0,0-4.96-9.9,2.552,2.552,0,0,0-7.128-8.8a5.368,5.368,0,0,0-.808,3.2,5.368,5.368,0,0,0,.808,3.2A2.552,2.552,0,0,0-4.96-1.3Zm14.72-.1V0H1.712V-1.088l4.56-4.4a5.446,5.446,0,0,0,1.12-1.384A2.636,2.636,0,0,0,7.68-8.048a1.646,1.646,0,0,0-.616-1.368A2.792,2.792,0,0,0,5.3-9.9,3.511,3.511,0,0,0,2.432-8.688L1.344-9.632a4.367,4.367,0,0,1,1.72-1.248,6.066,6.066,0,0,1,2.376-.448,4.327,4.327,0,0,1,2.8.84,2.775,2.775,0,0,1,1.04,2.28,3.87,3.87,0,0,1-.384,1.7A6.78,6.78,0,0,1,7.44-4.688l-3.424,3.3Z" transform="translate(890 3147)" fill="#fff"/>
    </g>
  </g>
</svg>
