<svg xmlns="http://www.w3.org/2000/svg" width="195" height="190" viewBox="0 0 195 190">
  <g id="Group_23578" data-name="Group 23578" transform="translate(-1170 -3381)">
    <g id="Group_23455" data-name="Group 23455" transform="translate(0 270)">
      <circle id="Ellipse_867" data-name="Ellipse 867" cx="95" cy="95" r="95" transform="translate(1175 3111)" fill="#f1f8ea"/>
      <g id="Group_23438" data-name="Group 23438" transform="translate(1212 3169.07)">
        <g id="Group_21815" data-name="Group 21815" transform="translate(0)">
          <g id="Group_21749" data-name="Group 21749">
            <g id="Group_21748" data-name="Group 21748">
              <path id="Path_35269" data-name="Path 35269" d="M2313.792-839.388v59.2H2196.934v-59.2a4.549,4.549,0,0,1,4.549-4.549h107.76A4.55,4.55,0,0,1,2313.792-839.388Z" transform="translate(-2196.934 843.937)" fill="#2d3d45"/>
            </g>
          </g>
          <g id="Group_21751" data-name="Group 21751" transform="translate(7.496 7.496)">
            <g id="Group_21750" data-name="Group 21750">
              <rect id="Rectangle_13614" data-name="Rectangle 13614" width="101.865" height="56.251" fill="#fff"/>
            </g>
          </g>
          <g id="Group_21753" data-name="Group 21753" transform="translate(4.089 4.089)">
            <g id="Group_21752" data-name="Group 21752">
              <path id="Path_35270" data-name="Path 35270" d="M2205.617-835.254v55.569H2314.3v-55.569Z" transform="translate(-2205.617 835.254)" fill="#fff"/>
            </g>
          </g>
          <g id="Group_21810" data-name="Group 21810" transform="translate(10.595 8.824)">
            <g id="Group_21781" data-name="Group 21781" transform="translate(0 7.649)">
              <g id="Group_21756" data-name="Group 21756" transform="translate(0 13.071)">
                <g id="Group_21755" data-name="Group 21755">
                  <g id="Group_21754" data-name="Group 21754">
                    <rect id="Rectangle_13615" data-name="Rectangle 13615" width="4.371" height="25.379" fill="#e5e6eb"/>
                  </g>
                </g>
              </g>
              <g id="Group_21759" data-name="Group 21759" transform="translate(6.086 6.6)">
                <g id="Group_21758" data-name="Group 21758">
                  <g id="Group_21757" data-name="Group 21757">
                    <rect id="Rectangle_13616" data-name="Rectangle 13616" width="4.371" height="31.85" fill="#e5e6eb"/>
                  </g>
                </g>
              </g>
              <g id="Group_21762" data-name="Group 21762" transform="translate(12.173 2.596)">
                <g id="Group_21761" data-name="Group 21761">
                  <g id="Group_21760" data-name="Group 21760">
                    <rect id="Rectangle_13617" data-name="Rectangle 13617" width="4.371" height="35.854" fill="#e5e6eb"/>
                  </g>
                </g>
              </g>
              <g id="Group_21765" data-name="Group 21765" transform="translate(18.259 11.473)">
                <g id="Group_21764" data-name="Group 21764">
                  <g id="Group_21763" data-name="Group 21763">
                    <rect id="Rectangle_13618" data-name="Rectangle 13618" width="4.371" height="26.976" fill="#e5e6eb"/>
                  </g>
                </g>
              </g>
              <g id="Group_21768" data-name="Group 21768" transform="translate(24.346 28.82)">
                <g id="Group_21767" data-name="Group 21767">
                  <g id="Group_21766" data-name="Group 21766">
                    <rect id="Rectangle_13619" data-name="Rectangle 13619" width="4.371" height="9.629" fill="#e5e6eb"/>
                  </g>
                </g>
              </g>
              <g id="Group_21771" data-name="Group 21771" transform="translate(30.432 5.225)">
                <g id="Group_21770" data-name="Group 21770">
                  <g id="Group_21769" data-name="Group 21769">
                    <rect id="Rectangle_13620" data-name="Rectangle 13620" width="4.371" height="33.224" fill="#e5e6eb"/>
                  </g>
                </g>
              </g>
              <g id="Group_21774" data-name="Group 21774" transform="translate(36.519)">
                <g id="Group_21773" data-name="Group 21773">
                  <g id="Group_21772" data-name="Group 21772">
                    <rect id="Rectangle_13621" data-name="Rectangle 13621" width="4.371" height="38.449" fill="#e5e6eb"/>
                  </g>
                </g>
              </g>
              <g id="Group_21777" data-name="Group 21777" transform="translate(42.605 24.313)">
                <g id="Group_21776" data-name="Group 21776">
                  <g id="Group_21775" data-name="Group 21775">
                    <rect id="Rectangle_13622" data-name="Rectangle 13622" width="4.371" height="14.137" fill="#e5e6eb"/>
                  </g>
                </g>
              </g>
              <g id="Group_21780" data-name="Group 21780" transform="translate(48.691 13.135)">
                <g id="Group_21779" data-name="Group 21779">
                  <g id="Group_21778" data-name="Group 21778">
                    <rect id="Rectangle_13623" data-name="Rectangle 13623" width="4.371" height="25.314" fill="#e5e6eb"/>
                  </g>
                </g>
              </g>
            </g>
            <g id="Group_21809" data-name="Group 21809" transform="translate(42.605)">
              <g id="Group_21784" data-name="Group 21784" transform="translate(0 24.586)">
                <g id="Group_21783" data-name="Group 21783">
                  <g id="Group_21782" data-name="Group 21782">
                    <rect id="Rectangle_13624" data-name="Rectangle 13624" width="4.371" height="21.513" fill="#e5e6eb"/>
                  </g>
                </g>
              </g>
              <g id="Group_21787" data-name="Group 21787" transform="translate(6.086)">
                <g id="Group_21786" data-name="Group 21786">
                  <g id="Group_21785" data-name="Group 21785">
                    <rect id="Rectangle_13625" data-name="Rectangle 13625" width="4.371" height="46.098" fill="#e5e6eb"/>
                  </g>
                </g>
              </g>
              <g id="Group_21790" data-name="Group 21790" transform="translate(12.173 12.874)">
                <g id="Group_21789" data-name="Group 21789">
                  <g id="Group_21788" data-name="Group 21788">
                    <rect id="Rectangle_13626" data-name="Rectangle 13626" width="4.371" height="33.224" fill="#e5e6eb"/>
                  </g>
                </g>
              </g>
              <g id="Group_21793" data-name="Group 21793" transform="translate(18.259 19.122)">
                <g id="Group_21792" data-name="Group 21792">
                  <g id="Group_21791" data-name="Group 21791">
                    <rect id="Rectangle_13627" data-name="Rectangle 13627" width="4.371" height="26.976" fill="#e5e6eb"/>
                  </g>
                </g>
              </g>
              <g id="Group_21796" data-name="Group 21796" transform="translate(24.346 26.797)">
                <g id="Group_21795" data-name="Group 21795">
                  <g id="Group_21794" data-name="Group 21794">
                    <rect id="Rectangle_13628" data-name="Rectangle 13628" width="4.371" height="19.301" fill="#e5e6eb"/>
                  </g>
                </g>
              </g>
              <g id="Group_21799" data-name="Group 21799" transform="translate(30.432 12.874)">
                <g id="Group_21798" data-name="Group 21798">
                  <g id="Group_21797" data-name="Group 21797">
                    <rect id="Rectangle_13629" data-name="Rectangle 13629" width="4.371" height="33.224" fill="#e5e6eb"/>
                  </g>
                </g>
              </g>
              <g id="Group_21802" data-name="Group 21802" transform="translate(36.519 3.715)">
                <g id="Group_21801" data-name="Group 21801">
                  <g id="Group_21800" data-name="Group 21800">
                    <rect id="Rectangle_13630" data-name="Rectangle 13630" width="4.371" height="42.384" fill="#e5e6eb"/>
                  </g>
                </g>
              </g>
              <g id="Group_21805" data-name="Group 21805" transform="translate(42.605 23.049)">
                <g id="Group_21804" data-name="Group 21804">
                  <g id="Group_21803" data-name="Group 21803">
                    <rect id="Rectangle_13631" data-name="Rectangle 13631" width="4.371" height="23.049" fill="#e5e6eb"/>
                  </g>
                </g>
              </g>
              <g id="Group_21808" data-name="Group 21808" transform="translate(48.691 34.574)">
                <g id="Group_21807" data-name="Group 21807">
                  <g id="Group_21806" data-name="Group 21806">
                    <rect id="Rectangle_13632" data-name="Rectangle 13632" width="4.371" height="11.525" fill="#e5e6eb"/>
                  </g>
                </g>
              </g>
            </g>
          </g>
          <g id="Group_21812" data-name="Group 21812" transform="translate(32.259 79.423)">
            <g id="Group_21811" data-name="Group 21811">
              <path id="Path_35271" data-name="Path 35271" d="M2317.78-662.409l-5.989-6.945h0v-5.917h-40.363v5.917l-5.989,6.944Z" transform="translate(-2265.439 675.271)" fill="#e5e6eb"/>
            </g>
          </g>
          <g id="Group_21814" data-name="Group 21814" transform="translate(32.259 79.423)" opacity="0.1">
            <g id="Group_21813" data-name="Group 21813">
              <path id="Path_35272" data-name="Path 35272" d="M2317.78-662.409l-5.989-6.945h0v-5.917h-40.363v5.917l-5.989,6.944Z" transform="translate(-2265.439 675.271)" fill="#050f64"/>
            </g>
          </g>
        </g>
        <g id="Group_21817" data-name="Group 21817" transform="translate(0 63.747)">
          <g id="Group_21816" data-name="Group 21816">
            <path id="Path_35273" data-name="Path 35273" d="M2313.792-708.562v11.128a4.549,4.549,0,0,1-4.549,4.549h-107.76a4.549,4.549,0,0,1-4.549-4.549v-11.128Z" transform="translate(-2196.934 708.562)" fill="#e5e6eb"/>
          </g>
        </g>
        <g id="Group_21819" data-name="Group 21819" transform="translate(0 59.658)">
          <g id="Group_21818" data-name="Group 21818">
            <rect id="Rectangle_13633" data-name="Rectangle 13633" width="4.089" height="116.858" transform="translate(116.858 0) rotate(90)" fill="#2d3d45"/>
          </g>
        </g>
        <g id="Group_21821" data-name="Group 21821" transform="translate(55.075 68.231)">
          <g id="Group_21820" data-name="Group 21820">
            <ellipse id="Ellipse_816" data-name="Ellipse 816" cx="3.354" cy="3.354" rx="3.354" ry="3.354" fill="#050f64"/>
          </g>
        </g>
      </g>
      <g id="Group_23440" data-name="Group 23440" transform="translate(1238 3161.773)">
        <g id="Group_22162" data-name="Group 22162" transform="translate(0 18.479)">
          <g id="Group_22157" data-name="Group 22157">
            <g id="Group_22156" data-name="Group 22156">
              <g id="Group_22155" data-name="Group 22155">
                <g id="Group_22154" data-name="Group 22154">
                  <path id="Path_35328" data-name="Path 35328" d="M2249.4-609.617a4.529,4.529,0,0,1-4.528,4.528,4.516,4.516,0,0,1-1.408-.224l-.006,0v5.263c0,.03,0,.061,0,.091a1.385,1.385,0,0,1-1.383,1.3h-5.261a4.5,4.5,0,0,0,.224-1.408,4.528,4.528,0,0,0-4.528-4.528,4.528,4.528,0,0,0-4.529,4.528,4.5,4.5,0,0,0,.224,1.408h-5.262a1.386,1.386,0,0,1-1.386-1.386v-19.131a1.386,1.386,0,0,1,1.386-1.386h19.132a1.386,1.386,0,0,1,1.383,1.3c0,.03,0,.06,0,.091v5.264l.006,0a4.516,4.516,0,0,1,1.408-.224A4.528,4.528,0,0,1,2249.4-609.617Z" transform="translate(-2221.558 620.569)" fill="#0181c0"/>
                </g>
              </g>
            </g>
          </g>
          <g id="Group_22161" data-name="Group 22161" transform="translate(0 15.968)">
            <g id="Group_22160" data-name="Group 22160">
              <g id="Group_22159" data-name="Group 22159">
                <g id="Group_22158" data-name="Group 22158">
                  <path id="Path_35329" data-name="Path 35329" d="M2243.455-547.354c0,.03,0,.06,0,.091a1.385,1.385,0,0,1-1.383,1.3h-19.132a1.386,1.386,0,0,1-1.386-1.386v-19.131a1.386,1.386,0,0,1,1.386-1.386h5.262a4.5,4.5,0,0,1-.224-1.408,4.528,4.528,0,0,1,4.529-4.528,4.528,4.528,0,0,1,4.528,4.528,4.5,4.5,0,0,1-.224,1.408h5.261a1.386,1.386,0,0,1,1.383,1.3c0,.03,0,.06,0,.091v5.261a4.517,4.517,0,0,0-1.408-.224,4.528,4.528,0,0,0-4.528,4.528,4.528,4.528,0,0,0,4.528,4.528,4.515,4.515,0,0,0,1.408-.224Z" transform="translate(-2221.558 573.808)" fill="#6ab82d"/>
                </g>
              </g>
            </g>
          </g>
        </g>
        <g id="Group_23437" data-name="Group 23437" transform="translate(21.559 0)">
          <g id="Group_22116" data-name="Group 22116">
            <g id="Group_22115" data-name="Group 22115">
              <g id="Group_22114" data-name="Group 22114">
                <g id="Group_22412" data-name="Group 22412">
                  <path id="Path_35317" data-name="Path 35317" d="M2281.934-691.673l10.756,15.821a1.386,1.386,0,0,1-.367,1.926l-4.351,2.958a4.512,4.512,0,0,1,.976,1.038,4.528,4.528,0,0,1-1.2,6.291,4.528,4.528,0,0,1-6.29-1.2,4.527,4.527,0,0,1-.607-1.29l-4.351,2.958a1.386,1.386,0,0,1-1.872-.294c-.015-.026-.031-.052-.048-.077l-2.958-4.351a4.517,4.517,0,0,0,1.29-.606,4.528,4.528,0,0,0,1.2-6.291,4.528,4.528,0,0,0-6.29-1.2,4.513,4.513,0,0,0-1.039.977l-2.958-4.352c-.017-.025-.034-.049-.053-.073a1.385,1.385,0,0,1,.415-1.849l15.821-10.756A1.386,1.386,0,0,1,2281.934-691.673Z" transform="translate(-2263.581 692.28)" fill="#d0d63f"/>
                </g>
              </g>
            </g>
          </g>
        </g>
        <g id="Group_23439" data-name="Group 23439" transform="translate(35.204 28.984)">
          <g id="Group_22285" data-name="Group 22285">
            <g id="Group_22284" data-name="Group 22284">
              <g id="Group_22283" data-name="Group 22283">
                <path id="Path_35365" data-name="Path 35365" d="M2315.833-607.188l16.2,10.171a1.386,1.386,0,0,1,.438,1.911L2322.3-578.9a1.386,1.386,0,0,1-1.833.482c-.025-.018-.049-.035-.076-.051l-4.458-2.8a.029.029,0,0,1,0,.006,4.513,4.513,0,0,1-.559,1.311,4.528,4.528,0,0,1-6.243,1.428,4.527,4.527,0,0,1-1.428-6.242,4.5,4.5,0,0,1,.938-1.074l0,0-4.458-2.8c-.026-.016-.052-.031-.078-.045a1.385,1.385,0,0,1-.362-1.86l2.8-4.456a4.518,4.518,0,0,0,1.074.938,4.528,4.528,0,0,0,6.242-1.428,4.528,4.528,0,0,0-1.428-6.242,4.516,4.516,0,0,0-1.312-.559l2.8-4.456A1.386,1.386,0,0,1,2315.833-607.188Z" transform="translate(-2303.538 607.401)" fill="#265b7f"/>
              </g>
            </g>
          </g>
        </g>
      </g>
      <g id="Group_23441" data-name="Group 23441" transform="translate(1302.351 3151.605)">
        <g id="Group_22001" data-name="Group 22001">
          <g id="Group_22000" data-name="Group 22000">
            <g id="Group_21999" data-name="Group 21999">
              <circle id="Ellipse_825" data-name="Ellipse 825" cx="22.197" cy="22.197" r="22.197" fill="#6ab82d"/>
            </g>
          </g>
        </g>
        <g id="Group_22004" data-name="Group 22004" transform="translate(4.072 4.072)">
          <g id="Group_22003" data-name="Group 22003">
            <g id="Group_22002" data-name="Group 22002">
              <circle id="Ellipse_826" data-name="Ellipse 826" cx="18.126" cy="18.126" r="18.126" fill="#fff"/>
            </g>
          </g>
        </g>
        <g id="Group_22007" data-name="Group 22007" transform="translate(21.847 5.079)">
          <g id="Group_22006" data-name="Group 22006">
            <g id="Group_22005" data-name="Group 22005">
              <rect id="Rectangle_13675" data-name="Rectangle 13675" width="0.701" height="2.89" fill="#050f64"/>
            </g>
          </g>
        </g>
        <g id="Group_22010" data-name="Group 22010" transform="translate(21.711 7.288)">
          <g id="Group_22009" data-name="Group 22009">
            <g id="Group_22008" data-name="Group 22008">
              <path id="Path_35300" data-name="Path 35300" d="M2307.347-836.205l-4.266,11.655-.568,1.554a1.243,1.243,0,0,0-1.107-.681,1.249,1.249,0,0,0-.486.1l.569-1.556,4.266-11.656a.85.85,0,0,1,1.089-.505A.848.848,0,0,1,2307.347-836.205Z" transform="translate(-2300.919 837.346)" fill="#265b7f"/>
            </g>
          </g>
        </g>
        <g id="Group_22013" data-name="Group 22013" transform="translate(22.467 22.007)">
          <g id="Group_22012" data-name="Group 22012">
            <g id="Group_22011" data-name="Group 22011">
              <path id="Path_35301" data-name="Path 35301" d="M2312.761-808.207a.849.849,0,0,1-.7.37.835.835,0,0,1-.476-.148l-8.2-5.593-1.367-.935a1.239,1.239,0,0,0,.972-1.209,1.167,1.167,0,0,0-.015-.191l1.368.933,8.193,5.593A.849.849,0,0,1,2312.761-808.207Z" transform="translate(-2302.019 815.913)" fill="#6ab82d"/>
            </g>
          </g>
        </g>
        <g id="Group_22017" data-name="Group 22017" transform="translate(19.498 19.498)">
          <g id="Group_22016" data-name="Group 22016">
            <g id="Group_22015" data-name="Group 22015">
              <g id="Group_22014" data-name="Group 22014">
                <path id="Path_35302" data-name="Path 35302" d="M2302.071-818.981a2.683,2.683,0,0,0-1.593-.583c-.028,0-.056,0-.083,0a2.7,2.7,0,0,0-2.7,2.7,2.7,2.7,0,0,0,2.7,2.7,2.694,2.694,0,0,0,1.636-.554,2.7,2.7,0,0,0,.958-1.4,2.622,2.622,0,0,0,.105-.742A2.694,2.694,0,0,0,2302.071-818.981Zm-1.406,3.323a1.121,1.121,0,0,1-.269.031,1.241,1.241,0,0,1-1.241-1.24,1.243,1.243,0,0,1,.755-1.142,1.249,1.249,0,0,1,.486-.1,1.243,1.243,0,0,1,1.107.681,1.193,1.193,0,0,1,.119.369,1.167,1.167,0,0,1,.015.191A1.239,1.239,0,0,1,2300.665-815.658Z" transform="translate(-2297.696 819.566)" fill="#6ab82d"/>
              </g>
            </g>
          </g>
        </g>
        <g id="Group_22020" data-name="Group 22020" transform="translate(5.079 21.847)">
          <g id="Group_22019" data-name="Group 22019" transform="translate(0 0)">
            <g id="Group_22018" data-name="Group 22018">
              <rect id="Rectangle_13676" data-name="Rectangle 13676" width="0.701" height="2.89" transform="translate(0 0.701) rotate(-90)" fill="#050f64"/>
            </g>
          </g>
        </g>
        <g id="Group_22023" data-name="Group 22023" transform="translate(21.847 36.426)">
          <g id="Group_22022" data-name="Group 22022" transform="translate(0 0)">
            <g id="Group_22021" data-name="Group 22021">
              <rect id="Rectangle_13677" data-name="Rectangle 13677" width="0.701" height="2.89" transform="translate(0.701 2.89) rotate(180)" fill="#050f64"/>
            </g>
          </g>
        </g>
        <g id="Group_22026" data-name="Group 22026" transform="translate(36.426 21.847)">
          <g id="Group_22025" data-name="Group 22025" transform="translate(0)">
            <g id="Group_22024" data-name="Group 22024">
              <rect id="Rectangle_13678" data-name="Rectangle 13678" width="0.701" height="2.89" transform="translate(2.89 0) rotate(90)" fill="#050f64"/>
            </g>
          </g>
        </g>
      </g>
    </g>
    <g id="Group_23458" data-name="Group 23458" transform="translate(0 270)">
      <circle id="Ellipse_864" data-name="Ellipse 864" cx="30" cy="30" r="30" transform="translate(1170 3111)" fill="#6ab82d"/>
      <path id="Path_35883" data-name="Path 35883" d="M-4.888.128a4.192,4.192,0,0,1-2.36-.68A4.559,4.559,0,0,1-8.872-2.528,7.342,7.342,0,0,1-9.464-5.6a7.342,7.342,0,0,1,.592-3.072,4.559,4.559,0,0,1,1.624-1.976,4.192,4.192,0,0,1,2.36-.68,4.164,4.164,0,0,1,2.344.68A4.559,4.559,0,0,1-.92-8.672,7.342,7.342,0,0,1-.328-5.6,7.342,7.342,0,0,1-.92-2.528,4.559,4.559,0,0,1-2.544-.552,4.164,4.164,0,0,1-4.888.128Zm0-1.424A2.537,2.537,0,0,0-2.736-2.4a5.368,5.368,0,0,0,.808-3.2,5.368,5.368,0,0,0-.808-3.2A2.537,2.537,0,0,0-4.888-9.9,2.552,2.552,0,0,0-7.056-8.8a5.368,5.368,0,0,0-.808,3.2,5.368,5.368,0,0,0,.808,3.2A2.552,2.552,0,0,0-4.888-1.3ZM6.136-6.5A4,4,0,0,1,8.648-5.48,2.943,2.943,0,0,1,9.512-3.3a3.233,3.233,0,0,1-.48,1.736A3.306,3.306,0,0,1,7.6-.328,5.36,5.36,0,0,1,5.272.128a7.384,7.384,0,0,1-2.3-.36,4.908,4.908,0,0,1-1.808-1L1.9-2.5a4.228,4.228,0,0,0,1.472.872,5.5,5.5,0,0,0,1.9.328,3.155,3.155,0,0,0,1.944-.528,1.726,1.726,0,0,0,.7-1.456,1.691,1.691,0,0,0-.688-1.44,3.475,3.475,0,0,0-2.08-.512h-.9v-1.12L7.064-9.808H1.672V-11.2H9.064v1.088Z" transform="translate(1200 3147)" fill="#fff"/>
    </g>
  </g>
</svg>
