<svg xmlns="http://www.w3.org/2000/svg" width="162.189" height="100" viewBox="0 0 162.189 100">
  <g id="Group_21553" data-name="Group 21553" transform="translate(-319.311 -3055)">
    <g id="Group_23579" data-name="Group 23579">
      <path id="Path_16751" data-name="Path 16751" d="M256.542,314.319c-10.765,0-19.4-3.3-25.671-9.8h0c-6.27-6.5-9.445-15.567-9.445-26.957a77.987,77.987,0,0,1,6.4-31.771,56.462,56.462,0,0,1,17.865-22.963,43.01,43.01,0,0,1,26.149-8.512c10.765,0,19.4,3.3,25.671,9.8s9.433,15.578,9.433,26.957a78.058,78.058,0,0,1-6.384,31.771,56.389,56.389,0,0,1-17.865,22.963A43.011,43.011,0,0,1,256.542,314.319Zm15.294-98.862a41.866,41.866,0,0,0-25.467,8.284,55.271,55.271,0,0,0-17.5,22.508,76.761,76.761,0,0,0-6.315,31.316c0,11.083,3.072,19.891,9.137,26.161h0c6.054,6.281,14.406,9.456,24.852,9.456a41.868,41.868,0,0,0,25.467-8.284,55.366,55.366,0,0,0,17.5-22.508,76.861,76.861,0,0,0,6.3-31.316c0-11.072-3.072-19.879-9.126-26.161S282.27,215.457,271.836,215.457Zm-13.245,80.155c-4.711,0-8.409-1.559-11.015-4.643-2.583-3.038-3.892-7.738-3.892-13.951a69.692,69.692,0,0,1,3.027-19.754,46.657,46.657,0,0,1,8.921-17.206c3.96-4.665,8.728-7.032,14.156-7.032,4.7,0,8.409,1.57,11.015,4.643,2.583,3.05,3.892,7.749,3.892,13.951a70.351,70.351,0,0,1-3.027,19.754,46.72,46.72,0,0,1-8.921,17.205h0C268.775,293.245,264.018,295.612,258.591,295.612Zm11.2-61.447c-5.086,0-9.559,2.23-13.291,6.634a45.577,45.577,0,0,0-8.694,16.784,68.77,68.77,0,0,0-2.993,19.436c0,5.94,1.229,10.389,3.63,13.223s5.735,4.233,10.15,4.233c5.075,0,9.547-2.23,13.291-6.623l.432.364-.432-.364a45.882,45.882,0,0,0,8.693-16.8,68.914,68.914,0,0,0,2.982-19.436c0-5.928-1.218-10.378-3.619-13.211C277.56,235.587,274.146,234.164,269.788,234.164Zm73.794,78.516H320.3l.136-.683,15.419-77.151H316.749l.137-.683,3.641-18.207h42.4l-.136.683Zm-21.894-1.138h20.96l18.89-94.447H321.46l-3.323,16.614h19.105l-.137.683Z" transform="translate(118.574 2840.681)" fill="#5fa826"/>
      <rect id="Rectangle_13550" data-name="Rectangle 13550" width="53" height="32" transform="translate(320 3089)" fill="#f4f4f4"/>
    </g>
    <path id="Path_35219" data-name="Path 35219" d="M-23.87-.04q-4.436,0-6.6-2.791l2.51-2.121A6.837,6.837,0,0,0-26.034-3.47a5.108,5.108,0,0,0,2.315.509,2.947,2.947,0,0,0,1.666-.433A1.321,1.321,0,0,0-21.4-4.541a1.079,1.079,0,0,0-.119-.509,1.466,1.466,0,0,0-.411-.454,4.816,4.816,0,0,0-.79-.476q-.5-.249-1.255-.552-.736-.3-1.406-.66a5.522,5.522,0,0,1-1.19-.844A3.754,3.754,0,0,1-27.4-9.15a3.35,3.35,0,0,1-.3-1.471,4.394,4.394,0,0,1,.487-2.088A4.9,4.9,0,0,1-25.9-14.278a5.964,5.964,0,0,1,1.915-1,7.585,7.585,0,0,1,2.3-.346,8.188,8.188,0,0,1,3.332.606,7.134,7.134,0,0,1,2.337,1.645l-2.294,2.294a7.31,7.31,0,0,0-1.7-1.212,4.325,4.325,0,0,0-1.937-.411,2.454,2.454,0,0,0-1.634.487,1.384,1.384,0,0,0-.573,1.049,1.05,1.05,0,0,0,.13.53,1.116,1.116,0,0,0,.433.444,4.069,4.069,0,0,0,.811.454q.508.238,1.287.563a14.073,14.073,0,0,1,1.439.692,5.363,5.363,0,0,1,1.147.844,3.573,3.573,0,0,1,.768,1.1,3.513,3.513,0,0,1,.281,1.45,4.489,4.489,0,0,1-.5,2.131,4.95,4.95,0,0,1-1.32,1.59,5.8,5.8,0,0,1-1.915.985A7.736,7.736,0,0,1-23.87-.04ZM-8.723-12.331h-4.609l.822-3.073H.04l-.822,3.073H-5.391L-8.637-.257h-3.332ZM3.416-15.4H14.733l-.8,2.964H5.926L5.1-9.345h7.033l-.8,2.921H4.3l-.866,3.2h8.136l-.8,2.964H-.652Zm19.02,7.638a4.63,4.63,0,0,0,2.683-.7,2.289,2.289,0,0,0,1.017-2,1.7,1.7,0,0,0-.5-1.255,2.1,2.1,0,0,0-.833-.509,4,4,0,0,0-1.244-.162H21.4L20.164-7.765ZM18.887-15.4h4.8a9.506,9.506,0,0,1,2.781.357,4.719,4.719,0,0,1,1.98,1.179,4.211,4.211,0,0,1,1.168,3.116,5.364,5.364,0,0,1-.573,2.51A5.547,5.547,0,0,1,27.489-6.38a6.949,6.949,0,0,1-2.326,1.147,10.36,10.36,0,0,1-2.9.389H19.385L18.152-.257H14.819Z" transform="translate(350.47 3112.62)" fill="#5fa826" stroke="rgba(0,0,0,0)" stroke-width="1"/>
  </g>
</svg>
