<svg xmlns="http://www.w3.org/2000/svg" width="182.527" height="101.227" viewBox="0 0 182.527 101.227">
  <g id="Group_23580" data-name="Group 23580" transform="translate(-319.311 -6215.5)">
    <g id="Group_21557" data-name="Group 21557" transform="translate(105.753 5989.42)">
      <path id="Union_3" data-name="Union 3" d="M9.467,90.394C3.183,83.894,0,74.8,0,63.388a78.124,78.124,0,0,1,6.41-31.843A56.513,56.513,0,0,1,24.316,8.53,43.109,43.109,0,0,1,50.524,0c10.789,0,19.435,3.308,25.73,9.82,6.272,6.512,9.454,15.613,9.454,27.018a78.272,78.272,0,0,1-6.4,31.843A56.614,56.614,0,0,1,61.394,91.695a43.1,43.1,0,0,1-26.2,8.531C24.407,100.226,15.751,96.918,9.467,90.394ZM24.989,9.443A55.593,55.593,0,0,0,7.448,32,77.111,77.111,0,0,0,1.13,63.388c0,11.108,3.08,19.924,9.158,26.22S24.727,99.085,35.2,99.085a41.982,41.982,0,0,0,25.524-8.3A55.494,55.494,0,0,0,78.261,68.224a77.073,77.073,0,0,0,6.318-31.387c0-11.109-3.079-19.924-9.158-26.231-6.056-6.284-14.439-9.466-24.9-9.466A42.015,42.015,0,0,0,24.989,9.443ZM97.558,97.329a43.27,43.27,0,0,1-15.534-8.338l-.376-.319,11.3-17.245.5.422a34.831,34.831,0,0,0,11.371,6.33,43.578,43.578,0,0,0,14.119,2.292c6.432,0,11.427-1.186,14.872-3.535a10.974,10.974,0,0,0,5.1-9.717c0-3.3-1.2-5.656-3.65-7.253-2.5-1.62-6.376-2.441-11.531-2.441H112.92l3.046-15.5.125-.137,22.764-21.316H99.086l3.935-18.932h68.213l-2.909,15.225-.125.126L142.14,41.331c6.261,1.619,11.211,4.494,14.735,8.542a23.574,23.574,0,0,1,5.612,15.979,29.156,29.156,0,0,1-5.793,17.723,38.5,38.5,0,0,1-16.025,12.215,58.2,58.2,0,0,1-23.232,4.436A66.687,66.687,0,0,1,97.558,97.329Zm-14.4-8.873a42.435,42.435,0,0,0,14.758,7.778,65.053,65.053,0,0,0,19.525,2.851,57.169,57.169,0,0,0,22.776-4.334A37.436,37.436,0,0,0,155.78,82.89a28.019,28.019,0,0,0,5.577-17.039,22.5,22.5,0,0,0-5.338-15.226c-3.559-4.094-8.668-6.934-15.169-8.439l-1.038-.251,27.474-25.649,2.566-13.5H103.945L100.49,19.433h41.251L117,42.6l-2.7,13.789h9.431c5.384,0,9.466.878,12.158,2.623a9.146,9.146,0,0,1,4.152,8.212,12.205,12.205,0,0,1-5.577,10.664c-3.638,2.475-8.862,3.729-15.522,3.729a44.2,44.2,0,0,1-14.484-2.36A36.316,36.316,0,0,1,93.2,73.128ZM26.2,76.822c-2.589-3.056-3.889-7.754-3.889-13.982a69.88,69.88,0,0,1,3.033-19.8A46.828,46.828,0,0,1,34.273,25.8c3.98-4.676,8.759-7.048,14.2-7.048,4.711,0,8.429,1.562,11.04,4.653,2.589,3.057,3.9,7.767,3.9,13.982a70.517,70.517,0,0,1-3.034,19.8,46.913,46.913,0,0,1-8.941,17.244c-3.98,4.676-8.747,7.049-14.188,7.049C32.528,81.476,28.81,79.9,26.2,76.822ZM35.15,26.528a45.854,45.854,0,0,0-8.725,16.834A69.308,69.308,0,0,0,23.438,62.84c0,5.943,1.232,10.4,3.639,13.242,2.417,2.863,5.747,4.253,10.173,4.253,5.087,0,9.569-2.235,13.321-6.637l.434.365L50.57,73.7a46.037,46.037,0,0,0,8.714-16.844,69,69,0,0,0,2.988-19.469c0-5.942-1.22-10.4-3.627-13.252-2.384-2.818-5.817-4.243-10.174-4.243C43.374,19.89,38.892,22.125,35.15,26.528Z" transform="translate(224.246 226.581)" fill="#5fa826" stroke="rgba(0,0,0,0)" stroke-miterlimit="10" stroke-width="1"/>
    </g>
    <rect id="Rectangle_13552" data-name="Rectangle 13552" width="53" height="32" transform="translate(320 6250)" fill="#f4f4f4"/>
    <path id="Path_35221" data-name="Path 35221" d="M-23.87-.04q-4.436,0-6.6-2.791l2.51-2.121A6.837,6.837,0,0,0-26.034-3.47a5.108,5.108,0,0,0,2.315.509,2.947,2.947,0,0,0,1.666-.433A1.321,1.321,0,0,0-21.4-4.541a1.079,1.079,0,0,0-.119-.509,1.466,1.466,0,0,0-.411-.454,4.816,4.816,0,0,0-.79-.476q-.5-.249-1.255-.552-.736-.3-1.406-.66a5.522,5.522,0,0,1-1.19-.844A3.754,3.754,0,0,1-27.4-9.15a3.35,3.35,0,0,1-.3-1.471,4.394,4.394,0,0,1,.487-2.088A4.9,4.9,0,0,1-25.9-14.278a5.964,5.964,0,0,1,1.915-1,7.585,7.585,0,0,1,2.3-.346,8.188,8.188,0,0,1,3.332.606,7.134,7.134,0,0,1,2.337,1.645l-2.294,2.294a7.31,7.31,0,0,0-1.7-1.212,4.325,4.325,0,0,0-1.937-.411,2.454,2.454,0,0,0-1.634.487,1.384,1.384,0,0,0-.573,1.049,1.05,1.05,0,0,0,.13.53,1.116,1.116,0,0,0,.433.444,4.069,4.069,0,0,0,.811.454q.508.238,1.287.563a14.073,14.073,0,0,1,1.439.692,5.363,5.363,0,0,1,1.147.844,3.573,3.573,0,0,1,.768,1.1,3.513,3.513,0,0,1,.281,1.45,4.489,4.489,0,0,1-.5,2.131,4.95,4.95,0,0,1-1.32,1.59,5.8,5.8,0,0,1-1.915.985A7.736,7.736,0,0,1-23.87-.04ZM-8.723-12.331h-4.609l.822-3.073H.04l-.822,3.073H-5.391L-8.637-.257h-3.332ZM3.416-15.4H14.733l-.8,2.964H5.926L5.1-9.345h7.033l-.8,2.921H4.3l-.866,3.2h8.136l-.8,2.964H-.652Zm19.02,7.638a4.63,4.63,0,0,0,2.683-.7,2.289,2.289,0,0,0,1.017-2,1.7,1.7,0,0,0-.5-1.255,2.1,2.1,0,0,0-.833-.509,4,4,0,0,0-1.244-.162H21.4L20.164-7.765ZM18.887-15.4h4.8a9.506,9.506,0,0,1,2.781.357,4.719,4.719,0,0,1,1.98,1.179,4.211,4.211,0,0,1,1.168,3.116,5.364,5.364,0,0,1-.573,2.51A5.547,5.547,0,0,1,27.489-6.38a6.949,6.949,0,0,1-2.326,1.147,10.36,10.36,0,0,1-2.9.389H19.385L18.152-.257H14.819Z" transform="translate(350.47 6273.62)" fill="#5fa826" stroke="rgba(0,0,0,0)" stroke-width="1"/>
  </g>
</svg>
