<svg xmlns="http://www.w3.org/2000/svg" width="188.936" height="101" viewBox="0 0 188.936 101">
  <g id="Group_23580" data-name="Group 23580" transform="translate(-319.311 -3917.5)">
    <g id="Group_16813" data-name="Group 16813" transform="translate(133.036 3694.354)">
      <path id="Union_2" data-name="Union 2" d="M9.446,90.2C3.176,83.7,0,74.633,0,63.241A78,78,0,0,1,6.4,31.468,56.484,56.484,0,0,1,24.264,8.5,43,43,0,0,1,50.416,0c10.766,0,19.4,3.289,25.674,9.788s9.434,15.58,9.434,26.96a77.888,77.888,0,0,1-6.384,31.774A56.4,56.4,0,0,1,61.273,91.488,42.938,42.938,0,0,1,35.121,100C24.355,100,15.718,96.711,9.446,90.2Zm15.5-80.789a55.35,55.35,0,0,0-17.5,22.511A76.754,76.754,0,0,0,1.128,63.241c0,11.084,3.073,19.894,9.139,26.164s14.407,9.457,24.854,9.457A41.867,41.867,0,0,0,60.59,90.577a55.217,55.217,0,0,0,17.5-22.51A76.869,76.869,0,0,0,84.4,36.748c0-11.074-3.073-19.882-9.128-26.164S60.863,1.127,50.416,1.127A41.867,41.867,0,0,0,24.947,9.412Zm58.37,88.95,3.038-15.216.171-.136L130.09,48.868c5.2-4.222,8.865-7.808,10.879-10.675a15.135,15.135,0,0,0,2.97-8.82,8.651,8.651,0,0,0-3.414-7.2c-2.288-1.81-5.691-2.743-10.084-2.743a24.473,24.473,0,0,0-10.811,2.538,27.459,27.459,0,0,0-9.1,7.227l-.341.409-.433-.308L94.413,18.175l.33-.466A40.828,40.828,0,0,1,111.085,4.757,53.715,53.715,0,0,1,133.72,0,44.627,44.627,0,0,1,151.5,3.324a27.791,27.791,0,0,1,11.972,9.332,22.946,22.946,0,0,1,4.279,13.576A31.32,31.32,0,0,1,162.741,43.2c-3.3,5.224-9.094,11.074-17.207,17.356L121.452,79.2h39.182l-.148.683-3.631,18.482Zm57.926-77.08a9.856,9.856,0,0,1,3.824,8.091,16.277,16.277,0,0,1-3.163,9.48c-2.083,2.948-5.816,6.612-11.108,10.914l-43.4,34L84.705,97.223h71.218l3.324-16.889H118.118l26.721-20.678c8.012-6.214,13.713-11.949,16.934-17.07a30.162,30.162,0,0,0,4.837-16.354,21.881,21.881,0,0,0-4.063-12.917A26.792,26.792,0,0,0,151.042,4.36,43.536,43.536,0,0,0,133.72,1.127a52.544,52.544,0,0,0-22.157,4.667A39.825,39.825,0,0,0,96.006,17.924l13.987,10.129a28.483,28.483,0,0,1,9.138-7.113,25.78,25.78,0,0,1,11.312-2.651C135.1,18.289,138.74,19.3,141.242,21.282ZM26.153,76.648c-2.583-3.038-3.892-7.738-3.892-13.953a69.828,69.828,0,0,1,3.028-19.756,46.653,46.653,0,0,1,8.923-17.207c3.96-4.667,8.728-7.022,14.157-7.022,4.7,0,8.41,1.559,11.016,4.631,2.583,3.05,3.893,7.751,3.893,13.953a69.834,69.834,0,0,1-3.028,19.757,46.467,46.467,0,0,1-8.923,17.207c-3.972,4.677-8.728,7.033-14.157,7.033C32.458,81.291,28.76,79.732,26.153,76.648Zm8.923-50.176a45.56,45.56,0,0,0-8.695,16.786A68.814,68.814,0,0,0,23.4,62.695c0,5.941,1.218,10.391,3.619,13.225s5.736,4.234,10.151,4.234c5.076,0,9.548-2.231,13.292-6.624l.433.365-.433-.365a45.874,45.874,0,0,0,8.695-16.8,68.867,68.867,0,0,0,2.982-19.437c0-5.929-1.218-10.379-3.619-13.213-2.379-2.811-5.792-4.244-10.151-4.244C43.28,19.837,38.82,22.067,35.076,26.472Z" transform="translate(206.963 223.646)" fill="#5fa826" stroke="rgba(0,0,0,0)" stroke-miterlimit="10" stroke-width="1"/>
    </g>
    <rect id="Rectangle_13551" data-name="Rectangle 13551" width="53" height="32" transform="translate(320 3956)" fill="#fff"/>
    <path id="Path_35220" data-name="Path 35220" d="M-23.87-.04q-4.436,0-6.6-2.791l2.51-2.121A6.837,6.837,0,0,0-26.034-3.47a5.108,5.108,0,0,0,2.315.509,2.947,2.947,0,0,0,1.666-.433A1.321,1.321,0,0,0-21.4-4.541a1.079,1.079,0,0,0-.119-.509,1.466,1.466,0,0,0-.411-.454,4.816,4.816,0,0,0-.79-.476q-.5-.249-1.255-.552-.736-.3-1.406-.66a5.522,5.522,0,0,1-1.19-.844A3.754,3.754,0,0,1-27.4-9.15a3.35,3.35,0,0,1-.3-1.471,4.394,4.394,0,0,1,.487-2.088A4.9,4.9,0,0,1-25.9-14.278a5.964,5.964,0,0,1,1.915-1,7.585,7.585,0,0,1,2.3-.346,8.188,8.188,0,0,1,3.332.606,7.134,7.134,0,0,1,2.337,1.645l-2.294,2.294a7.31,7.31,0,0,0-1.7-1.212,4.325,4.325,0,0,0-1.937-.411,2.454,2.454,0,0,0-1.634.487,1.384,1.384,0,0,0-.573,1.049,1.05,1.05,0,0,0,.13.53,1.116,1.116,0,0,0,.433.444,4.069,4.069,0,0,0,.811.454q.508.238,1.287.563a14.073,14.073,0,0,1,1.439.692,5.363,5.363,0,0,1,1.147.844,3.573,3.573,0,0,1,.768,1.1,3.513,3.513,0,0,1,.281,1.45,4.489,4.489,0,0,1-.5,2.131,4.95,4.95,0,0,1-1.32,1.59,5.8,5.8,0,0,1-1.915.985A7.736,7.736,0,0,1-23.87-.04ZM-8.723-12.331h-4.609l.822-3.073H.04l-.822,3.073H-5.391L-8.637-.257h-3.332ZM3.416-15.4H14.733l-.8,2.964H5.926L5.1-9.345h7.033l-.8,2.921H4.3l-.866,3.2h8.136l-.8,2.964H-.652Zm19.02,7.638a4.63,4.63,0,0,0,2.683-.7,2.289,2.289,0,0,0,1.017-2,1.7,1.7,0,0,0-.5-1.255,2.1,2.1,0,0,0-.833-.509,4,4,0,0,0-1.244-.162H21.4L20.164-7.765ZM18.887-15.4h4.8a9.506,9.506,0,0,1,2.781.357,4.719,4.719,0,0,1,1.98,1.179,4.211,4.211,0,0,1,1.168,3.116,5.364,5.364,0,0,1-.573,2.51A5.547,5.547,0,0,1,27.489-6.38a6.949,6.949,0,0,1-2.326,1.147,10.36,10.36,0,0,1-2.9.389H19.385L18.152-.257H14.819Z" transform="translate(350.47 3979.62)" fill="#5fa826" stroke="rgba(0,0,0,0)" stroke-width="1"/>
  </g>
</svg>
