<svg xmlns="http://www.w3.org/2000/svg" width="580.32" height="109.8" viewBox="0 0 580.32 109.8">
  <g id="Group_23575" data-name="Group 23575" transform="translate(-846 -10270.2)">
    <g id="Group_21588" data-name="Group 21588" transform="translate(198 51)">
      <path id="Path_35901" data-name="Path 35901" d="M-80.528-23.688a23.4,23.4,0,0,1-5.488,5.544,25.478,25.478,0,0,1,1.736,2.436,34.423,34.423,0,0,0,6.692-6.832Zm.5,5.964a23.883,23.883,0,0,1-6.244,7.2A20.224,20.224,0,0,1-84.532-7.42a24.789,24.789,0,0,0,2.184-2.072V2.492h3.108V-13.244a37.521,37.521,0,0,0,2.128-3.388ZM-66.556-6.776h5.488V-9.828h-5.488v-4.34h6.244v-3.164h-3.36c.868-1.428,1.876-3.388,2.8-5.264l-3.248-1.12a31.782,31.782,0,0,1-2.6,5.572l2.156.812H-71.26l1.792-.868a30.375,30.375,0,0,0-2.968-5.32l-2.744,1.2a35.681,35.681,0,0,1,2.632,4.984h-3.836v3.164h6.58V-2.52A8.086,8.086,0,0,1-72.6-6.3a45.2,45.2,0,0,0,.532-4.648l-3.332-.224C-75.628-6.3-76.44-2.156-79.016.28a15.612,15.612,0,0,1,2.548,2.268A13.232,13.232,0,0,0-73.612-2.3c2.212,3.388,5.348,4.312,9.184,4.312h3.92a10.873,10.873,0,0,1,.98-3.108c-.98,0-3.892.028-4.648,0a16.423,16.423,0,0,1-2.38-.168Zm26.6-9.66c-.308.756-.644,1.568-.98,2.24h-5.236l.476-.084a15.042,15.042,0,0,0-.952-2.156Zm9.044,12.488V-6.692H-41.8V-7.924h8.4v-2.408h-8.4v-1.26h9.716v-2.6h-5.488c.42-.672.868-1.428,1.316-2.24H-31v-2.716h-3.64c.644-.98,1.4-2.24,2.184-3.528l-3.5-.84a22.555,22.555,0,0,1-1.764,4.06l1.008.308H-39.2v-4.564h-3.136v4.564h-2.072v-4.564h-3.108v4.564h-2.548l1.372-.5A21.187,21.187,0,0,0-50.82-23.6l-2.856.98a25.1,25.1,0,0,1,1.736,3.472h-3.752v2.716h5.852l-.336.056a12.582,12.582,0,0,1,.952,2.184h-5.32v2.6h9.464v1.26h-8.064v2.408h8.064v1.232h-10.7v2.744h8.036A29.417,29.417,0,0,1-56.588-.672,15.531,15.531,0,0,1-54.46,2.1a26.56,26.56,0,0,0,9.38-4.536V2.436H-41.8V-2.6A23.9,23.9,0,0,0-32.4,2.128,15.663,15.663,0,0,1-30.156-.9a25.015,25.015,0,0,1-8.876-3.052ZM-8.288-18.424H-19.6v-1.82H-8.288Zm3.556-4.424H-22.96v7H-4.732ZM-20.916-5.908H-7.2v1.232h-13.72Zm0-3.3H-7.2v1.176h-13.72Zm0-3.332H-7.2v1.2h-13.72ZM-3.752-2.436V-14.812H-24.22V-2.436h4.4A34.182,34.182,0,0,1-27.048.056a29.287,29.287,0,0,1,2.52,2.38,37.308,37.308,0,0,0,8.68-3.36L-18-2.436h7.644l-2.352,1.68A74.527,74.527,0,0,1-3.724,2.492L-.784.14c-1.932-.784-4.872-1.792-7.5-2.576Zm-159.04,13.7h-3.864a22.534,22.534,0,0,1,.2,2.464c0,.476,0,1.288-.028,2.268-.56.028-1.12.056-1.624.056a31.049,31.049,0,0,1-3.864-.224l.056,3.388a34.328,34.328,0,0,0,3.92.14c.448,0,.952-.028,1.484-.056v2.352c0,.644,0,1.316.028,1.988-3.444,1.484-6.244,4.032-6.244,6.468,0,2.968,3.836,5.32,6.552,5.32,1.848,0,3.08-.924,3.08-4.4,0-.952-.056-3.136-.112-5.348a18.878,18.878,0,0,1,5.264-.784c2.436,0,4.116,1.12,4.116,3.024,0,2.044-1.792,3.164-4.06,3.584a21.56,21.56,0,0,1-3.444.2l1.288,3.612a25.637,25.637,0,0,0,3.668-.448c4.452-1.12,6.188-3.612,6.188-6.916,0-3.864-3.388-6.1-7.7-6.1a23.2,23.2,0,0,0-5.376.728V21.54c0-.812,0-1.68.028-2.52,1.82-.224,3.752-.5,5.348-.868l-.084-3.472a34.292,34.292,0,0,1-5.152,1.008c.028-.7.056-1.372.084-1.988C-162.988,12.972-162.876,11.768-162.792,11.264Zm7.98,3.024L-156.352,17a44.549,44.549,0,0,1,6.748,4.088l1.68-2.856A58.512,58.512,0,0,0-154.812,14.288Zm-14.476,15.68c0-.98,1.148-2.128,2.856-3.052.056,1.512.084,2.8.084,3.5,0,.952-.392,1.176-.9,1.176C-167.972,31.592-169.288,30.836-169.288,29.968Zm24.836-8.68V24.9h25.76V21.288Zm39.928-10.36c-.2,3.7.2,16.408-10.976,22.6a11.669,11.669,0,0,1,2.8,2.66,23.91,23.91,0,0,0,10.36-14.056c1.568,5.152,4.7,10.92,11.032,14.056a10.945,10.945,0,0,1,2.576-2.828c-10.444-4.9-11.844-16.968-12.068-20.832.028-.588.056-1.148.084-1.6Zm30.268,3.5v3.584a75.15,75.15,0,0,0,12.04,0V14.4A57.577,57.577,0,0,1-74.256,14.428Zm2.24,11.956-3.22-.308a17.106,17.106,0,0,0-.476,3.64c0,2.884,2.324,4.592,7.14,4.592a39.654,39.654,0,0,0,7.224-.532L-61.4,30a33.1,33.1,0,0,1-7.028.728c-2.856,0-3.92-.756-3.92-1.988A9.5,9.5,0,0,1-72.016,26.384Zm-6.552-13.832-3.92-.336c-.028.9-.2,1.96-.28,2.744a78.077,78.077,0,0,0-1.176,11.088A35.793,35.793,0,0,0-82.852,35.2l3.248-.224c-.028-.392-.056-.84-.056-1.148a8.449,8.449,0,0,1,.14-1.316c.308-1.484,1.232-4.536,2.016-6.86l-1.736-1.372c-.392.924-.84,1.9-1.26,2.856a13.509,13.509,0,0,1-.112-1.82,74.265,74.265,0,0,1,1.344-10.276C-79.156,14.54-78.792,13.14-78.568,12.552Zm22.68,6.1,1.6,3.92c2.912-1.26,9.548-4.06,13.664-4.06,3.36,0,5.18,2.016,5.18,4.648,0,4.872-5.936,7.056-13.524,7.252l1.624,3.724c9.856-.5,15.9-4.564,15.9-10.92,0-5.18-3.976-8.092-9.044-8.092-4.088,0-9.8,2.016-11.956,2.688C-53.452,18.1-54.852,18.488-55.888,18.656Zm31.976,1.12.2,3.3a104.129,104.129,0,0,0,12.18.028c.448.952.98,1.932,1.568,2.912-.84-.084-2.352-.224-3.528-.336l-.28,2.66c2.044.224,5.068.588,6.636.9l1.708-2.576a8.535,8.535,0,0,1-1.26-1.428,25.482,25.482,0,0,1-1.456-2.492,37.519,37.519,0,0,0,4.48-.868l-.56-3.3a36.149,36.149,0,0,1-5.348,1.12c-.168-.448-.336-.868-.476-1.26-.14-.42-.28-.868-.42-1.316A40.819,40.819,0,0,0-5.32,16.08l-.448-3.22a32.182,32.182,0,0,1-5.516,1.2q-.294-1.428-.5-2.94l-3.752.42c.336.98.616,1.876.9,2.772a58.244,58.244,0,0,1-8.764-.42l.2,3.22a65.465,65.465,0,0,0,9.436.252c.168.476.336,1.008.56,1.652.112.308.224.644.364.98A71.751,71.751,0,0,1-23.912,19.776Zm5.376,6.5-3.472-.672a9.3,9.3,0,0,0-1.2,4.508c.056,4,3.528,5.656,9.128,5.656a43.006,43.006,0,0,0,6.8-.532l.2-3.556a36.852,36.852,0,0,1-7.028.616c-3.7,0-5.656-.84-5.656-2.912A5.255,5.255,0,0,1-18.536,26.272Z" transform="translate(823 10249)" fill="#2d3d45"/>
      <g id="Group_21587" data-name="Group 21587" transform="translate(111 13)">
        <path id="Path_35903" data-name="Path 35903" d="M22.24-16.56V-26.64h10v10.08ZM8.08-26.64h9.44v10.08H8.08Zm28.96-4.72H3.28V3.44h4.8V-11.84H32.24v9.68c0,.68-.28.92-1.04.96-.8,0-3.4.04-5.68-.12a19.442,19.442,0,0,1,1.72,4.76c3.56,0,5.96-.08,7.56-.88,1.68-.76,2.24-2.08,2.24-4.68Zm42.48-2.72L43.12,2.32l1.36,1.36,36.4-36.4Zm16.68,21c.16-1.68.24-3.36.28-4.88h16.04v4.88Zm16.32-14.28v4.88H96.48v-4.88ZM117.56-32h-26v13.16c0,6.08-.56,13.72-6.6,18.88a18.787,18.787,0,0,1,3.68,3.44C92.36.36,94.36-4,95.4-8.48h17.12v5.8c0,.84-.32,1.16-1.28,1.16-.88,0-4.24.04-7.04-.12a20.419,20.419,0,0,1,2,5c4.12,0,6.92-.08,8.84-.92,1.84-.8,2.52-2.16,2.52-5.04Zm41.16,12.44H150.8V-22h7.92Zm0,5.72H150.8v-2.44h7.92Zm0,5.84H150.8v-2.48h7.92Zm-12.2-17.56V-4.48H163.2V-25.56h-7.08c.32-.84.64-1.76.96-2.72H164v-4.04H145.32v4.04h6.72c-.16.88-.32,1.84-.48,2.72Zm-14.84-1.32h9.56v2.76h3.96v-6.44h-6.52V-33.8h-4.44v3.24h-6.4v6.44h3.84Zm7.2,24.36h-4.84V-6.2h4.84Zm-4.76-7.36a29.082,29.082,0,0,0,3.36-2.6c1.2.92,2.4,1.8,3.4,2.6Zm4.8-10.64a17.1,17.1,0,0,1-1.96,2.84l-2.76-1.8c.28-.36.56-.68.84-1.04Zm4,12.32.08.08,2.68-3.32a62.836,62.836,0,0,0-5.44-4,23.275,23.275,0,0,0,3.96-7.2l-2.68-1.24-.72.2h-3.72a15.788,15.788,0,0,0,.92-1.84l-3.88-.96a19.236,19.236,0,0,1-7.32,8.36,17.944,17.944,0,0,1,3,2.76,18.32,18.32,0,0,0,1.72-1.36l2.64,1.84a23.723,23.723,0,0,1-7.36,4.2,13.73,13.73,0,0,1,2.4,3.4l.84-.36V2.72h4V1.12h8.88a28.211,28.211,0,0,1,2.2,2.28,28.443,28.443,0,0,0,8.52-5.32l-3.84-2.4a22.67,22.67,0,0,1-6.88,4.4ZM155.4-1.96a44.076,44.076,0,0,1,6.24,5.48l3.68-2.44a50.356,50.356,0,0,0-6.48-5.2Z" transform="translate(952 10270)" fill="#2d3d45"/>
        <path id="Path_35902" data-name="Path 35902" d="M31.6-40.6q10.3,1,15.7,6.35A18.4,18.4,0,0,1,52.7-20.6a20.209,20.209,0,0,1-3,10.85,20.66,20.66,0,0,1-8.95,7.7A33.5,33.5,0,0,1,26.2.8,46.153,46.153,0,0,1,11.8-1.45,30.677,30.677,0,0,1,.5-7.7l4.6-7.9a26.428,26.428,0,0,0,9.2,5.45A34.344,34.344,0,0,0,26.2-8.1q7.8,0,12.15-3.3a10.79,10.79,0,0,0,4.35-9.1,10.567,10.567,0,0,0-4.3-9q-4.3-3.2-13-3.2H19.8v-7L37.4-61.3H3.7V-70H49.9v6.8ZM90.6.8A26.2,26.2,0,0,1,75.85-3.45,28.5,28.5,0,0,1,65.7-15.8,45.885,45.885,0,0,1,62-35a45.885,45.885,0,0,1,3.7-19.2A28.5,28.5,0,0,1,75.85-66.55,26.2,26.2,0,0,1,90.6-70.8a26.027,26.027,0,0,1,14.65,4.25A28.5,28.5,0,0,1,115.4-54.2,45.885,45.885,0,0,1,119.1-35a45.885,45.885,0,0,1-3.7,19.2A28.5,28.5,0,0,1,105.25-3.45,26.027,26.027,0,0,1,90.6.8Zm0-8.9A15.858,15.858,0,0,0,104.05-15q5.05-6.9,5.05-20t-5.05-20A15.858,15.858,0,0,0,90.6-61.9,15.95,15.95,0,0,0,77.05-55Q72-48.1,72-35t5.05,20A15.95,15.95,0,0,0,90.6-8.1ZM157.3.8a26.2,26.2,0,0,1-14.75-4.25A28.5,28.5,0,0,1,132.4-15.8,45.885,45.885,0,0,1,128.7-35a45.885,45.885,0,0,1,3.7-19.2,28.5,28.5,0,0,1,10.15-12.35A26.2,26.2,0,0,1,157.3-70.8a26.027,26.027,0,0,1,14.65,4.25A28.5,28.5,0,0,1,182.1-54.2,45.885,45.885,0,0,1,185.8-35a45.885,45.885,0,0,1-3.7,19.2A28.5,28.5,0,0,1,171.95-3.45,26.027,26.027,0,0,1,157.3.8Zm0-8.9A15.858,15.858,0,0,0,170.75-15q5.05-6.9,5.05-20t-5.05-20a15.858,15.858,0,0,0-13.45-6.9A15.95,15.95,0,0,0,143.75-55q-5.05,6.9-5.05,20t5.05,20A15.95,15.95,0,0,0,157.3-8.1Z" transform="translate(742 10277)" fill="#2d3d45"/>
      </g>
    </g>
    <rect id="Rectangle_11618" data-name="Rectangle 11618" width="580" height="8" transform="translate(846 10372)" fill="#6ab82d" opacity="0.996"/>
  </g>
</svg>
