<svg xmlns="http://www.w3.org/2000/svg" width="512" height="512" viewBox="0 0 512 512"><defs><style>.a{fill:#fff;}.b{fill:#333;}.c{fill:#ffad29;}</style></defs><circle class="a" cx="256" cy="256" r="256"/><ellipse class="b" cx="213.727" cy="295.629" rx="16.69" ry="17.757"/><path class="b" d="M245.911,146.51A128.569,128.569,0,0,0,117.486,274.935v9.887c-15.579,10.8-17.843,20.119-18.077,26.443-.558,15.124,11.238,24.051,18.286,29.386.8.6,1.786,1.348,2.684,2.057,1.588,20.5,11.637,40.907,28.72,58.063,24.905,25.016,62,40.553,96.812,40.553h.007A128.569,128.569,0,0,0,374.343,312.9V274.935A128.574,128.574,0,0,0,245.911,146.51ZM331.487,312.9a85.67,85.67,0,0,1-85.576,85.569c-20.561,0-43.127-8.422-59.767-21.921,6.894-1.96,12.583-5.692,17.723-9.945A10.714,10.714,0,0,0,190.205,350.1c-5.317,4.4-10.431,8.578-22.095,5.328a39.429,39.429,0,0,1-5.1-18.571c.044-10.7-5.687-18.411-11.649-23.983a34.529,34.529,0,0,0,8.977-23.18V274.935a85.573,85.573,0,0,1,171.145,0Z"/><path class="c" d="M331.476,147.364a14.288,14.288,0,0,1-12.67-20.862L340.14,85.353A14.286,14.286,0,0,1,365.505,98.5l-21.334,41.149A14.288,14.288,0,0,1,331.476,147.364Z"/><path class="c" d="M282.242,131.069a14.463,14.463,0,0,1-2.847-.286,14.284,14.284,0,0,1-11.17-16.831l9.189-45.43a14.285,14.285,0,1,1,28,5.66l-9.188,45.43A14.287,14.287,0,0,1,282.242,131.069Z"/><path class="c" d="M374.807,177.837a14.287,14.287,0,0,1-10.158-24.331l32.59-32.959a14.286,14.286,0,1,1,20.316,20.089L384.965,173.6A14.246,14.246,0,0,1,374.807,177.837Z"/></svg>