<svg id="h2" xmlns="http://www.w3.org/2000/svg" width="57.033" height="68" viewBox="0 0 57.033 68">
  <g id="Group_89" data-name="Group 89" transform="translate(-299.716)">
    <ellipse id="Ellipse_12" data-name="Ellipse 12" cx="2.954" cy="3.142" rx="2.954" ry="3.142" transform="translate(316.996 39.075)" fill="#333"/>
    <path id="Path_82" data-name="Path 82" d="M332.359,271.823a22.752,22.752,0,0,0-22.727,22.726v1.75c-2.756,1.911-3.157,3.56-3.2,4.68-.1,2.676,1.988,4.256,3.236,5.2.141.106.316.239.475.364a16.581,16.581,0,0,0,5.082,10.275,25.051,25.051,0,0,0,17.132,7.176h0a22.751,22.751,0,0,0,22.726-22.726v-6.719A22.752,22.752,0,0,0,332.359,271.823ZM347.5,301.268a15.16,15.16,0,0,1-15.143,15.142,17.509,17.509,0,0,1-10.577-3.879,8.623,8.623,0,0,0,3.137-1.76,1.9,1.9,0,1,0-2.418-2.921,3.651,3.651,0,0,1-3.909.942,6.984,6.984,0,0,1-.9-3.287,5.723,5.723,0,0,0-2.061-4.244,6.111,6.111,0,0,0,1.589-4.1v-2.611a15.143,15.143,0,0,1,30.286,0Z" transform="translate(-6.714 -255.994)" fill="#333"/>
    <path id="Path_83" data-name="Path 83" d="M363.714,266.848a2.527,2.527,0,0,1-2.242-3.691l3.776-7.282a2.528,2.528,0,1,1,4.488,2.327l-3.775,7.282A2.528,2.528,0,0,1,363.714,266.848Z" transform="translate(-22.928 -250.868)" fill="#f79e39"/>
    <path id="Path_84" data-name="Path 84" d="M351.335,262.431a2.575,2.575,0,0,1-.5-.05,2.528,2.528,0,0,1-1.977-2.979l1.626-8.039a2.528,2.528,0,1,1,4.955,1L353.81,260.4A2.528,2.528,0,0,1,351.335,262.431Z" transform="translate(-19.262 -249.335)" fill="#f79e39"/>
    <path id="Path_85" data-name="Path 85" d="M374.608,275.118a2.528,2.528,0,0,1-1.8-4.306l5.767-5.833a2.528,2.528,0,0,1,3.6,3.555l-5.767,5.832A2.523,2.523,0,0,1,374.608,275.118Z" transform="translate(-26.153 -253.746)" fill="#f79e39"/>
  </g>
</svg>
