<svg xmlns="http://www.w3.org/2000/svg" width="48.74" height="68" viewBox="0 0 48.74 68">
  <g id="Group_16339" data-name="Group 16339" transform="translate(-315.599 -236.364)">
    <path id="Path_108" data-name="Path 108" d="M340.9,271.344h0a2.315,2.315,0,0,0,2.869-1.421l10.359-28.582a3.782,3.782,0,0,0-2.461-4.8h0a3.782,3.782,0,0,0-4.757,2.548l-7.563,29.471A2.316,2.316,0,0,0,340.9,271.344Z" transform="translate(-2.525 0)" fill="#f79e39"/>
    <ellipse id="Ellipse_15" data-name="Ellipse 15" cx="2.959" cy="3.148" rx="2.959" ry="3.148" transform="translate(332.909 275.39)" fill="#333"/>
    <path id="Path_109" data-name="Path 109" d="M341.573,253.983a22.792,22.792,0,0,0-22.766,22.766V278.5c-2.761,1.914-3.162,3.566-3.2,4.687-.1,2.681,1.992,4.263,3.242,5.209.141.106.316.239.476.365a16.608,16.608,0,0,0,5.09,10.292,25.094,25.094,0,0,0,17.162,7.189h0a22.791,22.791,0,0,0,22.766-22.765v-6.73A22.792,22.792,0,0,0,341.573,253.983Zm15.17,29.5a15.186,15.186,0,0,1-15.17,15.168,17.539,17.539,0,0,1-10.6-3.886A8.619,8.619,0,0,0,334.12,293a1.9,1.9,0,1,0-2.422-2.926,3.658,3.658,0,0,1-3.916.944,6.992,6.992,0,0,1-.9-3.292,5.733,5.733,0,0,0-2.065-4.251,6.122,6.122,0,0,0,1.591-4.109v-2.615a15.169,15.169,0,0,1,30.339,0Z" transform="translate(0 -1.879)" fill="#333"/>
  </g>
</svg>
