<svg xmlns="http://www.w3.org/2000/svg" width="129.574" height="92" viewBox="0 0 129.574 92">
  <g id="Group_16170" data-name="Group 16170" transform="translate(-595.485 -253.983)">
    <path id="Path_110" data-name="Path 110" d="M664.836,289.172h0c-.094-2.18-1.352-3.45-4.07-3.9l-65.281-11.249v30.042l65.664-10.653C663.648,292.9,664.932,291.341,664.836,289.172Z" transform="translate(0 11.475)" fill="#f79e39"/>
    <ellipse id="Ellipse_16" data-name="Ellipse 16" cx="5.208" cy="5.541" rx="5.208" ry="5.541" transform="translate(669.729 294.976)" fill="#333"/>
    <path id="Path_111" data-name="Path 111" d="M669.041,253.983a40.122,40.122,0,0,0-40.076,40.077v3.085c-4.861,3.369-5.569,6.278-5.641,8.252-.175,4.72,3.507,7.5,5.706,9.17.25.187.558.42.838.642.5,6.4,3.631,12.765,8.963,18.118a44.174,44.174,0,0,0,30.211,12.655h0a40.12,40.12,0,0,0,40.076-40.076V294.06A40.123,40.123,0,0,0,669.041,253.983Zm26.705,51.924a26.733,26.733,0,0,1-26.705,26.7,30.871,30.871,0,0,1-18.65-6.841,15.172,15.172,0,0,0,5.531-3.1,3.343,3.343,0,1,0-4.263-5.15c-1.659,1.371-3.255,2.677-6.9,1.662a12.322,12.322,0,0,1-1.59-5.8,10.091,10.091,0,0,0-3.634-7.484,10.778,10.778,0,0,0,2.8-7.234v-4.6a26.7,26.7,0,1,1,53.407,0Z" transform="translate(15.939)" fill="#333"/>
  </g>
</svg>
