<svg id="icon-word" xmlns="http://www.w3.org/2000/svg" width="24" height="24" viewBox="0 0 24 24">
  <rect id="Rectangle_11216" data-name="Rectangle 11216" width="24" height="24" fill="#fff" opacity="0"/>
  <path id="Path_120" data-name="Path 120" d="M26.727,2.4h0a.427.427,0,0,0,.427-.427V.427A.427.427,0,0,0,26.727,0H11.553l-.02.08V0a3.6,3.6,0,0,0-3.6,3.6c0,.127.02,16.8.02,16.8h-.02a3.6,3.6,0,0,0,3.6,3.6v-.08l.02.08H26.727a.427.427,0,0,0,.427-.427V7.8l-.017-2.507a.616.616,0,0,0-.42-.567,1.281,1.281,0,0,1-.283-2.209A.415.415,0,0,1,26.727,2.4Zm-15.194,0h12.21a3.543,3.543,0,0,0,0,2.4H11.533a1.2,1.2,0,0,1-1.18-1V3.6h-.02A1.2,1.2,0,0,1,11.533,2.4Zm0,19.2a1.2,1.2,0,0,1-1.2-1.2h.02V7.2h2.4v7.2l2.4-1.2,2.4,1.2V7.2h7.2V21.6Z" transform="translate(-5.533)" fill="#fff"/>
</svg>
