<svg id="icon-q" xmlns="http://www.w3.org/2000/svg" width="48" height="59.996" viewBox="0 0 48 59.996">
  <g id="icon-q-2" data-name="icon-q">
    <path id="icon-q-3" data-name="icon-q" d="M48,24A24,24,0,1,0,11.286,44.359C18.357,48.782,22.8,50.393,22.8,58.733h0a1.245,1.245,0,0,0,1,1.248A1.2,1.2,0,0,0,25.2,58.8v-.064c0-8.357,4.476-9.954,11.551-14.4A23.979,23.979,0,0,0,48,24Z" transform="translate(0.005 -0.002)" fill="#005982"/>
  </g>
  <path id="Path_143" data-name="Path 143" d="M5.817-6.384A8.42,8.42,0,0,1,5.463-3.87a6.131,6.131,0,0,1-1,1.965L7.1.989,4.95,2.82,2.216-.22A7.021,7.021,0,0,1,.964.134,7.4,7.4,0,0,1-.4.256,5.948,5.948,0,0,1-4.9-1.5,6.768,6.768,0,0,1-6.586-6.384v-4.98A6.816,6.816,0,0,1-4.9-16.254,5.9,5.9,0,0,1-.409-18.03a5.98,5.98,0,0,1,4.517,1.776,6.758,6.758,0,0,1,1.709,4.889ZM2.362-11.4a4.88,4.88,0,0,0-.708-2.883,2.392,2.392,0,0,0-2.063-.973,2.346,2.346,0,0,0-2.051.967A5.01,5.01,0,0,0-3.143-11.4v5.019a4.966,4.966,0,0,0,.7,2.9A2.365,2.365,0,0,0-.4-2.515a2.385,2.385,0,0,0,2.051-.967,4.9,4.9,0,0,0,.708-2.9Z" transform="translate(24.2 32.8)" fill="#fff"/>
</svg>
