<svg id="icon-pickup" xmlns="http://www.w3.org/2000/svg" width="24" height="24" viewBox="0 0 24 24">
  <path id="Path_78" data-name="Path 78" d="M10.5,2.4a8.1,8.1,0,1,1-8.1,8.1,8.1,8.1,0,0,1,8.1-8.1m0-2.4A10.5,10.5,0,1,0,21,10.5,10.5,10.5,0,0,0,10.5,0Z" fill="#fff"/>
  <path id="Path_79" data-name="Path 79" d="M56.049,57.746l1.7-1.7,5.345,5.345a.49.49,0,0,1,0,.693l-1,1a.49.49,0,0,1-.693,0Z" transform="translate(-39.234 -39.234)" fill="#fff"/>
  <path id="Path_80" data-name="Path 80" d="M18.726,30.172l-1.7,1.7,3.994,3.994,1.7-1.7-3.994-3.994Z" transform="translate(-11.92 -21.12)" fill="#fff"/>
  <path id="Path_81" data-name="Path 81" d="M31.474,20.858l-6.788,6.788,1.7,1.7,6.788-6.788-1.7-1.7Z" transform="translate(-17.28 -14.601)" fill="#fff"/>
</svg>
