<svg id="icon-news" xmlns="http://www.w3.org/2000/svg" width="24" height="21" viewBox="0 0 24 21">
  <path id="Path_69" data-name="Path 69" d="M16.8,14.3V5H0V21.2A4.8,4.8,0,0,0,4.8,26H19.2c-.147,0-.292-.009-.436-.022.144.013.289.022.436.022A4.8,4.8,0,0,0,24,21.2V14.3Zm-12,9.3a2.4,2.4,0,0,1-2.4-2.4V7.4h12V21.2a4.771,4.771,0,0,0,.648,2.4H4.8Zm10.815.785-.034-.038ZM15.4,24.13l-.036-.049.036.049Zm2.852,1.776c.13.026.263.045.4.06-.133-.015-.266-.034-.4-.06Zm-2.3-1.172c.03.028.06.056.092.084C16.02,24.79,15.99,24.762,15.96,24.734Zm.273.234c.046.037.095.072.143.107-.049-.035-.1-.07-.143-.107Zm.406.287c.063.04.126.079.191.116-.065-.037-.129-.076-.192-.116Zm.348.2c.092.048.186.094.282.136q-.144-.063-.282-.136Zm.415.192c.1.04.2.078.3.111q-.155-.051-.305-.111Zm.432.15c.128.038.257.073.39.1-.135-.026-.263-.061-.391-.1ZM21.6,21.2a2.4,2.4,0,1,1-4.8,0V16.7h4.8Z" transform="translate(0 -5)" fill="#ffffff"/>
  <rect id="Rectangle_35" data-name="Rectangle 35" width="3.6" height="3.6" rx="0.75" transform="translate(4.8 4.8)" fill="#ffffff"/>
  <rect id="Rectangle_36" data-name="Rectangle 36" width="2.4" height="1.2" rx="0.463" transform="translate(9.6 4.8)" fill="#ffffff"/>
  <rect id="Rectangle_37" data-name="Rectangle 37" width="2.4" height="1.2" rx="0.463" transform="translate(9.6 7.2)" fill="#ffffff"/>
  <rect id="Rectangle_38" data-name="Rectangle 38" width="7.2" height="1.2" rx="0.463" transform="translate(4.8 9.6)" fill="#ffffff"/>
  <rect id="Rectangle_39" data-name="Rectangle 39" width="7.2" height="1.2" rx="0.463" transform="translate(4.8 12)" fill="#ffffff"/>
  <rect id="Rectangle_40" data-name="Rectangle 40" width="7.2" height="1.2" rx="0.463" transform="translate(4.8 14.4)" fill="#ffffff"/>
</svg>
