<svg id="icon-faq" xmlns="http://www.w3.org/2000/svg" width="24" height="21" viewBox="0 0 24 21">
  <path id="Path_73" data-name="Path 73" d="M14.7,5H9.3A9.3,9.3,0,0,0,0,14.3H0a9.3,9.3,0,0,0,9.3,9.3h1.2v1.8a.6.6,0,0,0,.6.6.587.587,0,0,0,.42-.177L13.747,23.6H14.7A9.3,9.3,0,0,0,24,14.3h0A9.3,9.3,0,0,0,14.7,5ZM9.3,21.2a6.9,6.9,0,1,1,0-13.8h5.4a6.9,6.9,0,0,1,0,13.8Z" transform="translate(0 -5)" fill="#333"/>
  <path id="Path_74" data-name="Path 74" d="M32.882,20c-1.618,0-2.963.768-2.963,2.537h2.126c0-.439.4-.658.836-.658a.739.739,0,0,1,.81.768c0,.6-.288.9-.768,1.358l-.6.576a1.792,1.792,0,0,0-.59,1.536v.892h1.92v-.384a1.117,1.117,0,0,1,.494-.877l.494-.453a3.5,3.5,0,0,0,1.331-2.646c0-1.879-1.44-2.647-3.086-2.647Zm-.192,7.46a1.07,1.07,0,0,0-1.07,1.07h0a1.07,1.07,0,0,0,2.14,0h0A1.07,1.07,0,0,0,32.689,27.46Z" transform="translate(-20.943 -15.5)" fill="#333"/>
</svg>
