<svg id="icon-pin" xmlns="http://www.w3.org/2000/svg" width="20" height="20" viewBox="0 0 20 20">
  <rect id="Rectangle_11215" data-name="Rectangle 11215" width="20" height="20" fill="#8657a0" opacity="0"/>
  <path id="Path_119" data-name="Path 119" d="M15.245,2a6.279,6.279,0,0,1,4.03,11.071,23.948,23.948,0,0,0-3.755,3.912l-.275.368-.4-.528A22,22,0,0,0,11.255,13.1,6.28,6.28,0,0,1,14.8,2.016c.149-.01.3-.016.448-.016m0-2q-.291,0-.586.02a8.281,8.281,0,0,0-4.684,14.62,20.145,20.145,0,0,1,3.273,3.378l1.172,1.567a1.029,1.029,0,0,0,1.65,0l1.051-1.406A22.1,22.1,0,0,1,20.568,14.6,8.28,8.28,0,0,0,15.245,0Z" transform="translate(-5.228)" fill="#8657a0"/>
  <circle id="Ellipse_19" data-name="Ellipse 19" cx="3" cy="3" r="3" transform="translate(7.017 5.25)" fill="#8657a0"/>
</svg>
