<svg id="icon-download" xmlns="http://www.w3.org/2000/svg" width="24" height="21" viewBox="0 0 24 21">
  <path id="Path_59" data-name="Path 59" d="M2.4,47H21.6A2.4,2.4,0,0,0,24,44.6V37.4A2.4,2.4,0,0,0,21.6,35H19.5a.3.3,0,0,0-.3.3v1.8a.3.3,0,0,0,.3.3H21a.6.6,0,0,1,.6.6v6a.6.6,0,0,1-.6.6H3a.6.6,0,0,1-.6-.6V38a.6.6,0,0,1,.6-.6H4.5a.3.3,0,0,0,.3-.3V35.3a.3.3,0,0,0-.3-.3H2.4A2.4,2.4,0,0,0,0,37.4v7.2A2.4,2.4,0,0,0,2.4,47Z" transform="translate(0 -26)" fill="#ffffff"/>
  <path id="Path_60" data-name="Path 60" d="M32.9,12.2H30.2a.3.3,0,0,1-.3-.3V5.3a.3.3,0,0,0-.3-.3h-3a.3.3,0,0,0-.3.3v6.6a.3.3,0,0,1-.3.3H23.3a.3.3,0,0,0-.24.48l4.8,6.4a.3.3,0,0,0,.48,0l4.8-6.4a.3.3,0,0,0-.24-.48Z" transform="translate(-16.1 -5)" fill="#ffffff"/>
</svg>
