<svg id="icon-tag" xmlns="http://www.w3.org/2000/svg" width="16.046" height="16.045" viewBox="0 0 16.046 16.045">
  <g id="icon-tag-2" data-name="icon-tag">
    <path id="Path_75" data-name="Path 75" d="M7.7,1.914l6.646,6.648a.4.4,0,0,1,.118.295l-.14,5.076a.4.4,0,0,1-.39.39l-5.247.142h0L1.914,7.688a.4.4,0,0,1,0-.567L7.128,1.914a.4.4,0,0,1,.567,0ZM7.408.024A1.6,1.6,0,0,0,6.27.5L.5,6.27a1.61,1.61,0,0,0,0,2.277L7.546,15.6a1.611,1.611,0,0,0,1.125.472l5.621-.153h.014a1.61,1.61,0,0,0,1.61-1.624l.153-5.621A1.611,1.611,0,0,0,15.6,7.546L8.547.5A1.6,1.6,0,0,0,7.408.024Z" transform="translate(-0.024 -0.024)" fill="#595959"/>
    <ellipse id="Ellipse_10" data-name="Ellipse 10" cx="1.203" cy="1.203" rx="1.203" ry="1.203" transform="translate(9.966 9.965)" fill="#595959"/>
  </g>
</svg>
