<svg id="icon-information" xmlns="http://www.w3.org/2000/svg" width="24" height="24" viewBox="0 0 24 24">
  <path id="Path_76" data-name="Path 76" d="M12,0A12,12,0,1,0,24,12,12,12,0,0,0,12,0Zm0,21.6A9.6,9.6,0,1,1,21.6,12,9.6,9.6,0,0,1,12,21.6Z" fill="#eb6877"/>
  <circle id="Ellipse_11" data-name="Ellipse 11" cx="1.8" cy="1.8" r="1.8" transform="translate(10.2 6)" fill="#eb6877"/>
  <path id="Path_77" data-name="Path 77" d="M34.6,36H37a.6.6,0,0,1,.6.6v6.6H34V36.6A.6.6,0,0,1,34.6,36Z" transform="translate(-23.8 -25.2)" fill="#eb6877"/>
</svg>
