<svg id="icon-guide" xmlns="http://www.w3.org/2000/svg" width="24" height="20.998" viewBox="0 0 24 20.998">
  <path id="Path_64" data-name="Path 64" d="M7.3,57h-3a.3.3,0,0,0-.3.3v5.1H7.6V57.3A.3.3,0,0,0,7.3,57Z" transform="translate(-2.8 -41.402)" fill="#333"/>
  <path id="Path_65" data-name="Path 65" d="M27.3,49h-3a.3.3,0,0,0-.3.3v7.5h3.6V49.3A.3.3,0,0,0,27.3,49Z" transform="translate(-16.8 -35.802)" fill="#333"/>
  <path id="Path_66" data-name="Path 66" d="M47.3,41h-3a.3.3,0,0,0-.3.3v9.9h3.6V41.3A.3.3,0,0,0,47.3,41Z" transform="translate(-30.8 -30.202)" fill="#333"/>
  <path id="Path_67" data-name="Path 67" d="M67.3,33h-3a.3.3,0,0,0-.3.3V45.6h3.6V33.3A.3.3,0,0,0,67.3,33Z" transform="translate(-44.8 -24.601)" fill="#333"/>
  <path id="Path_68" data-name="Path 68" d="M18.614,5.413,19.173,6.8a.3.3,0,0,1-.165.39L.186,14.791a.3.3,0,0,0-.165.39l.671,1.661a.3.3,0,0,0,.39.165L19.9,9.4a.3.3,0,0,1,.39.165l.559,1.384a.3.3,0,0,0,.532.043l2.572-4.26a.3.3,0,0,0-.18-.443L18.967,5.013a.3.3,0,0,0-.353.4Z" transform="translate(0.001 -5.004)" fill="#333"/>
</svg>
