<svg id="icon-pin" xmlns="http://www.w3.org/2000/svg" width="16" height="16" viewBox="0 0 16 16">
  <rect id="Rectangle_11215" data-name="Rectangle 11215" width="16" height="16" fill="#333" opacity="0"/>
  <path id="Path_119" data-name="Path 119" d="M13.594,1.6a5.024,5.024,0,0,1,3.224,8.856,19.158,19.158,0,0,0-3,3.13l-.22.294-.316-.423A17.6,17.6,0,0,0,10.4,10.483a5.024,5.024,0,0,1,2.833-8.871c.119-.008.24-.012.358-.012m0-1.6q-.233,0-.469.016a6.624,6.624,0,0,0-3.747,11.7A16.116,16.116,0,0,1,12,14.415l.937,1.254a.824.824,0,0,0,1.32,0l.841-1.125a17.677,17.677,0,0,1,2.757-2.867A6.624,6.624,0,0,0,13.594,0Z" transform="translate(-5.581)" fill="#333"/>
  <circle id="Ellipse_19" data-name="Ellipse 19" cx="2.4" cy="2.4" r="2.4" transform="translate(5.613 4.2)" fill="#333"/>
</svg>
