<svg xmlns="http://www.w3.org/2000/svg" width="260" height="72.818" viewBox="0 0 260 72.818">
  <g id="Group_16152" data-name="Group 16152" transform="translate(-250 -1673.554)">
    <path id="Path_144" data-name="Path 144" d="M5.572-11.69C5.474-9.856,5.782-3.654.21-.42A6.781,6.781,0,0,1,1.946,1.218,12.375,12.375,0,0,0,6.9-5.362,11.078,11.078,0,0,0,12.292,1.2,5.986,5.986,0,0,1,13.86-.532C8.666-3,7.994-8.75,7.882-10.766q.021-.525.042-.924ZM23.464-2.114H21.42v-.42h2.044ZM21.42-4.438h2.044v.378H21.42ZM17.6-7.448v-.476h1.75v.476Zm5.6-.476v.476H21.42v-.476ZM27.006-4.06h-1.47V-5.782H21.42V-6.2h3.864V-9.17H21.42v-.42h5.236v-1.582H21.42v-.8H19.348v.8h-5.11V-9.59h5.11v.42h-3.7V-6.2h3.7v.42h-4v1.344h4v.378h-5.46v1.526h5.46v.42h-4.1V-.672h4.1V-.5c0,.238-.084.322-.35.336-.224,0-1.05,0-1.624-.028a5.92,5.92,0,0,1,.658,1.568,6.961,6.961,0,0,0,2.576-.28c.6-.28.812-.672.812-1.6V-.672h2.044V-.1h2.072V-2.534h1.47Z" transform="translate(250 1745)" fill="#fff"/>
    <path id="Path_143" data-name="Path 143" d="M7.6-5.334c.042-.532.056-1.106.084-1.708H5.46c-.014.616-.042,1.19-.07,1.708H1.806v1.89H5.054C4.55-2.044,3.388-1.12.532-.532A6.2,6.2,0,0,1,1.708,1.344c3.766-.91,5.11-2.478,5.628-4.788H9.842C9.73-1.778,9.576-.98,9.352-.756a.875.875,0,0,1-.6.168C8.372-.588,7.574-.6,6.8-.658a4.528,4.528,0,0,1,.7,2,14.555,14.555,0,0,0,2.17-.056,1.964,1.964,0,0,0,1.456-.7c.476-.546.686-1.946.84-5.124.028-.252.042-.8.042-.8ZM11.13-9.17c.49-.588,1.05-1.33,1.568-2.086l-2.3-.658A13.815,13.815,0,0,1,8.946-9.282l.322.112H6.538L8.2-9.744a8.586,8.586,0,0,0-1.12-2.24l-1.82.616a9.5,9.5,0,0,1,.966,2.2H3.808L4.8-9.632a7.59,7.59,0,0,0-1.4-2.142l-1.764.812A8.458,8.458,0,0,1,2.758-9.17H.91v3.416H2.87v-1.54h8.218v1.54h2.058V-9.17Zm8.736,5.04c.1-.392.2-.8.28-1.218a6.089,6.089,0,0,1,.392.616c.434-.112.854-.252,1.26-.392-.028.336-.056.672-.1.994Zm4.018-4.788a4.251,4.251,0,0,1-.658.84,4.679,4.679,0,0,1-.9-.84Zm2.968,0v-1.666H22.988c.168-.28.322-.574.462-.868l-1.89-.532a8.6,8.6,0,0,1-2.688,3.332,13.676,13.676,0,0,1,1.652,1.12c.126-.112.266-.238.406-.378a8.176,8.176,0,0,0,.714.826,6.81,6.81,0,0,1-1.274.434l.014-.1L19.166-7.14l-.266.084h-.476l.77-.812c-.252-.154-.574-.322-.938-.5a9.975,9.975,0,0,0,1.932-2.268l-1.288-.8-.308.07H14.168v1.694h3.038a7.766,7.766,0,0,1-.588.588c-.336-.126-.658-.238-.952-.336l-1.274,1.3a23.282,23.282,0,0,1,2.366,1.064H13.944v1.764h1.54A7.369,7.369,0,0,1,13.65-2.9,11.492,11.492,0,0,1,14.56-.91a7.078,7.078,0,0,0,1.568-2.142v2.2c0,.168-.056.2-.224.21s-.756,0-1.232-.028a7.183,7.183,0,0,1,.574,1.946A4.293,4.293,0,0,0,17.36.924c.56-.322.686-.854.686-1.736v-4.48h.434c-.084.644-.2,1.274-.308,1.75l1.344.63c.126-.35.238-.756.35-1.2v1.652h1.386a4.331,4.331,0,0,1-2.73,2.226,5.768,5.768,0,0,1,1.162,1.582,5.7,5.7,0,0,0,3.7-3.808h1.2a3.32,3.32,0,0,1-.434,1.6A.534.534,0,0,1,23.7-.7c-.224,0-.644-.014-1.092-.056a4.406,4.406,0,0,1,.546,1.862,10.294,10.294,0,0,0,1.582-.056A1.683,1.683,0,0,0,25.844.476c.406-.448.644-1.554.854-3.864.028-.252.056-.742.056-.742H23.716c.042-.378.084-.77.112-1.176H22.26c.364-.154.7-.322,1.036-.5a10.087,10.087,0,0,0,2.688,1.078,7.622,7.622,0,0,1,1.274-1.722,10.766,10.766,0,0,1-2.3-.644,6.975,6.975,0,0,0,1.2-1.82Zm10.822,1.33h-3.08V-9.254h3.08Zm0,3.6h-3.08V-5.7h3.08Zm2.044-7.14h-7.07v9.016h7.07ZM32.2-6.118l-1.246.294V-7.518H32.3V-9.394H30.954V-11.97H28.966v2.576h-1.6v1.876h1.6V-5.39c-.658.14-1.26.266-1.778.364l.5,1.946,1.274-.308v2.52c0,.2-.07.266-.266.266s-.756,0-1.246-.014A6.872,6.872,0,0,1,28,1.218,4.62,4.62,0,0,0,30.268.854c.532-.294.686-.784.686-1.708V-3.878c.5-.126.994-.252,1.484-.378ZM31.724-.98V.91h8.764V-.98ZM50.848-11.592a17.04,17.04,0,0,1-1.414,3.528l1.82.616a32.29,32.29,0,0,0,1.89-3.5ZM45.192-8.3a12.016,12.016,0,0,0-1.652-3.15l-1.862.714a12.4,12.4,0,0,1,1.54,3.262Zm3.262-3.668H46.2v4.8H42.084v2.044h8.61v.868h-8.12V-2.3h8.12V-1.26H41.748V.77h8.946v.546h2.184V-7.168H48.454Zm12.32,3.122h1.792c-.364.336-.742.672-1.148.98h-.644ZM63.42-2.884H59.08v-.63h4.34ZM59.08-.742v-.63h4.34v.63ZM67.088-6.09V-7.868H64.246a18.8,18.8,0,0,0,2.436-2.842l-1.75-.9A14.517,14.517,0,0,1,63.574-9.87V-10.6h-2.8V-11.97H58.758V-10.6H55.622v1.75h3.136v.98h-4.34V-6.09h4.34a23.7,23.7,0,0,1-4.844,2.072,12.012,12.012,0,0,1,1.2,1.68c.644-.238,1.3-.49,1.932-.77V1.344h2.03V.952h4.34v.336h2.128V-5.166h-4.7c.448-.294.9-.6,1.316-.924ZM80.332-4.942a5.489,5.489,0,0,0-5.824-5.642A6.385,6.385,0,0,0,67.9-4.424c0,2.394,1.316,4.27,3.052,4.27,1.652,0,2.912-1.876,3.738-4.676a27.861,27.861,0,0,0,.826-3.654,3.242,3.242,0,0,1,2.492,3.472A3.546,3.546,0,0,1,75.04-1.484a10.653,10.653,0,0,1-1.372.252L74.956.784C78.6.168,80.332-1.988,80.332-4.942ZM70.1-4.648a4.174,4.174,0,0,1,3.108-3.78,20.782,20.782,0,0,1-.714,3.15c-.5,1.624-.924,2.478-1.484,2.478C70.518-2.8,70.1-3.43,70.1-4.648ZM83.888-.994l2.03,1.75a12.127,12.127,0,0,0,4.8-4.284A14.971,14.971,0,0,0,92.68-8.4c.112-.49.308-1.3.49-1.932l-2.758-.378a9.33,9.33,0,0,1-.21,1.988,10.408,10.408,0,0,1-1.61,4.046A10.548,10.548,0,0,1,83.888-.994Zm.042-9.716-2.2,1.134A29.851,29.851,0,0,1,84.126-5.25L86.38-6.524A48.4,48.4,0,0,0,83.93-10.71Zm21.6-.294H102.97a11.074,11.074,0,0,1,.1,1.512v2.9c0,1.932-.2,2.926-1.134,3.92A6.4,6.4,0,0,1,98.546-.966L100.324.91a8.746,8.746,0,0,0,3.43-2.016c1.064-1.12,1.722-2.52,1.722-5.334V-9.492C105.476-10.108,105.5-10.584,105.532-11Zm-6.482.126H96.6a10.814,10.814,0,0,1,.056,1.106v4.746c0,.434-.056,1.036-.07,1.316H99.05c-.028-.364-.056-.952-.056-1.3v-4.76C98.994-10.276,99.022-10.528,99.05-10.878Zm19.264,4.2-1.624-.8a4.076,4.076,0,0,1-1.232.182h-3.22a14.441,14.441,0,0,1-1.54-.1v2.226c.434-.028,1.092-.07,1.554-.07h3.416c-.056.77-.308,2.408-.5,3.542h-4.228c-.518,0-1.106-.042-1.5-.084V.42c.588-.028.966-.042,1.5-.042h7.21c.406,0,1.19.028,1.5.042V-1.764c-.406.042-1.148.07-1.526.07h-.63c.21-1.33.56-3.542.672-4.312A5.011,5.011,0,0,1,118.314-6.678Zm3.85-.042v2.674c.574-.042,1.624-.084,2.422-.084h7.434c.574,0,1.358.07,1.722.084V-6.72c-.406.028-1.092.1-1.722.1h-7.434C123.9-6.622,122.724-6.678,122.164-6.72ZM138.5-11.27,137.27-9.394c.98.546,2.408,1.456,3.248,2.016l1.26-1.876C140.98-9.8,139.482-10.738,138.5-11.27Zm-2.87,9.9,1.274,2.24A17.078,17.078,0,0,0,141.6-.854a17.173,17.173,0,0,0,5.67-5.054l-1.3-2.324a14.284,14.284,0,0,1-5.53,5.32A15.234,15.234,0,0,1,135.632-1.372Zm.686-6.678-1.232,1.876c.994.532,2.408,1.456,3.262,2.044l1.246-1.9A38.115,38.115,0,0,0,136.318-8.05Zm14.14.014v2.03c.392-.028,1.3-.056,1.9-.056h4.312v1.33h-4.13c-.56,0-1.274-.014-1.694-.042v1.988c.364-.028,1.134-.028,1.694-.028h4.13v1.5h-5.11a12.44,12.44,0,0,1-1.246-.056V.686c.238-.014.854-.042,1.232-.042h5.124c0,.21-.014.42-.014.546h2.128c0-.266-.014-.84-.014-1.064V-6.916c0-.308,0-.868.014-1.078-.238.014-.854.028-1.19.028h-5.236C151.76-7.966,150.878-7.994,150.458-8.036Zm14.028-2.828-1.61,1.722a29.18,29.18,0,0,1,3.514,3.066l1.736-1.778A28.249,28.249,0,0,0,164.486-10.864Zm-2.072,9.3,1.442,2.24a14.94,14.94,0,0,0,5.012-1.848,15.14,15.14,0,0,0,5.446-5.306L173-8.876a13.528,13.528,0,0,1-5.348,5.6A14.407,14.407,0,0,1,162.414-1.568Zm22.722-4.48V-6.5h.756c.8,0,1.288,0,1.68.042v-2.24a8.987,8.987,0,0,1-1.694.112h-.742V-9.9a11.217,11.217,0,0,1,.1-1.386h-2.408A9.137,9.137,0,0,1,182.91-9.9v1.316h-2.94V-9.73a10.9,10.9,0,0,1,.1-1.414H177.66a12.185,12.185,0,0,1,.1,1.4v1.162H176.75a8.283,8.283,0,0,1-1.582-.154v2.3c.406-.028.826-.056,1.582-.056h1.008V-4.8a13.662,13.662,0,0,1-.084,1.582h2.366c-.028-.35-.07-.9-.07-1.582V-6.5h2.94v.5c0,3.164-1.134,4.382-3.934,5.306l1.82,1.708C184.282-.5,185.136-2.73,185.136-6.048Zm3.43.392,1.05,2.142a27.8,27.8,0,0,0,4.732-1.89v4.1a18.9,18.9,0,0,1-.112,2.03h2.688a10.455,10.455,0,0,1-.14-2.03V-6.818a26.944,26.944,0,0,0,3.738-3l-1.834-1.75a18.828,18.828,0,0,1-4,3.444A22.189,22.189,0,0,1,188.566-5.656ZM205.534-1.4a15.718,15.718,0,0,1-.168,2.114h2.66c-.07-.63-.154-1.736-.154-2.114V-5a43.663,43.663,0,0,1,4.816,2l.966-2.366a46.286,46.286,0,0,0-5.782-2.114V-9.394a16.645,16.645,0,0,1,.14-1.82h-2.646a9.78,9.78,0,0,1,.168,1.82Z" transform="translate(294 1745)" fill="#fff"/>
    <path id="Path_145" data-name="Path 145" d="M7-7.28A1.966,1.966,0,0,0,5.04-5.32,1.966,1.966,0,0,0,7-3.36,1.966,1.966,0,0,0,8.96-5.32,1.966,1.966,0,0,0,7-7.28Z" transform="translate(279 1745)" fill="#fff"/>
    <g id="logo-amano" transform="translate(250 1673.554)">
      <path id="Path_1" data-name="Path 1" d="M662.139,58.313,647.308,23.674s-.178-.354-.454-.354H630.117a.241.241,0,0,0-.269.233v4.58a.3.3,0,0,0,.339.332h2.008c1.321,0,1.719.733,1.4,1.774l-11.99,27.569c-.42,1-.745,2.244-2.128,2.336,0,0-1.732.134-2.3.134-.66,0-.677.861-.677.861v3.685s-.023.272.346.272h17.638a.4.4,0,0,0,.393-.37V60.613a.5.5,0,0,0-.517-.49h-2.625a1.264,1.264,0,0,1-.952-1.871l1.741-3.989a.725.725,0,0,1,.647-.434h13.938c.512-.017.58.3.58.3l1.836,4.075c.591,1.342-.275,1.93-1.455,1.93H645.8a.321.321,0,0,0-.3.278v4.517s.006.166.216.166h20.937a.373.373,0,0,0,.366-.322l-.009-4.269s-.036-.3-.267-.3c-.162,0-1.714-.036-1.714-.036-1.981,0-2.244-.434-2.886-1.854M635.992,46.527l3.741-8.661c.343-.828.557-.885.993-.057l3.8,8.879c.337.775.278,1.023-1.241.963H636.9c-1.251,0-1.263-.269-.911-1.123" transform="translate(-616.502 -21.561)" fill="#fff"/>
      <path id="Path_2" data-name="Path 2" d="M734.662,58.234l-14.825-34.4s-.175-.349-.459-.349c-.154,0-14.579-.012-16.735-.012a.243.243,0,0,0-.264.24l0,4.456a.3.3,0,0,0,.325.338h2.019c1.321,0,1.71.731,1.4,1.777L694.259,57.728c-.43,1-.751,2.245-2.128,2.336,0,0-1.858.134-2.427.134-.656,0-.671.863-.671.863v3.927s-.027.28.34.28h17.643a.4.4,0,0,0,.393-.378v-4a.5.5,0,0,0-.524-.488h-2.623a1.605,1.605,0,0,1-.951-2.235l1.744-3.744a.709.709,0,0,1,.653-.44c.449,0,12.055,0,13.939,0,.5-.015.564.305.564.305l1.842,3.835a1.523,1.523,0,0,1-1.455,2.289h-2.277c-.251,0-.293.278-.293.278v4.427s0,.163.214.163h20.93a.371.371,0,0,0,.366-.326V60.8s-.033-.308-.462-.308c-.163,0-1.526-.041-1.526-.041-1.973,0-2.242-.792-2.888-2.212m-26.419-11.5,4.021-8.951c.34-.83.557-.885.985-.057l3.8,8.879c.329.775.66,1.233-1.248,1.111h-6.652c-1.254,0-1.268-.125-.911-.981" transform="translate(-579.434 -21.482)" fill="#fff"/>
      <path id="Path_3" data-name="Path 3" d="M677.589,44.154l-8.055-20.387a.885.885,0,0,0-.778-.45H652.48a.333.333,0,0,0-.334.338v4.45a.313.313,0,0,0,.305.3c.295,0,1.653.042,1.653.042,1.928,0,1.884,1.106,1.884,2.6V57.99c0,.854-.234,2.159-1.84,2.159h-1.711a.268.268,0,0,0-.292.277v4.364a.268.268,0,0,0,.28.326h15.589c.287,0,.287-.343.287-.343V60.442a.249.249,0,0,0-.272-.307h-1.753a1.727,1.727,0,0,1-1.963-1.75V43.858c0-1.818.458-1.4.837-.434l8.57,21.469a.309.309,0,0,0,.322.215h5.682a.337.337,0,0,0,.292-.215l8.711-21.115c.5-1.39.943-1.543.943-.737V58.265c0,.775-.045,2-1.862,2h-1.834a.278.278,0,0,0-.3.335v4.385a.245.245,0,0,0,.252.286h18.453a.287.287,0,0,0,.278-.249V60.614s-.068-.293-.328-.293h-1.306c-2.584,0-2.5-1.333-2.5-2.112V30.689c0-2.026,1.591-2.153,2.451-2.153h1.356c.314,0,.283-.361.283-.361l.019-4.391s-.047-.369-.313-.369H688.729a.666.666,0,0,0-.6.305l-9.012,21.33c-.674,1.478-.889.647-1.529-.9" transform="translate(-598.287 -21.563)" fill="#fff"/>
      <path id="Path_4" data-name="Path 4" d="M738.43,38.86l16.815,26.661h13.386v-34c0-1.493-.322-2.74,1.976-2.74,0,0,1.218-.057,1.537-.057a.271.271,0,0,0,.293-.248V24.03s-.046-.349-.284-.349H756.249c-.293,0-.248.311-.248.311V28.47s-.045.261.262.261h1.877c1.632,0,1.923,1.2,1.923,2.109,0,0,.042,20.064.042,20.281s-.316.529-.616.066c-.331-.514-15.816-24.824-17.389-27.326a.48.48,0,0,0-.426-.292H725.241a.324.324,0,0,0-.337.381v4.421a.278.278,0,0,0,.284.23H727c1.2,0,1.854.278,1.854,2.629V58.283c0,.966-.16,2.106-2.084,2.106,0,0-1.445.012-1.764.012s-.293.36-.293.36v4.211s0,.36.3.36h15.809a.334.334,0,0,0,.347-.36V60.837a.31.31,0,0,0-.307-.286c-.269,0-1.825-.15-1.825-.15-2.063,0-1.88-1.244-1.88-2.18V38.552c-.032-1.055.385-1.278,1.272.308" transform="translate(-561.199 -21.433)" fill="#fff"/>
      <path id="Path_5" data-name="Path 5" d="M757.553,45.325c0-13.146,9.566-23.169,23.382-23.169a23.19,23.19,0,0,1,23.482,23.308c0,13.151-8.719,23.808-23.482,23.808-13.018,0-23.382-9.81-23.382-23.947m23.382,17.664c8.838,0,11.248-7.854,11.248-17.525s-3.361-16.921-11.248-16.921c-8.559,0-10.992,7.242-10.992,16.921s3.013,17.525,10.992,17.525" transform="translate(-544.417 -22.156)" fill="#fff"/>
    </g>
  </g>
</svg>
