<svg xmlns="http://www.w3.org/2000/svg" width="377.396" height="48" viewBox="0 0 377.396 48">
  <g id="Group_16396" data-name="Group 16396" transform="translate(-20 -30)">
    <g id="logo-tayorou" transform="translate(20 30)">
      <path id="Path_86" data-name="Path 86" d="M80.923,19.951H66.339V25.3H80.923A2.68,2.68,0,0,1,83.6,27.981v7H71.171l-1.954,5.436H83.6v6.63a2.68,2.68,0,0,1-2.677,2.677H66.339v5.353H80.923a8.04,8.04,0,0,0,8.031-8.031V27.981a8.04,8.04,0,0,0-8.031-8.03Z" transform="translate(-26.533 -7.981)" fill="#333"/>
      <ellipse id="Ellipse_13" data-name="Ellipse 13" cx="2.085" cy="2.218" rx="2.085" ry="2.218" transform="translate(83.124 27.581)" fill="#333"/>
      <path id="Path_87" data-name="Path 87" d="M207.246,21.819h-2.1v-3.8H199.7v3.8h-2.284a8.04,8.04,0,0,0-8.03,8.03v4.086h5.353V29.849a2.68,2.68,0,0,1,2.677-2.677h9.824a3.573,3.573,0,0,1,3.569,3.57v.831a12.737,12.737,0,0,1-.71,4.2L203.077,54.13h5.733l6.309-16.477.026-.07a18.088,18.088,0,0,0,1.025-6.008v-.833a8.933,8.933,0,0,0-8.924-8.923Z" transform="translate(-75.75 -7.21)" fill="#333"/>
      <path id="Path_88" data-name="Path 88" d="M27.732,34.779a18.053,18.053,0,0,0,.758-5.133V28.278a9.827,9.827,0,0,0-9.815-9.815h-12L0,34.386H5.8l4.429-10.568h8.441a4.467,4.467,0,0,1,4.462,4.461v1.366a12.682,12.682,0,0,1-.706,4.188l-.139.374H13.275L11.32,39.642h8.951L14.488,55.2H20.2l5.783-15.555h3.5a4.057,4.057,0,0,0-1.751-4.864Z" transform="translate(0 -7.387)" fill="#333"/>
      <path id="Path_89" data-name="Path 89" d="M136.505,18.622a16.061,16.061,0,0,0-16.043,16.043V35.9c-1.946,1.349-2.229,2.513-2.258,3.3-.07,1.889,1.4,3,2.284,3.671.1.075.223.168.335.257a11.7,11.7,0,0,0,3.588,7.253,17.684,17.684,0,0,0,12.094,5.066h0a16.061,16.061,0,0,0,16.043-16.043v-4.74A16.062,16.062,0,0,0,136.505,18.622ZM147.2,39.408A10.7,10.7,0,0,1,136.505,50.1a12.364,12.364,0,0,1-7.466-2.739,6.08,6.08,0,0,0,2.214-1.243,1.338,1.338,0,1,0-1.706-2.062,2.58,2.58,0,0,1-2.76.665,4.915,4.915,0,0,1-.637-2.32,4.041,4.041,0,0,0-1.455-3,4.314,4.314,0,0,0,1.121-2.9V34.665a10.69,10.69,0,1,1,21.38,0Z" transform="translate(-47.276 -7.451)" fill="#333"/>
      <path id="Path_90" data-name="Path 90" d="M165.331,12.994a1.785,1.785,0,0,1-1.583-2.607l2.665-5.14a1.785,1.785,0,0,1,3.169,1.642l-2.665,5.144a1.784,1.784,0,0,1-1.586.96Z" transform="translate(-65.415 -1.715)" fill="#ffad29"/>
      <path id="Path_91" data-name="Path 91" d="M155.079,9.246a1.811,1.811,0,0,1-.356-.035,1.784,1.784,0,0,1-1.4-2.1l1.148-5.676a1.785,1.785,0,1,1,3.5.707l-1.148,5.675A1.784,1.784,0,0,1,155.079,9.246Z" transform="translate(-61.312 -0.004)" fill="#ffad29"/>
      <path id="Path_92" data-name="Path 92" d="M174.352,20.02a1.785,1.785,0,0,1-1.269-3.04l4.071-4.117a1.785,1.785,0,1,1,2.538,2.509l-4.071,4.117a1.779,1.779,0,0,1-1.269.53Z" transform="translate(-69.021 -4.936)" fill="#ffad29"/>
    </g>
    <path id="Path_143" data-name="Path 143" d="M1.62-7.488h1.3v-.768H4.08v.768H5.388v-.768H6.576V-9.3H5.388v-.852H4.08V-9.3H2.916v-.852H1.62V-9.3H.552v1.044H1.62Zm.444,2.052v-.888h.8v.888Zm2.916,0h-.8v-.888h.8Zm3.984-2c.012-.828.012-1.692.012-2.616H7.668c0,.936,0,1.8-.012,2.616H6.564v1.32H7.632C7.548-3.9,7.284-2.16,6.42-.876V-1c-.744.072-1.5.144-2.244.2V-1.38H6.264v-1H4.176v-.576H6.4V-3.984H4.176v-.5h2.1V-7.272H.852v2.784H2.868v.5H.7v1.032H2.868v.576H.876v1H2.868v.7C1.956-.6,1.116-.54.444-.492L.588.7C1.98.564,3.912.384,5.808.18a4.063,4.063,0,0,1,.78.888C8.328-.492,8.8-2.892,8.928-6.12h1.128C9.984-2.232,9.876-.8,9.648-.492a.407.407,0,0,1-.4.216,8.076,8.076,0,0,1-1.068-.06A3.444,3.444,0,0,1,8.568,1,8.159,8.159,0,0,0,9.96.948a1.3,1.3,0,0,0,.876-.576c.372-.528.468-2.28.552-7.2,0-.156.012-.612.012-.612Zm4.116.42c2.088-.024,5.244-.1,8.232-.168a8.41,8.41,0,0,1,.984.972l1.068-.912A15.249,15.249,0,0,0,20.052-9.66L19-8.868c.264.156.54.336.816.516-1.116.024-2.22.036-3.264.036.42-.42.828-.9,1.2-1.356l-1.6-.48A13.108,13.108,0,0,1,14.82-8.3c-.672.012-1.3.012-1.836.012Zm7.2,2.88H15.648V-5.256H20.28ZM21.7-6.4h-7.38V-3h2.52l-.4.372A7.84,7.84,0,0,1,18.528-1.14l.948-.924A6.984,6.984,0,0,0,18.192-3h3.5ZM13.56.744a4.529,4.529,0,0,0,1.7-2.652l-1.272-.444A3.828,3.828,0,0,1,12.4-.084ZM17.592-.372c-.516,0-.6-.048-.6-.372V-2.28H15.576V-.708c0,1.212.348,1.6,1.848,1.6h1.824c1.1,0,1.512-.336,1.668-1.74a3.736,3.736,0,0,1-1.248-.5c-.06.864-.132.984-.552.984ZM20.34-1.848a8.5,8.5,0,0,1,1.992,2.5l1.26-.72A8.578,8.578,0,0,0,21.5-2.508ZM32.844-1v.672H28.092V-1Zm-.912-3.24v.624h-3.84v-.624Zm-3.84,1.644h5.256V-5.268H26.724V1.056h1.368V.732h4.752v.324H34.26v-3.1H28.092ZM35.52-9.324H32.04q.162-.306.288-.612l-1.356-.324a5.532,5.532,0,0,1-1.14,1.74v-.8H27.168c.1-.192.192-.384.276-.576l-1.332-.36a6.442,6.442,0,0,1-1.764,2.436,7.507,7.507,0,0,1,1.164.768,8.863,8.863,0,0,0,.96-1.152h.192a6.124,6.124,0,0,1,.552,1.152l1.284-.36a6.051,6.051,0,0,0-.4-.792h1.4c-.1.084-.2.168-.3.24.156.072.384.18.6.3H29.28v.84H24.864v2.376h1.344V-5.76h7.644v1.308h1.392V-6.828h-4.6v-.648a8.058,8.058,0,0,0,.66-.732H32a7.074,7.074,0,0,1,.72,1.176l1.32-.372a6.037,6.037,0,0,0-.5-.8h1.98ZM40.308-2.7c-.384.132-.78.252-1.176.372v-2.4h1.08V-6.036h-1.08V-8.148h1.284V-9.48h-3.96v1.332h1.32v2.112H36.564v1.308h1.212v2.82c-.552.156-1.044.288-1.464.4L36.636-.06c1.152-.372,2.592-.828,3.912-1.3Zm1.848-3.624h1.236v1.032H42.156Zm0-2.124h1.236V-7.44H42.156ZM45.78-7.44H44.592V-8.448H45.78Zm0,2.148H44.592V-6.324H45.78ZM44.724-.624v-1.14h2.544V-3.048H44.724V-4.08h2.412V-9.66H40.872v5.58h2.4v1.032H40.788v1.284h2.484v1.14H39.96v1.3h7.716v-1.3ZM54-6.1A1.547,1.547,0,0,0,52.464-4.56,1.547,1.547,0,0,0,54-3.024,1.547,1.547,0,0,0,55.536-4.56,1.547,1.547,0,0,0,54-6.1ZM66.876-8.2a7.179,7.179,0,0,0-.96-1.956l-1.272.42a7.476,7.476,0,0,1,.864,1.992Zm-.564,3.648c.048-.492.072-1.008.1-1.56h-1.56c-.024.564-.036,1.08-.084,1.56H61.608v1.332h2.94c-.4,1.452-1.368,2.4-4,2.952a4.963,4.963,0,0,1,.828,1.32c3.2-.78,4.32-2.184,4.74-4.272h2.592c-.108,1.764-.252,2.568-.48,2.784a.7.7,0,0,1-.5.132c-.312,0-1.056-.012-1.764-.06a3.108,3.108,0,0,1,.5,1.4,15.353,15.353,0,0,0,1.884-.024A1.516,1.516,0,0,0,69.48.5c.408-.444.576-1.632.708-4.476.024-.18.036-.576.036-.576Zm3-3.168a22.557,22.557,0,0,0,1.416-1.908l-1.6-.48a12.2,12.2,0,0,1-1.344,2.292l.264.1H63.144l.852-.4a7.256,7.256,0,0,0-1.236-1.86L61.524-9.4a7.863,7.863,0,0,1,1.068,1.68h-1.7v2.784h1.368V-6.4h7.476v1.464h1.44V-7.716Zm11.3,4.236c.048-.348.084-.708.12-1.068H79.308a10.018,10.018,0,0,1-.12,1.068H77.436v1.188h1.452A3.847,3.847,0,0,1,76.38-.06a4.036,4.036,0,0,1,.828,1.1,4.794,4.794,0,0,0,3.156-3.336h1.392A3.653,3.653,0,0,1,81.3-.5a.489.489,0,0,1-.384.132,10.163,10.163,0,0,1-1.032-.06,3.147,3.147,0,0,1,.384,1.32A9.169,9.169,0,0,0,81.612.864a1.319,1.319,0,0,0,.876-.42c.348-.384.564-1.308.756-3.384.024-.168.048-.54.048-.54Zm.528-4.3a3.646,3.646,0,0,1-.792,1.02,4.706,4.706,0,0,1-1-1.02Zm2.28,0V-8.964h-3.54a8.046,8.046,0,0,0,.444-.84L79-10.164A7.154,7.154,0,0,1,76.7-7.308a10.478,10.478,0,0,1,1.164.8,7.143,7.143,0,0,0,.54-.516,6.785,6.785,0,0,0,.852,1,7.271,7.271,0,0,1-1.464.552l.048-.276-.864-.288-.192.06h-.576l.588-.612a6.716,6.716,0,0,0-.876-.528A8.957,8.957,0,0,0,77.676-9.1l-.912-.576-.216.048H72.672v1.2h2.88a7.494,7.494,0,0,1-.756.756c-.324-.144-.66-.276-.948-.384l-.9.912a17.407,17.407,0,0,1,2.316,1.164H72.516v1.248h1.5a7.54,7.54,0,0,1-1.7,2.472,8,8,0,0,1,.648,1.38,7.27,7.27,0,0,0,1.5-2.22V-.528c0,.144-.048.168-.192.18s-.636,0-1.08-.012A4.754,4.754,0,0,1,73.6,1,3.54,3.54,0,0,0,75.288.744c.42-.216.516-.6.516-1.248V-4.728h.636a15.641,15.641,0,0,1-.384,1.656l.96.444a14.008,14.008,0,0,0,.588-2,4.543,4.543,0,0,1,.336.5,9.605,9.605,0,0,0,2.448-1.008A8.643,8.643,0,0,0,82.836-4.1a5.48,5.48,0,0,1,.9-1.212,9.337,9.337,0,0,1-2.208-.708,5.9,5.9,0,0,0,1.2-1.752ZM92.844-1v.672H88.092V-1Zm-.912-3.24v.624h-3.84v-.624Zm-3.84,1.644h5.256V-5.268H86.724V1.056h1.368V.732h4.752v.324H94.26v-3.1H88.092ZM95.52-9.324H92.04q.162-.306.288-.612l-1.356-.324a5.533,5.533,0,0,1-1.14,1.74v-.8H87.168c.1-.192.192-.384.276-.576l-1.332-.36a6.442,6.442,0,0,1-1.764,2.436,7.508,7.508,0,0,1,1.164.768,8.863,8.863,0,0,0,.96-1.152h.192a6.125,6.125,0,0,1,.552,1.152l1.284-.36a6.05,6.05,0,0,0-.4-.792h1.4c-.1.084-.2.168-.3.24.156.072.384.18.6.3H89.28v.84H84.864v2.376h1.344V-5.76h7.644v1.308h1.392V-6.828h-4.6v-.648a8.058,8.058,0,0,0,.66-.732H92a7.074,7.074,0,0,1,.72,1.176l1.32-.372a6.036,6.036,0,0,0-.5-.8h1.98ZM100.308-2.7c-.384.132-.78.252-1.176.372v-2.4h1.08V-6.036h-1.08V-8.148h1.284V-9.48h-3.96v1.332h1.32v2.112H96.564v1.308h1.212v2.82c-.552.156-1.044.288-1.464.4L96.636-.06c1.152-.372,2.592-.828,3.912-1.3Zm1.848-3.624h1.236v1.032h-1.236Zm0-2.124h1.236V-7.44h-1.236ZM105.78-7.44h-1.188V-8.448h1.188Zm0,2.148h-1.188V-6.324h1.188ZM104.724-.624v-1.14h2.544V-3.048h-2.544V-4.08h2.412V-9.66h-6.264v5.58h2.4v1.032h-2.484v1.284h2.484v1.14H99.96v1.3h7.716v-1.3Zm14.4-3.6a4.57,4.57,0,0,0-4.848-4.68,5.332,5.332,0,0,0-5.508,5.136c0,2.028,1.1,3.492,2.436,3.492,1.308,0,2.34-1.488,3.06-3.912a24.268,24.268,0,0,0,.72-3.252,2.967,2.967,0,0,1,2.52,3.168,3.256,3.256,0,0,1-2.736,3.216,9.229,9.229,0,0,1-1.116.192l.9,1.428C117.576.1,119.124-1.692,119.124-4.224Zm-8.82.3a3.777,3.777,0,0,1,3.048-3.48,18.013,18.013,0,0,1-.636,2.9c-.492,1.62-.96,2.376-1.464,2.376C110.784-2.124,110.3-2.712,110.3-3.924Zm12.72-.708c.264-.924.528-1.932.756-2.9h.06c.252.96.492,1.98.768,2.9l.264.972H122.76ZM119.952,0h1.8l.624-2.28h2.88L125.88,0h1.86l-2.856-8.892H122.8Zm8.832,0h1.6V-3.708c0-.84-.144-2.076-.228-2.916h.048l.708,2.088L132.288-.8h1.02l1.368-3.732.72-2.088h.06c-.1.84-.228,2.076-.228,2.916V0h1.62V-8.892H134.88L133.4-4.728c-.192.552-.348,1.14-.54,1.7h-.06c-.18-.564-.348-1.152-.54-1.7l-1.512-4.164h-1.968Zm12.18-4.632c.264-.924.528-1.932.756-2.9h.06c.252.96.492,1.98.768,2.9l.264.972H140.7ZM137.892,0h1.8l.624-2.28h2.88L143.82,0h1.86l-2.856-8.892h-2.088Zm8.832,0h1.68V-3.564c0-1.02-.132-2.136-.216-3.1h.06l.9,1.908L151.716,0h1.8V-8.892h-1.68V-5.34c0,1.008.144,2.184.228,3.108H152l-.888-1.92-2.58-4.74h-1.812ZM159.24.168c2.352,0,3.972-1.764,3.972-4.644s-1.62-4.572-3.972-4.572-3.972,1.68-3.972,4.572S156.888.168,159.24.168Zm0-1.536c-1.32,0-2.16-1.212-2.16-3.108s.84-3.048,2.16-3.048,2.16,1.14,2.16,3.048S160.56-1.368,159.24-1.368ZM169.32-9.4l-1.788-.18a12.213,12.213,0,0,1-.252,2.532c-.612.06-1.176.1-1.548.108a11.458,11.458,0,0,1-1.284,0l.144,1.632c.372-.06,1-.144,1.344-.2.216-.024.6-.072,1.032-.12a18.362,18.362,0,0,1-2.436,5.64l1.56.624A25.29,25.29,0,0,0,168.54-5.8c.348-.024.648-.048.84-.048.744,0,1.164.132,1.164,1.092a9.524,9.524,0,0,1-.492,3.324.88.88,0,0,1-.9.516,6.934,6.934,0,0,1-1.464-.252L167.94.42a7.886,7.886,0,0,0,1.44.168,1.908,1.908,0,0,0,1.968-1.1,11.757,11.757,0,0,0,.684-4.4c0-1.728-.9-2.292-2.172-2.292-.252,0-.6.024-1.008.048.084-.432.18-.876.252-1.236C169.164-8.7,169.248-9.084,169.32-9.4Zm5.34-1-.96.384a13.572,13.572,0,0,1,.972,1.656l.948-.408A15.963,15.963,0,0,0,174.66-10.392Zm-1.428.54-.948.4A13.268,13.268,0,0,1,173.1-8.04l-1.08.468a13.5,13.5,0,0,1,2.016,4.5l1.524-.7A21.776,21.776,0,0,0,173.6-7.956l.588-.252C173.964-8.652,173.532-9.408,173.232-9.852Zm7.644,1.068h4.968v.636h1.32V-9.792h-7.536v1.644h1.248Zm.528,4.9v-.468h1.224v.468Zm0-1.764h1.224v.468H181.4Zm3.888,0v.468H184.02v-.468Zm0,1.764H184.02v-.468h1.272ZM182.628-.756h1.392v-.792h3.264V-2.58H184.02v-.444h2.544V-6.54H184.02v-.42h2.748v-.984H184.02v-.624h-1.392v.624h-2.664v.984h2.664v.42h-2.436v3.516h2.436v.444H179.52v1.032h3.108Zm-3.252-7.2a10.428,10.428,0,0,0-1.884-1.908l-1.092.816a9.351,9.351,0,0,1,1.8,1.992Zm-.324,2.448h-2.7V-4.2H177.7v2.616a14.382,14.382,0,0,1-1.488,1.1L176.88.936c.612-.516,1.1-.972,1.584-1.44A3.738,3.738,0,0,0,181.572.828c1.464.06,4.008.036,5.5-.036A6.507,6.507,0,0,1,187.512-.6c-1.656.132-4.488.168-5.928.108a2.76,2.76,0,0,1-2.532-1.188ZM196.74-.564h-5.628V-1.608h5.628Zm-4.656-4.884h3.564v.84h-3.564Zm4.944,1.884V-6.5h-6.264v2.94h2.184c-.048.24-.12.492-.18.732h-3.012v3.9h1.356v-.4h5.628v.4h1.416v-3.9h-3.972c.108-.228.216-.468.312-.732Zm.312-4.74c.336-.4.7-.876,1.044-1.332l-1.536-.48A8.975,8.975,0,0,1,195.78-8.3h-1.968l.84-.312a8.074,8.074,0,0,0-.912-1.584l-1.248.42a9.8,9.8,0,0,1,.78,1.476h-1.848l.384-.168a7.747,7.747,0,0,0-1.068-1.536l-1.236.54A9.471,9.471,0,0,1,190.3-8.3h-1.464v2.556h1.308V-7.092h7.5v1.344h1.38V-8.3ZM207.7-9.672h-1.74a8.7,8.7,0,0,1,.12,1.044c.012.1.012.216.024.372-1.632.024-3.816.072-5.184.072l.036,1.452c1.476-.084,3.348-.156,5.16-.18.012.264.012.54.012.8a3.114,3.114,0,0,0-.48-.036,2.263,2.263,0,0,0-2.4,2.244,2.117,2.117,0,0,0,2.064,2.208,2.566,2.566,0,0,0,.54-.06A5.392,5.392,0,0,1,202.92-.384L204.2.888c2.928-.816,3.84-2.808,3.84-4.368a3.054,3.054,0,0,0-.432-1.644c0-.528-.012-1.188-.012-1.8,1.632,0,2.748.024,3.468.06l.012-1.416c-.624-.012-2.268.012-3.48.012.012-.144.012-.276.012-.372C207.624-8.832,207.672-9.48,207.7-9.672Zm-3.012,5.748a.9.9,0,0,1,.924-.96.885.885,0,0,1,.78.42c.168,1.056-.276,1.44-.78,1.44A.9.9,0,0,1,204.684-3.924ZM216.54-1.416c0-.3.288-.576.744-.576.648,0,1.092.5,1.164,1.284a6.265,6.265,0,0,1-.7.036C217.032-.672,216.54-.972,216.54-1.416ZM214.5-9.144l.048,1.56c.276-.036.66-.072.984-.1.636-.036,2.292-.108,2.9-.12-.588.516-1.836,1.524-2.508,2.076-.708.588-2.16,1.812-3.012,2.5L214.008-2.1c1.284-1.464,2.484-2.436,4.32-2.436,1.416,0,2.5.732,2.5,1.812a1.739,1.739,0,0,1-1,1.632,2.4,2.4,0,0,0-2.556-2.052,2.011,2.011,0,0,0-2.148,1.872c0,1.2,1.26,1.968,2.928,1.968,2.9,0,4.344-1.5,4.344-3.4,0-1.752-1.548-3.024-3.588-3.024a4.688,4.688,0,0,0-1.14.132c.756-.6,2.016-1.656,2.664-2.112.276-.2.564-.372.84-.552l-.78-1.068a5.243,5.243,0,0,1-.912.132c-.684.06-3.252.108-3.888.108A8.328,8.328,0,0,1,214.5-9.144ZM5.232,8.256H3.576A9.657,9.657,0,0,1,3.66,9.312c0,.2,0,.552-.012.972-.24.012-.48.024-.7.024a13.307,13.307,0,0,1-1.656-.1l.024,1.452a14.712,14.712,0,0,0,1.68.06c.192,0,.408-.012.636-.024v1.008c0,.276,0,.564.012.852C2.172,14.2.972,15.288.972,16.332c0,1.272,1.644,2.28,2.808,2.28.792,0,1.32-.4,1.32-1.884,0-.408-.024-1.344-.048-2.292A8.09,8.09,0,0,1,7.308,14.1c1.044,0,1.764.48,1.764,1.3,0,.876-.768,1.356-1.74,1.536a9.24,9.24,0,0,1-1.476.084l.552,1.548a10.987,10.987,0,0,0,1.572-.192c1.908-.48,2.652-1.548,2.652-2.964,0-1.656-1.452-2.616-3.3-2.616a9.943,9.943,0,0,0-2.3.312V12.66c0-.348,0-.72.012-1.08.78-.1,1.608-.216,2.292-.372L7.3,9.72a14.7,14.7,0,0,1-2.208.432c.012-.3.024-.588.036-.852C5.148,8.988,5.2,8.472,5.232,8.256Zm3.42,1.3-.66,1.164a19.093,19.093,0,0,1,2.892,1.752l.72-1.224A25.076,25.076,0,0,0,8.652,9.552Zm-6.2,6.72c0-.42.492-.912,1.224-1.308.024.648.036,1.2.036,1.5,0,.408-.168.5-.384.5C3.012,16.968,2.448,16.644,2.448,16.272ZM18.732,9.5H20.28v1.4c0,.792.108,1.056.336,1.284a1.307,1.307,0,0,0,.9.312h.72a1.754,1.754,0,0,0,.72-.144.879.879,0,0,0,.456-.516,5.213,5.213,0,0,0,.18-1.3,3.94,3.94,0,0,1-1.068-.564c-.012.444-.024.828-.048,1s-.072.24-.12.264a.4.4,0,0,1-.18.036h-.252a.235.235,0,0,1-.168-.048c-.036-.048-.036-.156-.036-.372v-2.6H17.376V9.492a2.919,2.919,0,0,1-1.212,2.616,6.171,6.171,0,0,1,1.176.8,4.026,4.026,0,0,0,1.392-3.384Zm-3.84-1.656a9.106,9.106,0,0,1-2.532,2.376,9.512,9.512,0,0,1,.708,1.2,12.486,12.486,0,0,0,3.168-3.036Zm.372,2.508A11.115,11.115,0,0,1,12.24,13.5,8.627,8.627,0,0,1,13,14.868a11.861,11.861,0,0,0,1.056-.924v5.088h1.38v-6.6a14.167,14.167,0,0,0,1.1-1.548ZM20.94,14.28a6.392,6.392,0,0,1-1.26,1.632,5.726,5.726,0,0,1-1.212-1.632Zm.984-1.344L21.66,13H16.548V14.28H18.24l-1.068.324A8.109,8.109,0,0,0,18.6,16.74a9.087,9.087,0,0,1-2.712,1.14,5.9,5.9,0,0,1,.78,1.2A11.118,11.118,0,0,0,19.68,17.7a8.664,8.664,0,0,0,3.144,1.38,5.88,5.88,0,0,1,.912-1.272,8.908,8.908,0,0,1-2.916-1.044,7.923,7.923,0,0,0,2.064-3.4Zm13.176-3H30.72V7.848H29.232V9.936h-4.26v1.4H35.1ZM29,16.392a19.627,19.627,0,0,0-1.128-4.608l-1.368.36a19.454,19.454,0,0,1,1.032,4.632Zm3.072.756a48.838,48.838,0,0,0,1.5-5.112l-1.644-.3a29.991,29.991,0,0,1-1.368,5.412H24.588v1.428h10.86V17.148Zm9.36-8.712-1.7-.072a5.442,5.442,0,0,1-.06,1.212c-.024.144-.048.312-.072.492a17.151,17.151,0,0,1-2.352-.228v1.488c.612.06,1.32.1,2.076.108a19.2,19.2,0,0,1-1.368,4.032l1.416.5a4.435,4.435,0,0,1,.336-.528,4.152,4.152,0,0,1,3.324-1.4c1.176,0,1.788.6,1.788,1.32,0,1.764-2.652,2.088-5.28,1.656l.42,1.548c3.876.42,6.48-.552,6.48-3.252,0-1.536-1.284-2.568-3.228-2.568a5.847,5.847,0,0,0-2.976.756c.18-.588.372-1.356.54-2.088,1.608-.084,3.516-.312,4.764-.516l-.024-1.428a29.382,29.382,0,0,1-4.44.564c.024-.132.048-.264.072-.372C41.232,9.264,41.3,8.856,41.436,8.436Zm7.836,5.244a16.2,16.2,0,0,0,.468-3.348L48.732,10.2a15.692,15.692,0,0,1-.492,3.132Zm4.56,2.592V15.72H57.42v.552Zm3.588-2.124v.564H53.832v-.564ZM58.764,13.1H52.512v5.952h1.32v-1.8H57.42v.4c0,.144-.06.192-.228.192s-.72.012-1.212-.024a4.729,4.729,0,0,1,.384,1.212,4.592,4.592,0,0,0,1.848-.2c.432-.192.552-.528.552-1.152ZM56.3,11.628v-.516h2.58v-.96H56.3v-.48h2.9V8.652H56.3V7.836H54.888v.816H52.08v1.02h2.808v.48H52.4V11.1a14.315,14.315,0,0,0-.672-1.632l-.684.288V7.836H49.764v11.2h1.284V10.308a10.033,10.033,0,0,1,.444,1.32l.936-.456-.024-.06h2.484v.516h-3.18v1.02h7.86v-1.02ZM64.056,13.5h-1.74l.384-.108a5.129,5.129,0,0,0-.42-1.284H64.1a12.383,12.383,0,0,1-.432,1.284Zm-.2-3.42h1.56V8.9h-1.56V7.86h-1.32V8.9H60.816V10.08h1.716v.828H60.4v1.2h1.188l-.432.108a6.837,6.837,0,0,1,.4,1.284h-.9v1.2h1.884v.924H60.744v1.2h1.788v2.184h1.32V16.824h1.692v-1.2H63.852V14.7h1.824V13.5h-.9c.168-.36.348-.828.552-1.272l-.468-.12h1v-1.2h-2Zm3.516,4a11.869,11.869,0,0,0,1.152,2.592,6.218,6.218,0,0,1-1.152,1.224Zm2.5-.492a8.718,8.718,0,0,1-.636,1.86,9.03,9.03,0,0,1-.852-1.86ZM70.5,12.4l-.24.06H67.368V9.588h2.388v.984c0,.132-.06.168-.24.18s-.84,0-1.428-.024a4.9,4.9,0,0,1,.408,1.224,5.562,5.562,0,0,0,1.98-.2c.468-.192.6-.54.6-1.152V8.34h-5V19.032h1.3v-.708a4.14,4.14,0,0,1,.66.744,6.624,6.624,0,0,0,1.308-1.284,6.305,6.305,0,0,0,1.5,1.272,4.936,4.936,0,0,1,.924-1.128,5.789,5.789,0,0,1-1.668-1.308,12.257,12.257,0,0,0,1.26-3.924ZM82.116,9.18l-1.788-.624a7.484,7.484,0,0,1-.288,1.1,12.444,12.444,0,0,1-1.332,2.856c-.972-.72-2.232-1.584-3.192-2.172L74.5,11.568a32.992,32.992,0,0,1,3.24,2.28,13.205,13.205,0,0,1-4.56,3.54L74.52,18.6a15,15,0,0,0,4.464-3.708,24.163,24.163,0,0,1,2.664,2.652l1.236-1.368A31.422,31.422,0,0,0,80,13.524a18.123,18.123,0,0,0,1.608-3.264C81.732,9.984,81.96,9.456,82.116,9.18Zm4.14-.24v1.548c.36-.024.876-.036,1.284-.036h3.924c.42,0,.888.012,1.3.036V8.94a9.419,9.419,0,0,1-1.3.1H87.54A8.979,8.979,0,0,1,86.256,8.94Zm-1.392,3.072v1.572c.336-.024.8-.048,1.152-.048h3.3a5.157,5.157,0,0,1-.744,2.652A4.9,4.9,0,0,1,86.4,17.9l1.4,1.02a5.687,5.687,0,0,0,2.412-2.3,7.613,7.613,0,0,0,.768-3.084h2.892c.336,0,.792.012,1.092.036v-1.56a9.075,9.075,0,0,1-1.092.072h-7.86A9.136,9.136,0,0,1,84.864,12.012Zm8.616-3.9-.96.4a15.279,15.279,0,0,1,.948,1.668l.96-.42C94.2,9.312,93.78,8.556,93.48,8.112Zm1.416-.54-.948.4a14.158,14.158,0,0,1,.96,1.656l.96-.42A18.769,18.769,0,0,0,94.9,7.572Zm1.548,7.008L97.152,16a25.034,25.034,0,0,0,3.444-1.4V17.76c0,.42-.036,1.056-.06,1.3h1.776a6.681,6.681,0,0,1-.084-1.3V13.644a15.729,15.729,0,0,0,2.688-2.184L103.728,10.3a12.5,12.5,0,0,1-2.988,2.568A15.845,15.845,0,0,1,96.444,14.58Zm22.176-4.7-.948-.888a6.189,6.189,0,0,1-1.224.108H109.98a9.513,9.513,0,0,1-1.464-.12v1.668c.564-.048.96-.084,1.464-.084h6.252a7.136,7.136,0,0,1-2.208,2.232l1.248,1a12.222,12.222,0,0,0,2.88-3.288A6.042,6.042,0,0,1,118.62,9.876Zm-4.9,1.62h-1.74a6.652,6.652,0,0,1,.084,1.08c0,1.968-.288,3.24-1.812,4.3a4.742,4.742,0,0,1-1.26.66l1.4,1.14C113.664,16.92,113.724,14.472,113.724,11.5Z" transform="translate(175 56)" fill="#333"/>
  </g>
</svg>
