<svg xmlns="http://www.w3.org/2000/svg" xmlns:xlink="http://www.w3.org/1999/xlink" width="197.49" height="48.375" viewBox="0 0 197.49 48.375">
  <defs>
    <clipPath id="clip-path">
      <rect width="197.49" height="48.375" fill="none"/>
    </clipPath>
  </defs>
  <g id="Repeat_Grid_1" data-name="Repeat Grid 1" clip-path="url(#clip-path)">
    <g id="Group_105" data-name="Group 105" transform="translate(-320 -6311.005)">
      <path id="Path_143" data-name="Path 143" d="M4.17-8.24C4.1-6.92,4.24-2.38.25-.17a4.167,4.167,0,0,1,1,.95,8.539,8.539,0,0,0,3.7-5.02A7.93,7.93,0,0,0,8.89.78,3.909,3.909,0,0,1,9.81-.23C6.08-1.98,5.58-6.29,5.5-7.67c.01-.21.02-.41.03-.57Zm13.7,6.8h-1.8v-.47h1.8Zm-1.8-1.81h1.8v.43h-1.8ZM13.29-5.24v-.48h1.57v.48Zm4.4-.48v.48H16.07v-.48Zm2.43,2.9H19.08V-4.05H16.07v-.44h2.84V-6.47H16.07v-.41h3.82v-.94H16.07v-.65H14.86v.65H11.13v.94h3.73v.41H12.15v1.98h2.71v.44H11.9v.8h2.96v.43H10.9v.91h3.96v.47H11.82v.86h3.04v.31c0,.18-.06.24-.25.25-.16,0-.75,0-1.23-.02a3.666,3.666,0,0,1,.39.94A5.266,5.266,0,0,0,15.54.73c.39-.17.53-.41.53-1V-.58h1.8v.41h1.21V-1.91h1.04ZM26-5.08A1.289,1.289,0,0,0,24.72-3.8,1.289,1.289,0,0,0,26-2.52,1.289,1.289,0,0,0,27.28-3.8,1.289,1.289,0,0,0,26-5.08ZM37.23-6.83a5.983,5.983,0,0,0-.8-1.63l-1.06.35a6.23,6.23,0,0,1,.72,1.66Zm-.47,3.04c.04-.41.06-.84.08-1.3h-1.3c-.02.47-.03.9-.07,1.3H32.84v1.11h2.45c-.33,1.21-1.14,2-3.33,2.46a4.136,4.136,0,0,1,.69,1.1c2.67-.65,3.6-1.82,3.95-3.56h2.16c-.09,1.47-.21,2.14-.4,2.32a.581.581,0,0,1-.42.11c-.26,0-.88-.01-1.47-.05A2.59,2.59,0,0,1,36.89.87,12.794,12.794,0,0,0,38.46.85,1.264,1.264,0,0,0,39.4.42c.34-.37.48-1.36.59-3.73.02-.15.03-.48.03-.48Zm2.5-2.64a18.8,18.8,0,0,0,1.18-1.59l-1.33-.4a10.166,10.166,0,0,1-1.12,1.91l.22.08H34.12l.71-.33A6.047,6.047,0,0,0,33.8-8.31l-1.03.48a6.553,6.553,0,0,1,.89,1.4H32.24v2.32h1.14V-5.33h6.23v1.22h1.2V-6.43ZM49.18-2.9c.04-.29.07-.59.1-.89H48.09a8.348,8.348,0,0,1-.1.89H46.53v.99h1.21A3.206,3.206,0,0,1,45.65-.05a3.364,3.364,0,0,1,.69.92,4,4,0,0,0,2.63-2.78h1.16a3.044,3.044,0,0,1-.38,1.49.407.407,0,0,1-.32.11,8.469,8.469,0,0,1-.86-.05,2.622,2.622,0,0,1,.32,1.1A7.641,7.641,0,0,0,50.01.72a1.1,1.1,0,0,0,.73-.35c.29-.32.47-1.09.63-2.82.02-.14.04-.45.04-.45Zm.44-3.58a3.039,3.039,0,0,1-.66.85,3.921,3.921,0,0,1-.83-.85Zm1.9,0v-.99H48.57a6.7,6.7,0,0,0,.37-.7l-1.11-.3a5.961,5.961,0,0,1-1.91,2.38,8.732,8.732,0,0,1,.97.67,5.953,5.953,0,0,0,.45-.43,5.654,5.654,0,0,0,.71.83,6.059,6.059,0,0,1-1.22.46l.04-.23-.72-.24-.16.05h-.48L46-5.49a5.6,5.6,0,0,0-.73-.44,7.464,7.464,0,0,0,1.46-1.65l-.76-.48-.18.04H42.56v1h2.4a6.245,6.245,0,0,1-.63.63c-.27-.12-.55-.23-.79-.32l-.75.76a14.507,14.507,0,0,1,1.93.97H42.43v1.04h1.25a6.283,6.283,0,0,1-1.42,2.06A6.664,6.664,0,0,1,42.8-.73a6.059,6.059,0,0,0,1.25-1.85V-.44c0,.12-.04.14-.16.15s-.53,0-.9-.01A3.962,3.962,0,0,1,43.33.83,2.95,2.95,0,0,0,44.74.62c.35-.18.43-.5.43-1.04V-3.94h.53a13.034,13.034,0,0,1-.32,1.38l.8.37a11.673,11.673,0,0,0,.49-1.67,3.785,3.785,0,0,1,.28.42,8,8,0,0,0,2.04-.84,7.2,7.2,0,0,0,2.04.86,4.567,4.567,0,0,1,.75-1.01,7.781,7.781,0,0,1-1.84-.59,4.912,4.912,0,0,0,1-1.46Zm8.8,1.21H57.81V-6.73h2.51Zm0,2.62H57.81V-4.16h2.51Zm1.19-5.18H56.67v6.28h4.84ZM56.29-4.25,55.31-4V-5.47h1.05v-1.1H55.31V-8.46H54.15v1.89H52.91v1.1h1.24v1.75c-.5.12-.98.23-1.37.31l.31,1.14,1.06-.28V-.47c0,.14-.05.19-.19.19s-.55,0-.94-.01A3.951,3.951,0,0,1,53.35.79,3.22,3.22,0,0,0,54.87.57c.33-.17.44-.46.44-1.04V-2.85c.38-.1.75-.21,1.12-.31ZM55.98-.57V.54h6.14V-.57Zm14.7-7.6a14.324,14.324,0,0,1-1.09,2.5l1.04.36a22.535,22.535,0,0,0,1.38-2.47ZM66.4-5.83a9.178,9.178,0,0,0-1.23-2.25l-1.09.43a9.432,9.432,0,0,1,1.17,2.3Zm2.26-2.65H67.35v3.46H64.32v1.19h6.25v.92H64.66v1.15h5.91V-.72H64.09V.46h6.48V.87h1.27V-5.02H68.66Zm9.75,2.12h1.63a13.655,13.655,0,0,1-1.08.91h-.55Zm2.18,4.37H77.15v-.64h3.44ZM77.15-.41v-.68h3.44v.68ZM82.98-4.4V-5.45H80.66a14.627,14.627,0,0,0,1.97-2.2l-1.02-.52A12.178,12.178,0,0,1,80.58-6.9v-.49H78.41V-8.47H77.23v1.08H74.88v1.03h2.35v.91H74.02V-4.4h3.4a17.718,17.718,0,0,1-3.71,1.66,6.471,6.471,0,0,1,.72.98c.51-.19,1.03-.41,1.53-.63V.88h1.19V.58h3.44V.84h1.25V-3.6H78.2c.41-.26.79-.52,1.18-.8Zm10.29.88a3.808,3.808,0,0,0-4.04-3.9,4.443,4.443,0,0,0-4.59,4.28c0,1.69.92,2.91,2.03,2.91,1.09,0,1.95-1.24,2.55-3.26a20.223,20.223,0,0,0,.6-2.71,2.472,2.472,0,0,1,2.1,2.64A2.714,2.714,0,0,1,89.64-.88a7.691,7.691,0,0,1-.93.16L89.46.47C91.98.08,93.27-1.41,93.27-3.52Zm-7.35.25a3.148,3.148,0,0,1,2.54-2.9,15.01,15.01,0,0,1-.53,2.42c-.41,1.35-.8,1.98-1.22,1.98C86.32-1.77,85.92-2.26,85.92-3.27ZM96.94-.58,98.13.44a8.465,8.465,0,0,0,3.47-3.07,10.511,10.511,0,0,0,1.39-3.51c.07-.29.18-.78.3-1.17l-1.62-.22a5.59,5.59,0,0,1-.13,1.21,7.8,7.8,0,0,1-1.18,3.02A7.6,7.6,0,0,1,96.94-.58Zm-.21-6.9-1.28.66A22.668,22.668,0,0,1,97.14-3.8l1.32-.75C98.09-5.25,97.23-6.78,96.73-7.48Zm16.3-.28h-1.51a7.054,7.054,0,0,1,.06,1v1.9c0,1.56-.13,2.31-.82,3.06a4.524,4.524,0,0,1-2.4,1.26L109.4.56a5.888,5.888,0,0,0,2.43-1.44c.74-.82,1.16-1.75,1.16-3.9V-6.76C112.99-7.16,113.01-7.48,113.03-7.76Zm-4.64.08h-1.44a7.1,7.1,0,0,1,.04.77v3.37c0,.3-.04.69-.05.88h1.45c-.02-.23-.03-.62-.03-.87V-6.91C108.36-7.23,108.37-7.45,108.39-7.68Zm14.7,2.91-.97-.47a2.264,2.264,0,0,1-.74.11h-2.56c-.27,0-.73-.03-.99-.06v1.32c.29-.02.68-.05,1-.05h2.7c-.03.56-.25,1.98-.39,2.83H117.9a9.607,9.607,0,0,1-.99-.05V.16c.38-.02.63-.03.99-.03h5.26c.27,0,.76.02.96.03V-1.13c-.26.03-.72.04-.98.04h-.64c.15-.95.41-2.67.49-3.26A2.788,2.788,0,0,1,123.09-4.77Zm3.83.14v1.57c.37-.03,1.04-.05,1.61-.05h5.37c.42,0,.93.04,1.17.05V-4.63c-.26.02-.7.06-1.17.06h-5.37C128.01-4.57,127.28-4.6,126.92-4.63Zm12.47-3.29-.73,1.1c.66.37,1.7,1.05,2.26,1.44l.75-1.11C141.15-6.85,140.05-7.56,139.39-7.92Zm-1.86,7.1L138.28.5a12.168,12.168,0,0,0,3.34-1.24,12.074,12.074,0,0,0,3.98-3.59l-.77-1.36a10.194,10.194,0,0,1-3.89,3.75A10.835,10.835,0,0,1,137.53-.82Zm.32-4.82-.73,1.11c.67.35,1.71,1.03,2.28,1.42l.73-1.12C139.62-4.59,138.52-5.28,137.85-5.64Zm11.08-.01v1.21c.24-.02.87-.04,1.24-.04h3.3v1.21h-3.19c-.38,0-.83-.01-1.09-.03v1.18c.23-.01.71-.02,1.09-.02h3.19V-.81h-3.78a8.58,8.58,0,0,1-.87-.04V.38c.17-.01.58-.03.86-.03h3.79c0,.15,0,.31-.01.4h1.26c0-.18-.01-.52-.01-.68V-4.95c0-.21,0-.54.01-.67-.16.01-.53.02-.77.02h-3.78C149.8-5.6,149.19-5.62,148.93-5.65ZM159.71-7.6l-.94,1a20.793,20.793,0,0,1,2.5,2.16l1.02-1.04A20.2,20.2,0,0,0,159.71-7.6ZM158.46-.94,159.3.38a10.83,10.83,0,0,0,3.71-1.41,10.634,10.634,0,0,0,3.7-3.7l-.78-1.41a9.416,9.416,0,0,1-3.64,3.89A10.307,10.307,0,0,1,158.46-.94Zm16.82-3.48v-.33h.74c.53,0,.88.01,1.1.03V-6.05a5.926,5.926,0,0,1-1.1.07h-.74V-7.03a6.3,6.3,0,0,1,.07-.93h-1.43a6.6,6.6,0,0,1,.06.93v1.05h-2.37v-.99a6.112,6.112,0,0,1,.06-.9h-1.42c.03.3.06.61.06.9v.99h-.85a6.5,6.5,0,0,1-1.08-.09v1.36c.22-.02.58-.04,1.08-.04h.85v1.36a8.088,8.088,0,0,1-.06,1.05h1.4c-.01-.2-.04-.61-.04-1.05V-4.75h2.37v.38c0,2.46-.85,3.32-2.78,3.99L172.27.63C174.68-.43,175.28-1.94,175.28-4.42Zm3.64.53.63,1.26a20.038,20.038,0,0,0,3.53-1.44v3.2a11.2,11.2,0,0,1-.07,1.31h1.58a6.876,6.876,0,0,1-.09-1.31V-4.91a18.342,18.342,0,0,0,2.69-2.17l-1.08-1.03a12.82,12.82,0,0,1-2.82,2.43A16.08,16.08,0,0,1,178.92-3.89ZM191.94-.96a10.981,10.981,0,0,1-.1,1.4h1.56c-.04-.41-.09-1.11-.09-1.4V-3.79a28.884,28.884,0,0,1,3.61,1.49l.57-1.38a32.66,32.66,0,0,0-4.18-1.55V-6.71a10.87,10.87,0,0,1,.09-1.2h-1.56a6.941,6.941,0,0,1,.1,1.2Z" transform="translate(320 6358.48)" fill="#fff"/>
      <g id="logo-amano" transform="translate(320 6311.005)">
        <path id="Path_1" data-name="Path 1" d="M644.586,44.854l-9.127-21.317s-.11-.218-.279-.218h-10.3a.148.148,0,0,0-.166.143v2.818a.187.187,0,0,0,.208.2h1.236c.813,0,1.058.451.864,1.092l-7.379,16.966c-.258.617-.458,1.381-1.309,1.438,0,0-1.066.083-1.416.083-.406,0-.417.53-.417.53v2.268s-.014.167.213.167h10.854a.246.246,0,0,0,.242-.228V46.269a.308.308,0,0,0-.318-.3h-1.615a.778.778,0,0,1-.586-1.151l1.071-2.455a.446.446,0,0,1,.4-.267h8.577c.315-.01.357.186.357.186l1.13,2.508c.364.826-.169,1.187-.9,1.187h-1.4a.2.2,0,0,0-.186.171v2.779s0,.1.133.1h12.885a.23.23,0,0,0,.225-.2l-.006-2.627s-.022-.187-.165-.187c-.1,0-1.054-.022-1.054-.022-1.219,0-1.381-.267-1.776-1.141M628.5,37.6l2.3-5.33c.211-.51.343-.545.611-.035l2.337,5.464c.207.477.171.63-.764.592h-3.926c-.77,0-.777-.166-.561-.691" transform="translate(-616.502 -22.238)" fill="#fff"/>
        <path id="Path_2" data-name="Path 2" d="M717.113,44.865,707.99,23.7s-.108-.215-.283-.215l-10.3-.007a.15.15,0,0,0-.163.148l0,2.742a.185.185,0,0,0,.2.208h1.242c.813,0,1.053.45.864,1.094L692.25,44.553c-.265.617-.462,1.382-1.309,1.438,0,0-1.144.083-1.493.083-.4,0-.413.531-.413.531v2.417s-.017.172.209.172H700.1a.248.248,0,0,0,.242-.232V46.5a.31.31,0,0,0-.323-.3h-1.614a.988.988,0,0,1-.585-1.375l1.073-2.3a.437.437,0,0,1,.4-.271c.276,0,7.419,0,8.578,0,.307-.009.347.188.347.188l1.134,2.36a.937.937,0,0,1-.9,1.409h-1.4c-.154,0-.18.171-.18.171V49.1s0,.1.132.1h12.88a.228.228,0,0,0,.225-.2V46.441s-.02-.19-.285-.19c-.1,0-.939-.025-.939-.025-1.214,0-1.38-.487-1.777-1.361M700.855,37.79l2.474-5.509c.209-.51.343-.545.606-.035l2.341,5.464c.2.477.406.759-.768.683h-4.093c-.772,0-.78-.077-.561-.6" transform="translate(-621.588 -22.248)" fill="#fff"/>
        <path id="Path_3" data-name="Path 3" d="M667.8,36.14l-4.957-12.546a.545.545,0,0,0-.479-.277H652.35a.2.2,0,0,0-.206.208v2.739a.193.193,0,0,0,.188.186c.181,0,1.017.026,1.017.026,1.187,0,1.16.681,1.16,1.6v16.58c0,.525-.144,1.329-1.133,1.329h-1.053a.165.165,0,0,0-.179.17v2.685a.165.165,0,0,0,.172.2h9.594c.177,0,.177-.211.177-.211V46.163a.153.153,0,0,0-.167-.189h-1.079a1.063,1.063,0,0,1-1.208-1.077v-8.94c0-1.119.282-.861.515-.267L665.423,48.9a.19.19,0,0,0,.2.132h3.5a.208.208,0,0,0,.18-.132l5.361-12.994c.306-.855.58-.949.58-.454v9.369c0,.477-.028,1.232-1.146,1.232h-1.129a.171.171,0,0,0-.186.206v2.7a.151.151,0,0,0,.155.176h11.356a.177.177,0,0,0,.171-.153V46.269s-.042-.18-.2-.18h-.8c-1.59,0-1.539-.82-1.539-1.3V27.854c0-1.247.979-1.325,1.508-1.325h.834c.193,0,.174-.222.174-.222l.012-2.7s-.029-.227-.193-.227h-9.594a.41.41,0,0,0-.368.188l-5.546,13.126c-.415.909-.547.4-.941-.551" transform="translate(-619.001 -22.237)" fill="#fff"/>
        <path id="Path_4" data-name="Path 4" d="M733.156,32.98,743.5,49.386h8.238V28.464c0-.919-.2-1.686,1.216-1.686,0,0,.75-.035.946-.035a.167.167,0,0,0,.18-.152V23.854s-.028-.215-.175-.215h-9.788c-.18,0-.152.192-.152.192v2.755s-.028.161.161.161h1.155c1,0,1.184.739,1.184,1.3,0,0,.026,12.347.026,12.481s-.194.325-.379.041c-.2-.316-9.733-15.276-10.7-16.816a.3.3,0,0,0-.262-.179H725.039a.2.2,0,0,0-.207.234v2.721a.171.171,0,0,0,.175.141h1.117c.741,0,1.141.171,1.141,1.618V44.932c0,.594-.1,1.3-1.282,1.3,0,0-.889.007-1.085.007s-.18.221-.18.221v2.592s0,.221.183.221h9.729a.206.206,0,0,0,.214-.221V46.5a.191.191,0,0,0-.189-.176c-.166,0-1.123-.092-1.123-.092-1.269,0-1.157-.765-1.157-1.342V32.79c-.02-.649.237-.787.783.19" transform="translate(-624.09 -22.255)" fill="#fff"/>
        <path id="Path_5" data-name="Path 5" d="M757.553,36.414c0-8.09,5.887-14.258,14.389-14.258A14.271,14.271,0,0,1,786.392,36.5c0,8.093-5.365,14.651-14.45,14.651-8.011,0-14.389-6.037-14.389-14.737m14.389,10.87c5.439,0,6.922-4.834,6.922-10.785s-2.068-10.413-6.922-10.413c-5.267,0-6.764,4.457-6.764,10.413s1.854,10.785,6.764,10.785" transform="translate(-626.392 -22.156)" fill="#fff"/>
      </g>
    </g>
  </g>
</svg>
