<svg id="logo-tayorou" xmlns="http://www.w3.org/2000/svg" width="93.614" height="32" viewBox="0 0 93.614 32">
  <path id="Path_86" data-name="Path 86" d="M76.062,19.951H66.339V23.52h9.723A1.787,1.787,0,0,1,77.846,25.3v4.667H69.56l-1.3,3.624h9.589v4.42A1.787,1.787,0,0,1,76.062,39.8H66.339v3.569h9.723a5.36,5.36,0,0,0,5.354-5.354V25.3A5.36,5.36,0,0,0,76.062,19.951Z" transform="translate(-39.802 -11.971)" fill="#fff"/>
  <ellipse id="Ellipse_13" data-name="Ellipse 13" cx="1.39" cy="1.479" rx="1.39" ry="1.479" transform="translate(55.416 18.387)" fill="#fff"/>
  <path id="Path_87" data-name="Path 87" d="M201.294,20.553h-1.4V18.021h-3.624v2.532h-1.522a5.36,5.36,0,0,0-5.353,5.353V28.63h3.569V25.907a1.787,1.787,0,0,1,1.785-1.785h6.55a2.382,2.382,0,0,1,2.379,2.38v.554a8.491,8.491,0,0,1-.474,2.8l-4.685,12.238h3.822l4.206-10.985.017-.046a12.059,12.059,0,0,0,.683-4.005V26.5a5.956,5.956,0,0,0-5.949-5.949Z" transform="translate(-113.63 -10.813)" fill="#fff"/>
  <path id="Path_88" data-name="Path 88" d="M18.488,29.34a12.036,12.036,0,0,0,.506-3.422v-.912a6.551,6.551,0,0,0-6.544-6.544h-8L0,29.078H3.87l2.953-7.045H12.45a2.978,2.978,0,0,1,2.975,2.974v.911a8.455,8.455,0,0,1-.47,2.792l-.093.249H8.85l-1.3,3.623h5.967L9.659,42.952h3.807l3.855-10.37h2.334a2.7,2.7,0,0,0-1.167-3.243Z" transform="translate(0 -11.079)" fill="#fff"/>
  <path id="Path_89" data-name="Path 89" d="M130.4,18.622a10.707,10.707,0,0,0-10.7,10.7v.824c-1.3.9-1.486,1.675-1.505,2.2a3.019,3.019,0,0,0,1.523,2.447c.066.05.149.112.224.171a7.8,7.8,0,0,0,2.392,4.835,11.789,11.789,0,0,0,8.062,3.377h0a10.707,10.707,0,0,0,10.7-10.7v-3.16A10.708,10.708,0,0,0,130.4,18.622Zm7.127,13.857a7.135,7.135,0,0,1-7.127,7.126,8.242,8.242,0,0,1-4.977-1.826,4.053,4.053,0,0,0,1.476-.828.892.892,0,1,0-1.138-1.374,1.72,1.72,0,0,1-1.84.444,3.277,3.277,0,0,1-.424-1.546,2.694,2.694,0,0,0-.97-2,2.876,2.876,0,0,0,.747-1.931V29.317a7.127,7.127,0,1,1,14.254,0Z" transform="translate(-70.918 -11.175)" fill="#fff"/>
  <path id="Path_90" data-name="Path 90" d="M164.737,10.091a1.19,1.19,0,0,1-1.055-1.738l1.777-3.427a1.19,1.19,0,1,1,2.112,1.095l-1.777,3.429A1.19,1.19,0,0,1,164.737,10.091Z" transform="translate(-98.126 -2.571)" fill="#fff"/>
  <path id="Path_91" data-name="Path 91" d="M154.484,6.165a1.207,1.207,0,0,1-.237-.024,1.19,1.19,0,0,1-.93-1.4l.765-3.784a1.19,1.19,0,0,1,2.332.472l-.765,3.783A1.19,1.19,0,0,1,154.484,6.165Z" transform="translate(-91.973 -0.004)" fill="#fff"/>
  <path id="Path_92" data-name="Path 92" d="M173.757,17.458a1.19,1.19,0,0,1-.846-2.027l2.714-2.745a1.19,1.19,0,1,1,1.692,1.673L174.6,17.1a1.186,1.186,0,0,1-.846.353Z" transform="translate(-103.536 -7.402)" fill="#fff"/>
</svg>
