<svg id="logo-amano2" xmlns="http://www.w3.org/2000/svg" width="220.701" height="40" viewBox="0 0 220.701 40">
  <path id="Path_1" data-name="Path 1" d="M655.241,53.023l-12.589-29.4s-.152-.3-.385-.3H628.059a.2.2,0,0,0-.228.2V27.4a.257.257,0,0,0,.288.283h1.705c1.121,0,1.46.623,1.192,1.506l-10.18,23.4c-.356.851-.632,1.905-1.806,1.982,0,0-1.466.115-1.953.115-.56,0-.575.731-.575.731v3.129s-.019.231.293.231h14.973a.34.34,0,0,0,.333-.315V54.976a.424.424,0,0,0-.439-.416h-2.232a1.067,1.067,0,0,1-.808-1.588l1.477-3.386a.614.614,0,0,1,.549-.368h11.832c.435-.015.493.256.493.256l1.558,3.46c.5,1.139-.233,1.638-1.236,1.638h-1.93a.266.266,0,0,0-.256.236v3.834s0,.141.184.141h17.772a.317.317,0,0,0,.31-.267l-.005-3.627s-.031-.257-.227-.257c-.133,0-1.454-.031-1.454-.031-1.681,0-1.905-.368-2.45-1.574m-22.194-10,3.176-7.352c.291-.7.473-.752.843-.049l3.224,7.536c.285.659.236.868-1.053.817H633.82c-1.066,0-1.066-.228-.773-.953" transform="translate(-616.502 -21.827)" fill="#0181c0"/>
  <path id="Path_2" data-name="Path 2" d="M727.765,52.981l-12.584-29.2s-.149-.3-.391-.3l-14.2-.015a.207.207,0,0,0-.224.2V27.46a.255.255,0,0,0,.276.288h1.713c1.121,0,1.452.621,1.192,1.508L693.467,52.55c-.365.852-.637,1.906-1.806,1.982,0,0-1.577.115-2.06.115-.557,0-.569.732-.569.732v3.333s-.023.237.288.237H704.3a.343.343,0,0,0,.333-.321v-3.39a.428.428,0,0,0-.445-.415h-2.226a1.362,1.362,0,0,1-.807-1.9l1.48-3.178a.6.6,0,0,1,.555-.373h11.833c.424-.013.479.259.479.259l1.564,3.256a1.293,1.293,0,0,1-1.233,1.949H713.9c-.213,0-.249.236-.249.236v3.758s0,.133.183.133h17.766a.315.315,0,0,0,.31-.277V55.155s-.028-.267-.392-.267c-.133,0-1.3-.035-1.3-.035-1.674,0-1.9-.667-2.452-1.878m-22.426-9.759,3.413-7.6c.288-.7.473-.752.836-.049l3.23,7.536c.28.659.56,1.047-1.06.943h-5.646c-1.066,0-1.076-.107-.773-.832" transform="translate(-596.001 -21.783)" fill="#0181c0"/>
  <path id="Path_3" data-name="Path 3" d="M673.744,41.007,666.906,23.7a.752.752,0,0,0-.667-.383H652.431a.283.283,0,0,0-.284.288v3.777a.267.267,0,0,0,.259.256c.251,0,1.4.036,1.4.036,1.637,0,1.6.933,1.6,2.205V52.75c0,.725-.2,1.833-1.562,1.833h-1.452a.227.227,0,0,0-.248.235v3.7a.228.228,0,0,0,.237.277h13.233c.244,0,.244-.291.244-.291V54.831a.212.212,0,0,0-.231-.267h-1.488a1.466,1.466,0,0,1-1.666-1.485V40.76c0-1.542.389-1.188.711-.368l7.275,18.224a.267.267,0,0,0,.267.183h4.823a.287.287,0,0,0,.248-.183l7.395-17.924c.423-1.18.8-1.309.8-.627V52.988c0,.659-.039,1.7-1.58,1.7h-1.557a.236.236,0,0,0-.256.285v3.718a.208.208,0,0,0,.215.243h15.666a.244.244,0,0,0,.236-.212V54.978s-.057-.249-.279-.249H695.33c-2.193,0-2.122-1.132-2.122-1.793V29.576c0-1.72,1.351-1.828,2.081-1.828h1.15c.267,0,.24-.307.24-.307l.016-3.733s-.04-.313-.267-.313H683.2a.565.565,0,0,0-.508.259l-7.65,18.105c-.572,1.254-.755.549-1.3-.761" transform="translate(-606.429 -21.828)" fill="#0181c0"/>
  <path id="Path_4" data-name="Path 4" d="M736.357,36.55l14.274,22.632h11.362V30.321c0-1.268-.267-2.325,1.677-2.325,0,0,1.035-.049,1.305-.049a.229.229,0,0,0,.249-.211V23.961s-.039-.3-.241-.3h-13.5c-.249,0-.211.267-.211.267v3.8s-.039.221.223.221h1.6c1.385,0,1.633,1.02,1.633,1.79,0,0,.036,17.031.036,17.216s-.267.449-.523.056c-.281-.436-13.426-21.072-14.761-23.2a.408.408,0,0,0-.361-.248H725.161a.275.275,0,0,0-.285.323v3.753a.236.236,0,0,0,.241.195h1.54c1.023,0,1.574.236,1.574,2.232V53.037c0,.82-.133,1.788-1.769,1.788,0,0-1.227.011-1.5.011s-.249.305-.249.305v3.574s0,.305.253.305h13.419a.284.284,0,0,0,.295-.305V55.206a.267.267,0,0,0-.267-.243c-.228,0-1.549-.133-1.549-.133-1.75,0-1.6-1.056-1.6-1.85V36.287c-.027-.9.327-1.085,1.08.267" transform="translate(-585.915 -21.756)" fill="#0181c0"/>
  <path id="Path_5" data-name="Path 5" d="M757.553,41.823c0-11.158,8.12-19.667,19.848-19.667a19.684,19.684,0,0,1,19.932,19.789c0,11.162-7.4,20.209-19.932,20.209-11.051,0-19.848-8.327-19.848-20.328M777.4,56.821c7.5,0,9.548-6.666,9.548-14.877S784.1,27.581,777.4,27.581c-7.266,0-9.332,6.147-9.332,14.363s2.558,14.877,9.332,14.877" transform="translate(-576.633 -22.155)" fill="#0181c0"/>
</svg>
