<svg id="logo-tayorou" xmlns="http://www.w3.org/2000/svg" width="233.698" height="45.623" viewBox="0 0 233.698 45.623">
  <g id="logo-tayorou-2" data-name="logo-tayorou">
    <path id="Path_123" data-name="Path 123" d="M80.161,19.9H66.3v5.077H80.161a2.556,2.556,0,0,1,2.567,2.567v6.674H70.92l-1.882,5.191h13.69v6.275a2.556,2.556,0,0,1-2.567,2.567H66.3v5.077H80.161A7.644,7.644,0,0,0,87.8,45.683V27.544A7.681,7.681,0,0,0,80.161,19.9Z" transform="translate(-28.482 -8.502)" fill="#fff"/>
    <ellipse id="Ellipse_20" data-name="Ellipse 20" cx="1.996" cy="2.111" rx="1.996" ry="2.111" transform="translate(79.002 26.286)" fill="#fff"/>
    <path id="Path_124" data-name="Path 124" d="M206.3,21.594h-2V18h-5.191v3.594h-2.168a7.644,7.644,0,0,0-7.644,7.644v3.879h5.077V29.237a2.556,2.556,0,0,1,2.567-2.567H206.3a3.372,3.372,0,0,1,3.365,3.365v.8a11.994,11.994,0,0,1-.684,3.993l-6.674,17.455h5.476L213.771,36.6v-.057a17.618,17.618,0,0,0,.97-5.7v-.8A8.423,8.423,0,0,0,206.3,21.594Z" transform="translate(-81.321 -7.685)" fill="#fff"/>
    <path id="Path_125" data-name="Path 125" d="M26.353,33.972a17.933,17.933,0,0,0,.742-4.906V27.755A9.4,9.4,0,0,0,17.74,18.4H6.332L0,33.573H5.533L9.754,23.534H17.8a4.212,4.212,0,0,1,4.221,4.221v1.312a11.994,11.994,0,0,1-.684,3.993l-.114.342H12.663l-1.882,5.191h8.5L13.8,53.366h5.419L24.7,38.593h3.308A3.816,3.816,0,0,0,26.353,33.972Z" transform="translate(0 -7.857)" fill="#fff"/>
    <path id="Path_126" data-name="Path 126" d="M135.6,18.6a15.227,15.227,0,0,0-15.23,15.23v1.2c-1.825,1.255-2.111,2.4-2.168,3.137-.057,1.768,1.312,2.852,2.168,3.48.114.057.228.171.342.228a11.115,11.115,0,0,0,3.422,6.9,16.721,16.721,0,0,0,11.522,4.791h0a15.227,15.227,0,0,0,15.23-15.23V33.83A15.313,15.313,0,0,0,135.6,18.6ZM145.75,38.393A10.176,10.176,0,0,1,135.6,48.547a11.5,11.5,0,0,1-7.073-2.624,5.209,5.209,0,0,0,2.111-1.2,1.256,1.256,0,1,0-1.6-1.939,2.4,2.4,0,0,1-2.624.627,5.009,5.009,0,0,1-.627-2.225,3.9,3.9,0,0,0-1.369-2.852A4.037,4.037,0,0,0,125.5,35.6V33.83a10.153,10.153,0,0,1,20.307,0v4.563Z" transform="translate(-50.776 -7.943)" fill="#fff"/>
    <path id="Path_127" data-name="Path 127" d="M165.211,12.523a1.716,1.716,0,0,1-1.711-1.711,2.013,2.013,0,0,1,.171-.8l2.51-4.906a1.72,1.72,0,0,1,2.282-.742,1.756,1.756,0,0,1,.742,2.282h0l-2.51,4.906A1.6,1.6,0,0,1,165.211,12.523Z" transform="translate(-70.238 -1.752)" fill="#fff"/>
    <path id="Path_128" data-name="Path 128" d="M155.031,8.749a.723.723,0,0,1-.342-.057,1.7,1.7,0,0,1-1.312-2l1.084-5.419a1.653,1.653,0,0,1,2-1.312,1.68,1.68,0,0,1,1.312,2L156.686,7.38A1.7,1.7,0,0,1,155.031,8.749Z" transform="translate(-65.876 0.083)" fill="#fff"/>
    <path id="Path_129" data-name="Path 129" d="M174.211,19.558a1.716,1.716,0,0,1-1.711-1.711,1.642,1.642,0,0,1,.513-1.2l3.879-3.936a1.694,1.694,0,0,1,2.4,2.4h0l-3.879,3.936A1.554,1.554,0,0,1,174.211,19.558Z" transform="translate(-74.104 -5.194)" fill="#fff"/>
    <path id="パス_17347" d="M257.714,38.7h.913V34.54H257.2c.057-.171.171-.4.228-.57H258a4.317,4.317,0,0,1,.856.057v-.856a4.317,4.317,0,0,1-.856.057h-2.054a4.317,4.317,0,0,1-.856-.057v.513a2.311,2.311,0,0,1-.627,0h-.627v-.057a2.138,2.138,0,0,1,.057-.627h-.856a2.777,2.777,0,0,1,.057.684h-.513a4.317,4.317,0,0,1-.856-.057v.856c.285,0,.57-.057.856-.057h.513v.513h-1.141c0,.228.057.456.057.684v.913a3.508,3.508,0,0,1-.057.742h.97a6.465,6.465,0,0,1-1.255,1.54.174.174,0,0,0,0,.228h0a6.225,6.225,0,0,1,.342.627,5.118,5.118,0,0,0,1.2-1.54V39.5a3.765,3.765,0,0,1-.057.8h.856a3.766,3.766,0,0,1-.057-.8v-.513a5.22,5.22,0,0,0-.057-.913,3,3,0,0,0,.684.8l.285.285a1.519,1.519,0,0,1,.342-.57.141.141,0,0,0-.057-.228h0a4.153,4.153,0,0,1-1.027-.97h.97V35.053h-1.2V34.54H255.2v-.513a1.912,1.912,0,0,1,.57,0h.856a1.709,1.709,0,0,1-.228.57h-1.027v4.221h.742l-.342.342a3.217,3.217,0,0,1-1.141.627,3.692,3.692,0,0,1,.456.513c.057.057.114.114.228.057a3.593,3.593,0,0,0,1.483-1.141l-.57-.456h1.483l-.513.456a4.756,4.756,0,0,0,1.312,1.084c.057.057.171,0,.228-.057a3.688,3.688,0,0,1,.456-.513A3.474,3.474,0,0,1,257.714,38.7Zm-4.62-2.111h-.456v-.856h.456Zm1.2-.856v.856h-.456v-.856Zm1.882-.456h1.654v.456h-1.654Zm0,1.141h1.654v.456h-1.654Zm0,1.6v-.513h1.654v.513Z" transform="translate(-108.095 -14.129)" fill="#fff"/>
    <path id="パス_17348" d="M274.363,35.967a3.071,3.071,0,0,1-.057.627c-.057,1.141-.114,1.654-.114,2,0,.856.342,1.2,1.027,1.2a1.993,1.993,0,0,0,1.255-.456c.114-.114.171-.171.171-.285,0-.057,0-.114-.057-.114a1.684,1.684,0,0,1-.114-.742,1.634,1.634,0,0,1-1.084.627c-.228,0-.285-.114-.285-.4s.057-.856.114-1.54a10.351,10.351,0,0,0,.057-1.141,2.452,2.452,0,0,0-.114-.684.881.881,0,0,0-.913-.456,1.61,1.61,0,0,0-.856.228,4.925,4.925,0,0,0-.913.57,7.225,7.225,0,0,0-.742.627v-.285a2.482,2.482,0,0,1,.342-.4c.057-.114.114-.114.114-.171s-.171-.228-.342-.4a4.431,4.431,0,0,1,.114-.913c0-.057.057-.114.057-.171s-.057-.114-.171-.171a5.62,5.62,0,0,0-.97-.114,3.764,3.764,0,0,1,.057.8v.742a8.574,8.574,0,0,1-1.141.114h-.228a1.756,1.756,0,0,0,.171.742q.086.171.171.171a.21.21,0,0,0,.171-.057,4.83,4.83,0,0,1,.97-.228v.627c0,.057,0,.057-.057.114a14.863,14.863,0,0,1-1.54,1.768.177.177,0,0,0-.057.114c0,.057.057.114.228.285.228.285.4.4.456.4s.114-.057.171-.171A7.265,7.265,0,0,1,271,37.735c-.057,1.54-.057,1.54-.057,1.825v.4c0,.114.057.171.285.171a2.777,2.777,0,0,0,.684-.057c0-.057.057-.057,0-.114v-.114c-.057-.513-.057-1.939-.057-2.567v-.4a10.952,10.952,0,0,1,.856-.8,3.217,3.217,0,0,1,1.369-.742A.736.736,0,0,1,274.363,35.967Z" transform="translate(-115.731 -14.301)" fill="#fff"/>
    <path id="パス_17349" d="M290.793,36.081a2.964,2.964,0,0,0-1.426.4l.742-.742.913-.913a3.164,3.164,0,0,1,.456-.342c.171-.114.228-.171.228-.228s-.057-.171-.228-.4c-.228-.342-.342-.456-.456-.456a.21.21,0,0,0-.171.057c-.228.057-.4.114-.627.171a16.649,16.649,0,0,1-1.939.171,1.941,1.941,0,0,1-.57-.057,2.289,2.289,0,0,0,.171.856q.086.171.171.171h.114a14.591,14.591,0,0,1,1.54-.285.151.151,0,0,1,.171.171c0,.057,0,.114-.057.114a23.064,23.064,0,0,1-2,2.111c-.342.342-.627.57-.8.742-.171.114-.228.171-.228.228a1.854,1.854,0,0,0,.742.742c.057,0,.114-.057.171-.114a3.263,3.263,0,0,1,.4-.456,3.535,3.535,0,0,1,2.4-1.141,1.242,1.242,0,0,1,1.312,1.027v.171a1.3,1.3,0,0,1-.57,1.084,1.669,1.669,0,0,0-1.54-1.084A1.206,1.206,0,0,0,288.4,39.1v.057c0,.742.627,1.141,1.654,1.141a3.6,3.6,0,0,0,1.711-.4,2.133,2.133,0,0,0,1.084-1.882,1.939,1.939,0,0,0-1.825-1.939ZM289.766,39.5c-.4,0-.627-.171-.627-.4a.381.381,0,0,1,.4-.342.75.75,0,0,1,.742.627c-.114.114-.285.114-.513.114Z" transform="translate(-123.206 -14.301)" fill="#fff"/>
    <path id="パス_17350" d="M309.083,34.237a12.058,12.058,0,0,0-.627-1.2c-.057-.057-.114-.114-.171-.057l-.685.228a5.129,5.129,0,0,1,.685,1.369Z" transform="translate(-132.141 -14.112)" fill="#fff"/>
    <path id="パス_17351" d="M309.1,41.508a10.925,10.925,0,0,0,.285-2.339,1.112,1.112,0,0,1,.057-.456c-.171,0-.513.057-.8.057H306.88a1.759,1.759,0,0,1,.057-.513,1.257,1.257,0,0,1,.057-.456h-.97v.285a2.776,2.776,0,0,1-.057.684h-1.255a4.907,4.907,0,0,1-.913-.057v.856a4.907,4.907,0,0,1,.913-.057H305.8a2.01,2.01,0,0,1-.8,1.141,3.64,3.64,0,0,1-1.483.742c-.114,0-.114.114-.114.228a.056.056,0,0,0,.057.057,2,2,0,0,1,.285.456.3.3,0,0,0,.228.114,5.844,5.844,0,0,0,1.654-.913,3.834,3.834,0,0,0,1.084-1.711c0-.057.057-.114.171-.114h1.426a.151.151,0,0,1,.171.171h0a5.628,5.628,0,0,1-.171,1.369c-.057.285-.171.342-.57.342-.285,0-.627-.057-.913-.057a4.272,4.272,0,0,1,.228.913,7.871,7.871,0,0,1,.8.057C308.591,42.249,308.933,42.021,309.1,41.508Z" transform="translate(-130.337 -16.191)" fill="#fff"/>
    <path id="パス_17352" d="M303.1,36.549h.742a.151.151,0,0,0,.171-.171v-.684a.151.151,0,0,1,.171-.171h4.677a.151.151,0,0,1,.171.171v.684a.151.151,0,0,0,.171.171h.742a1.941,1.941,0,0,1-.057-.57v-.57a2.139,2.139,0,0,1,.057-.627c-.285,0-.57.057-.8.057h-.513c.114-.171.285-.456.456-.742.285-.513.285-.513.342-.627l-.685-.285c-.057-.057-.171,0-.228.114a6.775,6.775,0,0,1-.742,1.426.21.21,0,0,1-.171.057h-3.023l.742-.285a4.241,4.241,0,0,0-.742-1.2.21.21,0,0,0-.171-.057l-.685.228a6.21,6.21,0,0,1,.8,1.312h-.57a3.766,3.766,0,0,1-.8-.057c0,.228.057.456.057.684v.57C303.157,36.149,303.157,36.377,303.1,36.549Z" transform="translate(-130.208 -14.198)" fill="#fff"/>
    <path id="パス_17353" d="M327.287,36.793a.3.3,0,0,0,.228-.114,1.928,1.928,0,0,1,.342-.684,5.57,5.57,0,0,1-1.312-.342c-.114-.057-.114-.114-.057-.228v-.057a4.13,4.13,0,0,0,.627-1.084h.57v-.8a4.317,4.317,0,0,1-.856.057h-1.654c.057-.171.114-.228.114-.285a.963.963,0,0,0,.114-.285l-.8-.171c-.057.228-.114.4-.171.627a4.5,4.5,0,0,1-1.2,1.54,1.537,1.537,0,0,1,.456.4.173.173,0,0,0,.228,0h0a2.233,2.233,0,0,0,.456-.57,2.532,2.532,0,0,0,.456.627.174.174,0,0,1,0,.228l-.057.057a6.083,6.083,0,0,1-1.084.4.3.3,0,0,1,.114-.228l-.342-.4h-1.027l.171-.171-.171-.171a7.434,7.434,0,0,0,1.084-1.255.788.788,0,0,1,.171-.228l-.456-.456a2.749,2.749,0,0,1-.685,0h-1.369a3.252,3.252,0,0,1-.742-.057v.8c.228,0,.456-.057.684-.057H322.5c-.171.228-.342.4-.513.627a.173.173,0,0,1-.228,0c-.114-.114-.228-.171-.57-.456l-.513.456a5.33,5.33,0,0,1,1.027.913h-.8a3.509,3.509,0,0,1-.742-.057v.856a2.777,2.777,0,0,1,.685-.057h.57a4.385,4.385,0,0,1-1.255,1.825c-.057.057-.057.114-.057.228.114.228.228.513.342.742a4.117,4.117,0,0,0,1.141-1.654v1.882c0,.171-.057.171-.228.171a2.863,2.863,0,0,1-.685-.114,1.822,1.822,0,0,1,.171.8c.228,0,.513.057.684.057.456,0,.685-.057.8-.228a1.074,1.074,0,0,0,.114-.456V36.222h.513a4.054,4.054,0,0,1-.456,1.027,2.049,2.049,0,0,1,.57.4,3.387,3.387,0,0,0,.228-.456v.742c.228,0,.4-.057.627-.057h.627a2.824,2.824,0,0,1-1.825,1.6,2.05,2.05,0,0,1,.4.57c.057.057.114.114.228.057a3.424,3.424,0,0,0,2.053-2.111c0-.057.114-.114.171-.114h.913a4.993,4.993,0,0,1-.114.913c-.057.4-.171.513-.4.513a4.992,4.992,0,0,1-.913-.114,1.519,1.519,0,0,1,.171.684q0,.086.171.171c.228,0,.456.057.685.057.627,0,.8-.114.97-.627a11.225,11.225,0,0,0,.285-2,.724.724,0,0,1,.057-.342,2.311,2.311,0,0,1-.627,0h-1.141a2.471,2.471,0,0,1,.057-.285v-.342h-.8a3.073,3.073,0,0,0,.742-.4A8.421,8.421,0,0,0,327.287,36.793Zm-2.453.4h-1.426c.114-.342.171-.456.285-.8a1.708,1.708,0,0,1,.228.456c.285-.114.627-.228.913-.342v.684Zm.114-2.852H326.2a2.012,2.012,0,0,1-.456.742.173.173,0,0,1-.228,0h0a6.451,6.451,0,0,1-.57-.742Z" transform="translate(-137.511 -14.043)" fill="#fff"/>
    <path id="Path_130" data-name="Path 130" d="M254.482,56.583a1.674,1.674,0,0,0-.913.228h-.057V55.1H252.6v5.875h.913V60.8a1.451,1.451,0,0,0,.97.228c1.084,0,1.768-.742,1.768-2v-.513A1.728,1.728,0,0,0,254.482,56.583Zm.856,2v1.426a.056.056,0,0,1-.057.057,1.574,1.574,0,0,1-1.426.057,1.086,1.086,0,0,1-.4-.97v-.57c0-.684.342-1.084.913-1.084C255.224,57.439,255.338,58.123,255.338,58.58Z" transform="translate(-108.514 -23.623)" fill="#fff"/>
    <path id="Path_131" data-name="Path 131" d="M262.168,60.7h0c-.057.057-.057,0-.057,0l-1.084-2.8H260l1.654,4.278h0c-.228.684-.456.742-.913.742h-.114v.913h.114c1.255,0,1.483-.57,1.825-1.483l1.483-4.392h-.97Z" transform="translate(-111.693 -24.826)" fill="#fff"/>
    <path id="Path_132" data-name="Path 132" d="M276.953,55.1l-2,5.7-.057.171h.8a.291.291,0,0,0,.285-.228l.342-1.084a.056.056,0,0,1,.057-.057h2.054l.342,1.084a.379.379,0,0,0,.285.228h.8L277.809,55.1Zm.4,1.711h.057l.627,1.939v.057h-1.426v-.057Z" transform="translate(-118.094 -23.623)" fill="#fff"/>
    <path id="Path_133" data-name="Path 133" d="M289.267,58.351h-.057l-1.54-3.194-.057-.057H286.7v5.875h.97V57.5a.056.056,0,0,1,.057-.057h.057l1.084,2.282h.8l1.084-2.339s.057-.057.057,0v3.537h.97V55.1h-.913Z" transform="translate(-123.163 -23.623)" fill="#fff"/>
    <path id="Path_134" data-name="Path 134" d="M300.753,55.057l-2,5.7-.057.171h.8a.291.291,0,0,0,.285-.228l.342-1.084a.056.056,0,0,1,.057-.057h2.053l.342,1.084a.379.379,0,0,0,.285.228h.8L301.609,55Zm.342,1.711h0c.057-.057.057,0,.057,0l.627,1.939v.057h-1.312a.056.056,0,0,1-.057-.057h0Z" transform="translate(-128.318 -23.58)" fill="#fff"/>
    <path id="Path_135" data-name="Path 135" d="M313.58,58.922h0c-.057.057-.057.057-.057,0l-2.111-3.765-.057-.057H310.5v5.875h.97V57.211a.056.056,0,0,1,.057-.057h.057l2.168,3.765h.913V55.1h-.97Z" transform="translate(-133.387 -23.623)" fill="#fff"/>
    <path id="Path_136" data-name="Path 136" d="M323.468,55c-.97,0-2.168.456-2.168,2.681v.627c0,2.225,1.2,2.681,2.168,2.681s2.168-.456,2.168-2.681v-.627C325.635,55.456,324.437,55,323.468,55Zm1.2,2.681v.627c0,1.6-.627,1.825-1.2,1.825s-1.2-.228-1.2-1.825v-.627c0-1.6.627-1.825,1.2-1.825s1.2.228,1.2,1.825Z" transform="translate(-138.026 -23.58)" fill="#fff"/>
    <g id="Group_16393" data-name="Group 16393" transform="translate(193.94 18.985)">
      <path id="Path_137" data-name="Path 137" d="M342.51,40.1c-1.483,0-2.51-.913-2.51-3.023v-.856c0-2.111,1.027-3.023,2.51-3.023s2.51.913,2.51,3.023v.856C345.02,39.189,343.993,40.1,342.51,40.1Zm-1.369-3.023c0,1.426.456,2.053,1.369,2.053s1.369-.57,1.369-2.053v-.856c0-1.426-.513-2.053-1.369-2.053-.913,0-1.369.57-1.369,2.053Z" transform="translate(-340 -33.2)" fill="#fff"/>
      <path id="Path_138" data-name="Path 138" d="M358.949,33.628v6.217a.245.245,0,0,1-.228.228h-.685c-.057,0-.171-.057-.171-.114l-2.453-4.107a.123.123,0,0,0-.228.057v3.879a.245.245,0,0,1-.228.228h-.627a.245.245,0,0,1-.228-.228v-6.16a.245.245,0,0,1,.228-.228h.627c.057,0,.171.057.171.114l2.453,4.164a.122.122,0,0,0,.228-.057V33.685a.245.245,0,0,1,.228-.228h.627A.2.2,0,0,1,358.949,33.628Z" transform="translate(-346.057 -33.286)" fill="#fff"/>
      <path id="Path_139" data-name="Path 139" d="M369.769,39.161h2.51a.245.245,0,0,1,.228.228V39.9a.245.245,0,0,1-.228.228h-3.651a.245.245,0,0,1-.228-.228V33.628a.245.245,0,0,1,.228-.228h.685a.245.245,0,0,1,.228.228v5.248C369.541,39.047,369.6,39.161,369.769,39.161Z" transform="translate(-352.2 -33.286)" fill="#fff"/>
      <path id="Path_140" data-name="Path 140" d="M381.213,40.131h-.685a.245.245,0,0,1-.228-.228V33.628a.245.245,0,0,1,.228-.228h.685a.245.245,0,0,1,.228.228v6.217A.261.261,0,0,1,381.213,40.131Z" transform="translate(-357.312 -33.286)" fill="#fff"/>
      <path id="Path_141" data-name="Path 141" d="M393.091,33.628v6.217a.245.245,0,0,1-.228.228h-.627c-.057,0-.171-.057-.171-.114l-2.453-4.107a.122.122,0,0,0-.228.057v3.879a.245.245,0,0,1-.228.228h-.627a.245.245,0,0,1-.228-.228v-6.16a.245.245,0,0,1,.228-.228h.627c.057,0,.171.057.171.114l2.453,4.164a.123.123,0,0,0,.228-.057V33.628a.245.245,0,0,1,.228-.228h.627A.245.245,0,0,1,393.091,33.628Z" transform="translate(-360.749 -33.286)" fill="#fff"/>
      <path id="Path_142" data-name="Path 142" d="M406.607,33.628v.513a.245.245,0,0,1-.228.228h-2.51a.245.245,0,0,0-.228.228V35.91a.245.245,0,0,0,.228.228h2.225a.245.245,0,0,1,.228.228v.513a.245.245,0,0,1-.228.228h-2.225a.245.245,0,0,0-.228.228v1.54a.245.245,0,0,0,.228.228h2.51a.245.245,0,0,1,.228.228v.513a.245.245,0,0,1-.228.228h-3.651a.245.245,0,0,1-.228-.228V33.628a.245.245,0,0,1,.228-.228h3.651A.245.245,0,0,1,406.607,33.628Z" transform="translate(-366.849 -33.286)" fill="#fff"/>
    </g>
  </g>
</svg>
