<svg xmlns="http://www.w3.org/2000/svg" width="546.96" height="72" viewBox="0 0 546.96 72">
  <g id="Group_16396" data-name="Group 16396" transform="translate(-20 -25)">
    <g id="logo-tayorou" transform="translate(20 25)">
      <path id="Path_86" data-name="Path 86" d="M88.216,19.951H66.339v8.03H88.216A4.02,4.02,0,0,1,92.231,32V42.5H73.587L70.656,50.65H92.231v9.945a4.021,4.021,0,0,1-4.015,4.016H66.339v8.03H88.216a12.061,12.061,0,0,0,12.046-12.046V32A12.061,12.061,0,0,0,88.216,19.951Z" transform="translate(-6.63 -1.997)" fill="#333"/>
      <ellipse id="Ellipse_13" data-name="Ellipse 13" cx="3.128" cy="3.327" rx="3.128" ry="3.327" transform="translate(124.686 41.371)" fill="#333"/>
      <path id="Path_87" data-name="Path 87" d="M216.173,23.718h-3.157v-5.7h-8.154v5.7h-3.426a12.061,12.061,0,0,0-12.045,12.045v6.128h8.03V35.764a4.02,4.02,0,0,1,4.015-4.015h14.737a5.36,5.36,0,0,1,5.353,5.354V38.35a19.106,19.106,0,0,1-1.066,6.3L209.92,72.185h8.6l9.464-24.715.039-.1a27.13,27.13,0,0,0,1.537-9.012V37.1a13.4,13.4,0,0,0-13.386-13.385Z" transform="translate(-18.929 -1.804)" fill="#333"/>
      <path id="Path_88" data-name="Path 88" d="M41.6,42.936a27.08,27.08,0,0,0,1.138-7.7V33.186A14.74,14.74,0,0,0,28.012,18.463h-18L0,42.348H8.707L15.351,26.5H28.012a6.7,6.7,0,0,1,6.693,6.692v2.049a19.023,19.023,0,0,1-1.058,6.281l-.209.561H19.912L16.98,50.232H30.406L21.732,73.564H30.3l8.674-23.332h5.252a6.086,6.086,0,0,0-2.626-7.3Z" transform="translate(0 -1.849)" fill="#333"/>
      <path id="Path_89" data-name="Path 89" d="M145.657,18.622a24.092,24.092,0,0,0-24.065,24.065V44.54c-2.919,2.023-3.344,3.769-3.387,4.955-.1,2.833,2.105,4.507,3.426,5.507.149.113.335.252.5.385a17.551,17.551,0,0,0,5.381,10.88,26.525,26.525,0,0,0,18.141,7.6h0A24.092,24.092,0,0,0,169.722,49.8V42.69A24.093,24.093,0,0,0,145.657,18.622ZM161.693,49.8a16.054,16.054,0,0,1-16.036,16.034,18.546,18.546,0,0,1-11.2-4.108,9.119,9.119,0,0,0,3.321-1.864,2.007,2.007,0,1,0-2.56-3.093,3.87,3.87,0,0,1-4.14,1,7.372,7.372,0,0,1-.955-3.48,6.062,6.062,0,0,0-2.183-4.494,6.472,6.472,0,0,0,1.681-4.344V42.687a16.035,16.035,0,0,1,32.071,0Z" transform="translate(-11.813 -1.865)" fill="#333"/>
      <path id="Path_90" data-name="Path 90" d="M166.223,17.349a2.678,2.678,0,0,1-2.374-3.91l4-7.71A2.677,2.677,0,1,1,172.6,8.193l-4,7.716a2.677,2.677,0,0,1-2.379,1.44Z" transform="translate(-16.348 -0.431)" fill="#ffad29"/>
      <path id="Path_91" data-name="Path 91" d="M155.972,13.867a2.716,2.716,0,0,1-.534-.053,2.677,2.677,0,0,1-2.093-3.15l1.722-8.514a2.677,2.677,0,1,1,5.247,1.061l-1.722,8.513A2.677,2.677,0,0,1,155.972,13.867Z" transform="translate(-15.322 -0.004)" fill="#ffad29"/>
      <path id="Path_92" data-name="Path 92" d="M175.244,23.864a2.678,2.678,0,0,1-1.9-4.56l6.107-6.175a2.677,2.677,0,1,1,3.807,3.764l-6.107,6.176a2.669,2.669,0,0,1-1.9.795Z" transform="translate(-17.247 -1.237)" fill="#ffad29"/>
    </g>
    <path id="Path_143" data-name="Path 143" d="M2.7-12.48H4.86v-1.28H6.8v1.28H8.98v-1.28h1.98V-15.5H8.98v-1.42H6.8v1.42H4.86v-1.42H2.7v1.42H.92v1.74H2.7Zm.74,3.42v-1.48H4.78v1.48Zm4.86,0H6.96v-1.48H8.3Zm6.64-3.34c.02-1.38.02-2.82.02-4.36H12.78c0,1.56,0,3-.02,4.36H10.94v2.2h1.78c-.14,3.7-.58,6.6-2.02,8.74v-.2c-1.24.12-2.5.24-3.74.34V-2.3h3.48V-3.96H6.96v-.96h3.7V-6.64H6.96v-.84h3.5v-4.64H1.42v4.64H4.78v.84H1.16v1.72H4.78v.96H1.46V-2.3H4.78v1.16C3.26-1,1.86-.9.74-.82L.98,1.16C3.3.94,6.52.64,9.68.3a6.771,6.771,0,0,1,1.3,1.48c2.9-2.6,3.68-6.6,3.9-11.98h1.88c-.12,6.48-.3,8.86-.68,9.38a.678.678,0,0,1-.66.36,13.46,13.46,0,0,1-1.78-.1,5.74,5.74,0,0,1,.64,2.22,13.6,13.6,0,0,0,2.32-.08A2.167,2.167,0,0,0,18.06.62c.62-.88.78-3.8.92-12,0-.26.02-1.02.02-1.02Zm6.86.7c3.48-.04,8.74-.16,13.72-.28a14.017,14.017,0,0,1,1.64,1.62l1.78-1.52a25.416,25.416,0,0,0-5.52-4.22l-1.76,1.32c.44.26.9.56,1.36.86-1.86.04-3.7.06-5.44.06.7-.7,1.38-1.5,2-2.26l-2.66-.8a21.847,21.847,0,0,1-2.22,3.08c-1.12.02-2.16.02-3.06.02Zm12,4.8H26.08V-8.76H33.8Zm2.36-3.76H23.86V-5h4.2l-.66.62A13.067,13.067,0,0,1,30.88-1.9l1.58-1.54A11.639,11.639,0,0,0,30.32-5h5.84ZM22.6,1.24a7.548,7.548,0,0,0,2.84-4.42l-2.12-.74A6.381,6.381,0,0,1,20.66-.14ZM29.32-.62c-.86,0-1-.08-1-.62V-3.8H25.96v2.62c0,2.02.58,2.66,3.08,2.66h3.04c1.84,0,2.52-.56,2.78-2.9a6.226,6.226,0,0,1-2.08-.84c-.1,1.44-.22,1.64-.92,1.64ZM33.9-3.08a14.168,14.168,0,0,1,3.32,4.16l2.1-1.2a14.3,14.3,0,0,0-3.48-4.06ZM50-10.16A2.578,2.578,0,0,0,47.44-7.6,2.578,2.578,0,0,0,50-5.04,2.578,2.578,0,0,0,52.56-7.6,2.578,2.578,0,0,0,50-10.16Zm21.46-3.5a11.965,11.965,0,0,0-1.6-3.26l-2.12.7a12.46,12.46,0,0,1,1.44,3.32Zm-.94,6.08c.08-.82.12-1.68.16-2.6h-2.6c-.04.94-.06,1.8-.14,2.6H62.68v2.22h4.9c-.66,2.42-2.28,4-6.66,4.92a8.272,8.272,0,0,1,1.38,2.2c5.34-1.3,7.2-3.64,7.9-7.12h4.32c-.18,2.94-.42,4.28-.8,4.64a1.161,1.161,0,0,1-.84.22c-.52,0-1.76-.02-2.94-.1a5.18,5.18,0,0,1,.84,2.34,25.588,25.588,0,0,0,3.14-.04A2.527,2.527,0,0,0,75.8.84c.68-.74.96-2.72,1.18-7.46.04-.3.06-.96.06-.96Zm5-5.28a37.6,37.6,0,0,0,2.36-3.18l-2.66-.8a20.332,20.332,0,0,1-2.24,3.82l.44.16H65.24l1.42-.66a12.094,12.094,0,0,0-2.06-3.1l-2.06.96a13.106,13.106,0,0,1,1.78,2.8H61.48v4.64h2.28v-2.44H76.22v2.44h2.4v-4.64ZM94.36-5.8c.08-.58.14-1.18.2-1.78H92.18a16.7,16.7,0,0,1-.2,1.78H89.06v1.98h2.42A6.411,6.411,0,0,1,87.3-.1a6.727,6.727,0,0,1,1.38,1.84,7.99,7.99,0,0,0,5.26-5.56h2.32c-.22,1.86-.48,2.72-.76,2.98a.815.815,0,0,1-.64.22,16.938,16.938,0,0,1-1.72-.1,5.244,5.244,0,0,1,.64,2.2,15.282,15.282,0,0,0,2.24-.04,2.2,2.2,0,0,0,1.46-.7c.58-.64.94-2.18,1.26-5.64.04-.28.08-.9.08-.9Zm.88-7.16a6.077,6.077,0,0,1-1.32,1.7,7.842,7.842,0,0,1-1.66-1.7Zm3.8,0v-1.98h-5.9a13.407,13.407,0,0,0,.74-1.4l-2.22-.6a11.923,11.923,0,0,1-3.82,4.76,17.464,17.464,0,0,1,1.94,1.34,11.906,11.906,0,0,0,.9-.86,11.308,11.308,0,0,0,1.42,1.66,12.117,12.117,0,0,1-2.44.92l.08-.46-1.44-.48-.32.1h-.96L88-10.98a11.193,11.193,0,0,0-1.46-.88,14.929,14.929,0,0,0,2.92-3.3l-1.52-.96-.36.08H81.12v2h4.8a12.489,12.489,0,0,1-1.26,1.26c-.54-.24-1.1-.46-1.58-.64l-1.5,1.52a29.013,29.013,0,0,1,3.86,1.94H80.86v2.08h2.5a12.566,12.566,0,0,1-2.84,4.12,13.328,13.328,0,0,1,1.08,2.3,12.117,12.117,0,0,0,2.5-3.7V-.88c0,.24-.08.28-.32.3-.26,0-1.06,0-1.8-.02a7.924,7.924,0,0,1,.68,2.26,5.9,5.9,0,0,0,2.82-.42c.7-.36.86-1,.86-2.08V-7.88H87.4a26.069,26.069,0,0,1-.64,2.76l1.6.74a23.346,23.346,0,0,0,.98-3.34,7.569,7.569,0,0,1,.56.84,16.009,16.009,0,0,0,4.08-1.68,14.406,14.406,0,0,0,4.08,1.72,9.134,9.134,0,0,1,1.5-2.02,15.562,15.562,0,0,1-3.68-1.18,9.825,9.825,0,0,0,2-2.92Zm15.7,11.3V-.54h-7.92V-1.66Zm-1.52-5.4v1.04h-6.4V-7.06Zm-6.4,2.74h8.76V-8.78H104.54V1.76h2.28V1.22h7.92v.54h2.36V-3.4H106.82ZM119.2-15.54h-5.8q.27-.51.48-1.02l-2.26-.54a9.221,9.221,0,0,1-1.9,2.9v-1.34h-4.44c.16-.32.32-.64.46-.96l-2.22-.6a10.737,10.737,0,0,1-2.94,4.06,12.512,12.512,0,0,1,1.94,1.28,14.772,14.772,0,0,0,1.6-1.92h.32a10.208,10.208,0,0,1,.92,1.92l2.14-.6a10.083,10.083,0,0,0-.66-1.32h2.34c-.16.14-.34.28-.5.4.26.12.64.3,1,.5h-.88v1.4h-7.36v3.96h2.24V-9.6h12.74v2.18h2.32v-3.96h-7.66v-1.08a13.429,13.429,0,0,0,1.1-1.22h1.16a11.791,11.791,0,0,1,1.2,1.96l2.2-.62a10.061,10.061,0,0,0-.84-1.34h3.3ZM127.18-4.5c-.64.22-1.3.42-1.96.62v-4h1.8v-2.18h-1.8v-3.52h2.14V-15.8h-6.6v2.22h2.2v3.52h-2.02v2.18h2.02v4.7c-.92.26-1.74.48-2.44.66l.54,2.42c1.92-.62,4.32-1.38,6.52-2.16Zm3.08-6.04h2.06v1.72h-2.06Zm0-3.54h2.06v1.68h-2.06Zm6.04,1.68h-1.98v-1.68h1.98Zm0,3.58h-1.98v-1.72h1.98Zm-1.76,7.78v-1.9h4.24V-5.08h-4.24V-6.8h4.02v-9.3H128.12v9.3h4v1.72h-4.14v2.14h4.14v1.9H126.6V1.12h12.86V-1.04Zm24-6c0-4.36-3.12-7.8-8.08-7.8-5.18,0-9.18,3.94-9.18,8.56,0,3.38,1.84,5.82,4.06,5.82,2.18,0,3.9-2.48,5.1-6.52a40.447,40.447,0,0,0,1.2-5.42,4.944,4.944,0,0,1,4.2,5.28,5.427,5.427,0,0,1-4.56,5.36,15.382,15.382,0,0,1-1.86.32l1.5,2.38C155.96.16,158.54-2.82,158.54-7.04Zm-14.7.5a6.3,6.3,0,0,1,5.08-5.8,30.02,30.02,0,0,1-1.06,4.84c-.82,2.7-1.6,3.96-2.44,3.96C144.64-3.54,143.84-4.52,143.84-6.54Zm35.26-7-1.58-1.48a10.315,10.315,0,0,1-2.04.18H164.7a15.856,15.856,0,0,1-2.44-.2v2.78c.94-.08,1.6-.14,2.44-.14h10.42a11.894,11.894,0,0,1-3.68,3.72l2.08,1.66a20.37,20.37,0,0,0,4.8-5.48A10.068,10.068,0,0,1,179.1-13.54Zm-8.16,2.7h-2.9a11.087,11.087,0,0,1,.14,1.8c0,3.28-.48,5.4-3.02,7.16a7.9,7.9,0,0,1-2.1,1.1l2.34,1.9C170.84-1.8,170.94-5.88,170.94-10.84Zm28.12-1.76-2-1.64a6.46,6.46,0,0,1-1.86.22H184.1a19.2,19.2,0,0,1-2.3-.18v2.8c.42-.04,1.5-.14,2.3-.14h10.58a22.2,22.2,0,0,1-5.08,5.76c-1.26-1.1-2.58-2.18-3.38-2.78l-2.12,1.7a42.544,42.544,0,0,1,4.4,3.84,52.118,52.118,0,0,1,3.82,4.32l2.34-1.86c-.78-.94-1.96-2.24-3.1-3.38a33.321,33.321,0,0,0,6.82-7.82A6.973,6.973,0,0,1,199.06-12.6Zm17.02-2.04-3.12-.8a20.3,20.3,0,0,1-3.78,8.64,17.268,17.268,0,0,1-7.6,5.2L203.86.74a20,20,0,0,0,7.58-5.8,27.736,27.736,0,0,0,3.76-7.34A23.408,23.408,0,0,1,216.08-14.64Zm12.42-1.02-2.98-.3a20.354,20.354,0,0,1-.42,4.22c-1.02.1-1.96.16-2.58.18a19.1,19.1,0,0,1-2.14,0l.24,2.72c.62-.1,1.66-.24,2.24-.34.36-.04,1-.12,1.72-.2-.74,2.74-2.12,6.78-4.06,9.4l2.6,1.04c1.84-2.94,3.32-7.68,4.08-10.72.58-.04,1.08-.08,1.4-.08,1.24,0,1.94.22,1.94,1.82a15.873,15.873,0,0,1-.82,5.54,1.467,1.467,0,0,1-1.5.86,11.557,11.557,0,0,1-2.44-.42L226.2.7a13.143,13.143,0,0,0,2.4.28,3.179,3.179,0,0,0,3.28-1.84c.86-1.74,1.14-4.98,1.14-7.34,0-2.88-1.5-3.82-3.62-3.82-.42,0-1,.04-1.68.08.14-.72.3-1.46.42-2.06C228.24-14.5,228.38-15.14,228.5-15.66Zm8.9-1.66-1.6.64a22.619,22.619,0,0,1,1.62,2.76L239-14.6A26.605,26.605,0,0,0,237.4-17.32Zm-2.38.9-1.58.66a22.113,22.113,0,0,1,1.36,2.36l-1.8.78a22.492,22.492,0,0,1,3.36,7.5l2.54-1.16a36.293,36.293,0,0,0-3.26-6.98l.98-.42C236.24-14.42,235.52-15.68,235.02-16.42Zm12.74,1.78h8.28v1.06h2.2v-2.74H245.68v2.74h2.08Zm.88,8.16v-.78h2.04v.78Zm0-2.94h2.04v.78h-2.04Zm6.48,0v.78H253v-.78Zm0,2.94H253v-.78h2.12Zm-4.44,5.22H253V-2.58h5.44V-4.3H253v-.74h4.24V-10.9H253v-.7h4.58v-1.64H253v-1.04h-2.32v1.04h-4.44v1.64h4.44v.7h-4.06v5.86h4.06v.74H245.5v1.72h5.18Zm-5.42-12a17.38,17.38,0,0,0-3.14-3.18l-1.82,1.36a15.585,15.585,0,0,1,3,3.32Zm-.54,4.08h-4.5V-7h2.24v4.36A23.968,23.968,0,0,1,239.98-.8l1.12,2.36c1.02-.86,1.84-1.62,2.64-2.4,1.2,1.54,2.8,2.12,5.18,2.22,2.44.1,6.68.06,9.16-.06A10.842,10.842,0,0,1,258.82-1c-2.76.22-7.48.28-9.88.18-2.04-.08-3.44-.64-4.22-1.98ZM274.2-.94h-9.38V-2.68h9.38Zm-7.76-8.14h5.94v1.4h-5.94Zm8.24,3.14v-4.9H264.24v4.9h3.64c-.08.4-.2.82-.3,1.22h-5.02v6.5h2.26V1.12h9.38v.66h2.36v-6.5h-6.62c.18-.38.36-.78.52-1.22Zm.52-7.9c.56-.66,1.16-1.46,1.74-2.22l-2.56-.8a14.959,14.959,0,0,1-1.78,3.02h-3.28l1.4-.52A13.456,13.456,0,0,0,269.2-17l-2.08.7a16.327,16.327,0,0,1,1.3,2.46h-3.08l.64-.28a12.912,12.912,0,0,0-1.78-2.56l-2.06.9a15.781,15.781,0,0,1,1.32,1.94h-2.44v4.26h2.18v-2.24h12.5v2.24H278v-4.26Zm17.26-2.28h-2.9a14.519,14.519,0,0,1,.2,1.74c.02.16.02.36.04.62-2.72.04-6.36.12-8.64.12l.06,2.42c2.46-.14,5.58-.26,8.6-.3.02.44.02.9.02,1.34a5.19,5.19,0,0,0-.8-.06,3.772,3.772,0,0,0-4,3.74,3.529,3.529,0,0,0,3.44,3.68,4.276,4.276,0,0,0,.9-.1A8.987,8.987,0,0,1,284.5-.64l2.14,2.12c4.88-1.36,6.4-4.68,6.4-7.28a5.09,5.09,0,0,0-.72-2.74c0-.88-.02-1.98-.02-3,2.72,0,4.58.04,5.78.1l.02-2.36c-1.04-.02-3.78.02-5.8.02.02-.24.02-.46.02-.62C292.34-14.72,292.42-15.8,292.46-16.12Zm-5.02,9.58a1.506,1.506,0,0,1,1.54-1.6,1.475,1.475,0,0,1,1.3.7c.28,1.76-.46,2.4-1.3,2.4A1.493,1.493,0,0,1,287.44-6.54ZM307.2-2.36c0-.5.48-.96,1.24-.96,1.08,0,1.82.84,1.94,2.14a10.442,10.442,0,0,1-1.16.06C308.02-1.12,307.2-1.62,307.2-2.36Zm-3.4-12.88.08,2.6c.46-.06,1.1-.12,1.64-.16,1.06-.06,3.82-.18,4.84-.2-.98.86-3.06,2.54-4.18,3.46-1.18.98-3.6,3.02-5.02,4.16l1.82,1.88c2.14-2.44,4.14-4.06,7.2-4.06,2.36,0,4.16,1.22,4.16,3.02a2.9,2.9,0,0,1-1.66,2.72,4,4,0,0,0-4.26-3.42,3.351,3.351,0,0,0-3.58,3.12c0,2,2.1,3.28,4.88,3.28,4.84,0,7.24-2.5,7.24-5.66,0-2.92-2.58-5.04-5.98-5.04a7.813,7.813,0,0,0-1.9.22c1.26-1,3.36-2.76,4.44-3.52.46-.34.94-.62,1.4-.92l-1.3-1.78a8.739,8.739,0,0,1-1.52.22c-1.14.1-5.42.18-6.48.18A13.879,13.879,0,0,1,303.8-15.24ZM8.72,13.76H5.96a16.1,16.1,0,0,1,.14,1.76c0,.34,0,.92-.02,1.62-.4.02-.8.04-1.16.04a22.178,22.178,0,0,1-2.76-.16l.04,2.42a24.52,24.52,0,0,0,2.8.1c.32,0,.68-.02,1.06-.04v1.68c0,.46,0,.94.02,1.42-2.46,1.06-4.46,2.88-4.46,4.62,0,2.12,2.74,3.8,4.68,3.8,1.32,0,2.2-.66,2.2-3.14,0-.68-.04-2.24-.08-3.82a13.484,13.484,0,0,1,3.76-.56c1.74,0,2.94.8,2.94,2.16,0,1.46-1.28,2.26-2.9,2.56a15.4,15.4,0,0,1-2.46.14l.92,2.58a18.312,18.312,0,0,0,2.62-.32c3.18-.8,4.42-2.58,4.42-4.94,0-2.76-2.42-4.36-5.5-4.36a16.572,16.572,0,0,0-3.84.52V21.1c0-.58,0-1.2.02-1.8,1.3-.16,2.68-.36,3.82-.62l-.06-2.48a24.494,24.494,0,0,1-3.68.72c.02-.5.04-.98.06-1.42C8.58,14.98,8.66,14.12,8.72,13.76Zm5.7,2.16-1.1,1.94a31.821,31.821,0,0,1,4.82,2.92l1.2-2.04A41.793,41.793,0,0,0,14.42,15.92ZM4.08,27.12c0-.7.82-1.52,2.04-2.18.04,1.08.06,2,.06,2.5,0,.68-.28.84-.64.84C5.02,28.28,4.08,27.74,4.08,27.12ZM31.22,15.84H33.8v2.34c0,1.32.18,1.76.56,2.14a2.179,2.179,0,0,0,1.5.52h1.2a2.923,2.923,0,0,0,1.2-.24,1.465,1.465,0,0,0,.76-.86,8.688,8.688,0,0,0,.3-2.16,6.566,6.566,0,0,1-1.78-.94c-.02.74-.04,1.38-.08,1.66s-.12.4-.2.44a.668.668,0,0,1-.3.06h-.42a.391.391,0,0,1-.28-.08c-.06-.08-.06-.26-.06-.62V13.76H28.96v2.06a4.865,4.865,0,0,1-2.02,4.36,10.285,10.285,0,0,1,1.96,1.34,6.71,6.71,0,0,0,2.32-5.64Zm-6.4-2.76a15.176,15.176,0,0,1-4.22,3.96,15.853,15.853,0,0,1,1.18,2,20.81,20.81,0,0,0,5.28-5.06Zm.62,4.18A18.526,18.526,0,0,1,20.4,22.5a14.379,14.379,0,0,1,1.26,2.28,19.769,19.769,0,0,0,1.76-1.54v8.48h2.3v-11a23.612,23.612,0,0,0,1.84-2.58ZM34.9,23.8a10.653,10.653,0,0,1-2.1,2.72,9.543,9.543,0,0,1-2.02-2.72Zm1.64-2.24-.44.1H27.58V23.8H30.4l-1.78.54A13.516,13.516,0,0,0,31,27.9a15.145,15.145,0,0,1-4.52,1.9,9.828,9.828,0,0,1,1.3,2,18.529,18.529,0,0,0,5.02-2.3,14.44,14.44,0,0,0,5.24,2.3,9.8,9.8,0,0,1,1.52-2.12,14.846,14.846,0,0,1-4.86-1.74,13.206,13.206,0,0,0,3.44-5.66Zm21.96-5H51.2V13.08H48.72v3.48h-7.1V18.9H58.5ZM48.34,27.32a32.711,32.711,0,0,0-1.88-7.68l-2.28.6a32.424,32.424,0,0,1,1.72,7.72Zm5.12,1.26a81.4,81.4,0,0,0,2.5-8.52l-2.74-.5a49.984,49.984,0,0,1-2.28,9.02H40.98v2.38h18.1V28.58Zm15.6-14.52-2.84-.12a9.07,9.07,0,0,1-.1,2.02c-.04.24-.08.52-.12.82a28.585,28.585,0,0,1-3.92-.38v2.48c1.02.1,2.2.16,3.46.18a32,32,0,0,1-2.28,6.72l2.36.84a7.391,7.391,0,0,1,.56-.88,6.921,6.921,0,0,1,5.54-2.34c1.96,0,2.98,1,2.98,2.2,0,2.94-4.42,3.48-8.8,2.76l.7,2.58c6.46.7,10.8-.92,10.8-5.42,0-2.56-2.14-4.28-5.38-4.28a9.745,9.745,0,0,0-4.96,1.26c.3-.98.62-2.26.9-3.48,2.68-.14,5.86-.52,7.94-.86l-.04-2.38a48.971,48.971,0,0,1-7.4.94c.04-.22.08-.44.12-.62C68.72,15.44,68.84,14.76,69.06,14.06ZM82.12,22.8a27,27,0,0,0,.78-5.58L81.22,17a26.153,26.153,0,0,1-.82,5.22Zm7.6,4.32V26.2H95.7v.92Zm5.98-3.54v.94H89.72v-.94Zm2.24-1.74H87.52v9.92h2.2v-3H95.7v.66c0,.24-.1.32-.38.32-.26,0-1.2.02-2.02-.04a7.882,7.882,0,0,1,.64,2.02,7.654,7.654,0,0,0,3.08-.34c.72-.32.92-.88.92-1.92Zm-4.1-2.46v-.86h4.3v-1.6h-4.3v-.8h4.84v-1.7H93.84V13.06H91.48v1.36H86.8v1.7h4.68v.8H87.34V18.5a23.858,23.858,0,0,0-1.12-2.72l-1.14.48v-3.2H82.94V31.72h2.14V17.18a16.721,16.721,0,0,1,.74,2.2l1.56-.76-.04-.1h4.14v.86h-5.3v1.7h13.1v-1.7Zm12.92,3.12h-2.9l.64-.18a8.548,8.548,0,0,0-.7-2.14h3.04a20.635,20.635,0,0,1-.72,2.14Zm-.34-5.7h2.6V14.84h-2.6V13.1h-2.2v1.74h-2.86V16.8h2.86v1.38h-3.56v2h1.98l-.72.18a11.4,11.4,0,0,1,.66,2.14h-1.5v2h3.14v1.54h-2.98v2h2.98v3.64h2.2V28.04h2.82v-2h-2.82V24.5h3.04v-2h-1.5c.28-.6.58-1.38.92-2.12l-.78-.2h1.66v-2h-3.34Zm5.86,6.66a19.781,19.781,0,0,0,1.92,4.32,10.363,10.363,0,0,1-1.92,2.04Zm4.16-.82a14.531,14.531,0,0,1-1.06,3.1,15.05,15.05,0,0,1-1.42-3.1Zm1.06-1.98-.4.1h-4.82V15.98h3.98v1.64c0,.22-.1.28-.4.3-.3,0-1.4,0-2.38-.04a8.159,8.159,0,0,1,.68,2.04,9.27,9.27,0,0,0,3.3-.34c.78-.32,1-.9,1-1.92V13.9h-8.34V31.72h2.16V30.54a6.9,6.9,0,0,1,1.1,1.24,11.041,11.041,0,0,0,2.18-2.14,10.509,10.509,0,0,0,2.5,2.12,8.226,8.226,0,0,1,1.54-1.88,9.649,9.649,0,0,1-2.78-2.18,20.429,20.429,0,0,0,2.1-6.54Zm19.36-5.36-2.98-1.04a12.473,12.473,0,0,1-.48,1.84,20.739,20.739,0,0,1-2.22,4.76c-1.62-1.2-3.72-2.64-5.32-3.62l-1.7,2.04a54.989,54.989,0,0,1,5.4,3.8,22.009,22.009,0,0,1-7.6,5.9L124.2,31a25,25,0,0,0,7.44-6.18,40.272,40.272,0,0,1,4.44,4.42l2.06-2.28a52.368,52.368,0,0,0-4.8-4.42,30.205,30.205,0,0,0,2.68-5.44C136.22,16.64,136.6,15.76,136.86,15.3Zm6.9-.4v2.58c.6-.04,1.46-.06,2.14-.06h6.54c.7,0,1.48.02,2.16.06V14.9a15.7,15.7,0,0,1-2.16.16H145.9A14.964,14.964,0,0,1,143.76,14.9Zm-2.32,5.12v2.62c.56-.04,1.34-.08,1.92-.08h5.5a8.6,8.6,0,0,1-1.24,4.42A8.167,8.167,0,0,1,144,29.84l2.34,1.7a9.479,9.479,0,0,0,4.02-3.84,12.688,12.688,0,0,0,1.28-5.14h4.82c.56,0,1.32.02,1.82.06v-2.6a15.125,15.125,0,0,1-1.82.12h-13.1A15.227,15.227,0,0,1,141.44,20.02Zm14.36-6.5-1.6.66a25.463,25.463,0,0,1,1.58,2.78l1.6-.7C157,15.52,156.3,14.26,155.8,13.52Zm2.36-.9-1.58.66a23.6,23.6,0,0,1,1.6,2.76l1.6-.7A31.285,31.285,0,0,0,158.16,12.62Zm2.58,11.68,1.18,2.36a41.724,41.724,0,0,0,5.74-2.34V29.6c0,.7-.06,1.76-.1,2.16h2.96a11.136,11.136,0,0,1-.14-2.16V22.74a26.215,26.215,0,0,0,4.48-3.64l-1.98-1.94a20.837,20.837,0,0,1-4.98,4.28A26.409,26.409,0,0,1,160.74,24.3Zm36.96-7.84-1.58-1.48a10.315,10.315,0,0,1-2.04.18H183.3a15.856,15.856,0,0,1-2.44-.2v2.78c.94-.08,1.6-.14,2.44-.14h10.42a11.894,11.894,0,0,1-3.68,3.72l2.08,1.66a20.37,20.37,0,0,0,4.8-5.48A10.068,10.068,0,0,1,197.7,16.46Zm-8.16,2.7h-2.9a11.087,11.087,0,0,1,.14,1.8c0,3.28-.48,5.4-3.02,7.16a7.9,7.9,0,0,1-2.1,1.1l2.34,1.9C189.44,28.2,189.54,24.12,189.54,19.16Z" transform="translate(250 60)" fill="#333"/>
  </g>
</svg>
