<svg id="logo-tayorou" xmlns="http://www.w3.org/2000/svg" width="140.42" height="48" viewBox="0 0 140.42 48">
  <path id="Path_86" data-name="Path 86" d="M80.923,19.951H66.339V25.3H80.923A2.68,2.68,0,0,1,83.6,27.981v7H71.171l-1.954,5.436H83.6v6.63a2.68,2.68,0,0,1-2.677,2.677H66.339v5.354H80.923a8.04,8.04,0,0,0,8.031-8.031V27.981A8.04,8.04,0,0,0,80.923,19.951Z" transform="translate(-26.533 -7.981)" fill="#333"/>
  <ellipse id="Ellipse_13" data-name="Ellipse 13" cx="2.085" cy="2.218" rx="2.085" ry="2.218" transform="translate(83.124 27.581)" fill="#333"/>
  <path id="Path_87" data-name="Path 87" d="M207.246,21.819h-2.1v-3.8H199.7v3.8h-2.284a8.04,8.04,0,0,0-8.03,8.03v4.086h5.354V29.849a2.68,2.68,0,0,1,2.677-2.677h9.824a3.573,3.573,0,0,1,3.569,3.57v.831a12.738,12.738,0,0,1-.71,4.2L203.077,54.13h5.733l6.309-16.477.026-.07a18.09,18.09,0,0,0,1.025-6.008v-.833a8.933,8.933,0,0,0-8.924-8.923Z" transform="translate(-75.75 -7.21)" fill="#333"/>
  <path id="Path_88" data-name="Path 88" d="M27.732,34.779a18.054,18.054,0,0,0,.758-5.133V28.278a9.827,9.827,0,0,0-9.815-9.815h-12L0,34.386H5.8l4.429-10.568h8.441a4.467,4.467,0,0,1,4.462,4.461v1.366a12.682,12.682,0,0,1-.706,4.188l-.139.374H13.275L11.32,39.642h8.951L14.488,55.2H20.2l5.783-15.555h3.5a4.057,4.057,0,0,0-1.751-4.864Z" transform="translate(0 -7.387)" fill="#333"/>
  <path id="Path_89" data-name="Path 89" d="M136.505,18.622a16.061,16.061,0,0,0-16.043,16.043V35.9c-1.946,1.349-2.229,2.513-2.258,3.3-.07,1.889,1.4,3,2.284,3.671.1.075.223.168.335.257a11.7,11.7,0,0,0,3.588,7.253,17.684,17.684,0,0,0,12.094,5.066h0a16.061,16.061,0,0,0,16.043-16.043v-4.74A16.062,16.062,0,0,0,136.505,18.622ZM147.2,39.408A10.7,10.7,0,0,1,136.505,50.1a12.363,12.363,0,0,1-7.466-2.739,6.08,6.08,0,0,0,2.214-1.243,1.338,1.338,0,1,0-1.707-2.062,2.58,2.58,0,0,1-2.76.665,4.915,4.915,0,0,1-.637-2.32,4.041,4.041,0,0,0-1.455-3,4.314,4.314,0,0,0,1.121-2.9V34.665a10.69,10.69,0,1,1,21.38,0Z" transform="translate(-47.276 -7.451)" fill="#333"/>
  <path id="Path_90" data-name="Path 90" d="M165.331,12.994a1.785,1.785,0,0,1-1.583-2.607l2.665-5.14a1.785,1.785,0,1,1,3.169,1.642l-2.665,5.144A1.785,1.785,0,0,1,165.331,12.994Z" transform="translate(-65.415 -1.715)" fill="#ffad29"/>
  <path id="Path_91" data-name="Path 91" d="M155.079,9.246a1.811,1.811,0,0,1-.356-.035,1.785,1.785,0,0,1-1.4-2.1l1.148-5.676a1.785,1.785,0,0,1,3.5.707l-1.148,5.675A1.785,1.785,0,0,1,155.079,9.246Z" transform="translate(-61.312 -0.004)" fill="#ffad29"/>
  <path id="Path_92" data-name="Path 92" d="M174.352,20.02a1.785,1.785,0,0,1-1.269-3.04l4.071-4.117a1.785,1.785,0,1,1,2.538,2.509l-4.071,4.117a1.779,1.779,0,0,1-1.269.53Z" transform="translate(-69.021 -4.936)" fill="#ffad29"/>
</svg>
