<svg xmlns="http://www.w3.org/2000/svg" width="120.068" height="45.092" viewBox="0 0 120.068 45.092">
  <g id="Group_17367" data-name="Group 17367" transform="translate(-159.96 -444.96)">
    <path id="Path_17043" data-name="Path 17043" d="M304.959,446.52l-2.8,15.51h3.556l2.8-15.51Z" transform="translate(-52.546 -0.576)" fill="#fff"/>
    <path id="Path_17044" data-name="Path 17044" d="M304.294,445.943l.984.151L302.63,460.47h1.589l2.5-13.618h-2.421v-.908l.984.151-.984-.151v-.984h4.691l-3.178,17.4H300.36l3.178-17.4h.757Z" transform="translate(-51.881)" fill="#fff"/>
    <path id="Path_17045" data-name="Path 17045" d="M276.452,467.64,264.12,486.176h3.707l12.408-18.536Z" transform="translate(-38.489 -8.381)" fill="#fff"/>
    <path id="Path_17046" data-name="Path 17046" d="M275.432,467.108l.832.53-11.349,17.1h1.437L277.4,468.091h-1.967v-.984l.832.53-.832-.53V466.2h5.523l-13.618,20.428H261.36L274.978,466.2h.454Z" transform="translate(-37.469 -7.849)" fill="#fff"/>
    <path id="Path_17047" data-name="Path 17047" d="M271.427,467.64l8.02,18.536H275.74l-8.02-18.536Z" transform="translate(-39.82 -8.381)" fill="#fff"/>
    <path id="Path_17048" data-name="Path 17048" d="M270.585,467.108l.908-.378,8.549,19.9h-5.826L265.44,466.2h5.826l.227.53-.908.378v.984h-2.27l7.187,16.645h1.664l-7.414-17.25.832-.378v0Z" transform="translate(-38.977 -7.849)" fill="#fff"/>
    <path id="Path_17049" data-name="Path 17049" d="M315.475,446.52,312.6,462.03h3.556l2.875-15.51Z" transform="translate(-56.404 -0.576)" fill="#fff"/>
    <path id="Path_17050" data-name="Path 17050" d="M314.81,445.943l.908.151L313.07,460.47h1.665l2.5-13.618H314.81v-.908l.908.151-.908-.151v-.984H319.5l-3.178,17.4H310.8l3.178-17.4h.832Z" transform="translate(-55.739)" fill="#fff"/>
    <path id="Path_17051" data-name="Path 17051" d="M325.959,446.52l-2.8,15.51h3.556l2.8-15.51Z" transform="translate(-60.306 -0.576)" fill="#fff"/>
    <path id="Path_17052" data-name="Path 17052" d="M325.294,445.943l.908.151L323.63,460.47h1.589l2.5-13.618h-2.421v-.908l.908.151-.908-.151v-.984h4.691l-3.178,17.4H321.36l3.178-17.4h.757Z" transform="translate(-59.641)" fill="#fff"/>
    <path id="Path_17053" data-name="Path 17053" d="M296.645,499.44l-.605,3.253h3.632l.53-3.253Z" transform="translate(-50.284 -20.132)" fill="#fff"/>
    <path id="Path_17054" data-name="Path 17054" d="M296.024,498.863l.908.151-.378,2.194h1.664l.227-1.437h-2.421v-.908l.908.151-.908-.151v-.984h4.691l-.908,5.22H294.36l.832-5.22h.832Z" transform="translate(-49.664 -19.555)" fill="#fff"/>
    <path id="Path_17055" data-name="Path 17055" d="M307.13,499.44l-.53,3.253h3.556l.605-3.253Z" transform="translate(-54.187 -20.132)" fill="#fff"/>
    <path id="Path_17056" data-name="Path 17056" d="M306.464,498.863l.984.151-.378,2.194h1.589l.3-1.437h-2.5v-.908l.984.151-.984-.151v-.984h4.691l-.908,5.22H304.8l.908-5.22h.757Z" transform="translate(-53.521 -19.555)" fill="#fff"/>
    <path id="Path_17057" data-name="Path 17057" d="M317.645,499.44l-.605,3.253H320.6l.605-3.253Z" transform="translate(-58.044 -20.132)" fill="#fff"/>
    <path id="Path_17058" data-name="Path 17058" d="M317.024,498.863l.908.151-.378,2.194h1.664l.227-1.437h-2.421v-.908l.908.151-.908-.151v-.984h4.691l-.908,5.22H315.36l.832-5.22h.832Z" transform="translate(-57.424 -19.555)" fill="#fff"/>
    <path id="Path_17059" data-name="Path 17059" d="M175.926,467.64h-4.615a8.744,8.744,0,0,0-7.112,3.4,12.645,12.645,0,0,0-2.8,8.247,7.117,7.117,0,0,0,1.816,4.993,6.5,6.5,0,0,0,4.766,1.892H172.6l.605-3.026h-4.615a3.223,3.223,0,0,1-2.648-1.135,4.835,4.835,0,0,1-.984-3.178,9.735,9.735,0,0,1,1.816-5.674,5.28,5.28,0,0,1,4.388-2.5h4.161Z" transform="translate(-0.532 -8.381)" fill="#fff"/>
    <path id="Path_17060" data-name="Path 17060" d="M175.394,467.108v.984h-4.615a7.852,7.852,0,0,0-6.431,3.026,11.469,11.469,0,0,0-2.5,7.641,6.106,6.106,0,0,0,1.513,4.312,5.764,5.764,0,0,0,4.086,1.664h3.859l.227-1.135h-3.48a4.362,4.362,0,0,1-3.4-1.513,5.817,5.817,0,0,1-1.211-3.783,10.175,10.175,0,0,1,2.043-6.2,6.369,6.369,0,0,1,5.145-2.951h3.4l.454-2.194.908.151v0l.908.227-.757,3.707h-4.918A4.559,4.559,0,0,0,167,473.236v-.076a9.059,9.059,0,0,0-1.664,5.145,4.163,4.163,0,0,0,.757,2.572,2.4,2.4,0,0,0,1.967.832h5.75l-.908,4.918H167.45a7.08,7.08,0,0,1-5.447-2.27,7.976,7.976,0,0,1-2.043-5.6,13.444,13.444,0,0,1,2.951-8.852,9.826,9.826,0,0,1,7.868-3.707h5.75l-.227,1.135Z" transform="translate(0 -7.849)" fill="#fff"/>
    <path id="Path_17061" data-name="Path 17061" d="M198.538,473.52h-4.161l-3.707,4.842L188.7,473.52H184.92l3.48,8.171-1.21,6.658h3.556l1.135-6.355Z" transform="translate(-9.223 -10.553)" fill="#fff"/>
    <path id="Path_17062" data-name="Path 17062" d="M197.7,472.988v.984h-3.707l-4.388,5.75-2.421-5.75h-1.664l3.026,7.112-1.059,5.826h1.589l1.135-5.9,6.734-8.549.757.53v0l.757.605-6.507,8.247-1.286,6.96h-5.447l1.362-7.49-3.934-9.23h5.826l1.589,3.859,2.951-3.859h6.658l-1.211,1.513Z" transform="translate(-8.381 -10.021)" fill="#fff"/>
    <path id="Path_17063" data-name="Path 17063" d="M226.164,473.52l-2.724,14.829h9.835l.605-3.253h-6.2l.53-3.1h4.539l.605-3.178h-4.539l.378-2.043h6.28l.605-3.253Z" transform="translate(-23.457 -10.553)" fill="#fff"/>
    <path id="Path_17064" data-name="Path 17064" d="M225.5,472.988l.908.151-2.5,13.77h7.868l.3-1.362h-6.2l.908-5.069h4.539l.227-1.211h-4.539l.681-4.01h6.355l.227-1.286H225.5v-.984l.908.151-.908-.151v-.908h11.046l-.908,5.069h-6.355v.227h4.539l-.984,4.993h-4.464l-.227,1.286h6.2l-.984,5.145H221.64l3.026-16.72h.832Z" transform="translate(-22.792 -10.021)" fill="#fff"/>
    <path id="Path_17065" data-name="Path 17065" d="M300.572,476.773l.605-3.253H290.964l-2.724,14.829h10.214l.605-3.253H292.4l.605-3.1h4.842l.605-3.178h-4.842l.378-2.043Z" transform="translate(-47.402 -10.553)" fill="#fff"/>
    <path id="Path_17066" data-name="Path 17066" d="M299.907,476.241,299,476.09l.378-2.118h-8.322l-2.345,12.937h8.247l.3-1.362H290.6l.983-5.069h4.766l.227-1.211h-4.766l.681-4.01h7.414v.984L299,476.09l.908.151v.908h-5.826v.227h4.842l-.984,4.993H293.1l-.227,1.286h6.658l-.984,5.145H286.44l3.1-16.72h12.105l-.984,5.069h-.757Z" transform="translate(-46.737 -10.021)" fill="#fff"/>
    <path id="Path_17067" data-name="Path 17067" d="M320.252,476.773l.605-3.253H310.644l-2.724,14.829h10.214l.605-3.253h-6.582l.53-3.1h4.842l.605-3.178h-4.842l.378-2.043Z" transform="translate(-54.674 -10.553)" fill="#fff"/>
    <path id="Path_17068" data-name="Path 17068" d="M319.587,476.241l-.908-.151.378-2.118h-8.247l-2.421,12.937h8.322l.227-1.362h-6.582l.908-5.069h4.842l.227-1.211h-4.842l.757-4.01h7.339v.984l-.908-.151.908.151v.908h-5.826v.227H318.6l-.983,4.993h-4.766l-.227,1.286h6.582L318.3,488.8H306.12l3.1-16.72h12.105l-.908,5.069h-.832Z" transform="translate(-54.009 -10.021)" fill="#fff"/>
    <path id="Path_17069" data-name="Path 17069" d="M254.79,488.349l-3.329-6.582a4.236,4.236,0,0,0-1.362-8.247h-4.615l-2.724,14.829h3.632l1.135-6.355h.3l2.951,6.355Zm-6.28-11.576H250.4a1.041,1.041,0,0,1-.3,2.043h-1.967Z" transform="translate(-30.596 -10.553)" fill="#fff"/>
    <path id="Path_17070" data-name="Path 17070" d="M254.124,487.817l-.832.454-3.783-7.566.984-.378a3.346,3.346,0,0,0,2.27-3.1,3.294,3.294,0,0,0-3.329-3.253h-3.859l-2.345,12.937h1.664l1.211-6.431h1.664l2.951,6.431h3.4v.908l-.832.454.832-.454v.984h-4.615l-3.178-6.961.832-.378v.908h-.3v-.908l.984.151-1.362,7.187H240.96l3.1-16.72h5.372a5.167,5.167,0,0,1,5.22,5.145,5.231,5.231,0,0,1-3.556,4.918l-.3-.908.832-.454,4.01,8.02h-1.513Zm-6.28-11.576v-.984h2.043l.076.076a1.952,1.952,0,0,1,1.437,1.892,1.908,1.908,0,0,1-1.967,1.967v-.908h.984v.984h-4.085l.681-4.01h.832v.984l.908.151-.151.984h.832v.908h-.908V477.3h.908c.076,0,.076,0,.076-.076a.074.074,0,0,0-.076-.076l.3-.908v.908h-1.891v-.908l.908.151Z" transform="translate(-29.931 -10.021)" fill="#fff"/>
    <path id="Path_17071" data-name="Path 17071" d="M215.456,477.757a4.23,4.23,0,0,0-4.237-4.237H206.6l-2.724,14.829h6.431a4.747,4.747,0,0,0,4.766-4.767,4.437,4.437,0,0,0-.908-2.8A4.285,4.285,0,0,0,215.456,477.757Zm-5.826-.984h1.891a1.041,1.041,0,0,1-.3,2.043h-1.967Zm.908,8.4h-2.5l.605-3.178h1.664a1.551,1.551,0,0,1,1.589,1.589A1.625,1.625,0,0,1,210.538,485.171Z" transform="translate(-16.229 -10.553)" fill="#fff"/>
    <path id="Path_17072" data-name="Path 17072" d="M214.79,477.225h-.984a3.229,3.229,0,0,0-3.253-3.253H206.7l-2.345,12.937h6.28v.908h-.984v-.908a3.875,3.875,0,0,0,3.859-3.859,4.077,4.077,0,0,0-.757-2.27l-.454-.605.53-.605a3.319,3.319,0,0,0,.984-2.345H215.7a5.327,5.327,0,0,1-1.513,3.707l-.681-.681.757-.53a5.518,5.518,0,0,1,1.135,3.329,5.747,5.747,0,0,1-5.75,5.75H202.08l3.026-16.72h5.447a5.1,5.1,0,0,1,5.145,5.145Zm-5.826-.984v-.984h1.967l.151.076a1.952,1.952,0,0,1,1.438,1.892,1.908,1.908,0,0,1-1.967,1.967v-.908h.908v.984H209.8c-.151,0-.151-.076-.151,0v-.984h.984v.984h-3.178l.681-4.01h.832v.984l.908.151-.378,2.043-.908-.151v-.908h1.059v.908h-.908v-.908h1.135l-.076.908v-.908h.757v.908h-.908V477.3h.908c.076,0,.076,0,.076-.076a.074.074,0,0,0-.076-.076l.3-.908v.908h-1.891v-.908l.908.151Zm.908,8.4v.908h-3.632l.984-5.069h3.4v.984h-.984v-.908a2.507,2.507,0,0,1,.378,4.993h-.151v-.908l-.076-.984a.65.65,0,0,0,.53-.605c0-.378-.3-.605-.681-.681h-1.664v-.908l.908.151-.378,2.043h1.362v.984l-.076-.984Z" transform="translate(-15.564 -10.021)" fill="#fff"/>
    <path id="Path_17073" data-name="Path 17073" d="M333.7,473.52h-3.253l-2.724,14.829H333.7a7.414,7.414,0,0,0,0-14.829Zm0,11.651h-1.816l1.589-8.4h.227a4.2,4.2,0,0,1,0,8.4Z" transform="translate(-61.991 -10.553)" fill="#fff"/>
    <path id="Path_17074" data-name="Path 17074" d="M333.032,472.988v.984h-2.5l-2.345,12.937h4.842v.908h-.984v-.908h.984a6.54,6.54,0,0,0,6.431-6.507,6.425,6.425,0,0,0-6.431-6.431V472.08a8.3,8.3,0,0,1,8.322,8.322,8.412,8.412,0,0,1-8.322,8.4v-.984h.908v.984l-8.02-.076,3.026-16.645h4.086Zm0,11.651v.908h-2.951l1.891-10.289h1.059a5.25,5.25,0,0,1,5.145,5.145,5.15,5.15,0,0,1-5.145,5.145v-1.891a3.253,3.253,0,0,0,0-6.507H332.8v-.908l.908.151-1.362,7.263h.681Z" transform="translate(-61.326 -10.021)" fill="#fff"/>
    <path id="Path_17075" data-name="Path 17075" d="M295.944,510.24h-4.237l-.227,1.211h4.237Z" transform="translate(-48.599 -24.122)" fill="#fff"/>
    <path id="Path_17076" data-name="Path 17076" d="M295.279,509.664v.908h-3.4l-.076.454-.984-.151v-.984h3.4l.076-.454.984.227v0l.908.151-.378,1.967H289.68l.605-3.1h6.128l-.227,1.135Z" transform="translate(-47.934 -23.546)" fill="#fff"/>
    <path id="Path_17077" data-name="Path 17077" d="M332.664,510.24h-4.237l-.227,1.211h4.237Z" transform="translate(-62.168 -24.122)" fill="#fff"/>
    <path id="Path_17078" data-name="Path 17078" d="M332,509.664v.908h-3.4l-.151.454-.908-.151v-.984h3.4l.076-.454.984.227v0l.908.151-.378,1.967H326.4l.605-3.1h6.128l-.227,1.135Z" transform="translate(-61.503 -23.546)" fill="#fff"/>
    <path id="Path_17079" data-name="Path 17079" d="M290.437,507.48h-.53l-.227,1.211h.53Z" transform="translate(-47.934 -23.102)" fill="#fff"/>
    <path id="Path_17080" data-name="Path 17080" d="M289.771,506.9v.908h-.53V506.9l.984.151L290,508.265l-.984-.151v-.984h.53v.984l-.984-.151.227-1.286.984.227v0l.908.151-.378,1.967H287.88l.605-3.1h2.421l-.227,1.135Z" transform="translate(-47.269 -22.526)" fill="#fff"/>
    <path id="Path_17081" data-name="Path 17081" d="M291.681,507.48h-.454L291,508.69h.454Z" transform="translate(-48.422 -23.102)" fill="#fff"/>
    <path id="Path_17082" data-name="Path 17082" d="M291.016,506.9v.908h-.454V506.9l.908.151-.227,1.211-.908-.151v-.984h.454v.984l-.908-.151.227-1.286.908.227v0l.908.151-.3,1.967H289.2l.53-3.1h2.421l-.227,1.135Z" transform="translate(-47.757 -22.526)" fill="#fff"/>
    <path id="Path_17083" data-name="Path 17083" d="M321.355,510.24h-2.648l-.227,1.211h2.648Z" transform="translate(-58.577 -24.122)" fill="#fff"/>
    <path id="Path_17084" data-name="Path 17084" d="M320.69,509.664v.908H318.8l-.076.454-.908-.151v-.984h1.891l.076-.454.908.227v0l.908.151-.3,1.967H316.68l.53-3.1h4.615l-.227,1.135Z" transform="translate(-57.911 -23.546)" fill="#fff"/>
    <path id="Path_17085" data-name="Path 17085" d="M321.835,507.48h-2.648l-.227,1.211h2.648Z" transform="translate(-58.754 -23.102)" fill="#fff"/>
    <path id="Path_17086" data-name="Path 17086" d="M321.17,506.9v.908h-1.891l-.076.454-.908-.151v-.908h1.891l.076-.454.908.151v0l.908.151-.3,2.043H317.16l.53-3.178H322.3l-.227,1.135Z" transform="translate(-58.089 -22.526)" fill="#fff"/>
    <path id="Path_17087" data-name="Path 17087" d="M341.132,509.22h-3.556l.378-1.74h-1.286l-.908,4.766h1.286l.378-1.816h3.48Z" transform="translate(-64.962 -23.102)" fill="#fff"/>
    <path id="Path_17088" data-name="Path 17088" d="M340.467,508.644v.908h-4.615l.3-1.74H336V506.9l.908.151-.681,3.632h.151v.984l-.908-.227.454-2.572h3.556l.076-.454.908.227v0l.908.151-.3,1.967h-3.556l-.3,1.816H333.96l1.211-6.658h3.253l-.378,1.74H341.6l-.227,1.135Z" transform="translate(-64.297 -22.526)" fill="#fff"/>
    <path id="Path_17089" data-name="Path 17089" d="M304.247,508.69l.227-1.211h-4.766l-.227,1.211h1.664l-.378,2.27h-1.74l-.227,1.286h4.766l.227-1.286h-1.74l.378-2.27Z" transform="translate(-51.304 -23.102)" fill="#fff"/>
    <path id="Path_17090" data-name="Path 17090" d="M303.582,508.114l-.983-.151.076-.151H299.8l-.076.454-.908-.151v-.984h2.8l-.757,4.237h-1.664l-.076.454-.984-.151v-.984h4.01l.076-.454.908.151v.983h-2.875l.757-4.237h2.572v.984l-.983-.151.983.151v.908H302.6l-.076.454h1.74l-.53,3.1H297l.605-3.1h1.664l.076-.454h-1.664l.53-3.1h6.733l-.605,3.1h-.757Z" transform="translate(-50.639 -22.526)" fill="#fff"/>
    <path id="Path_17091" data-name="Path 17091" d="M287.988,510.96h.757l-.227,1.211h-.984c-1.211,0-.984-1.211-.984-1.211l.605-3.48h1.286l-.605,3.253S287.761,510.96,287.988,510.96Z" transform="translate(-46.772 -23.102)" fill="#fff"/>
    <path id="Path_17092" data-name="Path 17092" d="M287.421,510.384v-.908h1.891l-.605,3.1h-1.74a2.109,2.109,0,0,1-1.664-.832,2.822,2.822,0,0,1-.3-1.211c0-.151,0-.227.076-.3l.757-4.313h3.178l-.757,4.464h-.076l-.53-.151h.605c0,.076,0,.151-.076.151l-.53-.151H287.5l.605-.454a.747.747,0,0,1,.151.454H287.5l.605-.454-.681.454v-.757a.712.712,0,0,1,.681.3l-.681.454v1.135a1.046,1.046,0,0,1-.832-.454,1.008,1.008,0,0,1-.227-.681c0-.227,0-.3.076-.378l.832.3-.908-.227.378-2.118h-.151V506.9l.984.151-.681,3.48-.908-.151.908.151c0,.076.076.151,0,.151l-.076.076.076-.076-.076.076.076-.076h.227l.076-.454.984.151v.984h-.757Z" transform="translate(-46.205 -22.526)" fill="#fff"/>
    <path id="Path_17093" data-name="Path 17093" d="M343.117,507.48h-.53l-.227,1.211h.53Z" transform="translate(-67.401 -23.102)" fill="#fff"/>
    <path id="Path_17094" data-name="Path 17094" d="M342.451,506.9v.908h-.53V506.9l.908.151-.151,1.211-.984-.151v-.984h.53v.984l-.983-.151.227-1.286.984.227v0l.908.151-.378,1.967H340.56l.605-3.1h2.421l-.227,1.135Z" transform="translate(-66.736 -22.526)" fill="#fff"/>
    <path id="Path_17095" data-name="Path 17095" d="M344.361,507.48h-.454l-.227,1.211h.454Z" transform="translate(-67.888 -23.102)" fill="#fff"/>
    <path id="Path_17096" data-name="Path 17096" d="M343.7,506.9v.908h-.454V506.9l.908.151-.227,1.211-.908-.151v-.984h.454v.984l-.908-.151.227-1.286.908.227v0l.908.151-.3,1.967H341.88l.53-3.1h2.421l-.227,1.135Z" transform="translate(-67.223 -22.526)" fill="#fff"/>
    <path id="Path_17097" data-name="Path 17097" d="M282.3,507.36l-.605,3.329c0,.151-.151.227-.3.227h-.605l-.227,1.286h.908a1.546,1.546,0,0,0,1.513-1.211l.605-3.632Z" transform="translate(-44.564 -23.058)" fill="#fff"/>
    <path id="Path_17098" data-name="Path 17098" d="M281.635,506.828l.908.227-.53,3.253-.984-.151.984.151a1.366,1.366,0,0,1-1.286,1.059h-.605v-.984l.984.151-.227,1.286-.983-.151v-.984h.908c.3,0,.53-.151.53-.378l.454-2.5h-.151v-.984l.908.227-.908-.227v-.908h2.421l-.832,4.691a2.442,2.442,0,0,1-2.421,1.967H278.76l.605-3.1h1.362v.605l-.605-.076a.642.642,0,0,1,.605-.53v.605l-.605-.076v-.076l.757-4.01h.757Z" transform="translate(-43.899 -22.526)" fill="#fff"/>
    <path id="Path_17099" data-name="Path 17099" d="M268.026,507.965h-.605l.151-.605h-1.286l-.151.605h-1.967l.151-.53h-1.286l-.151.53h-.454l-.227,1.21h.454l-.227,1.211h1.286l.227-1.211h1.967l-.227,1.513c-.076.151-.151.227-.3.227h-1.135l-.227,1.286h1.438a1.463,1.463,0,0,0,1.438-1.211l.3-1.816h.605Z" transform="translate(-37.78 -23.058)" fill="#fff"/>
    <path id="Path_17100" data-name="Path 17100" d="M267.36,507.433v.908h-1.74l.151-.53h-.151v-.984l.908.227-.076.53-.151.757h-3.934l.151-.53h-.151V506.9l.908.151-.076.53-.151.757h-.53l-.076.454-.908-.151v-.908h1.589l-.227,1.135h.151v.984l-.908-.151.378-1.967h3.859l-.454,2.572a1.294,1.294,0,0,1-1.211,1.059h-.3l-.076.454-.984-.151v-.984h1.437a.5.5,0,0,0,.53-.378l.454-2.572h.605l.076-.454.908.151v0l.984.151-.378,2.043h-.605l-.227.984a2.3,2.3,0,0,1-2.345,1.967h-2.572l.605-3.1h1.891v.605l-.605-.151c0-.227.3-.454.605-.454v.605l-.605-.151.908.227-.908-.227v-.3l-.076.378-.151.757h-3.253l.454-2.27.908.151v.984H260.4l.53-3.178h1.286v.984l-.908-.151.076-.605.151-.757h3.253l-.151.53h.832v.984l-.908-.227.076-.53.151-.757h3.253l-.3,1.664-.984-.151v-.984h1.74l-.151,1.135Z" transform="translate(-37.115 -22.526)" fill="#fff"/>
    <path id="Path_17101" data-name="Path 17101" d="M322.842,507.36l-.605,3.329c-.076.151-.151.227-.3.227h-3.783L318,512.2h4.01a1.463,1.463,0,0,0,1.438-1.211l.681-3.632Z" transform="translate(-58.399 -23.058)" fill="#fff"/>
    <path id="Path_17102" data-name="Path 17102" d="M322.177,506.828l.908.227-.605,3.253a1.294,1.294,0,0,1-1.211,1.059h-2.951l-.076.454-.908-.151v-.984h4.01a.5.5,0,0,0,.53-.378l.454-2.5h-.151v-.984l.908.227-.908-.227v-.908H324.6l-.908,4.691a2.3,2.3,0,0,1-2.345,1.967H316.2l.53-3.1h4.539v.605l-.605-.151c0-.227.3-.454.605-.454v.605l-.605-.151.908.227-.908-.227.681-4.01h.832Z" transform="translate(-57.734 -22.526)" fill="#fff"/>
    <path id="Path_17103" data-name="Path 17103" d="M309.762,507.436l-.227,1.438a.5.5,0,0,1-.378.3h-.53l-.227,1.211h.908a1.527,1.527,0,0,0,1.438-1.211l.076-.53h1.891l-.378,2.043a.35.35,0,0,1-.378.227h-2.345l-.151,1.286h2.648a1.527,1.527,0,0,0,1.438-1.211l.605-3.632Z" transform="translate(-54.852 -23.058)" fill="#fff"/>
    <path id="Path_17104" data-name="Path 17104" d="M309.1,506.9l.908.151-.227,1.438a1.284,1.284,0,0,1-1.211,1.059h-.605v-.908l.908.151-.227,1.21-.908-.151v-.984h.908c.3,0,.454-.151.454-.378l.151-.53.151-.832h3.707l-.53,3.178a1.245,1.245,0,0,1-1.286,1.059h-1.513l-.076.454-.908-.151v-.984h2.648a.5.5,0,0,0,.53-.378l.378-2.5H309.1V506.9l.908.151-.908-.151v-.984h5.523l-.832,4.691a2.362,2.362,0,0,1-2.345,1.967h-3.783l.53-3.1h3.1v.605l-.605-.151a.751.751,0,0,1,.605-.454v.605l-.605-.151.227-.908h-.757v-.908l.908.151-.076.53a2.35,2.35,0,0,1-2.345,1.967H306.6l.53-3.1h1.362v.605l-.605-.076a.642.642,0,0,1,.605-.53v.605l-.605-.076.984.151-.984-.151.378-2.27h.832Z" transform="translate(-54.187 -22.526)" fill="#fff"/>
    <path id="Path_17105" data-name="Path 17105" d="M276.459,507.36l-.3,1.513a.325.325,0,0,1-.3.3h-3.707l-.227,1.211h2.27l-.378,1.816H275.1l.378-1.816h.454a1.463,1.463,0,0,0,1.437-1.211l.3-1.816Z" transform="translate(-41.372 -23.058)" fill="#fff"/>
    <path id="Path_17106" data-name="Path 17106" d="M275.794,506.828l.908.227-.3,1.438a1.223,1.223,0,0,1-1.211,1.059h-2.951l-.076.454-.908-.151v-.984h3.4l-.378,1.816h.151v.984l-.908-.227.454-2.572h1.286a.5.5,0,0,0,.53-.378l.076-.681h-.076v-.984l.908.227-.908-.227v-.908h2.345l-.53,2.875a2.244,2.244,0,0,1-2.345,1.967h-.454v-.908l.908.151-.454,2.572h-3.253l.378-1.816h-2.27l.53-3.1h4.539v.605l-.605-.076a.585.585,0,0,1,.605-.53v.605l-.605-.076.378-2.27h.832Z" transform="translate(-40.706 -22.526)" fill="#fff"/>
    <path id="Path_17107" data-name="Path 17107" d="M304.959,446.52l-2.8,15.51h3.556l2.8-15.51Z" transform="translate(-52.546 -0.576)" fill="#00adee"/>
    <path id="Path_17108" data-name="Path 17108" d="M276.452,467.64,264.12,486.176h3.707l12.408-18.536Z" transform="translate(-38.489 -8.381)" fill="#0071bb"/>
    <path id="Path_17109" data-name="Path 17109" d="M271.427,467.64l8.02,18.536H275.74l-8.02-18.536Z" transform="translate(-39.82 -8.381)" fill="#0071bb"/>
    <path id="Path_17110" data-name="Path 17110" d="M315.475,446.52,312.6,462.03h3.556l2.875-15.51Z" transform="translate(-56.404 -0.576)" fill="#007dc5"/>
    <path id="Path_17111" data-name="Path 17111" d="M325.959,446.52l-2.8,15.51h3.556l2.8-15.51Z" transform="translate(-60.306 -0.576)" fill="#054ea2"/>
    <path id="Path_17112" data-name="Path 17112" d="M296.645,499.44l-.605,3.253h3.632l.53-3.253Z" transform="translate(-50.284 -20.132)" fill="#00adee"/>
    <path id="Path_17113" data-name="Path 17113" d="M307.13,499.44l-.53,3.253h3.556l.605-3.253Z" transform="translate(-54.187 -20.132)" fill="#007dc5"/>
    <path id="Path_17114" data-name="Path 17114" d="M317.645,499.44l-.605,3.253H320.6l.605-3.253Z" transform="translate(-58.044 -20.132)" fill="#054ea2"/>
    <path id="Path_17115" data-name="Path 17115" d="M175.926,467.64h-4.615a8.744,8.744,0,0,0-7.112,3.4,12.645,12.645,0,0,0-2.8,8.247,7.117,7.117,0,0,0,1.816,4.993,6.5,6.5,0,0,0,4.766,1.892H172.6l.605-3.026h-4.615a3.223,3.223,0,0,1-2.648-1.135,4.835,4.835,0,0,1-.984-3.178,9.735,9.735,0,0,1,1.816-5.674,5.28,5.28,0,0,1,4.388-2.5h4.161Z" transform="translate(-0.532 -8.381)" fill="#00adee"/>
    <path id="Path_17116" data-name="Path 17116" d="M198.538,473.52h-4.161l-3.707,4.842L188.7,473.52H184.92l3.48,8.171-1.21,6.658h3.556l1.135-6.355Z" transform="translate(-9.223 -10.553)" fill="#00a0e3"/>
    <path id="Path_17117" data-name="Path 17117" d="M226.164,473.52l-2.724,14.829h9.835l.605-3.253h-6.2l.53-3.1h4.539l.605-3.178h-4.539l.378-2.043h6.28l.605-3.253Z" transform="translate(-23.457 -10.553)" fill="#008ad0"/>
    <path id="Path_17118" data-name="Path 17118" d="M300.572,476.773l.605-3.253H290.964l-2.724,14.829h10.214l.605-3.253H292.4l.605-3.1h4.842l.605-3.178h-4.842l.378-2.043Z" transform="translate(-47.402 -10.553)" fill="#0066b3"/>
    <path id="Path_17119" data-name="Path 17119" d="M320.252,476.773l.605-3.253H310.644l-2.724,14.829h10.214l.605-3.253h-6.582l.53-3.1h4.842l.605-3.178h-4.842l.378-2.043Z" transform="translate(-54.674 -10.553)" fill="#005bab"/>
    <path id="Path_17120" data-name="Path 17120" d="M254.79,488.349l-3.329-6.582a4.236,4.236,0,0,0-1.362-8.247h-4.615l-2.724,14.829h3.632l1.135-6.355h.3l2.951,6.355Zm-6.28-11.576H250.4a1.041,1.041,0,0,1-.3,2.043h-1.967Z" transform="translate(-30.596 -10.553)" fill="#007dc5"/>
    <path id="Path_17121" data-name="Path 17121" d="M215.456,477.757a4.23,4.23,0,0,0-4.237-4.237H206.6l-2.724,14.829h6.431a4.747,4.747,0,0,0,4.766-4.767,4.437,4.437,0,0,0-.908-2.8A4.285,4.285,0,0,0,215.456,477.757Zm-5.826-.984h1.891a1.041,1.041,0,0,1-.3,2.043h-1.967Zm.908,8.4h-2.5l.605-3.178h1.664a1.551,1.551,0,0,1,1.589,1.589A1.625,1.625,0,0,1,210.538,485.171Z" transform="translate(-16.229 -10.553)" fill="#0095da"/>
    <path id="Path_17122" data-name="Path 17122" d="M333.7,473.52h-3.253l-2.724,14.829H333.7a7.414,7.414,0,0,0,0-14.829Zm0,11.651h-1.816l1.589-8.4h.227a4.2,4.2,0,0,1,0,8.4Z" transform="translate(-61.991 -10.553)" fill="#054ea2"/>
    <path id="Path_17123" data-name="Path 17123" d="M295.944,510.24h-4.237l-.227,1.211h4.237Z" transform="translate(-48.599 -24.122)" fill="#231f20"/>
    <path id="Path_17124" data-name="Path 17124" d="M332.664,510.24h-4.237l-.227,1.211h4.237Z" transform="translate(-62.168 -24.122)" fill="#231f20"/>
    <path id="Path_17125" data-name="Path 17125" d="M290.437,507.48h-.53l-.227,1.211h.53Z" transform="translate(-47.934 -23.102)" fill="#231f20"/>
    <path id="Path_17126" data-name="Path 17126" d="M291.681,507.48h-.454L291,508.69h.454Z" transform="translate(-48.422 -23.102)" fill="#231f20"/>
    <path id="Path_17127" data-name="Path 17127" d="M321.355,510.24h-2.648l-.227,1.211h2.648Z" transform="translate(-58.577 -24.122)" fill="#231f20"/>
    <path id="Path_17128" data-name="Path 17128" d="M321.835,507.48h-2.648l-.227,1.211h2.648Z" transform="translate(-58.754 -23.102)" fill="#231f20"/>
    <path id="Path_17129" data-name="Path 17129" d="M341.132,509.22h-3.556l.378-1.74h-1.286l-.908,4.766h1.286l.378-1.816h3.48Z" transform="translate(-64.962 -23.102)" fill="#231f20"/>
    <path id="Path_17130" data-name="Path 17130" d="M304.247,508.69l.227-1.211h-4.766l-.227,1.211h1.664l-.378,2.27h-1.74l-.227,1.286h4.766l.227-1.286h-1.74l.378-2.27Z" transform="translate(-51.304 -23.102)" fill="#231f20"/>
    <path id="Path_17131" data-name="Path 17131" d="M287.988,510.96h.757l-.227,1.211h-.984c-1.211,0-.984-1.211-.984-1.211l.605-3.48h1.286l-.605,3.253S287.761,510.96,287.988,510.96Z" transform="translate(-46.772 -23.102)" fill="#231f20"/>
    <path id="Path_17132" data-name="Path 17132" d="M343.117,507.48h-.53l-.227,1.211h.53Z" transform="translate(-67.401 -23.102)" fill="#231f20"/>
    <path id="Path_17133" data-name="Path 17133" d="M344.361,507.48h-.454l-.227,1.211h.454Z" transform="translate(-67.888 -23.102)" fill="#231f20"/>
    <path id="Path_17134" data-name="Path 17134" d="M282.3,507.36l-.605,3.329c0,.151-.151.227-.3.227h-.605l-.227,1.286h.908a1.546,1.546,0,0,0,1.513-1.211l.605-3.632Z" transform="translate(-44.564 -23.058)" fill="#231f20"/>
    <path id="Path_17135" data-name="Path 17135" d="M268.026,507.965h-.605l.151-.605h-1.286l-.151.605h-1.967l.151-.53h-1.286l-.151.53h-.454l-.227,1.21h.454l-.227,1.211h1.286l.227-1.211h1.967l-.227,1.513c-.076.151-.151.227-.3.227h-1.135l-.227,1.286h1.438a1.463,1.463,0,0,0,1.438-1.211l.3-1.816h.605Z" transform="translate(-37.78 -23.058)" fill="#231f20"/>
    <path id="Path_17136" data-name="Path 17136" d="M322.842,507.36l-.605,3.329c0,.151-.151.227-.3.227h-3.707L318,512.2h4.01a1.463,1.463,0,0,0,1.438-1.211l.681-3.632Z" transform="translate(-58.399 -23.058)" fill="#231f20"/>
    <path id="Path_17137" data-name="Path 17137" d="M309.762,507.436l-.227,1.438a.5.5,0,0,1-.378.3h-.53l-.227,1.211h.908a1.527,1.527,0,0,0,1.438-1.211l.076-.53h1.891l-.378,2.043a.35.35,0,0,1-.378.227h-2.345l-.151,1.286h2.648a1.463,1.463,0,0,0,1.438-1.211l.605-3.632Z" transform="translate(-54.852 -23.058)" fill="#231f20"/>
    <path id="Path_17138" data-name="Path 17138" d="M276.459,507.36l-.3,1.513a.325.325,0,0,1-.3.3h-3.707l-.227,1.211h2.27l-.378,1.816H275.1l.378-1.816h.454a1.463,1.463,0,0,0,1.437-1.211l.3-1.816Z" transform="translate(-41.372 -23.058)" fill="#231f20"/>
  </g>
</svg>
