<svg xmlns="http://www.w3.org/2000/svg" width="205.345" height="38.281" viewBox="0 0 205.345 38.281">
  <g id="Group_17368" data-name="Group 17368" transform="translate(-1065 -373.15)">
    <g id="Group_17114" data-name="Group 17114" transform="translate(1113.592 379.308)">
      <rect id="Rectangle_11600" data-name="Rectangle 11600" width="3.179" height="3.179" transform="translate(17.321 6.91)" fill="#656464"/>
      <path id="Path_17015" data-name="Path 17015" d="M460.57,201.132H455.3a3.4,3.4,0,0,0-3.4,3.4v5.9a3.4,3.4,0,0,0,3.4,3.4h5.269a3.4,3.4,0,0,0,3.4-3.4v-5.9a3.4,3.4,0,0,0-3.4-3.4m.223,9.032a1.9,1.9,0,0,1-2.1,2.085h-1.523a1.9,1.9,0,0,1-2.1-2.085v-5.358a1.9,1.9,0,0,1,2.1-2.084H458.7a1.9,1.9,0,0,1,2.1,2.084Z" transform="translate(-369.752 -187.873)" fill="#656464"/>
      <path id="Path_17016" data-name="Path 17016" d="M436.639,204.533v9.305h3.178v-9.032a1.9,1.9,0,0,1,2.1-2.085h3.217v-1.589h-5.09a3.4,3.4,0,0,0-3.4,3.4" transform="translate(-364.456 -187.873)" fill="#656464"/>
      <path id="Path_17017" data-name="Path 17017" d="M423.942,191.409H414.3v19.055h3.178v-8.746h6.467a3.4,3.4,0,0,0,3.4-3.4V194.81a3.4,3.4,0,0,0-3.4-3.4m.222,6.633a1.9,1.9,0,0,1-2.1,2.085h-4.594V193h4.594a1.9,1.9,0,0,1,2.1,2.085Z" transform="translate(-356.702 -184.498)" fill="#656464"/>
      <rect id="Rectangle_11601" data-name="Rectangle 11601" width="3.178" height="12.706" transform="translate(17.322 13.26)" fill="#656464"/>
      <path id="Path_17018" data-name="Path 17018" d="M326.091,191.409V193h6.039v17.466h3.178V193h6.038v-1.589Z" transform="translate(-326.091 -184.498)" fill="#656464"/>
      <rect id="Rectangle_11602" data-name="Rectangle 11602" width="6.002" height="1.589" transform="translate(97.442 15.651)" fill="#656464"/>
      <path id="Path_17019" data-name="Path 17019" d="M400.964,201.132H395.7a3.4,3.4,0,0,0-3.4,3.4v5.905a3.4,3.4,0,0,0,3.4,3.4h5.269a3.4,3.4,0,0,0,3.4-3.4v-.569h-3.178v.3a1.9,1.9,0,0,1-2.1,2.086h-1.523a1.9,1.9,0,0,1-2.1-2.086v-1.884h8.892v-3.747a3.4,3.4,0,0,0-3.4-3.4m.223,5.559h-5.714v-1.884a1.9,1.9,0,0,1,2.1-2.085h1.523a1.9,1.9,0,0,1,2.1,2.085Z" transform="translate(-349.067 -187.873)" fill="#656464"/>
      <path id="Path_17020" data-name="Path 17020" d="M376.093,201.132h-3.67a3.381,3.381,0,0,1-3.623,0h-3.67a3.4,3.4,0,0,0-3.4,3.4v9.305h3.178v-9.032a2.057,2.057,0,1,1,4.114,0v9.032H372.2v-9.032a2.058,2.058,0,1,1,4.115,0v9.032h3.178v-9.305a3.4,3.4,0,0,0-3.4-3.4" transform="translate(-338.459 -187.873)" fill="#656464"/>
      <path id="Path_17021" data-name="Path 17021" d="M509.293,180.825v22.086l-14.806-22.076h0v-.009h-4.33V206.79h4.33V184.72l14.806,22.07h4.33V180.825Z" transform="translate(-383.029 -180.825)" fill="#656464"/>
      <path id="Path_17022" data-name="Path 17022" d="M553.686,180.825H548.4l-7.214,10.3-8.024-10.3h-2.643l9.416,12.089-9.716,13.876h5.286l7.213-10.3,8.024,10.3h2.643L543.97,194.7Z" transform="translate(-396.932 -180.825)" fill="#656464"/>
    </g>
    <path id="Path_17033" data-name="Path 17033" d="M265.325,225.6H257v-8.322h5.653a2.67,2.67,0,0,1,2.669,2.67Z" transform="translate(807.997 185.832)" fill="#207cbf"/>
    <path id="Path_17034" data-name="Path 17034" d="M280.619,225.6H272.3v-8.322h5.653a2.67,2.67,0,0,1,2.669,2.67Z" transform="translate(802.689 185.832)" fill="#207cbf"/>
    <path id="Path_17035" data-name="Path 17035" d="M295.912,225.6H287.59v-8.322h5.653a2.67,2.67,0,0,1,2.669,2.67Z" transform="translate(797.382 185.832)" fill="#207cbf"/>
    <path id="Path_17036" data-name="Path 17036" d="M311.206,225.6h-8.322v-8.322h5.653a2.67,2.67,0,0,1,2.669,2.67Z" transform="translate(792.074 185.832)" fill="#207cbf"/>
    <path id="Path_17037" data-name="Path 17037" d="M280.619,210.3H272.3v-8.322h5.653a2.669,2.669,0,0,1,2.669,2.669Z" transform="translate(802.689 191.14)" fill="#448d9d"/>
    <path id="Path_17038" data-name="Path 17038" d="M295.912,210.3H287.59v-8.322h5.653a2.669,2.669,0,0,1,2.669,2.669Z" transform="translate(797.382 191.14)" fill="#448d9d"/>
    <path id="Path_17039" data-name="Path 17039" d="M311.206,210.3h-8.322v-8.322h5.653a2.67,2.67,0,0,1,2.669,2.669Z" transform="translate(792.074 191.14)" fill="#448d9d"/>
    <path id="Path_17040" data-name="Path 17040" d="M295.912,195.011H287.59v-8.322h5.653a2.67,2.67,0,0,1,2.669,2.67Z" transform="translate(797.382 196.448)" fill="#5d9c6e"/>
    <path id="Path_17041" data-name="Path 17041" d="M311.206,195.011h-8.322v-8.322h5.653a2.67,2.67,0,0,1,2.669,2.67Z" transform="translate(792.074 196.448)" fill="#5d9c6e"/>
    <path id="Path_17042" data-name="Path 17042" d="M311.206,179.717h-8.322V171.4h5.653a2.67,2.67,0,0,1,2.669,2.67Z" transform="translate(792.074 201.755)" fill="#73ab31"/>
  </g>
</svg>
