<svg xmlns="http://www.w3.org/2000/svg" xmlns:xlink="http://www.w3.org/1999/xlink" width="200.787" height="39.691" viewBox="0 0 200.787 39.691">
  <defs>
    <clipPath id="clip-path">
      <path id="Path_16555" data-name="Path 16555" d="M330.95,613.346a40.822,40.822,0,0,0-5.244.536c-8.3,1.289-19.49,6.5-29.8,13.448-15.6,10.525-26.727,25.211-26.727,25.211s17.189-19,26.66-19.632c2.773-.186,2.906,1.659,2.773,4.06a127.378,127.378,0,0,1-2.427,16.069s8.586-27.638,24.3-33.35c16.262-5.914-9.724,16.288-9.724,16.288,24.328-16.756,28.455-22.466,20.894-22.629Z" transform="translate(-269.176 -613.346)" fill="none"/>
    </clipPath>
    <radialGradient id="radial-gradient" cx="0.47" cy="0.5" r="0.685" gradientTransform="matrix(0.567, 0, 0, -1, -1.676, 12.456)" gradientUnits="objectBoundingBox">
      <stop offset="0" stop-color="#00a0e9"/>
      <stop offset="1" stop-color="#0068b7"/>
    </radialGradient>
    <clipPath id="clip-path-2">
      <path id="Path_16556" data-name="Path 16556" d="M300.013,616.6c-4.62,3.7-14.084,14.9-14.279,15.13,2.247-2.623,12.2-10.563,15.307-12.972,4.576-3.556,5.233-2.806,5.418-4.3.085-.69-.2-.969-.725-.969-1.315,0-4.086,1.8-5.721,3.109" transform="translate(-285.734 -613.493)" fill="none"/>
    </clipPath>
    <radialGradient id="radial-gradient-2" cx="0.498" r="0.535" gradientTransform="matrix(0.876, 0, 0, -1, -1.708, 27.091)" xlink:href="#radial-gradient"/>
    <clipPath id="clip-path-3">
      <path id="Path_16554" data-name="Path 16554" d="M537.411,619.931v1.533h.383c1.7,0,1.984,0,1.984.514a6.964,6.964,0,0,1-.564,1.87c-.1.245-.213.546-.351.9L533.3,639.091h-.009l-5.258-14.068a20.06,20.06,0,0,1-1.052-2.874c0-.457.04-.686,1.845-.686h.392v-1.533h-12.24v1.533h.85c1.429,0,1.682.245,1.87.555a21.163,21.163,0,0,1,1.527,3l8.115,21.751h4.777l8.426-21.766a20.846,20.846,0,0,1,1.387-3.12c.18-.228.278-.449,1.675-.417l.473-.008v-1.533Z" transform="translate(-516.974 -619.931)" fill="none"/>
    </clipPath>
    <radialGradient id="radial-gradient-3" cx="0.5" r="0.521" gradientTransform="matrix(0.922, 0, 0, -1, -1.344, 17.368)" xlink:href="#radial-gradient"/>
    <clipPath id="clip-path-4">
      <path id="Path_16558" data-name="Path 16558" d="M550.244,623.281q-3.222,3.436-3.343,9.595v.906a14.02,14.02,0,0,0,3.433,9.575c2.286,2.482,6.737,3.724,10.6,3.724a45.082,45.082,0,0,0,10.05-.979v-9.709a.4.4,0,0,1,.367-.423,5.111,5.111,0,0,1,.638-.024c.213,0,.432.008.636-.009l.319-.017V634.27h-9.667v1.649l.319.017a8.69,8.69,0,0,1,1.167.041.481.481,0,0,1,.49.49v7.545a.757.757,0,0,1-.547.734,7.24,7.24,0,0,1-1.527.049c-3.085,0-5.226-.677-6.973-2.817s-2.6-4.678-2.6-8.458c0-4.042.776-6.875,2.335-9.071s4.891-3.3,7.774-3.144c4.645.245,5.552,3.813,5.585,4.131l.024.351H571v-5.013a33.053,33.053,0,0,0-4.62-1.012,42.668,42.668,0,0,0-5.349-.327c-4.049,0-8.565,1.461-10.786,3.845" transform="translate(-546.901 -619.436)" fill="none"/>
    </clipPath>
    <radialGradient id="radial-gradient-4" cx="0.5" r="0.486" gradientTransform="matrix(1.062, 0, 0, -1, 1.262, 16.899)" xlink:href="#radial-gradient"/>
  </defs>
  <g id="Group_17303" data-name="Group 17303" transform="translate(-17932 223.644)">
    <path id="Path_16545" data-name="Path 16545" d="M1089.875,638.633a9.712,9.712,0,0,1-3.69-.621,6.288,6.288,0,0,1-2.464-1.75,7,7,0,0,1-1.384-2.723,13.626,13.626,0,0,1-.431-3.558,8.83,8.83,0,0,1,.824-4.015,7.488,7.488,0,0,1,2.149-2.634,8.43,8.43,0,0,1,2.973-1.44,13,13,0,0,1,3.3-.433c.406,0,.858.012,1.355.032s.981.049,1.452.082.913.069,1.325.106.737.079.972.123l-.726,2q-.393-.1-1.1-.23c-.472-.086-.978-.165-1.522-.236s-1.077-.132-1.6-.18-.962-.075-1.315-.075a11.289,11.289,0,0,0-2.021.156,4.248,4.248,0,0,0-1.57.629,3.286,3.286,0,0,0-1.237,2.159,18.628,18.628,0,0,0-.353,3.959,9.81,9.81,0,0,0,1.267,5.487,4.557,4.557,0,0,0,4.072,1.874c.523,0,1.067-.018,1.629-.049s1.122-.082,1.678-.148,1.1-.147,1.64-.246,1.04-.211,1.511-.342v.867a12.978,12.978,0,0,1-1.56.515q-.834.219-1.707.376t-1.757.237q-.881.082-1.707.082" transform="translate(16985.26 -828.614)" fill="#231815"/>
    <path id="Path_16546" data-name="Path 16546" d="M1099.485,638.367V620.015l2.649-.556v18.908Z" transform="translate(16984.93 -828.576)" fill="#231815"/>
    <path id="Path_16547" data-name="Path 16547" d="M1111.7,638.723a7.088,7.088,0,0,1-4.838-1.481,5.465,5.465,0,0,1-1.678-4.326,6.793,6.793,0,0,1,.412-2.43,4.729,4.729,0,0,1,1.235-1.84,5.679,5.679,0,0,1,2.042-1.162,8.906,8.906,0,0,1,2.826-.408,9.342,9.342,0,0,1,2.807.385,5.475,5.475,0,0,1,2.042,1.127,4.67,4.67,0,0,1,1.235,1.825,6.867,6.867,0,0,1,.412,2.469,6.784,6.784,0,0,1-.412,2.438,4.808,4.808,0,0,1-1.235,1.84,5.515,5.515,0,0,1-2.042,1.161,8.989,8.989,0,0,1-2.807.4m-3.709-5.824a9.167,9.167,0,0,0,.206,2.094,3.58,3.58,0,0,0,.647,1.423,2.582,2.582,0,0,0,1.138.818,4.774,4.774,0,0,0,1.678.262,6.489,6.489,0,0,0,1.394-.131,3.886,3.886,0,0,0,1.178-.491,2.2,2.2,0,0,0,.922-1.481,11.463,11.463,0,0,0,.236-2.477,5.623,5.623,0,0,0-.875-3.492,3.324,3.324,0,0,0-2.777-1.1,6.881,6.881,0,0,0-1.4.13,3.838,3.838,0,0,0-1.168.458,1.486,1.486,0,0,0-.549.6,4.394,4.394,0,0,0-.363.932,6.514,6.514,0,0,0-.206,1.171q-.06.637-.06,1.291" transform="translate(16984.822 -828.719)" fill="#231815"/>
    <path id="Path_16548" data-name="Path 16548" d="M1123.951,627.326v7.786a3.816,3.816,0,0,0,.079.777,1.563,1.563,0,0,0,.324.687,1.786,1.786,0,0,0,.7.5,3.135,3.135,0,0,0,1.217.2,5.974,5.974,0,0,0,1.05-.1c.374-.065.749-.146,1.128-.245a11.45,11.45,0,0,0,1.1-.342q.53-.2.962-.394v-8.865h2.65v11.188h-2.218l-.393-1.309c-.3.143-.652.3-1.051.484s-.83.349-1.3.506a13.229,13.229,0,0,1-1.442.4,6.981,6.981,0,0,1-1.512.164,5.853,5.853,0,0,1-1.59-.2,3.465,3.465,0,0,1-1.245-.621,2.912,2.912,0,0,1-.816-1.03,3.315,3.315,0,0,1-.294-1.448v-8.13Z" transform="translate(16984.521 -828.724)" fill="#231815"/>
    <path id="Path_16549" data-name="Path 16549" d="M1145.958,627.147c-.013-.164-.02-.328-.02-.492-.012-.131-.02-.27-.02-.417v-6.224l2.631-.555v18.907H1146.8l-.727-1.046h-.058c-.275.163-.563.319-.865.465s-.611.282-.931.4a6.461,6.461,0,0,1-1.031.286,6.1,6.1,0,0,1-1.159.106,7.619,7.619,0,0,1-2.12-.294,4.915,4.915,0,0,1-1.805-.949,4.645,4.645,0,0,1-1.256-1.709,6.264,6.264,0,0,1-.471-2.56,6.863,6.863,0,0,1,.461-2.584,5.125,5.125,0,0,1,1.334-1.931,5.936,5.936,0,0,1,2.12-1.2,8.835,8.835,0,0,1,2.816-.417c.419,0,.877.021,1.374.065s.988.093,1.472.148m-6.772,5.789a5.971,5.971,0,0,0,.266,1.9,3.366,3.366,0,0,0,.755,1.292,2.871,2.871,0,0,0,1.177.735,4.739,4.739,0,0,0,1.511.23,9.245,9.245,0,0,0,1.609-.138,8.941,8.941,0,0,0,1.394-.353v-8.275q-.63-.082-1.208-.123c-.386-.028-.8-.041-1.245-.041a10.723,10.723,0,0,0-1.739.13,3.09,3.09,0,0,0-1.227.425,2.155,2.155,0,0,0-.441.491,4.027,4.027,0,0,0-.423.843,6.455,6.455,0,0,0-.314,1.234,10.332,10.332,0,0,0-.118,1.652" transform="translate(16984.238 -828.576)" fill="#231815"/>
    <g id="Group_16913" data-name="Group 16913" transform="translate(17932 -223.644)">
      <g id="Group_16498" data-name="Group 16498" clip-path="url(#clip-path)">
        <rect id="Rectangle_11443" data-name="Rectangle 11443" width="70.037" height="39.691" transform="translate(0)" fill="url(#radial-gradient)"/>
      </g>
    </g>
    <g id="Group_16914" data-name="Group 16914" transform="translate(17948.67 -223.496)">
      <g id="Group_16500" data-name="Group 16500" clip-path="url(#clip-path-2)">
        <rect id="Rectangle_11444" data-name="Rectangle 11444" width="20.81" height="18.239" transform="translate(0 0)" fill="url(#radial-gradient-2)"/>
      </g>
    </g>
    <g id="Group_16915" data-name="Group 16915" transform="translate(18002.518 -216.546)">
      <g id="Group_16496" data-name="Group 16496" clip-path="url(#clip-path-3)">
        <rect id="Rectangle_11442" data-name="Rectangle 11442" width="29.1" height="26.844" fill="url(#radial-gradient-3)"/>
      </g>
    </g>
    <g id="Group_16916" data-name="Group 16916" transform="translate(18031.713 -217.029)">
      <g id="Group_16502" data-name="Group 16502" transform="translate(0)" clip-path="url(#clip-path-4)">
        <rect id="Rectangle_11446" data-name="Rectangle 11446" width="26.042" height="27.646" transform="translate(0 0)" fill="url(#radial-gradient-4)"/>
      </g>
    </g>
  </g>
</svg>
