<svg xmlns="http://www.w3.org/2000/svg" xmlns:xlink="http://www.w3.org/1999/xlink" width="260.446" height="33.732" viewBox="0 0 260.446 33.732">
  <defs>
    <clipPath id="clip-path">
      <path id="Path_16554" data-name="Path 16554" d="M534.9,619.931v1.345h.336c1.489,0,1.74,0,1.74.451a6.108,6.108,0,0,1-.495,1.64c-.086.215-.186.479-.308.787l-4.884,12.582h-.008L526.67,624.4a17.581,17.581,0,0,1-.923-2.52c0-.4.035-.6,1.618-.6h.344v-1.345H516.974v1.345h.745c1.253,0,1.475.215,1.64.487A18.568,18.568,0,0,1,520.7,624.4l7.117,19.076H532l7.39-19.09a18.31,18.31,0,0,1,1.217-2.736c.158-.2.244-.394,1.469-.365l.415-.007v-1.345Z" transform="translate(-516.974 -619.931)" fill="none"/>
    </clipPath>
    <radialGradient id="radial-gradient" cx="0.5" cy="0.5" r="0.521" gradientTransform="matrix(0.922, 0, 0, -1, -1.344, 17.368)" gradientUnits="objectBoundingBox">
      <stop offset="0" stop-color="#00a0e9"/>
      <stop offset="1" stop-color="#0068b7"/>
    </radialGradient>
    <clipPath id="clip-path-2">
      <path id="Path_16555" data-name="Path 16555" d="M321.674,613.346a34.674,34.674,0,0,0-4.457.455c-7.053,1.1-16.563,5.521-25.328,11.428a107.964,107.964,0,0,0-22.714,21.425s14.608-16.148,22.656-16.684c2.356-.158,2.47,1.41,2.356,3.45a108.238,108.238,0,0,1-2.063,13.656s7.3-23.488,20.652-28.343c13.82-5.026-8.264,13.842-8.264,13.842,20.675-14.24,24.182-19.092,17.757-19.231Z" transform="translate(-269.176 -613.346)" fill="none"/>
    </clipPath>
    <radialGradient id="radial-gradient-2" cx="0.47" cy="0.5" r="0.685" gradientTransform="matrix(0.567, 0, 0, -1, -1.676, 12.456)" xlink:href="#radial-gradient"/>
    <clipPath id="clip-path-3">
      <path id="Path_16556" data-name="Path 16556" d="M297.869,616.135c-3.926,3.147-11.969,12.662-12.135,12.858,1.91-2.229,10.367-8.977,13.009-11.024,3.888-3.022,4.447-2.384,4.6-3.652.072-.586-.171-.823-.616-.823-1.117,0-3.473,1.532-4.862,2.642" transform="translate(-285.734 -613.493)" fill="none"/>
    </clipPath>
    <radialGradient id="radial-gradient-3" cx="0.498" cy="0.5" r="0.535" gradientTransform="matrix(0.876, 0, 0, -1, -1.708, 27.091)" xlink:href="#radial-gradient"/>
    <clipPath id="clip-path-4">
      <path id="Path_16558" data-name="Path 16558" d="M549.833,622.808q-2.826,3.013-2.932,8.415v.795a12.3,12.3,0,0,0,3.01,8.4c2.005,2.177,5.908,3.266,9.3,3.266a39.54,39.54,0,0,0,8.815-.859v-8.515a.351.351,0,0,1,.322-.371,4.5,4.5,0,0,1,.56-.021c.186,0,.379.007.558-.008l.28-.015v-1.447h-8.478v1.447l.28.015a7.638,7.638,0,0,1,1.023.036.422.422,0,0,1,.429.43v6.617a.665.665,0,0,1-.48.644,6.346,6.346,0,0,1-1.339.043c-2.706,0-4.583-.594-6.115-2.471s-2.284-4.1-2.284-7.417c0-3.545.681-6.03,2.048-7.956s4.29-2.893,6.818-2.757c4.074.215,4.869,3.344,4.9,3.623l.021.308h1.474v-4.4a28.972,28.972,0,0,0-4.052-.887,37.419,37.419,0,0,0-4.691-.286c-3.551,0-7.512,1.282-9.46,3.372" transform="translate(-546.901 -619.436)" fill="none"/>
    </clipPath>
    <radialGradient id="radial-gradient-4" cy="0.5" r="0.486" gradientTransform="matrix(1.062, 0, 0, -1, 1.262, 16.899)" xlink:href="#radial-gradient"/>
  </defs>
  <g id="Group_17302" data-name="Group 17302" transform="translate(-269.176 -613.346)">
    <path id="Path_16548" data-name="Path 16548" d="M351.518,621.985H348.6a19.814,19.814,0,0,0-2.483.139c-.421.061-.633.443-.633,1.143q0,.788-.031,1.359l-.016.309H343.82V620.75h19.621v4.186h-1.625l-.015-.309q-.048-.572-.047-1.359c0-.7-.205-1.082-.618-1.143a20.018,20.018,0,0,0-2.478-.139H355.74v17.626a4.876,4.876,0,0,0,.371,2.5c.245.291.252.469,1.478.532l.662.014v.958h-9.231v-.958l.665-.014c1.226-.063,1.229-.241,1.471-.532a5,5,0,0,0,.362-2.5Z" transform="translate(-10.783 -1.069)" fill="#231815"/>
    <path id="Path_16549" data-name="Path 16549" d="M376.863,627.865v12.774a5.16,5.16,0,0,0,.339,2.5c.225.267.237.443,1.5.526l.292.014v.958h-8.76v-.958l.3-.014c1.245-.083,1.741-.261,1.972-.532a5.027,5.027,0,0,0,.348-2.5v-8.774a4.97,4.97,0,0,0-.348-2.487c-.231-.268-.727-.448-1.972-.54l-.3-.015v-.957Z" transform="translate(-14.598 -2.097)" fill="#231815"/>
    <path id="Path_16550" data-name="Path 16550" d="M390.063,630.921a9.677,9.677,0,0,1,2.621-2.6,4.686,4.686,0,0,1,2.679-.909,3.812,3.812,0,0,1,2.674.878,4.182,4.182,0,0,1,1.388,2.632,11.623,11.623,0,0,1,2.965-2.632,5.892,5.892,0,0,1,3.012-.878c3.008,0,5.315,1.649,5.315,4.95v8.211a5.194,5.194,0,0,0,.332,2.5c.221.262-.008.439,1.259.532l.293.015v.958h-8.588v-.958l.293-.015c1.267-.093,1.769-.27,1.99-.532a5.213,5.213,0,0,0,.33-2.5V632.9a5.256,5.256,0,0,0-.518-2.763,1.776,1.776,0,0,0-1.673-.767c-1.247-.024-2.625.959-3.713,2.6v8.6a5.157,5.157,0,0,0,.339,2.5c.226.272-.055.45,1.2.532l.3.015.046.958h-8.59l-.047-.958.293-.015c1.267-.082,1.77-.258,1.989-.525a5.237,5.237,0,0,0,.333-2.5V632.9a5.343,5.343,0,0,0-.511-2.749,1.444,1.444,0,0,0-1.473-.782,4.635,4.635,0,0,0-2.835,1.554,7.182,7.182,0,0,0-1.7,2.535v7.11a5.151,5.151,0,0,0,.339,2.5c.225.267.484.443,1.744.525l.288.015v.958h-8.273v-.958l.293-.015c1.247-.082,1.011-.26,1.243-.532a5.28,5.28,0,0,0,.3-2.5V631.8a4.994,4.994,0,0,0-.347-2.487c-.23-.268,0-.448-1.242-.541l-.294-.014V627.8h5.95Z" transform="translate(-16.603 -2.032)" fill="#231815"/>
    <path id="Path_16551" data-name="Path 16551" d="M450.59,634.043v5.545a4.873,4.873,0,0,0,.371,2.5c.247.292-.351.47.875.532l.662.015v.958h-8.586v-.958l.294-.015c1.246-.082,1.015-.26,1.245-.532a5.015,5.015,0,0,0,.348-2.5V624.728a4.963,4.963,0,0,0-.348-2.491c-.23-.265-.242-.441-1.489-.522l-.293-.031v-1.094H452.9l1.059.027q6.622,0,6.625,6.033a6.556,6.556,0,0,1-2.408,5.541q-2.4,1.848-7.229,1.85Zm0-1.034h.532a5.978,5.978,0,0,0,4.525-1.574,6.591,6.591,0,0,0,1.5-4.715,4.2,4.2,0,0,0-4.979-4.958H450.59Z" transform="translate(-25.206 -1.047)" fill="#231815"/>
    <path id="Path_16552" data-name="Path 16552" d="M473.286,632.372v8.2a4.908,4.908,0,0,0,.363,2.5c.243.277.5.453,1.732.525l.665.014v.958H466.9v-.958l.778-.014c1.247-.083.895-.261,1.127-.532a5.024,5.024,0,0,0,.348-2.5V631.8a5.674,5.674,0,0,0-.348-2.487c-.16-.255-.252-.483-1.127-.541l-.778-.015V627.8h6.387v2.666c1.389-2.358,4.18-3.053,6.426-3.053a3.684,3.684,0,0,1,1.033.169V630.7h-1.714a.957.957,0,0,0-1.022-.79,6.015,6.015,0,0,0-4.723,2.457" transform="translate(-28.562 -2.032)" fill="#231815"/>
    <path id="Path_16553" data-name="Path 16553" d="M493.425,644.961a7.528,7.528,0,0,1-5.854-2.356,10.67,10.67,0,0,1,0-12.842,8.477,8.477,0,0,1,11.717,0,10.692,10.692,0,0,1-.008,12.842,7.532,7.532,0,0,1-5.855,2.356m-.005-.944q1.659,0,2.757-2.22a14.857,14.857,0,0,0,0-11.2q-1.1-2.238-2.757-2.239t-2.747,2.239a14.878,14.878,0,0,0-.005,11.2q1.093,2.223,2.752,2.22" transform="translate(-31.238 -2.032)" fill="#231815"/>
    <rect id="Rectangle_11441" data-name="Rectangle 11441" width="6.954" height="2.286" transform="translate(473.933 631.719)" fill="#231815"/>
    <g id="Group_16497" data-name="Group 16497" transform="translate(481.178 618.98)">
      <g id="Group_16496" data-name="Group 16496" clip-path="url(#clip-path)">
        <rect id="Rectangle_11442" data-name="Rectangle 11442" width="25.522" height="23.543" fill="url(#radial-gradient)"/>
      </g>
    </g>
    <g id="Group_16499" data-name="Group 16499" transform="translate(269.176 613.346)">
      <g id="Group_16498" data-name="Group 16498" clip-path="url(#clip-path-2)">
        <rect id="Rectangle_11443" data-name="Rectangle 11443" width="59.52" height="33.732" transform="translate(0)" fill="url(#radial-gradient-2)"/>
      </g>
    </g>
    <g id="Group_16501" data-name="Group 16501" transform="translate(283.342 613.472)">
      <g id="Group_16500" data-name="Group 16500" clip-path="url(#clip-path-3)">
        <rect id="Rectangle_11444" data-name="Rectangle 11444" width="17.685" height="15.5" transform="translate(0 0)" fill="url(#radial-gradient-3)"/>
      </g>
    </g>
    <rect id="Rectangle_11445" data-name="Rectangle 11445" width="4.255" height="3.895" transform="translate(358.131 619.68)" fill="#231815"/>
    <path id="Path_16557" data-name="Path 16557" d="M432.387,640.71c-.509,1.459-1.835,2.134-3.8,2.134-4.411,0-4.472-4.027-4.437-6.657h12.435v-.292c0-2.5-.655-4.9-1.967-6.249a7.482,7.482,0,0,0-5.619-2.02,9,9,0,0,0-6.478,2.412,8.19,8.19,0,0,0-2.52,6.185,9.679,9.679,0,0,0,.077,1.2l-.011.12c0,3.977,3.634,6.958,8.482,6.958,3.177,0,6.3-1.041,7.6-3.809Zm-6.974-10.263a4.1,4.1,0,0,1,3.323-1.484,3.482,3.482,0,0,1,2.939,1.145,5.941,5.941,0,0,1,.924,3.721l-.019,1.023h-8.4a7.328,7.328,0,0,1,1.233-4.4" transform="translate(-21.787 -2.063)" fill="#231815"/>
    <g id="Group_16503" data-name="Group 16503" transform="translate(506.782 618.556)">
      <g id="Group_16502" data-name="Group 16502" transform="translate(0)" clip-path="url(#clip-path-4)">
        <rect id="Rectangle_11446" data-name="Rectangle 11446" width="22.84" height="24.246" transform="translate(0 0)" fill="url(#radial-gradient-4)"/>
      </g>
    </g>
  </g>
</svg>
