<svg id="logo-vg_cloud" xmlns="http://www.w3.org/2000/svg" xmlns:xlink="http://www.w3.org/1999/xlink" width="212.172" height="41.209" viewBox="0 0 212.172 41.209">
  <defs>
    <clipPath id="clip-path">
      <path id="SVGID" d="M1030.764,605.418v1.632h.411c1.806,0,2.105,0,2.105.545a7.515,7.515,0,0,1-.6,1.99c-.1.263-.225.583-.374.956L1026.4,625.8h-.01l-5.572-14.967a22.01,22.01,0,0,1-1.122-3.056c0-.487.047-.73,1.965-.73h.411v-1.632h-12.987v1.632l.9,0c1.524,0,1.788.262,1.991.591a23.082,23.082,0,0,1,1.621,3.2l8.6,23.147h5.072l8.94-23.167a23.275,23.275,0,0,1,1.465-3.319c.193-.236.295-.473,1.782-.443l.5-.005v-1.632Z" transform="translate(-1009.086 -605.418)" fill="none"/>
    </clipPath>
    <radialGradient id="radial-gradient" cx="0.5" cy="0.5" r="0.521" gradientTransform="matrix(0.922, 0, 0, -1, -2.641, 17.335)" gradientUnits="objectBoundingBox">
      <stop offset="0" stop-color="#0092e5"/>
      <stop offset="1" stop-color="#0057aa"/>
    </radialGradient>
    <clipPath id="clip-path-2">
      <path id="SVGID-2" data-name="SVGID" d="M1042.356,609.014q-3.546,3.8-3.543,10.711,0,6.688,3.641,10.655c2.424,2.642,7.149,3.965,11.247,3.965a47.665,47.665,0,0,0,10.66-1.041V622.968a.431.431,0,0,1,.393-.453,6.106,6.106,0,0,1,.659-.019c.225,0,.464,0,.689-.014l.336-.017v-1.752h-10.252v1.752l.337.017a8.777,8.777,0,0,1,1.239.047.507.507,0,0,1,.518.519v8.031a.817.817,0,0,1-.576.784,8.294,8.294,0,0,1-1.62.048c-3.275,0-5.546-.721-7.4-3s-2.768-4.98-2.768-9c0-4.3.825-7.319,2.479-9.649s5.188-3.509,8.243-3.349c4.936.258,5.9,4.058,5.928,4.395l.025.373h1.781v-5.336a34.9,34.9,0,0,0-4.9-1.067,45,45,0,0,0-5.672-.355c-4.294,0-9.086,1.559-11.446,4.091" transform="translate(-1038.813 -604.924)" fill="none"/>
    </clipPath>
    <radialGradient id="radial-gradient-2" cx="0.5" cy="0.5" r="0.486" gradientTransform="matrix(1.062, 0, 0, -1, 2.42, 16.868)" xlink:href="#radial-gradient"/>
    <clipPath id="clip-path-3">
      <path id="SVGID-3" data-name="SVGID" d="M996.652,599.222c-8.589,1.334-20.171,6.744-30.837,13.957-16.156,10.926-27.662,26.173-27.662,26.173s17.785-19.731,27.587-20.385c2.869-.191,3.007,1.722,2.869,4.222a132.442,132.442,0,0,1-2.511,16.682s8.887-28.7,25.148-34.63c16.835-6.139-10.059,16.911-10.059,16.911,25.547-17.652,29.57-23.49,21.263-23.49a39.578,39.578,0,0,0-5.8.559" transform="translate(-938.154 -598.663)" fill="none"/>
    </clipPath>
    <radialGradient id="radial-gradient-3" cx="0.47" cy="0.5" r="0.685" gradientTransform="matrix(0.566, 0, 0, -1, -5.847, 12.349)" xlink:href="#radial-gradient"/>
    <clipPath id="clip-path-4">
      <path id="SVGID-4" data-name="SVGID" d="M969.49,602.044c-4.829,3.876-14.783,15.7-14.783,15.7,2.32-2.713,12.628-10.965,15.847-13.471,4.733-3.683,5.411-2.91,5.6-4.458.089-.718-.213-1.005-.746-1.005-1.361,0-4.228,1.875-5.922,3.235" transform="translate(-954.707 -598.809)" fill="none"/>
    </clipPath>
    <radialGradient id="radial-gradient-4" cx="0.498" cy="0.5" r="0.535" gradientTransform="matrix(0.876, 0, 0, -1, -5.716, 26.906)" xlink:href="#radial-gradient"/>
  </defs>
  <path id="Path_6" data-name="Path 6" d="M1083.382,633.443a10.286,10.286,0,0,1-3.917-.661,6.679,6.679,0,0,1-2.616-1.865,7.469,7.469,0,0,1-1.47-2.9,14.566,14.566,0,0,1-.457-3.79,9.427,9.427,0,0,1,.875-4.276,7.972,7.972,0,0,1,2.282-2.805,8.939,8.939,0,0,1,3.157-1.534,13.773,13.773,0,0,1,3.5-.461c.431,0,.91.013,1.439.034s1.042.052,1.542.088.969.073,1.406.113.782.085,1.031.131l-.771,2.126q-.417-.105-1.166-.244c-.5-.092-1.039-.176-1.616-.252s-1.144-.14-1.7-.191-1.021-.08-1.4-.08a11.965,11.965,0,0,0-2.146.166,4.506,4.506,0,0,0-1.667.67,3.5,3.5,0,0,0-1.314,2.3,19.913,19.913,0,0,0-.375,4.217,10.474,10.474,0,0,0,1.345,5.844,4.832,4.832,0,0,0,4.324,2c.555,0,1.133-.019,1.73-.052s1.192-.088,1.782-.158,1.171-.157,1.741-.262,1.1-.225,1.6-.365v.924a13.78,13.78,0,0,1-1.657.549q-.886.233-1.813.4t-1.866.252q-.936.088-1.813.088" transform="translate(-932.426 -597.919)" fill="#1a1311"/>
  <path id="Path_7" data-name="Path 7" d="M1092.5,633.288V613.742l2.813-.593v20.139Z" transform="translate(-931.69 -598.009)" fill="#1a1311"/>
  <path id="Path_8" data-name="Path 8" d="M1105.115,633.171a7.51,7.51,0,0,1-5.137-1.577,5.828,5.828,0,0,1-1.782-4.608,7.259,7.259,0,0,1,.438-2.588,5.041,5.041,0,0,1,1.312-1.96,6.028,6.028,0,0,1,2.168-1.237,9.432,9.432,0,0,1,3-.435,9.888,9.888,0,0,1,2.981.41,5.8,5.8,0,0,1,2.168,1.2,4.968,4.968,0,0,1,1.312,1.944,7.339,7.339,0,0,1,.438,2.629,7.25,7.25,0,0,1-.437,2.6,5.114,5.114,0,0,1-1.312,1.96,5.846,5.846,0,0,1-2.168,1.237,9.523,9.523,0,0,1-2.981.427m-3.939-6.2a9.826,9.826,0,0,0,.219,2.23,3.818,3.818,0,0,0,.688,1.515,2.741,2.741,0,0,0,1.209.872,5.058,5.058,0,0,0,1.781.279,6.876,6.876,0,0,0,1.481-.14,4.122,4.122,0,0,0,1.25-.522,2.344,2.344,0,0,0,.979-1.577,12.278,12.278,0,0,0,.25-2.639,6,6,0,0,0-.928-3.72,3.524,3.524,0,0,0-2.948-1.176,7.277,7.277,0,0,0-1.49.139,4.068,4.068,0,0,0-1.24.488,1.579,1.579,0,0,0-.582.635,4.7,4.7,0,0,0-.386.993,7.019,7.019,0,0,0-.219,1.247q-.064.679-.064,1.375" transform="translate(-931.451 -597.666)" fill="#1a1311"/>
  <path id="Path_9" data-name="Path 9" d="M1117.129,621.017v8.293a4.092,4.092,0,0,0,.083.828,1.669,1.669,0,0,0,.344.732,1.9,1.9,0,0,0,.74.532,3.316,3.316,0,0,0,1.292.209,6.325,6.325,0,0,0,1.115-.106c.4-.069.8-.156,1.2-.261a12.086,12.086,0,0,0,1.168-.365q.562-.21,1.021-.419v-9.443h2.814v11.916h-2.356l-.417-1.394c-.32.153-.692.323-1.116.515s-.882.372-1.376.539a14,14,0,0,1-1.531.427,7.4,7.4,0,0,1-1.605.174,6.193,6.193,0,0,1-1.688-.218,3.667,3.667,0,0,1-1.322-.661,3.1,3.1,0,0,1-.866-1.1,3.543,3.543,0,0,1-.312-1.543v-8.659Z" transform="translate(-930.776 -597.654)" fill="#1a1311"/>
  <path id="Path_10" data-name="Path 10" d="M1139.565,621.338q-.021-.262-.021-.524c-.014-.139-.021-.287-.021-.444v-6.629l2.793-.592v20.138h-1.854l-.772-1.114h-.061c-.292.173-.6.34-.918.5s-.649.3-.989.427a6.862,6.862,0,0,1-1.095.305,6.468,6.468,0,0,1-1.23.113,8.066,8.066,0,0,1-2.251-.313,5.209,5.209,0,0,1-1.917-1.011,4.941,4.941,0,0,1-1.334-1.821,6.686,6.686,0,0,1-.5-2.727,7.335,7.335,0,0,1,.49-2.752,5.472,5.472,0,0,1,1.417-2.057,6.3,6.3,0,0,1,2.252-1.279,9.356,9.356,0,0,1,2.99-.444c.445,0,.931.022,1.459.069s1.049.1,1.563.158m-7.19,6.166a6.377,6.377,0,0,0,.282,2.021,3.586,3.586,0,0,0,.8,1.376,3.051,3.051,0,0,0,1.25.783,5.018,5.018,0,0,0,1.6.245,9.79,9.79,0,0,0,1.709-.147,9.475,9.475,0,0,0,1.48-.376v-8.813q-.669-.088-1.282-.131c-.409-.03-.851-.044-1.322-.044a11.347,11.347,0,0,0-1.846.139,3.274,3.274,0,0,0-1.3.452,2.288,2.288,0,0,0-.468.523,4.3,4.3,0,0,0-.449.9,6.881,6.881,0,0,0-.333,1.315,11.064,11.064,0,0,0-.125,1.76" transform="translate(-930.145 -598.009)" fill="#1a1311"/>
  <g id="Group_5" data-name="Group 5" transform="translate(73.903 7.06)">
    <g id="Group_4" data-name="Group 4" transform="translate(0)" clip-path="url(#clip-path)">
      <rect id="Rectangle_6" data-name="Rectangle 6" width="30.872" height="28.567" transform="translate(0 0)" fill="url(#radial-gradient)"/>
    </g>
  </g>
  <g id="Group_7" data-name="Group 7" transform="translate(104.875 6.543)">
    <g id="Group_6" data-name="Group 6" clip-path="url(#clip-path-2)">
      <rect id="Rectangle_7" data-name="Rectangle 7" width="27.625" height="29.422" transform="translate(0 0)" fill="url(#radial-gradient-2)"/>
    </g>
  </g>
  <g id="Group_9" data-name="Group 9">
    <g id="Group_8" data-name="Group 8" clip-path="url(#clip-path-3)">
      <rect id="Rectangle_8" data-name="Rectangle 8" width="72.603" height="41.209" transform="translate(0 0)" fill="url(#radial-gradient-3)"/>
    </g>
  </g>
  <g id="Group_11" data-name="Group 11" transform="translate(17.246 0.153)">
    <g id="Group_10" data-name="Group 10" clip-path="url(#clip-path-4)">
      <rect id="Rectangle_9" data-name="Rectangle 9" width="21.54" height="18.934" transform="translate(0 0)" fill="url(#radial-gradient-4)"/>
    </g>
  </g>
</svg>
