<svg xmlns="http://www.w3.org/2000/svg" xmlns:xlink="http://www.w3.org/1999/xlink" width="113.363" height="80.117" viewBox="0 0 113.363 80.117">
  <defs>
    <linearGradient id="linear-gradient" x1="-1.421" y1="-0.034" x2="0.559" y2="-0.034" gradientUnits="objectBoundingBox">
      <stop offset="0" stop-color="#1cadc3"/>
      <stop offset="1" stop-color="#003c68"/>
    </linearGradient>
    <linearGradient id="linear-gradient-2" x1="0.182" y1="-0.326" x2="2.411" y2="-0.326" xlink:href="#linear-gradient"/>
    <linearGradient id="linear-gradient-3" x1="0.347" y1="-0.017" x2="1.416" y2="-0.017" xlink:href="#linear-gradient"/>
  </defs>
  <g id="Group_16849" data-name="Group 16849" transform="translate(-54.865 -151.487)">
    <g id="Group_16848" data-name="Group 16848" transform="translate(54.865 151.487)">
      <path id="Path_16864" data-name="Path 16864" d="M205.689,154.82l-15.128,75.667h-16.8l12.357-61.814.107-.541H170.92l2.664-13.312Z" transform="translate(-93.441 -152.595)" fill="#fff"/>
      <path id="Path_16865" data-name="Path 16865" d="M122.919,181.383a61.591,61.591,0,0,1-5.047,25.089,44.322,44.322,0,0,1-14.02,18.032,33.514,33.514,0,0,1-20.4,6.636,31.474,31.474,0,0,1-11.276-1.9,23.4,23.4,0,0,1-8.632-5.668c-4.86-5.027-7.324-12.084-7.324-20.963a61.516,61.516,0,0,1,5.06-25.089A44.31,44.31,0,0,1,75.3,159.485a33.543,33.543,0,0,1,20.4-6.636c8.358,0,15.061,2.544,19.908,7.577S122.919,172.517,122.919,181.383ZM106,181.823c0-4.967-1.048-8.732-3.118-11.176a11,11,0,0,0-8.826-3.719c-4.346,0-8.165,1.9-11.336,5.635a37.291,37.291,0,0,0-7.15,13.786,55.712,55.712,0,0,0-2.423,15.822c0,4.974,1.048,8.739,3.118,11.176,2.09,2.47,5.047,3.719,8.826,3.719a13.573,13.573,0,0,0,6.109-1.415,16.662,16.662,0,0,0,5.227-4.219,37.391,37.391,0,0,0,7.15-13.786A56.429,56.429,0,0,0,106,181.823Z" transform="translate(-55.313 -151.939)" fill="#fff"/>
      <path id="Path_16866" data-name="Path 16866" d="M190.009,230.031l15.128-75.667H173.032l-2.664,13.312h15.308l-.107.541-12.357,61.814Zm-5.448-61.447h-15.3l.107-.547,2.917-14.587h33.968l-.107.547-15.388,76.942H172.1l.107-.547Z" transform="translate(-92.889 -152.14)" fill="url(#linear-gradient)"/>
      <path id="Path_16867" data-name="Path 16867" d="M104.172,217.862a36.9,36.9,0,0,0,6.956-13.459,55.2,55.2,0,0,0,2.39-15.569c0-4.753-.975-8.318-2.9-10.588a10.091,10.091,0,0,0-8.131-3.4c-4.072,0-7.657,1.789-10.648,5.314a36.546,36.546,0,0,0-6.963,13.446,55.01,55.01,0,0,0-2.4,15.575c0,4.753.988,8.318,2.911,10.588s4.593,3.391,8.131,3.391C97.589,223.163,101.168,221.38,104.172,217.862Zm7.838-13.205a37.391,37.391,0,0,1-7.15,13.786,16.662,16.662,0,0,1-5.227,4.219,13.573,13.573,0,0,1-6.109,1.415c-3.779,0-6.736-1.248-8.826-3.719-2.07-2.437-3.118-6.2-3.118-11.176A55.712,55.712,0,0,1,84,193.361a37.291,37.291,0,0,1,7.15-13.786c3.171-3.739,6.99-5.635,11.336-5.635a11,11,0,0,1,8.826,3.719c2.07,2.443,3.118,6.209,3.118,11.176A56.429,56.429,0,0,1,112.01,204.657Z" transform="translate(-63.745 -158.95)" fill="url(#linear-gradient-2)"/>
      <path id="Path_16868" data-name="Path 16868" d="M95.252,151.489c8.625,0,15.542,2.644,20.569,7.844s7.557,12.484,7.557,21.6a62.575,62.575,0,0,1-5.114,25.456,45.142,45.142,0,0,1-14.313,18.393A34.461,34.461,0,0,1,83,231.6c-8.626,0-15.542-2.644-20.569-7.851a25.3,25.3,0,0,1-5.661-9.326,36.906,36.906,0,0,1-1.9-12.271A62.462,62.462,0,0,1,59.989,176.7a45.253,45.253,0,0,1,14.314-18.4A34.441,34.441,0,0,1,95.252,151.489Zm19.908,8.485c-4.847-5.034-11.55-7.577-19.908-7.577a33.543,33.543,0,0,0-20.4,6.636,44.31,44.31,0,0,0-14.02,18.032,61.516,61.516,0,0,0-5.06,25.089c0,8.879,2.463,15.936,7.324,20.963a23.4,23.4,0,0,0,8.632,5.668A31.474,31.474,0,0,0,83,230.687a33.514,33.514,0,0,0,20.4-6.636,44.321,44.321,0,0,0,14.02-18.032,61.591,61.591,0,0,0,5.047-25.089C122.47,172.065,120.013,165.008,115.16,159.974Z" transform="translate(-54.865 -151.487)" fill="url(#linear-gradient-3)"/>
    </g>
  </g>
</svg>
