<svg xmlns="http://www.w3.org/2000/svg" xmlns:xlink="http://www.w3.org/1999/xlink" width="137.938" height="80.743" viewBox="0 0 137.938 80.743">
  <defs>
    <linearGradient id="linear-gradient" x1="-0.51" y1="-1.71" x2="0.725" y2="-1.71" gradientUnits="objectBoundingBox">
      <stop offset="0" stop-color="#1cadc3"/>
      <stop offset="1" stop-color="#003c68"/>
    </linearGradient>
    <linearGradient id="linear-gradient-2" x1="0.332" y1="-2.968" x2="3.023" y2="-2.968" xlink:href="#linear-gradient"/>
    <linearGradient id="linear-gradient-3" x1="0.42" y1="-1.671" x2="1.71" y2="-1.671" xlink:href="#linear-gradient"/>
  </defs>
  <g id="グループ_16847" data-name="グループ 16847" transform="translate(-224.865 -569.257)">
    <g id="Group_16853" data-name="Group 16853" transform="translate(224.865 569.257)">
      <g id="Group_16852" data-name="Group 16852">
        <path id="Path_16874" data-name="Path 16874" d="M394.453,572.59l-2.068,10.879-22.127,20.663.833.2c5.238,1.215,9.355,3.505,12.222,6.8a18.11,18.11,0,0,1,4.3,12.262,22.568,22.568,0,0,1-4.493,13.726,30.105,30.105,0,0,1-12.538,9.556,46.074,46.074,0,0,1-18.346,3.492,52.428,52.428,0,0,1-15.727-2.3,34.172,34.172,0,0,1-11.886-6.266l8.092-12.35a29.249,29.249,0,0,0,9.066,4.929,35.517,35.517,0,0,0,11.665,1.907c5.366,0,9.576-1.014,12.5-3.008a9.841,9.841,0,0,0,4.493-8.589,7.371,7.371,0,0,0-3.344-6.615c-2.169-1.41-5.453-2.115-9.791-2.115h-7.6l2.182-11.107,19.925-18.655H338.581l2.78-13.417Z" transform="translate(-257.63 -570.352)" fill="#fff"/>
        <path id="Path_16875" data-name="Path 16875" d="M293.446,599.384a62.209,62.209,0,0,1-5.09,25.284,44.746,44.746,0,0,1-14.129,18.172,33.826,33.826,0,0,1-20.563,6.689c-8.435,0-15.17-2.565-20.066-7.635s-7.38-12.175-7.38-21.12a62.208,62.208,0,0,1,5.09-25.283,44.8,44.8,0,0,1,14.129-18.172,33.866,33.866,0,0,1,20.576-6.688c8.421,0,15.177,2.565,20.052,7.622C290.962,583.335,293.446,590.439,293.446,599.384Zm-17.05.443c0-5.01-1.061-8.8-3.143-11.268a11.077,11.077,0,0,0-8.9-3.747c-4.378,0-8.226,1.914-11.436,5.681a37.8,37.8,0,0,0-7.192,13.887,56.312,56.312,0,0,0-2.444,15.949c0,5.016,1.048,8.8,3.136,11.262a11.072,11.072,0,0,0,8.9,3.754c4.385,0,8.226-1.914,11.43-5.681a37.825,37.825,0,0,0,7.206-13.887A57.077,57.077,0,0,0,276.4,599.828Z" transform="translate(-225.308 -569.707)" fill="#fff"/>
        <path id="Path_16876" data-name="Path 16876" d="M341.183,633.74a29.25,29.25,0,0,1-9.066-4.929l-8.092,12.35a34.173,34.173,0,0,0,11.886,6.266,52.428,52.428,0,0,0,15.727,2.3,46.074,46.074,0,0,0,18.346-3.492,30.105,30.105,0,0,0,12.538-9.556,22.568,22.568,0,0,0,4.493-13.726,18.111,18.111,0,0,0-4.3-12.262c-2.867-3.3-6.984-5.587-12.222-6.8l-.833-.2,22.127-20.663,2.068-10.879H340.767l-2.78,13.417h33.228L351.29,604.213l-2.182,11.107h7.6c4.338,0,7.622.705,9.791,2.115a7.371,7.371,0,0,1,3.344,6.615,9.841,9.841,0,0,1-4.493,8.589c-2.928,1.994-7.138,3.008-12.5,3.008A35.517,35.517,0,0,1,341.183,633.74Zm-8.864-5.963a28.077,28.077,0,0,0,9.16,5.1,35.19,35.19,0,0,0,11.369,1.847c5.184,0,9.207-.96,11.98-2.854a8.823,8.823,0,0,0,4.11-7.823A6.432,6.432,0,0,0,366,618.208c-2.015-1.3-5.137-1.968-9.287-1.968H348l2.451-12.484.107-.107,18.333-17.171H336.859l3.17-15.257h54.945l-2.344,12.269-.1.1-20.992,19.6a22.927,22.927,0,0,1,11.873,6.883,19.014,19.014,0,0,1,4.519,12.873,23.522,23.522,0,0,1-4.667,14.277,31.012,31.012,0,0,1-12.907,9.838,46.962,46.962,0,0,1-18.716,3.573,53.407,53.407,0,0,1-16.01-2.33,34.806,34.806,0,0,1-12.517-6.715l-.3-.255,9.106-13.894Z" transform="translate(-257.036 -569.902)" fill="url(#linear-gradient)"/>
        <path id="Path_16877" data-name="Path 16877" d="M255.471,637.932c1.947,2.31,4.634,3.425,8.193,3.425,4.1,0,7.709-1.8,10.731-5.345a36.962,36.962,0,0,0,7.018-13.565,55.714,55.714,0,0,0,2.411-15.687c0-4.781-.987-8.374-2.928-10.677a10.2,10.2,0,0,0-8.193-3.411c-4.1,0-7.716,1.8-10.731,5.346a36.976,36.976,0,0,0-7.024,13.565,55.668,55.668,0,0,0-2.4,15.687C252.543,632.056,253.53,635.649,255.471,637.932Zm8.193,4.352a11.072,11.072,0,0,1-8.9-3.754c-2.088-2.458-3.136-6.245-3.136-11.262a56.314,56.314,0,0,1,2.444-15.949,37.8,37.8,0,0,1,7.192-13.887c3.21-3.767,7.058-5.681,11.436-5.681a11.077,11.077,0,0,1,8.9,3.747c2.082,2.465,3.143,6.259,3.143,11.268a57.077,57.077,0,0,1-2.444,15.949,37.826,37.826,0,0,1-7.206,13.887C271.89,640.37,268.049,642.283,263.664,642.283Z" transform="translate(-233.656 -576.645)" fill="url(#linear-gradient-2)"/>
        <path id="Path_16878" data-name="Path 16878" d="M224.868,620.323a62.961,62.961,0,0,1,5.164-25.653,45.481,45.481,0,0,1,14.425-18.541,34.71,34.71,0,0,1,21.107-6.87c8.7,0,15.66,2.666,20.73,7.911,5.05,5.245,7.615,12.578,7.615,21.765a63.082,63.082,0,0,1-5.151,25.653,45.633,45.633,0,0,1-14.438,18.535,34.7,34.7,0,0,1-21.1,6.877c-8.69,0-15.667-2.666-20.73-7.924h.007C227.434,636.836,224.868,629.516,224.868,620.323Zm6-25.284a62.208,62.208,0,0,0-5.09,25.284c0,8.945,2.485,16.05,7.38,21.12s11.631,7.635,20.066,7.635a33.826,33.826,0,0,0,20.563-6.689,44.747,44.747,0,0,0,14.129-18.172A62.209,62.209,0,0,0,293,598.934c0-8.945-2.485-16.05-7.38-21.133-4.875-5.057-11.631-7.622-20.052-7.622a33.865,33.865,0,0,0-20.576,6.689A44.8,44.8,0,0,0,230.865,595.039Z" transform="translate(-224.865 -569.257)" fill="url(#linear-gradient-3)"/>
      </g>
    </g>
  </g>
</svg>
