<svg xmlns="http://www.w3.org/2000/svg" xmlns:xlink="http://www.w3.org/1999/xlink" width="135.439" height="80.74" viewBox="0 0 135.439 80.74">
  <defs>
    <linearGradient id="linear-gradient" x1="-0.57" y1="-1.004" x2="0.714" y2="-1.004" gradientUnits="objectBoundingBox">
      <stop offset="0" stop-color="#1cadc3"/>
      <stop offset="1" stop-color="#003c68"/>
    </linearGradient>
    <linearGradient id="linear-gradient-2" x1="0.316" y1="-1.869" x2="2.958" y2="-1.869" xlink:href="#linear-gradient"/>
    <linearGradient id="linear-gradient-3" x1="0.412" y1="-0.983" x2="1.679" y2="-0.983" xlink:href="#linear-gradient"/>
  </defs>
  <g id="グループ_16846" data-name="グループ 16846" transform="translate(-146.865 -381.25)">
    <g id="Group_16851" data-name="Group 16851" transform="translate(146.865 381.25)">
      <g id="Group_16850" data-name="Group 16850">
        <path id="Path_16869" data-name="Path 16869" d="M311.559,392.455a17.693,17.693,0,0,1,3.284,10.429,24.365,24.365,0,0,1-3.908,13.2c-2.6,4.137-7.2,8.764-13.666,13.78L275.692,446.56H308.9L306.213,460.2h-57.5l2.169-10.859,35.041-27.452c4.278-3.479,7.286-6.433,8.972-8.817a13.127,13.127,0,0,0,2.552-7.655,7.958,7.958,0,0,0-3.089-6.527c-2.021-1.6-4.963-2.418-8.71-2.418a20.71,20.71,0,0,0-9.133,2.142,22.96,22.96,0,0,0-7.38,5.742l-11.288-8.179a32.1,32.1,0,0,1,12.558-9.791,42.334,42.334,0,0,1,17.89-3.767,35.116,35.116,0,0,1,13.981,2.606A21.581,21.581,0,0,1,311.559,392.455Z" transform="translate(-180.318 -381.697)" fill="#fff"/>
        <path id="Path_16870" data-name="Path 16870" d="M215.452,411.374a62.1,62.1,0,0,1-5.09,25.283,44.6,44.6,0,0,1-14.136,18.178,33.812,33.812,0,0,1-20.562,6.688c-8.434,0-15.17-2.572-20.065-7.635s-7.38-12.175-7.38-21.126a62,62,0,0,1,5.1-25.283A44.642,44.642,0,0,1,167.451,389.3a33.776,33.776,0,0,1,20.562-6.682c8.434,0,15.183,2.559,20.065,7.629S215.452,402.436,215.452,411.374Zm-19.5,16.392a56.313,56.313,0,0,0,2.444-15.949c0-5.01-1.054-8.8-3.143-11.268s-5.1-3.734-8.891-3.734c-4.378,0-8.233,1.9-11.429,5.668a37.625,37.625,0,0,0-7.206,13.887,56.636,56.636,0,0,0-2.444,15.956c0,5.016,1.061,8.81,3.143,11.262a11.053,11.053,0,0,0,8.891,3.747c4.385,0,8.226-1.9,11.436-5.674A37.539,37.539,0,0,0,195.951,427.766Z" transform="translate(-147.308 -381.699)" fill="#fff"/>
        <path id="Path_16871" data-name="Path 16871" d="M247.04,460.672l2.451-12.289.141-.107L284.8,420.709c4.2-3.411,7.159-6.306,8.784-8.622a12.152,12.152,0,0,0,2.4-7.118,6.984,6.984,0,0,0-2.753-5.815c-1.847-1.457-4.593-2.216-8.139-2.216a19.692,19.692,0,0,0-8.73,2.055,22.182,22.182,0,0,0-7.353,5.829l-.275.336-.349-.248L256,395.93l.269-.376A32.978,32.978,0,0,1,269.456,385.1a43.414,43.414,0,0,1,18.279-3.841,36,36,0,0,1,14.351,2.686,22.358,22.358,0,0,1,9.663,7.535,18.482,18.482,0,0,1,3.458,10.959,25.343,25.343,0,0,1-4.043,13.7c-2.666,4.217-7.34,8.938-13.894,14.008L277.83,445.2h31.636l-.121.551-2.928,14.921Zm3.291-11.779-2.169,10.859h57.5l2.686-13.639H275.144l21.576-16.694c6.467-5.016,11.067-9.643,13.666-13.78a24.365,24.365,0,0,0,3.908-13.2,17.694,17.694,0,0,0-3.284-10.429,21.581,21.581,0,0,0-9.287-7.232,35.117,35.117,0,0,0-13.981-2.606,42.334,42.334,0,0,0-17.89,3.767,32.1,32.1,0,0,0-12.558,9.791l11.288,8.179a22.96,22.96,0,0,1,7.38-5.742,20.71,20.71,0,0,1,9.133-2.142c3.747,0,6.688.819,8.71,2.418a7.958,7.958,0,0,1,3.089,6.527,13.126,13.126,0,0,1-2.552,7.655c-1.686,2.384-4.694,5.339-8.972,8.817Z" transform="translate(-179.769 -381.25)" fill="url(#linear-gradient)"/>
        <path id="Path_16872" data-name="Path 16872" d="M183.978,410.025a36.766,36.766,0,0,0-7.024,13.552,55.678,55.678,0,0,0-2.4,15.694c0,4.795.98,8.387,2.921,10.677s4.634,3.418,8.193,3.418c4.1,0,7.709-1.806,10.731-5.352a37.1,37.1,0,0,0,7.024-13.558,55.753,55.753,0,0,0,2.4-15.694c0-4.788-.98-8.381-2.921-10.671a10.2,10.2,0,0,0-8.2-3.425C190.606,404.667,187,406.466,183.978,410.025Zm-.7-.6c3.2-3.767,7.051-5.668,11.429-5.668,3.794,0,6.789,1.256,8.891,3.734s3.143,6.259,3.143,11.268a56.314,56.314,0,0,1-2.444,15.949,37.539,37.539,0,0,1-7.2,13.894c-3.21,3.774-7.051,5.674-11.436,5.674a11.053,11.053,0,0,1-8.891-3.747c-2.082-2.451-3.143-6.245-3.143-11.262a56.635,56.635,0,0,1,2.444-15.956A37.624,37.624,0,0,1,183.28,409.428Z" transform="translate(-155.656 -388.644)" fill="url(#linear-gradient-2)"/>
        <path id="Path_16873" data-name="Path 16873" d="M187.57,382.172a33.776,33.776,0,0,0-20.562,6.682,44.643,44.643,0,0,0-14.129,18.178,62,62,0,0,0-5.1,25.283c0,8.952,2.485,16.063,7.38,21.126s11.631,7.635,20.065,7.635a33.812,33.812,0,0,0,20.562-6.688,44.6,44.6,0,0,0,14.136-18.178,62.1,62.1,0,0,0,5.09-25.283c0-8.938-2.485-16.05-7.373-21.126S196,382.172,187.57,382.172Zm-21.113,5.95a34.679,34.679,0,0,1,21.113-6.863c8.69,0,15.667,2.659,20.73,7.9s7.615,12.578,7.615,21.764a62.97,62.97,0,0,1-5.151,25.653,45.638,45.638,0,0,1-14.424,18.541,34.706,34.706,0,0,1-21.12,6.87c-8.69.007-15.667-2.653-20.73-7.9s-7.622-12.571-7.622-21.771a62.982,62.982,0,0,1,5.164-25.653A45.569,45.569,0,0,1,166.457,388.122Z" transform="translate(-146.865 -381.252)" fill="url(#linear-gradient-3)"/>
      </g>
    </g>
  </g>
</svg>
