<svg xmlns="http://www.w3.org/2000/svg" width="65" height="61" viewBox="0 0 65 61">
  <g id="Group_16470" data-name="Group 16470" transform="translate(-320 -608)">
    <g id="Path_15134" data-name="Path 15134" transform="translate(320 608)" fill="#fff">
      <path d="M 60 59.5 L 5 59.5 C 3.070090055465698 59.5 1.5 57.92990875244141 1.5 56 L 1.5 5 C 1.5 3.070090055465698 3.070090055465698 1.5 5 1.5 L 60 1.5 C 61.92990875244141 1.5 63.5 3.070090055465698 63.5 5 L 63.5 56 C 63.5 57.92990875244141 61.92990875244141 59.5 60 59.5 Z" stroke="none"/>
      <path d="M 5 3 C 3.897201538085938 3 3 3.897201538085938 3 5 L 3 56 C 3 57.10279846191406 3.897201538085938 58 5 58 L 60 58 C 61.10279846191406 58 62 57.10279846191406 62 56 L 62 5 C 62 3.897201538085938 61.10279846191406 3 60 3 L 5 3 M 5 0 L 60 0 C 62.76142120361328 0 65 2.238578796386719 65 5 L 65 56 C 65 58.76142120361328 62.76142120361328 61 60 61 L 5 61 C 2.238578796386719 61 0 58.76142120361328 0 56 L 0 5 C 0 2.238578796386719 2.238578796386719 0 5 0 Z" stroke="none" fill="#1c5472"/>
    </g>
    <path id="Path_15146" data-name="Path 15146" d="M17.918,0,16.15-5.78H7.31L5.542,0H0L8.568-24.378h6.29L23.46,0ZM14.926-10.1l-1.768-5.644q-.17-.578-.442-1.462t-.544-1.8q-.272-.918-.442-1.6-.17.68-.459,1.683t-.544,1.9q-.255.9-.391,1.275L8.6-10.1Z" transform="translate(340 649)" fill="#1c5472"/>
  </g>
</svg>
