<svg xmlns="http://www.w3.org/2000/svg" width="136.823" height="28.117" viewBox="0 0 136.823 28.117">
  <g id="Group_16149" data-name="Group 16149" transform="translate(-253.797 -1956.18)">
    <g id="Group_16148" data-name="Group 16148" transform="translate(-344 1911)">
      <rect id="Rectangle_10873" data-name="Rectangle 10873" width="36.835" height="2.763" transform="translate(599.751 45.297) rotate(45)" fill="#fff"/>
      <rect id="Rectangle_10875" data-name="Rectangle 10875" width="36.835" height="2.763" transform="translate(597.797 71.344) rotate(-45)" fill="#fff"/>
    </g>
    <path id="Path_16377" data-name="Path 16377" d="M11.49-22.08v2.49H5.01v-2.49ZM5.01-15.3v-2.64h6.48v2.64Zm8.61,1.71V-23.82H2.79V2.31H5.01v-15.9Zm9,5.28v-1.86H17.97v-2.67H15.93v2.67H7.5v1.86h7.59a22.039,22.039,0,0,1-8.4,6.36A12.414,12.414,0,0,1,8.1-.33,24.929,24.929,0,0,0,15.93-6.6V-.81c0,.33-.12.42-.45.45-.36,0-1.53.03-2.79-.03a9.351,9.351,0,0,1,.69,1.86,10.363,10.363,0,0,0,3.66-.33c.72-.33.93-.87.93-1.92V-8.31Zm-4.2-6.96v-2.67h6.72v2.67Zm6.72-6.81v2.49H18.42v-2.49Zm2.25-1.74H16.29v10.26h8.85V-.72c0,.57-.18.75-.72.75-.6.03-2.55.06-4.53-.03a8.217,8.217,0,0,1,.78,2.28,19.014,19.014,0,0,0,5.34-.39C27.03,1.5,27.39.75,27.39-.72ZM48.12-20.7l-1.71.72a36.715,36.715,0,0,1,2.82,4.86L51-15.93A48.836,48.836,0,0,0,48.12-20.7Zm3.87-1.53-1.68.78a33.913,33.913,0,0,1,2.91,4.74l1.74-.84A45.011,45.011,0,0,0,51.99-22.23Zm-15.18-.9a15.269,15.269,0,0,1,.27,3c0,3.15-.3,10.65-.3,15.06,0,4.83,2.94,6.63,7.2,6.63A14.8,14.8,0,0,0,56.37-4.98L54.72-7.05C52.59-3.96,49.5-.9,44.07-.9c-2.76,0-4.89-1.14-4.89-4.38,0-4.44.24-11.49.36-14.85.06-.96.15-1.98.3-2.97ZM74.97-.99c-2.22,0-3.93-.84-3.93-2.31,0-1.02,1.02-1.83,2.37-1.83,2.25,0,3.66,1.62,3.93,3.96A14.633,14.633,0,0,1,74.97-.99Zm6.12-21.57a10.638,10.638,0,0,1-1.62.24c-1.56.15-8.61.36-10.14.36a16.868,16.868,0,0,1-2.1-.09l.06,2.49a14.3,14.3,0,0,1,2.01-.18c1.53-.09,7.38-.36,8.94-.42-1.47,1.32-5.16,4.44-6.81,5.82-1.74,1.44-5.55,4.62-8.01,6.66l1.74,1.77c3.78-3.84,6.48-5.91,11.37-5.91,3.75,0,6.69,2.13,6.69,5.04a5.181,5.181,0,0,1-3.69,5.04,5.866,5.866,0,0,0-6.12-5.25c-2.76,0-4.59,1.86-4.59,3.9,0,2.46,2.49,4.26,6.54,4.26,6.27,0,10.26-3.12,10.26-7.92,0-4.02-3.57-7.02-8.52-7.02a12.624,12.624,0,0,0-4.02.63c2.28-1.92,6.27-5.43,7.74-6.54.45-.33,1.11-.78,1.65-1.14Z" transform="translate(305 1980)" fill="#fff"/>
  </g>
</svg>
