<svg xmlns="http://www.w3.org/2000/svg" width="60" height="60" viewBox="0 0 60 60">
  <g id="Group_16823" data-name="Group 16823" transform="translate(-390 651)">
    <g id="楕円形_737" data-name="楕円形 737" transform="translate(390 -651)" opacity="0.07">
      <circle id="Ellipse_774" data-name="Ellipse 774" cx="30" cy="30" r="30" fill="#0181c0"/>
      <circle id="Ellipse_775" data-name="Ellipse 775" cx="29.571" cy="29.571" r="29.571" transform="translate(0.429 0.429)" fill="#0181c0"/>
    </g>
    <g id="Group_16791" data-name="Group 16791" transform="translate(72 -7.506)">
      <g id="Group_16790" data-name="Group 16790">
        <path id="Path_16835" data-name="Path 16835" d="M409.3,619.374a3.6,3.6,0,0,1-2.529-1.03c-1.825-2.023-4.08-4.564-6.716-7.567l-4.219-4.832a5.969,5.969,0,0,1-7.606-7.617.444.444,0,0,1,.1-.167.494.494,0,0,1,.684-.025l3.307,3.308a.294.294,0,0,0,.2.082.266.266,0,0,0,.191-.081l2.275-2.273a.273.273,0,0,0,0-.388l-3.3-3.3a.508.508,0,0,1,.013-.7.467.467,0,0,1,.176-.106,5.978,5.978,0,0,1,4.149.074h0a5.978,5.978,0,0,1,3.459,7.541l12.385,10.915a3.642,3.642,0,0,1,.015,5.073A3.6,3.6,0,0,1,409.3,619.374Zm-13.29-14.124,4.487,5.139c2.634,3,4.887,5.541,6.7,7.548a3.029,3.029,0,0,0,4.271-4.3L398.8,602.471l.075-.191a5.383,5.383,0,0,0-6.645-7.09l3.179,3.177a.858.858,0,0,1,.009,1.212l-2.282,2.281a.861.861,0,0,1-1.214.007l-3.183-3.185a5.382,5.382,0,0,0,7.087,6.643Zm-7.224-6.731,0,0Zm3.283-3.278,0,0Z" transform="translate(-52.895 -1220.844)" fill="#0181c0"/>
      </g>
      <path id="Path_16836" data-name="Path 16836" d="M409.318,618.012a2.239,2.239,0,1,1,1.584-.654h0A2.231,2.231,0,0,1,409.318,618.012Zm0-3.891a1.652,1.652,0,1,0,1.17.484A1.65,1.65,0,0,0,409.318,614.121Z" transform="translate(-52.895 -1220.844)" fill="#1c5472"/>
    </g>
  </g>
</svg>
