<svg id="logo-amano" xmlns="http://www.w3.org/2000/svg" width="220.731" height="40" viewBox="0 0 220.731 40">
  <path id="Path_1" data-name="Path 1" d="M655.246,53.028,642.655,23.62s-.151-.3-.385-.3H628.06a.2.2,0,0,0-.229.2v3.888a.257.257,0,0,0,.287.282h1.7c1.121,0,1.46.622,1.192,1.506L620.837,52.6c-.357.851-.632,1.905-1.806,1.983,0,0-1.47.114-1.954.114-.561,0-.575.731-.575.731v3.129s-.019.231.294.231H631.77a.34.34,0,0,0,.333-.314V54.98a.424.424,0,0,0-.439-.416h-2.228a1.073,1.073,0,0,1-.808-1.588l1.478-3.387a.615.615,0,0,1,.549-.368h11.833c.435-.014.493.257.493.257l1.559,3.46c.5,1.139-.233,1.638-1.235,1.638h-1.931a.273.273,0,0,0-.256.236v3.834s.005.141.183.141h17.775a.317.317,0,0,0,.31-.273l-.008-3.624s-.031-.258-.227-.258c-.137,0-1.455-.031-1.455-.031-1.682,0-1.9-.368-2.45-1.574m-22.2-10.006,3.176-7.353c.291-.7.473-.752.843-.049l3.224,7.538c.286.658.236.868-1.053.817h-5.416c-1.062,0-1.072-.228-.773-.953" transform="translate(-616.502 -21.827)" fill="#0181c0"/>
  <path id="Path_2" data-name="Path 2" d="M727.77,52.984l-12.586-29.2s-.149-.3-.39-.3c-.131,0-12.377-.01-14.207-.01a.207.207,0,0,0-.224.2l0,3.783a.255.255,0,0,0,.276.287h1.714c1.121,0,1.452.621,1.192,1.509l-10.078,23.3c-.365.852-.637,1.906-1.806,1.983,0,0-1.578.114-2.06.114-.557,0-.57.732-.57.732v3.334s-.023.237.289.237H704.3a.343.343,0,0,0,.333-.321V55.243a.428.428,0,0,0-.445-.414h-2.227a1.363,1.363,0,0,1-.807-1.9l1.481-3.179a.6.6,0,0,1,.554-.373c.381,0,10.234,0,11.834,0,.423-.013.478.259.478.259l1.564,3.256a1.293,1.293,0,0,1-1.236,1.943H713.9c-.213,0-.249.236-.249.236v3.759s0,.139.182.139H731.6a.315.315,0,0,0,.31-.277V55.159s-.028-.262-.392-.262c-.139,0-1.3-.035-1.3-.035-1.675,0-1.9-.672-2.452-1.878m-22.429-9.76,3.414-7.6c.289-.7.473-.752.836-.049l3.23,7.538c.28.658.561,1.047-1.06.943h-5.647c-1.065,0-1.076-.106-.774-.833" transform="translate(-595.987 -21.783)" fill="#0181c0"/>
  <path id="Path_3" data-name="Path 3" d="M673.746,41.007,666.907,23.7a.752.752,0,0,0-.661-.382H652.429a.282.282,0,0,0-.284.287v3.778a.266.266,0,0,0,.259.257c.25,0,1.4.036,1.4.036,1.637,0,1.6.939,1.6,2.205V52.753c0,.725-.2,1.833-1.562,1.833h-1.452a.227.227,0,0,0-.248.235v3.7a.228.228,0,0,0,.237.277h13.235c.244,0,.244-.291.244-.291V54.835a.212.212,0,0,0-.231-.26h-1.488a1.466,1.466,0,0,1-1.666-1.486V40.756c0-1.543.389-1.188.711-.368l7.276,18.226a.262.262,0,0,0,.273.182h4.823a.286.286,0,0,0,.248-.182l7.4-17.926c.422-1.18.8-1.31.8-.626V52.986c0,.658-.038,1.7-1.58,1.7h-1.557a.236.236,0,0,0-.257.285v3.723a.208.208,0,0,0,.214.242h15.666a.244.244,0,0,0,.236-.212V54.981s-.058-.249-.278-.249h-1.108c-2.194,0-2.123-1.131-2.123-1.793V29.576c0-1.72,1.351-1.828,2.081-1.828h1.151c.267,0,.24-.307.24-.307l.016-3.728s-.04-.313-.265-.313H683.2a.565.565,0,0,0-.508.259l-7.651,18.108c-.572,1.255-.754.549-1.3-.761" transform="translate(-606.421 -21.828)" fill="#0181c0"/>
  <path id="Path_4" data-name="Path 4" d="M736.359,36.551l14.276,22.634H762V30.321c0-1.267-.273-2.326,1.678-2.326,0,0,1.034-.049,1.3-.049a.23.23,0,0,0,.249-.21V23.961s-.039-.3-.241-.3h-13.5c-.249,0-.21.264-.21.264v3.8s-.038.222.222.222h1.593c1.385,0,1.633,1.02,1.633,1.791,0,0,.036,17.033.036,17.218s-.268.449-.523.056c-.281-.436-13.427-21.074-14.763-23.2a.408.408,0,0,0-.362-.248H725.161a.275.275,0,0,0-.286.323v3.754a.236.236,0,0,0,.241.195h1.541c1.022,0,1.574.236,1.574,2.232V53.04c0,.82-.136,1.788-1.769,1.788,0,0-1.227.01-1.5.01s-.249.305-.249.305v3.575s0,.305.253.305H738.39a.284.284,0,0,0,.3-.305V55.208a.263.263,0,0,0-.26-.242c-.228,0-1.55-.127-1.55-.127-1.751,0-1.6-1.056-1.6-1.851v-16.7c-.027-.9.327-1.085,1.08.262" transform="translate(-585.895 -21.756)" fill="#0181c0"/>
  <path id="Path_5" data-name="Path 5" d="M757.553,41.826c0-11.161,8.122-19.67,19.851-19.67a19.687,19.687,0,0,1,19.935,19.788c0,11.164-7.4,20.212-19.935,20.212-11.052,0-19.851-8.328-19.851-20.33m19.851,15c7.5,0,9.549-6.668,9.549-14.878S784.1,27.579,777.4,27.579c-7.266,0-9.331,6.149-9.331,14.365s2.558,14.878,9.331,14.878" transform="translate(-576.608 -22.156)" fill="#0181c0"/>
</svg>
