<svg xmlns="http://www.w3.org/2000/svg" width="36.313" height="41.5" viewBox="0 0 36.313 41.5">
  <path id="icon67-white" d="M36.313,39.879V41.5H0V39.879a.973.973,0,0,1,.973-.973H2.594V9.727A1.945,1.945,0,0,1,4.539,7.781h7.133V1.945A1.945,1.945,0,0,1,13.617,0H22.7a1.945,1.945,0,0,1,1.945,1.945V7.781h7.133a1.945,1.945,0,0,1,1.945,1.945v29.18H35.34A.973.973,0,0,1,36.313,39.879ZM24.965,15.563H21.723a.973.973,0,0,0-.973.973v3.242a.973.973,0,0,0,.973.973h3.242a.973.973,0,0,0,.973-.973V16.535A.973.973,0,0,0,24.965,15.563ZM11.348,20.75H14.59a.973.973,0,0,0,.973-.973V16.535a.973.973,0,0,0-.973-.973H11.348a.973.973,0,0,0-.973.973v3.242A.973.973,0,0,0,11.348,20.75Zm8.43,10.375H16.535a.973.973,0,0,0-.973.973v6.809H20.75V32.1A.973.973,0,0,0,19.777,31.125Zm5.188-7.781H21.723a.973.973,0,0,0-.973.973v3.242a.973.973,0,0,0,.973.973h3.242a.973.973,0,0,0,.973-.973V24.316A.973.973,0,0,0,24.965,23.344Zm-9.4.973a.973.973,0,0,0-.973-.973H11.348a.973.973,0,0,0-.973.973v3.242a.973.973,0,0,0,.973.973H14.59a.973.973,0,0,0,.973-.973ZM14.752,7.781h2.107V9.889a.486.486,0,0,0,.486.486h1.621a.486.486,0,0,0,.486-.486V7.781h2.107a.486.486,0,0,0,.486-.486V5.674a.486.486,0,0,0-.486-.486H19.453V3.08a.486.486,0,0,0-.486-.486H17.346a.486.486,0,0,0-.486.486V5.188H14.752a.486.486,0,0,0-.486.486V7.295A.486.486,0,0,0,14.752,7.781Z" fill="#fff"/>
</svg>
