<svg xmlns="http://www.w3.org/2000/svg" xmlns:xlink="http://www.w3.org/1999/xlink" width="60" height="60" viewBox="0 0 60 60">
  <defs>
    <clipPath id="clip-path">
      <rect id="SVGID" width="30" height="30" fill="#0181c0"/>
    </clipPath>
  </defs>
  <g id="Group_16785" data-name="Group 16785" transform="translate(-1187.092 -887)">
    <g id="楕円形_737" data-name="楕円形 737" transform="translate(1187.092 887)" opacity="0.07">
      <circle id="Ellipse_774" data-name="Ellipse 774" cx="30" cy="30" r="30" fill="#0181c0"/>
      <circle id="Ellipse_775" data-name="Ellipse 775" cx="29.571" cy="29.571" r="29.571" transform="translate(0.429 0.429)" fill="#0181c0"/>
    </g>
    <g id="グループ_16525" data-name="グループ 16525" transform="translate(1202.092 902)">
      <g id="Group_16751" data-name="Group 16751">
        <g id="Group_16750" data-name="Group 16750" clip-path="url(#clip-path)">
          <g id="グループ_16307" data-name="グループ 16307" transform="translate(0 0.001)">
            <path id="パス_16495" data-name="パス 16495" d="M418.467,482.015l-3.556-.312a11.67,11.67,0,0,0-1.353-3.367l2.266-2.7a.416.416,0,0,0-.025-.562l-2.691-2.693a.416.416,0,0,0-.56-.024l-2.611,2.19a11.59,11.59,0,0,0-3.485-1.558l-.287-3.274a.415.415,0,0,0-.415-.38h-3.806a.417.417,0,0,0-.416.38l-.271,3.1a11.593,11.593,0,0,0-3.816,1.463l-2.294-1.924a.418.418,0,0,0-.564.024l-2.686,2.693a.416.416,0,0,0-.025.562l1.844,2.2a11.618,11.618,0,0,0-1.684,3.933l-2.8.246a.417.417,0,0,0-.381.416v3.807a.418.418,0,0,0,.381.416l2.8.245a11.572,11.572,0,0,0,1.684,3.933l-1.847,2.2a.416.416,0,0,0,.024.564l2.692,2.689a.42.42,0,0,0,.564.025l2.29-1.923a11.587,11.587,0,0,0,3.817,1.462l.27,3.1a.419.419,0,0,0,.417.38h3.805a.415.415,0,0,0,.416-.38l.285-3.274a11.665,11.665,0,0,0,3.486-1.557l2.611,2.191a.416.416,0,0,0,.562-.025l2.687-2.692a.417.417,0,0,0,.025-.564l-2.266-2.7a11.659,11.659,0,0,0,1.353-3.367l3.556-.311a.419.419,0,0,0,.384-.416V482.43a.418.418,0,0,0-.383-.415m-.452,3.84-3.481.3a.419.419,0,0,0-.373.333,10.778,10.778,0,0,1-1.467,3.653.417.417,0,0,0,.034.492l2.214,2.638-2.15,2.15-2.558-2.145a.42.42,0,0,0-.509-.022,10.788,10.788,0,0,1-3.756,1.683.413.413,0,0,0-.32.369l-.279,3.191h-3.042l-.265-3.04a.417.417,0,0,0-.35-.377,10.8,10.8,0,0,1-4.084-1.561.415.415,0,0,0-.492.032l-2.229,1.871-2.15-2.15,1.806-2.15a.418.418,0,0,0,.02-.508,10.773,10.773,0,0,1-1.794-4.188.419.419,0,0,0-.373-.336l-2.733-.237v-3.044l2.733-.239a.416.416,0,0,0,.373-.335,10.771,10.771,0,0,1,1.794-4.189.418.418,0,0,0-.02-.508l-1.806-2.15,2.15-2.15,2.229,1.871a.417.417,0,0,0,.492.032,10.778,10.778,0,0,1,4.086-1.56.418.418,0,0,0,.35-.377l.265-3.04h3.042l.278,3.19a.416.416,0,0,0,.32.371,10.786,10.786,0,0,1,3.756,1.681.42.42,0,0,0,.509-.022l2.555-2.147,2.15,2.15-2.214,2.638a.417.417,0,0,0-.034.492,10.8,10.8,0,0,1,1.467,3.653.415.415,0,0,0,.373.333l3.481.3Z" transform="translate(-388.848 -469.335)" fill="#0181c0"/>
            <path id="パス_16496" data-name="パス 16496" d="M402.574,475.731a7.332,7.332,0,1,0,7.332,7.332v0a7.338,7.338,0,0,0-7.332-7.329m0,13.829a6.5,6.5,0,1,1,6.5-6.5,6.5,6.5,0,0,1-6.5,6.5" transform="translate(-387.574 -468.061)" fill="#0181c0"/>
          </g>
        </g>
      </g>
    </g>
  </g>
</svg>
