<svg xmlns="http://www.w3.org/2000/svg" xmlns:xlink="http://www.w3.org/1999/xlink" width="2" height="24" viewBox="0 0 2 24">
  <defs>
    <clipPath id="clip-path">
      <rect width="2" height="24" fill="none"/>
    </clipPath>
  </defs>
  <g id="Repeat_Grid_1" data-name="Repeat Grid 1" clip-path="url(#clip-path)">
    <g transform="translate(-1473 -30)">
      <rect id="Rectangle_25" data-name="Rectangle 25" width="1" height="1" transform="translate(1473 30)" fill="#111"/>
    </g>
    <g transform="translate(-1473 -28)">
      <rect id="Rectangle_25-2" data-name="Rectangle 25" width="1" height="1" transform="translate(1473 30)" fill="#111"/>
    </g>
    <g transform="translate(-1473 -26)">
      <rect id="Rectangle_25-3" data-name="Rectangle 25" width="1" height="1" transform="translate(1473 30)" fill="#111"/>
    </g>
    <g transform="translate(-1473 -24)">
      <rect id="Rectangle_25-4" data-name="Rectangle 25" width="1" height="1" transform="translate(1473 30)" fill="#111"/>
    </g>
    <g transform="translate(-1473 -22)">
      <rect id="Rectangle_25-5" data-name="Rectangle 25" width="1" height="1" transform="translate(1473 30)" fill="#111"/>
    </g>
    <g transform="translate(-1473 -20)">
      <rect id="Rectangle_25-6" data-name="Rectangle 25" width="1" height="1" transform="translate(1473 30)" fill="#111"/>
    </g>
    <g transform="translate(-1473 -18)">
      <rect id="Rectangle_25-7" data-name="Rectangle 25" width="1" height="1" transform="translate(1473 30)" fill="#111"/>
    </g>
    <g transform="translate(-1473 -16)">
      <rect id="Rectangle_25-8" data-name="Rectangle 25" width="1" height="1" transform="translate(1473 30)" fill="#111"/>
    </g>
    <g transform="translate(-1473 -14)">
      <rect id="Rectangle_25-9" data-name="Rectangle 25" width="1" height="1" transform="translate(1473 30)" fill="#111"/>
    </g>
    <g transform="translate(-1473 -12)">
      <rect id="Rectangle_25-10" data-name="Rectangle 25" width="1" height="1" transform="translate(1473 30)" fill="#111"/>
    </g>
    <g transform="translate(-1473 -10)">
      <rect id="Rectangle_25-11" data-name="Rectangle 25" width="1" height="1" transform="translate(1473 30)" fill="#111"/>
    </g>
    <g transform="translate(-1473 -8)">
      <rect id="Rectangle_25-12" data-name="Rectangle 25" width="1" height="1" transform="translate(1473 30)" fill="#111"/>
    </g>
  </g>
</svg>
