<svg xmlns="http://www.w3.org/2000/svg" width="33" height="29.838" viewBox="0 0 33 29.838">
  <g id="Group_21737" data-name="Group 21737" transform="translate(-470.8 -194.362)">
    <path id="Path_36831" data-name="Path 36831" d="M500.858,196.891h-2.314v-1.584a.946.946,0,1,0-1.891,0v1.584h-8.407v-1.584a.946.946,0,1,0-1.891,0v1.584h-8.409v-1.584a.946.946,0,1,0-1.891,0v1.584h-2.312a2.942,2.942,0,0,0-2.942,2.942v21.424a2.942,2.942,0,0,0,2.942,2.942h27.116a2.942,2.942,0,0,0,2.942-2.942V199.833A2.942,2.942,0,0,0,500.858,196.891Zm-27.116,1.949h2.312v1.724a.946.946,0,0,0,1.891,0V198.84h8.409v1.724a.946.946,0,0,0,1.891,0V198.84h8.407v1.724a.946.946,0,0,0,1.891,0V198.84h2.314a.994.994,0,0,1,.993.993V203.7h-29.1v-3.868A.994.994,0,0,1,473.742,198.84Zm27.116,23.41H473.742a.994.994,0,0,1-.993-.993V205.592h29.1v15.665A.994.994,0,0,1,500.858,222.251Z" transform="translate(0)" fill="#ffffff"/>
    <rect id="Rectangle_14159" data-name="Rectangle 14159" width="3.749" height="1.891" transform="translate(477.44 208.953)" fill="#ffffff"/>
    <rect id="Rectangle_14160" data-name="Rectangle 14160" width="3.749" height="1.891" transform="translate(477.44 212.976)" fill="#ffffff"/>
    <rect id="Rectangle_14161" data-name="Rectangle 14161" width="3.749" height="1.891" transform="translate(477.44 216.998)" fill="#ffffff"/>
    <rect id="Rectangle_14162" data-name="Rectangle 14162" width="3.749" height="1.891" transform="translate(485.486 208.953)" fill="#ffffff"/>
    <rect id="Rectangle_14163" data-name="Rectangle 14163" width="3.749" height="1.891" transform="translate(485.486 212.976)" fill="#ffffff"/>
    <rect id="Rectangle_14164" data-name="Rectangle 14164" width="3.749" height="1.891" transform="translate(485.486 216.998)" fill="#ffffff"/>
    <rect id="Rectangle_14165" data-name="Rectangle 14165" width="3.749" height="1.891" transform="translate(493.531 208.953)" fill="#ffffff"/>
    <rect id="Rectangle_14166" data-name="Rectangle 14166" width="3.749" height="1.891" transform="translate(493.531 212.976)" fill="#ffffff"/>
    <rect id="Rectangle_14167" data-name="Rectangle 14167" width="3.749" height="1.891" transform="translate(493.531 216.998)" fill="#ffffff"/>
  </g>
</svg>
