<svg xmlns="http://www.w3.org/2000/svg" width="57.078" height="61" viewBox="0 0 57.078 61">
  <g id="Group_16784" data-name="Group 16784" transform="translate(-2261.018 -734.879)">
    <path id="Union_12" data-name="Union 12" d="M.49,60A.49.49,0,0,1,0,59.507V12a.49.49,0,0,1,.49-.493H5.749a.49.49,0,0,1,0,.981H.981V59.014H38.868V46.192a.493.493,0,0,1,.986,0V59.507A.493.493,0,0,1,39.36,60Zm6.631-8.114L5.382,50.144a.482.482,0,0,1,0-.691.494.494,0,0,1,.693,0L7.47,50.846l5.251-5.251a.477.477,0,0,1,.347-.143.491.491,0,0,1,.349.143.5.5,0,0,1,0,.693l-5.6,5.6a.478.478,0,0,1-.344.143A.49.49,0,0,1,7.121,51.886Zm16.359-.247a.485.485,0,0,1-.138-.441l1.141-5.88a.524.524,0,0,1,.133-.255l20.71-20.707a.485.485,0,0,1,.346-.133.491.491,0,0,1,.35.133l4.737,4.74a.493.493,0,0,1,.144.347.482.482,0,0,1-.144.344L30.049,50.5a.527.527,0,0,1-.252.133l-.083.016v-.01l-.011.005v.008l-5.879,1.131A.47.47,0,0,1,23.479,51.638Zm.964-.967,4.258-.826L25.27,46.416Zm1.216-5.256L29.7,49.456,49.719,29.442,48.04,27.763l-8.2,8.208a.49.49,0,0,1-.349.143.48.48,0,0,1-.349-.146.488.488,0,0,1,0-.688l8.205-8.208L45.672,25.4ZM7.121,42.658,5.382,40.919a.5.5,0,0,1-.146-.344.49.49,0,0,1,.146-.347.482.482,0,0,1,.693,0l1.395,1.4,5.251-5.251a.479.479,0,0,1,.347-.146.493.493,0,0,1,.349.84l-5.6,5.6a.488.488,0,0,1-.344.143A.5.5,0,0,1,7.121,42.658Zm0-9.224L5.382,31.695a.5.5,0,0,1-.146-.347A.494.494,0,0,1,5.382,31a.488.488,0,0,1,.693,0l1.395,1.4,5.251-5.251a.494.494,0,0,1,.7,0,.5.5,0,0,1,0,.7l-5.6,5.6a.489.489,0,0,1-.344.144A.5.5,0,0,1,7.121,33.434Zm45.318-6.012L47.7,22.681a.476.476,0,0,1-.144-.347.486.486,0,0,1,.144-.349L50.5,19.18a.478.478,0,0,1,.344-.146.493.493,0,0,1,.349.144l4.737,4.74a.49.49,0,0,1,0,.693l-2.808,2.809a.482.482,0,0,1-.346.143A.47.47,0,0,1,52.439,27.421Zm-3.7-5.087,4.043,4.044,2.115-2.115L50.851,20.22Zm-9.869,3.71V12.489H33.875a.49.49,0,0,1,0-.981H39.36a.493.493,0,0,1,.494.493V26.045a.493.493,0,0,1-.986,0ZM10.651,18.671a2.86,2.86,0,0,1-2.861-2.855V12.648a2.861,2.861,0,0,1,2.861-2.858h.99L11.577,9.2a7.47,7.47,0,0,1-.042-.805,8.391,8.391,0,1,1,16.781,0,7.576,7.576,0,0,1-.042.811l-.057.587H29.2a2.861,2.861,0,0,1,2.858,2.858v3.168A2.86,2.86,0,0,1,29.2,18.671ZM8.774,12.648v3.168a1.879,1.879,0,0,0,1.878,1.875H29.2a1.877,1.877,0,0,0,1.875-1.875V12.648A1.877,1.877,0,0,0,29.2,10.771H27.591a.506.506,0,0,1-.394-.188.5.5,0,0,1-.083-.417,7.411,7.411,0,1,0-14.375,0,.487.487,0,0,1-.476.605H10.651A1.879,1.879,0,0,0,8.774,12.648Z" transform="translate(2261.518 735.379)" fill="#444" stroke="rgba(0,0,0,0)" stroke-miterlimit="10" stroke-width="1"/>
  </g>
</svg>
