<svg xmlns="http://www.w3.org/2000/svg" width="40" height="40" viewBox="0 0 40 40">
  <g id="Group_20313" data-name="Group 20313" transform="translate(-360 -1523.996)">
    <rect id="Rectangle_13262" data-name="Rectangle 13262" width="40" height="40" transform="translate(360 1523.996)" fill="#0181c0" opacity="0"/>
    <g id="Group_20167" data-name="Group 20167" transform="translate(363.346 1527.344)">
      <g id="Group_20163" data-name="Group 20163" transform="translate(0 5.813)">
        <path id="Path_34977" data-name="Path 34977" d="M3347.587,731.25a.7.7,0,0,1-.7-.7.553.553,0,0,0-.16-.438c-.432-.427-1.609-.41-2.059-.4l-2.089,0h-11.016a.7.7,0,0,1-.7-.7V706.983a.7.7,0,0,1,.7-.7h11.927a4.8,4.8,0,0,1,4.8,4.8v19.472A.7.7,0,0,1,3347.587,731.25Zm-2.622-2.939a5.422,5.422,0,0,1,1.922.289V711.079a3.4,3.4,0,0,0-3.4-3.4h-11.228v20.635l12.385,0Z" transform="translate(-3330.863 -706.282)" fill="#fff"/>
      </g>
      <g id="Group_20164" data-name="Group 20164" transform="translate(16.025 5.813)">
        <path id="Path_34978" data-name="Path 34978" d="M3340.273,731.25a.7.7,0,0,1-.7-.7,1.958,1.958,0,0,1,.577-1.437,4.393,4.393,0,0,1,3.063-.8l2.066,0H3355.6V706.983a.7.7,0,1,1,1.4,0v22.033a.7.7,0,0,1-.7.7l-13.105,0c-.447-.009-1.626-.026-2.061.4a.556.556,0,0,0-.158.438A.7.7,0,0,1,3340.273,731.25Z" transform="translate(-3339.574 -706.282)" fill="#fff"/>
      </g>
      <g id="Group_20165" data-name="Group 20165" transform="translate(0 27.847)">
        <path id="Path_34979" data-name="Path 34979" d="M3363.611,723.653h-32.048a.7.7,0,0,1-.7-.7V718.96a.7.7,0,0,1,1.4,0v3.293h30.648V718.96a.7.7,0,0,1,1.4,0v3.991A.7.7,0,0,1,3363.611,723.653Z" transform="translate(-3330.863 -718.261)" fill="#fff"/>
      </g>
      <g id="Group_20166" data-name="Group 20166" transform="translate(16.025 0)">
        <path id="Path_34980" data-name="Path 34980" d="M3340.273,733.765a.679.679,0,0,1-.118-.011.7.7,0,0,1-.581-.688V711.2a.688.688,0,0,1,.042-.239c2.736-7.525,12.6-7.83,13.012-7.84a.711.711,0,0,1,.505.2.7.7,0,0,1,.211.5v21.7a.7.7,0,0,1-.7.7c-9.122,0-11.608,6.782-11.71,7.071A.7.7,0,0,1,3340.273,733.765Zm.7-22.437V730.4a13.563,13.563,0,0,1,10.971-5.564V704.574C3349.731,704.791,3343.036,705.894,3340.973,711.328Z" transform="translate(-3339.574 -703.122)" fill="#fff"/>
      </g>
    </g>
  </g>
</svg>
