<svg id="loop-24px" xmlns="http://www.w3.org/2000/svg" width="79.711" height="79.711" viewBox="0 0 79.711 79.711">
  <path id="Path_17021" data-name="Path 17021" d="M0,0H79.711V79.711H0Z" fill="none"/>
  <path id="Path_17022" data-name="Path 17022" d="M32.986,11.87V1L18.493,15.493,32.986,29.986V19.116A21.757,21.757,0,0,1,54.725,40.855,21.27,21.27,0,0,1,52.189,51l5.29,5.29A28.935,28.935,0,0,0,32.986,11.87Zm0,50.725A21.757,21.757,0,0,1,11.246,40.855,21.27,21.27,0,0,1,13.783,30.71l-5.29-5.29A28.935,28.935,0,0,0,32.986,69.841v10.87L47.479,66.218,32.986,51.725Z" transform="translate(6.87 -1)" fill="#ccc"/>
</svg>
