<svg xmlns="http://www.w3.org/2000/svg" width="32.002" height="28" viewBox="0 0 32.002 28">
  <g id="日本円の紙幣の無料アイコン素材" transform="translate(-2 -69.779)">
    <path id="Path_16369" data-name="Path 16369" d="M189.129,154.569l1.9,2.483,1.254,1.636.031.04.016.037H189.64v1.122h3.4v1.249h-3.4v1.121h3.4v2.891h1.725v-2.891h3.4v-1.121h-3.4v-1.249h3.4v-1.122h-1.689l-.634,0-.371-.01.048-.063,1.254-1.636,1.178-1.538.722-.93,0,0h-.009l.009-.012h-2.22l-1.649,2.152-.2.262-.562.736-.119.153-.024.027-.7-.915-.2-.262-1.65-2.152h-1.376l-.835-.007h0l0,0,0,0Z" transform="translate(-175.901 -77.969)" fill="#0181c0"/>
    <path id="Path_16371" data-name="Path 16371" d="M33.574,69.779H2.429A.428.428,0,0,0,2,70.206V93.464a.428.428,0,0,0,.429.427H33.574A.428.428,0,0,0,34,93.464V70.206A.428.428,0,0,0,33.574,69.779Zm-6.2,2.73a3.886,3.886,0,0,0,3.892,3.88V87.281c-2.15,0-3.892,3.88-3.892,3.88H8.63a3.886,3.886,0,0,0-3.892-3.88V76.389a3.886,3.886,0,0,0,3.892-3.88H27.373Z" transform="translate(0)" fill="#0181c0"/>
    <path id="Path_16373" data-name="Path 16373" d="M2.012,408.328H2v.952a1.384,1.384,0,0,0,1.373,1.4H32.63a1.379,1.379,0,0,0,1.364-1.309c0-.025.008-.049.008-.075h0s0-.008,0-.012v-.952H2.012Z" transform="translate(0 -312.897)" fill="#0181c0"/>
  </g>
</svg>
