<svg xmlns="http://www.w3.org/2000/svg" xmlns:xlink="http://www.w3.org/1999/xlink" width="64.819" height="60" viewBox="0 0 64.819 60">
  <defs>
    <clipPath id="clip-path">
      <rect id="Rectangle_6616" data-name="Rectangle 6616" width="64.819" height="60" fill="#fff"/>
    </clipPath>
  </defs>
  <g id="Group_14521" data-name="Group 14521" transform="translate(0 0)">
    <g id="Group_14520" data-name="Group 14520" transform="translate(0 0)" clip-path="url(#clip-path)">
      <path id="Path_40" data-name="Path 40" d="M59.863,27.162A30,30,0,1,0,30,60V53.345A23.345,23.345,0,1,1,53.168,27.162H48.529L56.674,40.2l8.145-13.04Z" transform="translate(0 0)" fill="#fff"/>
      <path id="Path_41" data-name="Path 41" d="M33.795,28.721V19.213a1.663,1.663,0,1,0-3.327,0v9.508a3.64,3.64,0,0,0-2.087,3.953l-6.643,4.538a1.664,1.664,0,0,0,1.877,2.747l6.644-4.537a3.791,3.791,0,1,0,3.536-6.7" transform="translate(-1.839 -1.536)" fill="#fff"/>
    </g>
  </g>
</svg>
