<svg xmlns="http://www.w3.org/2000/svg" xmlns:xlink="http://www.w3.org/1999/xlink" width="30" height="29.994" viewBox="0 0 30 29.994">
  <defs>
    <clipPath id="clip-path">
      <rect id="Rectangle_11198" data-name="Rectangle 11198" width="30" height="29.994" fill="#fff"/>
    </clipPath>
  </defs>
  <g id="Group_16403" data-name="Group 16403" transform="translate(0 0)">
    <g id="Group_16257" data-name="Group 16257" transform="translate(0 0)" clip-path="url(#clip-path)">
      <path id="Path_16390" data-name="Path 16390" d="M.44,4.557a.206.206,0,0,0-.046.075,6.952,6.952,0,0,0,9.085,8.786l1.315,1.512c1.389-1.358,2.738-2.76,4.112-4.132L13.418,9.483A6.953,6.953,0,0,0,4.632.394a.186.186,0,0,0-.071.042.252.252,0,0,0-.015.341L8.584,4.814a.692.692,0,0,1,0,.987L5.8,8.583a.693.693,0,0,1-.987,0L.778,4.546a.245.245,0,0,0-.338.011" transform="translate(0 0)" fill="#fff"/>
      <path id="Path_16391" data-name="Path 16391" d="M25.334,20.689c-1.487,1.63-3.1,3.141-4.663,4.7,2.813,3.205,5.734,6.507,8.207,9.249a4.07,4.07,0,0,0,5.756-5.755Zm4.721,9.371a2.384,2.384,0,1,1,0,3.372,2.385,2.385,0,0,1,0-3.372" transform="translate(-5.862 -5.867)" fill="#fff"/>
      <path id="Path_16392" data-name="Path 16392" d="M.53,30.344a2.261,2.261,0,0,0,.662,1.626l1.264,1.264a2.308,2.308,0,0,0,3.254-.012l7.6-7.59a2.422,2.422,0,0,0,.643-1.993l5.02-5.019A1.6,1.6,0,0,0,19,16.386l-.955-.953a1.6,1.6,0,0,0-2.226.033L10.8,20.487a2.161,2.161,0,0,0-1.987.631l-7.6,7.6A2.306,2.306,0,0,0,.53,30.344" transform="translate(-0.15 -4.253)" fill="#fff"/>
      <path id="Path_16393" data-name="Path 16393" d="M25.467,10.272l1.593,1.593,5.423-5.425.047.048a.3.3,0,0,0,.423,0l3.8-3.8a.3.3,0,0,0,0-.422L35.065.574a.3.3,0,0,0-.421,0l-3.8,3.8a.3.3,0,0,0,0,.423l.049.05-5.425,5.423" transform="translate(-7.222 -0.138)" fill="#fff"/>
    </g>
  </g>
</svg>
