<svg xmlns="http://www.w3.org/2000/svg" width="68.377" height="78.145" viewBox="0 0 68.377 78.145">
  <path id="Icon_awesome-book" data-name="Icon awesome-book" d="M68.377,54.946V3.663A3.654,3.654,0,0,0,64.714,0H14.652A14.656,14.656,0,0,0,0,14.652V63.493A14.656,14.656,0,0,0,14.652,78.145H64.714a3.654,3.654,0,0,0,3.663-3.663V72.04a3.692,3.692,0,0,0-1.358-2.854,34.036,34.036,0,0,1,0-11.4A3.637,3.637,0,0,0,68.377,54.946ZM19.536,20.452a.918.918,0,0,1,.916-.916H52.809a.918.918,0,0,1,.916.916V23.5a.918.918,0,0,1-.916.916H20.452a.918.918,0,0,1-.916-.916Zm0,9.768a.918.918,0,0,1,.916-.916H52.809a.918.918,0,0,1,.916.916v3.053a.918.918,0,0,1-.916.916H20.452a.918.918,0,0,1-.916-.916ZM58.212,68.377H14.652a4.884,4.884,0,0,1,0-9.768h43.56A54.948,54.948,0,0,0,58.212,68.377Z" fill="#ccc"/>
</svg>
