<svg xmlns="http://www.w3.org/2000/svg" xmlns:xlink="http://www.w3.org/1999/xlink" width="36.018" height="25" viewBox="0 0 36.018 25">
  <defs>
    <clipPath id="clip-path">
      <rect id="Rectangle_6689" data-name="Rectangle 6689" width="36.018" height="25" fill="#fff"/>
    </clipPath>
  </defs>
  <g id="Group_14821" data-name="Group 14821" transform="translate(0 -0.001)">
    <g id="Group_14821-2" data-name="Group 14821" transform="translate(0 0)" clip-path="url(#clip-path)">
      <path id="Path_15144" data-name="Path 15144" d="M8.175,18.489H28.529a2.3,2.3,0,0,0,2.3-2.3V5.2a2.3,2.3,0,0,0-2.3-2.3H8.175a2.3,2.3,0,0,0-2.3,2.3V16.192a2.3,2.3,0,0,0,2.3,2.3M7.426,5.2a.748.748,0,0,1,.749-.747H28.529a.747.747,0,0,1,.747.747V16.192a.747.747,0,0,1-.747.747H8.175a.748.748,0,0,1-.749-.747Zm28.44,14.972a.776.776,0,0,0-.623-.314H33.756a2.319,2.319,0,0,0,.159-.83V2.364A2.365,2.365,0,0,0,31.552,0H5.152A2.365,2.365,0,0,0,2.789,2.364V19.031a2.348,2.348,0,0,0,.158.83H.775a.775.775,0,0,0-.742,1l1.082,3.59a.772.772,0,0,0,.742.55h32.3a.771.771,0,0,0,.741-.551l1.082-3.588a.775.775,0,0,0-.119-.686M4.339,2.364a.815.815,0,0,1,.813-.814h26.4a.815.815,0,0,1,.813.814V19.031a.813.813,0,0,1-.813.813H25.52a.769.769,0,0,0-.291.057l-1.172.5-11.783.02L11,19.9a.778.778,0,0,0-.294-.057H5.152a.813.813,0,0,1-.813-.813ZM33.586,23.45H2.432l-.614-2.04H10.6l1.18.482a.78.78,0,0,0,.292.056H24.158a.753.753,0,0,0,.291-.056l1.132-.482H34.2Z" transform="translate(0 -0.001)" fill="#fff"/>
    </g>
  </g>
</svg>
