<svg id="icon71" xmlns="http://www.w3.org/2000/svg" xmlns:xlink="http://www.w3.org/1999/xlink" width="36.31" height="34.339" viewBox="0 0 36.31 34.339">
  <defs>
    <clipPath id="clip-path">
      <rect id="長方形_14593" data-name="長方形 14593" width="36.31" height="34.339" fill="#0181c0"/>
    </clipPath>
  </defs>
  <g id="グループ_24678" data-name="グループ 24678" clip-path="url(#clip-path)">
    <path id="パス_38986" data-name="パス 38986" d="M36.094,128.983c1.679,2.282,6.346,2.292,8.031,0,2.36,2.358,5.228,2.386,7.767.058a4.14,4.14,0,0,0,3.536,1.618c.012.168.032.315.032.463q0,8.206,0,16.413c0,.906-.312,1.207-1.231,1.207h-15.9c-.012-.2-.032-.379-.032-.554q0-6.3,0-12.606c0-1.038-.262-1.3-1.3-1.3H30.48c-.881,0-1.2.318-1.2,1.191q0,6.366,0,12.733v.529c-1.255,0-2.465.018-3.673-.009a.867.867,0,0,1-.835-.856,3.925,3.925,0,0,1-.014-.422q0-8.122,0-16.244v-.539a4.179,4.179,0,0,0,3.57-1.628c2.505,2.334,5.365,2.306,7.769-.055m14.847,9.8c0-1.127,0-2.254,0-3.381,0-.767-.347-1.119-1.1-1.121q-2.959,0-5.917,0c-.758,0-1.1.352-1.1,1.117q0,3.4,0,6.8c0,.753.325,1.087,1.08,1.09q2.98.011,5.959,0c.756,0,1.081-.337,1.084-1.086,0-1.141,0-2.282,0-3.424" transform="translate(-21.957 -114.402)" fill="#0181c0"/>
    <path id="パス_38987" data-name="パス 38987" d="M135.468.031c.535,0,1.071.008,1.606,0,.229-.005.312.067.338.305q.611,5.578,1.243,11.153a2.719,2.719,0,0,1-2.666,3,7.774,7.774,0,0,1-1.719-.1,2.723,2.723,0,0,1-1.986-2.99c.265-2.192.492-4.388.736-6.582.168-1.509.343-3.018.5-4.529.026-.244.158-.255.342-.254.535,0,1.071,0,1.606,0" transform="translate(-117.312 -0.024)" fill="#0181c0"/>
    <path id="パス_38988" data-name="パス 38988" d="M72.56.063c-.075.719-.142,1.387-.216,2.055q-.323,2.916-.651,5.831c-.172,1.538-.328,3.078-.519,4.614a2.233,2.233,0,0,1-2.24,1.955q-.571,0-1.142,0A2.216,2.216,0,0,1,65.6,11.736C66.633,7.927,67.7,4.128,68.759.327c.029-.1.167-.252.257-.253C70.182.057,71.348.063,72.56.063" transform="translate(-58.118 -0.055)" fill="#0181c0"/>
    <path id="パス_38989" data-name="パス 38989" d="M193.484.191h3.721c.3,1.082.611,2.161.911,3.242q1.133,4.08,2.262,8.162a2.214,2.214,0,0,1-1.629,2.964,6.352,6.352,0,0,1-2.218-.022,2,2,0,0,1-1.663-1.85c-.266-2.093-.469-4.195-.7-6.292-.21-1.888-.428-3.775-.64-5.662-.019-.166-.026-.333-.041-.541" transform="translate(-171.613 -0.169)" fill="#0181c0"/>
    <path id="パス_38990" data-name="パス 38990" d="M8.852.052c-.359,1.3-.7,2.562-1.052,3.817C6.992,6.779,6.159,9.682,5.384,12.6a2.385,2.385,0,0,1-2.515,1.912,8.508,8.508,0,0,1-1.01-.047A2.243,2.243,0,0,1,.234,11.22q1.779-4.03,3.58-8.051.437-.982.876-1.964A1.841,1.841,0,0,1,6.493.053c.772,0,1.543,0,2.359,0" transform="translate(0 -0.045)" fill="#0181c0"/>
    <path id="パス_38991" data-name="パス 38991" d="M243.133.014c.849,0,1.7-.036,2.537.011a1.86,1.86,0,0,1,1.64,1.268q1.981,4.5,3.984,8.981c.16.36.334.714.477,1.08a2.252,2.252,0,0,1-2.1,3.106,6.591,6.591,0,0,1-1.426-.08,2.017,2.017,0,0,1-1.584-1.487c-1.2-4.257-2.372-8.522-3.554-12.784,0-.012.006-.027.024-.095" transform="translate(-215.628 0)" fill="#0181c0"/>
  </g>
</svg>
