<svg xmlns="http://www.w3.org/2000/svg" width="40" height="35" viewBox="0 0 40 35">
  <g id="Group_24251" data-name="Group 24251" transform="translate(-725 -1070)">
    <path id="Path_60" data-name="Path 60" d="M39.5,17H35a.5.5,0,0,1-.5-.5V5.5A.5.5,0,0,0,34,5H29a.5.5,0,0,0-.5.5v11a.5.5,0,0,1-.5.5H23.5a.5.5,0,0,0-.4.8l8,10.666a.5.5,0,0,0,.8,0l8-10.666a.5.5,0,0,0-.4-.8Z" transform="translate(713.5 1065)" fill="#fff"/>
    <path id="Path_59" data-name="Path 59" d="M4,55H36a4,4,0,0,0,4-4V39a4,4,0,0,0-4-4H32.5a.5.5,0,0,0-.5.5v3a.5.5,0,0,0,.5.5H35a1,1,0,0,1,1,1V50a1,1,0,0,1-1,1H5a1,1,0,0,1-1-1V40a1,1,0,0,1,1-1H7.5a.5.5,0,0,0,.5-.5v-3a.5.5,0,0,0-.5-.5H4a4,4,0,0,0-4,4V51A4,4,0,0,0,4,55Z" transform="translate(725 1050)" fill="#fff"/>
  </g>
</svg>
