<svg xmlns="http://www.w3.org/2000/svg" width="140" height="140" viewBox="0 0 140 140">
  <g id="Group_17118" data-name="Group 17118" transform="translate(-1327 -4176)">
    <circle id="Ellipse_680" data-name="Ellipse 680" cx="70" cy="70" r="70" transform="translate(1327 4176)" fill="#f6f6f6"/>
    <g id="Group_17101" data-name="Group 17101" transform="translate(-976.573 2407.031)">
      <path id="Path_17002" data-name="Path 17002" d="M2346.217,1810.114v37.6a.936.936,0,0,0,.937.935h26.582a.936.936,0,0,0,.937-.935v-37.6a.936.936,0,0,0-.937-.935h-26.582A.936.936,0,0,0,2346.217,1810.114Zm1.874.937H2372.8v35.722h-24.707Z" transform="translate(11.161 9.068)" fill="#e60012"/>
      <path id="Path_17003" data-name="Path 17003" d="M2348.749,1813.53h4.707a.936.936,0,1,0,0-1.872h-4.707a.936.936,0,0,0,0,1.872Z" transform="translate(13.493 12.688)" fill="#e60012"/>
      <path id="Path_17004" data-name="Path 17004" d="M2348.749,1817.322h18.53a.936.936,0,1,0,0-1.872h-18.53a.936.936,0,0,0,0,1.872Z" transform="translate(13.493 18.225)" fill="#e60012"/>
      <path id="Path_17005" data-name="Path 17005" d="M2348.749,1819.219h18.53a.936.936,0,1,0,0-1.873h-18.53a.936.936,0,0,0,0,1.873Z" transform="translate(13.493 20.993)" fill="#e60012"/>
      <path id="Path_17006" data-name="Path 17006" d="M2368.216,1820.179a.935.935,0,0,0-.937-.937h-18.53a.936.936,0,0,0,0,1.872h18.53A.935.935,0,0,0,2368.216,1820.179Z" transform="translate(13.493 23.762)" fill="#e60012"/>
      <path id="Path_17007" data-name="Path 17007" d="M2358.866,1821.98h-4.216a.937.937,0,1,0,0,1.875h4.216a.937.937,0,0,0,0-1.875Z" transform="translate(22.105 27.76)" fill="#e60012"/>
      <path id="Path_17008" data-name="Path 17008" d="M2340.131,1838.349h.041a.937.937,0,0,0,.935-.9,30.317,30.317,0,0,1,35.8-28.361l-3.053,1.717a.937.937,0,0,0,.92,1.633L2380,1809.5l0,0a.9.9,0,0,0,.278-.244.729.729,0,0,0,.049-.1.856.856,0,0,0,.114-.229l0-.007,0-.008a1,1,0,0,0,.007-.15.885.885,0,0,0,.007-.217.784.784,0,0,0-.041-.123.876.876,0,0,0-.083-.221l-.008-.02-3.041-4.782a.937.937,0,0,0-1.582,1l1.853,2.913a32.175,32.175,0,0,0-38.322,30.051A.936.936,0,0,0,2340.131,1838.349Z" transform="translate(0.969 0)" fill="#e60012"/>
      <path id="Path_17009" data-name="Path 17009" d="M2388.479,1839.086a30.373,30.373,0,0,1-27.187,2.463,29.9,29.9,0,0,1-17.392-17.994l2.928,1.8a.936.936,0,0,0,.979-1.6l-5.107-3.137-.012,0a.915.915,0,0,0-.721-.1.939.939,0,0,0-.335.167c-.017.015-.027.035-.041.05a.919.919,0,0,0-.2.231l-.008.01-2.7,4.984a.937.937,0,0,0,1.646.893l1.67-3.08a31.751,31.751,0,0,0,18.608,19.526,32.587,32.587,0,0,0,11.875,2.241,31.845,31.845,0,0,0,16.993-4.864.937.937,0,1,0-1-1.584Z" transform="translate(0 25.569)" fill="#e60012"/>
      <path id="Path_17010" data-name="Path 17010" d="M2370.806,1854.918l-3.5.094a32.175,32.175,0,0,0-7.2-48.48.936.936,0,1,0-.984,1.592,30.321,30.321,0,0,1,7.045,45.355l.093-3.439a.936.936,0,1,0-1.872-.049l-.162,5.99,0,.018,0,.03a.925.925,0,0,0,.93.915h.025l5.665-.153a.935.935,0,0,0,.911-.962A.919.919,0,0,0,2370.806,1854.918Z" transform="translate(29.359 4.997)" fill="#e60012"/>
    </g>
  </g>
</svg>
