<svg xmlns="http://www.w3.org/2000/svg" xmlns:xlink="http://www.w3.org/1999/xlink" width="70" height="82.609" viewBox="0 0 70 82.609">
  <defs>
    <clipPath id="clip-path">
      <rect id="Rectangle_14009" data-name="Rectangle 14009" width="70" height="82.609" fill="#fff" stroke="#fff" stroke-width="0.6"/>
    </clipPath>
  </defs>
  <g id="Group_22164" data-name="Group 22164" transform="translate(0 0)">
    <g id="Group_22163" data-name="Group 22163" transform="translate(0 0)" clip-path="url(#clip-path)">
      <path id="Path_36642" data-name="Path 36642" d="M43.117,79.3l-6.4,7.242-3.067-3.33a1.518,1.518,0,0,0-2.131-.1l-.611.55a1.518,1.518,0,0,0-.048,2.213l4.751,4.654a1.514,1.514,0,0,0,2.16-.036c1.948-2.049,6.09-6.4,8.16-8.564a1.514,1.514,0,0,0-.02-2.112l-.572-.579a1.518,1.518,0,0,0-2.217.061" transform="translate(-3.322 -8.609)" fill="#fff" stroke="#fff" stroke-width="0.6"/>
      <path id="Path_36643" data-name="Path 36643" d="M62.473,27.8c-1.952,2.183-5.3,6.028-5.3,6.028L54.7,31.149a1.518,1.518,0,0,0-2.131-.1l-.183.164a1.518,1.518,0,0,0-.048,2.213l3.726,3.65a1.514,1.514,0,0,0,2.159-.035c1.671-1.757,4.909-5.16,6.663-6.994a1.508,1.508,0,0,0-.017-2.108l-.184-.187a1.518,1.518,0,0,0-2.212.049" transform="translate(-5.67 -2.983)" fill="#fff" stroke="#fff" stroke-width="0.6"/>
      <path id="Path_36644" data-name="Path 36644" d="M64.91,75.984h0a1.518,1.518,0,0,1-1.519-1.518V63.044H7.609V74.466a1.518,1.518,0,0,1-3.036,0V61.526A1.518,1.518,0,0,1,6.09,60.008H64.91a1.518,1.518,0,0,1,1.517,1.518v12.94a1.518,1.518,0,0,1-1.517,1.518" transform="translate(-0.5 -6.557)" fill="#fff" stroke="#fff" stroke-width="0.6"/>
      <path id="Path_36645" data-name="Path 36645" d="M39.108,76.17h0a1.518,1.518,0,0,1-1.518-1.518V61.712h3.036v12.94a1.518,1.518,0,0,1-1.518,1.518" transform="translate(-4.108 -6.744)" fill="#fff" stroke="#fff" stroke-width="0.6"/>
      <path id="Path_36646" data-name="Path 36646" d="M76.772,80.671l-.036-.036a1.517,1.517,0,0,0-2.147,0L71.625,83.6l-2.963-2.963a1.517,1.517,0,0,0-2.147,0l-.036.036a1.517,1.517,0,0,0,0,2.147l2.963,2.963-2.963,2.964a1.517,1.517,0,0,0,0,2.147l.036.036a1.519,1.519,0,0,0,2.147,0l2.963-2.963,2.964,2.963a1.519,1.519,0,0,0,2.147,0l.036-.036a1.517,1.517,0,0,0,0-2.147l-2.963-2.964,2.963-2.963a1.517,1.517,0,0,0,0-2.147" transform="translate(-7.216 -8.763)" fill="#fff" stroke="#fff" stroke-width="0.6"/>
      <path id="Path_36647" data-name="Path 36647" d="M10.737,80.671l-.036-.036a1.517,1.517,0,0,0-2.147,0L5.59,83.6,2.627,80.635a1.517,1.517,0,0,0-2.147,0l-.036.036a1.517,1.517,0,0,0,0,2.147l2.963,2.963L.444,88.745a1.517,1.517,0,0,0,0,2.147l.036.036a1.519,1.519,0,0,0,2.147,0L5.59,87.964l2.964,2.963a1.519,1.519,0,0,0,2.147,0l.036-.036a1.517,1.517,0,0,0,0-2.147L7.773,85.781l2.963-2.963a1.517,1.517,0,0,0,0-2.147" transform="translate(0 -8.763)" fill="#fff" stroke="#fff" stroke-width="0.6"/>
      <path id="Path_36648" data-name="Path 36648" d="M28.128,29.977H40.473a15.182,15.182,0,0,1,.371-1.933H28.128a.966.966,0,1,0,0,1.933" transform="translate(-2.968 -3.064)" fill="#fff" stroke="#fff" stroke-width="0.6"/>
      <path id="Path_36649" data-name="Path 36649" d="M28.128,36.587H40.875a15.057,15.057,0,0,1-.387-1.933H28.128a.966.966,0,1,0,0,1.933" transform="translate(-2.968 -3.787)" fill="#fff" stroke="#fff" stroke-width="0.6"/>
      <path id="Path_36650" data-name="Path 36650" d="M28.128,23.367H42.513a15.227,15.227,0,0,1,1.376-1.933H28.128a.966.966,0,1,0,0,1.933" transform="translate(-2.968 -2.342)" fill="#fff" stroke="#fff" stroke-width="0.6"/>
      <path id="Path_36651" data-name="Path 36651" d="M28.128,43.2H43.982a15.164,15.164,0,0,1-1.406-1.933H28.128a.966.966,0,1,0,0,1.933" transform="translate(-2.968 -4.509)" fill="#fff" stroke="#fff" stroke-width="0.6"/>
      <path id="Path_36652" data-name="Path 36652" d="M54.51,44.046c-.493,0-.98-.026-1.462-.072v2.737H20.792V3.222H43.055v8.824a1.518,1.518,0,0,0,1.518,1.518h8.475V13.7c.482-.045.968-.071,1.462-.071a15.308,15.308,0,0,1,1.76.105V11.945L44.7,0H19.089A1.518,1.518,0,0,0,17.57,1.519V48.441a1.518,1.518,0,0,0,1.519,1.518H54.752a1.518,1.518,0,0,0,1.518-1.518v-4.5a15.308,15.308,0,0,1-1.76.105M44.988,4.925l6.493,6.706H44.988Z" transform="translate(-1.92 0)" fill="#fff" stroke="#fff" stroke-width="0.6"/>
      <path id="Path_36653" data-name="Path 36653" d="M57.431,43.888A13.124,13.124,0,1,1,70.555,30.764,13.139,13.139,0,0,1,57.431,43.888m0-23.119a9.995,9.995,0,1,0,9.995,9.995,10.006,10.006,0,0,0-9.995-9.995" transform="translate(-4.842 -1.927)" fill="#fff" stroke="#fff" stroke-width="0.6"/>
    </g>
  </g>
</svg>
