<svg xmlns="http://www.w3.org/2000/svg" width="80" height="80" viewBox="0 0 80 80">
  <g id="Group_16503" data-name="Group 16503" transform="translate(-520 -1395)">
    <circle id="Ellipse_698" data-name="Ellipse 698" cx="40" cy="40" r="40" transform="translate(520 1395)" fill="#2d3d45"/>
    <path id="Path_16567" data-name="Path 16567" d="M6.588-14.688H1.458v1.62h5.13Zm.522,2.412H.594v1.692H7.11Zm-.468,2.5H1.4v1.638H6.642ZM1.4-5.706H6.642v-1.6H1.4ZM4.878-1.062H3.114v-2.07H4.878ZM9.756-10.08h1.512v1.152H9.756Zm0-2.808h1.512v1.17H9.756Zm4.95,1.17H13.122v-1.17h1.584Zm0,2.79H13.122V-10.08h1.584ZM17.082-4.3v-1.89H13.248V-7.236h3.438v-7.326H7.848v7.326H11.16v1.044H7.326V-4.3h2.952A10.423,10.423,0,0,1,6.66-.828v-4H1.35V1.314H3.114v-.7H6.66v-1.3A9.157,9.157,0,0,1,8.01.882a11.37,11.37,0,0,0,3.15-3.258V1.548h2.088v-4.1A14.037,14.037,0,0,0,16.2.81,7.741,7.741,0,0,1,17.64-.81,12.28,12.28,0,0,1,14.112-4.3Zm15.48-5.454H29.286v-.828h3.276Zm0,2.214H29.286V-8.37h3.276Zm0,2.232H29.286v-.864h3.276Zm-5.184-6.714v8.172h7.164v-8.172h-3.06L31.914-13h3.15V-14.49H26.82V-13h3.168c-.108.324-.2.666-.306.972ZM31.356-3.06A14.447,14.447,0,0,1,33.93-.666l1.53-.9a13.419,13.419,0,0,0-2.628-2.268Zm-2.52-.666a8.218,8.218,0,0,1-2.772,1.944A12.892,12.892,0,0,1,27.432-.54a10.547,10.547,0,0,0,3.15-2.628Zm-4.716-8.55H21.546v-.846H24.12Zm0,2.232H21.546v-.882H24.12Zm1.98-4.5H19.638V-8.6H26.1ZM23.958-3.006H26.55V-4.554H23.958V-6.03h2.934V-7.578H18.828V-6.03h3.33v4.1a4.846,4.846,0,0,1-.918-1.422c.054-.648.09-1.3.108-1.962h-1.71C19.584-3.15,19.4-1.026,18.4.216a6,6,0,0,1,1.242,1.458A6.664,6.664,0,0,0,20.9-1.1c1.44,1.962,3.672,2.3,7.056,2.3h6.93a5.805,5.805,0,0,1,.684-1.764c-1.476.072-6.39.072-7.614.072a14.328,14.328,0,0,1-4-.4Z" transform="translate(542 1443)" fill="#fff" stroke="rgba(0,0,0,0)" stroke-width="1"/>
  </g>
</svg>
