<svg xmlns="http://www.w3.org/2000/svg" xmlns:xlink="http://www.w3.org/1999/xlink" width="36.078" height="30" viewBox="0 0 36.078 30">
  <defs>
    <clipPath id="clip-path">
      <rect id="Rectangle_6665" data-name="Rectangle 6665" width="36.078" height="30" fill="#fff"/>
    </clipPath>
  </defs>
  <g id="Group_14791" data-name="Group 14791" transform="translate(0 0)">
    <g id="Group_14790" data-name="Group 14790" transform="translate(0 0.001)" clip-path="url(#clip-path)">
      <path id="Path_15143" data-name="Path 15143" d="M33.821,0H20.93a3.71,3.71,0,0,0-2.892,1.4A3.7,3.7,0,0,0,15.148,0H2.257A2.116,2.116,0,0,0,0,1.935V25.169a2.116,2.116,0,0,0,2.257,1.937l12.891.005a2.044,2.044,0,0,1,2.042,2.044.847.847,0,0,0,.847.845h.005a.847.847,0,0,0,.847-.845,2.073,2.073,0,0,1,2.131-2.049h12.8a2.116,2.116,0,0,0,2.257-1.937V1.935A2.116,2.116,0,0,0,33.821,0M15.148,25.414H2.257a.624.624,0,0,1-.565-.245V1.939a.62.62,0,0,1,.565-.247H15.148A2.044,2.044,0,0,1,17.19,3.735V26.06a3.914,3.914,0,0,0-2.042-.646m19.238-.247a.62.62,0,0,1-.565.247l-12.994.007a3.688,3.688,0,0,0-1.946.628V3.769c0-.012.007-.023.007-.033A2.044,2.044,0,0,1,20.93,1.692H33.821a.629.629,0,0,1,.565.243ZM15.085,5.632a.847.847,0,0,1-.847.847H4.643a.846.846,0,0,1,0-1.692h9.595a.847.847,0,0,1,.847.845m0,3.692a.847.847,0,0,1-.847.845H4.643a.846.846,0,0,1,0-1.692h9.595a.847.847,0,0,1,.847.847m0,3.69a.847.847,0,0,1-.847.847H4.643a.846.846,0,0,1,0-1.692h9.595a.847.847,0,0,1,.847.845m0,3.69a.847.847,0,0,1-.847.845H4.643a.846.846,0,0,1,0-1.692h9.595a.847.847,0,0,1,.847.847M32.28,5.632a.847.847,0,0,1-.845.847H21.84a.846.846,0,0,1,0-1.692h9.595a.847.847,0,0,1,.845.845m0,3.692a.847.847,0,0,1-.845.845H21.84a.846.846,0,0,1,0-1.692h9.595a.847.847,0,0,1,.845.847m0,3.69a.847.847,0,0,1-.845.847H21.84a.846.846,0,0,1,0-1.692h9.595a.847.847,0,0,1,.845.845m0,3.69a.847.847,0,0,1-.845.845H21.84a.846.846,0,0,1,0-1.692h9.595a.847.847,0,0,1,.845.847m0,3.69a.846.846,0,0,1-.845.845H21.84a.845.845,0,0,1,0-1.69h9.595a.846.846,0,0,1,.845.845m-17.195,0a.846.846,0,0,1-.847.845H4.643a.845.845,0,0,1,0-1.69h9.595a.846.846,0,0,1,.847.845" transform="translate(0 -0.001)" fill="#fff"/>
    </g>
  </g>
</svg>
