<svg xmlns="http://www.w3.org/2000/svg" xmlns:xlink="http://www.w3.org/1999/xlink" width="160" height="160" viewBox="0 0 160 160">
  <defs>
    <clipPath id="clip-path">
      <rect id="Rectangle_11208" data-name="Rectangle 11208" width="74" height="53.756" fill="#1c5472"/>
    </clipPath>
  </defs>
  <g id="Group_16387" data-name="Group 16387" transform="translate(-400 -2813)">
    <g id="Ellipse_684" data-name="Ellipse 684" transform="translate(400 2813)" fill="#fff" stroke="#0181c0" stroke-width="2">
      <circle cx="80" cy="80" r="80" stroke="none"/>
      <circle cx="80" cy="80" r="79" fill="none"/>
    </g>
    <g id="Group_16322" data-name="Group 16322" transform="translate(443 2866)">
      <g id="Group_16287" data-name="Group 16287" clip-path="url(#clip-path)">
        <path id="Path_16436" data-name="Path 16436" d="M72.808,17.015H1.192A1.192,1.192,0,0,1,0,15.823V4.882A1.192,1.192,0,0,1,1.192,3.69H72.808A1.193,1.193,0,0,1,74,4.882V15.823a1.193,1.193,0,0,1-1.195,1.192M2.384,14.634H71.619V6.074H2.384Z" transform="translate(0 7.763)" fill="#0181c0"/>
        <path id="Path_16437" data-name="Path 16437" d="M35.868,12.612H15.448a1.192,1.192,0,0,1,0-2.384H35.868a1.192,1.192,0,0,1,0,2.384" transform="translate(29.999 21.519)" fill="#0181c0"/>
        <path id="Path_16438" data-name="Path 16438" d="M28.949,15.159H18.737a1.192,1.192,0,0,1,0-2.384H28.949a1.192,1.192,0,0,1,0,2.384" transform="translate(36.919 26.877)" fill="#0181c0"/>
        <path id="Path_16439" data-name="Path 16439" d="M8.565,23.3a6.107,6.107,0,1,1,6.105-6.105A6.115,6.115,0,0,1,8.565,23.3m0-9.83A3.723,3.723,0,1,0,12.29,17.19a3.727,3.727,0,0,0-3.725-3.725" transform="translate(5.176 23.315)" fill="#0181c0"/>
        <path id="Path_16435" data-name="Path 16435" d="M69.034,53.758H4.966C2.229,53.758,0,51.117,0,47.874V5.884C0,2.64,2.229,0,4.966,0H69.034C71.771,0,74,2.64,74,5.884v41.99c0,3.244-2.229,5.885-4.966,5.885M4.966,2.383c-1.4,0-2.586,1.6-2.586,3.5v41.99c0,1.9,1.186,3.5,2.586,3.5H69.034c1.4,0,2.582-1.6,2.582-3.5V5.884c0-1.9-1.183-3.5-2.582-3.5Z" transform="translate(0 -0.002)" fill="#1c5472"/>
      </g>
    </g>
  </g>
</svg>
