<svg xmlns="http://www.w3.org/2000/svg" xmlns:xlink="http://www.w3.org/1999/xlink" width="40.341" height="28" viewBox="0 0 40.341 28">
  <defs>
    <clipPath id="clip-path">
      <rect id="Rectangle_6689" data-name="Rectangle 6689" width="40.341" height="28" fill="#fff"/>
    </clipPath>
  </defs>
  <g id="Group_14826" data-name="Group 14826" transform="translate(0 0)">
    <g id="Group_14821" data-name="Group 14821" transform="translate(0 0)" clip-path="url(#clip-path)">
      <path id="Path_15144" data-name="Path 15144" d="M9.156,20.708h22.8a2.577,2.577,0,0,0,2.574-2.573V5.827a2.577,2.577,0,0,0-2.574-2.574H9.156A2.578,2.578,0,0,0,6.58,5.827V18.135a2.577,2.577,0,0,0,2.576,2.573M8.318,5.827a.838.838,0,0,1,.839-.837h22.8a.837.837,0,0,1,.837.837V18.135a.837.837,0,0,1-.837.837H9.156a.838.838,0,0,1-.839-.837ZM40.17,22.6a.869.869,0,0,0-.7-.351H37.807a2.6,2.6,0,0,0,.178-.93V2.648A2.649,2.649,0,0,0,35.338,0H5.77A2.649,2.649,0,0,0,3.124,2.648V21.315a2.629,2.629,0,0,0,.176.93H.868a.868.868,0,0,0-.831,1.118L1.25,27.384A.864.864,0,0,0,2.081,28h36.18a.863.863,0,0,0,.83-.617L40.3,23.364a.868.868,0,0,0-.133-.768M4.86,2.648a.912.912,0,0,1,.91-.912H35.338a.912.912,0,0,1,.91.912V21.315a.911.911,0,0,1-.91.91H28.583a.862.862,0,0,0-.326.064l-1.313.558-13.2.022-1.423-.58A.871.871,0,0,0,12,22.225H5.77a.911.911,0,0,1-.91-.91ZM37.617,26.264H2.724L2.036,23.98h9.838l1.322.54a.874.874,0,0,0,.327.063H27.056a.844.844,0,0,0,.326-.063l1.268-.54H38.3Z" transform="translate(0 -0.001)" fill="#fff"/>
    </g>
  </g>
</svg>
