<svg xmlns="http://www.w3.org/2000/svg" xmlns:xlink="http://www.w3.org/1999/xlink" width="30.113" height="21" viewBox="0 0 30.113 21">
  <defs>
    <clipPath id="clip-path">
      <rect id="Rectangle_6655" data-name="Rectangle 6655" width="30.113" height="21" fill="#fff"/>
    </clipPath>
  </defs>
  <g id="Group_14763" data-name="Group 14763" transform="translate(0 0)">
    <g id="Group_14762" data-name="Group 14762" transform="translate(0 0)" clip-path="url(#clip-path)">
      <path id="Path_15135" data-name="Path 15135" d="M30.087.72A.872.872,0,0,0,30.05.534.805.805,0,0,0,29.961.4a.758.758,0,0,0-.083-.13L29.868.258a.845.845,0,0,0-.215-.149.706.706,0,0,0-.06-.04A.869.869,0,0,0,29.3.009.309.309,0,0,0,29.259,0H.855A.845.845,0,0,0,.521.069C.508.075.5.085.487.091A.873.873,0,0,0,.246.259L.237.265A.719.719,0,0,0,.156.392.806.806,0,0,0,.065.534.778.778,0,0,0,.029.719.7.7,0,0,0,0,.855v19.29a.891.891,0,0,0,.025.127.818.818,0,0,0,.04.189.733.733,0,0,0,.1.164.769.769,0,0,0,.069.11l.009.006A.818.818,0,0,0,.47,20.9c.019.01.032.026.051.035A.845.845,0,0,0,.855,21h28.4a.845.845,0,0,0,.334-.069.6.6,0,0,0,.083-.057.8.8,0,0,0,.192-.133l.01-.006a.8.8,0,0,0,.072-.116.766.766,0,0,0,.1-.157.782.782,0,0,0,.038-.192.712.712,0,0,0,.026-.126V.855A.814.814,0,0,0,30.087.72m-2.959.99L15.058,13.24,2.988,1.71ZM1.71,2.854l8,7.646-8,7.646ZM2.988,19.29l7.964-7.608,3.514,3.357a.854.854,0,0,0,1.182,0l3.514-3.357,7.964,7.608ZM28.4,18.146l-8-7.646,8-7.646Z" transform="translate(0 0)" fill="#fff"/>
    </g>
  </g>
</svg>
