<svg xmlns="http://www.w3.org/2000/svg" width="71" height="54.753" viewBox="0 0 71 54.753">
  <g id="Group_16782" data-name="Group 16782" transform="translate(-2778.798 -183.422)">
    <path id="Union_13" data-name="Union 13" d="M34.062,53.753a.518.518,0,0,1-.513-.5,1.671,1.671,0,0,1-1.194.5H15.93a1.3,1.3,0,0,1-1.3-1.3V38.468a1.3,1.3,0,0,1,1.3-1.3h2.047V32.249a1.68,1.68,0,0,1,1.677-1.677h5.495V26.094a1.681,1.681,0,0,1,1.677-1.68H53.816a1.682,1.682,0,0,1,1.676,1.68V43.635a1.678,1.678,0,0,1-1.676,1.677H42.652v3.22h.582l3.517.667a.525.525,0,0,1,.425.517v3.511a.526.526,0,0,1-.525.525Zm.528-3.607V52.7H46.127v-2.55l-2.887-.559-1.119-.011a.523.523,0,0,1-.524-.525V45.313H39.043v3.745a.525.525,0,0,1-.525.525H37.413ZM19.032,37.166h2.175a1.3,1.3,0,0,1,1.3,1.3v13.98a1.092,1.092,0,0,1-.05.254H32.939l.044-21.034-13.907-.05ZM15.682,52.7h5.781V38.216H18.5l-.006,0,0,0H15.682Zm18.353-3.517,3.223-.645h.583l.149-.591V45.313H34.035Zm0-4.923H54.39l.044-3.073h-20.4ZM26.2,30.571h6.151a1.68,1.68,0,0,1,1.679,1.677V40.14H54.443V25.512l-28.194-.044ZM60.547,42.522A.523.523,0,0,1,61.072,42a7.851,7.851,0,0,0,.91-15.652.523.523,0,0,1-.459-.6,13.194,13.194,0,0,0,.153-1.876A12.875,12.875,0,0,0,48.813,11.006a13.2,13.2,0,0,0-2.593.263h-.039a.542.542,0,0,1-.551-.309,16.265,16.265,0,0,0-29.847-.221.531.531,0,0,1-.445.31A11.968,11.968,0,0,0,4.779,26.965a.531.531,0,0,1-.205.614A7.862,7.862,0,0,0,8.923,42a.526.526,0,0,1,0,1.052A8.916,8.916,0,0,1,3.348,27.171l.3-.242-.1-.373a13.031,13.031,0,0,1,11.086-16.5l.32-.036.139-.289A17.427,17.427,0,0,1,30.65,0a17.2,17.2,0,0,1,15.6,9.771l.19.383.417-.06a14.294,14.294,0,0,1,1.96-.137A13.928,13.928,0,0,1,62.728,23.869c0,.322-.014.651-.042.995l-.044.5.491.118a8.9,8.9,0,0,1-2.06,17.567A.525.525,0,0,1,60.547,42.522ZM25.194,36.062a.525.525,0,0,1,0-1.05h1.622a.525.525,0,1,1,0,1.05Zm14.319-6.524a.526.526,0,1,1,0-1.053h1.619a.526.526,0,0,1,0,1.053Z" transform="translate(2779.298 183.922)" fill="#fff" stroke="rgba(0,0,0,0)" stroke-miterlimit="10" stroke-width="1"/>
  </g>
</svg>
