<svg xmlns="http://www.w3.org/2000/svg" xmlns:xlink="http://www.w3.org/1999/xlink" width="140" height="140" viewBox="0 0 140 140">
  <defs>
    <clipPath id="clip-path">
      <rect id="Rectangle_11221" data-name="Rectangle 11221" width="54.767" height="60" fill="#1c5472"/>
    </clipPath>
  </defs>
  <g id="Group_16391" data-name="Group 16391" transform="translate(-453 -3737)">
    <g id="Ellipse_681" data-name="Ellipse 681" transform="translate(453 3737)" fill="#fff" stroke="#0181c0" stroke-width="2">
      <circle cx="70" cy="70" r="70" stroke="none"/>
      <circle cx="70" cy="70" r="69" fill="none"/>
    </g>
    <g id="Group_16328" data-name="Group 16328" transform="translate(495.999 3773)">
      <g id="Group_16311" data-name="Group 16311" transform="translate(0 0)" clip-path="url(#clip-path)">
        <path id="Path_16500" data-name="Path 16500" d="M38.195,19.043a.825.825,0,0,0,1.65,0V15.957a.824.824,0,0,0-.824-.826H23.35V13.109a.824.824,0,1,0-1.648,0v2.021H5.3a.826.826,0,0,0-.826.826v3.086a.825.825,0,0,0,1.65,0V16.781H38.195Z" transform="translate(5.225 14.355)" fill="#0181c0"/>
        <path id="Path_16501" data-name="Path 16501" d="M16.77,14.756A7.378,7.378,0,1,0,9.394,7.378a7.386,7.386,0,0,0,7.376,7.378m0-13.106a5.728,5.728,0,1,1-5.728,5.728A5.735,5.735,0,0,1,16.77,1.65" transform="translate(10.979 -0.001)" fill="#1c5472"/>
        <path id="Path_16502" data-name="Path 16502" d="M8.77,16.848a.824.824,0,0,0,.824-.824,8.872,8.872,0,0,1,3.912-7.358A.825.825,0,1,0,12.583,7.3a10.515,10.515,0,0,0-4.639,8.725.826.826,0,0,0,.826.824" transform="translate(9.284 8.364)" fill="#1c5472"/>
        <path id="Path_16503" data-name="Path 16503" d="M15.058,7.52a.824.824,0,0,0,.221,1.145,8.878,8.878,0,0,1,3.912,7.358.825.825,0,0,0,1.65,0A10.521,10.521,0,0,0,16.2,7.3a.824.824,0,0,0-1.145.221" transform="translate(17.432 8.363)" fill="#1c5472"/>
        <path id="Path_16504" data-name="Path 16504" d="M16.2,23.419A7.377,7.377,0,1,0,8.828,30.8,7.384,7.384,0,0,0,16.2,23.419M8.828,29.147a5.728,5.728,0,1,1,5.728-5.728,5.737,5.737,0,0,1-5.728,5.728" transform="translate(1.695 18.747)" fill="#1c5472"/>
        <path id="Path_16505" data-name="Path 16505" d="M4.638,23.34A10.521,10.521,0,0,0,0,32.064a.825.825,0,1,0,1.65,0,8.875,8.875,0,0,1,3.915-7.358.825.825,0,0,0-.926-1.366" transform="translate(-0.001 27.111)" fill="#1c5472"/>
        <path id="Path_16506" data-name="Path 16506" d="M8.259,23.34a.825.825,0,1,0-.924,1.366,8.878,8.878,0,0,1,3.912,7.358.825.825,0,1,0,1.65,0A10.521,10.521,0,0,0,8.259,23.34" transform="translate(8.148 27.111)" fill="#1c5472"/>
        <path id="Path_16507" data-name="Path 16507" d="M31.754,23.419A7.377,7.377,0,1,0,24.378,30.8a7.386,7.386,0,0,0,7.376-7.378m-7.376,5.728a5.728,5.728,0,1,1,5.728-5.728,5.735,5.735,0,0,1-5.728,5.728" transform="translate(19.868 18.747)" fill="#1c5472"/>
        <path id="Path_16508" data-name="Path 16508" d="M20.188,23.34a10.521,10.521,0,0,0-4.639,8.725.825.825,0,1,0,1.65,0,8.875,8.875,0,0,1,3.915-7.358.825.825,0,0,0-.926-1.366" transform="translate(18.173 27.111)" fill="#1c5472"/>
        <path id="Path_16509" data-name="Path 16509" d="M23.809,23.34a.825.825,0,0,0-.926,1.366A8.875,8.875,0,0,1,26.8,32.064a.825.825,0,1,0,1.65,0,10.521,10.521,0,0,0-4.639-8.725" transform="translate(26.321 27.111)" fill="#1c5472"/>
      </g>
    </g>
  </g>
</svg>
