<svg xmlns="http://www.w3.org/2000/svg" xmlns:xlink="http://www.w3.org/1999/xlink" width="202.677" height="121.227" viewBox="0 0 202.677 121.227">
  <defs>
    <linearGradient id="linear-gradient" x1="0.21" y1="1" x2="0.856" y2="1" gradientUnits="objectBoundingBox">
      <stop offset="0" stop-color="#0ec6dd"/>
      <stop offset="1" stop-color="#0e4e80"/>
    </linearGradient>
  </defs>
  <g id="Group_16742" data-name="Group 16742" transform="translate(-206.463 -223.145)">
    <path id="Union_2" data-name="Union 2" d="M-11947.681,4196.092c-7.539-7.812-11.356-18.716-11.356-32.415a93.792,93.792,0,0,1,7.689-38.2c5.117-11.546,12.344-20.838,21.483-27.609a51.681,51.681,0,0,1,31.441-10.223c12.941,0,23.326,3.956,30.866,11.768s11.342,18.731,11.342,32.411a93.658,93.658,0,0,1-7.675,38.2c-5.117,11.561-12.341,20.835-21.48,27.609a51.628,51.628,0,0,1-31.441,10.235C-11929.757,4207.873-11940.141,4203.92-11947.681,4196.092Zm18.636-97.132c-8.947,6.636-16.036,15.748-21.043,27.066a92.263,92.263,0,0,0-7.593,37.651c0,13.326,3.694,23.918,10.987,31.457s17.321,11.369,29.882,11.369a50.335,50.335,0,0,0,30.619-9.961c8.95-6.621,16.021-15.721,21.045-27.063a92.412,92.412,0,0,0,7.579-37.655c0-13.311-3.7-23.9-10.974-31.454s-17.32-11.369-29.881-11.369A50.335,50.335,0,0,0-11929.045,4098.96Zm70.177,106.943,3.652-18.3.207-.162,52.376-41.046c6.252-5.078,10.658-9.388,13.08-12.837a18.2,18.2,0,0,0,3.571-10.6,10.4,10.4,0,0,0-4.105-8.659c-2.752-2.176-6.843-3.3-12.122-3.3a29.4,29.4,0,0,0-13,3.052,33,33,0,0,0-10.946,8.686l-.411.5-.519-.373-18.443-13.365.4-.561a49.077,49.077,0,0,1,19.646-15.571,64.563,64.563,0,0,1,27.216-5.72,53.68,53.68,0,0,1,21.372,3.995,33.413,33.413,0,0,1,14.392,11.222,27.57,27.57,0,0,1,5.145,16.321,37.663,37.663,0,0,1-6.018,20.4c-3.971,6.282-10.934,13.313-20.688,20.865l-28.954,22.414h47.109l-.177.819-4.364,22.222Zm69.643-92.671a11.849,11.849,0,0,1,4.6,9.727,19.58,19.58,0,0,1-3.8,11.4c-2.506,3.545-6.992,7.948-13.355,13.122l-52.184,40.881-3.229,16.174h85.624l4-20.307h-49.45l32.13-24.86c9.631-7.47,16.486-14.364,20.357-20.523a36.244,36.244,0,0,0,5.816-19.662,26.3,26.3,0,0,0-4.886-15.529,32.229,32.229,0,0,0-13.833-10.769,52.356,52.356,0,0,0-20.823-3.884,63.177,63.177,0,0,0-26.64,5.61,47.9,47.9,0,0,0-18.7,14.583l16.816,12.18a34.2,34.2,0,0,1,10.984-8.554,31,31,0,0,1,13.6-3.187C-11796.612,4109.633-11792.236,4110.852-11789.226,4113.232Zm-138.37,66.563c-3.1-3.652-4.679-9.3-4.679-16.774a83.968,83.968,0,0,1,3.641-23.752,56.133,56.133,0,0,1,10.727-20.688c4.763-5.606,10.5-8.44,17.021-8.44,5.651,0,10.111,1.873,13.245,5.568,3.106,3.667,4.679,9.319,4.679,16.774a83.937,83.937,0,0,1-3.641,23.752,55.815,55.815,0,0,1-10.727,20.688c-4.775,5.625-10.493,8.455-17.021,8.455C-11920.015,4185.377-11924.462,4183.5-11927.6,4179.795Zm10.729-60.323a54.756,54.756,0,0,0-10.453,20.181,82.655,82.655,0,0,0-3.587,23.368c0,7.143,1.465,12.495,4.353,15.9s6.9,5.09,12.2,5.09c6.1,0,11.479-2.683,15.981-7.965l.52.438-.52-.438a55.123,55.123,0,0,0,10.454-20.193,82.837,82.837,0,0,0,3.584-23.371c0-7.128-1.465-12.477-4.35-15.886-2.86-3.376-6.966-5.1-12.206-5.1C-11907,4111.494-11912.364,4114.177-11916.866,4119.472Z" transform="translate(12166 -3864)" stroke="rgba(0,0,0,0)" stroke-miterlimit="10" stroke-width="1" fill="url(#linear-gradient)"/>
  </g>
</svg>
