<svg xmlns="http://www.w3.org/2000/svg" xmlns:xlink="http://www.w3.org/1999/xlink" width="140" height="140" viewBox="0 0 140 140">
  <defs>
    <clipPath id="clip-path">
      <rect id="Rectangle_11220" data-name="Rectangle 11220" width="54" height="45.469" fill="#0181c0"/>
    </clipPath>
  </defs>
  <g id="Group_16390" data-name="Group 16390" transform="translate(-1327 -3181)">
    <g id="Ellipse_680" data-name="Ellipse 680" transform="translate(1327 3181)" fill="#fff" stroke="#0181c0" stroke-width="2">
      <circle cx="70" cy="70" r="70" stroke="none"/>
      <circle cx="70" cy="70" r="69" fill="none"/>
    </g>
    <g id="Group_16327" data-name="Group 16327" transform="translate(1370 3228)">
      <g id="Group_16309" data-name="Group 16309" transform="translate(0 0)" clip-path="url(#clip-path)">
        <path id="Path_16497" data-name="Path 16497" d="M53.133,3.218H49.249V.867a.867.867,0,1,0-1.734,0V3.218H44.5V.867a.867.867,0,1,0-1.734,0V3.218H39.744V.867a.866.866,0,1,0-1.732,0V3.218H35V.867a.867.867,0,1,0-1.734,0V3.218H30.242V.867a.867.867,0,0,0-1.734,0V3.218H25.493V.867a.868.868,0,0,0-1.737,0V3.218H20.739V.867A.867.867,0,0,0,19,.867V3.218H15.99V.867a.867.867,0,1,0-1.734,0V3.218H11.237V.867A.867.867,0,1,0,9.5.867V3.218H6.486V.867a.867.867,0,1,0-1.734,0V3.218H.867A.866.866,0,0,0,0,4.085V44.6a.867.867,0,0,0,.867.867H53.133A.867.867,0,0,0,54,44.6V4.085a.866.866,0,0,0-.867-.867m-.867,40.516H1.734V4.952H4.751V7.14a.867.867,0,1,0,1.734,0V4.952H9.5V7.14a.867.867,0,1,0,1.734,0V4.952h3.019V7.14a.867.867,0,1,0,1.734,0V4.952H19V7.14a.867.867,0,1,0,1.734,0V4.952h3.017V7.14a.868.868,0,1,0,1.737,0V4.952h3.015V7.14a.867.867,0,1,0,1.734,0V4.952h3.019V7.14A.867.867,0,1,0,35,7.14V4.952h3.017V7.14a.866.866,0,1,0,1.732,0V4.952h3.019V7.14a.867.867,0,1,0,1.734,0V4.952h3.017V7.14a.867.867,0,1,0,1.734,0V4.952h3.017Z" transform="translate(0 0)" fill="#1c5472"/>
        <path id="Path_16498" data-name="Path 16498" d="M12.777,7.407a.861.861,0,0,0-.944.187L6.917,12.511A.866.866,0,0,0,8.14,13.737L11.577,10.3V25.475a.866.866,0,1,0,1.732,0V8.207a.861.861,0,0,0-.533-.8" transform="translate(8.383 9.236)" fill="#0181c0"/>
        <path id="Path_16499" data-name="Path 16499" d="M18.005,20.548A6.6,6.6,0,1,0,11.4,13.943a.867.867,0,0,0,1.734,0,4.87,4.87,0,1,1,4.805,4.873c-2.263.174-6.54,1.788-6.54,6.659a.865.865,0,0,0,.867.865H23.741a.866.866,0,1,0,0-1.732H13.2c.567-3.663,4.683-4.049,4.808-4.06" transform="translate(14.343 9.235)" fill="#0181c0"/>
      </g>
    </g>
  </g>
</svg>
