<svg xmlns="http://www.w3.org/2000/svg" width="36.313" height="32.793" viewBox="0 0 36.313 32.793">
  <g id="icon68" transform="translate(0 -24.81)">
    <path id="パス_36807" data-name="パス 36807" d="M280.235,30.869V28.286l0-.8h0v-.012c-2.074.654-3.261-1.068-6-.438,0,1.707,0,2.557,0,4.268C276.974,30.265,278.161,31.826,280.235,30.869Z" transform="translate(-254.782 -1.94)" fill="#0181c0"/>
    <path id="パス_36808" data-name="パス 36808" d="M32.693,54.1V33.575a.28.28,0,0,0-.28-.28H27.368V30.54h-8.8V24.81H17.74v5.73h-8.8v2.755H3.9a.28.28,0,0,0-.28.28V54.1H0v3.5H4.511l11.123-1.719h5.046L31.8,57.6h4.511V54.1ZM14.15,37.128h2.2V40h-2.2Zm-3.617,13.9h-2.2V48.151h2.2Zm0-5.512h-2.2V42.639h2.2Zm0-5.512h-2.2V37.128h2.2Zm3.617,2.639h2.2v2.873h-2.2Zm7.388,10.6H14.774V48.151h6.764Zm.624-7.732h-2.2V42.639h2.2Zm0-5.512h-2.2V37.128h2.2Zm5.815,11.024h-2.2V48.151h2.2Zm0-5.512h-2.2V42.639h2.2Zm0-5.512h-2.2V37.128h2.2Z" fill="#0181c0"/>
  </g>
</svg>
