<svg id="Group_22143" data-name="Group 22143" xmlns="http://www.w3.org/2000/svg" xmlns:xlink="http://www.w3.org/1999/xlink" width="80" height="83.063" viewBox="0 0 80 83.063">
  <defs>
    <clipPath id="clip-path">
      <rect id="Rectangle_13982" data-name="Rectangle 13982" width="80" height="83.062" fill="#0181c0"/>
    </clipPath>
  </defs>
  <g id="Group_22145" data-name="Group 22145" clip-path="url(#clip-path)">
    <path id="Path_36601" data-name="Path 36601" d="M83.1,27.076H76.941A29.594,29.594,0,0,0,75.3,23.2l4.244-4.244a2.027,2.027,0,0,0,0-2.867L68.914,5.456a2.027,2.027,0,0,0-2.849-.017L61.687,9.71a30.16,30.16,0,0,0-3.87-1.647V2.027A2.027,2.027,0,0,0,55.79,0H41.1a2.027,2.027,0,0,0-2.027,2.027V8.309a30.278,30.278,0,0,0-3.8,1.629L30.838,5.51a2.028,2.028,0,0,0-2.867,0L17.342,16.138a2.028,2.028,0,0,0,0,2.867l4.453,4.453a30.048,30.048,0,0,0-1.625,3.778H14.019a2.027,2.027,0,0,0-2.027,2.027V42.29c.093-.006.185-.022.279-.022a4.522,4.522,0,0,1,1.114.139V39.431a4.782,4.782,0,0,1,2.661-4.278V31.29h5.6a2.027,2.027,0,0,0,1.945-1.454,25.974,25.974,0,0,1,2.464-5.718,2.027,2.027,0,0,0-.318-2.453l-4.095-4.094L29.4,9.81l4.066,4.067a2.029,2.029,0,0,0,2.45.32,26.21,26.21,0,0,1,5.746-2.466,2.027,2.027,0,0,0,1.456-1.945V4.054h10.64V9.547a2.027,2.027,0,0,0,1.464,1.948A26.041,26.041,0,0,1,61.02,13.96a2.03,2.03,0,0,0,2.43-.3l4.013-3.916,7.78,7.779L71.362,21.4a2.026,2.026,0,0,0-.322,2.448A25.625,25.625,0,0,1,73.5,29.658a2.027,2.027,0,0,0,1.95,1.473h5.625V41.957l-5.148-.132h-.053A2.028,2.028,0,0,0,73.927,43.3a25.614,25.614,0,0,1-2.462,5.811,2.028,2.028,0,0,0,.322,2.449l3.881,3.881-7.78,7.779L63.874,59.3a2.029,2.029,0,0,0-2.429-.3,26.064,26.064,0,0,1-5.793,2.465,2.027,2.027,0,0,0-1.465,1.947v5.679H44.1A21.192,21.192,0,0,1,42.9,73.14H56.215a2.027,2.027,0,0,0,2.027-2.027V64.89a30.2,30.2,0,0,0,3.871-1.646l4.378,4.271a2.027,2.027,0,0,0,2.849-.017L79.968,56.869a2.029,2.029,0,0,0,0-2.867l-4.244-4.244a29.74,29.74,0,0,0,1.629-3.842l5.7.146a2.026,2.026,0,0,0,2.079-2.026V29.1A2.027,2.027,0,0,0,83.1,27.076" transform="translate(-5.131)" fill="#0181c0"/>
    <path id="Path_36602" data-name="Path 36602" d="M64.839,38.039A14.806,14.806,0,0,0,51.179,58.56a4.524,4.524,0,0,1,1.33.642l2.965,2.1a4.555,4.555,0,0,1,1.881,4.315,14.805,14.805,0,1,0,7.484-27.577m0,25.562A10.754,10.754,0,1,1,75.593,52.847,10.766,10.766,0,0,1,64.839,63.6" transform="translate(-21.408 -16.277)" fill="#0181c0"/>
    <path id="Path_36603" data-name="Path 36603" d="M30.381,80.644l1.965-2.776a1.116,1.116,0,0,0-.266-1.558l-2.964-2.1a1.118,1.118,0,0,0-1.558.267l-2.014,2.845a17.784,17.784,0,0,0-4.758-1.462V74.7a1.351,1.351,0,0,1,1.347-1.347h.744a1.351,1.351,0,0,0,1.347-1.346v-4.1a1.351,1.351,0,0,0-1.347-1.347H13.033a1.35,1.35,0,0,0-1.347,1.347v4.1a1.35,1.35,0,0,0,1.347,1.346h.743A1.35,1.35,0,0,1,15.123,74.7v1.157a17.8,17.8,0,0,0-5.075,1.614l-2-2.818a1.117,1.117,0,0,0-1.558-.266L3.53,76.49a1.117,1.117,0,0,0-.266,1.558l2.013,2.842a17.955,17.955,0,1,0,25.1-.247M17.955,107.238A13.646,13.646,0,1,1,31.6,93.593a13.662,13.662,0,0,1-13.646,13.646" transform="translate(0 -28.485)" fill="#0181c0"/>
    <path id="Path_36604" data-name="Path 36604" d="M30.448,127.663a1.252,1.252,0,0,0-1.252,1.252v1.28a1.252,1.252,0,0,0,2.5,0v-1.28a1.251,1.251,0,0,0-1.252-1.252" transform="translate(-12.493 -54.627)" fill="#0181c0"/>
    <path id="Path_36605" data-name="Path 36605" d="M30.448,93.334A1.252,1.252,0,0,0,29.2,94.585v1.558a1.252,1.252,0,1,0,2.5,0V94.585a1.251,1.251,0,0,0-1.252-1.251" transform="translate(-12.493 -39.938)" fill="#0181c0"/>
    <path id="Path_36606" data-name="Path 36606" d="M13.445,111.616h-1.28a1.252,1.252,0,0,0,0,2.5h1.28a1.252,1.252,0,0,0,0-2.5" transform="translate(-4.67 -47.761)" fill="#0181c0"/>
    <path id="Path_36607" data-name="Path 36607" d="M47.567,111.616H46.009a1.252,1.252,0,0,0,0,2.5h1.558a1.252,1.252,0,0,0,0-2.5" transform="translate(-19.152 -47.761)" fill="#0181c0"/>
  </g>
</svg>
