<svg xmlns="http://www.w3.org/2000/svg" xmlns:xlink="http://www.w3.org/1999/xlink" width="30" height="26.956" viewBox="0 0 30 26.956">
  <defs>
    <clipPath id="clip-path">
      <rect id="Rectangle_6665" data-name="Rectangle 6665" width="30" height="26.956" fill="#21587e" stroke="rgba(0,0,0,0)" stroke-miterlimit="10" stroke-width="1"/>
    </clipPath>
  </defs>
  <g id="Group_14790" data-name="Group 14790" clip-path="url(#clip-path)">
    <path id="Path_15143" data-name="Path 15143" d="M28.123,0H17.4A3.008,3.008,0,0,0,15,1.259,3,3,0,0,0,12.6,0H1.877A1.813,1.813,0,0,0,0,1.739V22.616a1.813,1.813,0,0,0,1.877,1.74l10.719,0a1.773,1.773,0,0,1,1.7,1.836.734.734,0,0,0,.7.759h0a.734.734,0,0,0,.7-.759,1.792,1.792,0,0,1,1.772-1.841H28.123A1.813,1.813,0,0,0,30,22.616V1.739A1.813,1.813,0,0,0,28.123,0M12.6,22.836H1.877a.508.508,0,0,1-.47-.22V1.742a.5.5,0,0,1,.47-.222H12.6a1.773,1.773,0,0,1,1.7,1.836v20.06a3.089,3.089,0,0,0-1.7-.58m16-.222a.5.5,0,0,1-.47.222l-10.805.006a2.913,2.913,0,0,0-1.618.564V3.386c0-.011.006-.02.006-.03A1.773,1.773,0,0,1,17.4,1.52H28.123a.512.512,0,0,1,.47.219ZM12.544,5.06a.735.735,0,0,1-.7.761H3.861a.735.735,0,0,1-.7-.761.734.734,0,0,1,.7-.759h7.978a.734.734,0,0,1,.7.759m0,3.317a.734.734,0,0,1-.7.759H3.861a.762.762,0,0,1,0-1.52h7.978a.735.735,0,0,1,.7.761m0,3.315a.735.735,0,0,1-.7.761H3.861a.762.762,0,0,1,0-1.52h7.978a.734.734,0,0,1,.7.759m0,3.315a.734.734,0,0,1-.7.759H3.861a.762.762,0,0,1,0-1.52h7.978a.735.735,0,0,1,.7.761m14.3-9.948a.735.735,0,0,1-.7.761H18.161a.735.735,0,0,1-.7-.761.734.734,0,0,1,.7-.759h7.978a.734.734,0,0,1,.7.759m0,3.317a.734.734,0,0,1-.7.759H18.161a.762.762,0,0,1,0-1.52h7.978a.735.735,0,0,1,.7.761m0,3.315a.735.735,0,0,1-.7.761H18.161a.762.762,0,0,1,0-1.52h7.978a.734.734,0,0,1,.7.759m0,3.315a.734.734,0,0,1-.7.759H18.161a.762.762,0,0,1,0-1.52h7.978a.735.735,0,0,1,.7.761m0,3.315a.733.733,0,0,1-.7.759H18.161a.762.762,0,0,1,0-1.519h7.978a.733.733,0,0,1,.7.759m-14.3,0a.733.733,0,0,1-.7.759H3.861a.762.762,0,0,1,0-1.519h7.978a.733.733,0,0,1,.7.759" transform="translate(0 -0.001)" fill="#21587e" stroke="rgba(0,0,0,0)" stroke-miterlimit="10" stroke-width="1"/>
  </g>
</svg>
