<svg xmlns="http://www.w3.org/2000/svg" width="60" height="60" viewBox="0 0 60 60">
  <g id="Group_16824" data-name="Group 16824" transform="translate(-1078.092 700)">
    <g id="楕円形_737" data-name="楕円形 737" transform="translate(1078.092 -700)" opacity="0.07">
      <circle id="Ellipse_774" data-name="Ellipse 774" cx="30" cy="30" r="30" fill="#0181c0"/>
      <circle id="Ellipse_775" data-name="Ellipse 775" cx="29.571" cy="29.571" r="29.571" transform="translate(0.429 0.429)" fill="#0181c0"/>
    </g>
    <g id="Group_16789" data-name="Group 16789" transform="translate(149 108)">
      <path id="Path_16837" data-name="Path 16837" d="M412.267,681.88H392.353a.373.373,0,0,1-.373-.374V667.815a.373.373,0,0,1,.746,0v13.318h19.168V670.3a.373.373,0,1,1,.746,0v11.2A.373.373,0,0,1,412.267,681.88Z" transform="translate(557.105 -1447.844)" fill="#0181c0"/>
      <path id="Path_16838" data-name="Path 16838" d="M407.742,663.21v-.746a1.624,1.624,0,0,0,1.385-.724,3.01,3.01,0,0,0,.5-1.716c0-1.163-.588-2.414-1.881-2.414-4.987,0-5.059,5.014-5.059,5.228h-.746c0-.06.066-5.974,5.8-5.974,1.806,0,2.628,1.638,2.628,3.161C410.37,661.607,409.468,663.21,407.742,663.21Z" transform="translate(557.105 -1447.844)" fill="#0181c0"/>
      <path id="Path_16839" data-name="Path 16839" d="M396.877,663.21c-1.837,0-2.675-1.629-2.675-3.143a3.711,3.711,0,0,1,.651-2.164,2.416,2.416,0,0,1,2.024-1.04c5.74,0,5.806,5.914,5.806,5.974h-.746c0-.214-.072-5.228-5.06-5.228-1.325,0-1.928,1.273-1.928,2.457s.6,2.4,1.928,2.4Z" transform="translate(557.105 -1447.844)" fill="#0181c0"/>
      <path id="Path_16840" data-name="Path 16840" d="M414.134,668.189H404.8a.374.374,0,0,1,0-.747h8.961V663.21H404.8a.373.373,0,1,1,0-.746h9.335a.373.373,0,0,1,.373.373v4.978A.373.373,0,0,1,414.134,668.189Z" transform="translate(557.105 -1447.844)" fill="#0181c0"/>
      <path id="Path_16841" data-name="Path 16841" d="M401.932,668.189H390.486a.373.373,0,0,1-.373-.374v-4.978a.373.373,0,0,1,.373-.373h11.446v.746H390.859v4.232h11.073Z" transform="translate(557.105 -1447.844)" fill="#0181c0"/>
      <rect id="Rectangle_11521" data-name="Rectangle 11521" width="0.746" height="18.669" transform="translate(959.041 -785.007)" fill="#0181c0"/>
    </g>
  </g>
</svg>
