<svg xmlns="http://www.w3.org/2000/svg" xmlns:xlink="http://www.w3.org/1999/xlink" width="32.409" height="30" viewBox="0 0 32.409 30">
  <defs>
    <clipPath id="clip-path">
      <rect id="Rectangle_6616" data-name="Rectangle 6616" width="32.409" height="30" fill="#0181c0"/>
    </clipPath>
  </defs>
  <g id="Group_14521" data-name="Group 14521" transform="translate(0 0)">
    <g id="Group_14520" data-name="Group 14520" transform="translate(0 0)" clip-path="url(#clip-path)">
      <path id="Path_40" data-name="Path 40" d="M29.931,13.581A15,15,0,1,0,15,30V26.673A11.673,11.673,0,1,1,26.584,13.581H24.265l4.072,6.52,4.072-6.52Z" transform="translate(0 0)" fill="#0181c0"/>
      <path id="Path_41" data-name="Path 41" d="M27.4,23.135V18.381a.832.832,0,1,0-1.663,0v4.754A1.82,1.82,0,0,0,24.7,25.111L21.376,27.38a.832.832,0,0,0,.938,1.374l3.322-2.268A1.9,1.9,0,1,0,27.4,23.135" transform="translate(-11.426 -9.543)" fill="#0181c0"/>
    </g>
  </g>
</svg>
