<svg xmlns="http://www.w3.org/2000/svg" xmlns:xlink="http://www.w3.org/1999/xlink" width="30.703" height="30" viewBox="0 0 30.703 30">
  <defs>
    <clipPath id="clip-path">
      <rect id="Rectangle_11197" data-name="Rectangle 11197" width="30.703" height="30" fill="#0181c0"/>
    </clipPath>
  </defs>
  <g id="Group_16256" data-name="Group 16256" transform="translate(0 0)">
    <g id="Group_16255" data-name="Group 16255" transform="translate(0 0)" clip-path="url(#clip-path)">
      <path id="Path_16387" data-name="Path 16387" d="M1.967,0A1.961,1.961,0,0,1,3.934,1.966V28.034a1.967,1.967,0,0,1-3.934,0V1.966A1.968,1.968,0,0,1,1.967,0" transform="translate(0 0)" fill="#0181c0"/>
      <path id="Path_16388" data-name="Path 16388" d="M20.466,25.138a3.551,3.551,0,0,1-3.557,3.546H12.915a3.552,3.552,0,0,1-3.547-3.526l-4.992,2.15V2.179l18.26,7.856v9.406l-2.17.938Zm-7.551,1.508h3.994a1.527,1.527,0,0,0,1.519-1.508V21.255L11.4,24.281v.856a1.513,1.513,0,0,0,1.518,1.508" transform="translate(0.516 0.257)" fill="#0181c0"/>
      <path id="Path_16389" data-name="Path 16389" d="M21.75,10.191h2.976a3.412,3.412,0,0,1,3.414,3.4V14a3.411,3.411,0,0,1-3.414,3.4H21.75Z" transform="translate(2.563 1.201)" fill="#0181c0"/>
    </g>
  </g>
</svg>
