<svg xmlns="http://www.w3.org/2000/svg" width="40" height="40" viewBox="0 0 40 40">
  <g id="Group_20314" data-name="Group 20314" transform="translate(-794 -1523.753)">
    <rect id="Rectangle_13263" data-name="Rectangle 13263" width="40" height="40" transform="translate(794 1523.753)" fill="#0181C0" opacity="0"/>
    <g id="Group_20196" data-name="Group 20196" transform="translate(799.307 1525.277)">
      <g id="Group_20168" data-name="Group 20168" transform="translate(0 6.949)">
        <path id="Path_34981" data-name="Path 34981" d="M937.9,491.859h-23.47a.619.619,0,0,1-.619-.619V462.555a.619.619,0,0,1,.619-.619H917.6a.62.62,0,0,1,0,1.239h-2.555v27.446h22.23V483.2a.62.62,0,0,1,1.239,0v8.041A.62.62,0,0,1,937.9,491.859Z" transform="translate(-913.808 -461.936)" fill="#ffffff"/>
      </g>
      <g id="Group_20169" data-name="Group 20169" transform="translate(20.157 6.949)">
        <path id="Path_34982" data-name="Path 34982" d="M930.148,471.657a.62.62,0,0,1-.621-.619v-7.862h-2.692a.62.62,0,0,1,0-1.239h3.312a.62.62,0,0,1,.619.619v8.483A.62.62,0,0,1,930.148,471.657Z" transform="translate(-926.217 -461.936)" fill="#ffffff"/>
      </g>
      <g id="Group_20170" data-name="Group 20170" transform="translate(4.704)">
        <path id="Path_34983" data-name="Path 34983" d="M929.954,469.578h-11.2a2.049,2.049,0,0,1-2.048-2.048v-1.912a2.05,2.05,0,0,1,2.048-2.048h.239a5.177,5.177,0,0,1-.028-.521,5.389,5.389,0,1,1,10.778,0,5.136,5.136,0,0,1-.026.521h.239A2.05,2.05,0,0,1,932,465.618v1.912A2.049,2.049,0,0,1,929.954,469.578Zm-11.2-4.769a.81.81,0,0,0-.81.809v1.912a.812.812,0,0,0,.81.811h11.2a.811.811,0,0,0,.809-.811v-1.912a.81.81,0,0,0-.809-.809h-.975a.619.619,0,0,1-.6-.767,4.2,4.2,0,0,0,.125-.994,4.151,4.151,0,0,0-8.3,0,4.206,4.206,0,0,0,.125.994.61.61,0,0,1-.114.53.617.617,0,0,1-.487.237Z" transform="translate(-916.704 -457.658)" fill="#ffffff"/>
      </g>
      <g id="Group_20175" data-name="Group 20175" transform="translate(14.087 11.493)">
        <g id="Group_20171" data-name="Group 20171" transform="translate(0 3.127)">
          <path id="Path_34984" data-name="Path 34984" d="M923.1,483.95a.621.621,0,0,1-.608-.738l.689-3.549a.628.628,0,0,1,.17-.32l12.5-12.5a.622.622,0,0,1,.876,0l2.862,2.862a.62.62,0,0,1,.182.437.627.627,0,0,1-.182.439l-12.5,12.5a.6.6,0,0,1-.32.17l-3.549.689A.592.592,0,0,1,923.1,483.95Zm3.551-1.308h0Zm-2.29-2.557-.478,2.463,2.463-.477,11.933-11.933-1.985-1.985Z" transform="translate(-922.48 -466.658)" fill="#ffffff"/>
        </g>
        <g id="Group_20172" data-name="Group 20172" transform="translate(14.623)">
          <path id="Path_34985" data-name="Path 34985" d="M934.963,470.529a.612.612,0,0,1-.437-.182l-2.862-2.861a.619.619,0,0,1,0-.876l1.7-1.7a.619.619,0,0,1,.875,0l2.861,2.861a.619.619,0,0,1,0,.876l-1.694,1.7A.616.616,0,0,1,934.963,470.529Zm-1.985-3.481,1.985,1.987.82-.82-1.987-1.987Z" transform="translate(-931.482 -464.733)" fill="#ffffff"/>
        </g>
        <g id="Group_20173" data-name="Group 20173" transform="translate(9.461 4.556)">
          <path id="Path_34986" data-name="Path 34986" d="M928.923,473.94a.618.618,0,0,1-.437-1.056l5.162-5.164a.619.619,0,0,1,.875.876l-5.162,5.164A.622.622,0,0,1,928.923,473.94Z" transform="translate(-928.304 -467.538)" fill="#ffffff"/>
        </g>
        <g id="Group_20174" data-name="Group 20174" transform="translate(0.689 15.63)">
          <path id="Path_34987" data-name="Path 34987" d="M926.385,478.455a.617.617,0,0,1-.439-.182l-2.86-2.861a.619.619,0,0,1,.875-.876l2.861,2.862a.619.619,0,0,1-.437,1.056Z" transform="translate(-922.904 -474.355)" fill="#ffffff"/>
        </g>
      </g>
      <g id="Group_20176" data-name="Group 20176" transform="translate(3.162 16.303)">
        <path id="Path_34988" data-name="Path 34988" d="M917.425,472.312a.626.626,0,0,1-.439-.18l-1.051-1.053a.619.619,0,0,1,.875-.876l.614.614,2.942-2.942a.619.619,0,1,1,.876.876l-3.38,3.38A.619.619,0,0,1,917.425,472.312Z" transform="translate(-915.754 -467.694)" fill="#ffffff"/>
      </g>
      <g id="Group_20177" data-name="Group 20177" transform="translate(3.162 21.873)">
        <path id="Path_34989" data-name="Path 34989" d="M917.425,475.743a.627.627,0,0,1-.439-.182l-1.051-1.051a.619.619,0,0,1,.875-.875l.614.612,2.942-2.942a.619.619,0,1,1,.876.875l-3.38,3.38A.62.62,0,0,1,917.425,475.743Z" transform="translate(-915.754 -471.123)" fill="#ffffff"/>
      </g>
      <g id="Group_20178" data-name="Group 20178" transform="translate(3.162 27.443)">
        <path id="Path_34990" data-name="Path 34990" d="M917.425,479.172a.62.62,0,0,1-.439-.182l-1.051-1.051a.619.619,0,0,1,.875-.876l.614.614,2.942-2.943a.619.619,0,1,1,.876.876l-3.38,3.38A.613.613,0,0,1,917.425,479.172Z" transform="translate(-915.754 -474.552)" fill="#ffffff"/>
      </g>
    </g>
  </g>
</svg>
