<svg id="Group_22156" data-name="Group 22156" xmlns="http://www.w3.org/2000/svg" xmlns:xlink="http://www.w3.org/1999/xlink" width="80" height="83.085" viewBox="0 0 80 83.085">
  <defs>
    <clipPath id="clip-path">
      <rect id="Rectangle_13993" data-name="Rectangle 13993" width="80" height="83.085" fill="#fff"/>
    </clipPath>
  </defs>
  <g id="Group_22156-2" data-name="Group 22156" clip-path="url(#clip-path)">
    <path id="Path_36614" data-name="Path 36614" d="M51.148,22.818a2.4,2.4,0,0,1,2.4,2.4V49.085L37.221,57.549a2.4,2.4,0,0,1-2.2-4.257l13.733-7.125V25.214a2.4,2.4,0,0,1,2.395-2.4" transform="translate(-14.292 -9.67)" fill="#fff"/>
    <path id="Path_36615" data-name="Path 36615" d="M116.445,43.68a2.387,2.387,0,0,1-2.265-1.635c-.2-.6-.421-1.211-.659-1.805a2.384,2.384,0,1,1,4.428-1.77c.276.688.531,1.386.759,2.076a2.388,2.388,0,0,1-2.265,3.135" transform="translate(-48.035 -15.666)" fill="#fff"/>
    <path id="Path_36616" data-name="Path 36616" d="M119.871,63.343a2.386,2.386,0,0,1-2.333-2.437c.015-.625.009-1.271-.017-1.919a2.389,2.389,0,0,1,2.289-2.477l.1,0a2.379,2.379,0,0,1,2.383,2.292c.029.741.035,1.486.018,2.212a2.4,2.4,0,0,1-2.382,2.333Z" transform="translate(-49.802 -23.947)" fill="#fff"/>
    <path id="Path_36617" data-name="Path 36617" d="M30.259,71.979a2.438,2.438,0,0,1-.424-.038,35.945,35.945,0,0,1-14.454-6.05,36.8,36.8,0,0,1-4.646-3.882l-.029-.028A35.958,35.958,0,0,1,.541,42.45c-.121-.7-.226-1.439-.311-2.205l-.016-.1C.127,39.364.07,38.624.038,37.905v-.077a35.884,35.884,0,0,1,5.744-21.2s.065-.115.081-.14c.25-.384.508-.767.772-1.14.16-.227.324-.455.49-.677a1.131,1.131,0,0,1,.085-.1l.04-.048A35.754,35.754,0,0,1,27.18,1.164l.1-.029C28.224.9,29.153.7,30.064.541A36.824,36.824,0,0,1,36.334,0a35.971,35.971,0,0,1,20.11,6.152l.473.317,2.642-3.819c.211-.3.375-.372.415-.372.018,0,.165.091.275.489l2.7,9.724a1.083,1.083,0,0,1-1,1.438l-10.049.9c-.058.005-.112.008-.165.008-.282,0-.382-.077-.39-.092s-.021-.2.2-.522L54.2,10.4l-.488-.326a31.529,31.529,0,0,0-35.339.284l-.1.072a31.5,31.5,0,0,0-.138,51.565,32.383,32.383,0,0,0,2.965,1.855l.047.026c.557.3,1.133.6,1.713.868l.056.031a31.267,31.267,0,0,0,7.767,2.474,2.385,2.385,0,0,1-.417,4.733" transform="translate(0 0)" fill="#fff"/>
    <path id="Path_36618" data-name="Path 36618" d="M104.92,106.23,93.576,94.887a18.155,18.155,0,1,0-4.043,4.043l11.344,11.344a2.859,2.859,0,1,0,4.043-4.043M66.5,84.259A12.41,12.41,0,1,1,78.9,96.668,12.424,12.424,0,0,1,66.5,84.259" transform="translate(-25.756 -28.025)" fill="#fff"/>
  </g>
</svg>
