<svg xmlns="http://www.w3.org/2000/svg" width="83.877" height="83" viewBox="0 0 83.877 83">
  <g id="Group_16824" data-name="Group 16824" transform="translate(-807 1104)">
    <path id="Union_3" data-name="Union 3" d="M0,15.639V14.473A6.476,6.476,0,0,1,6.477,8h4.2l2.282-8H36.925l2.282,8H42.27a6.476,6.476,0,0,1,6.477,6.476v1.166Z" transform="translate(824.565 -1036.638)" fill="#ccc"/>
    <rect id="Rectangle_11517" data-name="Rectangle 11517" width="79.877" height="60.944" rx="6.486" transform="translate(809 -1102)" fill="none" stroke="#ccc" stroke-miterlimit="10" stroke-width="4"/>
    <line id="Line_122" data-name="Line 122" x2="79.877" transform="translate(809 -1052.498)" fill="none" stroke="#ccc" stroke-miterlimit="10" stroke-width="2"/>
    <path id="Path_16834" data-name="Path 16834" d="M7.4,0H72.475a7.4,7.4,0,0,1,7.4,7.4v4.475H0V7.4A7.4,7.4,0,0,1,7.4,0Z" transform="translate(888.877 -1041.056) rotate(180)" fill="#ccc"/>
  </g>
</svg>
