<svg xmlns="http://www.w3.org/2000/svg" width="33.639" height="27.033" viewBox="0 0 33.639 27.033">
  <path id="Path_35000" data-name="Path 35000" d="M147.172,221.57H118.534a2.49,2.49,0,0,0-2.487,2.487v22.059a2.49,2.49,0,0,0,2.487,2.487h28.638a2.49,2.49,0,0,0,2.487-2.487V224.057A2.49,2.49,0,0,0,147.172,221.57Zm-28.638,1.658h28.638a.83.83,0,0,1,.829.829v2.809H117.7v-2.809A.83.83,0,0,1,118.534,223.228Zm28.638,23.717H118.534a.83.83,0,0,1-.829-.829V231.462H148v14.654A.83.83,0,0,1,147.172,246.945Zm-24.007-7.351h-1.959v-1.959h1.959Zm3.014,0h-1.959v-1.959h1.959Zm3.014,0h-1.959v-1.959h1.959Zm3.014,0h-1.959v-1.959h1.959Zm3.014,0h-1.959v-1.959h1.959Zm3.014,0h-1.959v-1.959h1.959Zm3.014,0h-1.959v-1.959h1.959Zm3.014,0h-1.959v-1.959h1.959Z" transform="translate(-116.047 -221.57)" fill="#fff"/>
</svg>
