<svg xmlns="http://www.w3.org/2000/svg" width="27.852" height="26.145" viewBox="0 0 27.852 26.145">
  <g id="_1066_cm_h" data-name="1066_cm_h" transform="translate(-5.413 -6.63)">
    <path id="Path_16887" data-name="Path 16887" d="M19.94,29.04a7.75,7.75,0,0,0,11.2,3.623l3.407.9-.88-3.383a7.678,7.678,0,0,0-1.1-9.5,7.782,7.782,0,0,0-3.783-2.072" transform="translate(-2.679 -2.198)" fill="none" stroke="#2d3d45" stroke-linecap="round" stroke-miterlimit="10" stroke-width="2"/>
    <path id="Path_16888" data-name="Path 16888" d="M21.309,22.323a8.582,8.582,0,0,0,0-12.174,8.67,8.67,0,0,0-12.222,0A8.582,8.582,0,0,0,7.855,20.771L6.831,24.555l3.807-1.016a8.67,8.67,0,0,0,10.67-1.216Z" transform="translate(0)" fill="none" stroke="#2d3d45" stroke-linecap="round" stroke-miterlimit="10" stroke-width="2"/>
    <g id="Group_16904" data-name="Group 16904" transform="translate(12.838 11.701)">
      <path id="Path_16889" data-name="Path 16889" d="M14.41,14.92a2.224,2.224,0,1,1,4.447.048,2.192,2.192,0,0,1-.656,1.552l.088-.1L16.6,18.191v.984" transform="translate(-14.41 -12.72)" fill="none" stroke="#2d3d45" stroke-linecap="round" stroke-linejoin="round" stroke-width="2"/>
      <circle id="Ellipse_794" data-name="Ellipse 794" cx="0.8" cy="0.8" r="0.8" transform="translate(1.464 8.526)" fill="#2d3d45"/>
    </g>
  </g>
</svg>
