<svg xmlns="http://www.w3.org/2000/svg" width="27.393" height="20" viewBox="0 0 27.393 20">
  <g id="グループ_メンバーの無料アイコン素材" data-name="グループ・メンバーの無料アイコン素材" transform="translate(0 -69.092)">
    <path id="Path_18" data-name="Path 18" d="M306.9,80.77q-.049.174-.111.348l-.019.056a3.049,3.049,0,0,1-.4.766c.163.1.362.218.6.339l.06.032a17.32,17.32,0,0,1,3.046,1.727,5.034,5.034,0,0,1,1.105,1.695.221.221,0,0,1,.014.033,25.819,25.819,0,0,0,4.968-.725.64.64,0,0,0,.474-.738,4.954,4.954,0,0,0-1.152-2.512,23.767,23.767,0,0,0-2.8-1.541,7.315,7.315,0,0,1-1.444-.929V78.193a.5.5,0,0,0,.177-.13,1.906,1.906,0,0,0,.385-.608,7.46,7.46,0,0,0,.3-1.068.1.1,0,0,0,0-.037.6.6,0,0,0,.167.028c.608,0,.855-1.24.892-1.57a.772.772,0,0,0-.362-.641,2.119,2.119,0,0,0,.079-.218A4.712,4.712,0,0,0,313.1,73a2.119,2.119,0,0,0-.422-1.551,2.889,2.889,0,0,0-1.351-.98,2.338,2.338,0,0,0-2.039-1.374c-.065,0-.125,0-.195,0h-.014a4.113,4.113,0,0,0-2.962,1.876,5.53,5.53,0,0,0-.423.915,2.963,2.963,0,0,0-.093.334,4.166,4.166,0,0,1,.3.381,4.831,4.831,0,0,1,1.115.827c.093.088.2.2.316.33l.065.074a3.123,3.123,0,0,1,.529.933,3.466,3.466,0,0,1,.228,1.128,3.066,3.066,0,0,1-.028.585c-.028.2-.06.395-.1.557-.009.046-.019.088-.028.13a1.91,1.91,0,0,1,.2,1.073A3.411,3.411,0,0,1,306.9,80.77Z" transform="translate(-289.251)" fill="#0181c0"/>
    <path id="Path_19" data-name="Path 19" d="M5.461,85.743A4.934,4.934,0,0,1,6.585,84.03a17.53,17.53,0,0,1,3.032-1.718l.056-.032c.221-.113.407-.22.563-.313l.029-.016h0l.007,0a3.006,3.006,0,0,1-.409-.771s-.135-.395-.135-.4a3.39,3.39,0,0,1-1.268-2.628,1.856,1.856,0,0,1,.186-1.035c-.014-.07-.046-.316-.046-.316a4.583,4.583,0,0,1-.014-1.282c.006-.06.017-.119.027-.179s.019-.1.031-.155.026-.119.044-.177a4.717,4.717,0,0,1,.33-.892c.079-.172.172-.343.274-.534,0,0,0-.009.009-.014v-.051l.269-.371a5.471,5.471,0,0,1,1.393-1.291,1.676,1.676,0,0,0-.218-.362.081.081,0,0,0-.023-.032,2.908,2.908,0,0,0-1.351-.98A2.351,2.351,0,0,0,7.328,69.1c-.06,0-.125,0-.19,0H7.124a4.114,4.114,0,0,0-2.962,1.876,3.483,3.483,0,0,0-.423,2.981,2.052,2.052,0,0,0,.084.218.623.623,0,0,0-.33.557c.032.33.246,1.653.85,1.653a.606.606,0,0,0,.172-.027h0a3.247,3.247,0,0,0,.176.706c.037.107.084.246.135.39a1.848,1.848,0,0,0,.39.622.51.51,0,0,0,.181.125v1.128a7.473,7.473,0,0,1-1.444.929,24.323,24.323,0,0,0-2.8,1.541A4.915,4.915,0,0,0,.01,84.3a.64.64,0,0,0,.474.738,26.554,26.554,0,0,0,4.968.725C5.457,85.757,5.457,85.752,5.461,85.743Z" transform="translate(0 0)" fill="#0181c0"/>
    <path id="Path_20" data-name="Path 20" d="M124.124,140.509a7.17,7.17,0,0,1-1.445.928,23.863,23.863,0,0,0-2.791,1.545,3.667,3.667,0,0,0-.768,1.213c-.052.126-.1.256-.152.395s-.086.256-.12.392a5.177,5.177,0,0,0-.115.51.646.646,0,0,0,.473.74,30.672,30.672,0,0,0,13.723,0,.645.645,0,0,0,.473-.742c-.031-.175-.07-.345-.115-.51-.037-.136-.076-.267-.123-.392a4.076,4.076,0,0,0-.152-.395,3.66,3.66,0,0,0-.766-1.213,23.276,23.276,0,0,0-2.8-1.545,7.358,7.358,0,0,1-1.448-.928v-1.126a.483.483,0,0,0,.18-.131.17.17,0,0,0,.029-.034,1.791,1.791,0,0,0,.356-.575l.023-.071a7.61,7.61,0,0,0,.275-1c0-.013,0-.024.005-.034a.578.578,0,0,0,.167.026c.606,0,.855-1.241.888-1.568a.77.77,0,0,0-.363-.64,2.1,2.1,0,0,0,.081-.222.185.185,0,0,0,.008-.021,4.764,4.764,0,0,0,.136-.476c.029-.126.055-.275.078-.45a1.773,1.773,0,0,0,.013-.334,2.162,2.162,0,0,0-.144-.7,1.739,1.739,0,0,0-.29-.515l0,0a3.251,3.251,0,0,0-.277-.293,2.337,2.337,0,0,0-1.072-.685,2.336,2.336,0,0,0-2.041-1.372l-.193-.005h-.013a4.149,4.149,0,0,0-2.781,1.594v0a2.568,2.568,0,0,0-.18.28c-.089.162-.17.313-.238.457a3.478,3.478,0,0,0-.246.666,1.591,1.591,0,0,0-.063.314,3.334,3.334,0,0,0,.024,1.011v0c.024.16.055.332.1.517a.01.01,0,0,1,0,.008,1.574,1.574,0,0,0,.086.222.617.617,0,0,0-.332.557c.034.329.246,1.652.852,1.652a.612.612,0,0,0,.175-.026h0a3.349,3.349,0,0,0,.178.706c.031.089.068.2.107.319l.024.068a1.778,1.778,0,0,0,.342.567c.016.018.034.037.05.055a.5.5,0,0,0,.18.128v1.126Z" transform="translate(-112.372 -57.917)" fill="#0181c0"/>
  </g>
</svg>
