<svg xmlns="http://www.w3.org/2000/svg" xmlns:xlink="http://www.w3.org/1999/xlink" width="206.508" height="121.226" viewBox="0 0 206.508 121.226">
  <defs>
    <linearGradient id="linear-gradient" x1="0.21" y1="1" x2="0.856" y2="1" gradientUnits="objectBoundingBox">
      <stop offset="0" stop-color="#0ec6dd"/>
      <stop offset="1" stop-color="#0e4e80"/>
    </linearGradient>
  </defs>
  <g id="Group_16744" data-name="Group 16744" transform="translate(-223.746 -226.081)">
    <path id="Union_3" data-name="Union 3" d="M-11179.727,2540.331a51.9,51.9,0,0,1-18.635-10l-.451-.383,13.558-20.685.6.5a41.761,41.761,0,0,0,13.64,7.592,52.247,52.247,0,0,0,16.937,2.75c7.718,0,13.708-1.423,17.839-4.241a13.16,13.16,0,0,0,6.118-11.655c0-3.955-1.437-6.784-4.378-8.7-3-1.942-7.648-2.929-13.832-2.929h-12.971l3.654-18.593.15-.162,27.308-25.57h-47.706l4.721-22.712h81.823l-3.489,18.267-.15.15-31.26,29.193c7.51,1.942,13.449,5.39,17.677,10.246,4.474,5.146,6.73,11.59,6.73,19.168a34.981,34.981,0,0,1-6.949,21.26c-4.584,6.183-11.054,11.122-19.222,14.652a69.824,69.824,0,0,1-27.869,5.322A79.958,79.958,0,0,1-11179.727,2540.331Zm-17.279-10.643a50.9,50.9,0,0,0,17.7,9.33,78.045,78.045,0,0,0,23.421,3.419,68.581,68.581,0,0,0,27.322-5.2c7.946-3.448,14.227-8.222,18.672-14.229a33.606,33.606,0,0,0,6.69-20.438c0-7.238-2.16-13.379-6.4-18.264-4.27-4.91-10.4-8.318-18.2-10.124l-1.244-.3,32.955-30.77,3.079-16.2h-79.06l-4.146,19.973h49.481l-29.672,27.787-3.244,16.54h11.315c6.458,0,11.354,1.052,14.584,3.147,3.312,2.146,4.979,5.458,4.979,9.849a14.642,14.642,0,0,1-6.688,12.792c-4.366,2.968-10.632,4.474-18.621,4.474a52.985,52.985,0,0,1-17.373-2.832,43.556,43.556,0,0,1-13.5-7.346Zm-88.391,2.325c-7.539-7.8-11.357-18.7-11.357-32.394a93.724,93.724,0,0,1,7.688-38.2c5.117-11.562,12.342-20.835,21.479-27.608a51.725,51.725,0,0,1,31.438-10.232c12.942,0,23.313,3.966,30.865,11.777,7.524,7.813,11.341,18.732,11.341,32.411a93.9,93.9,0,0,1-7.675,38.2c-5.117,11.545-12.355,20.835-21.493,27.605a51.686,51.686,0,0,1-31.424,10.235C-11267.476,2543.807-11277.86,2539.84-11285.4,2532.012Zm18.618-97.105c-8.934,6.637-16.021,15.732-21.042,27.061a92.536,92.536,0,0,0-7.578,37.65c0,13.325,3.693,23.9,10.985,31.45s17.32,11.369,29.88,11.369a50.354,50.354,0,0,0,30.616-9.96c8.947-6.634,16.021-15.732,21.042-27.058a92.449,92.449,0,0,0,7.578-37.65c0-13.325-3.694-23.9-10.985-31.467-7.264-7.536-17.32-11.355-29.865-11.355A50.4,50.4,0,0,0-11266.778,2434.907Zm1.451,80.826c-3.106-3.666-4.666-9.3-4.666-16.773a83.883,83.883,0,0,1,3.638-23.75,56.2,56.2,0,0,1,10.714-20.685c4.774-5.611,10.507-8.454,17.033-8.454,5.65,0,10.109,1.874,13.242,5.582,3.1,3.666,4.679,9.316,4.679,16.773a84.508,84.508,0,0,1-3.641,23.75,56.213,56.213,0,0,1-10.726,20.685c-4.774,5.608-10.492,8.454-17.019,8.454C-11257.734,2521.316-11262.194,2519.427-11265.327,2515.733Zm10.737-60.331a55,55,0,0,0-10.465,20.192,83.11,83.11,0,0,0-3.583,23.367c0,7.128,1.477,12.478,4.362,15.882,2.9,3.436,6.9,5.1,12.2,5.1,6.1,0,11.479-2.682,15.979-7.961l.521.437-.521-.437a55.16,55.16,0,0,0,10.453-20.206,82.758,82.758,0,0,0,3.586-23.353c0-7.128-1.466-12.478-4.352-15.9-2.86-3.377-6.978-5.089-12.2-5.089C-11244.724,2447.438-11250.1,2450.12-11254.59,2455.4Z" transform="translate(11521 -2197)" stroke="rgba(0,0,0,0)" stroke-miterlimit="10" stroke-width="1" fill="url(#linear-gradient)"/>
  </g>
</svg>
