<svg xmlns="http://www.w3.org/2000/svg" xmlns:xlink="http://www.w3.org/1999/xlink" width="32.47" height="27" viewBox="0 0 32.47 27">
  <defs>
    <clipPath id="clip-path">
      <rect id="Rectangle_6665" data-name="Rectangle 6665" width="32.47" height="27" fill="#fff"/>
    </clipPath>
  </defs>
  <g id="Group_14791" data-name="Group 14791" transform="translate(0 -0.001)">
    <g id="Group_14790" data-name="Group 14790" transform="translate(0 0.001)" clip-path="url(#clip-path)">
      <path id="Path_15143" data-name="Path 15143" d="M30.439,0h-11.6a3.339,3.339,0,0,0-2.6,1.261A3.334,3.334,0,0,0,13.633,0H2.031A1.9,1.9,0,0,0,0,1.742V22.652A1.9,1.9,0,0,0,2.031,24.4l11.6,0a1.84,1.84,0,0,1,1.838,1.839.762.762,0,0,0,.762.761h0A.762.762,0,0,0,17,26.239,1.866,1.866,0,0,1,18.917,24.4H30.439a1.9,1.9,0,0,0,2.031-1.743V1.742A1.9,1.9,0,0,0,30.439,0M13.633,22.873H2.031a.562.562,0,0,1-.509-.22V1.745a.558.558,0,0,1,.509-.222h11.6a1.84,1.84,0,0,1,1.838,1.839V23.454a3.522,3.522,0,0,0-1.838-.581m17.315-.222a.558.558,0,0,1-.509.222l-11.695.006a3.319,3.319,0,0,0-1.751.565V3.392c0-.011.006-.02.006-.03a1.84,1.84,0,0,1,1.838-1.839h11.6a.566.566,0,0,1,.509.219ZM13.576,5.069a.763.763,0,0,1-.762.762H4.179a.761.761,0,0,1,0-1.523h8.635a.762.762,0,0,1,.762.761m0,3.322a.762.762,0,0,1-.762.761H4.179a.761.761,0,0,1,0-1.523h8.635a.763.763,0,0,1,.762.762m0,3.321a.763.763,0,0,1-.762.762H4.179a.761.761,0,0,1,0-1.523h8.635a.762.762,0,0,1,.762.761m0,3.321a.762.762,0,0,1-.762.761H4.179a.761.761,0,0,1,0-1.523h8.635a.763.763,0,0,1,.762.762M29.052,5.069a.762.762,0,0,1-.761.762H19.656a.761.761,0,0,1,0-1.523h8.635a.762.762,0,0,1,.761.761m0,3.322a.762.762,0,0,1-.761.761H19.656a.761.761,0,0,1,0-1.523h8.635a.762.762,0,0,1,.761.762m0,3.321a.762.762,0,0,1-.761.762H19.656a.761.761,0,0,1,0-1.523h8.635a.762.762,0,0,1,.761.761m0,3.321a.762.762,0,0,1-.761.761H19.656a.761.761,0,0,1,0-1.523h8.635a.762.762,0,0,1,.761.762m0,3.321a.761.761,0,0,1-.761.761H19.656a.761.761,0,0,1,0-1.521h8.635a.761.761,0,0,1,.761.761m-15.475,0a.761.761,0,0,1-.762.761H4.179a.761.761,0,1,1,0-1.521h8.635a.761.761,0,0,1,.762.761" transform="translate(0 -0.001)" fill="#fff"/>
    </g>
  </g>
</svg>
