<svg xmlns="http://www.w3.org/2000/svg" width="24.149" height="23.124" viewBox="0 0 24.149 23.124">
  <g id="icon_data" transform="translate(1 0.635)">
    <path id="Path_16884" data-name="Path 16884" d="M11.412,10H6.166A1.166,1.166,0,0,0,5,11.166v16.32a1.166,1.166,0,0,0,1.166,1.166H25.983a1.166,1.166,0,0,0,1.166-1.166V11.166A1.166,1.166,0,0,0,25.983,10H24.235" transform="translate(-5 -7.163)" fill="none" stroke="#2d3d45" stroke-linecap="round" stroke-linejoin="round" stroke-width="2"/>
    <line id="Line_8" data-name="Line 8" y2="5" transform="translate(7.063 0.365)" fill="none" stroke="#2d3d45" stroke-linecap="round" stroke-linejoin="round" stroke-width="2"/>
    <line id="Line_9" data-name="Line 9" y2="5" transform="translate(16.063 0.365)" fill="none" stroke="#2d3d45" stroke-linecap="round" stroke-linejoin="round" stroke-width="2"/>
    <line id="Line_10" data-name="Line 10" x2="6" transform="translate(10.063 2.365)" fill="none" stroke="#2d3d45" stroke-linecap="round" stroke-linejoin="round" stroke-width="2"/>
    <line id="Line_11" data-name="Line 11" x2="1" transform="translate(18.063 9.365)" fill="none" stroke="#2d3d45" stroke-linecap="round" stroke-linejoin="round" stroke-width="2"/>
    <line id="Line_12" data-name="Line 12" x2="1" transform="translate(3.063 9.365)" fill="none" stroke="#2d3d45" stroke-linecap="round" stroke-linejoin="round" stroke-width="2"/>
    <line id="Line_13" data-name="Line 13" x2="1" transform="translate(8.063 9.365)" fill="none" stroke="#2d3d45" stroke-linecap="round" stroke-linejoin="round" stroke-width="2"/>
    <line id="Line_14" data-name="Line 14" x2="1" transform="translate(13.063 9.365)" fill="none" stroke="#2d3d45" stroke-linecap="round" stroke-linejoin="round" stroke-width="2"/>
    <line id="Line_15" data-name="Line 15" x2="1" transform="translate(18.063 12.365)" fill="none" stroke="#2d3d45" stroke-linecap="round" stroke-linejoin="round" stroke-width="2"/>
    <line id="Line_16" data-name="Line 16" x2="1" transform="translate(3.063 12.365)" fill="none" stroke="#2d3d45" stroke-linecap="round" stroke-linejoin="round" stroke-width="2"/>
    <line id="Line_17" data-name="Line 17" x2="1" transform="translate(8.063 12.365)" fill="none" stroke="#2d3d45" stroke-linecap="round" stroke-linejoin="round" stroke-width="2"/>
    <line id="Line_18" data-name="Line 18" x2="1" transform="translate(13.063 12.365)" fill="none" stroke="#2d3d45" stroke-linecap="round" stroke-linejoin="round" stroke-width="2"/>
    <line id="Line_19" data-name="Line 19" x2="1" transform="translate(3.063 15.365)" fill="none" stroke="#2d3d45" stroke-linecap="round" stroke-linejoin="round" stroke-width="2"/>
    <line id="Line_20" data-name="Line 20" x2="1" transform="translate(8.063 15.365)" fill="none" stroke="#2d3d45" stroke-linecap="round" stroke-linejoin="round" stroke-width="2"/>
    <line id="Line_21" data-name="Line 21" x2="1" transform="translate(13.063 15.365)" fill="none" stroke="#2d3d45" stroke-linecap="round" stroke-linejoin="round" stroke-width="2"/>
  </g>
</svg>
