<svg xmlns="http://www.w3.org/2000/svg" width="63" height="41.899" viewBox="0 0 63 41.899">
  <g id="Group_16787" data-name="Group 16787" transform="translate(-3369.23 -624.474)">
    <path id="Union_17" data-name="Union 17" d="M.575,40.9a.582.582,0,0,1-.413-.173A.574.574,0,0,1,0,40.308L1.049,9.254A.57.57,0,0,1,1.62,8.7a.556.556,0,0,1,.419.185.55.55,0,0,1,.153.4L1.167,39.759H60.836L59.812,9.288a.638.638,0,0,1,.551-.589.571.571,0,0,1,.588.555L62,40.311a.562.562,0,0,1-.161.416.577.577,0,0,1-.41.173Zm30.261-7.5a59.583,59.583,0,0,0-14.5-2.231,18.171,18.171,0,0,0-7.324,1.256,2.015,2.015,0,0,1-.281.026.434.434,0,0,1-.28-.075.577.577,0,0,1-.248-.5L9.913,1.16a.573.573,0,0,1,.464-.531A42.517,42.517,0,0,1,17.653,0C22.064,0,27.838.791,31,4.316,34.162.791,39.937,0,44.35,0a42.137,42.137,0,0,1,7.273.629.574.574,0,0,1,.465.531l1.706,30.711a.567.567,0,0,1-.251.5.556.556,0,0,1-.321.1,19.129,19.129,0,0,0-7.567-1.31A59.746,59.746,0,0,0,31.165,33.4L31,33.422A.549.549,0,0,1,30.837,33.4Zm.738-2.431V32.1A58.675,58.675,0,0,1,45.6,30.029a22.7,22.7,0,0,1,6.141.733L52.6,31,50.971,1.674l-.514-.069a44.659,44.659,0,0,0-6.194-.454c-4.267,0-9.9.748-12.69,4.216v3.34a6.561,6.561,0,0,1,4.213,2.076.572.572,0,0,1,0,.808.564.564,0,0,1-.808,0A5.426,5.426,0,0,0,31.11,9.813c-.023,0-.04.009-.058.009s-.032.023-.052.023l-.023-.011a6.377,6.377,0,0,0-3.949,1.755.582.582,0,0,1-.411.171.554.554,0,0,1-.4-.171.572.572,0,0,1,0-.806A8.261,8.261,0,0,1,29.176,9a5.962,5.962,0,0,1,1.253-.211V5.336l-.153-.179C27.424,1.842,21.9,1.146,17.758,1.146a43.86,43.86,0,0,0-6.208.46l-.515.072L9.4,31l.858-.24a22.685,22.685,0,0,1,6.14-.736,56.97,56.97,0,0,1,13.235,1.859l.791.2v-.817c0-.615.254-.871.571-.871A.572.572,0,0,1,31.574,30.967Zm3.4-4.6a5.417,5.417,0,0,0-3.869-1.781,6.284,6.284,0,0,0-4.082,1.779.586.586,0,0,1-.411.167.571.571,0,0,1-.4-.973,8.238,8.238,0,0,1,2.962-1.784,6.307,6.307,0,0,1,1.253-.211v-.433a.573.573,0,0,1,1.145,0v.352a6.54,6.54,0,0,1,4.213,2.076.572.572,0,0,1,0,.808.571.571,0,0,1-.808,0Zm0-7.385A5.411,5.411,0,0,0,31.113,17.2a6.276,6.276,0,0,0-4.085,1.776.59.59,0,0,1-.411.168.561.561,0,0,1-.4-.168.571.571,0,0,1,0-.805,8.345,8.345,0,0,1,2.962-1.782,6.137,6.137,0,0,1,1.253-.214V15.4a.573.573,0,0,1,1.145,0v.7a6.532,6.532,0,0,1,4.213,2.079.572.572,0,0,1-.808.808Z" transform="translate(3369.73 624.974)" fill="#fff" stroke="rgba(0,0,0,0)" stroke-miterlimit="10" stroke-width="1"/>
  </g>
</svg>
