<svg id="Group_14682" data-name="Group 14682" xmlns="http://www.w3.org/2000/svg" xmlns:xlink="http://www.w3.org/1999/xlink" width="20.394" height="14.223" viewBox="0 0 20.394 14.223">
  <defs>
    <clipPath id="clip-path">
      <rect id="Rectangle_6642" data-name="Rectangle 6642" width="20.394" height="14.223" transform="translate(0 0)" fill="#fff"/>
    </clipPath>
  </defs>
  <g id="Group_14681" data-name="Group 14681" clip-path="url(#clip-path)">
    <path id="Path_8984" data-name="Path 8984" d="M20.376.5a.573.573,0,0,0-.027-.132.57.57,0,0,0-.068-.107A.757.757,0,0,0,20.232.18l-.005,0A.6.6,0,0,0,20.1.085.565.565,0,0,0,19.812,0H.58a.562.562,0,0,0-.3.1A.541.541,0,0,0,.167.176L.16.18A.447.447,0,0,0,.112.257.474.474,0,0,0,.044.366.534.534,0,0,0,.016.5.541.541,0,0,0,0,.581V13.642a.566.566,0,0,0,.016.082.553.553,0,0,0,.028.133.5.5,0,0,0,.068.109.447.447,0,0,0,.048.077l.007.005a.564.564,0,0,0,.127.088.456.456,0,0,0,.06.041.589.589,0,0,0,.226.046H19.812a.581.581,0,0,0,.228-.047c.014-.006.024-.019.039-.026a.609.609,0,0,0,.148-.1l.005,0a.541.541,0,0,0,.048-.076.575.575,0,0,0,.069-.107.584.584,0,0,0,.027-.132.654.654,0,0,0,.017-.086V.581A.623.623,0,0,0,20.376.5M1.161,1.938,6.577,7.112,1.161,12.284ZM10.2,8.964l-8.168-7.8H18.365ZM7.417,7.914,9.8,10.186a.579.579,0,0,0,.8,0l2.38-2.273,5.388,5.148H2.028Zm6.4-.8,5.416-5.172V12.285Z" fill="#fff"/>
  </g>
</svg>
