<svg xmlns="http://www.w3.org/2000/svg" width="13.958" height="11" viewBox="0 0 13.958 11">
  <path id="Path_16538" data-name="Path 16538" d="M384.113,422.758a3.683,3.683,0,0,1-.624-.087,4.167,4.167,0,0,1-1.044-.726l-4.424-4.424a.456.456,0,0,1,0-.642l1.746-1.745a.456.456,0,0,1,.642,0l3.09,3.089a.4.4,0,0,0,.6-.034l5.008-6.26a.455.455,0,0,1,.638-.071l1.927,1.543a.456.456,0,0,1,.071.639l-6.186,7.731a7.451,7.451,0,0,1-.617.664,1.388,1.388,0,0,1-.8.322Z" transform="translate(-377.89 -411.758)" fill="#404040"/>
</svg>
