<svg xmlns="http://www.w3.org/2000/svg" width="300" height="72.438" viewBox="0 0 300 72.438">
  <g id="グループ_21735" data-name="グループ 21735" transform="translate(-112.319 -376.663)">
    <g id="グループ_21733" data-name="グループ 21733" transform="translate(112.319 376.663)">
      <g id="グループ_21732" data-name="グループ 21732">
        <g id="グループ_21728" data-name="グループ 21728" transform="translate(76.084 10.465)">
          <g id="グループ_21727" data-name="グループ 21727">
            <path id="パス_36809" data-name="パス 36809" d="M210.431,413.116c.338,7.123,3.983,10.545,8.807,10.545,3.757,0,5.945-1.907,7.46-5.5a1.965,1.965,0,0,1,1.8-1.4c1.065,0,2.355.729,2.355,1.907a2.6,2.6,0,0,1-.224,1.065c-2.188,4.432-5.5,7.348-11.386,7.348-8.357,0-12.957-6.45-12.957-14.92,0-8.357,4.712-14.808,13.013-14.808,8.413,0,11.947,7.629,11.947,12.171,0,2.469-.785,3.59-3.309,3.59Zm15.874-3.364c.561,0,.841-.394.841-.954a3.831,3.831,0,0,0-.112-.841c-.9-4.038-3.309-7.179-7.74-7.179-4.6,0-7.965,3.2-8.749,8.974Z" transform="translate(-206.28 -391.065)" fill="#262626"/>
            <path id="パス_36810" data-name="パス 36810" d="M245.945,415.748c-1.173,0-1.5-.657-1.5-1.407s.329-1.361,1.5-1.361h7.46c1.127,0,1.5.61,1.5,1.361a1.31,1.31,0,0,1-1.5,1.407Z" transform="translate(-213.541 -394.038)" fill="#262626"/>
            <path id="パス_36811" data-name="パス 36811" d="M266.011,425.176a1.64,1.64,0,0,1-1.642,1.126,1.794,1.794,0,0,1-2.019-1.689,2.325,2.325,0,0,1,.235-1.032l12.9-31.393c.564-1.5,1.221-2.253,2.581-2.253,1.5,0,2.2.751,2.768,2.253l12.622,31.346a2.959,2.959,0,0,1,.235.986,2.045,2.045,0,0,1-3.848.61l-3.941-10.276H270.047Zm18.724-13.468-5.162-13.374c-.376-.985-1.033-2.722-1.549-4.224-.422,1.5-1.079,3.238-1.454,4.224l-5.255,13.374Z" transform="translate(-216.948 -389.653)" fill="#262626"/>
            <path id="パス_36812" data-name="パス 36812" d="M327.48,422.219c-.658,1.407-1.127,1.923-2.3,1.923-1.219,0-1.689-.563-2.347-1.923l-6.9-14.782c-1.924-4.129-3.565-8.306-5.349-12.576.189,4.6.283,8.964.329,13.8l.093,15.719a1.8,1.8,0,0,1-1.924,1.924,1.737,1.737,0,0,1-1.876-1.924V392.656c0-2.065.845-2.722,2.44-2.722s2.112.658,3.1,2.722l10.183,21.538c.845,1.783,1.736,4.224,2.3,5.819.61-1.6,1.5-4.036,2.3-5.819l9.573-21.538c.938-2.065,1.6-2.722,3.191-2.722s2.3.658,2.3,2.722v31.721a1.737,1.737,0,0,1-1.876,1.924,1.772,1.772,0,0,1-1.926-1.924l.142-15.251c.047-5.162.187-9.807.376-14.265-1.784,4.27-3.286,8.259-5.209,12.529Z" transform="translate(-225.482 -389.653)" fill="#262626"/>
            <path id="パス_36813" data-name="パス 36813" d="M361.868,425.176a1.639,1.639,0,0,1-1.641,1.126,1.794,1.794,0,0,1-2.019-1.689,2.314,2.314,0,0,1,.235-1.032l12.9-31.393c.564-1.5,1.22-2.253,2.581-2.253,1.5,0,2.2.751,2.768,2.253l12.622,31.346a2.94,2.94,0,0,1,.235.986,2.044,2.044,0,0,1-3.847.61l-3.942-10.276H365.9Zm18.724-13.468-5.161-13.374c-.377-.985-1.032-2.722-1.549-4.224-.423,1.5-1.079,3.238-1.454,4.224l-5.256,13.374Z" transform="translate(-235.185 -389.653)" fill="#262626"/>
            <path id="パス_36814" data-name="パス 36814" d="M431.313,423.533c0,1.972-.469,2.768-1.877,2.768-1.5,0-2.065-.7-3.473-2.768L411.37,402.369c-1.735-2.487-3.143-5.114-4.833-7.883.188,2.956.234,6.147.234,9.2l.141,20.694a1.786,1.786,0,0,1-1.972,1.924,1.737,1.737,0,0,1-1.876-1.924V392.656c0-1.83.7-2.722,2.3-2.722,1.736,0,2.347.892,3.66,2.722l14.923,21.632a55.535,55.535,0,0,1,3.941,7.039c-.187-2.769-.327-5.913-.327-8.963l-.095-20.459a1.8,1.8,0,0,1,1.878-1.972,1.869,1.869,0,0,1,1.97,1.972Z" transform="translate(-243.72 -389.653)" fill="#262626"/>
            <path id="パス_36815" data-name="パス 36815" d="M460.1,426.516c-10.276,0-15.485-7.976-15.485-18.581,0-10.652,5.3-18.348,15.532-18.348,10.418,0,15.391,7.7,15.391,18.348C475.541,418.54,470.521,426.516,460.1,426.516Zm0-3.331c7.414,0,11.591-5.867,11.591-15.251,0-9.432-4.129-15.016-11.544-15.016-7.227,0-11.684,5.584-11.684,15.016C448.467,417.319,452.831,423.186,460.1,423.186Z" transform="translate(-251.626 -389.587)" fill="#262626"/>
          </g>
        </g>
        <g id="グループ_21731" data-name="グループ 21731">
          <g id="グループ_21729" data-name="グループ 21729" transform="translate(0 0.3)">
            <path id="パス_36816" data-name="パス 36816" d="M161.509,420.728a26.837,26.837,0,0,1,13.924,12.45l1.63.751c1.023.472,1.91.849,2.792,1.187h0c-1.33-4.621-5.2-10.387-11.339-14.535a28.824,28.824,0,0,0-9.191-4.1c.4.951.83,1.893,1.322,2.807C160.918,419.78,161.219,420.25,161.509,420.728Z" transform="translate(-121.263 -384.537)" fill="#0092e5"/>
            <path id="パス_36817" data-name="パス 36817" d="M144.354,410.766l-.233-.6c-.051-.128-.1-.257-.146-.377l-.034-.1c-.112-.317-.207-.613-.3-.909l-.147-.468c-.021-.066-.039-.132-.059-.2a27.572,27.572,0,0,0-3.081.148,35.917,35.917,0,0,0-1.14-5.552c-.049-.174-.092-.347-.144-.521-.091-.3-.174-.607-.273-.911-.157-.482-.309-.963-.488-1.446-.248-.666-.538-1.359-.849-2.062-.142-.319-.3-.644-.453-.969-.08-.168-.172-.34-.256-.51-3.33-6.705-9.732-14.475-22.129-19.153h0a1.716,1.716,0,0,0-.283-.074c-.016,0-.031-.01-.047-.013a1.7,1.7,0,0,0-1.7.767l0,0a1.725,1.725,0,0,0-.147.3l-.006.011a1.579,1.579,0,0,0-.045.169,1.6,1.6,0,0,0-.044.168,1.7,1.7,0,0,0,1.079,1.852c.894.337,1.749.694,2.577,1.064,9.149,4.09,14.307,10.059,17.215,15.44a33.182,33.182,0,0,1,1.81,3.943c.032.083.07.171.1.253a33.372,33.372,0,0,1,1.87,7.8,32.789,32.789,0,0,0-4.135,1.22c-14.569,5.349-15.181,13.31-15.022,15.622a7.585,7.585,0,0,0,6.014,7.076,7.922,7.922,0,0,0,1.226.161c2.782.154,8.376-.871,13.311-9.961a23.677,23.677,0,0,0,2.2-11.307,24.4,24.4,0,0,1,4.075-.136C144.556,411.252,144.451,411,144.354,410.766Zm-8.781,9.672c-3.379,6.223-7.261,7.859-9.772,7.311a3.837,3.837,0,0,1-3.02-3.6c-.22-3.19,2.7-7.758,11.554-11.009a27.685,27.685,0,0,1,2.861-.881A17.737,17.737,0,0,1,135.573,420.438Z" transform="translate(-112.319 -377.033)" fill="#0092e5"/>
          </g>
          <g id="グループ_21730" data-name="グループ 21730" transform="translate(0.255)">
            <path id="パス_36818" data-name="パス 36818" d="M131.142,397.129a29.865,29.865,0,0,1-7.5-4.509,26.716,26.716,0,0,1-6.667-7.97l-1.578-.706c-.849-.38-1.662-.717-2.488-1.028-.1-.036-.185-.088-.277-.133.978,3.92,4.284,8.7,8.847,12.46a31.438,31.438,0,0,0,11.874,6.186c-.4-.96-.84-1.912-1.338-2.834C131.746,398.092,131.439,397.614,131.142,397.129Z" transform="translate(-112.634 -377.827)" fill="#5da71e"/>
            <path id="パス_36819" data-name="パス 36819" d="M177.713,430.561a1.7,1.7,0,0,0-1.09-1.521c-1.011-.387-1.964-.8-2.891-1.228-9.008-4.155-14.109-10.077-16.992-15.428a33.2,33.2,0,0,1-1.776-3.867c-.058-.151-.124-.308-.178-.458a32.768,32.768,0,0,1-1.769-7.407,30.339,30.339,0,0,0,4.058-1.158c14.6-5.276,15.247-13.233,15.1-15.545a7.585,7.585,0,0,0-5.979-7.1c-1.93-.427-8.69-1-14.585,9.727a23.272,23.272,0,0,0-2.2,11.232,23.859,23.859,0,0,1-4.057.049c.213.5.409.981.571,1.416s.3.86.438,1.289l.069.213c.052.157.1.315.144.473a27.119,27.119,0,0,0,3.075-.082,36.065,36.065,0,0,0,1.471,6.615l.151.48c.094.29.186.579.29.87l.023.066.012.036h0c.058.16.128.333.194.5l.044.113.124.319c.124.3.256.617.394.936l.221.512c3.139,7.01,9.578,15.527,22.835,20.6.019.007.038.006.057.012a1.684,1.684,0,0,0,.388.082c.04,0,.082.008.123.01a1.7,1.7,0,0,0,.459-.047c.018,0,.034-.012.052-.018a1.713,1.713,0,0,0,.393-.172c.024-.015.051-.028.074-.044a1.675,1.675,0,0,0,.343-.3c.02-.023.038-.049.057-.073a1.676,1.676,0,0,0,.249-.427,1.711,1.711,0,0,0,.088-.326,1.679,1.679,0,0,0,.018-.249c0-.029.006-.058.006-.087Zm-23.3-41.473c3.106-5.654,6.612-7.5,9.106-7.358a4.4,4.4,0,0,1,.7.1,3.839,3.839,0,0,1,3,3.614c.2,3.192-2.739,7.744-11.609,10.951a25.725,25.725,0,0,1-2.816.842A17.446,17.446,0,0,1,154.413,389.088Z" transform="translate(-118.859 -376.663)" fill="#5da71e"/>
          </g>
        </g>
      </g>
    </g>
    <g id="グループ_21734" data-name="グループ 21734" transform="translate(190.102 431.942)">
      <path id="パス_36820" data-name="パス 36820" d="M208.848,451.425a21.861,21.861,0,0,1,3.291,1.2c1.045.452,1.27.539,1.27.922a.508.508,0,0,1-.452.54,1.489,1.489,0,0,1-.523-.191,30.98,30.98,0,0,0-3.534-1.428c-.279-.1-.522-.208-.522-.556A.467.467,0,0,1,208.848,451.425Zm.593,9.488c0-.348.087-.4.958-.662a21.44,21.44,0,0,0,10.828-8.2c.331-.453.453-.627.7-.627a.556.556,0,0,1,.574.5c0,.331-2.211,3.447-5.292,5.884a18.04,18.04,0,0,1-7.191,3.709A.57.57,0,0,1,209.44,460.912Zm.923-13.822a22.944,22.944,0,0,1,3.325,1.219c.9.4,1.219.521,1.219.887a.52.52,0,0,1-.47.539,1.448,1.448,0,0,1-.522-.173,29.175,29.175,0,0,0-3.516-1.428c-.21-.07-.505-.192-.505-.54A.484.484,0,0,1,210.363,447.09Z" transform="translate(-208.378 -445.341)" fill="#3b3938" stroke="#3b3938" stroke-miterlimit="10" stroke-width="0.25"/>
      <path id="パス_36821" data-name="パス 36821" d="M230.421,449.41a.5.5,0,1,1,0-1.009h10.863c.819,0,1.811,0,1.811,1.271a14.1,14.1,0,0,1-9.123,11.838.494.494,0,0,1-.487-.522c0-.278.121-.347.713-.627a14.008,14.008,0,0,0,6.441-5.971A11.952,11.952,0,0,0,242,450.02c0-.61-.418-.61-.957-.61Z" transform="translate(-212.473 -445.591)" fill="#3b3938" stroke="#3b3938" stroke-miterlimit="10" stroke-width="0.25"/>
      <path id="パス_36822" data-name="パス 36822" d="M257.484,461.306c0,.193-.035.505-.539.505-.523,0-.558-.279-.558-.505V447.031c0-.192.035-.522.54-.522s.557.3.557.522v4.614a35.888,35.888,0,0,1,7.347,4.16c.47.33.591.453.591.7a.583.583,0,0,1-.539.592c-.226,0-.313-.07-1.149-.7a34.314,34.314,0,0,0-6.25-3.638Z" transform="translate(-217.512 -445.231)" fill="#3b3938" stroke="#3b3938" stroke-miterlimit="10" stroke-width="0.25"/>
      <path id="パス_36823" data-name="パス 36823" d="M275.159,461.658a.44.44,0,0,1-.47.5c-.366,0-.5-.139-.5-.5v-9.61c-.4.61-1.377,2.141-1.863,2.141a.6.6,0,0,1-.539-.591.717.717,0,0,1,.261-.488,18.958,18.958,0,0,0,3.847-6.755c.07-.208.156-.382.436-.382.209,0,.522.121.522.417a15.962,15.962,0,0,1-1.688,3.987Zm12.221-12.97a.448.448,0,1,1,0,.888h-5.641V452.9h5.24a.448.448,0,1,1,0,.888h-5.24v3.325h5.24a.448.448,0,1,1,0,.888h-5.24v3.656a.44.44,0,0,1-.47.5c-.348,0-.522-.122-.522-.5V449.575h-1.062a20.022,20.022,0,0,1-1.637,2.594c-.3.384-.591.766-.888.766a.585.585,0,0,1-.539-.574c0-.175.1-.279.262-.453a15.415,15.415,0,0,0,3.169-5.484c.087-.244.156-.452.487-.452a.434.434,0,0,1,.488.435,10.512,10.512,0,0,1-.888,2.28Z" transform="translate(-220.441 -445.129)" fill="#3b3938" stroke="#3b3938" stroke-miterlimit="10" stroke-width="0.25"/>
      <path id="パス_36824" data-name="パス 36824" d="M297.948,449.646c-.644,0-.9.3-.9.905v1.828h3.429c1.288,0,1.705.418,1.705,1.688a32.421,32.421,0,0,1-.191,3.621c-.226,1.5-.662,2.089-2,2.089-.208,0-1.149-.017-1.34-.017-.174,0-.538,0-.538-.54,0-.505.347-.505.487-.505.017,0,1.079.035,1.271.035.436,0,.888-.087,1.079-.922a23.786,23.786,0,0,0,.261-3.569c0-.888-.174-1.028-1.062-1.028h-3.1v.853a25.508,25.508,0,0,1-.557,5.275,9.9,9.9,0,0,1-.871,2.316.4.4,0,0,1-.365.244.6.6,0,0,1-.592-.539.918.918,0,0,1,.157-.488c.713-1.34,1.219-3.082,1.219-6.755v-3.655c0-1.288.435-1.759,1.758-1.759h6.041c-.052-1.254-.052-1.445-.052-2.037,0-.487,0-.8.487-.8.453,0,.488.313.488.521.017.366.035,1.985.052,2.316h5.554c.209,0,.487.035.487.453,0,.435-.261.47-.487.47h-5.519a40.537,40.537,0,0,0,.713,5.971,11.963,11.963,0,0,0,.384,1.515,16.6,16.6,0,0,0,2.68-5.414c.087-.279.157-.5.453-.5.227,0,.575.139.575.452a18.894,18.894,0,0,1-3.343,6.511c1.184,2.733,2.177,2.89,2.437,2.89.279,0,.7-.122,1.131-2.7.035-.261.087-.453.4-.453a.452.452,0,0,1,.505.418,13.573,13.573,0,0,1-.522,2.263c-.156.47-.47,1.462-1.462,1.462-1.654,0-2.889-2.506-3.186-3.151a13.673,13.673,0,0,1-4.84,3.029.551.551,0,0,1-.522-.539c0-.262.209-.349.418-.436a13.75,13.75,0,0,0,4.544-2.994,20.353,20.353,0,0,1-.888-3.831c-.261-1.845-.365-3.464-.435-4.492ZM308.55,447c1.011.817,1.011.905,1.011,1.062a.58.58,0,0,1-.54.539c-.174,0-.209-.07-.679-.487a14.782,14.782,0,0,0-1.271-1.028c-.192-.156-.313-.244-.313-.453a.536.536,0,0,1,.436-.47C307.471,446.13,308.2,446.721,308.55,447Z" transform="translate(-224.793 -445.112)" fill="#3b3938" stroke="#3b3938" stroke-miterlimit="10" stroke-width="0.25"/>
      <path id="パス_36825" data-name="パス 36825" d="M319.62,452.765c-.157,0-.487,0-.487-.452,0-.436.3-.453.487-.453h5.78v-2.75h-7.12a.415.415,0,0,1-.487-.453.423.423,0,0,1,.487-.452h7.12V446.5a.431.431,0,0,1,.47-.5c.382,0,.539.122.539.5V448.2h7.121a.435.435,0,0,1,.5.452c0,.453-.366.453-.5.453h-7.121v2.75h2.611c.853,0,.993,0,1.305.157a.89.89,0,0,1,.505.853c0,1.184-2.055,4.04-3.969,5.519a17.187,17.187,0,0,0,5.919,2.315,6.64,6.64,0,0,1,.836.191c.174.053.226.192.226.384a.515.515,0,0,1-.5.557,19.177,19.177,0,0,1-7.347-2.82,21.366,21.366,0,0,1-7.486,2.82.534.534,0,0,1-.539-.557.434.434,0,0,1,.435-.487,20.469,20.469,0,0,0,6.72-2.386,10.578,10.578,0,0,1-3.447-4.3.509.509,0,0,1,.522-.5c.244,0,.331.139.453.347a11.635,11.635,0,0,0,3.343,3.847,10.419,10.419,0,0,0,3.673-4.63c0-.4-.33-.4-.713-.4Z" transform="translate(-229.195 -445.133)" fill="#3b3938" stroke="#3b3938" stroke-miterlimit="10" stroke-width="0.25"/>
      <path id="パス_36826" data-name="パス 36826" d="M344.1,460.448c0,.383,0,1.114-.679,1.323-.3.1-.33.1-1.863.1a.478.478,0,0,1-.539-.521c0-.453.365-.453.522-.453.174,0,.94.017,1.1,0a.56.56,0,0,0,.505-.644v-4.422a16.856,16.856,0,0,1-1.95.627.443.443,0,0,1-.418-.487.386.386,0,0,1,.3-.419c.278-.121,1.74-.574,2.071-.679v-4.613h-1.794c-.121,0-.487,0-.487-.418,0-.435.347-.435.487-.435h1.794v-3c0-.174.018-.487.487-.487.382,0,.47.209.47.487v3h1.428c.173,0,.47.017.47.435,0,.383-.262.418-.47.418H344.1v4.247c.279-.1,1.079-.435,1.288-.521a.875.875,0,0,1,.3-.087c.279,0,.348.279.348.436a.411.411,0,0,1-.244.383c-.244.139-1.114.5-1.688.73Zm2.645-5.937c-.191,0-.47-.052-.47-.4,0-.279.14-.417.47-.417h2.437a11.5,11.5,0,0,0,.139-1.777H346.9c-.139,0-.47-.017-.47-.4,0-.331.243-.4.47-.4h6.79a22.661,22.661,0,0,0,1.62-2.82c.3-.628.33-.7.591-.7a.49.49,0,0,1,.488.436,13.929,13.929,0,0,1-1.637,3.081h1.219c.209,0,.47.052.47.384,0,.3-.157.417-.47.417h-5.71a14.327,14.327,0,0,1-.139,1.777h6.233c.226,0,.487.07.487.4,0,.278-.139.417-.487.417h-6.373a14.216,14.216,0,0,1-.453,1.6h4.8c.539,0,1.341,0,1.341.784a2.376,2.376,0,0,1-.662,1.41,10.733,10.733,0,0,1-1.636,1.5,10.07,10.07,0,0,0,3.116,1.253c.174.035.383.087.383.384a.544.544,0,0,1-.54.574,10.616,10.616,0,0,1-3.76-1.671,11.887,11.887,0,0,1-4.405,1.619.472.472,0,0,1-.452-.5.387.387,0,0,1,.365-.4,12.493,12.493,0,0,0,3.708-1.322,7.086,7.086,0,0,1-1.811-2.107.465.465,0,0,1,.47-.453.484.484,0,0,1,.4.262,8.834,8.834,0,0,0,1.758,1.828c1.027-.662,2-1.619,2-2.089,0-.278-.226-.278-.452-.278h-4.927a13.857,13.857,0,0,1-2.681,4.177c-.3.314-.923.957-1.236.957a.531.531,0,0,1-.523-.5c0-.173.122-.278.33-.453a12.272,12.272,0,0,0,2.977-3.847,10.416,10.416,0,0,0,.923-2.717Zm7.974-7.4a47.008,47.008,0,0,1-4.683.487c-.958.07-2.682.174-3.586.174a.457.457,0,0,1-.522-.453c0-.382.313-.382.487-.4a47.187,47.187,0,0,0,7.991-.645c.192-.035,1.062-.226,1.2-.226.156,0,.435.139.435.557C356.043,446.886,355.8,446.939,354.72,447.113Zm-6.7,1.9a5.99,5.99,0,0,1,.435,1.2.446.446,0,0,1-.47.435c-.279,0-.313-.087-.539-.628-.158-.382-.21-.47-.453-1.026a1,1,0,0,1-.139-.4c0-.279.313-.418.47-.418C347.652,448.174,347.687,448.227,348.017,449.01Zm3.534-.174a6.912,6.912,0,0,1,.488,1.323.471.471,0,0,1-.488.47c-.3,0-.33-.121-.522-.61-.069-.156-.173-.452-.47-1.1-.191-.435-.226-.47-.226-.574,0-.226.261-.4.488-.4C351.116,447.948,351.186,447.983,351.551,448.836Z" transform="translate(-233.568 -445.12)" fill="#3b3938" stroke="#3b3938" stroke-miterlimit="10" stroke-width="0.25"/>
      <path id="パス_36827" data-name="パス 36827" d="M367.789,447.644a.464.464,0,0,1,.522-.539c.54,0,.54.382.54.539v3.186h6.3v-3.673a.464.464,0,0,1,.521-.54c.54,0,.54.384.54.54v3.673h2.837c.174,0,.523.018.523.487,0,.384-.157.522-.523.522h-2.837v1.619a8.526,8.526,0,0,1-1.776,5.937,7.05,7.05,0,0,1-3.22,2.177.522.522,0,0,1-.522-.558c0-.226.156-.347.626-.573,3.36-1.6,3.831-4.475,3.831-6.79v-1.811h-6.3v4.422a.476.476,0,0,1-.522.557.481.481,0,0,1-.54-.557v-4.422H364.95c-.156,0-.5,0-.5-.5,0-.4.192-.505.5-.505h2.838Z" transform="translate(-238.071 -445.251)" fill="#3b3938" stroke="#3b3938" stroke-miterlimit="10" stroke-width="0.25"/>
      <path id="パス_36828" data-name="パス 36828" d="M400.648,455.2a.522.522,0,1,1,0,1.044H386.894a.471.471,0,0,1-.54-.5.485.485,0,0,1,.54-.539Z" transform="translate(-242.239 -446.883)" fill="#3b3938" stroke="#3b3938" stroke-miterlimit="10" stroke-width="0.25"/>
      <path id="パス_36829" data-name="パス 36829" d="M411.084,457.263c0,1.915.4,2.333,5.553,2.333,1.428,0,3.237-.035,4.857-.139.279-.017.383-.035.47-.035a.458.458,0,0,1,.505.505.453.453,0,0,1-.418.522c-.592.121-4.578.139-5.745.139-4.457,0-6.3-.227-6.3-3.169v-10.5c0-.209.017-.505.5-.505.4,0,.575.1.575.505v5.588a38.831,38.831,0,0,0,8.043-2.594c.556-.279.608-.3.73-.3a.539.539,0,0,1,.487.557c0,.226-.121.348-.7.609a41.545,41.545,0,0,1-8.565,2.664Zm10.1-10.289a9.3,9.3,0,0,1,1.149,2.072.558.558,0,0,1-.575.487c-.244,0-.313-.121-.888-1.114-.33-.574-.818-1.34-.993-1.6a.749.749,0,0,1-.156-.384.506.506,0,0,1,.592-.435C420.554,446.035,420.607,446.139,421.182,446.975Zm2.315-1.149a9,9,0,0,1,1.219,2.159.567.567,0,0,1-.558.487c-.261,0-.33-.122-.94-1.184-.244-.435-.313-.539-.956-1.532a.809.809,0,0,1-.158-.383.5.5,0,0,1,.593-.436C422.94,444.99,423.043,445.025,423.5,445.826Z" transform="translate(-246.739 -444.93)" fill="#3b3938" stroke="#3b3938" stroke-miterlimit="10" stroke-width="0.25"/>
      <path id="パス_36830" data-name="パス 36830" d="M431.62,449.131a.453.453,0,0,1-.522-.5c0-.487.331-.505.522-.505h8.634c.61,0,1.533,0,1.533,1.167,0,1.079-1.55,3.986-2.856,5.693a34.023,34.023,0,0,1,5.154,5c.261.33.347.452.347.627a.572.572,0,0,1-.556.557c-.262,0-.384-.139-.61-.435a32.1,32.1,0,0,0-4.961-4.962,19.054,19.054,0,0,1-7.574,5.692.561.561,0,0,1-.54-.574c0-.244.088-.313.645-.593,7.852-3.812,9.784-10.531,9.784-10.74,0-.314-.139-.419-.7-.419Z" transform="translate(-250.58 -445.537)" fill="#3b3938" stroke="#3b3938" stroke-miterlimit="10" stroke-width="0.25"/>
    </g>
  </g>
</svg>
