<svg xmlns="http://www.w3.org/2000/svg" width="31.49" height="31.489" viewBox="0 0 31.49 31.489">
  <path id="Union_25" data-name="Union 25" d="M-6715.194,15.506V14.085l-.488-.505a11.64,11.64,0,0,1-7.613,2.827A11.7,11.7,0,0,1-6735,4.7,11.7,11.7,0,0,1-6723.3-7a11.7,11.7,0,0,1,11.7,11.7,11.651,11.651,0,0,1-2.823,7.617l.5.484h1.423l8.985,9.005-2.685,2.681Zm-16.2-10.8a8.09,8.09,0,0,0,8.1,8.1,8.091,8.091,0,0,0,8.1-8.1,8.091,8.091,0,0,0-8.1-8.1A8.09,8.09,0,0,0-6731.4,4.7Zm7.2,4.5V5.6h-3.6V3.8h3.6V.2h1.8V3.8h3.6V5.6h-3.6V9.2Z" transform="translate(6734.999 6.999)" fill="#fff"/>
</svg>
