<svg xmlns="http://www.w3.org/2000/svg" width="140" height="140" viewBox="0 0 140 140">
  <g id="Group_17318" data-name="Group 17318" transform="translate(-1327 -4176)">
    <circle id="Ellipse_680" data-name="Ellipse 680" cx="70" cy="70" r="70" transform="translate(1327 4176)" fill="#f6f6f6"/>
    <g id="Group_17070" data-name="Group 17070" transform="translate(-264.879 4074.761)">
      <g id="Group_17068" data-name="Group 17068" transform="translate(1626.879 136.239)">
        <path id="Path_16977" data-name="Path 16977" d="M1666.334,206.268h-8.884a.976.976,0,0,1-.972-.888l-.632-7.243a27.043,27.043,0,0,1-8.909-3.415l-5.348,4.49a.978.978,0,0,1-1.314-.058l-6.284-6.284a.972.972,0,0,1-.058-1.314l4.31-5.135a27.087,27.087,0,0,1-3.929-9.183l-6.548-.573a.972.972,0,0,1-.888-.969V166.81a.972.972,0,0,1,.888-.969l6.548-.571a27.1,27.1,0,0,1,3.929-9.186l-4.31-5.135a.972.972,0,0,1,.058-1.314l6.284-6.284a.975.975,0,0,1,1.314-.056l5.348,4.49a27.043,27.043,0,0,1,8.909-3.415l.632-7.243a.976.976,0,0,1,.972-.89h8.884a.976.976,0,0,1,.971.89l.667,7.641a27.162,27.162,0,0,1,8.136,3.635l6.085-5.109a.975.975,0,0,1,1.314.056l6.284,6.284a.973.973,0,0,1,.058,1.314l-5.292,6.3a27.158,27.158,0,0,1,3.158,7.864l8.3.723a.974.974,0,0,1,.89.969V175.7a.974.974,0,0,1-.89.969l-8.3.726a27.172,27.172,0,0,1-3.158,7.862l5.292,6.3a.973.973,0,0,1-.058,1.314l-6.284,6.284a.978.978,0,0,1-1.314.058l-6.085-5.112a27.1,27.1,0,0,1-8.136,3.635l-.667,7.643A.976.976,0,0,1,1666.334,206.268Zm-7.993-1.946h7.1l.649-7.448a.968.968,0,0,1,.748-.863,25.182,25.182,0,0,0,8.77-3.927.976.976,0,0,1,1.185.053l5.967,5.008,5.023-5.02-5.17-6.157a.973.973,0,0,1-.076-1.147,25.153,25.153,0,0,0,3.422-8.529.976.976,0,0,1,.87-.779l8.128-.71v-7.1l-8.128-.71a.973.973,0,0,1-.87-.776,25.146,25.146,0,0,0-3.422-8.531.969.969,0,0,1,.076-1.144l5.17-6.159-5.023-5.02-5.967,5.01a.976.976,0,0,1-1.185.051,25.228,25.228,0,0,0-8.77-3.927.968.968,0,0,1-.748-.863l-.649-7.446h-7.1l-.619,7.1a.973.973,0,0,1-.812.878,25.126,25.126,0,0,0-9.534,3.645.977.977,0,0,1-1.152-.076l-5.2-4.368-5.023,5.02,4.214,5.018a.976.976,0,0,1,.048,1.19,25.145,25.145,0,0,0-4.186,9.774.97.97,0,0,1-.87.781l-6.38.558v7.1l6.38.558a.976.976,0,0,1,.87.784,25.177,25.177,0,0,0,4.186,9.774.972.972,0,0,1-.048,1.187L1636,192.125l5.023,5.02,5.2-4.368a.973.973,0,0,1,1.152-.074,25.168,25.168,0,0,0,9.534,3.645.97.97,0,0,1,.812.875Zm37.593-28.626h0Z" transform="translate(-1626.879 -136.239)" fill="#0181c0"/>
      </g>
      <g id="Group_17069" data-name="Group 17069" transform="translate(1644.776 154.139)">
        <path id="Path_16978" data-name="Path 16978" d="M1651.05,177.524a17.115,17.115,0,1,1,17.116-17.113A17.135,17.135,0,0,1,1651.05,177.524Zm0-32.284a15.169,15.169,0,1,0,15.168,15.17A15.186,15.186,0,0,0,1651.05,145.241Z" transform="translate(-1633.934 -143.295)" fill="#0181c0"/>
      </g>
    </g>
  </g>
</svg>
