<svg xmlns="http://www.w3.org/2000/svg" width="20.302" height="16" viewBox="0 0 20.302 16">
  <path id="Path_16521" data-name="Path 16521" d="M386.942,427.758a5.364,5.364,0,0,1-.907-.127,6.061,6.061,0,0,1-1.519-1.057l-6.434-6.435a.663.663,0,0,1,0-.934l2.54-2.538a.663.663,0,0,1,.934,0l4.494,4.493a.581.581,0,0,0,.88-.049l7.285-9.106a.662.662,0,0,1,.928-.1l2.8,2.244a.664.664,0,0,1,.1.93l-9,11.245a10.835,10.835,0,0,1-.9.965,2.018,2.018,0,0,1-1.165.469Z" transform="translate(-377.89 -411.758)" fill="#4b98db"/>
</svg>
