<svg xmlns="http://www.w3.org/2000/svg" xmlns:xlink="http://www.w3.org/1999/xlink" width="140" height="140" viewBox="0 0 140 140">
  <defs>
    <clipPath id="clip-path">
      <rect id="Rectangle_11212" data-name="Rectangle 11212" width="60" height="57.798" fill="#0181c0"/>
    </clipPath>
  </defs>
  <g id="Group_16389" data-name="Group 16389" transform="translate(-880 -3181)">
    <g id="Ellipse_679" data-name="Ellipse 679" transform="translate(880 3181)" fill="#fff" stroke="#0181c0" stroke-width="2">
      <circle cx="70" cy="70" r="70" stroke="none"/>
      <circle cx="70" cy="70" r="69" fill="none"/>
    </g>
    <g id="Group_16320" data-name="Group 16320" transform="translate(919 3224)">
      <g id="Group_16295" data-name="Group 16295" transform="translate(0 0)" clip-path="url(#clip-path)">
        <path id="Path_16462" data-name="Path 16462" d="M33.459,0H9.186A2.664,2.664,0,0,0,6.525,2.66v52.48A2.662,2.662,0,0,0,9.186,57.8H33.459a2.662,2.662,0,0,0,2.661-2.658V2.66A2.664,2.664,0,0,0,33.459,0M8.3,9.062H34.347V43.7H8.3Zm.888-7.287H33.459a.887.887,0,0,1,.888.885V7.289H8.3V2.66a.887.887,0,0,1,.888-.885m24.274,54.25H9.186a.887.887,0,0,1-.888-.885V45.478H34.347v9.661a.887.887,0,0,1-.888.885" transform="translate(8.677 0)" fill="#1c5472"/>
        <path id="Path_16463" data-name="Path 16463" d="M14.83,20.346a3.421,3.421,0,1,0,3.42,3.422,3.426,3.426,0,0,0-3.42-3.422m0,5.07a1.648,1.648,0,1,1,1.647-1.647,1.647,1.647,0,0,1-1.647,1.647" transform="translate(15.17 27.056)" fill="#1c5472"/>
        <path id="Path_16464" data-name="Path 16464" d="M12.812,3.339h2.656a.888.888,0,0,0,0-1.775H12.812a.888.888,0,0,0,0,1.775" transform="translate(15.86 2.081)" fill="#1c5472"/>
        <path id="Path_16465" data-name="Path 16465" d="M20.9,4.165a.886.886,0,0,0,0,1.251,7.323,7.323,0,0,1,0,10.351.887.887,0,0,0,1.253,1.256,9.092,9.092,0,0,0,0-12.858.882.882,0,0,0-1.251,0" transform="translate(27.45 5.193)" fill="#0181c0"/>
        <path id="Path_16466" data-name="Path 16466" d="M24.5,1.816a.885.885,0,1,0-1.251,1.253,15.057,15.057,0,0,1,0,21.287.885.885,0,0,0,.624,1.512.891.891,0,0,0,.629-.259,16.826,16.826,0,0,0,0-23.794" transform="translate(30.569 2.071)" fill="#0181c0"/>
        <path id="Path_16467" data-name="Path 16467" d="M7.234,4.165a.884.884,0,0,0-1.253,0,9.092,9.092,0,0,0,0,12.858.889.889,0,0,0,1.253,0,.892.892,0,0,0,0-1.256,7.32,7.32,0,0,1,0-10.351.882.882,0,0,0,0-1.251" transform="translate(4.412 5.193)" fill="#0181c0"/>
        <path id="Path_16468" data-name="Path 16468" d="M6.178,1.816a.886.886,0,0,0-1.251,0,16.828,16.828,0,0,0,0,23.794.886.886,0,0,0,1.253-1.253,15.054,15.054,0,0,1,0-21.287.884.884,0,0,0,0-1.253" transform="translate(0 2.071)" fill="#0181c0"/>
      </g>
    </g>
  </g>
</svg>
