<svg xmlns="http://www.w3.org/2000/svg" width="40" height="40" viewBox="0 0 40 40">
  <g id="Group_20315" data-name="Group 20315" transform="translate(-1227 -1524.34)">
    <rect id="Rectangle_13264" data-name="Rectangle 13264" width="40" height="40" transform="translate(1227 1524.34)" fill="#fff" opacity="0" />
    <g id="Group_20206" data-name="Group 20206" transform="translate(1227.671 1528.094)">
      <g id="グループ_20182" data-name="グループ 20182" transform="translate(15.215 0)">
        <path id="Path_35038" data-name="Path 35038" d="M1288.573,785.006a.609.609,0,0,1-.608-.608v-9.172a.607.607,0,0,1,.606-.608h7.311a.61.61,0,0,1,.61.608V784.4a.61.61,0,0,1-.61.608Zm.609-1.217h6.091v-7.954h-6.091Z" transform="translate(-1287.964 -774.618)" fill="#0181c0"/>
      </g>
      <g id="グループ_20189" data-name="グループ 20189" transform="translate(3.209 10.798)">
        <g id="グループ_20183" data-name="グループ 20183" transform="translate(3.18 5.647)">
          <path id="Path_35039" data-name="Path 35039" d="M1278.846,805.877c-2.454,0-4.111-2.722-4.425-5.282a.655.655,0,0,1,.57-.729.673.673,0,0,1,.08,0,.655.655,0,0,1,.649.575c.2,1.666,1.34,4.133,3.126,4.133,1.47,0,2.554-1.681,2.976-3.346a.654.654,0,0,1,.634-.494.645.645,0,0,1,.16.02.654.654,0,0,1,.474.793C1282.585,803.543,1281.17,805.877,1278.846,805.877Z" transform="translate(-1274.416 -799.862)" fill="#0181c0"/>
        </g>
        <g id="グループ_20184" data-name="グループ 20184" transform="translate(2.043 1.441)">
          <path id="Path_35040" data-name="Path 35040" d="M1282.461,800.125a.7.7,0,0,1-.272-.062,10.284,10.284,0,0,1-4.147-4.387l-.05-.09-.059.083a14.2,14.2,0,0,1-4.28,3.932.651.651,0,0,1-.893-.233.652.652,0,0,1,.232-.893c.15-.09,3.655-2.2,4.347-4.6a.651.651,0,0,1,1.231-.07c.016.039,1.692,3.945,4.162,5.065a.651.651,0,0,1-.257,1.25Z" transform="translate(-1272.67 -793.405)" fill="#0181c0"/>
        </g>
        <g id="グループ_20185" data-name="グループ 20185" transform="translate(0.81)">
          <path id="Path_35041" data-name="Path 35041" d="M1278.819,804.479a.666.666,0,0,1-.7-.61.654.654,0,0,1,.61-.693,11.427,11.427,0,0,0,4.209-1.737l.025-.016.02-.131h0a34.1,34.1,0,0,0-1.2-5.587,4.478,4.478,0,0,0-3.967-3.207h-.591a4.5,4.5,0,0,0-3.938,3.191,33.8,33.8,0,0,0-1.2,5.607h0l.02.13h.014l.01.017a10.966,10.966,0,0,0,4.112,1.733.654.654,0,0,1-.078,1.3.718.718,0,0,1-.083-.005c-1.269-.161-4.812-1.469-5.2-2.594-.289-.833.07-2.331,1.151-6.542a5.813,5.813,0,0,1,5.181-4.146h.625a5.809,5.809,0,0,1,5.2,4.122c1.086,4.23,1.448,5.736,1.159,6.57-.4,1.152-4.212,2.457-5.288,2.593h-.08Z" transform="translate(-1270.778 -791.193)" fill="#0181c0"/>
        </g>
        <g id="グループ_20186" data-name="グループ 20186" transform="translate(0 9.94)">
          <path id="Path_35042" data-name="Path 35042" d="M1270.186,814.764a.653.653,0,0,1-.651-.648c0-3.959,4.568-5,5.484-5.166l.053-.01v-1.835a.654.654,0,1,1,1.308,0v2.4a.648.648,0,0,1-.586.651c-.2.022-4.95.574-4.95,3.955a.652.652,0,0,1-.651.651Z" transform="translate(-1269.534 -806.451)" fill="#0181c0"/>
        </g>
        <g id="グループ_20187" data-name="グループ 20187" transform="translate(8.197 10.043)">
          <path id="Path_35043" data-name="Path 35043" d="M1288.4,814.818a.652.652,0,0,1-.651-.651c0-3.781-4.785-3.946-4.99-3.951a.656.656,0,0,1-.637-.651v-2.3a.654.654,0,1,1,1.308,0v1.692l.057.007c.93.111,5.569.883,5.569,5.206a.652.652,0,0,1-.652.65Z" transform="translate(-1282.117 -806.609)" fill="#0181c0"/>
        </g>
        <g id="グループ_20188" data-name="グループ 20188" transform="translate(4.735 12.499)">
          <path id="Path_35044" data-name="Path 35044" d="M1279.625,814.465a.655.655,0,0,1-.507-.249l-2.175-2.775a.654.654,0,0,1,.11-.918.654.654,0,0,1,.917.11l1.673,2.134,1.758-2.148a.654.654,0,0,1,1.012.829l-2.275,2.775a.657.657,0,0,1-.506.241Z" transform="translate(-1276.803 -810.38)" fill="#0181c0"/>
        </g>
      </g>
      <g id="グループ_20193" data-name="グループ 20193" transform="translate(22.15 14.071)">
        <g id="グループ_20190" data-name="グループ 20190">
          <path id="Path_35045" data-name="Path 35045" d="M1299.264,797.526a.654.654,0,0,1,0-1.308h12a.654.654,0,0,1,0,1.308Z" transform="translate(-1298.61 -796.218)" fill="#0181c0"/>
        </g>
        <g id="グループ_20191" data-name="グループ 20191" transform="translate(0.001 5.326)">
          <path id="Path_35046" data-name="Path 35046" d="M1299.264,805.7a.653.653,0,1,1,0-1.307h12a.653.653,0,1,1,0,1.307Z" transform="translate(-1298.611 -804.394)" fill="#0181c0"/>
        </g>
        <g id="グループ_20192" data-name="グループ 20192" transform="translate(0 10.652)">
          <path id="Path_35047" data-name="Path 35047" d="M1299.264,813.878a.654.654,0,1,1,0-1.308h12a.654.654,0,1,1,0,1.308Z" transform="translate(-1298.61 -812.57)" fill="#0181c0"/>
        </g>
      </g>
      <g id="グループ_20181" data-name="グループ 20181" transform="translate(11.618 9.172)">
        <path id="Path_35048" data-name="Path 35048" d="M1283.052,789.914a.608.608,0,0,1,0-1.217h14.5a.608.608,0,1,1,0,1.217Z" transform="translate(-1282.443 -788.697)" fill="#0181c0"/>
      </g>
      <path id="Path_35049" data-name="Path 35049" d="M1288.35,783.3v1.218h13.97v23.87h-36.494v-23.87h14V783.3h-15.215v26.307h38.93V783.3Z" transform="translate(-1264.609 -777.646)" fill="#0181c0"/>
    </g>
  </g>
</svg>
