<svg xmlns="http://www.w3.org/2000/svg" xmlns:xlink="http://www.w3.org/1999/xlink" width="80" height="80" viewBox="0 0 80 80">
  <defs>
    <clipPath id="clip-path">
      <rect id="Rectangle_14008" data-name="Rectangle 14008" width="80" height="80" fill="none"/>
    </clipPath>
  </defs>
  <g id="Group_22159" data-name="Group 22159" transform="translate(-773 -2122.957)">
    <g id="Group_22162" data-name="Group 22162" transform="translate(773 2122.957)">
      <g id="Group_22161" data-name="Group 22161" clip-path="url(#clip-path)">
        <path id="Path_36635" data-name="Path 36635" d="M49.02,33.886a2.906,2.906,0,1,1,2.906-2.907,2.91,2.91,0,0,1-2.906,2.907" fill="#fff"/>
        <path id="Rectangle_14004" data-name="Rectangle 14004" d="M1.46,0H2.6A1.461,1.461,0,0,1,4.06,1.461V4.642A1.46,1.46,0,0,1,2.6,6.1H1.46A1.46,1.46,0,0,1,0,4.642V1.46A1.46,1.46,0,0,1,1.46,0Z" transform="translate(47.127 6.054)" fill="#fff"/>
        <path id="Path_36636" data-name="Path 36636" d="M46.147,34.731a1.474,1.474,0,0,1-.378-.049A1.458,1.458,0,0,1,44.883,34l-.57-.987a1.461,1.461,0,0,1,.535-1.994l13.436-7.758a1.463,1.463,0,0,1,1.995.534l.569.988a1.448,1.448,0,0,1,.147,1.107,1.464,1.464,0,0,1-.679.887L46.878,34.536a1.456,1.456,0,0,1-.731.195" fill="#fff"/>
        <path id="Rectangle_14005" data-name="Rectangle 14005" d="M1.46,0H4.641A1.461,1.461,0,0,1,6.1,1.461V2.6A1.461,1.461,0,0,1,4.641,4.061H1.46A1.46,1.46,0,0,1,0,2.6V1.46A1.46,1.46,0,0,1,1.46,0Z" transform="translate(67.844 28.949)" fill="#fff"/>
        <rect id="Rectangle_14006" data-name="Rectangle 14006" width="4.06" height="6.101" rx="1.46" transform="translate(47.045 49.875)" fill="#fff"/>
        <rect id="Rectangle_14007" data-name="Rectangle 14007" width="6.101" height="4.06" rx="1.46" transform="translate(24.095 29.087)" fill="#fff"/>
        <path id="Path_36637" data-name="Path 36637" d="M50.952,36.217a1.489,1.489,0,0,1-.379-.05,1.453,1.453,0,0,1-.886-.68L40.469,19.523a1.462,1.462,0,0,1,.536-2l.987-.569a1.458,1.458,0,0,1,1.995.534l9.218,15.963a1.462,1.462,0,0,1-.536,1.995l-.987.57a1.451,1.451,0,0,1-.73.2" fill="#fff"/>
        <path id="Path_36638" data-name="Path 36638" d="M34.272,80c-.158,0-.315-.007-.475-.021a5.489,5.489,0,0,1-4.987-5.936,1.76,1.76,0,0,1,1.76-1.615l.169.008a1.766,1.766,0,0,1,1.6,1.916,1.944,1.944,0,0,0,1.764,2.1c.064.006.117.007.171.007A1.952,1.952,0,0,0,36.2,74.689a1.944,1.944,0,0,0-1.764-2.1,1.769,1.769,0,0,1,.153-3.532l.161.008A5.48,5.48,0,0,1,34.272,80" fill="#fff"/>
        <path id="Path_36639" data-name="Path 36639" d="M6.176,79.9a5.515,5.515,0,0,1-5.456-5A5.485,5.485,0,0,1,5.7,68.967l.168-.007A1.781,1.781,0,0,1,7.62,70.575a1.77,1.77,0,0,1-1.61,1.917,1.941,1.941,0,0,0,.167,3.874c.058,0,.114,0,.172-.008a1.943,1.943,0,0,0,1.763-2.1A1.769,1.769,0,0,1,9.72,72.34l.166-.006a1.782,1.782,0,0,1,1.752,1.615,5.487,5.487,0,0,1-4.983,5.935c-.163.014-.321.021-.479.021" fill="#fff"/>
        <path id="Path_36640" data-name="Path 36640" d="M49.02,0A31.015,31.015,0,0,0,18.04,30.979c0,.461.015.917.035,1.373l1.574-.435a5.854,5.854,0,0,1,1.536-.207,5.638,5.638,0,0,1,.972.086c-.008-.272-.021-.543-.021-.817A26.877,26.877,0,1,1,44.989,57.56a24.405,24.405,0,0,1-.632,4.049A30.981,30.981,0,1,0,49.02,0" fill="#fff"/>
        <path id="Path_36641" data-name="Path 36641" d="M20.5,76.375A20.6,20.6,0,0,1,0,57.222a1.763,1.763,0,0,1,.032-.472,2.357,2.357,0,0,1,.059-.359l2.531-9.636a3.258,3.258,0,0,1,.139-.3l.087-.14c.028-.041.128-.169.128-.169l7.235-7.288a2.981,2.981,0,0,1,.276-.192l.264-.145.051-.008,9.909-2.739a1.829,1.829,0,0,1,.471-.062,1.768,1.768,0,0,1,1.77,1.769V55.333H30.5V49.41a6.84,6.84,0,0,1,6.833-6.834h3.06a1.77,1.77,0,0,1,0,3.54h-3.06a3.3,3.3,0,0,0-3.294,3.294v5.923h5.2A1.771,1.771,0,0,1,41,57.224,20.6,20.6,0,0,1,20.5,76.375M3.888,59.478a17.012,17.012,0,0,0,33.23,0l.132-.606H3.756Zm.143-4.145H14.666L5.432,50Zm3.154-8.406,9.08,5.242-5.251-9.1Zm6.881-5.645,5.349,9.266V39.8Z" fill="#fff"/>
      </g>
    </g>
  </g>
</svg>
