<svg id="devices_other-24px" xmlns="http://www.w3.org/2000/svg" width="30" height="24" viewBox="0 0 30 24">
  <path id="Path_16753" data-name="Path 16753" d="M0,0H24V24H0Z" fill="none"/>
  <path id="Path_16754" data-name="Path 16754" d="M3.727,6.727H28.273V4H3.727A2.735,2.735,0,0,0,1,6.727V23.091a2.735,2.735,0,0,0,2.727,2.727H9.182V23.091H3.727Zm13.636,8.182H11.909v2.427a4.042,4.042,0,0,0,0,6.055v2.427h5.455V23.391a4.042,4.042,0,0,0,0-6.055Zm-2.727,7.5a2.045,2.045,0,1,1,2.045-2.045A2.043,2.043,0,0,1,14.636,22.409Zm15-12.955H21.455a1.466,1.466,0,0,0-1.364,1.364V24.455a1.466,1.466,0,0,0,1.364,1.364h8.182A1.466,1.466,0,0,0,31,24.455V10.818A1.466,1.466,0,0,0,29.636,9.455ZM28.273,23.091H22.818V12.182h5.455Z" transform="translate(-1 -3)" fill="#fff"/>
</svg>
