<svg xmlns="http://www.w3.org/2000/svg" width="44.068" height="44.069" viewBox="0 0 44.068 44.069">
  <path id="Path_34976" data-name="Path 34976" d="M1191.366,502.369v-2.637h1.883v-4.9H1179.5a3.2,3.2,0,0,1-3.2-3.2V467.151a3.206,3.206,0,0,1,3.2-3.2h18.268v2.637h-18.833v18.079h38.8V480.9h2.636v10.735a3.2,3.2,0,0,1-3.2,3.2h-13.748v4.9h1.883v2.637Zm4.52-2.637h4.9v-4.9h-4.9Zm-16.949-7.533h38.8v-4.9h-38.8Zm4.9-12.429v-2.637h19.586v2.637Zm31.059-5.5-.386.256a8.879,8.879,0,1,1,2.5-2.5l-.256.386,2.829,2.827-1.864,1.863Zm-5.258-13.335a6.215,6.215,0,1,0,6.215,6.215A6.222,6.222,0,0,0,1209.634,460.937Zm-25.8,13.183v-2.637h13.936v2.637Z" transform="translate(-1176.3 -458.3)" fill="#fff"/>
</svg>
