<svg xmlns="http://www.w3.org/2000/svg" width="58" height="79" viewBox="0 0 58 79">
  <g id="Group_16854" data-name="Group 16854" transform="translate(-301 -2968)">
    <rect id="Rectangle_11534" data-name="Rectangle 11534" width="58" height="79" rx="6" transform="translate(301 2968)" fill="#ccc"/>
    <path id="Path_17023" data-name="Path 17023" d="M432.354,761.137h-36.1a.782.782,0,0,1-.784-.78V739.465a7.042,7.042,0,0,1,7.032-7.032h23.6a7.04,7.04,0,0,1,7.032,7.032v20.891A.779.779,0,0,1,432.354,761.137Zm-35.323-1.564h34.543V739.465A5.477,5.477,0,0,0,426.1,734H402.5a5.474,5.474,0,0,0-5.468,5.468Z" transform="translate(-84.24 2276.884)" fill="#fff" stroke="#fff" stroke-width="1"/>
    <path id="Path_17024" data-name="Path 17024" d="M424.46,751.267h-24.2a3.911,3.911,0,0,1-3.908-3.9V726.219a3.911,3.911,0,0,1,3.908-3.908h24.2a3.912,3.912,0,0,1,3.908,3.908v21.144A3.911,3.911,0,0,1,424.46,751.267Zm-24.2-27.393a2.348,2.348,0,0,0-2.344,2.344v21.144a2.347,2.347,0,0,0,2.344,2.344h24.2a2.347,2.347,0,0,0,2.344-2.344V726.219a2.348,2.348,0,0,0-2.344-2.344Z" transform="translate(-82.298 2254.637)" fill="#fff" stroke="#fff" stroke-width="1"/>
    <path id="Rectangle_11535" data-name="Rectangle 11535" d="M1,0H29.452a1,1,0,0,1,1,1V8.662a0,0,0,0,1,0,0H0a0,0,0,0,1,0,0V1A1,1,0,0,1,1,0Z" transform="translate(314.835 2977.73)" fill="#fff"/>
    <path id="Path_17025" data-name="Path 17025" d="M406.834,750.51a7.969,7.969,0,1,1,7.969-7.969A7.976,7.976,0,0,1,406.834,750.51Zm0-14.061a6.094,6.094,0,1,0,6.1,6.092A6.1,6.1,0,0,0,406.834,736.449Z" transform="translate(-76.772 2281.585)" fill="#fff" stroke="#fff" stroke-width="1"/>
  </g>
</svg>
