<svg xmlns="http://www.w3.org/2000/svg" xmlns:xlink="http://www.w3.org/1999/xlink" width="140" height="140" viewBox="0 0 140 140">
  <defs>
    <clipPath id="clip-path">
      <rect id="Rectangle_11219" data-name="Rectangle 11219" width="60" height="60" fill="#0181c0"/>
    </clipPath>
  </defs>
  <g id="Group_16393" data-name="Group 16393" transform="translate(-1327 -3737)">
    <g id="Ellipse_683" data-name="Ellipse 683" transform="translate(1327 3737)" fill="#fff" stroke="#0181c0" stroke-width="2">
      <circle cx="70" cy="70" r="70" stroke="none"/>
      <circle cx="70" cy="70" r="69" fill="none"/>
    </g>
    <g id="Group_16330" data-name="Group 16330" transform="translate(1367 3777)">
      <g id="Group_16307" data-name="Group 16307" transform="translate(0 0)" clip-path="url(#clip-path)">
        <path id="Path_16495" data-name="Path 16495" d="M59.236,25.362l-7.11-.623a23.311,23.311,0,0,0-2.707-6.735l4.534-5.4a.831.831,0,0,0-.05-1.125L48.52,6.094A.831.831,0,0,0,47.4,6.046L42.18,10.424a23.208,23.208,0,0,0-6.971-3.115L34.637.761A.833.833,0,0,0,33.806,0H26.194a.838.838,0,0,0-.833.761L24.82,6.967a23.185,23.185,0,0,0-7.633,2.924L12.6,6.046a.834.834,0,0,0-1.127.048L6.1,11.479a.831.831,0,0,0-.05,1.125L9.739,17a23.178,23.178,0,0,0-3.367,7.868l-5.61.491A.831.831,0,0,0,0,26.191v7.616a.834.834,0,0,0,.761.831l5.61.489a23.178,23.178,0,0,0,3.367,7.868l-3.694,4.4a.834.834,0,0,0,.05,1.127L11.477,53.9a.838.838,0,0,0,1.127.05l4.582-3.847a23.185,23.185,0,0,0,7.633,2.924l.541,6.206a.836.836,0,0,0,.833.761h7.612a.831.831,0,0,0,.831-.761l.572-6.548a23.306,23.306,0,0,0,6.971-3.113L47.4,53.954a.831.831,0,0,0,1.125-.05L53.9,48.521a.834.834,0,0,0,.05-1.127l-4.534-5.4a23.287,23.287,0,0,0,2.707-6.735l7.11-.62A.836.836,0,0,0,60,33.807V26.191a.833.833,0,0,0-.763-.829m-.905,7.679-6.963.607a.836.836,0,0,0-.745.666,21.6,21.6,0,0,1-2.933,7.307.831.831,0,0,0,.066.982l4.428,5.277-4.3,4.3L42.768,47.89a.836.836,0,0,0-1.015-.044,21.586,21.586,0,0,1-7.513,3.365.828.828,0,0,0-.64.739l-.559,6.382H26.957l-.531-6.081a.834.834,0,0,0-.7-.752,21.552,21.552,0,0,1-8.168-3.122.83.83,0,0,0-.984.064l-4.459,3.742-4.3-4.3,3.611-4.3a.836.836,0,0,0,.042-1.019,21.557,21.557,0,0,1-3.589-8.374.834.834,0,0,0-.745-.671l-5.465-.476V26.956l5.465-.476a.834.834,0,0,0,.745-.671,21.58,21.58,0,0,1,3.589-8.377.833.833,0,0,0-.042-1.017l-3.611-4.3,4.3-4.3,4.459,3.742a.834.834,0,0,0,.984.064A21.566,21.566,0,0,1,25.729,8.5a.834.834,0,0,0,.7-.752l.531-6.081h6.084L33.6,8.048a.833.833,0,0,0,.64.741,21.541,21.541,0,0,1,7.513,3.363.839.839,0,0,0,1.015-.044L47.88,7.815l4.3,4.3-4.428,5.277a.831.831,0,0,0-.066.982,21.618,21.618,0,0,1,2.933,7.307.831.831,0,0,0,.745.666l6.963.607Z" transform="translate(0.001 0.001)" fill="#0181c0"/>
        <path id="Path_16496" data-name="Path 16496" d="M21.658,7A14.664,14.664,0,1,0,36.322,21.659,14.68,14.68,0,0,0,21.658,7m0,27.66a13,13,0,1,1,13-13,13.01,13.01,0,0,1-13,13" transform="translate(8.341 8.341)" fill="#1c5472"/>
      </g>
    </g>
  </g>
</svg>
