<svg xmlns="http://www.w3.org/2000/svg" width="51.155" height="51.173" viewBox="0 0 51.155 51.173">
  <g id="Group_16773" data-name="Group 16773" transform="translate(-3367.149 -452.902)">
    <path id="Union_10" data-name="Union 10" d="M9.881,50.173a9.8,9.8,0,0,1-4.2-.939.536.536,0,0,1-.149-.861l5.748-5.748a1.521,1.521,0,0,0,0-2.145L9.546,38.743a1.554,1.554,0,0,0-2.143,0l-5.69,5.69a.533.533,0,0,1-.377.156.57.57,0,0,1-.488-.321A9.818,9.818,0,0,1,2.907,33.3a9.976,9.976,0,0,1,7.011-2.894,9.792,9.792,0,0,1,2.1.227l17.023-16.9a10.346,10.346,0,0,1,2.719-9.283,9.962,9.962,0,0,1,7-2.89,9.744,9.744,0,0,1,4.2.94.529.529,0,0,1,.3.389.547.547,0,0,1-.151.471L37.362,9.11a1.517,1.517,0,0,0,0,2.145L39.1,12.995a1.519,1.519,0,0,0,2.143,0L46.93,7.306a.528.528,0,0,1,.377-.156.572.572,0,0,1,.49.319,9.822,9.822,0,0,1-2.059,10.966A9.94,9.94,0,0,1,36.629,21.1L19.606,38a10.353,10.353,0,0,1-2.716,9.283,9.968,9.968,0,0,1-7,2.891ZM10.3,37.989l1.736,1.737a2.586,2.586,0,0,1,0,3.653L6.85,48.571l.293.1a8.791,8.791,0,0,0,2.745.439,8.815,8.815,0,0,0,8.54-11.062.536.536,0,0,1,.139-.514L35.983,20.111a.548.548,0,0,1,.379-.156,9.833,9.833,0,0,0,2.367.305,8.9,8.9,0,0,0,6.252-2.581A8.781,8.781,0,0,0,47.2,8.941l-.091-.305L42,13.749a2.658,2.658,0,0,1-3.655,0L36.6,12.013a2.593,2.593,0,0,1,0-3.656L41.8,3.165,41.5,3.07a8.778,8.778,0,0,0-2.748-.44,8.815,8.815,0,0,0-8.535,11.064.538.538,0,0,1-.139.512L12.66,31.625a.533.533,0,0,1-.379.156,9.915,9.915,0,0,0-2.367-.3,8.889,8.889,0,0,0-6.251,2.579A8.789,8.789,0,0,0,1.44,42.8l.093.3,5.113-5.113a2.661,2.661,0,0,1,3.658,0ZM39.369,48.823,25.886,35.1a6.325,6.325,0,0,1-.572-1.307.519.519,0,0,1,.025-.408.537.537,0,0,1,.31-.271c.031,0,.064,0,.093,0a.542.542,0,0,1,.584.341,9.206,9.206,0,0,0,.367.931L39.875,47.816c1.677-.207,6.77-1.609,8.956-8.7l.034-.111-12.71-12.7c-.256-.156-.9-.536-1.6-.893a.534.534,0,0,1,.245-1.009.514.514,0,0,1,.245.06c.817.42,1.556.86,1.683.934L49.845,38.476A.542.542,0,0,1,49.98,39c-2.62,9.225-9.878,9.955-10.187,9.981l-.044,0A.532.532,0,0,1,39.369,48.823Zm2.212-2.86-9.211-9.208a.536.536,0,0,1,.38-.913.528.528,0,0,1,.377.159l9.208,9.207a.534.534,0,0,1-.378.911A.523.523,0,0,1,41.581,45.963Zm2.867-1.76L31.694,31.45a.53.53,0,0,1-.156-.375.536.536,0,0,1,.913-.379L45.2,43.45a.536.536,0,0,1,0,.754.53.53,0,0,1-.754,0Zm1.758-2.868L37,32.127a.536.536,0,0,1,.382-.913.524.524,0,0,1,.374.16l9.211,9.206a.535.535,0,0,1-.757.756ZM18.2,21.358,7.36,10.017,4.608,8.429a.54.54,0,0,1-.17-.151L1.354,4.006a.53.53,0,0,1,.057-.689L4.568.157A.54.54,0,0,1,4.947,0a.521.521,0,0,1,.3.089L9.26,2.731a.529.529,0,0,1,.17.181L11.2,6.023,22.426,17.455a.534.534,0,0,1-.007.756.527.527,0,0,1-.374.152.517.517,0,0,1-.38-.16L10.4,6.743,8.59,3.593,5.018,1.22,2.487,3.752,5.213,7.527,7.939,9.108,18.971,20.62a.539.539,0,0,1,.149.38.522.522,0,0,1-.168.374.516.516,0,0,1-.367.149A.534.534,0,0,1,18.2,21.358Z" transform="translate(3367.798 453.402)" fill="#fff" stroke="rgba(0,0,0,0)" stroke-miterlimit="10" stroke-width="1"/>
  </g>
</svg>
