<svg id="account_circle-24px" xmlns="http://www.w3.org/2000/svg" width="80" height="80" viewBox="0 0 80 80">
  <path id="Path_16758" data-name="Path 16758" d="M0,0H24V24H0Z" fill="none"/>
  <path id="Path_16759" data-name="Path 16759" d="M42,2A40,40,0,1,0,82,42,40.015,40.015,0,0,0,42,2Zm0,12A12,12,0,1,1,30,26,11.984,11.984,0,0,1,42,14Zm0,56.8A28.8,28.8,0,0,1,18,57.92c.12-7.96,16-12.32,24-12.32,7.96,0,23.88,4.36,24,12.32A28.8,28.8,0,0,1,42,70.8Z" transform="translate(-2 -2)" fill="#ccc"/>
</svg>
