<svg xmlns="http://www.w3.org/2000/svg" width="140" height="140" viewBox="0 0 140 140">
  <g id="Group_17317" data-name="Group 17317" transform="translate(-890 -4176)">
    <circle id="Ellipse_679" data-name="Ellipse 679" cx="70" cy="70" r="70" transform="translate(890 4176)" fill="#f6f6f6"/>
    <g id="Group_17058" data-name="Group 17058" transform="translate(-1415.573 2404.032)">
      <path id="Path_16960" data-name="Path 16960" d="M2346.217,1810.2v40.89a1.018,1.018,0,0,0,1.019,1.017h28.911a1.018,1.018,0,0,0,1.019-1.017V1810.2a1.019,1.019,0,0,0-1.019-1.017h-28.911A1.019,1.019,0,0,0,2346.217,1810.2Zm2.039,1.02h26.872v38.851h-26.872Z" transform="translate(12.809 10.407)" fill="#0181c0"/>
      <path id="Path_16961" data-name="Path 16961" d="M2348.831,1813.694h5.118a1.018,1.018,0,1,0,0-2.036h-5.118a1.018,1.018,0,0,0,0,2.036Z" transform="translate(15.485 14.561)" fill="#0181c0"/>
      <path id="Path_16962" data-name="Path 16962" d="M2348.831,1817.486h20.153a1.018,1.018,0,1,0,0-2.036h-20.153a1.018,1.018,0,0,0,0,2.036Z" transform="translate(15.485 20.915)" fill="#0181c0"/>
      <path id="Path_16963" data-name="Path 16963" d="M2348.831,1819.383h20.153a1.018,1.018,0,1,0,0-2.036h-20.153a1.018,1.018,0,0,0,0,2.036Z" transform="translate(15.485 24.092)" fill="#0181c0"/>
      <path id="Path_16964" data-name="Path 16964" d="M2370,1820.262a1.018,1.018,0,0,0-1.02-1.02h-20.153a1.018,1.018,0,0,0,0,2.037h20.153A1.017,1.017,0,0,0,2370,1820.262Z" transform="translate(15.485 27.269)" fill="#0181c0"/>
      <path id="Path_16965" data-name="Path 16965" d="M2359.317,1821.98h-4.585a1.019,1.019,0,1,0,0,2.039h4.585a1.019,1.019,0,0,0,0-2.039Z" transform="translate(25.368 31.857)" fill="#0181c0"/>
      <path id="Path_16966" data-name="Path 16966" d="M2340.209,1841.449h.045a1.019,1.019,0,0,0,1.017-.974,32.972,32.972,0,0,1,38.936-30.845l-3.321,1.868a1.017,1.017,0,0,0,.5,1.905,1.029,1.029,0,0,0,.5-.129l5.683-3.2,0,0a.972.972,0,0,0,.3-.265.8.8,0,0,0,.054-.107.946.946,0,0,0,.123-.249l0-.008,0-.008a1.144,1.144,0,0,0,.008-.163.966.966,0,0,0,.008-.235.86.86,0,0,0-.045-.134.934.934,0,0,0-.091-.241l-.008-.021-3.307-5.2a1.019,1.019,0,0,0-1.721,1.091l2.015,3.168a34.993,34.993,0,0,0-41.679,32.683A1.018,1.018,0,0,0,2340.209,1841.449Z" transform="translate(1.112)" fill="#0181c0"/>
      <path id="Path_16967" data-name="Path 16967" d="M2392.852,1840.716a33.033,33.033,0,0,1-29.568,2.678,32.521,32.521,0,0,1-18.915-19.57l3.184,1.953a1.018,1.018,0,0,0,1.065-1.736l-5.554-3.412-.013,0a1,1,0,0,0-.785-.113,1.009,1.009,0,0,0-.364.182.59.59,0,0,0-.045.053,1.014,1.014,0,0,0-.215.251l-.008.011-2.938,5.421a1.019,1.019,0,0,0,1.791.971l1.816-3.35a34.534,34.534,0,0,0,20.239,21.237,35.441,35.441,0,0,0,12.915,2.437,34.634,34.634,0,0,0,18.481-5.29,1.018,1.018,0,1,0-1.086-1.723Z" transform="translate(0 29.344)" fill="#0181c0"/>
      <path id="Path_16968" data-name="Path 16968" d="M2371.868,1859.169l-3.8.1a34.992,34.992,0,0,0-7.832-52.727,1.018,1.018,0,1,0-1.07,1.731,32.977,32.977,0,0,1,7.663,49.329l.1-3.74a1.019,1.019,0,1,0-2.036-.054l-.176,6.515,0,.019.006.032a1.005,1.005,0,0,0,1.011,1h.027l6.162-.166a1.017,1.017,0,0,0,.99-1.046A1,1,0,0,0,2371.868,1859.169Z" transform="translate(33.693 5.734)" fill="#0181c0"/>
    </g>
  </g>
</svg>
