<svg xmlns="http://www.w3.org/2000/svg" width="37.071" height="46.042" viewBox="0 0 37.071 46.042">
  <g id="Group_17935" data-name="Group 17935" transform="translate(-487.812 -6543.197)">
    <g id="e0225_1" transform="translate(487.812 6543.197)">
      <path id="Path_30890" data-name="Path 30890" d="M52.446,32.08C50.768,26.264,45.237,20,34.659,20S18.55,26.264,16.872,32.08c-1.805,6.246-.557,14.679,6.016,19.822,7.918,6.191,10.208,9,11.026,13.17.145.727.509.969.745.969s.6-.236.745-.969c.818-4.174,3.108-6.979,11.026-13.17C53,46.759,54.245,38.332,52.446,32.08Z" transform="translate(-16.122 -20)" fill="#1c5472"/>
    </g>
    <path id="Path_34977" data-name="Path 34977" d="M11.73.855V-.51l-1.155-.855A5.008,5.008,0,0,0,11.4-4.32V-6.705c0-3.465-1.59-4.95-4.965-4.95h-.75C2.3-11.655.72-10.17.72-6.705V-4.32C.72-.855,2.3.615,5.685.615h1.8V-.675h-1.8c-2.4,0-3.675-.99-3.675-3.645V-6.705c0-2.655,1.275-3.63,3.675-3.63h.75c2.4,0,3.66.975,3.66,3.63V-4.32a4.433,4.433,0,0,1-.48,2.22L5.85-4.95v1.365Z" transform="translate(500.121 6565.871)" fill="#fff" stroke="#fff" stroke-width="0.5"/>
  </g>
</svg>
