<svg xmlns="http://www.w3.org/2000/svg" xmlns:xlink="http://www.w3.org/1999/xlink" width="74" height="74" viewBox="0 0 74 74">
  <defs>
    <clipPath id="clip-path">
      <rect id="Rectangle_11524" data-name="Rectangle 11524" width="74" height="74" transform="translate(0.004 0)" fill="#ccc"/>
    </clipPath>
  </defs>
  <g id="Group_16822" data-name="Group 16822" transform="translate(-0.004 0)" clip-path="url(#clip-path)">
    <path id="Path_16859" data-name="Path 16859" d="M1.085,11.242a.508.508,0,0,0-.113.184A17.15,17.15,0,0,0,23.384,33.1c1.041,1.2,2.137,2.458,3.243,3.729,3.427-3.349,6.755-6.808,10.145-10.192L33.1,23.395A17.154,17.154,0,0,0,11.426.972a.458.458,0,0,0-.175.1.622.622,0,0,0-.037.841l9.963,9.961a1.707,1.707,0,0,1-.011,2.434l-6.857,6.863a1.711,1.711,0,0,1-2.434,0L1.92,11.216a.6.6,0,0,0-.834.027" transform="translate(-0.001 0)" fill="#ccc"/>
    <path id="Path_16860" data-name="Path 16860" d="M32.175,20.689c-3.667,4.021-7.646,7.748-11.5,11.6,6.94,7.907,14.146,16.051,20.247,22.817,3.708,4.118,10.281,3.924,14.2,0s4.157-10.53,0-14.2ZM43.822,43.808a5.882,5.882,0,1,1,0,8.319,5.883,5.883,0,0,1,0-8.319" transform="translate(15.862 15.875)" fill="#ccc"/>
    <path id="Path_16861" data-name="Path 16861" d="M.53,52.857a5.578,5.578,0,0,0,1.633,4.01l3.118,3.119a5.693,5.693,0,0,0,8.027-.03L32.055,41.231a5.974,5.974,0,0,0,1.587-4.917l12.384-12.38a3.958,3.958,0,0,0,.072-5.511l-2.356-2.351a3.936,3.936,0,0,0-5.491.081L25.862,28.54a5.331,5.331,0,0,0-4.9,1.557L2.2,48.847A5.688,5.688,0,0,0,.53,52.857" transform="translate(0.406 11.508)" fill="#ccc"/>
    <path id="Path_16862" data-name="Path 16862" d="M25.467,24.626,29.4,28.555,42.775,15.171l.117.118a.733.733,0,0,0,1.045,0l9.379-9.378a.738.738,0,0,0,0-1.041L49.144.7a.734.734,0,0,0-1.037,0l-9.379,9.379a.742.742,0,0,0,0,1.045l.122.124c-4.866,4.866-9.084,9.081-13.382,13.377" transform="translate(19.542 0.373)" fill="#ccc"/>
  </g>
</svg>
