<svg xmlns="http://www.w3.org/2000/svg" xmlns:xlink="http://www.w3.org/1999/xlink" width="169.8" height="120" viewBox="0 0 169.8 120">
  <defs>
    <linearGradient id="linear-gradient" x1="0.21" y1="1" x2="0.856" y2="1" gradientUnits="objectBoundingBox">
      <stop offset="0" stop-color="#0ec6dd"/>
      <stop offset="1" stop-color="#0e4e80"/>
    </linearGradient>
  </defs>
  <path id="Path_16751" data-name="Path 16751" d="M263.565,334.319c-12.918,0-23.282-3.96-30.805-11.757h0c-7.524-7.8-11.334-18.68-11.334-32.349a93.584,93.584,0,0,1,7.674-38.125c5.107-11.525,12.317-20.8,21.438-27.556a51.612,51.612,0,0,1,31.379-10.214c12.918,0,23.282,3.96,30.806,11.757s11.32,18.693,11.32,32.349a93.67,93.67,0,0,1-7.66,38.125c-5.107,11.538-12.317,20.8-21.438,27.556A51.614,51.614,0,0,1,263.565,334.319Zm18.352-118.634a50.239,50.239,0,0,0-30.56,9.941c-8.93,6.623-16,15.7-21,27.01a92.113,92.113,0,0,0-7.579,37.579c0,13.3,3.687,23.869,10.965,31.393h0c7.264,7.538,17.287,11.348,29.822,11.348a50.242,50.242,0,0,0,30.56-9.941c8.93-6.623,15.99-15.7,21-27.01a92.234,92.234,0,0,0,7.565-37.579c0-13.286-3.686-23.855-10.951-31.393S294.439,215.685,281.918,215.685ZM266.023,311.87c-5.653,0-10.091-1.871-13.218-5.571-3.1-3.646-4.67-9.285-4.67-16.741a83.63,83.63,0,0,1,3.632-23.7,55.988,55.988,0,0,1,10.706-20.647c4.752-5.6,10.474-8.439,16.987-8.439,5.64,0,10.091,1.884,13.218,5.571,3.1,3.66,4.67,9.3,4.67,16.741a84.422,84.422,0,0,1-3.632,23.7,56.065,56.065,0,0,1-10.706,20.646h0C278.245,309.03,272.537,311.87,266.023,311.87Zm13.436-73.737c-6.1,0-11.47,2.676-15.949,7.961a54.692,54.692,0,0,0-10.432,20.141,82.523,82.523,0,0,0-3.591,23.323c0,7.128,1.475,12.467,4.356,15.867s6.882,5.08,12.18,5.08c6.09,0,11.457-2.676,15.949-7.947l.519.437-.519-.437A55.058,55.058,0,0,0,292.4,282.4a82.7,82.7,0,0,0,3.578-23.323c0-7.114-1.461-12.453-4.342-15.853C288.786,239.84,284.69,238.134,279.46,238.134Zm88.553,94.219H340.075l.164-.819,18.5-92.581H335.814l.164-.819,4.37-21.848h50.878l-.164.819Zm-26.272-1.365h25.153L389.56,217.651H341.467l-3.987,19.936h22.927l-.164.819Z" transform="translate(-221.426 -214.319)" fill="url(#linear-gradient)"/>
</svg>
