<svg xmlns="http://www.w3.org/2000/svg" width="61" height="58.231" viewBox="0 0 61 58.231">
  <path id="Union_16" data-name="Union 16" d="M51.991,57.07l-6.145-6.148-.2.061a27.924,27.924,0,0,1-7.91,1.131c-7.383,0-14.271-2.843-18.424-7.6a.516.516,0,0,1-.128-.39.534.534,0,0,1,.535-.5.541.541,0,0,1,.407.185c3.951,4.526,10.532,7.231,17.609,7.231A26.614,26.614,0,0,0,45.831,49.8a.878.878,0,0,1,.131-.007.527.527,0,0,1,.414.138l5.461,5.461V47.177a.545.545,0,0,1,.229-.437c4.358-3.079,6.858-7.45,6.858-11.989a13.582,13.582,0,0,0-3.187-8.584.54.54,0,1,1,.842-.676A14.66,14.66,0,0,1,60,34.75c0,4.745-2.53,9.338-6.945,12.6l-.142.1,0,9.233a.539.539,0,0,1-.334.5l-.208.04A.546.546,0,0,1,51.991,57.07ZM9.041,48.657a.537.537,0,0,1-.336-.5V36.752l-.146-.1C3.123,32.654,0,27.027,0,21.206,0,9.513,12.215,0,27.226,0S54.452,9.513,54.452,21.206s-12.213,21.2-27.227,21.2a34.06,34.06,0,0,1-9.793-1.417l-.2-.057-7.6,7.608a.57.57,0,0,1-.384.158A.5.5,0,0,1,9.041,48.657ZM1.076,21.206c0,5.616,3.092,11.023,8.48,14.829a.542.542,0,0,1,.225.475V46.86L16.7,39.939a.544.544,0,0,1,.384-.155,34.009,34.009,0,0,0,10.142,1.548c14.419,0,26.148-9.028,26.148-20.126S41.645,1.08,27.226,1.08,1.076,10.108,1.076,21.206Zm10.637,5.162a.538.538,0,0,1,0-1.077H30.025a.538.538,0,0,1,0,1.077Zm0-9.247a.538.538,0,0,1,0-1.077H42.741a.538.538,0,0,1,0,1.077Z" transform="translate(0.5 0.5)" fill="#444" stroke="rgba(0,0,0,0)" stroke-miterlimit="10" stroke-width="1"/>
</svg>
