<svg xmlns="http://www.w3.org/2000/svg" xmlns:xlink="http://www.w3.org/1999/xlink" width="140" height="140" viewBox="0 0 140 140">
  <defs>
    <clipPath id="clip-path">
      <rect id="Rectangle_11217" data-name="Rectangle 11217" width="57.229" height="60" fill="#0181c0"/>
    </clipPath>
  </defs>
  <g id="Group_16388" data-name="Group 16388" transform="translate(-453 -3181)">
    <g id="Group_16385" data-name="Group 16385" transform="translate(10 -460)">
      <g id="Ellipse_678" data-name="Ellipse 678" transform="translate(443 3641)" fill="#fff" stroke="#0181c0" stroke-width="2">
        <circle cx="70" cy="70" r="70" stroke="none"/>
        <circle cx="70" cy="70" r="69" fill="none"/>
      </g>
      <g id="Group_16318" data-name="Group 16318" transform="translate(485 3681)">
        <g id="Group_16303" data-name="Group 16303" transform="translate(0 0)" clip-path="url(#clip-path)">
          <path id="Path_16488" data-name="Path 16488" d="M29.1,43.54H1.8V13.463H8.52v-1.8H1.8V9.991A3.549,3.549,0,0,1,5.649,6.534h.1v-1.8h-.1A5.342,5.342,0,0,0,0,9.991V48a5.656,5.656,0,0,0,5.649,5.649H24.655C27.6,53.652,30.9,51.235,30.9,48V32.659H29.1Zm-4.446,8.314H5.649A3.856,3.856,0,0,1,1.8,48V45.338H29.1V48c0,2.169-2.389,3.852-4.446,3.852" transform="translate(0 6.347)" fill="#1c5472"/>
          <rect id="Rectangle_11216" data-name="Rectangle 11216" width="4.156" height="1.797" transform="translate(12.679 54.044)" fill="#1c5472"/>
          <path id="Path_16489" data-name="Path 16489" d="M43.573,0H13.217C8.7,0,4.737,3.618,4.737,7.741v13.8c0,4.172,4.044,7.973,8.48,7.973h1.222v10.17l9.517-10.17H43.573c4.165,0,7.308-3.428,7.308-7.973V7.741C50.881,3.328,47.739,0,43.573,0m5.511,21.538c0,3.522-2.368,6.178-5.511,6.178h-20.4l-6.941,7.416V27.716H13.217c-3.435,0-6.683-3-6.683-6.178V7.741c0-3.4,3.529-5.946,6.683-5.946H43.573c3.194,0,5.511,2.5,5.511,5.946Z" transform="translate(6.348 -0.001)" fill="#0181c0"/>
        </g>
      </g>
    </g>
  </g>
</svg>
