<svg xmlns="http://www.w3.org/2000/svg" xmlns:xlink="http://www.w3.org/1999/xlink" width="15.518" height="14" viewBox="0 0 15.518 14">
  <defs>
    <clipPath id="clip-path">
      <rect id="Rectangle_6638" data-name="Rectangle 6638" width="15.518" height="14" transform="translate(0 0)" fill="#111"/>
    </clipPath>
  </defs>
  <g id="Group_14673" data-name="Group 14673" transform="translate(0 0)">
    <g id="Group_14672" data-name="Group 14672" transform="translate(0 0)" clip-path="url(#clip-path)">
      <path id="Path_8980" data-name="Path 8980" d="M3.329,2.8V.379A.377.377,0,0,1,3.706,0H4.949a.378.378,0,0,1,.378.378V2.8a.378.378,0,0,1-.378.378H3.706A.378.378,0,0,1,3.329,2.8m7.234.378h1.243a.378.378,0,0,0,.378-.378V.379A.377.377,0,0,0,11.806,0H10.563a.378.378,0,0,0-.378.378V2.8a.378.378,0,0,0,.378.378m4.955.986a.377.377,0,0,1-.013.094.377.377,0,0,1,.013.094v9.272a.378.378,0,0,1-.378.378H.378A.378.378,0,0,1,0,13.623V4.351a.377.377,0,0,1,.013-.094A.377.377,0,0,1,0,4.163V1.742a.378.378,0,0,1,.378-.378H2.148a.378.378,0,0,1,.378.378V3.974H6.1V1.742a.378.378,0,0,1,.378-.378H9.015a.378.378,0,0,1,.378.378V3.974h3.6V1.742a.378.378,0,0,1,.378-.378h1.771a.378.378,0,0,1,.378.378ZM5.125,9.6H2.779V11.95H5.125Zm0-3.729H2.779V8.221H5.125ZM8.935,9.6H6.589V11.95H8.935Zm0-3.729H6.589V8.221H8.935ZM12.745,9.6H10.4V11.95h2.346Zm0-3.729H10.4V8.221h2.346Z" transform="translate(0 -0.001)" fill="#111"/>
    </g>
  </g>
</svg>
