<svg xmlns="http://www.w3.org/2000/svg" width="80" height="80" viewBox="0 0 80 80">
  <g id="Group_16504" data-name="Group 16504" transform="translate(-520 -1499)">
    <g id="Ellipse_700" data-name="Ellipse 700" transform="translate(520 1499)" fill="#fff" stroke="#0181c0" stroke-width="3">
      <circle cx="40" cy="40" r="40" stroke="none"/>
      <circle cx="40" cy="40" r="38.5" fill="none"/>
    </g>
    <path id="Path_16568" data-name="Path 16568" d="M8.73-9.162a5.1,5.1,0,0,1,.864,1.224c.126-.054.252-.126.378-.18A9.771,9.771,0,0,1,8.73-4.608ZM5.958-4.716V-6.21H6.984v1.494ZM3.528-6.21H4.554v1.494H3.51c.018-.414.018-.81.018-1.188Zm1.89-5.742c-.162.45-.324.918-.5,1.314H3.366c.216-.414.414-.864.612-1.314Zm.54,2.88H6.984v1.35H5.958Zm-2.43,0H4.554v1.35H3.528Zm13.914,5.76h-3.06v-1.62h2.7v-1.8h-2.7v-1.62H12.348v1.62h-.882c.108-.378.18-.774.252-1.152l-1.6-.324a5.481,5.481,0,0,0,2.826-4.374H15.03a5.641,5.641,0,0,1-.324,2.3.533.533,0,0,1-.486.2c-.252,0-.738-.018-1.3-.072a4.267,4.267,0,0,1,.486,1.728,13.293,13.293,0,0,0,1.818-.054,1.6,1.6,0,0,0,1.1-.594c.4-.468.54-1.71.63-4.572.018-.234.036-.684.036-.684H9v1.746h2.016A3.77,3.77,0,0,1,8.73-9.54v-1.1H6.714a20.2,20.2,0,0,0,.99-2.268L6.48-13.662l-.27.09H4.572c.144-.414.27-.846.378-1.278l-1.89-.4A12.6,12.6,0,0,1,.4-9.72,11.6,11.6,0,0,1,1.8-8.568V-5.9c0,2.016-.09,4.7-1.3,6.552A7.4,7.4,0,0,1,1.98,1.6,11.216,11.216,0,0,0,3.4-3.132H6.984V-.54c0,.234-.09.306-.306.306S5.76-.234,5.04-.27a5.713,5.713,0,0,1,.612,1.818,5.06,5.06,0,0,0,2.394-.36C8.586.882,8.73.342,8.73-.5V-4.3a10.061,10.061,0,0,1,1.4.756,7.677,7.677,0,0,0,.72-1.386h1.494v1.62H9.018v1.836h3.33v2.97h2.034v-2.97h3.06Zm6.57-10.08a14.232,14.232,0,0,0-3.258-1.782l-1.17,1.6a12.36,12.36,0,0,1,3.186,1.944ZM23.022-8.6a12.559,12.559,0,0,0-3.33-1.71l-1.134,1.6a13.98,13.98,0,0,1,3.24,1.89ZM22.23-5.76A54.227,54.227,0,0,1,19.044-.018l1.872,1.332C21.924-.45,22.968-2.52,23.868-4.428Zm7.488-4.716H31.95v3.258H29.664c.036-.594.054-1.17.054-1.764ZM35.388-5.2V-7.218h-1.35v-5.274h-4.32v-2.736H27.594v2.736H24.588v2.016h3.006V-9q0,.891-.054,1.782H23.706V-5.2h3.51A8.075,8.075,0,0,1,22.752.108,8.159,8.159,0,0,1,24.534,1.62,9,9,0,0,0,29.2-4.158a10.15,10.15,0,0,0,4.9,5.76A7.955,7.955,0,0,1,35.586-.27,8.441,8.441,0,0,1,31-5.2Zm10.962-.45h3.366v1.26c0,.2-.072.252-.288.252-.2,0-.936.018-1.53-.036a8,8,0,0,1,.7,1.6,11.345,11.345,0,0,1-2.25-1.494ZM41.256-10.17l1.62-.63a11.141,11.141,0,0,0-.612-1.26h2.214a7.055,7.055,0,0,1-.666.612q.243.135.54.324h-.306v.954ZM51.93-7.47H46.35v-.864h6.48V-10.17H46.35v-.846a9.9,9.9,0,0,0,.792-1.044h.864a9.216,9.216,0,0,1,.918,1.854l1.908-.612a8.079,8.079,0,0,0-.63-1.242h2.934v-1.782h-5c.162-.342.306-.684.432-1.008l-2.106-.522a9.381,9.381,0,0,1-1.71,3.006v-1.476H40.86c.162-.324.306-.666.432-.972l-2.034-.558A10.33,10.33,0,0,1,36.5-11.43a13.842,13.842,0,0,1,1.782,1.17,11.019,11.019,0,0,0,1.494-1.8h.306A11.217,11.217,0,0,1,41-10.17H37.188v1.836h6.858v.864H38.34v5h2.268V-5.652h3.438v1.26A13.506,13.506,0,0,1,36.738-.7,8.631,8.631,0,0,1,38.07,1.1,15.27,15.27,0,0,0,44.046-2V1.584h2.3V-1.944A15.443,15.443,0,0,0,52.182.972a9.8,9.8,0,0,1,1.35-1.89,17.668,17.668,0,0,1-4.824-1.6A6.64,6.64,0,0,0,51.1-2.79c.648-.27.828-.7.828-1.6Z" transform="translate(533 1547)" fill="#0181c0" stroke="rgba(0,0,0,0)" stroke-width="1"/>
  </g>
</svg>
