<svg id="headset_mic-24px" xmlns="http://www.w3.org/2000/svg" width="80" height="80" viewBox="0 0 80 80">
  <path id="Path_16751" data-name="Path 16751" d="M0,0H80V80H0Z" fill="none" opacity="0.1"/>
  <path id="Path_16752" data-name="Path 16752" d="M37.286,1C18.352,1,3,15.655,3,33.727V59.182A11.163,11.163,0,0,0,14.429,70.091H25.857V41H10.619V33.727c0-14.073,11.924-25.455,26.667-25.455S63.952,19.655,63.952,33.727V41H48.714V70.091H63.952v3.636H37.286V81H60.143A11.163,11.163,0,0,0,71.571,70.091V33.727C71.571,15.655,56.219,1,37.286,1Z" transform="translate(3 -1)" fill="#ccc"/>
</svg>
