<svg xmlns="http://www.w3.org/2000/svg" xmlns:xlink="http://www.w3.org/1999/xlink" width="31.993" height="32" viewBox="0 0 31.993 32">
  <defs>
    <clipPath id="clip-path">
      <rect id="Rectangle_11195" data-name="Rectangle 11195" width="31.993" height="32" fill="#0181c0"/>
    </clipPath>
  </defs>
  <g id="Group_16252" data-name="Group 16252" transform="translate(0 0)">
    <g id="Group_16251" data-name="Group 16251" transform="translate(0 0)" clip-path="url(#clip-path)">
      <path id="Path_16384" data-name="Path 16384" d="M18.459,21.448a2.985,2.985,0,1,1,2.982,2.982,2.985,2.985,0,0,1-2.982-2.982" transform="translate(-5.445 -5.445)" fill="#0181c0"/>
      <path id="Path_16385" data-name="Path 16385" d="M16,23.009A7.006,7.006,0,1,0,9,16a7.005,7.005,0,0,0,7,7.006M26.659,8.265A13.04,13.04,0,0,1,29,13.934h2.995v4.132H29a13.04,13.04,0,0,1-2.339,5.668l2.108,2.115-2.917,2.924-2.114-2.114a13.184,13.184,0,0,1-5.669,2.353V32H13.934V29.011a13.145,13.145,0,0,1-5.668-2.353L6.151,28.773,3.226,25.849l2.115-2.115a12.975,12.975,0,0,1-2.346-5.668H0V13.934H2.995A12.975,12.975,0,0,1,5.341,8.265L3.226,6.151,6.151,3.226,8.265,5.341a13.066,13.066,0,0,1,5.668-2.346V0h4.132V2.995a13.1,13.1,0,0,1,5.669,2.346l2.114-2.114,2.917,2.924Z" transform="translate(0 0)" fill="#0181c0"/>
    </g>
  </g>
</svg>
