<svg xmlns="http://www.w3.org/2000/svg" width="25" height="25" viewBox="0 0 25 25">
  <g id="レイヤー_2" data-name="レイヤー 2" transform="translate(0 0.517)">
    <g id="Rectangle" transform="translate(0 -0.391)">
      <rect id="Rectangle_11539" data-name="Rectangle 11539" width="25" height="25" transform="translate(0 -0.126)" fill="none"/>
    </g>
    <g id="icon_data" transform="translate(3.065 0.982)">
      <path id="Path_16885" data-name="Path 16885" d="M15.707,33.772H6.971A.971.971,0,0,1,6,32.8V21" transform="translate(-6 -11.293)" fill="none" stroke="#2d3d45" stroke-linecap="round" stroke-linejoin="round" stroke-width="2"/>
      <path id="Path_16886" data-name="Path 16886" d="M28.305,5.3v14.07a1.022,1.022,0,0,1-1.022,1.022H15.022A1.022,1.022,0,0,1,14,19.371V3.022A1.022,1.022,0,0,1,15.022,2H27.283" transform="translate(-9.913 -2)" fill="none" stroke="#2d3d45" stroke-linecap="round" stroke-linejoin="round" stroke-width="2"/>
      <line id="Line_22" data-name="Line 22" x2="6" transform="translate(7.935 5.501)" fill="none" stroke="#2d3d45" stroke-linecap="round" stroke-linejoin="round" stroke-width="2"/>
      <line id="Line_23" data-name="Line 23" x2="6" transform="translate(7.935 9.501)" fill="none" stroke="#2d3d45" stroke-linecap="round" stroke-linejoin="round" stroke-width="2"/>
      <line id="Line_24" data-name="Line 24" x2="2" transform="translate(7.935 13.501)" fill="none" stroke="#2d3d45" stroke-linecap="round" stroke-linejoin="round" stroke-width="2"/>
    </g>
  </g>
</svg>
