<svg xmlns="http://www.w3.org/2000/svg" width="140" height="140" viewBox="0 0 140 140">
  <g id="Group_17318" data-name="Group 17318" transform="translate(-453 -4176)">
    <circle id="Ellipse_678" data-name="Ellipse 678" cx="70" cy="70" r="70" transform="translate(453 4176)" fill="#f6f6f6"/>
    <g id="Group_17102" data-name="Group 17102" transform="translate(-1650.703 2562.732)">
      <path id="Path_17011" data-name="Path 17011" d="M2183.743,1671.844a17.727,17.727,0,0,0-35.454,0c-.09.775-.39,5.916,6.037,13.079,1.255,1.49,1.607,4.317,1.757,5.526.041.313.072.543.1.666a8.067,8.067,0,0,1-.02,1.642c0,.016,0,.028,0,.044s-.011.031-.011.049v6.977a.977.977,0,0,0,.295.7l0,0,3.073,3.016a11.379,11.379,0,0,0,13.006-.028l3.045-2.988,0,0a.976.976,0,0,0,.291-.7v-6.977c0-.018-.007-.031-.007-.049s.005-.028.005-.044a8,8,0,0,1-.02-1.642c.028-.121.059-.356.1-.671.152-1.206.5-4.031,1.738-5.5C2184.13,1677.76,2183.833,1672.619,2183.743,1671.844Zm-25.618,27v-1.63h15.782v1.63Zm15.782-3.6h-15.782v-1.412h15.782Zm-7.891,8.359a8.158,8.158,0,0,1-5.142-1.493l-1.327-1.3h12.936l-1.293,1.27A8.086,8.086,0,0,1,2166.017,1703.605Zm10.184-19.95c-1.629,1.937-2.032,5.164-2.2,6.546-.028.224-.047.392-.067.483a5.484,5.484,0,0,0-.08,1.183h-15.671a5.305,5.305,0,0,0-.08-1.183c-.019-.09-.037-.256-.065-.478-.173-1.381-.573-4.614-2.226-6.571-6.155-6.866-5.572-11.532-5.567-11.568a.761.761,0,0,0,.013-.157,15.76,15.76,0,1,1,31.521,0,.973.973,0,0,0,.013.147C2181.794,1672.1,2182.38,1676.769,2176.2,1683.655Z" transform="translate(7.206 7.746)" fill="#0181c0"/>
      <path id="Path_17012" data-name="Path 17012" d="M2162.479,1656.492a12,12,0,0,0-11.985,11.984.983.983,0,1,0,1.965,0,10.03,10.03,0,0,1,10.02-10.019.983.983,0,0,0,0-1.965Z" transform="translate(10.745 11.429)" fill="#0181c0"/>
      <path id="Path_17013" data-name="Path 17013" d="M2155.985,1658.724a.982.982,0,0,0,.984-.984v-7.488a.983.983,0,1,0-1.965,0v7.488A.982.982,0,0,0,2155.985,1658.724Z" transform="translate(17.88 0)" fill="#0181c0"/>
      <path id="Path_17014" data-name="Path 17014" d="M2161.851,1659.873a.978.978,0,0,0,.694-.289l5.3-5.3a.983.983,0,0,0-1.39-1.392l-5.3,5.3a.984.984,0,0,0,.695,1.678Z" transform="translate(27.156 5.286)" fill="#0181c0"/>
      <path id="Path_17015" data-name="Path 17015" d="M2171.727,1660.568h-7.49a.984.984,0,1,0,0,1.967h7.49a.984.984,0,0,0,0-1.967Z" transform="translate(30.93 17.878)" fill="#0181c0"/>
      <path id="Path_17016" data-name="Path 17016" d="M2162.438,1666.721a.982.982,0,0,0-1.389,1.39l5.3,5.3a.982.982,0,1,0,1.389-1.389Z" transform="translate(26.988 27.157)" fill="#0181c0"/>
      <path id="Path_17017" data-name="Path 17017" d="M2152.522,1666.614l-5.3,5.3a.982.982,0,1,0,1.388,1.389l5.3-5.3a.983.983,0,0,0-1.391-1.389Z" transform="translate(5.117 26.987)" fill="#0181c0"/>
      <path id="Path_17018" data-name="Path 17018" d="M2153.16,1661.4a.982.982,0,0,0-.984-.984h-7.488a.982.982,0,1,0,0,1.965h7.488A.981.981,0,0,0,2153.16,1661.4Z" transform="translate(0 17.639)" fill="#0181c0"/>
      <path id="Path_17019" data-name="Path 17019" d="M2152.629,1659.477a.983.983,0,1,0,1.389-1.392l-5.3-5.3a.983.983,0,0,0-1.39,1.391Z" transform="translate(5.287 5.116)" fill="#0181c0"/>
    </g>
  </g>
</svg>
