<svg id="icon-new-window" xmlns="http://www.w3.org/2000/svg" width="12" height="12" viewBox="0 0 12 12">
  <path id="Path_112" data-name="Path 112" d="M27.8,0H21.2A1.2,1.2,0,0,0,20,1.2V7.8A1.2,1.2,0,0,0,21.2,9h6.6A1.2,1.2,0,0,0,29,7.8V1.2A1.2,1.2,0,0,0,27.8,0Zm0,7.5a.3.3,0,0,1-.3.3h-6a.3.3,0,0,1-.3-.3v-6a.3.3,0,0,1,.3-.3h6a.3.3,0,0,1,.3.3Z" transform="translate(-17)" fill="#333"/>
  <path id="Path_113" data-name="Path 113" d="M7.8,26.75v.75a.3.3,0,0,1-.3.3h-6a.3.3,0,0,1-.3-.3v-6a.3.3,0,0,1,.3-.3h.75a.15.15,0,0,0,.15-.15v-.9A.15.15,0,0,0,2.25,20H1.2A1.2,1.2,0,0,0,0,21.2v6.6A1.2,1.2,0,0,0,1.2,29H7.8A1.2,1.2,0,0,0,9,27.8V26.75a.15.15,0,0,0-.15-.15h-.9A.15.15,0,0,0,7.8,26.75Z" transform="translate(0 -17)" fill="#333"/>
</svg>
