<svg xmlns="http://www.w3.org/2000/svg" width="28.036" height="35.528" viewBox="0 0 28.036 35.528">
  <path id="Path_34978" data-name="Path 34978" d="M178.162,218.913c4.8,5.59,5.329,15.415,5.306,22.318a1.015,1.015,0,0,1-1.015,1.012h0a1.016,1.016,0,0,1-1.012-1.019c.022-6.579-.453-15.912-4.816-20.988a10.741,10.741,0,0,0-8.113-3.5,1.015,1.015,0,0,1-.024-2.031A12.63,12.63,0,0,1,178.162,218.913ZM157.99,240.006a1.015,1.015,0,0,0,.867-1.145c-.172-1.243-.364-2.47-.55-3.657a51.907,51.907,0,0,1-.843-7.431,10.407,10.407,0,0,1,3.19-7.483,13.123,13.123,0,0,1,4.031-2.763,1.015,1.015,0,1,0-.8-1.868,15.175,15.175,0,0,0-4.67,3.2l-.008.008a12.51,12.51,0,0,0-3.776,8.893,52.991,52.991,0,0,0,.867,7.763c.185,1.178.375,2.4.545,3.621a1.015,1.015,0,0,0,1,.876A1.035,1.035,0,0,0,157.99,240.006Zm.284,1.656a1.015,1.015,0,0,0-.949,1.078,21.827,21.827,0,0,1-.117,4.76,1.015,1.015,0,1,0,2.011.285,23.946,23.946,0,0,0,.134-5.174A1.015,1.015,0,0,0,158.274,241.662ZM168.5,218.45a9.491,9.491,0,0,0-6.615,2.953,1.015,1.015,0,0,0,1.432,1.44,7.464,7.464,0,0,1,5.171-2.362h.024a6.931,6.931,0,0,1,5.125,2.314c1.685,1.911,2.941,5.728,3.631,11.039a70.17,70.17,0,0,1,.473,12.123,1.016,1.016,0,0,0,.955,1.072l.059,0a1.016,1.016,0,0,0,1.013-.957c.291-5.065.031-19.362-4.608-24.622A9,9,0,0,0,168.5,218.45Zm-7.115,9.82a5.9,5.9,0,0,1,.633-2.812,1.015,1.015,0,1,0-1.836-.868,7.87,7.87,0,0,0-.826,3.769,42.2,42.2,0,0,0,1.12,8.388,42.138,42.138,0,0,1,1.042,11.6,1.015,1.015,0,0,0,1,1.03h.015a1.015,1.015,0,0,0,1.015-1,44.343,44.343,0,0,0-1.089-12.07A40.442,40.442,0,0,1,161.381,228.27Zm13.483,14.656a1.015,1.015,0,0,0-.989,1.041,30.839,30.839,0,0,1-.017,3.6,1.015,1.015,0,0,0,.934,1.091l.079,0a1.015,1.015,0,0,0,1.011-.937,33.515,33.515,0,0,0,.022-3.8A1.018,1.018,0,0,0,174.864,242.926Zm-7.93-5.436h0c-.2-1.033-.671-3.058-.671-3.058a30.754,30.754,0,0,1-.951-5.647,3.655,3.655,0,0,1,.729-2.678,3.613,3.613,0,0,1,2.451-1.147h.053a3.043,3.043,0,0,1,2.39,1.044c2.357,3.12,2.679,9.4,2.938,14.453a1.015,1.015,0,0,0,1.013.963h.053a1.015,1.015,0,0,0,.962-1.066c-.287-5.6-.613-11.956-3.346-15.574a5.007,5.007,0,0,0-4.022-1.85,5.642,5.642,0,0,0-3.928,1.743l-.008.008a5.715,5.715,0,0,0-1.311,4.229,32.833,32.833,0,0,0,1,5.99s.463,1.978.654,2.973h0c.043.224.085.441.127.654.5,2.556.858,4.4.684,10.57a1.015,1.015,0,0,0,.986,1.044h.029a1.016,1.016,0,0,0,1.015-.987c.181-6.392-.2-8.332-.72-11.015C167.018,237.927,166.977,237.712,166.934,237.49Zm3.486,2.427a1.015,1.015,0,0,0-.873,1.14,44.158,44.158,0,0,1,.352,8.109,1.015,1.015,0,0,0,.969,1.06h.046a1.015,1.015,0,0,0,1.014-.97,46.117,46.117,0,0,0-.367-8.468A1.015,1.015,0,0,0,170.42,239.918Zm-.04-1.331a1.015,1.015,0,0,0,.895-1.123c-.744-6.567-1.828-9.089-1.874-9.193a1.015,1.015,0,0,0-1.861.814c.01.023,1.016,2.416,1.717,8.607a1.014,1.014,0,0,0,1.123.895Z" transform="translate(-155.433 -214.701)" fill="#0181c0"/>
</svg>
