<svg xmlns="http://www.w3.org/2000/svg" width="36.889" height="41.5" viewBox="0 0 36.889 41.5">
  <g id="Group_20206" data-name="Group 20206" transform="translate(-147.111 -115.5)">
    <path id="Path_34995" data-name="Path 34995" d="M182.261,269.721V245.145a.484.484,0,0,0-.784-.38l-7.7,6.066v-5.685a.484.484,0,0,0-.784-.38l-7.785,6.135v-5.755a.484.484,0,0,0-.784-.38l-8.151,6.423-.27-8.689h-6.872l-.285,9.182h0v18.04h-1.739v5.016H184v-5.016ZM177.2,257.748v5.5h-5.5v-5.5Zm-8.9,0v5.5h-5.5v-5.5Zm-8.9,0v5.5h-5.5v-5.5Z" transform="translate(0 -117.736)" fill="#fff"/>
    <path id="Path_34996" data-name="Path 34996" d="M184.041,115.5h-6.3l-.084,2.71h6.464Z" transform="translate(-28.321)" fill="#fff"/>
    <path id="Path_34997" data-name="Path 34997" d="M182.26,175.949h-6.57l-.1,3.155h6.766Z" transform="translate(-26.404 -56.04)" fill="#fff"/>
  </g>
</svg>
