<svg xmlns="http://www.w3.org/2000/svg" xmlns:xlink="http://www.w3.org/1999/xlink" width="26.108" height="27.182" viewBox="0 0 26.108 27.182">
  <defs>
    <clipPath id="clip-path">
      <rect id="Rectangle_40" data-name="Rectangle 40" width="26.108" height="27.182" transform="translate(0 0)" fill="#fff"/>
    </clipPath>
  </defs>
  <g id="Group_148" data-name="Group 148" transform="translate(0 0)" clip-path="url(#clip-path)">
    <path id="Path_29" data-name="Path 29" d="M17.05,8.159a.681.681,0,0,0-.678-.759H6.811A2.964,2.964,0,0,0,8.979,4.555V2.967a2.967,2.967,0,0,0-5.934,0V4.555A2.964,2.964,0,0,0,5.213,7.4H4.788A4.792,4.792,0,0,0,0,12.187v4.625a2.874,2.874,0,0,0,2.448,2.6V26.5a.683.683,0,0,0,.683.683H9.024a.684.684,0,0,0,.684-.683V11.818H13.32c2.623,0,3.588-2.393,3.73-3.66M4.413,4.555V2.967a1.6,1.6,0,1,1,3.2,0V4.555a1.6,1.6,0,1,1-3.2,0m4.611,5.9a.685.685,0,0,0-.684.684V25.814H6.7V18.29a.684.684,0,0,0-1.367,0v7.524H3.817V12.532a.684.684,0,1,0-1.367,0v5.482a1.464,1.464,0,0,1-1.082-1.246V12.187a3.424,3.424,0,0,1,3.42-3.42H15.5a2.268,2.268,0,0,1-2.183,1.684Z" fill="#fff"/>
    <path id="Path_30" data-name="Path 30" d="M25.425,3.078H9.978a.684.684,0,1,0,0,1.367H24.741V15.906H11.772a.684.684,0,1,0,0,1.367h3.6l-3.456,8.979a.684.684,0,0,0,1.277.492l2.492-6.474V26.5a.683.683,0,1,0,1.366,0v-6.23l2.491,6.476a.69.69,0,0,0,.639.438.684.684,0,0,0,.638-.93l-3.456-8.979h8.059a.684.684,0,0,0,.684-.683V3.761a.684.684,0,0,0-.684-.683" fill="#fff"/>
  </g>
</svg>
