<svg xmlns="http://www.w3.org/2000/svg" width="44.5" height="30.518" viewBox="0 0 44.5 30.518">
  <g id="Group_21738" data-name="Group 21738" transform="translate(363.385 -1108.586)">
    <g id="Group_21738-2" data-name="Group 21738" transform="translate(-363.135 1108.836)">
      <path id="Path_36832" data-name="Path 36832" d="M-395.107,1078.767a1.524,1.524,0,0,1,1.047,1.654c-.03.6.006,1.208-.012,1.811-.008.27.094.336.345.337.745,0,1.491-.046,2.234.028a1.384,1.384,0,0,1,1.27,1.387q0,8.435-.007,16.869a3.053,3.053,0,0,1-.931,2.192q-2.008,1.973-4.1,3.861a3.412,3.412,0,0,1-2.313.866q-5.916.011-11.831,0a1.387,1.387,0,0,1-1.464-1.451c0-.66,0-1.321,0-1.981,0-.381,0-.377-.372-.384-.717-.013-1.435.042-2.149-.029a1.393,1.393,0,0,1-1.324-1.48q0-8.067,0-16.134c0-1.963.018-3.925-.009-5.887a1.581,1.581,0,0,1,1.047-1.661Zm-14.654,16.423q0,5.491,0,10.982c0,.406.075.494.437.494q5.859,0,11.718,0c.256,0,.344-.077.341-.34-.013-1.066-.006-2.132,0-3.2a2.036,2.036,0,0,1,.374-1.223,2.042,2.042,0,0,1,1.768-.835c1.1,0,2.208,0,3.312,0,.485,0,.486,0,.486-.482q0-8.166,0-16.332c0-.513-.049-.561-.572-.561h-17.294c-.517,0-.567.05-.567.566Q-409.762,1089.727-409.761,1095.19Zm-3.846-3.862q0,5.506,0,11.011c0,.4.076.481.479.483.613,0,1.227,0,1.84,0,.419,0,.419,0,.419-.418q0-5.845,0-11.691,0-3.354,0-6.708a1.372,1.372,0,0,1,1.077-1.38,3.329,3.329,0,0,1,.7-.061q2.788-.007,5.576,0,3.991,0,7.982,0c.267,0,.368-.077.36-.354-.017-.594,0-1.189-.005-1.783,0-.54-.037-.577-.583-.577h-17.267c-.543,0-.584.041-.584.576Q-413.608,1085.879-413.608,1091.328Zm17.446,14.807.084.038,4.193-3.945c-.172-.008-.255-.016-.338-.016q-1.486,0-2.972,0a.865.865,0,0,0-.965.959c-.006.821,0,1.642,0,2.463Z" transform="translate(414.725 -1078.767)" fill="#0181c0" stroke="#0181c0" stroke-width="0.5"/>
      <path id="Path_36833" data-name="Path 36833" d="M-295.9,1194.915h-4.782a2.717,2.717,0,0,1-.311-.008.554.554,0,0,1-.505-.551.553.553,0,0,1,.511-.545,2.658,2.658,0,0,1,.283-.006h9.648c.066,0,.132,0,.2,0a.565.565,0,0,1,.592.555.559.559,0,0,1-.6.55c-.8.007-1.6,0-2.4,0Z" transform="translate(310.062 -1185.104)" fill="#0181c0" stroke="#0181c0" stroke-width="0.5"/>
      <path id="Path_36834" data-name="Path 36834" d="M-295.878,1240.148h4.837c.094,0,.189,0,.283.005a.506.506,0,0,1,.48.444.52.52,0,0,1-.3.584.9.9,0,0,1-.441.074h-9.73a1.5,1.5,0,0,1-.226-.01.558.558,0,0,1-.519-.569.543.543,0,0,1,.583-.525c1.5,0,3,0,4.5,0Z" transform="translate(310.061 -1227.941)" fill="#0181c0" stroke="#0181c0" stroke-width="0.5"/>
      <path id="Path_36835" data-name="Path 36835" d="M-295.874,1287.109h-4.893a.807.807,0,0,1-.389-.047.541.541,0,0,1-.317-.5.517.517,0,0,1,.318-.493,1.032,1.032,0,0,1,.471-.069h9.645a1.723,1.723,0,0,1,.31.017.567.567,0,0,1,.483.6.542.542,0,0,1-.565.485c-.858.006-1.716,0-2.574,0Z" transform="translate(310.039 -1270.328)" fill="#0181c0" stroke="#0181c0" stroke-width="0.5"/>
      <path id="Path_36836" data-name="Path 36836" d="M-298.159,1333.411c-.905,0-1.811,0-2.716,0a.565.565,0,0,1-.631-.6.571.571,0,0,1,.637-.508c1.132,0,2.263,0,3.4,0,.688,0,1.377,0,2.065,0a.553.553,0,0,1,.543.337.521.521,0,0,1-.095.579.6.6,0,0,1-.51.191Q-296.815,1333.408-298.159,1333.411Z" transform="translate(310.072 -1313.125)" fill="#0181c0" stroke="#0181c0" stroke-width="0.5"/>
    </g>
    <g id="Group_21741" data-name="Group 21741" transform="translate(-350.934 1117.104)">
      <path id="Path_36837" data-name="Path 36837" d="M-176.559,1272.393v-.012q-1.22,0-2.44,0-1.454,0-2.908,0c-1.525,0-2.777-.006-3.94-.019a5.1,5.1,0,0,1-4.8-4.321,5.166,5.166,0,0,1,3.069-5.575c.248-.113.3-.193.294-.476a4.744,4.744,0,0,1,1.368-3.421,4.847,4.847,0,0,1,3.424-1.435,4.847,4.847,0,0,1,2.084.474l.107.05a.6.6,0,0,0,.226.069h0s.059-.044.13-.245l.069-.2a10.305,10.305,0,0,1,.7-1.676,7.241,7.241,0,0,1,6.4-3.682,7.26,7.26,0,0,1,5.875,2.911,7.507,7.507,0,0,1,1.519,4.42.9.9,0,0,0,.026.246.908.908,0,0,0,.228.085,6.38,6.38,0,0,1,4.792,5.13,6.314,6.314,0,0,1-1.092,4.919,6.34,6.34,0,0,1-4.3,2.661,9.734,9.734,0,0,1-1.233.08q-2.409,0-4.818,0Z" transform="translate(191.36 -1251.291)" fill="#fff" stroke="#0181c0" stroke-width="0.5"/>
      <g id="Group_21739" data-name="Group 21739" transform="translate(0 0)">
        <path id="Path_36838" data-name="Path 36838" d="M-165.936,1260.2a14.768,14.768,0,0,1-.5,1.939,6.972,6.972,0,0,1-5.589,4.509,7.189,7.189,0,0,1-1.236.083q-9.237.008-18.474,0a5.7,5.7,0,0,1-5.478-3.431,5.72,5.72,0,0,1,1.116-6.4,10.575,10.575,0,0,1,1.605-1.2c.21-.138.186-.3.2-.471a5.323,5.323,0,0,1,2.717-4.308,5.276,5.276,0,0,1,4.367-.477c.118.036.235.073.349.109.2-.434.355-.875.583-1.275a7.856,7.856,0,0,1,7.835-4.262,8,8,0,0,1,7.214,6.637,1.1,1.1,0,0,1,.051.3c-.072.592.236.812.762,1.033a6.964,6.964,0,0,1,4.413,5.766,1.627,1.627,0,0,0,.057.207Zm-16.52,5.407v.012q4.564,0,9.128,0a9.3,9.3,0,0,0,1.174-.076,6.03,6.03,0,0,0,5-7.023,5.931,5.931,0,0,0-4.465-4.778c-.473-.136-.58-.266-.591-.768a7.012,7.012,0,0,0-1.426-4.151,6.927,6.927,0,0,0-11.5.721,11.265,11.265,0,0,0-.738,1.8c-.19.536-.466.682-.989.444l-.112-.053a4.33,4.33,0,0,0-6.211,3.955.848.848,0,0,1-.566.905,4.68,4.68,0,0,0-2.8,5.089,4.665,4.665,0,0,0,4.347,3.919C-188.955,1265.633-185.705,1265.606-182.456,1265.606Z" transform="translate(197.736 -1244.987)" fill="#0181c0" stroke="#0181c0" stroke-width="0.5"/>
      </g>
    </g>
  </g>
</svg>
