<svg xmlns="http://www.w3.org/2000/svg" width="25.284" height="16.09" viewBox="0 0 25.284 16.09">
  <path id="Path_15150" data-name="Path 15150" d="M18.239,11.9a3.448,3.448,0,1,0-3.448-3.448A3.433,3.433,0,0,0,18.239,11.9Zm-9.194,0A3.448,3.448,0,1,0,5.6,8.448,3.433,3.433,0,0,0,9.045,11.9Zm0,2.3C6.367,14.194,1,15.539,1,18.217V21.09H17.09V18.217C17.09,15.539,11.723,14.194,9.045,14.194Zm9.194,0c-.333,0-.713.023-1.115.057a4.85,4.85,0,0,1,2.264,3.965V21.09h6.9V18.217C26.284,15.539,20.917,14.194,18.239,14.194Z" transform="translate(-1 -5)" fill="#0181c0"/>
</svg>
