<svg xmlns="http://www.w3.org/2000/svg" width="140" height="140" viewBox="0 0 140 140">
  <g id="Group_17072" data-name="Group 17072" transform="translate(-453 -4137)">
    <circle id="Ellipse_678" data-name="Ellipse 678" cx="70" cy="70" r="70" transform="translate(453 4137)" fill="#f6f6f6"/>
    <g id="Group_17067" data-name="Group 17067" transform="translate(-1851.421 2759.211)">
      <g id="Group_17059" data-name="Group 17059" transform="translate(2370.574 1480.372)">
        <path id="Path_16969" data-name="Path 16969" d="M2353.436,1437.262c-.924,0-1.86-.037-2.783-.11a1.168,1.168,0,0,1,.181-2.329c.865.068,1.739.1,2.6.1a1.169,1.169,0,0,1,0,2.338Z" transform="translate(-2349.576 -1434.819)" fill="#e60012"/>
      </g>
      <g id="Group_17060" data-name="Group 17060" transform="translate(2360.439 1477.963)">
        <path id="Path_16970" data-name="Path 16970" d="M2353.686,1438.243a1.156,1.156,0,0,1-.227-.021,34.781,34.781,0,0,1-6.46-1.942,1.166,1.166,0,1,1,.883-2.159,32.368,32.368,0,0,0,6.031,1.81,1.167,1.167,0,0,1-.227,2.313Z" transform="translate(-2346.272 -1434.034)" fill="#e60012"/>
      </g>
      <g id="Group_17061" data-name="Group 17061" transform="translate(2344.845 1465.019)">
        <path id="Path_16971" data-name="Path 16971" d="M2354.337,1443.355a1.153,1.153,0,0,1-.567-.147,35.246,35.246,0,0,1-12.391-11.59,1.167,1.167,0,0,1,1.957-1.27,32.975,32.975,0,0,0,11.569,10.82,1.167,1.167,0,0,1-.567,2.188Z" transform="translate(-2341.189 -1429.814)" fill="#e60012"/>
      </g>
      <g id="Group_17062" data-name="Group 17062" transform="translate(2339.421 1412.789)">
        <path id="Path_16972" data-name="Path 16972" d="M2374.434,1474.372a26.621,26.621,0,1,1,25.054-35.639,1.166,1.166,0,0,1-.7,1.492l-4.129,1.5,9.7,6.467,5.887-10.056-3.341.589a1.177,1.177,0,0,1-1.316-.8,32.685,32.685,0,1,0-62.243,19.975,1.167,1.167,0,1,1-2.22.721,35.021,35.021,0,0,1,66.368-22.373l4.832-.85a1.167,1.167,0,0,1,1.212,1.74l-7.789,13.3a1.162,1.162,0,0,1-1.653.381l-12.655-8.434a1.168,1.168,0,0,1,.249-2.071l5.182-1.88a24.3,24.3,0,1,0-4.24,25.392,1.169,1.169,0,0,1,1.751,1.549A26.648,26.648,0,0,1,2374.434,1474.372Z" transform="translate(-2339.421 -1412.789)" fill="#e60012"/>
      </g>
      <g id="Group_17063" data-name="Group 17063" transform="translate(2362.016 1435.518)">
        <path id="Path_16973" data-name="Path 16973" d="M2359.318,1447.429a1.168,1.168,0,0,1-1.169-1.157l-.108-13.348-10.906-10.725a1.168,1.168,0,0,1,1.639-1.665l11.249,11.065a1.17,1.17,0,0,1,.35.822l.113,13.829a1.167,1.167,0,0,1-1.16,1.178Z" transform="translate(-2346.786 -1420.198)" fill="#e60012"/>
      </g>
      <g id="Group_17064" data-name="Group 17064" transform="translate(2351.935 1445.538)">
        <path id="Path_16974" data-name="Path 16974" d="M2344.869,1426.2a1.37,1.37,0,1,1,1.371-1.371A1.371,1.371,0,0,1,2344.869,1426.2Zm0-2.335a.965.965,0,1,0,.966.964A.966.966,0,0,0,2344.869,1423.869Z" transform="translate(-2343.5 -1423.464)" fill="#e60012"/>
      </g>
      <g id="Group_17065" data-name="Group 17065" transform="translate(2373.176 1425.036)">
        <path id="Path_16975" data-name="Path 16975" d="M2351.8,1419.524a1.372,1.372,0,1,1,1.372-1.371A1.375,1.375,0,0,1,2351.8,1419.524Zm0-2.338a.965.965,0,1,0,.966.967A.969.969,0,0,0,2351.8,1417.186Z" transform="translate(-2350.424 -1416.781)" fill="#e60012"/>
      </g>
      <g id="Group_17066" data-name="Group 17066" transform="translate(2373.176 1467.751)">
        <path id="Path_16976" data-name="Path 16976" d="M2351.8,1433.448a1.371,1.371,0,1,1,1.372-1.371A1.376,1.376,0,0,1,2351.8,1433.448Zm0-2.338a.966.966,0,1,0,.966.966A.97.97,0,0,0,2351.8,1431.11Z" transform="translate(-2350.424 -1430.705)" fill="#e60012"/>
      </g>
    </g>
  </g>
</svg>
