<svg xmlns="http://www.w3.org/2000/svg" width="60" height="60" viewBox="0 0 60 60">
  <g id="Group_16822" data-name="Group 16822" transform="translate(-390 729)">
    <g id="楕円形_737" data-name="楕円形 737" transform="translate(390 -729)" opacity="0.07">
      <circle id="Ellipse_774" data-name="Ellipse 774" cx="30" cy="30" r="30" fill="#0181c0"/>
      <circle id="Ellipse_775" data-name="Ellipse 775" cx="29.571" cy="29.571" r="29.571" transform="translate(0.429 0.429)" fill="#0181c0"/>
    </g>
    <g id="Group_16792" data-name="Group 16792" transform="translate(70.626 0.472)">
      <path id="Path_16842" data-name="Path 16842" d="M410.152,744.389H392.561a.293.293,0,0,1-.292-.293V719.665a.293.293,0,0,1,.292-.293h17.591a.294.294,0,0,1,.293.293V744.1A.293.293,0,0,1,410.152,744.389Zm-17.3-.586h17.005V719.959H392.854Z" transform="translate(-51.895 -1431.844)" fill="#0181c0"/>
      <path id="Path_16843" data-name="Path 16843" d="M407,741.409h-11.29a.245.245,0,0,1-.245-.244v-6.533a2.2,2.2,0,0,1,2.2-2.2h7.381a2.2,2.2,0,0,1,2.2,2.2v6.533A.244.244,0,0,1,407,741.409Zm-11.046-.489h10.8v-6.288a1.713,1.713,0,0,0-1.711-1.71h-7.381a1.712,1.712,0,0,0-1.71,1.71Z" transform="translate(-51.895 -1431.844)" fill="#0181c0"/>
      <path id="Path_16844" data-name="Path 16844" d="M405.141,731.366h-7.568a1.223,1.223,0,0,1-1.222-1.221v-6.612a1.223,1.223,0,0,1,1.222-1.222h7.568a1.223,1.223,0,0,1,1.222,1.222v6.612A1.223,1.223,0,0,1,405.141,731.366Zm-7.568-8.566a.734.734,0,0,0-.733.733v6.612a.734.734,0,0,0,.733.733h7.568a.734.734,0,0,0,.733-.733v-6.612a.734.734,0,0,0-.733-.733Z" transform="translate(-51.895 -1431.844)" fill="#0181c0"/>
      <path id="Rectangle_11522" data-name="Rectangle 11522" d="M1,0H8.523a1,1,0,0,1,1,1V2.709a0,0,0,0,1,0,0H0a0,0,0,0,1,0,0V1A1,1,0,0,1,1,0Z" transform="translate(344.7 -709.288)" fill="#0181c0"/>
      <path id="Path_16845" data-name="Path 16845" d="M401.357,739.556a2.492,2.492,0,1,1,2.492-2.492A2.494,2.494,0,0,1,401.357,739.556Zm0-4.4a1.905,1.905,0,1,0,1.906,1.905A1.907,1.907,0,0,0,401.357,735.159Z" transform="translate(-51.895 -1431.844)" fill="#0181c0"/>
    </g>
  </g>
</svg>
