<svg xmlns="http://www.w3.org/2000/svg" width="30.718" height="29.837" viewBox="0 0 30.718 29.837">
  <g id="Group_16406" data-name="Group 16406" transform="translate(-10483 -1724.51)">
    <g id="Group_16405" data-name="Group 16405" transform="translate(10487.818 1735.489) rotate(-45)">
      <path id="Path_16553" data-name="Path 16553" d="M1.411.075,7.235,0A1.228,1.228,0,0,1,8.5,1.236L8.387,9.657a1.308,1.308,0,0,1-1.3,1.268L1.265,11A1.228,1.228,0,0,1,0,9.764L.113,1.343A1.308,1.308,0,0,1,1.411.075Z" transform="translate(3.48 0.046)" fill="#fff"/>
      <path id="Path_16554" data-name="Path 16554" d="M1.455,0,1.7,0A1.252,1.252,0,0,1,3,1.244L2.884,9.72A1.334,1.334,0,0,1,1.545,11L1.3,11A1.252,1.252,0,0,1,0,9.756L.116,1.28A1.334,1.334,0,0,1,1.455,0Z" transform="translate(0 0.164)" fill="#fff"/>
      <path id="Path_16555" data-name="Path 16555" d="M1.455,0,1.7,0A1.252,1.252,0,0,1,3,1.244L2.884,9.72A1.334,1.334,0,0,1,1.545,11L1.3,11A1.252,1.252,0,0,1,0,9.756L.116,1.28A1.334,1.334,0,0,1,1.455,0Z" transform="translate(12.526 0)" fill="#fff"/>
      <path id="Path_16556" data-name="Path 16556" d="M.262.017,2,0,1.738,15.325A.814.814,0,0,1,.858,16c-.48,0-.864-.29-.858-.658Z" transform="translate(6.723 11.904)" fill="#fff"/>
    </g>
    <g id="Group_16404" data-name="Group 16404" transform="translate(10483 1748.958)">
      <path id="Union_1" data-name="Union 1" d="M-9111-1735.986v-1.694a1,1,0,0,1,1-1h1.694v-2.7h16.166v2.7h1.694a1,1,0,0,1,1,1v1.694Z" transform="translate(9111 1741.374)" fill="#fff"/>
    </g>
  </g>
</svg>
