<svg xmlns="http://www.w3.org/2000/svg" width="27.49" height="27.489" viewBox="0 0 27.49 27.489">
  <path id="Union_25" data-name="Union 25" d="M-6717.711,12.647V11.406l-.426-.441a10.162,10.162,0,0,1-6.646,2.468A10.217,10.217,0,0,1-6735,3.216,10.215,10.215,0,0,1-6724.783-7a10.213,10.213,0,0,1,10.215,10.215,10.169,10.169,0,0,1-2.465,6.65l.438.422h1.243l7.843,7.861-2.343,2.341Zm-14.145-9.431a7.063,7.063,0,0,0,7.072,7.072,7.063,7.063,0,0,0,7.072-7.072,7.063,7.063,0,0,0-7.072-7.072A7.063,7.063,0,0,0-6731.855,3.216Zm6.286,3.929V4h-3.144V2.429h3.144V-.714H-6724V2.429h3.143V4H-6724V7.145Z" transform="translate(6735 6.999)" fill="#73ab31"/>
</svg>
