<svg xmlns="http://www.w3.org/2000/svg" xmlns:xlink="http://www.w3.org/1999/xlink" width="32.174" height="30" viewBox="0 0 32.174 30">
  <defs>
    <clipPath id="clip-path">
      <rect id="Rectangle_11199" data-name="Rectangle 11199" width="32.174" height="30" fill="#0181c0"/>
    </clipPath>
  </defs>
  <g id="Group_16260" data-name="Group 16260" transform="translate(0 0)">
    <g id="Group_16259" data-name="Group 16259" transform="translate(0 0)" clip-path="url(#clip-path)">
      <path id="Path_16394" data-name="Path 16394" d="M2.952,0A2.968,2.968,0,0,0,0,2.952V21.421a2.968,2.968,0,0,0,2.952,2.953h26.27a2.968,2.968,0,0,0,2.952-2.953V2.952A2.968,2.968,0,0,0,29.222,0Zm0,2h26.27a.934.934,0,0,1,.957.957V21.421a.934.934,0,0,1-.957.957H2.952A.934.934,0,0,1,2,21.421V2.952A.934.934,0,0,1,2.952,2" transform="translate(0 0)" fill="#0181c0"/>
      <path id="Path_16395" data-name="Path 16395" d="M14.708,32.859v2.757H10.129a1,1,0,0,0-.028,2H26.269a1,1,0,0,0,.028-2H21.69V32.869q-3.491,0-6.982-.01" transform="translate(-2.112 -7.612)" fill="#0181c0"/>
      <path id="Path_16396" data-name="Path 16396" d="M27.443,10.37a.5.5,0,0,0-.376.187l-3.369,4.1a.5.5,0,0,0,.767.639l0-.006,3.369-4.1a.5.5,0,0,0-.395-.821M14.172,12.954a.5.5,0,0,0-.191.951l5.281,2.549a.5.5,0,0,0,.433-.9l-5.282-2.546a.5.5,0,0,0-.241-.053m-4.32,1.1a.5.5,0,0,0-.4.228l-1.925,2.9a.5.5,0,1,0,.821.567l.008-.013,1.928-2.9a.5.5,0,0,0-.427-.781" transform="translate(-1.722 -2.402)" fill="#0181c0"/>
      <path id="Path_16397" data-name="Path 16397" d="M5.11,20.6a1.613,1.613,0,1,0,1.933,1.209A1.62,1.62,0,0,0,5.11,20.6Zm.224.973a.615.615,0,1,1-.462.736.606.606,0,0,1,.462-.736" transform="translate(-0.894 -4.763)" fill="#0181c0"/>
      <path id="Path_16398" data-name="Path 16398" d="M11.964,10.758A1.613,1.613,0,1,0,13.9,11.967a1.62,1.62,0,0,0-1.933-1.209m.224.973a.615.615,0,1,1-.462.737.606.606,0,0,1,.462-.737" transform="translate(-2.482 -2.483)" fill="#0181c0"/>
      <path id="Path_16399" data-name="Path 16399" d="M25.732,17a1.613,1.613,0,1,0,1.933,1.209A1.62,1.62,0,0,0,25.732,17m.224.973a.615.615,0,1,1-.462.736.606.606,0,0,1,.462-.736" transform="translate(-5.672 -3.929)" fill="#0181c0"/>
      <path id="Path_16400" data-name="Path 16400" d="M35.067,6.13A1.613,1.613,0,1,0,37,7.339,1.62,1.62,0,0,0,35.067,6.13m.224.973a.615.615,0,1,1-.463.736.606.606,0,0,1,.463-.736" transform="translate(-7.834 -1.41)" fill="#0181c0"/>
    </g>
  </g>
</svg>
