<svg xmlns="http://www.w3.org/2000/svg" width="55.187" height="55.187" viewBox="0 0 55.187 55.187">
  <g id="Group_23589" data-name="Group 23589" transform="translate(-1293.585 -589.363)">
    <g id="Group_23588" data-name="Group 23588">
      <path id="Path_36840" data-name="Path 36840" d="M15.082,0l-.035,62.964L0,48,.025,15.057Z" transform="translate(1338.107 589.363) rotate(45)" fill="#c30f0e"/>
    </g>
    <path id="Path_36859" data-name="Path 36859" d="M-10.38,0h1.7V-2.47c0-.9-.15-1.92-.23-2.75h.05l.73,1.63L-6.29,0h1.82V-7.45h-1.7v2.47a25.828,25.828,0,0,0,.24,2.75h-.05l-.73-1.65L-8.56-7.45h-1.82ZM-.3.14A3.672,3.672,0,0,0,1.73-.51L1.14-1.58a2.315,2.315,0,0,1-1.2.36,1.3,1.3,0,0,1-1.42-1.1H1.86a3.335,3.335,0,0,0,.08-.77c0-1.55-.8-2.74-2.44-2.74A2.805,2.805,0,0,0-3.2-2.85,2.785,2.785,0,0,0-.3.14ZM-1.51-3.49A1.05,1.05,0,0,1-.47-4.47c.65,0,.9.42.9.98ZM3.95,0H5.98l.46-2.17c.1-.53.18-1.05.27-1.67h.05c.1.62.19,1.14.3,1.67L7.54,0H9.62l1.34-5.69H9.31L8.82-3.15c-.1.57-.16,1.13-.25,1.71H8.52c-.12-.58-.22-1.14-.35-1.71L7.56-5.69H6.03L5.44-3.15c-.14.56-.23,1.13-.33,1.71H5.06c-.09-.58-.15-1.14-.24-1.71L4.31-5.69H2.55Z" transform="translate(1323.729 619.947) rotate(-45)" fill="#fff" stroke="rgba(0,0,0,0)" stroke-width="1"/>
  </g>
</svg>
