<svg xmlns="http://www.w3.org/2000/svg" width="65" height="61" viewBox="0 0 65 61">
  <g id="Group_16469" data-name="Group 16469" transform="translate(-320 -481)">
    <rect id="Rectangle_11158" data-name="Rectangle 11158" width="65" height="61" rx="5" transform="translate(320 481)" fill="#1c5472"/>
    <path id="Path_15145" data-name="Path 15145" d="M25.092-12.172A15.947,15.947,0,0,1,23.63-5.1,8.908,8.908,0,0,1,19.108-.748L24.956,5.78h-6.6L13.906.34h-.374A12.337,12.337,0,0,1,7.021-1.224,9.466,9.466,0,0,1,3.213-5.61a16.269,16.269,0,0,1-1.241-6.6,16.027,16.027,0,0,1,1.241-6.562A9.4,9.4,0,0,1,7.021-23.1a12.518,12.518,0,0,1,6.545-1.547A12.353,12.353,0,0,1,20.06-23.1a9.411,9.411,0,0,1,3.791,4.352A16.148,16.148,0,0,1,25.092-12.172Zm-17.714,0a10.707,10.707,0,0,0,1.462,6,5.227,5.227,0,0,0,4.692,2.193,5.212,5.212,0,0,0,4.726-2.193,10.907,10.907,0,0,0,1.428-6,10.907,10.907,0,0,0-1.428-6,5.177,5.177,0,0,0-4.692-2.193A5.263,5.263,0,0,0,8.84-18.173,10.707,10.707,0,0,0,7.378-12.172Z" transform="translate(338 521)" fill="#fff"/>
  </g>
</svg>
