<svg id="Component_29_26" data-name="Component 29 – 26" xmlns="http://www.w3.org/2000/svg" width="80" height="80" viewBox="0 0 80 80">
  <g id="Ellipse_763" data-name="Ellipse 763" fill="#fff" stroke="#73ab31" stroke-width="3">
    <circle cx="40" cy="40" r="40" stroke="none"/>
    <circle cx="40" cy="40" r="38.5" fill="none"/>
  </g>
  <path id="Union_25" data-name="Union 25" d="M-6717.711,12.647V11.406l-.426-.441a10.162,10.162,0,0,1-6.646,2.468A10.217,10.217,0,0,1-6735,3.216,10.215,10.215,0,0,1-6724.783-7a10.213,10.213,0,0,1,10.215,10.215,10.169,10.169,0,0,1-2.465,6.65l.438.422h1.243l7.843,7.861-2.343,2.341Zm-14.145-9.431a7.063,7.063,0,0,0,7.072,7.072,7.063,7.063,0,0,0,7.072-7.072,7.063,7.063,0,0,0-7.072-7.072A7.063,7.063,0,0,0-6731.855,3.216Zm6.286,3.929V4h-3.144V2.429h3.144V-.714H-6724V2.429h3.143V4H-6724V7.145Z" transform="translate(6762 23)" fill="#73ab31"/>
  <path id="Path_17318" data-name="Path 17318" d="M5.4-11.424H1.176v1.26H5.4Zm.532,1.876H.462v1.316H5.936ZM3.976-2.436v1.61H2.492v-1.61ZM5.418-3.752H1.078V1.022H2.492V.476H5.418Zm-4.3-.686H5.432V-5.684H1.12Zm0-1.89H5.432V-7.6H1.12ZM13.566-3.5H10.514V-4.914h2.534v-1.47H10.514v-1.33h2.828V-9.226H11.83c.35-.588.77-1.4,1.162-2.2l-1.624-.462a16.2,16.2,0,0,1-.966,2.45l.63.21H8.3l.672-.266A8.991,8.991,0,0,0,7.966-11.8l-1.344.5a9.976,9.976,0,0,1,.854,2.072H6.2v1.512H8.876v1.33H6.482v1.47H8.876V-3.5H5.754v1.512H8.876V1.218h1.638V-1.988h3.052Zm1.428-.2A10.5,10.5,0,0,1,14.28-.448a7.018,7.018,0,0,1,1.26.616,12.931,12.931,0,0,0,.84-3.626Zm9.366,2.45v-3.29h1.218v3.29Zm-2.618-3.29H22.9v3.29H21.742ZM22.9-9.268v3.22H21.742v-3.22Zm2.674,3.22H24.36v-3.22h1.218Zm-5.306-4.76v5.7a13.963,13.963,0,0,0-1.134-2.3l-1.2.532c.154.252.294.546.434.826l-1.3.1c.868-1.106,1.806-2.436,2.548-3.584l-1.358-.658c-.336.686-.8,1.5-1.288,2.282-.14-.182-.322-.392-.5-.6.49-.77,1.078-1.848,1.568-2.814l-1.47-.532a19.5,19.5,0,0,1-1.036,2.436c-.112-.112-.224-.21-.336-.308L14.406-8.6a12.234,12.234,0,0,1,1.708,1.96c-.2.28-.406.546-.6.8-.406.028-.8.056-1.134.07l.238,1.47c.6-.07,1.274-.14,1.988-.21V1.2h1.484v-5.88L18.9-4.76a8.752,8.752,0,0,1,.266.91l1.106-.518v3.192a18.28,18.28,0,0,0-.9-2.576l-1.246.406A15.709,15.709,0,0,1,18.956-.6l1.316-.448V1.008h1.47V.252h3.836v.63h1.54v-11.69Z" transform="translate(27 61)" fill="#73ab31"/>
</svg>
