<svg xmlns="http://www.w3.org/2000/svg" width="287.928" height="202" viewBox="0 0 287.928 202"><g transform="translate(0)"><path d="M247.99,648.009a8.455,8.455,0,0,0,8.164-1.438c2.859-2.4,3.757-6.354,4.485-10.015l2.158-10.829-4.517,3.111c-3.249,2.237-6.57,4.545-8.819,7.785s-3.231,7.663-1.424,11.169" transform="translate(-234.41 -459.358)" fill="#e4e4e4"/><path d="M249.332,684.348a43.714,43.714,0,0,1-.607-10.069,15.837,15.837,0,0,1,3.054-8.3,13.814,13.814,0,0,1,3.544-3.211c.355-.223.68.338.328.561a13.131,13.131,0,0,0-5.194,6.267,21.024,21.024,0,0,0-1.116,9.067c.118,1.848.368,3.683.619,5.517a.335.335,0,0,1-.227.4.327.327,0,0,1-.4-.227Z" transform="translate(-235.365 -482.586)" fill="#f0f0f0"/><path d="M573.97,291.123H339.523a3.943,3.943,0,0,1-3.938-3.938V182.425a3.943,3.943,0,0,1,3.938-3.938H573.97a3.943,3.943,0,0,1,3.938,3.938v104.76A3.943,3.943,0,0,1,573.97,291.123Z" transform="translate(-289.981 -178.486)" fill="#fff"/><path d="M573.97,291.123H339.523a3.943,3.943,0,0,1-3.938-3.938V182.425a3.943,3.943,0,0,1,3.938-3.938H573.97a3.943,3.943,0,0,1,3.938,3.938v104.76A3.943,3.943,0,0,1,573.97,291.123ZM339.523,180.062a2.366,2.366,0,0,0-2.363,2.363v104.76a2.366,2.366,0,0,0,2.363,2.363H573.97a2.366,2.366,0,0,0,2.363-2.363V182.425a2.366,2.366,0,0,0-2.363-2.363Z" transform="translate(-289.981 -178.486)" fill="#cacaca"/><rect width="17.111" height="17.111" transform="translate(188.875 79.978)" fill="#f0f0f0"/><rect width="17.111" height="17.111" transform="translate(110.385 36.827)" fill="#f0f0f0"/><rect width="17.111" height="17.111" transform="translate(186.643 25.295)" fill="#13c3c3"/><rect width="17.111" height="17.111" transform="translate(136.425 22.691)" fill="#13c3c3"/><rect width="17.111" height="17.111" transform="translate(162.092 54.682)" fill="#f0f0f0"/><rect width="17.111" height="17.111" transform="translate(224.958 25.295)" fill="#f0f0f0"/><rect width="17.111" height="17.111" transform="translate(224.958 61.006)" fill="#f0f0f0"/><path d="M504.38,446.825a4.432,4.432,0,0,0-4.286-5.275l-3.742-9.411-6.274.879,5.472,13.217a4.456,4.456,0,0,0,8.831.59Z" transform="translate(-387.004 -337.783)" fill="#9f616a"/><path d="M473.718,343.87l-1.944-4.636-12.114-23.06.659-42.669.127-.017c7.752-1.024,13,34.693,13.216,36.214l7.654,26.178,1.822,5.77Z" transform="translate(-367.901 -238.135)" fill="#e4e4e4"/><path d="M234.422,487.763h5.89l2.8-22.719h-8.693Z" transform="translate(-147.219 -292.052)" fill="#9f616a"/><path d="M443.373,699.434h11.6a7.393,7.393,0,0,1,7.392,7.392v.241H443.374Z" transform="translate(-357.673 -505.647)" fill="#2f2e41"/><path d="M88.834,470.525l4.833,3.368,15.288-17.037-7.133-4.97Z" transform="translate(-55.789 -283.789)" fill="#9f616a"/><path d="M294.1,673.93l9.517,6.632h0a7.393,7.393,0,0,1,1.838,10.291l-.137.2-15.582-10.858Z" transform="translate(-261.186 -489.63)" fill="#2f2e41"/><path d="M361.614,536.781l-.255-42.619-3.706-26.8-6.91,23.567-.013.019L325.691,527.3l-9.743-4.937.053-.127c.6-1.416,14.626-34.679,18.4-34.679a2.037,2.037,0,0,0,1.735-.762c1.107-1.478.205-4.614.2-4.646-1.08-4.477,1.635-6,2.175-6.256l1.454-30.018.151.01,39.421,2.765-1.654,37.53-3.558,49.172-.122.014Z" transform="translate(-277.648 -346.411)" fill="#2f2e41"/><path d="M416.63,343.537l-.17-.014-42.4-3.417.1-14.028,2.075-36.627.012-.025,8.451-18.346,5.99-2.713,8.74-.46.021.005,7.976,1.976,8.3,59.563Z" transform="translate(-314.146 -234.643)" fill="#e4e4e4"/><circle cx="11.162" cy="11.162" r="11.162" transform="translate(66.156 14.326) rotate(-28.663)" fill="#9f616a"/><path d="M398.916,208.847V204.5s-3.507-4.131.351-5.171c0,0,1.052-10.406,10.171-5.55,0,0,12.626-2.081,11.223,5.2,0,0,3.157-1.9,2.1,2.954l-2.035,7.822s.983-5.167-2.174-5.861l-1.754-1.041s-4.91,4.856-12.276-1.041c0,0-3.157-.753-2.806,2.368S398.916,208.847,398.916,208.847Z" transform="translate(-328.837 -187.278)" fill="#2f2e41"/><path d="M400.5,421.1a4.432,4.432,0,0,0-5.163-4.42l-5.371-8.587-6.014,1.991L391.7,422.1a4.456,4.456,0,0,0,8.793-1Z" transform="translate(-320.354 -322.682)" fill="#9f616a"/><path d="M374.742,335.441l-9.716-19.727.009-.048c.039-.218,3.95-21.935,6.942-29.917,3.01-8.033,7.131-9.646,7.3-9.71l.087-.032,3.695,3.544-5.118,34.16,5.517,16.475Z" transform="translate(-308.47 -239.73)" fill="#e4e4e4"/><rect width="17.111" height="17.111" transform="translate(115.221 91.881)" fill="#13c3c3"/><path d="M355.088,720.23H213.361a.372.372,0,1,1,0-.744H355.088a.372.372,0,0,1,0,.744Z" transform="translate(-212.989 -518.24)" fill="#cacaca"/></g></svg>