<svg xmlns="http://www.w3.org/2000/svg" xmlns:xlink="http://www.w3.org/1999/xlink" width="149.607" height="111.25" viewBox="0 0 149.607 111.25"><defs><linearGradient id="a" x1="0.5" y1="1" x2="0.5" gradientUnits="objectBoundingBox"><stop offset="0" stop-color="gray" stop-opacity="0.251"/><stop offset="0.54" stop-color="gray" stop-opacity="0.122"/><stop offset="1" stop-color="gray" stop-opacity="0.102"/></linearGradient></defs><g transform="translate(0)"><path d="M96.125,75a4.729,4.729,0,0,0-2.4,1.75,5.143,5.143,0,0,0-.376,3.119c.879,9.208,3.194,19-.8,27.341-1.94,4.046-5.186,7.289-7.767,10.964s-4.53,8.263-3.332,12.586c1.464,5.282,6.926,8.211,10.608,12.276,2.41,2.658,4.1,5.887,6.348,8.683s5.33,5.259,8.92,5.423c5.163.238,9.363-4.221,14.425-5.254,5.186-1.057,10.408,1.634,14.612,4.855s8.029,7.123,12.928,9.134c5.411,2.223,11.51,1.883,17.205,3.218,5.186,1.217,9.96,3.806,15.108,5.186s11.183,1.3,15.171-2.228c5.2-4.61,4.79-12.82,8.11-18.918,3.084-5.666,9.121-9.048,13.185-14.056,7.312-9.015,7.073-22.793.864-32.6S201.48,90.744,189.981,89.2c-5.186-.7-10.526-.6-15.511-2.184-13.345-4.235-21.286-19.409-34.911-22.567-8.66-2-17.083,1.466-24.46,5.738C108.7,73.893,102.789,72.239,96.125,75Z" transform="translate(-81.087 -63.864)" fill="#e7f9f9"/><path d="M165.368,347.69s-4.916,4.64-10.193,4.778a10.24,10.24,0,0,0-6.1,2.171,17.227,17.227,0,0,0-2.282,2.171" transform="translate(-137.326 -306.805)" fill="none" stroke="#535461" stroke-miterlimit="10" stroke-width="2"/><path d="M118.5,410.609c.709-.36,3.414-.121,3.414-.121s-1.4,2.326-2.112,2.687a1.441,1.441,0,1,1-1.3-2.566Z" transform="translate(-112.367 -360.49)" fill="#13c3c3"/><path d="M134.39,383.225c.791.084,2.931,1.755,2.931,1.755s-2.449,1.19-3.232,1.108a1.44,1.44,0,0,1,.3-2.862Z" transform="translate(-125.405 -337.218)" fill="#13c3c3"/><path d="M177.033,358.793c.64.471,1.645,2.995,1.645,2.995s-2.71-.206-3.349-.676a1.441,1.441,0,0,1,1.7-2.319Z" transform="translate(-161.296 -316.101)" fill="#13c3c3"/><path d="M216.943,349.7c.71.356,2.128,2.674,2.128,2.674s-2.705.255-3.415-.1a1.44,1.44,0,1,1,1.288-2.573Z" transform="translate(-195.532 -308.367)" fill="#13c3c3"/><path d="M157.414,393.507c.236-.759-.455-3.387-.455-3.387s-2.057,1.775-2.293,2.534a1.441,1.441,0,1,0,2.749.853Z" transform="translate(-143.992 -343.123)" fill="#13c3c3"/><path d="M203.088,383.614c0-.8-1.448-3.094-1.448-3.094s-1.432,2.3-1.43,3.1a1.441,1.441,0,1,0,2.881-.009Z" transform="translate(-183.05 -334.906)" fill="#13c3c3"/><path d="M246.356,365.064c.133-.784-.9-3.294-.9-3.294s-1.8,2.034-1.933,2.818a1.441,1.441,0,0,0,2.838.478Z" transform="translate(-220.111 -318.857)" fill="#13c3c3"/><path d="M234.566,174s-5.922-3.253-7.682-8.235a10.24,10.24,0,0,0-3.943-5.141,17.223,17.223,0,0,0-2.771-1.5" transform="translate(-200.135 -145.407)" fill="none" stroke="#535461" stroke-miterlimit="10" stroke-width="2"/><path d="M198.042,135.145c.56.563,1.164,3.212,1.164,3.212s-2.645-.619-3.205-1.184a1.44,1.44,0,0,1,2.041-2.028Z" transform="translate(-179.131 -124.555)" fill="#13c3c3"/><path d="M228.622,140.225c.164.778-.768,3.329-.768,3.329s-1.883-1.958-2.047-2.737a1.441,1.441,0,1,1,2.816-.593Z" transform="translate(-204.921 -128.19)" fill="#13c3c3"/><path d="M265.353,173.729c-.251.753-2.344,2.486-2.344,2.486s-.637-2.64-.386-3.4a1.442,1.442,0,1,1,2.737.909Z" transform="translate(-236.423 -156.279)" fill="#13c3c3"/><path d="M286.04,209.288c-.12.785-1.89,2.846-1.89,2.846s-1.075-2.495-.955-3.28a1.44,1.44,0,1,1,2.845.432Z" transform="translate(-254.073 -186.862)" fill="#13c3c3"/><path d="M217.5,168.968c.8-.009,3.083-1.475,3.083-1.475s-2.321-1.412-3.116-1.4a1.441,1.441,0,1,0,.033,2.881Z" transform="translate(-196.604 -151.364)" fill="#13c3c3"/><path d="M239.8,209.625c.755-.246,2.5-2.329,2.5-2.329s-2.638-.653-3.392-.406a1.441,1.441,0,1,0,.893,2.737Z" transform="translate(-215.28 -186.239)" fill="#13c3c3"/><path d="M270.964,244.906c.787-.115,2.858-1.873,2.858-1.873s-2.489-1.089-3.274-.974a1.441,1.441,0,1,0,.418,2.848Z" transform="translate(-242.15 -216.383)" fill="#13c3c3"/><circle cx="52.146" cy="52.146" r="52.146" transform="translate(23.038 3.228)" fill="url(#a)"/><circle cx="51.282" cy="51.282" r="51.282" transform="translate(23.903 4.092)" fill="#13c3c3"/><circle cx="40.766" cy="40.766" r="40.766" transform="translate(34.418 14.607)" fill="#dde1ec"/><rect width="2.305" height="36.013" transform="translate(74.032 21.81)" fill="#535461" opacity="0.3"/><g transform="translate(53.312 43.73)" opacity="0.1"><rect width="32.555" height="2.881" transform="translate(24.321 10.779)"/><rect width="2.881" height="23.123" transform="translate(0 2.552) rotate(-62.36)"/><circle cx="4.322" cy="4.322" r="4.322" transform="translate(17.551 7.898)"/></g><rect width="32.555" height="2.881" transform="translate(77.633 53.933)" fill="#535461"/><rect width="23.123" height="2.881" transform="translate(54.659 43.158) rotate(27.64)" fill="#535461"/><circle cx="4.322" cy="4.322" r="4.322" transform="translate(70.863 51.052)" fill="#535461"/><g transform="translate(34.415 14.607)" opacity="0.1"><path d="M323.169,210.934a40.769,40.769,0,0,1,73.345-24.512,40.77,40.77,0,1,0-68.322,44.125A40.581,40.581,0,0,1,323.169,210.934Z" transform="translate(-320 -165.27)"/></g><path d="M994.156,508.14a14.391,14.391,0,0,0-2.625,14.97c3.4,8.943-5.831,23.814-5.831,23.814s.1-.014.288-.046a17.547,17.547,0,0,0,11.645-26.858C995.068,516.109,992.967,511.522,994.156,508.14Z" transform="translate(-855.391 -444.142)" fill="#13c3c3"/><path d="M994.156,508.84a14.391,14.391,0,0,0-2.625,14.97c3.4,8.943-5.831,23.813-5.831,23.813s.1-.014.288-.046a17.547,17.547,0,0,0,11.645-26.858C995.068,516.809,992.967,512.222,994.156,508.84Z" transform="translate(-855.391 -444.741)" opacity="0.1"/><path d="M994.147,508.14s-3.4,7.387,0,13.414.576,22.94-8.457,25.37" transform="translate(-855.382 -444.142)" fill="none" stroke="#535461" stroke-miterlimit="10" stroke-width="1"/><path d="M995.732,676.913s-6.877-1.095-7.5,5.068S975,689,975,689l.236.157c10.4,6.828,20.344,4.349,18.845-4.718C993.528,681.067,993.574,677.682,995.732,676.913Z" transform="translate(-846.232 -588.539)" fill="#13c3c3"/><path d="M995.766,677.36s-5.339,1.171-4.9,6.026-7.923,10.673-15.828,6.06" transform="translate(-846.266 -588.986)" fill="none" stroke="#535461" stroke-miterlimit="10" stroke-width="1"/><path d="M950.562,731.208s-5.416-1.083-6.861-2.528-7.944-3.971-8.666-2.161-9.749,7.944-3.611,9.028,14.444,1.44,16.249.72S950.562,731.208,950.562,731.208Z" transform="translate(-807.112 -630.525)" fill="#a8a8a8"/><path d="M931.431,766.242c6.139,1.083,14.444,1.44,16.249.72,1.376-.55,2.331-3.192,2.708-4.422l.18.037s-1.083,4.333-2.888,5.055-10.111.362-16.249-.72c-1.772-.312-2.279-1.047-2.087-1.976C929.494,765.542,930.112,766.009,931.431,766.242Z" transform="translate(-807.12 -661.896)" opacity="0.2"/></g></svg>