<svg xmlns="http://www.w3.org/2000/svg" width="295.825" height="266.395" viewBox="0 0 295.825 266.395"><g transform="translate(0 -47.775)"><path d="M349.975,326.424a82.593,82.593,0,0,0-6.836-26.067q-1.543-3.446-3.4-6.741a.5.5,0,0,1,.869-.508,83.733,83.733,0,0,1,9.317,25.7q.7,3.779,1.052,7.611C351.041,327.068,350.034,327.064,349.975,326.424Z" transform="translate(-87.015 -245.098)" fill="#e6e6e6"/><path d="M347.846,332.3a53.583,53.583,0,0,0-4.435-16.911q-1-2.236-2.2-4.373a.327.327,0,0,1,.563-.329,54.322,54.322,0,0,1,6.045,16.676q.454,2.451.682,4.937C348.538,332.721,347.885,332.718,347.846,332.3Z" transform="translate(-85.539 -250.808)" fill="#e6e6e6"/><circle cx="4.133" cy="4.133" r="4.133" transform="translate(249.956 52.991)" fill="#e6e6e6"/><path d="M328.407,332.026a53.583,53.583,0,0,0,6.9-16.061q.586-2.378.953-4.8a.327.327,0,0,1,.647.087,54.323,54.323,0,0,1-5.491,16.866q-1.15,2.212-2.5,4.313C328.695,332.781,328.181,332.377,328.407,332.026Z" transform="translate(-65.275 -250.922)" fill="#e6e6e6"/><circle cx="4.133" cy="4.133" r="4.133" transform="translate(267.508 52.701)" fill="#e6e6e6"/><path d="M347.209,342.192v-8.121a3.049,3.049,0,0,0-3.045-3.045H325.215a3.049,3.049,0,0,0-3.045,3.045v8.121a3.049,3.049,0,0,0,3.045,3.045h18.949A3.049,3.049,0,0,0,347.209,342.192Z" transform="translate(-71.389 -257.431)" fill="#f2f2f2" style="isolation:isolate"/><path d="M416.215,333.278h8.121a3.049,3.049,0,0,0,3.045-3.045V297.071a3.049,3.049,0,0,0-3.045-3.045h-8.121a3.049,3.049,0,0,0-3.045,3.045v33.161A3.049,3.049,0,0,0,416.215,333.278Z" transform="translate(-213.145 -245.47)" fill="#f2f2f2" style="isolation:isolate"/><rect width="13.535" height="2.707" transform="translate(200.362 54.984)" fill="#ccc"/><rect width="13.535" height="2.707" transform="translate(200.362 75.964)" fill="#ccc"/><path d="M446.215,333.278h8.121a3.049,3.049,0,0,0,3.045-3.045V297.071a3.049,3.049,0,0,0-3.045-3.045h-8.121a3.049,3.049,0,0,0-3.045,3.045v33.161A3.049,3.049,0,0,0,446.215,333.278Z" transform="translate(-263.448 -245.47)" fill="#f2f2f2" style="isolation:isolate"/><rect width="13.535" height="2.707" transform="translate(180.06 54.984)" fill="#ccc"/><rect width="13.535" height="2.707" transform="translate(180.06 75.964)" fill="#ccc"/><path d="M476.215,333.278h8.121a3.049,3.049,0,0,0,3.045-3.045V297.071a3.049,3.049,0,0,0-3.045-3.045h-8.121a3.049,3.049,0,0,0-3.045,3.045v33.161A3.049,3.049,0,0,0,476.215,333.278Z" transform="translate(-313.751 -245.47)" fill="#f2f2f2" style="isolation:isolate"/><rect width="13.535" height="2.707" transform="translate(159.757 54.984)" fill="#ccc"/><rect width="13.535" height="2.707" transform="translate(159.757 75.964)" fill="#ccc"/><path d="M337.215,414.278h8.121a3.049,3.049,0,0,0,3.045-3.045V378.071a3.049,3.049,0,0,0-3.045-3.045h-8.121a3.049,3.049,0,0,0-3.045,3.045v33.161a3.049,3.049,0,0,0,3.045,3.045Z" transform="translate(-80.682 -271.653)" fill="#f2f2f2" style="isolation:isolate"/><rect width="13.535" height="2.707" transform="translate(253.826 109.802)" fill="#ccc"/><rect width="13.535" height="2.707" transform="translate(253.826 130.781)" fill="#ccc"/><path d="M367.215,414.278h8.121a3.049,3.049,0,0,0,3.045-3.045V378.071a3.049,3.049,0,0,0-3.045-3.045h-8.121a3.049,3.049,0,0,0-3.045,3.045v33.161a3.049,3.049,0,0,0,3.045,3.045Z" transform="translate(-130.984 -271.653)" fill="#f2f2f2" style="isolation:isolate"/><rect width="13.535" height="2.707" transform="translate(233.523 109.802)" fill="#ccc"/><rect width="13.535" height="2.707" transform="translate(233.523 130.781)" fill="#ccc"/><path d="M397.215,414.278h8.121a3.049,3.049,0,0,0,3.045-3.045V378.071a3.049,3.049,0,0,0-3.045-3.045h-8.121a3.049,3.049,0,0,0-3.045,3.045v33.161a3.049,3.049,0,0,0,3.045,3.045Z" transform="translate(-181.287 -271.653)" fill="#f2f2f2" style="isolation:isolate"/><rect width="13.535" height="2.707" transform="translate(213.221 109.802)" fill="#ccc"/><rect width="13.535" height="2.707" transform="translate(213.221 130.781)" fill="#ccc"/><path d="M293.287,352.879H486.162a.677.677,0,0,0,0-1.354H293.287a.677.677,0,0,0,0,1.354Z" transform="translate(-191.014 -264.057)" fill="#ccc"/><path d="M293.287,433.879H486.162a.677.677,0,1,0,0-1.353H293.287a.677.677,0,1,0,0,1.353Z" transform="translate(-191.014 -290.24)" fill="#ccc"/><path d="M431.732,586.983c0-5.233,19.695-9.475,43.989-9.475s43.989,4.242,43.989,9.475c0,3.354-8.1,6.3-20.3,7.982v51.911a4.4,4.4,0,0,1-8.8,0V595.9c-4.651.36-9.662.558-14.889.558s-10.238-.2-14.889-.558v50.976a4.4,4.4,0,1,1-8.8,0V594.964C439.829,593.281,431.732,590.336,431.732,586.983Z" transform="translate(-318.037 -337.105)" fill="#ccc"/><path d="M331.8,445.62h-8.3l-3.947-32h12.245Z" transform="translate(-209.646 -139.962)" fill="#a0616a"/><path d="M0,10.075H26.076V0h-16A10.075,10.075,0,0,0,0,10.075Z" transform="translate(97.863 303.289)" fill="#2f2e41"/><path d="M332.458,437.729l-7.916-2.484,5.815-31.716,11.684,3.666Z" transform="translate(-223.251 -136.7)" fill="#a0616a"/><path d="M0,10.075H26.076V0h-16A10.075,10.075,0,0,0,0,10.075H0Z" transform="translate(86.734 291.493) rotate(17.423)" fill="#2f2e41"/><path d="M483.862,614.3l15.178-39.841c3.405.8,31.961,7.119,41.525-3.065,3.278-3.49,3.917-8.547,1.9-15.029l-5.582-7.014-.173.009c-2.11.111-51.728,2.892-55.129,17.859-2.868,12.618-8.105,36.142-9.642,43.052a3.056,3.056,0,0,0,1.9,3.508l6.1,2.289a3.019,3.019,0,0,0,1.064.194,3.054,3.054,0,0,0,2.851-1.961Z" transform="translate(-369.104 -328.004)" fill="#2f2e41"/><path d="M470.863,621.3l15.178-39.841c3.405.8,31.961,7.118,41.525-3.065,3.278-3.49,3.917-8.547,1.9-15.029l-5.582-7.014-.174.009c-2.11.111-51.728,2.892-55.129,17.859-2.868,12.618-8.105,36.142-9.642,43.052a3.056,3.056,0,0,0,1.9,3.508l6.1,2.289a3.022,3.022,0,0,0,1.064.194,3.054,3.054,0,0,0,2.851-1.961Z" transform="translate(-347.307 -330.266)" fill="#2f2e41"/><path d="M516.837,509.859a7.133,7.133,0,0,1,.6.949l33.378,3.517,4.8-6.588,10.889,5.952-9.437,15.986-40.935-10.437a7.1,7.1,0,1,1,.7-9.378Z" transform="translate(-413.792 -314.328)" fill="#a0616a"/><path d="M492.065,538.555a3.05,3.05,0,0,0,1.231-2.943c-1.883-12.414.284-30.2,2.433-42.928a16.78,16.78,0,0,0-18.651-19.465,54.055,54.055,0,0,0-6.709,1.322h0A16.646,16.646,0,0,0,457.794,491.1c.321,12.286-2.173,27.615-3.261,33.635a3.058,3.058,0,0,0,.564,2.376,2.973,2.973,0,0,0,2.095,1.184c12.052,1.23,25.048,7.107,31.723,10.5a3.045,3.045,0,0,0,1.387.339,3,3,0,0,0,1.764-.581Z" transform="translate(-309.692 -303.351)" fill="#13c3c3"/><path d="M507.828,509.128a3.025,3.025,0,0,0,1.674-1.622l6.721-15.526a7.783,7.783,0,0,0-14.284-6.183l-6.721,15.526a3.049,3.049,0,0,0,1.585,4l8.695,3.764a3.024,3.024,0,0,0,2.331.037Z" transform="translate(-357.986 -305.942)" fill="#13c3c3"/><path d="M469.837,507.859a7.119,7.119,0,0,1,.6.948l33.378,3.517,4.8-6.588,10.889,5.952-9.437,15.986-40.935-10.437a7.1,7.1,0,1,1,.7-9.378Z" transform="translate(-334.985 -313.682)" fill="#a0616a"/><path d="M460.828,510.128a3.026,3.026,0,0,0,1.674-1.622l6.721-15.526a7.782,7.782,0,0,0-14.284-6.183l-6.721,15.526a3.049,3.049,0,0,0,1.585,4l8.695,3.764A3.024,3.024,0,0,0,460.828,510.128Z" transform="translate(-279.179 -306.266)" fill="#13c3c3"/><circle cx="16.622" cy="16.622" r="16.622" transform="translate(152.001 131.343)" fill="#a0616a"/><path d="M479.848,441.274a1.445,1.445,0,0,0-1.256-1.908,3.337,3.337,0,0,0-2.352,1.161,9.361,9.361,0,0,1-2.078,1.785,1.788,1.788,0,0,1-2.353-.425,3.273,3.273,0,0,1,.125-2.54,24.975,24.975,0,0,0,1.1-6.612,11.642,11.642,0,0,0-1.665-7.071c-1.789-2.521-4.989-3.478-8.016-3.408s-6.007,1-9.006,1.595c-1.035.2-2.252.308-2.945-.494-.736-.853-.466-2.234-.153-3.386.813-2.99,1.675-6.08,3.563-8.495a12.79,12.79,0,0,1,8.162-4.6,19.585,19.585,0,0,1,9.111,1.034,24.429,24.429,0,0,1,11.967,8.337,19.785,19.785,0,0,1,3.775,14.618,18.047,18.047,0,0,1-6.69,11.406Z" transform="translate(-299.34 -281.902)" fill="#2f2e41"/><path d="M378.03,500.877a82.594,82.594,0,0,0-6.836-26.067q-1.543-3.446-3.4-6.741a.5.5,0,0,1,.869-.508,83.733,83.733,0,0,1,9.317,25.7q.7,3.779,1.052,7.611C379.1,501.522,378.089,501.518,378.03,500.877Z" transform="translate(-134.057 -301.489)" fill="#3f3d56"/><circle cx="6.371" cy="6.371" r="6.371" transform="translate(224.934 155.451)" fill="#13c3c3"/><path d="M375.9,506.756a53.581,53.581,0,0,0-4.435-16.911q-1-2.236-2.2-4.373a.327.327,0,0,1,.563-.329,54.322,54.322,0,0,1,6.045,16.676q.454,2.451.682,4.937C376.593,507.174,375.94,507.171,375.9,506.756Z" transform="translate(-132.58 -307.199)" fill="#3f3d56"/><circle cx="4.133" cy="4.133" r="4.133" transform="translate(230.97 171.053)" fill="#13c3c3"/><path d="M356.462,506.48a53.579,53.579,0,0,0,6.9-16.061q.586-2.379.953-4.8a.327.327,0,0,1,.647.087,54.321,54.321,0,0,1-5.491,16.866q-1.15,2.212-2.5,4.313c-.227.353-.74-.05-.515-.4Z" transform="translate(-112.317 -307.313)" fill="#3f3d56"/><circle cx="4.133" cy="4.133" r="4.133" transform="translate(248.521 170.763)" fill="#13c3c3"/><path d="M375.264,516.646v-8.121a3.049,3.049,0,0,0-3.045-3.045H353.27a3.049,3.049,0,0,0-3.045,3.045v8.121a3.049,3.049,0,0,0,3.045,3.045h18.949a3.049,3.049,0,0,0,3.045-3.045Z" transform="translate(-118.43 -313.822)" fill="#ccc"/><rect width="58.201" height="4.737" rx="2.369" transform="translate(84.594 200.475)" fill="#ccc"/><path d="M563.131,505.467h60.231a4.4,4.4,0,0,0,4.4-4.4V467.907a4.4,4.4,0,0,0-4.4-4.4H563.131a4.4,4.4,0,0,0-4.4,4.4v33.161a4.4,4.4,0,0,0,4.4,4.4Z" transform="translate(-512.036 -300.255)" fill="#ccc"/><circle cx="4.061" cy="4.061" r="4.061" transform="translate(77.15 180.172)" fill="#fff"/><path d="M323.131,524.508H592.48a4.4,4.4,0,1,1,0,8.8H584.7v95.761a4.4,4.4,0,0,1-8.8,0V541.759l-49.316,89.384a4.4,4.4,0,1,1-7.619-4.4l51.552-93.438H334.974v.057L386.5,626.744a4.4,4.4,0,0,1-7.619,4.4l-43.9-79.572v77.5a4.4,4.4,0,0,1-8.8,0V535.625l-1.28-2.32h-1.766a4.4,4.4,0,1,1,0-8.8Z" transform="translate(-318.732 -319.973)" fill="#3f3d56"/></g></svg>