<svg xmlns="http://www.w3.org/2000/svg" width="147.114" height="81.732" viewBox="0 0 147.114 81.732">
  <g id="Group_16815" data-name="Group 16815" transform="translate(-207.065 -235.31)">
    <path id="Union_4" data-name="Union 4" d="M7.635,72.821C2.573,67.575,0,60.253,0,51.056A62.966,62.966,0,0,1,5.164,25.4,45.613,45.613,0,0,1,19.6,6.863,34.72,34.72,0,0,1,40.711,0c8.682,0,15.656,2.656,20.718,7.9s7.626,12.578,7.626,21.774A63.086,63.086,0,0,1,63.9,55.328,45.521,45.521,0,0,1,49.467,73.86a34.671,34.671,0,0,1-21.113,6.872C19.671,80.732,12.7,78.076,7.635,72.821ZM20.14,7.6A44.845,44.845,0,0,0,6.009,25.772,62.112,62.112,0,0,0,.919,51.056C.919,60,3.4,67.116,8.3,72.187s11.631,7.635,20.057,7.635a33.857,33.857,0,0,0,20.571-6.7A44.688,44.688,0,0,0,63.055,54.96a62.121,62.121,0,0,0,5.081-25.285c0-8.949-2.481-16.06-7.369-21.131S49.135.91,40.711.91A33.851,33.851,0,0,0,20.14,7.6Zm88.468,71.811L111.915,63.2H70.359L72.8,50.514l.092-.1,45.552-49.09H139.2L96.866,47.73h18.871L118.6,33.3h17.586l-.111.542L133.322,47.73H146L142.84,63.2H130.162l-3.2,16.207ZM73.658,50.946,71.471,62.283h41.565L109.728,78.5h16.483l3.2-16.216h12.679l2.793-13.634H132.2l.11-.551,2.756-13.892H119.357L116.49,48.649h-21.7L137.126,2.233H118.852ZM21.113,61.879c-2.086-2.454-3.142-6.248-3.142-11.265a56.391,56.391,0,0,1,2.453-15.95,37.658,37.658,0,0,1,7.194-13.891c3.2-3.767,7.047-5.669,11.43-5.669,3.8,0,6.8,1.258,8.9,3.739,2.086,2.462,3.133,6.257,3.133,11.264a56.365,56.365,0,0,1-2.444,15.95,37.631,37.631,0,0,1-7.194,13.892c-3.206,3.776-7.047,5.678-11.43,5.678C26.212,65.627,23.217,64.369,21.113,61.879Zm7.2-40.509A36.8,36.8,0,0,0,21.3,34.922,55.552,55.552,0,0,0,18.89,50.614c0,4.8.992,8.388,2.922,10.676,1.947,2.3,4.63,3.427,8.2,3.427,4.1,0,7.709-1.81,10.732-5.356l.349.294-.349-.294A37.045,37.045,0,0,0,47.767,45.8a55.934,55.934,0,0,0,2.407-15.693c0-4.787-.992-8.379-2.921-10.667a10.21,10.21,0,0,0-8.2-3.427C34.95,16.014,31.339,17.824,28.317,21.37Z" transform="translate(207.565 235.809)" fill="#0181c0" stroke="rgba(0,0,0,0)" stroke-width="1"/>
  </g>
</svg>
