<svg xmlns="http://www.w3.org/2000/svg" width="113.363" height="80.117" viewBox="0 0 113.363 80.117">
  <g id="Group_16849" data-name="Group 16849" transform="translate(-54.865 -151.487)">
    <g id="Group_16848" data-name="Group 16848" transform="translate(54.865 151.487)">
      <path id="Path_16866" data-name="Path 16866" d="M190.009,230.031l15.128-75.667H173.032l-2.664,13.312h15.308l-.107.541-12.357,61.814Zm-5.448-61.447h-15.3l.107-.547,2.917-14.587h33.968l-.107.547-15.388,76.942H172.1l.107-.547Z" transform="translate(-92.889 -152.14)" fill="#0181c0"/>
      <path id="Path_16867" data-name="Path 16867" d="M104.172,217.862a36.9,36.9,0,0,0,6.956-13.459,55.2,55.2,0,0,0,2.39-15.569c0-4.753-.975-8.318-2.9-10.588a10.091,10.091,0,0,0-8.131-3.4c-4.072,0-7.657,1.789-10.648,5.314a36.546,36.546,0,0,0-6.963,13.446,55.01,55.01,0,0,0-2.4,15.575c0,4.753.988,8.318,2.911,10.588s4.593,3.391,8.131,3.391C97.589,223.163,101.168,221.38,104.172,217.862Zm7.838-13.205a37.391,37.391,0,0,1-7.15,13.786,16.662,16.662,0,0,1-5.227,4.219,13.573,13.573,0,0,1-6.109,1.415c-3.779,0-6.736-1.248-8.826-3.719-2.07-2.437-3.118-6.2-3.118-11.176A55.712,55.712,0,0,1,84,193.361a37.291,37.291,0,0,1,7.15-13.786c3.171-3.739,6.99-5.635,11.336-5.635a11,11,0,0,1,8.826,3.719c2.07,2.443,3.118,6.209,3.118,11.176A56.429,56.429,0,0,1,112.01,204.657Z" transform="translate(-63.745 -158.95)" fill="#0181c0"/>
      <path id="Path_16868" data-name="Path 16868" d="M95.252,151.489c8.625,0,15.542,2.644,20.569,7.844s7.557,12.484,7.557,21.6a62.575,62.575,0,0,1-5.114,25.456,45.142,45.142,0,0,1-14.313,18.393A34.461,34.461,0,0,1,83,231.6c-8.626,0-15.542-2.644-20.569-7.851a25.3,25.3,0,0,1-5.661-9.326,36.906,36.906,0,0,1-1.9-12.271A62.462,62.462,0,0,1,59.989,176.7a45.253,45.253,0,0,1,14.314-18.4A34.441,34.441,0,0,1,95.252,151.489Zm19.908,8.485c-4.847-5.034-11.55-7.577-19.908-7.577a33.543,33.543,0,0,0-20.4,6.636,44.31,44.31,0,0,0-14.02,18.032,61.516,61.516,0,0,0-5.06,25.089c0,8.879,2.463,15.936,7.324,20.963a23.4,23.4,0,0,0,8.632,5.668A31.474,31.474,0,0,0,83,230.687a33.514,33.514,0,0,0,20.4-6.636,44.321,44.321,0,0,0,14.02-18.032,61.591,61.591,0,0,0,5.047-25.089C122.47,172.065,120.013,165.008,115.16,159.974Z" transform="translate(-54.865 -151.487)" fill="#0181c0"/>
    </g>
  </g>
</svg>
