<svg id="Group_16853" data-name="Group 16853" xmlns="http://www.w3.org/2000/svg" width="137.938" height="80.743" viewBox="0 0 137.938 80.743">
  <g id="Group_16852" data-name="Group 16852">
    <path id="Path_16876" data-name="Path 16876" d="M341.183,633.74a29.25,29.25,0,0,1-9.066-4.929l-8.092,12.35a34.173,34.173,0,0,0,11.886,6.266,52.428,52.428,0,0,0,15.727,2.3,46.074,46.074,0,0,0,18.346-3.492,30.105,30.105,0,0,0,12.538-9.556,22.568,22.568,0,0,0,4.493-13.726,18.111,18.111,0,0,0-4.3-12.262c-2.867-3.3-6.984-5.587-12.222-6.8l-.833-.2,22.127-20.663,2.068-10.879H340.767l-2.78,13.417h33.228L351.29,604.213l-2.182,11.107h7.6c4.338,0,7.622.705,9.791,2.115a7.371,7.371,0,0,1,3.344,6.615,9.841,9.841,0,0,1-4.493,8.589c-2.928,1.994-7.138,3.008-12.5,3.008A35.517,35.517,0,0,1,341.183,633.74Zm-8.864-5.963a28.077,28.077,0,0,0,9.16,5.1,35.19,35.19,0,0,0,11.369,1.847c5.184,0,9.207-.96,11.98-2.854a8.823,8.823,0,0,0,4.11-7.823A6.432,6.432,0,0,0,366,618.208c-2.015-1.3-5.137-1.968-9.287-1.968H348l2.451-12.484.107-.107,18.333-17.171H336.859l3.17-15.257h54.945l-2.344,12.269-.1.1-20.992,19.6a22.927,22.927,0,0,1,11.873,6.883,19.014,19.014,0,0,1,4.519,12.873,23.522,23.522,0,0,1-4.667,14.277,31.012,31.012,0,0,1-12.907,9.838,46.962,46.962,0,0,1-18.716,3.573,53.407,53.407,0,0,1-16.01-2.33,34.806,34.806,0,0,1-12.517-6.715l-.3-.255,9.106-13.894Z" transform="translate(-257.036 -569.902)" fill="#0181c0"/>
    <path id="Path_16877" data-name="Path 16877" d="M255.471,637.932c1.947,2.31,4.634,3.425,8.193,3.425,4.1,0,7.709-1.8,10.731-5.345a36.962,36.962,0,0,0,7.018-13.565,55.714,55.714,0,0,0,2.411-15.687c0-4.781-.987-8.374-2.928-10.677a10.2,10.2,0,0,0-8.193-3.411c-4.1,0-7.716,1.8-10.731,5.346a36.976,36.976,0,0,0-7.024,13.565,55.668,55.668,0,0,0-2.4,15.687C252.543,632.056,253.53,635.649,255.471,637.932Zm8.193,4.352a11.072,11.072,0,0,1-8.9-3.754c-2.088-2.458-3.136-6.245-3.136-11.262a56.314,56.314,0,0,1,2.444-15.949,37.8,37.8,0,0,1,7.192-13.887c3.21-3.767,7.058-5.681,11.436-5.681a11.077,11.077,0,0,1,8.9,3.747c2.082,2.465,3.143,6.259,3.143,11.268a57.077,57.077,0,0,1-2.444,15.949,37.826,37.826,0,0,1-7.206,13.887C271.89,640.37,268.049,642.283,263.664,642.283Z" transform="translate(-233.656 -576.645)" fill="#0181c0"/>
    <path id="Path_16878" data-name="Path 16878" d="M224.868,620.323a62.961,62.961,0,0,1,5.164-25.653,45.481,45.481,0,0,1,14.425-18.541,34.71,34.71,0,0,1,21.107-6.87c8.7,0,15.66,2.666,20.73,7.911,5.05,5.245,7.615,12.578,7.615,21.765a63.082,63.082,0,0,1-5.151,25.653,45.633,45.633,0,0,1-14.438,18.535,34.7,34.7,0,0,1-21.1,6.877c-8.69,0-15.667-2.666-20.73-7.924h.007C227.434,636.836,224.868,629.516,224.868,620.323Zm6-25.284a62.208,62.208,0,0,0-5.09,25.284c0,8.945,2.485,16.05,7.38,21.12s11.631,7.635,20.066,7.635a33.826,33.826,0,0,0,20.563-6.689,44.747,44.747,0,0,0,14.129-18.172A62.209,62.209,0,0,0,293,598.934c0-8.945-2.485-16.05-7.38-21.133-4.875-5.057-11.631-7.622-20.052-7.622a33.865,33.865,0,0,0-20.576,6.689A44.8,44.8,0,0,0,230.865,595.039Z" transform="translate(-224.865 -569.257)" fill="#0181c0"/>
  </g>
</svg>
