<svg xmlns="http://www.w3.org/2000/svg" width="60" height="60" viewBox="0 0 60 60">
  <g id="Group_17691" data-name="Group 17691" transform="translate(-646 -972)">
    <circle id="Ellipse_726" data-name="Ellipse 726" cx="30" cy="30" r="30" transform="translate(646 972)" fill="#1c5472"/>
    <g id="Group_17554" data-name="Group 17554" transform="translate(1 2)">
      <path id="Path_30891" data-name="Path 30891" d="M-7.749-3.69a2.435,2.435,0,0,1,.882,1.674c0,.63-.585,1.188-1.764,1.188-.8,0-1.224-.324-1.224-.99,0-.126.009-.306.027-.513h.369a14.588,14.588,0,0,0,1.476-.081l.036-1.278a17.131,17.131,0,0,1-1.746.108H-9.7c.036-.324.081-.666.126-.99a13.85,13.85,0,0,0,1.656-.09l.045-1.278a10.712,10.712,0,0,1-1.53.117c.036-.243.063-.432.081-.549.045-.252.09-.513.18-.891l-1.512-.081a5.572,5.572,0,0,1-.018.882q-.013.257-.054.594A7.67,7.67,0,0,1-12.5-6.2l-.063,1.242a11.108,11.108,0,0,0,1.692.315l-.126,1A7.583,7.583,0,0,1-12.681-4l-.072,1.305a10.57,10.57,0,0,0,1.611.279c-.036.342-.054.63-.054.828,0,1.512,1,2.16,2.52,2.16C-6.624.576-5.4-.477-5.4-1.836a3.537,3.537,0,0,0-.837-2.178Zm4.482-.252.549,1.4A11.558,11.558,0,0,1,.828-3.609,1.03,1.03,0,0,1,1.98-2.583C1.98-1.5.576-.972-1.512-.918L-.936.414C2.133.225,3.42-1.008,3.42-2.556A2.224,2.224,0,0,0,.963-4.869a12.8,12.8,0,0,0-3.222.684A10.246,10.246,0,0,1-3.267-3.942ZM11.142-6.426a6.373,6.373,0,0,1-.927.6c-.387.225-1.062.576-1.719.954A18.706,18.706,0,0,1,7.425-7.245L6.066-6.7c.4.936.81,1.845,1.224,2.61A3,3,0,0,0,5.841-1.719C5.841-.072,7.254.423,9.09.423A16.951,16.951,0,0,0,11.979.2L12-1.359a15.284,15.284,0,0,1-2.943.342c-1.143,0-1.71-.279-1.71-.864s.5-1.062,1.188-1.512A24.069,24.069,0,0,1,10.89-4.635c.36-.18.684-.351,1-.54ZM-10.008,4.566h-2.8v.972h2.8ZM-9.666,5.8h-3.609V6.816h3.609Zm-1.458,4.815v.765h-.648v-.765ZM-10.008,9.6H-12.87V12.72h1.1V12.4h1.764Zm-2.826-.3H-9.99V8.328h-2.844Zm0-1.242H-9.99V7.086h-2.844ZM-4.7,9.7h-1.89V9h1.53V7.842h-1.53V7.167h1.737V5.988h-.864c.216-.369.468-.855.72-1.35l-1.278-.36a9.114,9.114,0,0,1-.576,1.575l.414.135H-8.109l.468-.18a5.627,5.627,0,0,0-.6-1.467L-9.3,4.728a6.986,6.986,0,0,1,.486,1.26h-.7V7.167h1.629v.675H-9.315V9h1.431v.7H-9.81v1.188h1.926v1.962h1.3V10.893H-4.7ZM-2.727,4.8a6.529,6.529,0,0,1,.135,1.368c0,.675-.081,3.06-.081,4.185,0,1.557.972,2.259,2.529,2.259a4.727,4.727,0,0,0,3.96-2.079L2.835,9.327a3.489,3.489,0,0,1-2.97,1.809.99.99,0,0,1-1.1-1.125c0-.981.063-2.907.108-3.843.018-.387.072-.927.135-1.35ZM9.981,4.5a6.436,6.436,0,0,1-.783.846c-.6.576-1.746,1.521-2.457,2.1-.945.774-1,1.314-.09,2.1.81.693,2.088,1.791,2.583,2.3.288.3.585.6.873.927l1.26-1.17c-.891-.846-2.646-2.2-3.231-2.718-.432-.378-.45-.459-.009-.837.558-.486,1.674-1.341,2.232-1.764.243-.189.549-.423.882-.666Z" transform="translate(676 993)" fill="#fffffe" stroke="rgba(0,0,0,0)" stroke-width="1"/>
      <path id="Path_16374" data-name="Path 16374" d="M.347,0,0,.509,4.993,5.058,0,9.619l.344.5L5.9,5.058Z" transform="translate(681.114 1012.828) rotate(90)" fill="#fffffe"/>
    </g>
  </g>
</svg>
