<svg xmlns="http://www.w3.org/2000/svg" width="88.6" height="110.042" viewBox="0 0 88.6 110.042">
  <g id="Group_17692" data-name="Group 17692" transform="translate(-790 -2489.958)">
    <g id="e0225_1" transform="translate(790 2489.958)">
      <path id="Path_30890" data-name="Path 30890" d="M102.937,48.872C98.926,34.972,85.706,20,60.426,20s-38.5,14.972-42.511,28.872C13.6,63.8,16.582,83.955,32.292,96.248c18.924,14.8,24.4,21.5,26.352,31.478.348,1.738,1.216,2.317,1.781,2.317s1.433-.565,1.781-2.317c1.955-9.976,7.428-16.68,26.352-31.478C104.269,83.955,107.237,63.814,102.937,48.872Z" transform="translate(-16.122 -20)" fill="#0182c5"/>
    </g>
    <circle id="Ellipse_769" data-name="Ellipse 769" cx="34" cy="34" r="34" transform="translate(800 2499)" fill="#fff"/>
    <path id="Path_30892" data-name="Path 30892" d="M-18.975-8.9c1.215.09,2.5.165,4.065.165,1.41,0,3.255-.105,4.29-.18v-1.995c-1.14.12-2.835.21-4.3.21a38.931,38.931,0,0,1-4.05-.18Zm-.69,4.14a9.555,9.555,0,0,0-.3,2.145c0,2.04,1.71,3.18,5.115,3.18A22.68,22.68,0,0,0-9.69.06L-9.7-2.025a21.064,21.064,0,0,1-5.22.585c-2.145,0-3.045-.69-3.045-1.635a6.163,6.163,0,0,1,.255-1.5ZM7.02-2.94A3,3,0,0,1,5.115-1.89c-.375,0-.57-.255-.57-.645,0-1.545.495-3.72.495-5.265A2.084,2.084,0,0,0,2.7-9.99c-1.44,0-3.15,1.185-4.32,2.2A2.238,2.238,0,0,0-1.59-8.1c.255-.39.57-.87.765-1.125L-1.38-9.93c.12-.93.24-1.695.33-2.115l-2.175-.06a7.923,7.923,0,0,1,.06,1.32c0,.165-.03.585-.06,1.14-.63.09-1.275.165-1.71.195a12.633,12.633,0,0,1-1.29.015l.18,1.9c.84-.1,1.98-.255,2.7-.345L-3.4-6.84C-4.245-5.6-5.745-3.615-6.585-2.6l1.17,1.65c.51-.705,1.23-1.8,1.875-2.745-.03,1.26-.03,2.115-.06,3.27,0,.24-.015.78-.045,1.1H-1.6c-.03-.33-.09-.87-.1-1.14-.09-1.4-.09-2.64-.09-3.855,0-.375.015-.78.03-1.2,1.2-1.335,2.82-2.7,3.93-2.7.615,0,.99.36.99,1.095,0,1.35-.525,3.525-.525,5.145,0,1.425.75,2.25,1.86,2.25A3.932,3.932,0,0,0,7.275-.855ZM18.375-7.8l-1.11.465a11.573,11.573,0,0,1,1.17,2.085l1.14-.51A19.658,19.658,0,0,0,18.375-7.8Zm1.68-.69-1.1.51a13.2,13.2,0,0,1,1.23,2.025l1.125-.54A22.437,22.437,0,0,0,20.055-8.49ZM8.37-10.26l.195,2.04c1.725-.375,4.845-.7,6.135-.84a5.89,5.89,0,0,0-2.19,4.575c0,3.225,2.94,4.905,6.06,5.1l.69-2.055c-2.52-.12-4.8-1-4.8-3.45A4.509,4.509,0,0,1,17.6-9.045,15.34,15.34,0,0,1,20.46-9.24l-.015-1.92c-1.05.045-2.67.135-4.2.255-2.715.24-5.175.465-6.42.57C9.54-10.305,8.97-10.275,8.37-10.26ZM-7.725,10.365A4.252,4.252,0,0,1-7,11.385c.1-.045.21-.105.315-.15A8.142,8.142,0,0,1-7.725,14.16Zm-2.31,3.7V12.825h.855V14.07Zm-2.025-1.245h.855V14.07h-.87c.015-.345.015-.675.015-.99Zm1.575-4.785c-.135.375-.27.765-.42,1.1h-1.29c.18-.345.345-.72.51-1.1Zm.45,2.4h.855v1.125h-.855Zm-2.025,0h.855v1.125h-.855Zm11.6,4.8h-2.55V13.89h2.25v-1.5h-2.25V11.04H-4.71v1.35h-.735c.09-.315.15-.645.21-.96l-1.335-.27A4.568,4.568,0,0,0-4.215,7.515h1.74a4.7,4.7,0,0,1-.27,1.92.444.444,0,0,1-.4.165c-.21,0-.615-.015-1.08-.06a3.556,3.556,0,0,1,.405,1.44,11.078,11.078,0,0,0,1.515-.045,1.335,1.335,0,0,0,.915-.495c.33-.39.45-1.425.525-3.81.015-.2.03-.57.03-.57H-7.5V7.515h1.68A3.141,3.141,0,0,1-7.725,10.05V9.135H-9.4a16.835,16.835,0,0,0,.825-1.89l-1.02-.63-.225.075H-11.19c.12-.345.225-.705.315-1.065l-1.575-.33A10.5,10.5,0,0,1-14.67,9.9a9.663,9.663,0,0,1,1.17.96v2.22c0,1.68-.075,3.915-1.08,5.46a6.169,6.169,0,0,1,1.23.795,9.347,9.347,0,0,0,1.185-3.945H-9.18v2.16c0,.2-.075.255-.255.255s-.765,0-1.365-.03a4.761,4.761,0,0,1,.51,1.515,4.217,4.217,0,0,0,1.995-.3c.45-.255.57-.7.57-1.41V14.415a8.384,8.384,0,0,1,1.17.63,6.4,6.4,0,0,0,.6-1.155H-4.71v1.35H-7.485v1.53H-4.71v2.475h1.695V16.77h2.55ZM5.01,6.84A11.86,11.86,0,0,0,2.3,5.355L1.32,6.69A10.3,10.3,0,0,1,3.975,8.31Zm-.825,3.99A10.466,10.466,0,0,0,1.41,9.4L.465,10.74a11.65,11.65,0,0,1,2.7,1.575Zm-.66,2.37A45.19,45.19,0,0,1,.87,17.985l1.56,1.11c.84-1.47,1.71-3.195,2.46-4.785Zm6.24-3.93h1.86v2.715H9.72c.03-.495.045-.975.045-1.47Zm4.725,4.4v-1.68H13.365V7.59h-3.6V5.31H8V7.59H5.49V9.27H8V10.5q0,.742-.045,1.485h-3.2v1.68H7.68A6.729,6.729,0,0,1,3.96,18.09a6.8,6.8,0,0,1,1.485,1.26A7.5,7.5,0,0,0,9.33,14.535a8.459,8.459,0,0,0,4.08,4.8,6.629,6.629,0,0,1,1.245-1.56,7.034,7.034,0,0,1-3.825-4.11Z" transform="translate(834 2531)" fill="#0182c5" stroke="rgba(0,0,0,0)" stroke-width="1"/>
  </g>
</svg>
