<svg id="HEAD" xmlns="http://www.w3.org/2000/svg" viewBox="0 0 26.9 26.7"><defs><style>.cls-1{fill:#fff;fill-rule:evenodd;}</style></defs><title>icon-tel-w</title><path class="cls-1" d="M13.1,12.7a4,4,0,1,1-4,4A4,4,0,0,1,13.1,12.7Zm-1.5-2.5V8.9a1.2,1.2,0,0,0-1.2-1.2A1.2,1.2,0,0,0,9.1,8.9v1.3L2.4,17.4a2.3,2.3,0,0,0-.8,1.8v2a2,2,0,0,0,2,2h.5v1.2a1.3,1.3,0,0,0,1.3,1.3,1.2,1.2,0,0,0,1.2-1.3V23.2h13v1.2a1.3,1.3,0,0,0,1.3,1.3,1.2,1.2,0,0,0,1.2-1.3V23.2h.5a2,2,0,0,0,2-2v-2a2.7,2.7,0,0,0-.7-1.8l-6.8-7.2V8.9a1.2,1.2,0,0,0-1.2-1.2,1.2,1.2,0,0,0-1.3,1.2v1.3Zm1.5,4.5a2,2,0,1,0,2,2A2,2,0,0,0,13.1,14.7Zm0-13C8.9,1.7,4.6,2.5,3,4S1.3,7.5,1.2,8.9v.2a1.1,1.1,0,0,0,1,1l4-.3h.1a1.1,1.1,0,0,0,.9-1v-2A1.1,1.1,0,0,1,8.2,5.7H18a1.1,1.1,0,0,1,1.1,1.1v2a1.2,1.2,0,0,0,1,1h.1l3.9.3a1,1,0,0,0,1-1V8.9C25,7.5,24.5,5.2,23.2,4S17.4,1.7,13.1,1.7Z"/></svg>