<svg xmlns="http://www.w3.org/2000/svg" width="33.994" height="33.002" viewBox="0 0 33.994 33.002">
  <path id="シェイプ_4_のコピー" data-name="シェイプ 4 のコピー" d="M1025.6,27.677a3.534,3.534,0,0,0-1.363-.9c.6-3.548.49-5.53-13.7-10.072C996.1,12.082,994.483,14,993.294,17.84l-.2.655a1.983,1.983,0,0,0,1.269,2.477l4.633,1.481a1.934,1.934,0,0,0,2.434-1.288l.2-.656c.921-2.977,5.43-1.634,7.985-.816s7.007,2.345,6.086,5.32l-.2.656a1.981,1.981,0,0,0,1.268,2.475l4.633,1.482a1.934,1.934,0,0,0,2.434-1.29l.131-.454a2.457,2.457,0,0,1,.84.578c.975,1.026,1.3,3.012.936,5.737-.629,4.725-2.456,6.412-4.4,6.973v-.821a4.77,4.77,0,0,0-.621-2.381,30.262,30.262,0,0,0-8.2-9.015v-2a.279.279,0,0,0-.278-.28h-2.88a.277.277,0,0,0-.277.28v1.986H1005.8V26.955a.279.279,0,0,0-.278-.28h-2.883a.279.279,0,0,0-.278.28v1.986a30.325,30.325,0,0,0-8.209,9.027,4.767,4.767,0,0,0-.621,2.381v1.857A4.754,4.754,0,0,0,998.241,47h18.384a4.748,4.748,0,0,0,4.707-4.67c3.117-.743,4.885-3.328,5.5-7.982C1027.254,31.224,1026.838,28.978,1025.6,27.677ZM1012.25,40.4l-1.85-.669a3.027,3.027,0,0,0,.309-1.334,2.956,2.956,0,1,0-2.956,3.006,2.9,2.9,0,0,0,1.632-.5l1.015,1.7a4.822,4.822,0,0,1-2.647.793,4.993,4.993,0,1,1,4.91-4.994A5.045,5.045,0,0,1,1012.25,40.4Z" transform="translate(-993.001 -13.999)" fill="#fff"/>
</svg>
