<svg xmlns="http://www.w3.org/2000/svg" viewBox="359 82.136 276.01 87.622"><defs><style>.a{fill:#fff;}.b,.c{fill:none;stroke:#000;}.b{stroke-width:2px;}.c{stroke-width:4px;}</style></defs><g transform="translate(128 29)"><path d="M0-8.7H276.01V78.919H0Z" transform="translate(507.01 132.055) rotate(180)"/><rect class="a" width="18" height="53" transform="translate(266 71)"/><rect class="a" width="11" height="47" transform="translate(304 77)"/><rect class="a" width="11" height="47" transform="translate(412 77)"/><circle class="a" cx="15" cy="15" r="15" transform="translate(270 71)"/><circle class="a" cx="23.5" cy="23.5" r="23.5" transform="translate(319 77)"/><ellipse cx="12.5" cy="13" rx="12.5" ry="13" transform="translate(334 87)"/><path d="M0,9.248,31-12.7V20.16H0Z" transform="translate(342 89)"/><path d="M1706.726,517.7h38.068l-38.068,49.142Z" transform="translate(-1279 -449.829)"/><path d="M1706.726,517.7h38.068l-38.068,49.142Z" transform="translate(-1265.385 -436.207)"/><path class="a" d="M13.615,62.765v-31.2L0,49.14l0,0V0H38.068L27.516,13.622H51.683L13.617,62.763Zm0-49.143V31.567l13.9-17.945Z" transform="translate(427.727 67.874)"/><path class="b" d="M1451.7,836.186l-16.94,16.94" transform="translate(-1134 -761)"/><path class="b" d="M1451.7,836.186l-16.94,16.94" transform="translate(-1170 -767)"/><path class="b" d="M1451.7,836.186l-16.94,16.94" transform="translate(-1026 -761)"/><path class="c" d="M1695.286,890.936V861.894h18.892" transform="translate(-1241.718 -764.871)"/><circle class="a" cx="19.5" cy="19.5" r="19.5" transform="translate(406 124) rotate(180)"/><circle cx="11.7" cy="11.7" r="11.7" transform="translate(398.2 116.2) rotate(180)"/><rect class="a" width="19" height="51" transform="translate(407 124) rotate(180)"/></g></svg>