<svg xmlns="http://www.w3.org/2000/svg" width="64" height="64" viewBox="0 0 64 64">
  <g id="Group_66" data-name="Group 66" transform="translate(-770 -1695)">
    <rect id="Rectangle_49" data-name="Rectangle 49" width="64" height="64" rx="32" transform="translate(770 1695)" fill="#80c269"/>
    <g id="icon-news" transform="translate(786 1713.001)">
      <path id="Path_69" data-name="Path 69" d="M22.4,17.4V5H0V26.6A6.4,6.4,0,0,0,6.4,33H25.6c-.2,0-.389-.012-.581-.029.192.017.385.029.581.029A6.4,6.4,0,0,0,32,26.6V17.4ZM6.4,29.8a3.2,3.2,0,0,1-3.2-3.2V8.2h16V26.6a6.362,6.362,0,0,0,.863,3.2H6.4Zm14.42,1.046-.046-.05Zm-.282-.34-.048-.065Zm3.8,2.368c.174.034.35.06.528.08-.178-.02-.355-.045-.528-.08ZM21.28,31.312c.04.037.08.075.123.112C21.36,31.387,21.32,31.349,21.28,31.312Zm.364.312c.062.049.126.1.19.143-.065-.047-.129-.094-.191-.143Zm.541.382c.084.053.168.106.255.155-.087-.05-.172-.1-.256-.155Zm.464.27c.123.064.248.125.376.181q-.192-.084-.376-.181Zm.554.256c.133.054.269.1.406.148q-.206-.068-.407-.148Zm.576.2c.17.051.342.1.52.134-.18-.035-.35-.081-.521-.132ZM28.8,26.6a3.2,3.2,0,0,1-6.4,0v-6h6.4Z" transform="translate(0 -5)" fill="#fff"/>
      <rect id="Rectangle_35" data-name="Rectangle 35" width="4.8" height="4.8" rx="0.75" transform="translate(6.4 6.4)" fill="#fff"/>
      <rect id="Rectangle_36" data-name="Rectangle 36" width="3.2" height="1.6" rx="0.463" transform="translate(12.8 6.4)" fill="#fff"/>
      <rect id="Rectangle_37" data-name="Rectangle 37" width="3.2" height="1.6" rx="0.463" transform="translate(12.8 9.6)" fill="#fff"/>
      <rect id="Rectangle_38" data-name="Rectangle 38" width="9.6" height="1.6" rx="0.463" transform="translate(6.4 12.8)" fill="#fff"/>
      <rect id="Rectangle_39" data-name="Rectangle 39" width="9.6" height="1.6" rx="0.463" transform="translate(6.4 16)" fill="#fff"/>
      <rect id="Rectangle_40" data-name="Rectangle 40" width="9.6" height="1.6" rx="0.463" transform="translate(6.4 19.2)" fill="#fff"/>
    </g>
  </g>
</svg>
