<svg xmlns="http://www.w3.org/2000/svg" viewBox="0 0 233.5 65.63"><defs><style>.cls-1{fill:#fff;}.cls-2,.cls-3{fill:none;stroke:#fff;stroke-width:2px;}.cls-2{stroke-miterlimit:10;}</style></defs><g id="レイヤー_2" data-name="レイヤー 2"><g id="レイヤー_1-2" data-name="レイヤー 1"><path class="cls-1" d="M4.34.66C5.85.66,6.72,1.57,6.72,4c0,3.44-2.88,6.22-6.51,9.44-.12.12-.45.38.1.38S3,13.79,4,13.79c1.44,0,2.84.09,4.28.09.91,0,1.2-.31,1.32-.81.16-.65.24-2.35.33-3.31,0-.2-.31-.2-.36,0-.43,1.48-.91,2.35-2.93,2.35H2.73c-.07,0-.12,0,0-.12C5,10.21,9.21,7.43,9.21,3.9,9.21,1,7.22,0,4.51,0A5.59,5.59,0,0,0,1.56.76,2,2,0,0,0,.69,2.7a5.45,5.45,0,0,0,.39,1.7c.07.17.26.15.28,0C1.58,2.65,2.49.66,4.34.66Z"/><path class="cls-1" d="M23,6.85c.1,2.76-.38,6.72-3.62,6.72C16,13.57,15.67,10,15.6,7.38c-.1-4.1.88-6.74,3.76-6.74S22.89,4,23,6.85ZM13,7.33c0,3.77,2.52,6.87,6.34,6.87s6.29-3.44,6.29-7.06C25.63,3.2,23.2,0,19.36,0S13,3.44,13,7.33Z"/><path class="cls-1" d="M32.4.66c1.51,0,2.37.91,2.37,3.38,0,3.44-2.88,6.22-6.5,9.44-.12.12-.46.38.09.38s2.67-.07,3.7-.07c1.44,0,2.83.09,4.27.09.91,0,1.2-.31,1.32-.81.17-.65.24-2.35.34-3.31,0-.2-.31-.2-.36,0-.43,1.48-.91,2.35-2.93,2.35H30.79c-.07,0-.12,0,0-.12C33,10.21,37.27,7.43,37.27,3.9,37.27,1,35.28,0,32.56,0a5.62,5.62,0,0,0-3,.75,2,2,0,0,0-.86,1.94,5.82,5.82,0,0,0,.38,1.7c.07.17.27.15.29,0C29.64,2.65,30.55.66,32.4.66Z"/><path class="cls-1" d="M45.16,6.83V2.51c0-1.08,0-1.85.05-2.31A.17.17,0,0,0,45,0c-1.46.63-2.71,1.06-4.13,1.54-.24.07-.09.38,0,.36,1.54-.31,1.9-.17,2,.93s.1,2.14.1,4c0,.82,0,3.58-.05,4.39,0,1.88-.24,2.09-1.54,2.31-.17,0-.19.31,0,.31.77,0,2.31-.07,3-.07s1.73.07,2.59.07c.17,0,.17-.31,0-.31-1.42-.24-1.66-.43-1.7-2.31C45.21,10.43,45.16,7.67,45.16,6.83Z"/><path class="cls-1" d="M13.68,43.47v-13c0-3.24.08-5.54.15-6.91a.45.45,0,0,0-.65-.5C8.79,25,6.41,26,1.73,27.63c-.72.22-.29,1.08.15,1,4.68-1.08,5.68-.5,5.9,2.81.22,2.88.29,6.48.29,12.1,0,2.44-.15,10.79-.22,13.24-.14,5.62-.72,6.27-4.61,6.92-.5.07-.57.86,0,.86,2.31,0,6-.22,8-.22s5.18.22,7.77.22c.51,0,.51-.86,0-.86-4.25-.72-5-1.3-5.11-6.92C13.83,54.34,13.68,46,13.68,43.47Z"/><path class="cls-1" d="M43.13,43.47v-13c0-3.24.07-5.54.15-6.91a.45.45,0,0,0-.65-.5C38.24,25,35.86,26,31.18,27.63c-.72.22-.29,1.08.14,1,4.68-1.08,5.69-.5,5.91,2.81.21,2.88.29,6.48.29,12.1,0,2.44-.15,10.79-.22,13.24-.14,5.62-.72,6.27-4.61,6.92-.5.07-.57.86,0,.86,2.31,0,6-.22,8-.22s5.19.22,7.78.22c.5,0,.5-.86,0-.86-4.25-.72-5-1.3-5.11-6.92C43.28,54.34,43.13,46,43.13,43.47Z"/><path class="cls-1" d="M110.83,4.44c6.55,0,10.81,3.85,10.81,14.87,0,14.87-13,26.94-28.7,40.87-.52.52-2,1.77.42,1.67,3.32-.11,11.54-.21,16-.21,6.24,0,12.38.31,17.37.31,4,0,5.1-1.35,5.72-3.54.83-2.8,1.14-9.15,1.56-13.31,0-.83-1.25-.83-1.46,0C131,51.55,129,55.3,120.29,55.3H102.61c-.31,0-.52-.21-.1-.52,9.77-8,28.39-20.39,28.39-36.09,0-11.86-7.9-16.85-19.66-16.85-4.57,0-9.15,1-12.16,2.91a8.23,8.23,0,0,0-4.16,7.8,33.21,33.21,0,0,0,1.35,7.38c.31.73,1.14.63,1.25,0C98.35,12.76,102.82,4.44,110.83,4.44Z"/><path class="cls-1" d="M160.23,9.43c4,0,9.67.21,11.75.31,1.25.11,1.66-5.09,2.08-7.38.1-.52-.94-.52-1.46.1a10.31,10.31,0,0,1-3.84.52c-4.16.11-10.92.11-13.52.11S149.1,3.09,146,3c0,4.68-.1,9.15-.31,13.63S145.36,26.38,145,31a49.41,49.41,0,0,1,6-.42c10.6,0,17.26,5.51,17.26,15,0,9.26-4.89,15.08-13,15.08-6.34,0-11.34-3.75-12.9-12.9,0-.52-1-.62-1.24,0a53.31,53.31,0,0,0-1.15,7.08c-.31,3.22,1.25,5.09,3.54,6.34C147,63,152,63.3,155,63.3c12.79,0,22.57-7.69,22.57-19,0-13-11.44-17.68-23.61-17.68a34.81,34.81,0,0,0-5.2.31c.21-3.33.31-6.45.41-9.77l.42-7.49C153.05,9.43,156.8,9.43,160.23,9.43Z"/><line class="cls-2" x1="59.62" y1="65.24" x2="79.62" y2="17.24"/><path class="cls-1" d="M219.08,38.43a27.14,27.14,0,0,1,2.92.15V36.1a17.92,17.92,0,0,1-2.95.18h-7V33.75a13.4,13.4,0,0,1,.17-2.3H209.5a12.27,12.27,0,0,1,.18,2.3v2.53h-6.6a19.07,19.07,0,0,1-2.9-.18v2.48a27,27,0,0,1,2.9-.15h5.82a24.41,24.41,0,0,1-9.62,10.35,7.65,7.65,0,0,1,1.62,2.1,27.78,27.78,0,0,0,4.45-3.75,23.21,23.21,0,0,0,4.45-6.5c-.07,1-.12,2.2-.12,2.9v7.6a20.41,20.41,0,0,1-.18,3h2.75a21.93,21.93,0,0,1-.17-3V43.5c0-.85-.05-1.87-.15-3a23.27,23.27,0,0,0,4.2,6.07,28.36,28.36,0,0,0,5.05,4.2,8.79,8.79,0,0,1,1.65-2.22,24.24,24.24,0,0,1-10-10.15Z"/><circle class="cls-3" cx="211.21" cy="42.86" r="21.29"/></g></g></svg>