<svg xmlns="http://www.w3.org/2000/svg" viewBox="0 0 27.43 18"><defs><style>.cls-1{fill:#666;}.cls-2{fill:#3e3c54;}</style></defs><g id="レイヤー_2" data-name="レイヤー 2"><g id="レイヤー_1-2" data-name="レイヤー 1"><path class="cls-1" d="M0,0V2.81a16,16,0,0,1,5.9,1.1c.33.13.64.27.95.41a14.73,14.73,0,0,1,2.23-.85,16.36,16.36,0,0,1,4.64-.66,16.09,16.09,0,0,1,5.92,1.1c.33.13.64.27.95.41a14.73,14.73,0,0,1,2.23-.85,16.25,16.25,0,0,1,4.61-.66V0Z"/><path class="cls-1" d="M17.18,10.64a3.39,3.39,0,0,0,2.08,3.14,3.26,3.26,0,0,0,1.33.27,3.33,3.33,0,0,0,1.9-.58A3.4,3.4,0,0,0,24,10.64a2.88,2.88,0,0,0-.22-1.07,4.86,4.86,0,0,0-.68-1.16,8.8,8.8,0,0,0-2.51-2.09A9.09,9.09,0,0,0,18.52,7.9a5.22,5.22,0,0,0-1.17,1.79A2.81,2.81,0,0,0,17.18,10.64Z"/><path class="cls-2" d="M23.93,6.67a6.94,6.94,0,0,1,1.56,2.44,4.45,4.45,0,0,1,.28,1.53,5.18,5.18,0,0,1-3.17,4.77,5,5,0,0,1-2,.41,5.15,5.15,0,0,1-4.77-3.16,5.07,5.07,0,0,1-.41-2A5,5,0,0,1,16,8.37a7.73,7.73,0,0,1,1.57-2,10.37,10.37,0,0,1,1.12-.92c-.27-.1-.55-.19-.84-.28a14.66,14.66,0,0,0-4.13-.59,14.48,14.48,0,0,0-5,.87,9.69,9.69,0,0,1,1.44,1.23,6.83,6.83,0,0,1,1.57,2.44A4.44,4.44,0,0,1,12,10.64a5.15,5.15,0,0,1-3.16,4.77,5,5,0,0,1-2,.41,5.15,5.15,0,0,1-5.18-5.18,5,5,0,0,1,.59-2.27,7.73,7.73,0,0,1,1.57-2A10.37,10.37,0,0,1,5,5.44c-.27-.1-.55-.19-.84-.28A14.89,14.89,0,0,0,0,4.57V18H27.43V4.57a14.48,14.48,0,0,0-4.94.87A10.83,10.83,0,0,1,23.93,6.67Z"/><path class="cls-1" d="M3.44,10.64a3.39,3.39,0,0,0,2.08,3.14,3.26,3.26,0,0,0,1.33.27,3.36,3.36,0,0,0,1.9-.58,3.4,3.4,0,0,0,1.51-2.83A2.88,2.88,0,0,0,10,9.57a4.86,4.86,0,0,0-.68-1.16A8.8,8.8,0,0,0,6.85,6.32,8.88,8.88,0,0,0,4.78,7.9,5.22,5.22,0,0,0,3.61,9.69,2.81,2.81,0,0,0,3.44,10.64Z"/></g></g></svg>