<svg xmlns="http://www.w3.org/2000/svg" viewBox="0 0 212 228.19"><defs><style>.cls-1{fill:#fff;}.cls-1,.cls-2,.cls-3,.cls-4,.cls-5,.cls-6,.cls-7{fill-rule:evenodd;}.cls-2{fill:#ababd5;}.cls-3{fill:#6274a3;}.cls-4{fill:#fdecdd;}.cls-5{fill:#5d7cbd;}.cls-6{fill:#e2e2e1;}.cls-7{fill:#4257a5;opacity:0.3;}.cls-8{fill:#143681;}</style></defs><g id="レイヤー_2" data-name="レイヤー 2"><g id="レイヤー_1-2" data-name="レイヤー 1"><path class="cls-1" d="M55.75,224s-.25-8.25-.65-17.67c-.44-10-1.28-22.08-1.63-29.63-.69-14.64-.7-11.9-.7-11.9s-6.59,6.54-9,9c-6.19,6.28-13,13.21-18.86,17.76-7,5.44-13.53,7.21-16.14,5.46a10.91,10.91,0,0,1-5.12-4.8C1.64,188.4.37,181.8.78,178.78c.69-5.13,3.5-11.69,6-17.7,3.76-8.89,9.92-19.31,14-26.3,3.89-6.72,5.73-10.15,6.49-11.46,4-6.84,5.8-7.95,6.11-8,1.41-.44.35-2.47.45-3.65.13-1.46,1.3-2,3.11-4.52,1-1.33,3.3-5.94,5.72-8.14,1.31-1.19,2.79-.86,3.79-.76,11.28,1.12,23.22-5.12,27.32-7.07,2.31-1.09,8.49-5.41,10.38-6.6,5-3.16,19.62,12.24,25.42,12.24,4.9,0,16.3-17.7,25.15-11.86a55.41,55.41,0,0,0,5.63,3.2c6.73,3.32,15.56,12.45,23.7,10.42.45-.11.9-.22,1.34-.35a4.77,4.77,0,0,1,4.18,1c1.69,1.56,4.06,6.22,5.48,8.29.64.93,1.89,1.56,2.47,2.61,1,1.81.22,4.44.69,4.84a39.87,39.87,0,0,1,3.09,2.95c1.3,1.42,2.71,5,4,6.85,5.29,7.74,11.3,19,16,28.54,4.3,8.76,7.45,16.06,8.48,18.85a28.15,28.15,0,0,1,1.33,6.25,30.53,30.53,0,0,1-1.39,10.86c-1.86,6.15-6.54,9.16-11.12,8.33-4-.71-7.38-2.68-11.85-6.34a197.39,197.39,0,0,1-15.5-14.64c-6.33-6.56-11.8-11.7-11.8-11.7s-.5,4-.64,6.55c-.29,5.11-.64,13.28-1.11,23,0,0-1.17,13.55-1.22,20.85,0,3.62-.25,8.34-.25,8.34a296.34,296.34,0,0,1-48.55,4.63C82.53,228.29,55.75,224,55.75,224Z"/><path class="cls-2" d="M101.48,154S97.62,140.87,97,136.5s-3.13-14-3.69-17.63-2.56-11.52-3.13-15.18-1-8.31-1.32-10.51-.83-4-1.07-5.8a5.9,5.9,0,0,1,.88-4.87c1.22-1.78,3-2.51,3.13-1.62s.22,1.35.47,4-.23,4.19.52,5.43a19.66,19.66,0,0,0,3.77,3.85,9.07,9.07,0,0,0,3.61,2.12c1.65.64,2.62.62,4.08,1.23a5.48,5.48,0,0,1,3,2.25c.8,1.18.28,3.41,1.3,3.63s1.78.36,2.14-1.42.23-3,1.33-3.31a30.46,30.46,0,0,0,6.22-2.93,33.21,33.21,0,0,0,6-4.46,15.25,15.25,0,0,0,3.29-4.39c.74-1.74.32-1.4,0-3.59s-.81-4.83.33-3.72,1.86,1.93,2.88,3.06a6.63,6.63,0,0,1,1.54,4.19,31,31,0,0,1-.2,5.21c-.26,2.31-1.57,8.06-2,11.43s-3.22,13.33-4.2,18-2.43,9.45-3.56,14-1.83,7.69-3,10.37S101.48,154,101.48,154Z"/><path class="cls-2" d="M44.26,100.77s.53.17,1.41-.91,1.79-2.49,2.43-3.24,2.09-1,2.16-.43a1.79,1.79,0,0,1-.61,1.68c-.61.61-1.22.93-1.07,2a17.66,17.66,0,0,0,1.4,4.41c.63,1.14,1.51,3,2.31,4.4A12.94,12.94,0,0,0,55,111.92a5.44,5.44,0,0,0,2.6,1.38c.57.06.83-.57,1.29-1.28A25.91,25.91,0,0,1,61,109.7c.58-.65.67-.4.75.78a7,7,0,0,1-.24,3.23,15.57,15.57,0,0,1-2.19,3.72A31.84,31.84,0,0,0,57,121a14.06,14.06,0,0,0-1.9,3.73,26.4,26.4,0,0,1-1.2,3.2c-.34.65-1-.73-2-2.46a42.88,42.88,0,0,1-4-9.24c-.77-3.08-2.06-7-2.66-9.36s-1.26-3.74-1.23-4.51A5.7,5.7,0,0,1,44.26,100.77Z"/><path class="cls-2" d="M158.23,128.66a54.74,54.74,0,0,0-2.12-5.73c-.73-1.34-2.61-4.28-3.36-5.27a11.57,11.57,0,0,1-2.36-4,22.23,22.23,0,0,1-.09-3.85c-.07-1.1.49-1,1-.19a26,26,0,0,1,1.37,3c.44,1,1,1.28,1.62,1.07a14.49,14.49,0,0,0,4-3,23.36,23.36,0,0,0,3.51-5.78,21,21,0,0,0,1.34-4.19c.09-1.09-.18-1.22-.8-2.41s-1.11-2-.26-2.12,1.52-.06,1.95.62A13.45,13.45,0,0,0,165.29,99a7.81,7.81,0,0,0,2.57,1.85s-.3,3.08-.61,4.38-1.09,3.84-1.88,6.51-1.85,5.9-2.52,7.72-1.31,3-2.13,4.92A33.69,33.69,0,0,1,158.23,128.66Z"/><path class="cls-3" d="M78.22,32.09a27,27,0,0,1,3.06-9.81C83.07,19.19,85.44,18,87,16.87c3-2.08,4-2.93,4.29-3.92a17.08,17.08,0,0,1,4.92-7.22,22,22,0,0,1,13.14-5,26.84,26.84,0,0,1,7.16,1.2c3.16,1.12,5,2.89,8.45,4.57,2.6,1.29,5.47,1.63,7.43,3.21,2.83,2.3,2.06,4.33,4,7.14A19.9,19.9,0,0,1,140,27.42c0,1.13.25,5.13.1,8.38s-.5,5.77-.69,8a31.64,31.64,0,0,0-.12,3.2c.58,11-21.72,6-30.81,6-9.28,0-22.87.85-28.15-7.48C78.91,43.24,78.22,34.74,78.22,32.09Z"/><path class="cls-4" d="M82.6,64.08c0-.43-3.86,4.49-6.25,8.13a22.49,22.49,0,0,0-1.73,6.52c-.55,5-.35,11.19-1.07,13.48a36.8,36.8,0,0,1-2.5,4.89,46.37,46.37,0,0,1-5.55,7.19c-1.24,1.41-3.93,4.67-5.16,5.72a7.16,7.16,0,0,0-2.05,3.63c-.46,1.4-3.33-1.17-4.7-2.69a22.71,22.71,0,0,1-3.79-6.49C48.74,102,47.62,99.57,48.49,99c2.14-1.34,4.17-5.69,5.23-9.86a34,34,0,0,0,1.06-8.27,32.75,32.75,0,0,1,1-11.34,19.37,19.37,0,0,1,3-5.74c.74-1.1,3.88-6.66,7.51-9.83a44.25,44.25,0,0,1,12-7.14c4.11-1.8,4.24.46,4.63.22,1.1-.7,3.56-2,3.93-3a24,24,0,0,1,4.92-8.22c.82-.87,2.54-.64,3.4-1.19a15.31,15.31,0,0,1,8.62-2.24,12.77,12.77,0,0,0,5,1c4.92,0,13.57,3.81,19.16,9.49.42.42.43,1.3,1.22,1.41a16.26,16.26,0,0,1,5.42,2.48c.72.48,1.6-1.24,3.84.14a58.11,58.11,0,0,1,9.05,5.87,25.06,25.06,0,0,1,5.93,7c1.57,2.45,5.89,11.38,6.2,13.36s-.8,16.48.07,20.34c.36,1.59,4,5.55,3.75,7.46-.29,2.09-1.87,4.83-3.34,7.12-1.72,2.69-2.78,4.12-4.17,5-.84.51-2.37,1.34-2.62.57-.49-1.46-2.79-4.71-4.9-7.52-1.93-2.56-3.67-4.72-4.21-5.33-1-1-2.3-4.89-3.1-9.33-.7-3.87-.65-6.94-1-10.18a63.38,63.38,0,0,0-1-6.28,29.08,29.08,0,0,0-2.58-6.08c-.83-1.58-2-3.78-2.09-3.54-.26.75-2.57,1.28-3.12,2.22-.23.39-1.1,2.92-1.9,5s-1.41,3.5-2.09,5.36a16.47,16.47,0,0,0,.18,4.41c.29,2,.74,3.59.38,4.13a35.12,35.12,0,0,1-7.12,7.6c-3.91,2.85-7.89,4-8.87,4.71-1.29.9-.62,4.59-2.06,4.59-.59,0-1.08,0-1.44-.7-.51-1-.87-2.77-1.78-3.62a13.47,13.47,0,0,0-3.19-1.6A31,31,0,0,1,98,95.38a18.28,18.28,0,0,1-4.69-4.27c-2.22-2.44-.81-1.93-1.06-4.65-.15-1.68-.2-3-.39-4.32a5,5,0,0,0-.7-2.44c-2.7-4-4.63-12.35-5-12.52C85.12,66.7,82.6,64.86,82.6,64.08Z"/><path class="cls-5" d="M101.45,154.85a93.45,93.45,0,0,1,.76-10.31c.64-3.93,1.41-12.59,1.93-16s1.35-8.08,1.7-9.61.65-2.4.18-3.33a35.71,35.71,0,0,1-1.82-5.39,19.78,19.78,0,0,1-1-5c0-1.93.47-3.16,1.34-2.81a17.59,17.59,0,0,0,4.46.94,18.25,18.25,0,0,0,4.56-.53A2.09,2.09,0,0,1,116,104a4.91,4.91,0,0,1,.12,2.93c-.29,1.17-1,2.34-1,3.74s.18,2.41-.41,3.52a3.33,3.33,0,0,0-.41,2.93c.3,1.52,1.59,6.32,2,9.43s.41,6,.87,8.73,1.76,11,1.76,11a30.58,30.58,0,0,0-1,3.69c-.41,1.93-1.47,4.8-2,6.85s-1.64,4.45-2.23,6.68a48.18,48.18,0,0,1-2.23,5.45c-.7,1.87-1.52,3.57-2.34,4.21s-1.52.12-2.22-1.23a60.63,60.63,0,0,1-2.46-7.26C103.56,161.88,101.45,154.85,101.45,154.85Z"/><path class="cls-3" d="M78,133.08s-1.22-22.33,2-35.75c1.61-6.67,3.67-11.91,5.92-14.7a8.27,8.27,0,0,1,4.77-3.17l1,1.1s-6.48,1.86-8.88,15-.7,37.63-.7,37.63Z"/><path class="cls-3" d="M130.21,81.15s1.94-.55,2.74,0a6,6,0,0,1,1,1,15.11,15.11,0,0,1,1.88,3.13,46.3,46.3,0,0,1,2.32,7.54c.46,2.53.89,9.23,1.14,12.39s0,8.51-.09,10.91-1.13,3.42-.16,3.67,1.51-.13,1.64,1.39-.84,1.9.63,2.7,3.12,1,4.93,2.44,2.7,1.77,4,4.64a27.9,27.9,0,0,1,2.11,6.86,68.9,68.9,0,0,1,.88,7.34c.17,1.68.29,2.7-1,2.3s-2.1-.49-2.64-1.47-.22-1.17-.27-3a37.39,37.39,0,0,0-1.25-7.65,18.19,18.19,0,0,0-3.4-5.81,13.92,13.92,0,0,0-5-3,6.09,6.09,0,0,0-5.27.72,9.62,9.62,0,0,0-4.08,4.25c-1.11,2.28-2.1,4.2-2.32,6.17a48.89,48.89,0,0,0-.49,6.13,24.89,24.89,0,0,0,.22,4.92c.36,1.7.85,3.94.18,4.2s-1.52.63-2.28-.4a6.6,6.6,0,0,1-1.34-3.76,32.48,32.48,0,0,1-.18-5.36,30.82,30.82,0,0,1,.71-6.53,31.44,31.44,0,0,1,2.78-5.91c.85-1.48,1.74-3.49,3-4.61s2-1.47,2.91-2.19.76-.67.8-2,.18-1.61,1.07-1.93,1.17-.4,1.21-2,.09-6.76.14-10.61-.5-8.9-.5-11.85a34.58,34.58,0,0,0-1.74-9.62,5.76,5.76,0,0,0-3.4-3.44Z"/><path class="cls-6" d="M70.4,142.3a9.32,9.32,0,1,1,9.31,9.16A9.24,9.24,0,0,1,70.4,142.3Z"/><path class="cls-6" d="M130.31,182.63a6.23,6.23,0,0,1-4-2.26c-.95-1.09-.78-2,.77-2,1,0,1.87,1.85,2.3,2.61C129.41,181,130.51,182.63,130.31,182.63Z"/><path class="cls-6" d="M144,182.63c-1,0-.17.09,1.65-1.89.66-.73,3.57-1.26,3.77.2.07.59-.75,1.07-1.18,1.23A14.92,14.92,0,0,1,144,182.63Z"/><path class="cls-7" d="M86.23,66.7c0-.17-.89-.11-1.8-.64s-2-1.76-1.68-2c.62-.44,2.49-2.76,3.74-3.17.5-.17,6.24-2.66,7.12-5.41.19-.58.38-2.06-.66-2.13-1.52-.09-4.45,1.3-3.81.19,1.86-3.2,3.32-5.18,3.4-7.51.12-3.15-3.88.47-3.83-.61s-2.29.16-2-1a22.83,22.83,0,0,1,3.67-6.68,16,16,0,0,1,3-2.69c1.78-1.45,8.4-3.33,10.48-3.14,3.24.29,4.24,1.27,5,1.27a20.64,20.64,0,0,1,8.53,2,37.9,37.9,0,0,1,10.88,8.07c1.36,1.44-.57.4-1.89.66-.58.11-.78.68-1,1.5A10.85,10.85,0,0,0,127,49.78c1.06,2,2.58,3.88,2.27,4.21s-2.56-1.08-4-1.46-1.94.46-2,1c-.07.75.57,2.12,2.1,3.66a30.91,30.91,0,0,0,5,3.95,9.88,9.88,0,0,1,3.73,4c.42,1.06-2.7,1.54-2.7,2,0,2.53-17.93-1.25-23.17-1.25S86.23,69.23,86.23,66.7Z"/><path class="cls-8" d="M108.5,92.09h-.81c-11.61-.5-20.13-11.53-22.79-29.5a.71.71,0,0,1,1.4-.21c2.55,17.26,10.57,27.84,21.45,28.3,10.7.47,19.29-8.84,23-24.86.18-.81.38-1.67.58-2.57a.71.71,0,0,1,.84-.54.7.7,0,0,1,.53.84c-.2.91-.4,1.78-.58,2.59C128.33,82.46,119.53,92.09,108.5,92.09Z"/><path class="cls-8" d="M86,67.87a.69.69,0,0,1-.24-.05,8,8,0,0,1-3.35-2.68.7.7,0,0,1,.12-1,.71.71,0,0,1,1,.12,6.52,6.52,0,0,0,2.73,2.23.71.71,0,0,1,.41.91A.7.7,0,0,1,86,67.87Z"/><path class="cls-8" d="M131.57,67.87a.71.71,0,0,1-.12-1.4,3.85,3.85,0,0,0,1.81-1,.7.7,0,1,1,.94,1,5.15,5.15,0,0,1-2.51,1.38Z"/><path class="cls-8" d="M108.19,73.9a.69.69,0,0,1-.5-.2.72.72,0,0,1,0-1c1.64-1.63,1.27-2.41.54-4a11.4,11.4,0,0,1-.84-2.19,11.12,11.12,0,0,1,1-6.7.7.7,0,0,1,1.26.63,9.78,9.78,0,0,0-.9,5.73,10.47,10.47,0,0,0,.75,1.93c.75,1.58,1.52,3.21-.81,5.55A.69.69,0,0,1,108.19,73.9Z"/><path class="cls-8" d="M105,32.53a.7.7,0,0,1-.65-.45c-1-2.51,1.06-5.15,2.28-6.72,2.64-3.4,7.57-3.25,11.92-3.12a32.39,32.39,0,0,0,4.34,0,.71.71,0,0,1,.78.62.71.71,0,0,1-.62.78,33.73,33.73,0,0,1-4.54,0c-4-.12-8.57-.26-10.77,2.57-1.1,1.43-2.78,3.58-2.08,5.35a.71.71,0,0,1-.4.91A.8.8,0,0,1,105,32.53Z"/><path class="cls-8" d="M129.87,37.47c-3.28,0-6-1.31-8.59-2.59a23.67,23.67,0,0,0-5.68-2.2c-2.68-.55-4.69-.8-6.06.88a.7.7,0,0,1-1,.1.69.69,0,0,1-.1-1c2-2.47,5-1.86,7.43-1.37a25.23,25.23,0,0,1,6,2.32c2.68,1.3,5.2,2.53,8.31,2.44a.71.71,0,1,1,0,1.41Z"/><path class="cls-8" d="M128.42,44.34a.69.69,0,0,1-.54-.25,10.76,10.76,0,0,0-2.8-2.37.71.71,0,0,1,.72-1.22A12.48,12.48,0,0,1,129,43.19a.7.7,0,0,1-.09,1A.69.69,0,0,1,128.42,44.34Z"/><path class="cls-8" d="M89.61,32.59a.71.71,0,0,1-.65-.41.7.7,0,0,1,.36-.93c3.19-1.43,6.9-2.74,10.56-.07a.71.71,0,0,1,.15,1,.7.7,0,0,1-1,.15c-3-2.22-6.2-1.11-9.16.21A.57.57,0,0,1,89.61,32.59Z"/><path class="cls-8" d="M86.63,45.45a.59.59,0,0,1-.23,0,.69.69,0,0,1-.44-.89,21.63,21.63,0,0,1,3.52-6.75l.13-.17c1.21-1.52,2.86-3.6,5.14-3.6h0a.71.71,0,0,1,.71.71.7.7,0,0,1-.71.7h0c-1.6,0-3,1.77-4,3.07l-.13.16A20.44,20.44,0,0,0,87.29,45,.69.69,0,0,1,86.63,45.45Z"/><path class="cls-8" d="M79.8,45a.72.72,0,0,1-.67-.46c-2.58-7-2.56-17.87,2.57-24.09a19.51,19.51,0,0,1,3.64-3.19,21,21,0,0,0,3-2.45.7.7,0,0,1,1,1,22.88,22.88,0,0,1-3.15,2.63,18.19,18.19,0,0,0-3.39,3C78.16,27,78,37.29,80.46,44.05A.71.71,0,0,1,80,45,.69.69,0,0,1,79.8,45Z"/><path class="cls-8" d="M91.54,14.11a.7.7,0,0,1-.69-.55c-.32-1.49.59-3,1.32-4.17.12-.18.23-.36.32-.53,2-3.41,6.52-6.29,10.11-7.64a21.17,21.17,0,0,1,15.63.6A23.58,23.58,0,0,1,122,4,22.06,22.06,0,0,0,125.57,6c.87.36,1.7.65,2.5.93,2.92,1,5.45,1.88,7.56,5.61a.71.71,0,0,1-.26,1,.71.71,0,0,1-1-.27c-1.86-3.26-3.93-4-6.8-5-.82-.29-1.67-.58-2.58-1a23.46,23.46,0,0,1-3.83-2.18,20.76,20.76,0,0,0-3.51-2,19.76,19.76,0,0,0-14.6-.58c-3.36,1.26-7.56,3.92-9.38,7-.1.18-.22.37-.34.56-.6,1-1.35,2.19-1.14,3.13a.7.7,0,0,1-.54.83Z"/><path class="cls-8" d="M139.34,46.41a.7.7,0,0,1-.7-.62,16.39,16.39,0,0,1,.19-4c.1-.8.2-1.55.22-2.31s.06-1.37.09-2.09c.32-7.86.73-17.63-5.74-22.35a.71.71,0,0,1-.15-1,.7.7,0,0,1,1-.15c7.08,5.16,6.64,15.79,6.31,23.55,0,.71-.06,1.41-.08,2.08s-.13,1.64-.24,2.44a15.46,15.46,0,0,0-.18,3.63.7.7,0,0,1-.62.78Z"/><path class="cls-8" d="M112,80.78a2.81,2.81,0,0,1-.49,0,12,12,0,0,0-3.62-.14c-.63,0-1.28.09-2,.09a2.34,2.34,0,0,1-1.16-.37c-.31-.18-.33-.19-.54-.07a.7.7,0,0,1-.7-1.22,1.75,1.75,0,0,1,1.94.07,1,1,0,0,0,.46.18c.68,0,1.31,0,1.92-.08a13.15,13.15,0,0,1,4,.16,2.47,2.47,0,0,0,.89-.08,3.41,3.41,0,0,1,2.35.14.7.7,0,0,1-.63,1.26,2.15,2.15,0,0,0-1.44,0A5.36,5.36,0,0,1,112,80.78Z"/><path class="cls-8" d="M92.48,90.17a.7.7,0,0,1-.7-.71,29.36,29.36,0,0,0-.33-3.73,30.44,30.44,0,0,1-.33-3.83.7.7,0,0,1,.7-.71.71.71,0,0,1,.71.71,27.58,27.58,0,0,0,.32,3.65,31.39,31.39,0,0,1,.34,3.91A.71.71,0,0,1,92.48,90.17Z"/><path class="cls-8" d="M128,86.26a.69.69,0,0,1-.66-.48,23,23,0,0,1-.76-7.17.7.7,0,0,1,.7-.7h0a.71.71,0,0,1,.71.71,22.11,22.11,0,0,0,.68,6.72.7.7,0,0,1-.44.89A.91.91,0,0,1,128,86.26Z"/><path class="cls-8" d="M110.9,102.44h-.05a.7.7,0,0,1-.66-.74c.07-1.15.28-2.57,1.26-3.31a10.68,10.68,0,0,1,2.74-1.33,11.48,11.48,0,0,0,2-.88c4-2.38,7.73-4.82,9.91-8.46,1.42-2.36,2.46-4.41,1-5.87a.7.7,0,1,1,1-1c2.35,2.35.46,5.49-.78,7.57-2.36,3.93-6.27,6.48-10.4,9a13.89,13.89,0,0,1-2.24,1,9.37,9.37,0,0,0-2.38,1.13c-.4.3-.63,1-.7,2.27A.71.71,0,0,1,110.9,102.44Z"/><path class="cls-8" d="M108.22,103.2a.7.7,0,0,1-.69-.59,5.71,5.71,0,0,0-.84-2.34c-1.15-1.53-3.18-2.2-5.33-2.91a15.93,15.93,0,0,1-4.87-2.24c-2.35-1.85-5.18-4.44-6.24-8.17,0,0-.71-2.79.15-3.93a1.21,1.21,0,0,1,1-.51.71.71,0,0,1,.09,1.41,5.93,5.93,0,0,0,.11,2.65c1,3.33,3.58,5.73,5.76,7.44a14.52,14.52,0,0,0,4.44,2c2.27.75,4.6,1.52,6,3.41a6.85,6.85,0,0,1,1.11,2.95.72.72,0,0,1-.58.81Z"/><path class="cls-8" d="M97.64,110.64a1,1,0,0,1-.61-.21,2.72,2.72,0,0,1-.75-1.62c0-.18-.08-.36-.13-.48A22.22,22.22,0,0,0,94.06,104a46.15,46.15,0,0,1-5.73-12c-.15-.5-.32-1-.49-1.47A11.32,11.32,0,0,1,87,84.46,6,6,0,0,1,90.9,80a.71.71,0,0,1,.29,1.38,4.65,4.65,0,0,0-2.82,3.41c-.38,1.87.2,3.56.81,5.34.17.5.34,1,.49,1.52a45.11,45.11,0,0,0,5.56,11.64,23,23,0,0,1,2.23,4.58,5.07,5.07,0,0,1,.19.68c0,.14.08.34.13.52a8.51,8.51,0,0,0,.93-1.4l.2-.38c1.36-2.51,3.89-7.19,6.84-7.19a.7.7,0,0,1,0,1.4c-2.11,0-4.56,4.53-5.6,6.46l-.21.38c-1.17,2.14-1.86,2.28-2.09,2.33Z"/><path class="cls-8" d="M120.6,110.66c-.48,0-.75-.4-1-.75a1.84,1.84,0,0,0-.21-.28,8.7,8.7,0,0,1-1.43-1.69,20.8,20.8,0,0,1-1.45-2.48,13.7,13.7,0,0,0-1.87-3c-.08-.09-.19-.22-.3-.37s-.74-.94-1-1a.67.67,0,0,1-.86-.45.72.72,0,0,1,.47-.89c1.06-.35,1.92.74,2.48,1.46l.25.3a15,15,0,0,1,2.07,3.27,18.91,18.91,0,0,0,1.34,2.31,9.1,9.1,0,0,0,1.11,1.36,2.77,2.77,0,0,1,.2-.75c1.2-2.7,2.68-5.29,4.11-7.8A80.09,80.09,0,0,0,129,91.29c.16-.38.36-.81.57-1.26.83-1.77,1.86-4,1.33-5.57a9.3,9.3,0,0,0-2.9-3.75c-.36-.33-.72-.67-1.07-1a.7.7,0,0,1,1-1l1,1A10.4,10.4,0,0,1,132.23,84c.71,2.12-.45,4.61-1.39,6.61-.2.43-.39.84-.54,1.2a80.05,80.05,0,0,1-4.55,8.79c-1.41,2.49-2.88,5-4,7.68a3.3,3.3,0,0,0-.13.75,3.14,3.14,0,0,1-.24,1.14.84.84,0,0,1-.67.47Z"/><path class="cls-8" d="M104.12,103h-.05c-.22.19-.29,1-.22,2.26v.24a25.49,25.49,0,0,0,2,7.83c0,.1.08.22.13.34.37,1,.66,1.58.87,1.67a8.24,8.24,0,0,0,2.25-.28c.37-.08.69-.14.9-.17a5.86,5.86,0,0,1,1.53.13,5.46,5.46,0,0,0,1.69.1c1.08-.69,1.17-2.26,1.27-3.91a12.13,12.13,0,0,1,.34-2.68c.43-1.48,1.07-3.68.13-4.86-.38-.47-1.13-.28-2.23.06a7.72,7.72,0,0,1-1.36.34,17,17,0,0,1-5.79-.74l-1.33-.32Zm3,13.77a2.13,2.13,0,0,1-.8-.13c-.83-.34-1.26-1.37-1.67-2.49l-.11-.3a27,27,0,0,1-2.07-8.28v-.23c-.07-1.36-.07-2.74.72-3.41a1.51,1.51,0,0,1,1.37-.29l1.37.32a15.8,15.8,0,0,0,5.3.71,6.26,6.26,0,0,0,1.09-.28c1.15-.36,2.73-.86,3.74.4,1.41,1.75.61,4.48.14,6.11a11.21,11.21,0,0,0-.3,2.39c-.1,1.84-.22,3.94-1.92,5a4.24,4.24,0,0,1-2.65.1,6.55,6.55,0,0,0-1.15-.12c-.18,0-.46.08-.78.15A12.63,12.63,0,0,1,107.1,116.8Z"/><path class="cls-8" d="M101.63,155.53a.7.7,0,0,1-.7-.71c0-5.76,3.18-34.31,5.08-38.66a.71.71,0,0,1,1.29.57c-1.79,4.1-5,32.53-5,38.09A.7.7,0,0,1,101.63,155.53Z"/><path class="cls-8" d="M118.78,146.54a.7.7,0,0,1-.69-.54c-.37-1.58-.72-4.52-1.16-8.24-.79-6.67-1.86-15.81-3.78-22.1a.7.7,0,0,1,1.34-.41c2,6.41,3,15.62,3.84,22.34.41,3.54.77,6.59,1.13,8.09a.69.69,0,0,1-.52.84A.47.47,0,0,1,118.78,146.54Z"/><path class="cls-8" d="M108.33,174.4a.89.89,0,0,1-.32-.05c-.83-.24-3.34-1-12.38-41.51-4.32-19.37-8.46-40.62-8.21-42.11a.72.72,0,0,1,.81-.58.71.71,0,0,1,.58.8c-.1,1.41,3.59,20.89,8.15,41.38,6.29,28.22,10,39.44,11.38,40.62,1.45-1,5.64-11.2,11.59-31.84,7.69-26.63,13-52,11.34-54.34a.71.71,0,0,1,1.15-.82c2.5,3.52-5.09,33.27-7.47,42.3-4.84,18.31-11.59,40.2-15,45C109.7,173.56,109.1,174.4,108.33,174.4Z"/><path class="cls-8" d="M107.41,173.84a.7.7,0,0,1-.43-.15c-2.73-2.12-13.61-20.87-18.16-28.83a.7.7,0,0,1,.26-1,.69.69,0,0,1,1,.26c9.25,16.18,16.07,27.08,17.8,28.42a.7.7,0,0,1,.12,1A.67.67,0,0,1,107.41,173.84Z"/><path class="cls-8" d="M83.13,134a.7.7,0,0,1-.62-.37l-.7-1.27a.69.69,0,0,1,.27-1,.71.71,0,0,1,1,.27l.7,1.27a.71.71,0,0,1-.27,1A.72.72,0,0,1,83.13,134Z"/><path class="cls-8" d="M77.3,123.23a.72.72,0,0,1-.63-.38c-2.42-4.66-2.43-5-2.43-5.31,0-.79.67-1.59,2.28-2.65a.7.7,0,1,1,.77,1.17c-1.36.91-1.6,1.34-1.64,1.45a41.37,41.37,0,0,0,2.27,4.69.7.7,0,0,1-.3,1A.72.72,0,0,1,77.3,123.23Z"/><path class="cls-8" d="M82.84,111.45h0Zm-.77,1.74a.71.71,0,0,1-.36-1.31,9.79,9.79,0,0,0,1-.65c-.14-.21-.42-.59-1-1.26a.7.7,0,0,1,.1-1,.71.71,0,0,1,1,.1c1.22,1.48,1.35,1.84,1.39,2.12.08.65-.51,1.13-1.79,1.89A.65.65,0,0,1,82.07,113.19Z"/><path class="cls-8" d="M78.1,105.48a.71.71,0,0,1-.52-.23l-1.5-1.66c-1.71-1.89-3.49-3.85-4.88-5.45a.71.71,0,0,1,.07-1,.7.7,0,0,1,1,.07c1.38,1.59,3.15,3.54,4.86,5.43l1.5,1.65a.71.71,0,0,1-.05,1A.69.69,0,0,1,78.1,105.48Z"/><path class="cls-8" d="M74.59,91.56a.71.71,0,0,1-.37-1.31c3.14-1.88,6.15-3.9,9.22-6a.71.71,0,0,1,.79,1.17c-3.08,2.09-6.12,4.13-9.28,6A.7.7,0,0,1,74.59,91.56Z"/><path class="cls-8" d="M108.76,174.44a.71.71,0,0,1-.7-.59.72.72,0,0,1,.58-.81c.39-.07,3-1.39,15.4-20.93a.7.7,0,0,1,1.19.75c-13.38,21.06-15.62,21.44-16.36,21.57Z"/><path class="cls-8" d="M128.13,147.61a.75.75,0,0,1-.37-.11.7.7,0,0,1-.22-1c4-6.55,8.32-13.69,11.7-19.6a.71.71,0,0,1,1-.27.7.7,0,0,1,.26,1c-3.39,5.93-7.66,13.09-11.73,19.65A.69.69,0,0,1,128.13,147.61Z"/><path class="cls-8" d="M142.05,124.08a.72.72,0,0,1-.34-.09.69.69,0,0,1-.27-.95,42.28,42.28,0,0,0,2.52-4.91c-.13-.48-1.58-1.5-4.31-3a.71.71,0,0,1,.69-1.23c3.35,1.87,5,3.05,5,4.3,0,.25,0,.67-2.7,5.54A.71.71,0,0,1,142.05,124.08Z"/><path class="cls-8" d="M139.82,108a.73.73,0,0,1-.47-.18.7.7,0,0,1,0-1c1-1.14,2.15-2.39,3.29-3.65l1.22-1.35a.7.7,0,0,1,1,1l-1.21,1.34c-1.15,1.26-2.28,2.51-3.29,3.65A.72.72,0,0,1,139.82,108Z"/><path class="cls-8" d="M139.87,88.93a.69.69,0,0,1-.39-.12c-1-.66-2-1.34-3-2a.7.7,0,1,1,.79-1.16l3,2a.7.7,0,0,1-.38,1.29Z"/><path class="cls-8" d="M132.29,83.82a.72.72,0,0,1-.4-.12c-.44-.3-.89-.61-1.34-.9a.71.71,0,0,1,.78-1.18l1.35.91a.71.71,0,0,1-.39,1.29Z"/><path class="cls-8" d="M58.37,113.67a.71.71,0,0,1-.68-.89,7.91,7.91,0,0,1,2.17-3.1c.39-.41.76-.79,1-1.15,1.19-1.54,2.57-3.08,3.91-4.56,2.8-3.11,5.7-6.33,7.19-10,1.22-3,1.41-6.66,1.6-10.21.27-5,.54-10.07,3.48-13.9.46-.59.92-1.22,1.39-1.86,1.77-2.42,3.78-5.16,6.2-6.89a21,21,0,0,1,2.84-1.58c2.5-1.23,5.34-2.63,5.53-5.08a.26.26,0,0,0-.1-.22.63.63,0,0,0-.48-.17,11.32,11.32,0,0,0-2.66.87,19.78,19.78,0,0,1-1.89.72,13,13,0,0,1-2,.35,8.16,8.16,0,0,0-2.29.49c-3.91,1.65-6.42,4.64-9.07,7.8-.77.91-1.56,1.85-2.38,2.75-.36.4-.73.78-1.12,1.17A10.8,10.8,0,0,0,68,72.51a.7.7,0,1,1-1.35-.38A11.79,11.79,0,0,1,70,67.21c.37-.37.73-.74,1.08-1.12.8-.89,1.58-1.82,2.34-2.72,2.64-3.15,5.38-6.4,9.6-8.19a9.78,9.78,0,0,1,2.67-.59,10.66,10.66,0,0,0,1.78-.3c.56-.17,1.14-.41,1.74-.66a12,12,0,0,1,3-1,2,2,0,0,1,1.63.54,1.63,1.63,0,0,1,.54,1.34c-.25,3.26-3.61,4.91-6.31,6.25a19,19,0,0,0-2.64,1.45c-2.24,1.6-4.09,4.13-5.89,6.58-.47.65-.94,1.29-1.41,1.89-2.66,3.48-2.93,8.38-3.18,13.12-.2,3.66-.4,7.45-1.7,10.66-1.59,3.91-4.57,7.22-7.46,10.42-1.38,1.53-2.68,3-3.83,4.48-.33.42-.73.83-1.14,1.27a6.94,6.94,0,0,0-1.84,2.5A.69.69,0,0,1,58.37,113.67Z"/><path class="cls-8" d="M63,69a.73.73,0,0,1-.3-.06.7.7,0,0,1-.34-.94c3-6.42,9.42-10.47,15.07-14,2-1.24,3.81-2.42,5.43-3.62a31.32,31.32,0,0,0,3.81-3.46c1.67-1.7,3-3.05,4.86-2.84a1.63,1.63,0,0,1,1.29.83A3.93,3.93,0,0,1,92.76,48c-1,2.23-3,6.18-5.45,7.55a.71.71,0,0,1-1-.27.71.71,0,0,1,.27-1c2.17-1.21,4.12-5.22,4.86-6.89a2.76,2.76,0,0,0,.15-1.91c0-.08-.09-.12-.23-.14-1.14-.12-2.05.75-3.69,2.44a35,35,0,0,1-4,3.6c-1.67,1.24-3.54,2.42-5.52,3.67-5.49,3.48-11.7,7.41-14.55,13.46A.7.7,0,0,1,63,69Z"/><path class="cls-8" d="M59.5,66.08a.71.71,0,0,1-.39-.12.71.71,0,0,1-.19-1,16.8,16.8,0,0,1,2.67-2.85c.53-.48,1-.94,1.5-1.43.59-.64,1.18-1.3,1.78-2a30.68,30.68,0,0,1,5.94-5.61A55,55,0,0,1,76.56,50c1.26-.63,2.57-1.27,3.78-1.95.32-.18.74-.45,1.24-.77,2-1.31,5.08-3.28,7.28-3a.72.72,0,0,1,.6.8.71.71,0,0,1-.79.6c-1.69-.23-4.59,1.64-6.33,2.76-.52.33-1,.62-1.31.82-1.25.69-2.57,1.35-3.84,2a53.79,53.79,0,0,0-5.61,3,29.57,29.57,0,0,0-5.66,5.37c-.6.68-1.2,1.36-1.81,2s-1,1-1.57,1.51a15.73,15.73,0,0,0-2.46,2.6A.69.69,0,0,1,59.5,66.08Z"/><path class="cls-8" d="M48.88,99.48a.76.76,0,0,1-.43-.14.7.7,0,0,1-.13-1,27.29,27.29,0,0,0,5-10.49,43,43,0,0,0,.81-8.78,47.61,47.61,0,0,1,.71-8.39,19.73,19.73,0,0,1,3.31-7l.65-1c2.43-3.79,4.53-7.06,8-10A40.4,40.4,0,0,1,78,46.42l.6-.26c1.4-.62,3.74-1.66,5,.53a.71.71,0,0,1-1.23.69c-.51-.92-1.35-.74-3.16.06l-.64.28A39.31,39.31,0,0,0,67.7,53.8c-3.3,2.77-5.35,6-7.72,9.65l-.65,1A18.33,18.33,0,0,0,56.22,71a46.19,46.19,0,0,0-.68,8.14,43.53,43.53,0,0,1-.85,9.07,28.43,28.43,0,0,1-5.25,11A.72.72,0,0,1,48.88,99.48Z"/><path class="cls-8" d="M59.35,114.6a7,7,0,0,1-3-.8c-4-2.07-5.83-6.38-7.44-10.17l-.16-.39c-.76-1.77-1.53-4-.78-5.58a2.8,2.8,0,0,1,1.88-1.49.69.69,0,0,1,.87.48.71.71,0,0,1-.48.87,1.45,1.45,0,0,0-1,.75c-.57,1.19.43,3.54.81,4.42l.16.39c1.52,3.58,3.24,7.63,6.79,9.46a4.51,4.51,0,0,0,3.12.54,1.25,1.25,0,0,0,.75-.71A2.86,2.86,0,0,0,61,110.9a4.7,4.7,0,0,1,0-1.44.7.7,0,0,1,1.38.26,3.76,3.76,0,0,0,0,1.06,4.11,4.11,0,0,1-.25,2.14,2.62,2.62,0,0,1-1.56,1.48A3.55,3.55,0,0,1,59.35,114.6Z"/><path class="cls-8" d="M53.73,129a.72.72,0,0,1-.29-.06.71.71,0,0,1-.35-.93c.42-.9.8-1.85,1.16-2.77a32.35,32.35,0,0,1,2.56-5.39c.43-.68.94-1.36,1.48-2.08a17.06,17.06,0,0,0,2.62-4.3,6.77,6.77,0,0,0,.21-2.13,9.39,9.39,0,0,1,.11-1.89.7.7,0,0,1,1.38.26,8.52,8.52,0,0,0-.09,1.62,7.75,7.75,0,0,1-.27,2.58,18.1,18.1,0,0,1-2.83,4.7c-.53.7-1,1.36-1.42,2a30.47,30.47,0,0,0-2.44,5.16c-.37.93-.76,1.9-1.19,2.82A.7.7,0,0,1,53.73,129Z"/><path class="cls-8" d="M45.42,101a.7.7,0,0,1-.4-1.28,4.65,4.65,0,0,0,1.39-1.87c.64-1.23,1.43-2.77,4.06-2.27A.7.7,0,0,1,50.21,97c-1.6-.3-1.92.31-2.54,1.54a6,6,0,0,1-1.85,2.38A.75.75,0,0,1,45.42,101Z"/><path class="cls-8" d="M56.77,132.94a3,3,0,0,1-2.18-1.45,35.74,35.74,0,0,1-3.67-6.18c-2.74-5.56-4.47-11.52-6.28-18.18,0-.17-.12-.39-.19-.65-.72-2.42-2.07-6.92-.07-8.57a1.74,1.74,0,0,1,1.75-.17,2.1,2.1,0,0,0,.37.1.7.7,0,0,1,.87.48.72.72,0,0,1-.49.87,1.88,1.88,0,0,1-1.17-.11,1.44,1.44,0,0,0-.42-.09c-1.29,1.06.06,5.59.5,7.08q.14.42.21.69c1.79,6.59,3.5,12.48,6.18,17.93a34.76,34.76,0,0,0,3.53,5.94c.49.65.93.91,1.06.9.41-.23.51-1.73.54-2.22l0-.28a20.23,20.23,0,0,0-.36-4.69c-.16-1-.32-2.07-.38-3.11a.7.7,0,0,1,1.4-.08c.06,1,.21,1.95.37,3a22.1,22.1,0,0,1,.38,5l0,.27c-.07,1-.19,2.74-1.28,3.35A1.35,1.35,0,0,1,56.77,132.94Z"/><path class="cls-8" d="M51.1,147.1c-4.05,0-8.38-5.83-9.8-8.26-3.1-5.32-4.73-11-6.4-17.38-.14-.54-.3-1.1-.46-1.68-.83-2.86-1.76-6.11-1-8.94a6.55,6.55,0,0,1,1.84-2.68,10.29,10.29,0,0,0,1-1.18c.42-.61.89-1.39,1.38-2.23,2-3.39,4.73-8,8.61-7.31a.7.7,0,1,1-.26,1.38c-2.91-.54-5.26,3.44-7.14,6.64-.5.86-1,1.67-1.43,2.32a11.43,11.43,0,0,1-1.17,1.35,5.73,5.73,0,0,0-1.5,2.08c-.67,2.46.2,5.5,1,8.18.17.59.33,1.17.48,1.71,1.69,6.49,3.23,11.86,6.24,17,1.56,2.66,6,8.25,9.18,7.5.86-.2,1.49-1.52,2-2.48.07-.17.15-.32.22-.46.41-.84.84-1.63,1.25-2.42a40,40,0,0,0,3-6.66c1.07-3.36.5-7.15-.1-11.15-.14-.95-.28-1.9-.4-2.85a.7.7,0,0,1,.6-.79.71.71,0,0,1,.79.61c.12.94.26,1.88.4,2.82.63,4.17,1.22,8.12,0,11.79a42.57,42.57,0,0,1-3.11,6.89c-.42.77-.83,1.56-1.24,2.39-.07.13-.14.28-.21.43C54.32,145,53.53,146.64,52,147A4.18,4.18,0,0,1,51.1,147.1Z"/><path class="cls-8" d="M34,115.72l-.57.41h0ZM12.31,198.25c-.32,0-.64,0-1-.05-3-.28-5.66-2-7.82-5-.68-1-2.94-4.73-3.51-13.54-.43-6.56,11.52-31.06,19.62-44.39L21,133.1c2.88-4.73,5.15-8.46,7.88-13.61,0,0,2.72-4.59,4.6-4.71a1.25,1.25,0,0,1,1.12.53.71.71,0,0,1-1.1.88c-.77.22-2.85,3-3.38,4-2.74,5.18-5,8.94-7.92,13.69L20.83,136C12.74,149.34,1,173.51,1.42,179.58,2,188,4,191.52,4.66,192.4c1.94,2.71,4.17,4.15,6.82,4.4,6.78.65,14.5-6.73,19.61-11.61,2.07-2,19.33-18.92,20.44-20.55a.7.7,0,0,1,1.16.79c-1.3,1.91-19.75,19.94-20.63,20.78C27,191.05,19.45,198.25,12.31,198.25Z"/><path class="cls-8" d="M22.86,188.29a.72.72,0,0,1-.62-.37.71.71,0,0,1,.28-1c4.72-2.55,6.59-7,8.56-11.7.31-.75.63-1.5,1-2.25,2.5-5.68,6.43-10.88,9.89-15.47.71-.93,1.48-1.83,2.23-2.69,2.37-2.75,4.61-5.34,4.5-8.94a.71.71,0,0,1,1.41,0c.13,4.15-2.4,7.08-4.85,9.91-.73.85-1.48,1.72-2.16,2.62-3.43,4.53-7.3,9.65-9.73,15.19-.32.74-.63,1.48-.94,2.22-2.08,4.94-4,9.61-9.19,12.4A.66.66,0,0,1,22.86,188.29Z"/><path class="cls-8" d="M55.8,224.11h0a.72.72,0,0,1-.67-.74c.22-4.44-.63-18.32-1.38-30.57-.46-7.49-.85-14-1-17.29-.15-5.3-.46-16.34-3.48-22.56a.7.7,0,1,1,1.27-.61c3.15,6.49,3.46,17.73,3.62,23.13.09,3.31.51,10.08.94,17.24.76,12.29,1.61,26.21,1.39,30.73A.7.7,0,0,1,55.8,224.11Z"/><path class="cls-8" d="M153.32,114.6a.7.7,0,0,1-.65-.43,37.87,37.87,0,0,0-8.4-12,5.05,5.05,0,0,1-.52-.54c-3-3.87-3.55-10.4-4.08-16.71-.46-5.41-.89-10.52-2.75-13.72L136,69.55c-1.49-2.65-3.18-5.65-5.32-7.6a20.91,20.91,0,0,0-2.46-1.75c-2.53-1.64-5.67-3.67-5.55-6.93a1.68,1.68,0,0,1,.69-1.28,2,2,0,0,1,1.68-.34,11.91,11.91,0,0,1,2.89,1.3,15.43,15.43,0,0,0,1.65.86,11.06,11.06,0,0,0,1.74.52,9.19,9.19,0,0,1,2.58.89c4,2.26,6.33,5.81,8.59,9.25.65,1,1.32,2,2,3,.3.42.62.83.94,1.24A11.84,11.84,0,0,1,148.25,74a.7.7,0,0,1-.58.81.72.72,0,0,1-.81-.58,10.74,10.74,0,0,0-2.54-4.65c-.33-.42-.66-.85-1-1.28-.71-1-1.39-2-2-3-2.27-3.45-4.42-6.7-8.11-8.8A8.28,8.28,0,0,0,131,55.7a12.93,12.93,0,0,1-2-.59,17.87,17.87,0,0,1-1.79-.93A11.07,11.07,0,0,0,124.69,53a.65.65,0,0,0-.5.11.24.24,0,0,0-.12.2c-.1,2.46,2.56,4.18,4.9,5.7a20.09,20.09,0,0,1,2.64,1.89c2.31,2.1,4.06,5.21,5.6,8l.93,1.63c2,3.47,2.46,8.74,2.93,14.31.52,6.11,1.05,12.43,3.79,16l.4.41A39.07,39.07,0,0,1,154,113.63a.7.7,0,0,1-.38.92A.86.86,0,0,1,153.32,114.6Z"/><path class="cls-8" d="M152.28,71.24a.71.71,0,0,1-.67-.48c-2.12-6.34-7.84-11-12.89-15.05-1.83-1.47-3.55-2.87-5.05-4.29a31.41,31.41,0,0,1-3.54-4c-1.44-1.86-2.25-2.83-3.39-2.84h0a.24.24,0,0,0-.23.11,2.78,2.78,0,0,0-.07,1.91c.54,1.74,2,5.95,4,7.41a.7.7,0,1,1-.82,1.14c-2.27-1.64-3.82-5.8-4.54-8.13a3.92,3.92,0,0,1,.28-3.17,1.65,1.65,0,0,1,1.36-.68h0c1.88,0,3,1.51,4.49,3.39a31.31,31.31,0,0,0,3.39,3.88c1.47,1.38,3.17,2.76,5,4.22,5.2,4.2,11.09,9,13.35,15.69a.71.71,0,0,1-.45.89A.57.57,0,0,1,152.28,71.24Z"/><path class="cls-8" d="M156.11,68.78a.7.7,0,0,1-.62-.38,15.17,15.17,0,0,0-2.14-2.87c-.47-.54-.95-1.1-1.38-1.68s-1.05-1.45-1.57-2.2a29.42,29.42,0,0,0-5-6A55.31,55.31,0,0,0,140.18,52c-1.19-.77-2.43-1.58-3.58-2.41-.32-.23-.73-.57-1.21-1-1.59-1.32-4.25-3.5-6-3.48a.71.71,0,0,1,0-1.41c2.23,0,5,2.27,6.9,3.8.45.37.84.7,1.14.91,1.12.81,2.34,1.6,3.52,2.37a56.43,56.43,0,0,1,5.35,3.77,31,31,0,0,1,5.25,6.27c.52.74,1,1.47,1.54,2.17.41.54.85,1.05,1.33,1.6a16.78,16.78,0,0,1,2.32,3.14.71.71,0,0,1-.3,1A.8.8,0,0,1,156.11,68.78Z"/><path class="cls-8" d="M163.27,100.48a.71.71,0,0,1-.61-.34c-.39-.67-.75-1.25-1.09-1.8a15.73,15.73,0,0,1-2.89-7.5,52.13,52.13,0,0,1,0-8.92,54.82,54.82,0,0,0,.07-7.91,18.27,18.27,0,0,0-2.34-6.82l-.53-1.08c-1.93-4-3.59-7.36-6.55-10.48a39,39,0,0,0-10-7.29L138.7,48c-1.7-1-2.51-1.29-3.13-.44a.7.7,0,1,1-1.14-.82c1.47-2,3.67-.73,5,0l.57.33a40.53,40.53,0,0,1,10.34,7.56c3.11,3.28,4.82,6.78,6.79,10.83l.53,1.07a19.89,19.89,0,0,1,2.48,7.33,56.11,56.11,0,0,1-.06,8.11,50.33,50.33,0,0,0,0,8.68,14.25,14.25,0,0,0,2.68,6.92c.35.55.72,1.15,1.11,1.83a.69.69,0,0,1-.25,1A.73.73,0,0,1,163.27,100.48Z"/><path class="cls-8" d="M152.65,114.6a3.55,3.55,0,0,1-1.22-.2,2.62,2.62,0,0,1-1.56-1.48,4.12,4.12,0,0,1-.25-2.14,3.76,3.76,0,0,0,0-1.06.7.7,0,0,1,1.38-.26,5,5,0,0,1,0,1.44,2.75,2.75,0,0,0,.14,1.47,1.25,1.25,0,0,0,.75.71,4.46,4.46,0,0,0,3.12-.54c3.55-1.83,5.27-5.88,6.79-9.46l.16-.39c.38-.88,1.38-3.23.81-4.42a1.45,1.45,0,0,0-1-.75.71.71,0,0,1-.48-.87.7.7,0,0,1,.87-.48,2.8,2.8,0,0,1,1.88,1.49c.75,1.57,0,3.81-.78,5.58l-.17.39c-1.61,3.8-3.43,8.1-7.43,10.17A7,7,0,0,1,152.65,114.6Z"/><path class="cls-8" d="M158.27,129a.69.69,0,0,1-.64-.41c-.43-.92-.82-1.89-1.19-2.82a30.94,30.94,0,0,0-2.44-5.17c-.4-.63-.89-1.29-1.42-2a18.1,18.1,0,0,1-2.83-4.7,8,8,0,0,1-.28-2.58,8.54,8.54,0,0,0-.08-1.62.7.7,0,0,1,1.38-.26,9.39,9.39,0,0,1,.11,1.89,6.49,6.49,0,0,0,.21,2.13,17.06,17.06,0,0,0,2.62,4.3c.54.72,1,1.41,1.48,2.08a32.35,32.35,0,0,1,2.56,5.39c.36.92.74,1.87,1.16,2.77a.71.71,0,0,1-.35.93A.79.79,0,0,1,158.27,129Z"/><path class="cls-8" d="M166.58,101a.75.75,0,0,1-.4-.12,6,6,0,0,1-1.85-2.38c-.62-1.23-.94-1.84-2.54-1.54a.7.7,0,0,1-.82-.56.7.7,0,0,1,.56-.82c2.63-.5,3.42,1,4.06,2.27A4.56,4.56,0,0,0,167,99.71a.7.7,0,0,1-.4,1.28Z"/><path class="cls-8" d="M155.23,132.94a1.41,1.41,0,0,1-.68-.18c-1.08-.61-1.2-2.33-1.27-3.36l0-.26a22.06,22.06,0,0,1,.38-5c.16-1,.31-2,.37-3a.7.7,0,0,1,1.4.08c-.06,1-.22,2.09-.38,3.11a20.23,20.23,0,0,0-.36,4.69l0,.28c0,.49.13,2,.55,2.22.11,0,.56-.25,1-.9a34.76,34.76,0,0,0,3.53-5.94c2.68-5.44,4.39-11.34,6.18-17.93l.2-.69c.45-1.49,1.8-6,.52-7.07a1.13,1.13,0,0,0-.43.08,1.88,1.88,0,0,1-1.17.11.7.7,0,0,1,.38-1.35,1.29,1.29,0,0,0,.37-.1,1.74,1.74,0,0,1,1.75.17c2,1.65.65,6.15-.07,8.56-.07.27-.14.49-.19.66-1.82,6.66-3.54,12.63-6.28,18.18a35.37,35.37,0,0,1-3.67,6.18A3,3,0,0,1,155.23,132.94Z"/><path class="cls-8" d="M160.9,147.1a4.12,4.12,0,0,1-.92-.1c-1.51-.36-2.3-2-2.88-3.25l-.22-.43c-.41-.83-.83-1.62-1.24-2.39a42.57,42.57,0,0,1-3.11-6.89c-1.17-3.67-.58-7.61,0-11.79.14-.93.29-1.88.41-2.82a.7.7,0,1,1,1.39.18c-.12,1-.26,1.9-.4,2.85-.61,4-1.17,7.79-.1,11.15a40,40,0,0,0,3,6.66c.41.79.84,1.58,1.25,2.42l.23.46c.45,1,1.08,2.28,1.94,2.48,3.15.74,7.62-4.84,9.18-7.5,3-5.17,4.55-10.54,6.24-17l.48-1.71c.77-2.68,1.65-5.72,1-8.18a5.69,5.69,0,0,0-1.49-2.08,10.58,10.58,0,0,1-1.17-1.35c-.45-.65-.93-1.46-1.43-2.31-1.88-3.21-4.23-7.2-7.14-6.65a.7.7,0,0,1-.26-1.38c3.89-.73,6.62,3.92,8.61,7.31.49.84,1,1.62,1.37,2.23a11.56,11.56,0,0,0,1,1.18,6.55,6.55,0,0,1,1.84,2.68c.78,2.84-.15,6.08-1,8.94-.16.58-.33,1.14-.46,1.68-1.67,6.36-3.3,12.07-6.4,17.38C169.28,141.27,165,147.1,160.9,147.1Z"/><path class="cls-8" d="M199.69,198.25c-7.14,0-14.68-7.2-19.75-12-.88-.84-19.33-18.87-20.63-20.78a.69.69,0,0,1,.18-1,.7.7,0,0,1,1,.18c1.11,1.63,18.37,18.58,20.44,20.55,5.11,4.88,12.85,12.26,19.61,11.61,2.65-.25,4.88-1.69,6.81-4.4.63-.88,2.71-4.38,3.25-12.82.4-6.07-11.32-30.24-19.41-43.57l-1.34-2.2c-2.88-4.74-5.16-8.48-7.9-13.66-.53-1-2.63-3.76-3.39-4a.73.73,0,0,1-.93.07.69.69,0,0,1-.16-1,1.25,1.25,0,0,1,1.12-.53c1.88.12,4.58,4.67,4.6,4.71,2.72,5.14,5,8.87,7.87,13.59l1.33,2.2c8.09,13.33,20,37.83,19.62,44.39-.57,8.81-2.83,12.59-3.51,13.54-2.16,3-4.79,4.71-7.83,5C200.33,198.23,200,198.25,199.69,198.25Z"/><path class="cls-8" d="M189.14,188.29a.66.66,0,0,1-.33-.09c-5.16-2.79-7.12-7.46-9.19-12.4-.31-.73-.62-1.48-.94-2.22-2.43-5.53-6.31-10.66-9.73-15.19-.68-.9-1.43-1.77-2.16-2.62-2.45-2.83-5-5.76-4.85-9.91a.71.71,0,0,1,.71-.68h0a.7.7,0,0,1,.68.73c-.12,3.6,2.13,6.19,4.5,8.94.75.87,1.52,1.76,2.23,2.69,3.46,4.59,7.4,9.79,9.89,15.47.32.75.64,1.5.95,2.25,2,4.71,3.84,9.15,8.56,11.7a.71.71,0,0,1,.28,1A.72.72,0,0,1,189.14,188.29Z"/><path class="cls-8" d="M156.23,224.11a.69.69,0,0,1-.7-.67c-.22-4.51.63-18.43,1.38-30.71.44-7.17.86-13.95,1-17.26.15-5.4.47-16.64,3.62-23.13a.7.7,0,0,1,1.27.61c-3,6.23-3.33,17.26-3.48,22.56-.1,3.33-.49,9.81-1,17.31-.75,12.24-1.6,26.11-1.39,30.55a.71.71,0,0,1-.67.74Z"/><path class="cls-8" d="M106.86,227.05c-.17-13.67-.46-36.45.51-53.09a.7.7,0,1,1,1.4.08c-1,16.59-.68,39.34-.5,52.93l-.7.07Z"/><path class="cls-8" d="M79.71,133.88a8.45,8.45,0,1,0,8.52,8.45A8.5,8.5,0,0,0,79.71,133.88Zm0,18.3a9.86,9.86,0,1,1,9.93-9.85A9.91,9.91,0,0,1,79.71,152.18Z"/><path class="cls-8" d="M79.71,136.43a5.9,5.9,0,1,0,6,5.9A5.93,5.93,0,0,0,79.71,136.43Zm0,13.2a7.31,7.31,0,1,1,7.36-7.3A7.34,7.34,0,0,1,79.71,149.63Z"/><path class="cls-8" d="M82.16,133.76a.7.7,0,0,1-.7-.65c-3.54-42.17,5.73-50,6.13-50.31a.7.7,0,0,1,.88,1.1c-.13.1-9,8-5.61,49.09a.71.71,0,0,1-.64.76Z"/><path class="cls-8" d="M77.93,134a.7.7,0,0,1-.7-.68C75.65,80.42,89.44,79.2,90,79.17a.7.7,0,0,1,.73.67.71.71,0,0,1-.66.74c-.19,0-13,1.74-11.46,52.67A.71.71,0,0,1,78,134Z"/><path class="cls-8" d="M136.56,120.18h0a.7.7,0,0,1-.67-.73c1.36-34.47-4.48-36.74-4.54-36.76a.68.68,0,0,1-.56-.8.71.71,0,0,1,.83-.58c.73.12,7.1,2.2,5.67,38.2A.69.69,0,0,1,136.56,120.18Z"/><path class="cls-8" d="M139,120.32h0a.71.71,0,0,1-.68-.73c1.44-37-6.22-37.74-6.3-37.74a.72.72,0,0,1-.69-.7.7.7,0,0,1,.66-.71,3.42,3.42,0,0,1,2.38,1.23c3,3,6.37,12,5.36,38A.7.7,0,0,1,139,120.32Z"/><path class="cls-8" d="M140.91,124.69a.7.7,0,0,1-.7-.7v-.21c0-2.09-.19-2.63-.31-2.76a3.58,3.58,0,0,0-2.31-.37,4.51,4.51,0,0,0-2.68.81,4.71,4.71,0,0,0-.08,2.14l0,.29a.71.71,0,1,1-1.41.09l0-.27c-.09-1.2-.14-2.44.38-3.12.68-.86,2.36-1.26,3.7-1.34.74,0,2.55-.07,3.39.77.62.62.74,1.9.72,3.76V124A.7.7,0,0,1,140.91,124.69Z"/><path class="cls-8" d="M126.82,178.85c-.37,0-.63.08-.69.22a.92.92,0,0,0,.22.78,6.93,6.93,0,0,0,2.7,1.69q-.17-.36-.3-.75c-.46-1.21-.77-1.89-1.82-1.93Zm5.69,4.69a13.17,13.17,0,0,1-1.52-.09,9.43,9.43,0,0,1-5.67-2.64,2.26,2.26,0,0,1-.47-2.34,2,2,0,0,1,2.13-1c2,.08,2.64,1.68,3.08,2.85a3.21,3.21,0,0,0,.76,1.38.63.63,0,0,1,.27.36h.06c5.49.63,9.56-2.68,12.53-5.1s5.92-16.77,7.13-29a.71.71,0,0,1,.77-.63.69.69,0,0,1,.63.77c-.88,8.92-3.62,26.66-7.64,29.94C141.84,180.27,137.82,183.54,132.51,183.54Z"/><path class="cls-8" d="M147.31,180.66a1.78,1.78,0,0,0-1,.23,1.63,1.63,0,0,0-.48.71,3.94,3.94,0,0,1-.34.63,6.85,6.85,0,0,0,3.19-1.34A3.49,3.49,0,0,0,147.31,180.66Zm-4,3.15c-3.3,0-6.75-1.11-8.51-2.89-5.75-5.83-8.88-15.2-9.3-27.85a.7.7,0,0,1,.68-.72.69.69,0,0,1,.72.68c.41,12.28,3.4,21.33,8.9,26.9,1.39,1.4,4.52,2.44,7.53,2.46a.7.7,0,0,1,.36-.5,1.43,1.43,0,0,0,.78-.87,3.23,3.23,0,0,1,.84-1.19c.89-.77,2.69-.64,3.62-.32s1.14.79,1.2,1.14a1.29,1.29,0,0,1-.56,1.27A9.84,9.84,0,0,1,143.34,183.81Z"/><path class="cls-8" d="M127,153.94a2.32,2.32,0,0,1-1.1-.29c-.56-.3-2.39-1.58-2.36-5.44,0-.9,0-1.81,0-2.75-.08-3.84-.16-7.81,1.49-11.39,1-2.12,4.51-9.14,8.91-10.69a.7.7,0,1,1,.47,1.32c-3.09,1.09-6.21,5.86-8.1,10-1.52,3.28-1.44,7.09-1.36,10.77,0,.95,0,1.88,0,2.79,0,2.45.85,3.79,1.61,4.19a.66.66,0,0,0,.65.07c.14-.09.2-.35.16-.7-.88-7.23-1.37-14.22,2.2-20.19,2-3.31,4.26-5.26,6.78-5.77,5.31-1.09,9.93,3.55,11.11,6.15a34.49,34.49,0,0,1,2.44,13.25c0,.31.51.9,1.33,1.31a1.9,1.9,0,0,0,1.34.28.45.45,0,0,0,0-.18c-.41-6.59-1.19-13.46-5.7-18.7a12.13,12.13,0,0,0-5.93-3.34.71.71,0,0,1-.49-.87.7.7,0,0,1,.86-.49A13.35,13.35,0,0,1,147.9,127c4.79,5.56,5.63,13,6,19.52a1.52,1.52,0,0,1-.67,1.46,3.87,3.87,0,0,1-4.83-2.79,33.44,33.44,0,0,0-2.31-12.66c-.89-2-4.92-6.3-9.54-5.35-2.13.43-4.1,2.15-5.87,5.11-3.33,5.59-2.85,12.32-2,19.3a2.06,2.06,0,0,1-.76,2A1.79,1.79,0,0,1,127,153.94Z"/><path class="cls-8" d="M127.86,141.78a.7.7,0,0,1-.63-1c2.74-5.39,17.21-5.28,21.24-3.3a.7.7,0,1,1-.62,1.26c-3.51-1.72-17-1.89-19.36,2.68A.71.71,0,0,1,127.86,141.78Z"/><path class="cls-8" d="M71,40.78a.7.7,0,0,1-.5-.21l-.13-.12c-3-3-5.1-4.71-6.33-5.15.07.38.2.88.28,1.23.34,1.31.51,2,.12,2.41a.81.81,0,0,1-.72.26C62.51,39,61,37.46,59,35.27a17.25,17.25,0,0,0-1.59-1.64,6,6,0,0,1-.63-.67c-.3-.35-.91-1.07-1.11-.91-.39.31-.44,2.12-.47,3A8.63,8.63,0,0,1,55,37a.94.94,0,0,1-.84.77c-.79.06-1.24-.85-2.07-2.74-.18-.41-.35-.79-.49-1-.43-.82-.82-1.66-1.19-2.48l-.57-1.22a.7.7,0,0,1,1.27-.61l.57,1.24c.37.8.75,1.63,1.16,2.41.15.29.34.7.53,1.14l.39.85V35c0-1.63.1-3.32,1-4,1.27-1,2.48.41,3.06,1.09a5,5,0,0,0,.44.49,19,19,0,0,1,1.75,1.79,29.59,29.59,0,0,0,3,3c0-.16-.08-.32-.12-.45-.38-1.48-.56-2.28-.17-2.77a.84.84,0,0,1,.68-.34c2,0,5.09,2.87,7.9,5.68l.13.13a.71.71,0,0,1-.5,1.2Z"/><path class="cls-8" d="M145.37,46.38a.71.71,0,0,1-.62-.36.72.72,0,0,1,.28-1,36.93,36.93,0,0,1,4.18-1.71c1.24-.46,3-1.1,3.88-1.55l-.86-.25c-1.32-.35-2.09-.57-2.39-1.13a.91.91,0,0,1-.06-.74c.48-1.45,2.53-1.69,4.69-2,1.4-.16,3.13-.36,3.71-.93a8.58,8.58,0,0,0-1.59-1c-.87-.48-1.33-.75-1.52-1.14a1.16,1.16,0,0,1-.07-.91c.22-.63.94-1,1.62-1.27a5.05,5.05,0,0,0,.62-.31l1.48-1A35.69,35.69,0,0,1,162.38,29a.69.69,0,0,1,.94.31.7.7,0,0,1-.31.95,35.35,35.35,0,0,0-3.51,2.13c-.51.34-1,.67-1.5,1a6.47,6.47,0,0,1-.79.4,6.9,6.9,0,0,0-.72.36c.22.14.54.32.79.45,1.05.59,2.14,1.2,2.33,2a1.13,1.13,0,0,1-.19.94c-.83,1.16-2.75,1.38-4.78,1.62a10.35,10.35,0,0,0-3.27.71c.35.12.86.26,1.22.35,1.34.36,2.11.59,2.36,1.2a.89.89,0,0,1,0,.68c-.32.72-1.69,1.29-5.23,2.6a37.1,37.1,0,0,0-4,1.62A.72.72,0,0,1,145.37,46.38Z"/><path class="cls-8" d="M40.71,66a.7.7,0,0,1-.68-.53c-.11-.43-.6-2.65.37-3.78A1.79,1.79,0,0,1,42,61.08a4.8,4.8,0,0,1,2.35,1.29,4.11,4.11,0,0,0,1.67,1,13.62,13.62,0,0,0,.68-2.12,7,7,0,0,1,.59-1.79c.63-.94,1.94-.34,3.46.36a7,7,0,0,0,2.16.76c.26-.08.32-.84.37-1.45.09-1.07.21-2.54,1.58-2.93a4.39,4.39,0,0,1,2.35.28,4.78,4.78,0,0,0,.87.22,5.74,5.74,0,0,0,2.42-.85A11.59,11.59,0,0,1,62,55.16a.71.71,0,0,1,.44,1.34,9.51,9.51,0,0,0-1.31.6,6.42,6.42,0,0,1-3.17,1,5.26,5.26,0,0,1-1.17-.27,3.89,3.89,0,0,0-1.55-.28c-.41.12-.49.75-.57,1.69s-.18,2.3-1.33,2.68c-.8.27-1.91-.24-3.18-.82a9.89,9.89,0,0,0-1.77-.7c-.1.27-.24.8-.34,1.2-.5,1.9-.82,3-1.62,3.14-1.1.22-2.09-.57-3-1.27a4.11,4.11,0,0,0-1.61-1c-.28,0-.36.06-.4.11a3.64,3.64,0,0,0-.08,2.52.69.69,0,0,1-.51.85A.5.5,0,0,1,40.71,66Z"/><path class="cls-8" d="M167,61.26a.75.75,0,0,1-.21,0c-1.26-.25-2.21-1.72-3.21-3.27A10.38,10.38,0,0,0,161.17,55c.15.74.42,1.81.63,2.53,0,.19.17.48.28.78.42,1.09.63,1.64.08,2a.77.77,0,0,1-1-.16c-.79-.79-1.45-1.56-2.1-2.31-1.66-1.94-3.09-3.61-5.85-4.52a.71.71,0,1,1,.44-1.34c3.13,1,4.76,2.94,6.48,4.94l.07.08c-.76-2.84-.52-3.15-.36-3.36a.8.8,0,0,1,.59-.3c1.84,0,3.1,2,4.31,3.83a9.18,9.18,0,0,0,2,2.56A27.89,27.89,0,0,0,168,55.5a9.31,9.31,0,0,1,.36-1.37.84.84,0,0,1,.77-.52h0c.65,0,1,.66,1.47,1.75l.08.18.32.73a6.52,6.52,0,0,0,2.26,3.2.7.7,0,0,1,.14,1,.71.71,0,0,1-1,.14,7.91,7.91,0,0,1-2.7-3.76l-.31-.71-.08-.16C168.43,59.83,167.92,61.26,167,61.26Z"/><path class="cls-8" d="M67.35,17Zm8.36,9.3a.7.7,0,0,1-.58-.31,7.65,7.65,0,0,1-1-3.32,8.53,8.53,0,0,0-.37-1.84c-.07.07-.13.15-.18.21-.46.57-1,1.21-1.72,1.09a1.4,1.4,0,0,1-1-1,11.09,11.09,0,0,1-.2-3.22,19.18,19.18,0,0,0-.21-4,5.37,5.37,0,0,0-1.29,1.88c-.61,1.2-1.32,2.55-2.54,2.25-.8-.2-.92-.76-.62-6.77,0-.93.09-1.73.09-2.14a.7.7,0,0,1,1.4,0c0,.44,0,1.26-.09,2.21-.06,1.31-.19,3.75-.13,5,.21-.34.46-.83.64-1.17.65-1.27,1.39-2.7,2.73-2.7a1,1,0,0,1,.75.32c.66.67.7,2.39.68,5.14a16.23,16.23,0,0,0,.09,2.66c.12-.14.27-.31.37-.44.42-.51.81-1,1.38-1h0a1,1,0,0,1,.76.41,6.07,6.07,0,0,1,.86,2.91,6.59,6.59,0,0,0,.74,2.72.7.7,0,0,1-.2,1A.68.68,0,0,1,75.71,26.25Z"/><path class="cls-8" d="M123,77.48Zm-.12,1.34a1.32,1.32,0,0,1-.34,0c-.31-.08-1.31-.51-.91-2.52a.7.7,0,1,1,1.38.28,2.35,2.35,0,0,0,0,.83,1.66,1.66,0,0,0,.63-.91.71.71,0,1,1,1.34.44A2.49,2.49,0,0,1,122.85,78.82Z"/></g></g></svg>