<svg xmlns="http://www.w3.org/2000/svg" viewBox="0 0 428.4 297.7"><defs><style>.cls-1{fill:#fdecdd;}.cls-1,.cls-10,.cls-2,.cls-3,.cls-4,.cls-5,.cls-6,.cls-7{fill-rule:evenodd;}.cls-2{fill:#fff;}.cls-3{fill:#6274a3;}.cls-4{fill:#c5cbd2;}.cls-5{fill:#eaeaea;}.cls-6{fill:#808b91;}.cls-7{fill:#ced3e1;}.cls-8{fill:#acb8d2;}.cls-10,.cls-9{fill:#143681;}</style></defs><g id="レイヤー_2" data-name="レイヤー 2"><g id="レイヤー_1-2" data-name="レイヤー 1"><path class="cls-1" d="M318.18,257.24c2.46-1.67-.83-7.76-1.93-10.14-1.65-3.57-3-9.75-6.66-11.68-3.23-1.72-6.44-4.5-9.75-3.39-2.1.7-7.59,8.81-9.54,10.62s-4.15,1.87-5.89,4.22c-.75,1-1.69,3.24-2.4,4.19a17.45,17.45,0,0,0-2.75,5.14c-.16.66,1.15,1.25,2.42,1.26s2.25-.56,2.22-.16c-.1,1,1.91,2.59,1.91,2.59s-.47,2.1.49,2.73l3.39.51s1.41,3.06,3.65,2.17l4.08-1.59a6.27,6.27,0,0,0,4.91.87c5.69-1.7,10.51-3.41,10.51-3.41S316,258.7,318.18,257.24Z"/><path class="cls-1" d="M186.55,240.48s-8.84,3.24-12.42,7.93a16.17,16.17,0,0,0-2.69,4.92,17.52,17.52,0,0,0-.15,5.25s3.81.18,5.58.34,9.25,1.12,11.11,1.64a85.74,85.74,0,0,1,11.8,4.4c4.48,1.92,5.38,1.54,9.3,2.35a26.59,26.59,0,0,0,7.15.76,8.19,8.19,0,0,0,2.72-.84s3.71,1,4.73.81c1.39-.28,4.41-.16,5.59-.87a2.73,2.73,0,0,0,1.42-1.71s4.09-.09,5.17-1.66c1-1.4,4.44,1.51,4.88-.64a6.37,6.37,0,0,0-1.4-4.09,22.32,22.32,0,0,0-3.91-3.86l-2.19-2.55s2.59-.58,1.71-1.68c-2.26-2.83-5.68-7.19-8.8-9-3.54-2-5.26-2.29-9.09-2.57s-9.95,1.47-13.73,1.66C197.61,241.38,186.55,240.48,186.55,240.48Z"/><path class="cls-1" d="M205.56,167.2c-1.68-3.49-.58-8.36-3.15-11.44-3.72-4.46-10.72-7.9-13.35-13.16a10.64,10.64,0,0,1-.78-4.31s-.32-6.8-.79-9.37c-.69-3.79-1.71-5.45-3-5.91a14.6,14.6,0,0,1-5-3.83c-1.15-1.81-2-4.33-1.79-5.86.7-4.66,5.55-8.68,8.26-12.29,7.65-10.2,16.69-22.83,31.08-18.31a16.53,16.53,0,0,1,3.82,1.72,37.81,37.81,0,0,1,6.86,6.87c1.58,2.06,3.92,2.31,4.63,6.78s-.22,13.24-.22,13.24,1.71-.4,2.52.61.62,3.22.36,4.8c-.58,3.66-4.69,7.75-4.69,7.75s-7.47,21.2-13.09,28.22c-3.06,3.82-5.08,8.56-8.39,12.2C208.07,165.81,206.11,168.34,205.56,167.2Z"/><path class="cls-2" d="M187.43,131c-1.7-.86-6.39,6.86-6.39,6.86s-7.51,1.39-10.47,2.2c-4.74,1.29-6.45,2.43-11,4.26-4.06,1.63-8,2.11-12.09,3.76-5.35,2.19-9.94,3.85-14.41,7.34-3,2.31-6.53,7.13-8.71,10.47a84.35,84.35,0,0,0-6,12.8c-3.5,9.32-9.28,28.72-10.7,38.63s-.5,4.12,3.19,13.94a28.4,28.4,0,0,0,5,8.92c4.52,6.09,22.36,20.52,22.36,20.52s9.08.29,14.15.78c2.31.22,5.13-1.51,5.13-1.51a38.29,38.29,0,0,0,5.64-1.48c8-4,10.56-14.82,19.55-17.82,2.56-.85,4.8-.59,7.44-.41,4.13.28,8.69.89,12.81.72s9.31-1.18,13.51-1.6c4.49-.45,8.21.86,12.16,4.47a64.94,64.94,0,0,1,4.94,5.32c.5.59,1.56,1.73,1.56,2.25,0,1-1.51,1.19-1.51,1.19l.52.71,16,.17s.67-9.38,1.09-14.12c.28-3.09.61-6.88,2.12-15.45.22-1.24,4.75-15.45,4.75-15.45s3.36,4.67,6.33,8.07a89.07,89.07,0,0,1,5.8,8.28c3.13,6.46,4.34,7.12,7.81,13.37,1.06,1.92,6.88,8.28,6.88,8.28s4.66-2.51,6.08-4c3.1-3.28,5.84-10.74,11.19-9.59a7.84,7.84,0,0,1,3.65,2.42c.06.13,3.92.06,5.27,2.59a25.8,25.8,0,0,0,1.28,2.28s7,12.25,6.78,15.17-6.78,6.36-6.78,6.36,5.57-.68,7.93-2.55a12.37,12.37,0,0,0,4.59-7.36c.52-3.39-1.16-9.83-2.69-12.37a115.17,115.17,0,0,0-8.61-12.65,73.13,73.13,0,0,1-5.22-6.38c-2.52-3.87-4.85-12.51-7.68-16.7-3.85-5.7-8.58-13.23-12.6-19.37-3.34-5.12-6.89-12.4-10.32-17.41-3.78-5.53-7-10.76-12.62-14.6-9-6.17-20-9.34-29.81-13.86-2.3-1.06-7.1-2.86-7.1-2.86l-6.45,6.48s-4.82,13.21-8.44,17.39c-.67.78-5.68,12.4-6.9,12.4s-4.16-14.19-4.92-15.09c-3.46-4.16-6.68-6.4-9.38-10.79-1.22-2-2-5.91-3.24-8C187.69,136.13,189.4,132,187.43,131Z"/><path class="cls-2" d="M230.37,125.16c-.61-1.88-.53.84-9.1-2.16-1.55-.54-5-2.81-6.61-3.39-2.66-1-4.31-.18-6.66.59a63.88,63.88,0,0,1-9.21,2.35c-4.28.67-7.18-2-9.16-.38-2.15,1.75.37,4.17.66,6.32.21,1.49.06,5.89.46,7.37.87,3.27,1.6,2.57,3.77,4.19,2,1.5,7.88,7.1,13.37,7.6,4.53.41,11.08-2.85,14.43-6,1.92-1.79,3.14-2.29,4.67-4.47a19.45,19.45,0,0,0,2.58-7.15C229.81,128.34,231,127.1,230.37,125.16Z"/><path class="cls-3" d="M179.75,108.73l-1.56-9.55a54.44,54.44,0,0,1-.94-5.54c-.28-2.76.87-3.79,1.23-6.9.27-2.34,1-8,1.93-9.82a16.75,16.75,0,0,1,8.05-7.32c1.25-.53,5.19-.33,9.8-2,6.07-2.26,12.36-5.71,17.94-4.11,2,.57,5.69,3.5,7.43,4.87,3.92,3.09,6.64,3.53,8.91,7.3,2.64,4.41,5.57,5.88,5.93,10.59a53.31,53.31,0,0,1-1.54,14.13c-.42,1.71-2.43,11-2.43,11l-2.14-.42a6.86,6.86,0,0,1-.12-2.08,80.8,80.8,0,0,0,.12-9.92s-5.17-.88-7.37-2.2c-2.93-1.76-4.38-2.75-6-4.83-1.46-1.9-2.91-5.5-6.07-6.13-1.66-.34-5.6.66-7.93,1.16s-5.76.57-6.56,1.17c-5.77,4.33-4.39,10.2-8.93,15.87-.66.83-1.15,4.28-3,5.12C183.85,110.3,179.75,108.73,179.75,108.73Z"/><path class="cls-3" d="M172.66,163.5l-1,7.59a29.18,29.18,0,0,1-3,.52c-1.63,0-4.13,3.27-4.13,3.27s-2.09,10.05-2.9,16.54c-.32,2.54-1.54,8.32-1.54,10.93,0,1,.08,2.41.08,2.41s2.91.1,3-.19c.42-2.35,1.13-8.33,1.44-11.22.49-4.59,1.48-11,2.05-14.71.44-2.87,2.27-3.32,5.45-3.72a6.13,6.13,0,0,1,3.61.64s4.27-1.45,4.37-2-4.68-2.46-4.68-2.46l.76-6.51Z"/><polygon class="cls-3" points="182.28 194.05 184.32 205.79 187.13 205.68 186.18 197.48 182.28 194.05"/><path class="cls-3" d="M233.24,165.44a48.47,48.47,0,0,0,1.21,4.93c.35,1.22,1.24,5.93,1.24,5.93l4,.87s-.63-2.92-1.18-5.41-1.76-7.37-1.76-7.37Z"/><path class="cls-3" d="M237,185.23s.59,3.64.81,7.33c.28,4.56.13,7.92.32,12.76.16,4,.43,7.24.31,9.25-.09,1.69,3.76.21,3.76.21s.26-7.26.26-9.67c0-5.6-.93-11.43-1.29-17.07-.05-.91-1-6.3-1-6.3Z"/><path class="cls-4" d="M206.22,216.72a83.81,83.81,0,0,0-2.59-9c-3.11-7.5-7.25-12.51-10.74-20.54-3.42-7.88-6.2-18.89-7.61-27.68-.72-4.41-.64-12.17-.55-16.63.11-5.66,2-7,3.25-9.19.4-.73,1.09,5.45,1.35,6.23a24.27,24.27,0,0,0,3.42,7.23,21.6,21.6,0,0,0,4.71,4.95c1.35,1,2.55,1.33,3.67,2.74a28,28,0,0,1,2.86,4.34,30.6,30.6,0,0,1,1.46,5.8c.11.42.25,4.32.4,4.2a18.39,18.39,0,0,0,2.44-3.76c.46-1.41,1-3.28,1.56-5.12.7-2.09,1-3.39,2.28-4.78,1.62-1.71,4.38-4.32,6.15-6.24,1.15-1.25,2.38-4.18,3.2-5.52.2-.33.19,2,.38,2.34.59,1,1.06,12.32.59,19.43-.54,8.09-1.81,8.63-3.2,16.58-.8,4.61-4.34,13.86-5.79,18.13s-2.89,7.52-4.42,12.12c-.26.79-2.4,6.74-2.4,6.74Z"/><path class="cls-4" d="M311.84,239.65s-.23.17,1.14,3.14c.35.74,1.83,2.24,2.23,3.28s.06,2.22.55,3.51c.31.81,1.55,2.28,1.88,3.2.6,1.65,1.29,2.76-.25,4.66s-5.91,3.94-5.11,4.31a8.16,8.16,0,0,0,3.58.05,7.56,7.56,0,0,0,2.84-1.25c1.66-1.48,1.92-3.86,1.88-6-.05-2.61-2-8.87-3.81-10.93A47.42,47.42,0,0,0,311.84,239.65Z"/><path class="cls-4" d="M178,239.39s-.41-.54-5.21,3.69c-2.17,1.9-2.57,4.22-6.28,7.44-1.23,1.07-5.74,2.86-8.73,4.35a18.19,18.19,0,0,0-4.36,3c-.27.22-1.16,1.18-1.16,1.18s5.11.13,6.57.27c2.9.29,9.74.84,12.71.22,1-.21-.84-1.87-.49-4.26a12,12,0,0,1,3.55-7.22,30,30,0,0,1,6-4.65,19.63,19.63,0,0,0,2.76-1.75,16.59,16.59,0,0,1,2.51-1.09Z"/><path class="cls-5" d="M160.56,204.51s-.78,6.82-1.35,9.41c-1.13,5.16-1.9,10.18-1.09,15.45a14,14,0,0,0,1.67,4.3l2.3.84,1.6-.15s-2.83-3.38-3.09-4.52a24.6,24.6,0,0,1,.17-9.59c.65-3.9,1.65-15.77,1.65-15.77Z"/><path class="cls-5" d="M184.72,206s1.12,10.64,1.36,15.22c.2,3.79,1,9.31-1.21,12.81-1.21,1.94-4.63,2.3-4.63,2.3a2.14,2.14,0,0,0,0,1.42,1.63,1.63,0,0,0,1.65.93,8.53,8.53,0,0,0,6-5.54c1.19-3.25.77-7,.88-10.19.07-1.94-.5-5.93-.66-7.87a74.47,74.47,0,0,0-1.49-9.44C186.4,205,184.72,206,184.72,206Z"/><path class="cls-5" d="M239.1,214.73l-.45,8.44a21.82,21.82,0,0,0-4.29,1.33c-3.78,2.52-5.27,5.09-4.52,9.7,1.41,8.67,14,9.46,17.33,1.54,1.34-3.2,1-5.68-1.07-8.49-1.08-1.48-4.49-3.69-4.49-3.69s1-6.7,0-9.21C241.22,213.45,239.1,214.73,239.1,214.73Z"/><path class="cls-3" d="M180.68,235.82a10.29,10.29,0,0,0-2.38-2c-1.38-.55-1.2,3.39-1.2,3.39L180,238Z"/><path class="cls-3" d="M168.53,235.35s1.19-1.64,2-1.79c.52-.09,1,1.61,1.21,2.13C172.28,236.69,168.53,235.35,168.53,235.35Z"/><path class="cls-6" d="M234.08,253.83c-4.92-6.82-14-17.9-15.48-19.86s-3.54-5-5-6.32a1.43,1.43,0,0,0-1.9.46c-.5,1,2.86,5.26,3.18,5.69,3.72,4.95,8.65,11.38,8.65,11.38s5.62,6.08,7.43,7.54C231.67,253.33,235.6,255.94,234.08,253.83Z"/><path class="cls-6" d="M238.9,264.12l2.13-.76a7.81,7.81,0,0,1,1.33,1.94c.65,1.4,1.38,3.48.52,2.62a24.56,24.56,0,0,0-2.46-1.64Z"/><path class="cls-7" d="M19.62,219.61s-.29-1.89.72-2.81,3.32-.86,3.32-.86l103.48,3a5.19,5.19,0,0,1,3.37.76,8.37,8.37,0,0,1,2.23,3.35l7.68,52.83,44,4.18a2.6,2.6,0,0,1-.08,1.66,3.48,3.48,0,0,1-1.36,1.21L143.2,295.71l-1.92,1.47L32.43,291.49l-2-2.59Z"/><path class="cls-8" d="M253.32,142a.62.62,0,0,1-.62-.62v-31.2a.62.62,0,1,1,1.23,0v31.2A.62.62,0,0,1,253.32,142Z"/><path class="cls-8" d="M425.12,199.89H301.05a.62.62,0,1,1,0-1.24H425.12a.62.62,0,0,1,0,1.24Z"/><path class="cls-8" d="M262.69,145.86a.61.61,0,0,1-.62-.61V109.5a.62.62,0,0,1,1.24,0v35.75A.61.61,0,0,1,262.69,145.86Z"/><path class="cls-8" d="M427.29,192.62H297.13a.62.62,0,0,1,0-1.24H427.29a.62.62,0,0,1,0,1.24Z"/><path class="cls-8" d="M382,191.9h0a.61.61,0,0,1-.61-.62L382,109.9a.62.62,0,0,1,.62-.62h0a.64.64,0,0,1,.62.63l-.68,81.38A.62.62,0,0,1,382,191.9Z"/><path class="cls-8" d="M398.88,191.9h0a.61.61,0,0,1-.61-.62l.85-81.29a.61.61,0,0,1,.62-.61h0a.62.62,0,0,1,.61.63l-.85,81.28A.62.62,0,0,1,398.88,191.9Z"/><path class="cls-8" d="M390,191.69h0a.63.63,0,0,1-.61-.63l.79-81.2a.65.65,0,0,1,.63-.62.62.62,0,0,1,.61.63l-.79,81.2A.62.62,0,0,1,390,191.69Z"/><path class="cls-8" d="M267.23,149.29a.62.62,0,0,1-.62-.62V109.43a.62.62,0,0,1,1.24,0v39.24A.62.62,0,0,1,267.23,149.29Z"/><path class="cls-8" d="M381.68,188.66H295a.62.62,0,0,1,0-1.24h86.7a.62.62,0,0,1,0,1.24Z"/><path class="cls-8" d="M427.78,188.66H399.14a.62.62,0,0,1,0-1.24h28.64a.62.62,0,0,1,0,1.24Z"/><path class="cls-8" d="M417.13,110.06h-167a.61.61,0,0,1-.61-.62V.62a.62.62,0,1,1,1.23,0v108.2H417.13a.62.62,0,0,1,0,1.24Z"/><path class="cls-8" d="M169.46,137.2a.62.62,0,0,1-.62-.62L168.74,7.8a.62.62,0,0,1,.62-.62h0a.62.62,0,0,1,.62.62l.1,128.78a.62.62,0,0,1-.62.62Z"/><path class="cls-8" d="M107.14,202.47h0l-80.68-.21a.62.62,0,0,1,0-1.24h0l80.69.21a.62.62,0,0,1,0,1.24Z"/><path class="cls-8" d="M163.18,139.74a.61.61,0,0,1-.62-.61l-.15-126.92a.62.62,0,0,1,.62-.62h0a.62.62,0,0,1,.62.62l.15,126.91a.61.61,0,0,1-.62.62Z"/><path class="cls-8" d="M128.64,19.21a.62.62,0,1,1,0-1.24l33.75,0h0a.62.62,0,1,1,0,1.24l-33.75,0Z"/><path class="cls-8" d="M163,90.46H56.45a.62.62,0,0,1-.62-.62.62.62,0,0,1,.62-.62H163a.62.62,0,1,1,0,1.23Z"/><path class="cls-8" d="M97.89,165.34h0l-62.19-.46a.62.62,0,0,1,0-1.24h0l62.19.46a.64.64,0,0,1,.62.63A.62.62,0,0,1,97.89,165.34Z"/><path class="cls-8" d="M86.88,213.78h0a.62.62,0,0,1-.62-.62l.15-168.44A.62.62,0,0,1,87,44.1h0a.62.62,0,0,1,.62.62v7.06L87.5,213.16A.62.62,0,0,1,86.88,213.78Z"/><path class="cls-8" d="M42.94,164.52a.64.64,0,0,1-.39-.14.61.61,0,0,1-.22-.59c0-.95-1.27-10.35-2.61-20.28l-.06-.39a.63.63,0,0,1,.53-.7.62.62,0,0,1,.7.53l0,.39c2.78,20.57,2.76,20.6,2.48,20.95A.62.62,0,0,1,42.94,164.52Z"/><path class="cls-8" d="M43.49,163.49Zm9.5.27h0Zm-.52.87a7.49,7.49,0,0,1-1.86-.38,11,11,0,0,0-2.73-.52h0a11.08,11.08,0,0,0-3,.54c-1.11.31-2.06.58-2.46-.23a.62.62,0,0,1,1-.7,8,8,0,0,0,1.12-.26,12.15,12.15,0,0,1,3.36-.59,13,13,0,0,1,3.07.57,8.5,8.5,0,0,0,1.46.33c0-1.69-1.46-10.58-3-20-.5-3.15-1-6.48-1.56-9.84a.62.62,0,0,1,1.22-.2c.53,3.37,1.06,6.7,1.57,9.84,2.77,17.33,3.17,20.25,2.89,20.82A1.08,1.08,0,0,1,52.47,164.63Z"/><path class="cls-8" d="M65.12,165.21c-.65,0-1.62-.92-6-12.32-2.49-6.49-5.64-15.26-8.64-24.08a.62.62,0,0,1,1.18-.4C58,147,63.88,162.33,65.33,163.93a8.21,8.21,0,0,0,2.28-1.19,13.71,13.71,0,0,1,1.25-.77l.29-.15c1.77-.93,2.52-1.4,2.34-1.93-2.08-6-4.85-13.44-9-24-1.78-4.55-3.62-9.18-5.31-13.37a.62.62,0,0,1,1.15-.46c1.69,4.19,3.53,8.82,5.32,13.37,4.14,10.56,6.91,18,9,24,.55,1.59-1.06,2.44-2.93,3.42l-.29.15c-.37.2-.75.45-1.15.71a7.87,7.87,0,0,1-3,1.42Z"/><path class="cls-8" d="M74.78,164.79a1.35,1.35,0,0,1-1.09-.51c-1.44-1.73-3.55-8.43-3.64-8.72a.6.6,0,0,1,.4-.77.62.62,0,0,1,.78.4c.59,1.88,2.35,7,3.41,8.3.24.28,1.64-.46,2.48-.91.53-.29,1.1-.59,1.67-.85a15.33,15.33,0,0,1,1.77-.64c.72-.22,1.61-.5,1.57-.77-.35-2.5-7-18.07-18.23-42.73a.62.62,0,0,1,1.13-.51c6.63,14.55,17.82,39.49,18.33,43.07.19,1.31-1.2,1.74-2.43,2.12a13.66,13.66,0,0,0-1.62.59c-.56.25-1.1.54-1.61.81A7.26,7.26,0,0,1,74.78,164.79Z"/><path class="cls-8" d="M99.66,77.52V89h54.48V77.5ZM99,90.25a.62.62,0,0,1-.62-.62V76.9a.62.62,0,0,1,.62-.62l55.71,0a.65.65,0,0,1,.44.18.62.62,0,0,1,.18.44V89.62a.59.59,0,0,1-.19.43.58.58,0,0,1-.43.18Z"/><path class="cls-8" d="M102.37,64v11.5l54.48,0V64Zm-.62,12.74a.61.61,0,0,1-.61-.62V63.41a.62.62,0,0,1,.62-.62h55.72a.62.62,0,0,1,.62.62V76.13a.61.61,0,0,1-.62.62Z"/><path class="cls-8" d="M100.22,51.2V62.7l54.48,0V51.19ZM99.6,63.94a.62.62,0,0,1-.62-.62V50.58A.62.62,0,0,1,99.6,50h55.71a.61.61,0,0,1,.62.62V63.3a.65.65,0,0,1-.18.44.62.62,0,0,1-.44.18Z"/><path class="cls-8" d="M142.55,145.5a.62.62,0,0,1-.57-.38L126.76,108.6l-11.19,4.64a.62.62,0,1,1-.47-1.14l11.76-4.88a.62.62,0,0,1,.81.34l15.45,37.09a.63.63,0,0,1-.33.81A.67.67,0,0,1,142.55,145.5Z"/><path class="cls-8" d="M115.22,147.82a.61.61,0,0,1-.58-.39l-14-35.15a.64.64,0,0,1,0-.47.64.64,0,0,1,.34-.33l11.83-4.71a.62.62,0,0,1,.81.34l15.56,38.59a.62.62,0,0,1-.34.81.64.64,0,0,1-.81-.34l-15.33-38L102,112.4,115.79,147a.61.61,0,0,1-.34.8A.62.62,0,0,1,115.22,147.82Z"/><path class="cls-8" d="M100.93,164.23a.62.62,0,0,1-.6-.46l-13.68-54a.62.62,0,0,1,.45-.76l12.34-3.12a.59.59,0,0,1,.47.06.66.66,0,0,1,.28.38L110.74,148a.62.62,0,1,1-1.2.3l-10.39-41L88,110.05l13.53,53.41a.61.61,0,0,1-.44.75A.47.47,0,0,1,100.93,164.23Z"/><path class="cls-8" d="M147.53,81.39a1.87,1.87,0,1,0,1.87,1.87A1.87,1.87,0,0,0,147.53,81.39Zm0,5a3.11,3.11,0,1,1,3.11-3.11A3.1,3.1,0,0,1,147.53,86.37Z"/><path class="cls-8" d="M108.92,68.19a1.87,1.87,0,1,0,1.87,1.87A1.87,1.87,0,0,0,108.92,68.19Zm0,5A3.11,3.11,0,1,1,112,70.06,3.11,3.11,0,0,1,108.92,73.17Z"/><path class="cls-8" d="M106.78,54.89a1.87,1.87,0,1,0,1.87,1.87A1.87,1.87,0,0,0,106.78,54.89Zm0,5a3.11,3.11,0,1,1,3.11-3.1A3.1,3.1,0,0,1,106.78,59.86Z"/><path class="cls-8" d="M119.66,58.74h30.11v-4H119.66ZM150.39,60H119a.62.62,0,0,1-.62-.62V54.15a.62.62,0,0,1,.62-.62h31.35a.62.62,0,0,1,.62.62v5.21A.62.62,0,0,1,150.39,60Z"/><path class="cls-8" d="M121.74,71.35h30.12v-4H121.74Zm30.74,1.24H121.12a.62.62,0,0,1-.62-.62V66.76a.62.62,0,0,1,.62-.62h31.36a.62.62,0,0,1,.62.62V72A.62.62,0,0,1,152.48,72.59Z"/><path class="cls-8" d="M106.23,85h30.12V81H106.23ZM137,86.24H105.61a.61.61,0,0,1-.62-.61V80.42a.62.62,0,0,1,.62-.62H137a.62.62,0,0,1,.62.62v5.21A.61.61,0,0,1,137,86.24Z"/><path class="cls-9" d="M31.22,288.56a3.46,3.46,0,0,0,.91,1.72,4.37,4.37,0,0,0,2,.74l106.55,5.44c.28,0,1.2-.09,1.49-.54a3.78,3.78,0,0,0,.1-2.13l-10-69.29c0-.07-.2-2.59-1.46-3.82a6.38,6.38,0,0,0-3.74-1.32l-104-2.83c-.53,0-1.92,0-2.41.68a5,5,0,0,0-.2,3.08Zm109.49,9.14h-.05l-106.6-5.45a5.6,5.6,0,0,1-2.73-1A4.8,4.8,0,0,1,30,288.77L19.23,220.51c-.05-.25-.52-2.72.42-4s3.23-1.21,3.48-1.19l104,2.83a7.66,7.66,0,0,1,4.57,1.67h0c1.6,1.57,1.82,4.46,1.83,4.58l10,69.2a4.72,4.72,0,0,1-.28,3A3.13,3.13,0,0,1,140.71,297.7Z"/><path class="cls-9" d="M153.26,262.19h-.08c-3.37-.39-8.24-.69-13.4-1l-1.21-.07a.62.62,0,1,1,.08-1.24l1.2.07c5.18.32,10.06.62,13.48,1a.62.62,0,0,1-.07,1.23Z"/><path class="cls-9" d="M107.64,218.8h0a.62.62,0,0,1-.6-.64c.29-7.25,9.43-38.56,14.71-48.71,4.27-8.21,9.09-15.92,20.94-20.17,3.3-1.19,5.27-1.8,7.35-2.45,1.56-.48,3.13-1,5.32-1.72,1-.35,2.33-.89,3.85-1.52,4.51-1.87,10.69-4.44,17.32-5.34a11,11,0,0,0,4.34-1.36.63.63,0,0,1,.86.2.62.62,0,0,1-.21.86,12.16,12.16,0,0,1-4.83,1.53c-6.47.87-12.56,3.41-17,5.25-1.53.64-2.86,1.19-3.92,1.55-2.2.76-3.8,1.26-5.35,1.74-2.07.64-4,1.25-7.3,2.42-11.45,4.11-16,11.3-20.26,19.58-5.59,10.74-14.31,41.67-14.57,48.19A.62.62,0,0,1,107.64,218.8Z"/><path class="cls-9" d="M153.94,262.25h-.2a3.38,3.38,0,0,1-2.36-1.19,1.37,1.37,0,0,1-.3-1.08c.22-1.53,2.85-3.58,5-5a19,19,0,0,1,4-1.84,16.4,16.4,0,0,0,6.61-3.7,29,29,0,0,0,2.54-3.15c2.45-3.31,5.5-7.44,11.42-8.42a.62.62,0,0,1,.2,1.22c-5.42.9-8.18,4.64-10.62,7.94a32.25,32.25,0,0,1-2.65,3.28,18,18,0,0,1-7.07,4,18,18,0,0,0-3.8,1.7c-3.17,2.12-4.39,3.57-4.48,4.17a1.9,1.9,0,0,0,1.5.86c1,.06,2.22-.57,3.54-1.8a.63.63,0,0,1,.88,0,.62.62,0,0,1,0,.87A6.57,6.57,0,0,1,153.94,262.25Z"/><path class="cls-9" d="M183.81,240.53a.62.62,0,0,1-.53-.29c-.89-1.44-8.75-2.84-14.49-3.86-3.1-.56-6-1.08-8.13-1.61-3.91-1-7.11-2.11-10.2-3.2-5.42-1.92-10.1-3.58-16.59-3.58a.62.62,0,0,1,0-1.24c6.7,0,11.47,1.69,17,3.65,3.07,1.08,6.24,2.2,10.09,3.17,2.06.52,5,1,8,1.59,8.54,1.52,14.22,2.65,15.33,4.43a.62.62,0,0,1-.2.85A.66.66,0,0,1,183.81,240.53Z"/><path class="cls-9" d="M.62,255.1a.61.61,0,0,1-.62-.61.63.63,0,0,1,.62-.63l24.24-.09h0a.62.62,0,0,1,0,1.24L.62,255.1Z"/><path class="cls-9" d="M279.76,254.38h0L234,254.26a.62.62,0,1,1,0-1.24h0l45.74.12a.62.62,0,0,1,0,1.24Z"/><path class="cls-9" d="M116,185.84a.63.63,0,0,1-.6-.46c-1.37-5.35-2.93-10.89-4.76-16.94l-.2-.66c-1.26-4.07-4.21-13.61-.4-16.64,2.45-1.94,9.54-3.13,23.7-4l18.1-1a.6.6,0,0,1,.65.58.62.62,0,0,1-.58.66l-18.1,1c-8.5.51-20.14,1.46-23,3.72-3.15,2.51-.27,11.81.81,15.31l.2.66c1.84,6.07,3.4,11.62,4.78,17a.61.61,0,0,1-.44.75Z"/><path class="cls-9" d="M113.33,194.45a.62.62,0,0,1-.6-.47c-1.85-7.67-4-15.42-6.26-23l-.21-.67c-1.26-4.07-4.21-13.61-.39-16.63a18.79,18.79,0,0,1,4.79-3,.62.62,0,1,1,.42,1.16,18.73,18.73,0,0,0-4.44,2.78c-3.15,2.51-.28,11.81.81,15.31l.2.67c2.31,7.63,4.43,15.4,6.29,23.09a.62.62,0,0,1-.46.74Z"/><path class="cls-9" d="M145,295.63a.63.63,0,0,1-.59-.43.62.62,0,0,1,.41-.78l37.93-12.11a2.78,2.78,0,0,0,1.12-.86,1.41,1.41,0,0,0,.11-.81l-43.38-4.26a.62.62,0,0,1,.12-1.24l43.85,4.31a.62.62,0,0,1,.53.44,3.07,3.07,0,0,1-.15,2.16,3.9,3.9,0,0,1-1.77,1.42l-38,12.13A.58.58,0,0,1,145,295.63Z"/><path class="cls-9" d="M143,293.52a.63.63,0,0,1-.6-.44.62.62,0,0,1,.41-.77l41-12.58a.6.6,0,0,1,.77.41.62.62,0,0,1-.41.77l-41,12.58Z"/><path class="cls-9" d="M215.37,268.65a21.94,21.94,0,0,1-3.94-.46c-.61-.11-1.2-.22-1.77-.29l-1.34-.15a30.13,30.13,0,0,1-6.2-1.17,64.13,64.13,0,0,1-6.14-2.51,39.21,39.21,0,0,0-9.75-3.38l-.39-.06a77.42,77.42,0,0,0-14.12-1.42.59.59,0,0,1-.63-.6.62.62,0,0,1,.6-.64A78.61,78.61,0,0,1,186,259.41l.39.06a39.61,39.61,0,0,1,10.06,3.47,60.57,60.57,0,0,0,6,2.46,28.71,28.71,0,0,0,6,1.12l1.35.15c.59.08,1.21.19,1.84.3,2.22.4,4.51.82,7.11-.16a.6.6,0,0,1,.79.36.62.62,0,0,1-.36.8A10.8,10.8,0,0,1,215.37,268.65Z"/><path class="cls-9" d="M222.75,268.65a7.61,7.61,0,0,1-2.88-.47,68.82,68.82,0,0,0-7.9-2.61.61.61,0,0,1-.46-.74.6.6,0,0,1,.74-.46,68.77,68.77,0,0,1,8.08,2.67,10.2,10.2,0,0,0,4.47.26l1.07-.07c1.54-.09,3.55-.48,4.33-1.8a.62.62,0,0,1,.85-.22.63.63,0,0,1,.22.85c-.85,1.44-2.64,2.25-5.33,2.4l-1,.08C224.21,268.6,223.48,268.65,222.75,268.65Z"/><path class="cls-9" d="M231.6,265.7a16.91,16.91,0,0,1-6.26-1.37c-1.7-.68-3.32-1.48-4.76-2.18C218.28,261,216.29,260,215,260a.61.61,0,0,1-.59-.64.66.66,0,0,1,.64-.6c1.58.07,3.68,1.1,6.11,2.3,1.41.69,3,1.48,4.67,2.15,4.57,1.84,8.47,1.7,10.2-.37a.62.62,0,0,1,.95.8A6.74,6.74,0,0,1,231.6,265.7Z"/><path class="cls-9" d="M239.38,264.38c-1.39,0-3.19-1-4.71-1.86-.41-.23-.78-.44-1.06-.57-1-.5-2.07-.95-3.12-1.41a42.57,42.57,0,0,1-6.12-3.05,35.88,35.88,0,0,1-3.36-2.66,47.46,47.46,0,0,0-6.25-4.75.61.61,0,0,1-.21-.85.62.62,0,0,1,.85-.21,48.51,48.51,0,0,1,6.41,4.87,35.07,35.07,0,0,0,3.23,2.56A41.58,41.58,0,0,0,231,259.4c1.07.47,2.14.93,3.17,1.43.3.15.69.37,1.13.61,1.3.73,3.72,2.1,4.53,1.61.27-.15.33-.62.33-1,0-1.58-2.6-4.29-4.4-5.56-.63-.45-1.32-.84-2-1.26a16.13,16.13,0,0,1-3.7-2.64l-.51-.53c-2.38-2.47-4.63-4.81-7.21-7.12a.62.62,0,0,1,.83-.93c2.61,2.35,4.88,4.7,7.27,7.19l.51.53a15.44,15.44,0,0,0,3.43,2.43c.72.41,1.45.84,2.14,1.32,1.27.9,4.92,4,4.92,6.58a2.17,2.17,0,0,1-.94,2A2.08,2.08,0,0,1,239.38,264.38Z"/><path class="cls-9" d="M200.83,241.8c-2.63,0-5.26-.2-7.84-.4l-3.14-.23-2.68-.14a53,53,0,0,1-9.33-1,.62.62,0,1,1,.29-1.2,52,52,0,0,0,9.1.95c.93.05,1.84.09,2.7.15,1,.06,2.1.14,3.16.23a66,66,0,0,0,11.76.2c1.18-.12,2.64-.36,4.2-.62,3.46-.56,7.39-1.21,9.87-.86a.61.61,0,0,1,.53.69.61.61,0,0,1-.7.53c-2.29-.3-6.12.32-9.5.87-1.57.25-3.06.5-4.27.62A38.19,38.19,0,0,1,200.83,241.8Z"/><path class="cls-9" d="M233.72,253.23a.62.62,0,0,1-.11-1.22c.71-.14.81-.32.81-.32.11-.34-1.09-1.6-1.74-2.27s-1.14-1.2-1.63-1.83c-1.81-2.33-3-3.52-7.09-5.91a.62.62,0,0,1,.61-1.07c4.33,2.5,5.54,3.75,7.46,6.22a22.39,22.39,0,0,0,1.55,1.73c1.31,1.38,2.35,2.46,2,3.51-.29.87-1.39,1.08-1.76,1.15Z"/><path class="cls-9" d="M235.59,256.27a.62.62,0,0,1-.48-.23c-.19-.25-19.12-24.35-21.45-27.53-.41-.56-.89-.59-1.19-.39s-.45.77,0,1.44c1.3,1.91,11.27,14.95,11.37,15.09a.61.61,0,0,1-.12.86.62.62,0,0,1-.87-.11c-.41-.54-10.08-13.2-11.4-15.14a2.19,2.19,0,0,1,.3-3.15,2.06,2.06,0,0,1,2.9.67c2.32,3.16,21.23,27.25,21.42,27.49a.62.62,0,0,1-.1.87A.63.63,0,0,1,235.59,256.27Z"/><path class="cls-9" d="M243.78,269.33a.58.58,0,0,1-.37-.13l-3.52-2.68-.1-.09L238,264.21a.61.61,0,0,1,.08-.87.62.62,0,0,1,.87.08l1.78,2.16,1.57,1.2-.92-2.1-.89-1.3a.61.61,0,0,1,.16-.86.62.62,0,0,1,.86.16l1,1.4,1.92,4.38a.62.62,0,0,1-.19.74A.58.58,0,0,1,243.78,269.33Z"/><path class="cls-9" d="M300.15,265.27c-1.36,0-2.46-.33-3-1.25a.62.62,0,1,1,1.08-.61c.33.58,1.74,1.29,7.6-.54l.23-.07a40.26,40.26,0,0,0,8.31-3.52c1-.55,3-2.59,3.09-3.7a4,4,0,0,0-.93-3.34,9.73,9.73,0,0,1-1.22-2.11A6.43,6.43,0,0,1,315,248a7.87,7.87,0,0,0-.13-1.2,5.5,5.5,0,0,0-1.32-2.2,12.5,12.5,0,0,1-1-1.4,13.66,13.66,0,0,1-1-2.43,8.29,8.29,0,0,0-1.49-3,4.91,4.91,0,0,0-2.57-1.22,9.35,9.35,0,0,1-2.06-.72,8.56,8.56,0,0,1-1.52-1.13,4.35,4.35,0,0,0-2.19-1.29c-2.1-.15-3.4,1.36-4.76,3l-.31.38-1.45,1.67c-2.12,2.42-4.31,4.93-5.54,7.89-.27.65-.52,1.3-.78,1.95a37,37,0,0,1-1.91,4.4c-.14.27-.31.57-.49.88-.85,1.52-2,3.6-1.56,4.7a1.59,1.59,0,0,0,1.18.82.64.64,0,0,1,.45.76.62.62,0,0,1-.76.44,2.77,2.77,0,0,1-2-1.53c-.71-1.67.59-4,1.63-5.8l.47-.85a40.29,40.29,0,0,0,1.85-4.26c.26-.67.51-1.33.78-2,1.31-3.15,3.57-5.74,5.76-8.23l1.43-1.66.31-.37c1.44-1.71,3.05-3.63,5.81-3.42a5.35,5.35,0,0,1,2.9,1.59,8.52,8.52,0,0,0,1.29,1,8.36,8.36,0,0,0,1.79.61,6,6,0,0,1,3.19,1.6,9.41,9.41,0,0,1,1.74,3.42,11.66,11.66,0,0,0,.91,2.21,11.46,11.46,0,0,0,.91,1.24,6.56,6.56,0,0,1,1.57,2.73,8.6,8.6,0,0,1,.16,1.38,5.05,5.05,0,0,0,.29,1.72,8.7,8.7,0,0,0,1.08,1.87,5.2,5.2,0,0,1,1.15,4.19c-.2,1.73-2.57,4-3.74,4.65a40.08,40.08,0,0,1-8.53,3.61l-.22.08A22.62,22.62,0,0,1,300.15,265.27Z"/><path class="cls-9" d="M288.73,263.82c-1.74,0-2.84-.47-3.35-1.41-.79-1.48.11-3.8,2.75-7.09,1-1.27,2.27-2.9,3.52-4.54s2.48-3.25,3.5-4.52a24.48,24.48,0,0,1,4-4c.95-.8,2-1.7,3.58-3.22a.61.61,0,0,1,.87,0,.62.62,0,0,1,0,.87c-1.58,1.55-2.68,2.48-3.66,3.29a23.66,23.66,0,0,0-3.8,3.79c-1,1.25-2.24,2.87-3.48,4.5s-2.51,3.28-3.53,4.56c-3.09,3.83-2.86,5.28-2.63,5.72.34.63,1.5.87,3.28.71a.63.63,0,0,1,.67.56.62.62,0,0,1-.56.67C289.46,263.8,289.08,263.82,288.73,263.82Z"/><path class="cls-9" d="M292.22,265.81a3.25,3.25,0,0,1-1.54-.33,2.33,2.33,0,0,1-1.22-1.8c-.25-1.7,1.89-3.61,3.62-5.15.44-.39.84-.75,1.13-1,.79-.81,1.55-1.68,2.29-2.52a45.08,45.08,0,0,1,3.43-3.63,50.73,50.73,0,0,1,7-5l1.09-.7a.63.63,0,0,1,.86.19.62.62,0,0,1-.19.85l-1.1.7a50.61,50.61,0,0,0-6.79,4.9,42.74,42.74,0,0,0-3.34,3.52c-.75.86-1.52,1.75-2.34,2.57-.3.32-.72.69-1.19,1.1-1.26,1.13-3.37,3-3.21,4.05a1,1,0,0,0,.56.88c1.07.56,3.39-.21,4.68-.85a42.92,42.92,0,0,0,4.59-2.93c1.21-.84,2.36-1.64,3.33-2.2,1.53-.9,2.48-1.53,3.39-2.15a50.92,50.92,0,0,1,4.72-2.86.62.62,0,0,1,.84.25.61.61,0,0,1-.25.84,50.6,50.6,0,0,0-4.62,2.8c-.93.63-1.89,1.27-3.46,2.18-.93.54-2.05,1.33-3.25,2.16a44.73,44.73,0,0,1-4.73,3A11.38,11.38,0,0,1,292.22,265.81Z"/><path class="cls-9" d="M281.38,258a2.43,2.43,0,0,1-2.18-.93c-.76-1.09-.3-2.82,1.3-4.87a19.06,19.06,0,0,0,2.56-4.15,5.64,5.64,0,0,1,1.11-1.8A17,17,0,0,1,287,244.2a21.65,21.65,0,0,0,4.71-3.67.62.62,0,0,1,.91.85,23,23,0,0,1-5,3.87,16.21,16.21,0,0,0-2.65,1.92,4.68,4.68,0,0,0-.86,1.44,20.19,20.19,0,0,1-2.7,4.4c-1.42,1.81-1.57,3-1.26,3.4s1.29.62,3.27,0a.63.63,0,0,1,.78.41.62.62,0,0,1-.41.77A8.43,8.43,0,0,1,281.38,258Z"/><path class="cls-9" d="M318.25,261.52a.62.62,0,0,1-.35-1.12,18.39,18.39,0,0,0,4.58-4.45c6.36-10.1-6.13-24.68-11.47-30.91l-1.22-1.42c-2.91-3.48-4.23-7-5.64-10.74a43.26,43.26,0,0,0-4.59-9.56c-5.11-7.56-10.06-15.47-17.07-27.29a152.16,152.16,0,0,0-16.21-22c-4.76-5.32-13.58-8.21-20.67-10.53-4-1.33-7.52-2.47-9.81-3.84a.62.62,0,1,1,.64-1.06c2.17,1.3,5.59,2.42,9.55,3.72,7.23,2.37,16.23,5.31,21.21,10.88a154.36,154.36,0,0,1,16.36,22.23c7,11.8,11.93,19.69,17,27.22a44.89,44.89,0,0,1,4.72,9.82c1.36,3.64,2.66,7.07,5.43,10.38.35.42.76.89,1.21,1.41,5.51,6.44,18.43,21.5,11.58,32.38a19.85,19.85,0,0,1-4.92,4.8A.66.66,0,0,1,318.25,261.52Z"/><path class="cls-9" d="M249.71,254.12h-.05a.62.62,0,0,1-.57-.67c.13-1.69.25-3.41.37-5.14.58-8.4,1.18-17.08,3.2-25.13.8-3.21,1.84-6.7,3.08-10.38l.3-.88c5.77-16.65,8.22-32.16,7.27-46.12a.62.62,0,0,1,1.24-.09c.95,14.13-1.52,29.81-7.34,46.62l-.3.87c-1.23,3.64-2.26,7.1-3.05,10.28-2,8-2.59,16.57-3.16,24.92-.12,1.73-.24,3.45-.37,5.15A.63.63,0,0,1,249.71,254.12Z"/><path class="cls-9" d="M206.32,277.25l-.62,0a51.41,51.41,0,0,1-7.09-2C193,273.45,185.24,271,178.92,270c-3-.47-5.94-.89-8.62-1.27-9.65-1.38-11.16-1.69-11.53-2.39a.89.89,0,0,1,0-.66c.83-1.64,19.4-5.8,27.6-6.17a.6.6,0,0,1,.64.59.62.62,0,0,1-.59.65c-8.22.37-22.16,3.77-25.78,5.17,1.79.43,5.87,1,9.85,1.58,2.68.39,5.63.81,8.63,1.28,6.41,1,14.19,3.46,19.87,5.26a60.16,60.16,0,0,0,6.81,1.94c1.87.13,8.76-.49,30.93-4.18,7.61-1.27,27.08-3.4,35.3-1.47a.62.62,0,1,1-.29,1.2c-7.32-1.72-25.1-.13-34.81,1.49C220.15,275.84,209.87,277.25,206.32,277.25Z"/><path class="cls-9" d="M207.81,279.51h-.24a60,60,0,0,1-8.1-2.09c-5-1.44-11.88-3.43-18.56-4.89a172.56,172.56,0,0,0-17.71-2.9l-1.56-.18c-3.47-.44-4.08-.83-4.12-1.52s.93-1.07,2-1.35l.45-.13a.62.62,0,0,1,1,.64c-.1.41-.42.49-1.1.68l-.3.08c.48.11,1.19.23,2.27.37l1.54.19a175.22,175.22,0,0,1,17.84,2.91c6.71,1.47,13.6,3.46,18.64,4.91a69.6,69.6,0,0,0,7.81,2c1.63.08,7.71-.84,14.78-1.9,5-.75,10.73-1.6,16-2.28,5.56-.71,12.14-1.15,17.94-1.53,7.14-.47,13.88-.91,15.41-1.72a.62.62,0,1,1,.58,1.09c-1.76.93-8,1.34-15.91,1.87-5.78.38-12.34.81-17.87,1.52-5.23.68-10.92,1.52-15.95,2.28C215.47,278.66,209.79,279.51,207.81,279.51Z"/><path class="cls-9" d="M272.23,271.55a.58.58,0,0,1-.37-.13c-2.85-2.16-22.29-13.56-25.79-14.26a35.9,35.9,0,0,0-9.47-.25.62.62,0,0,1-.66-.58.61.61,0,0,1,.57-.66,37.49,37.49,0,0,1,9.81.28c3.86.77,23.27,12.2,26.29,14.49a.62.62,0,0,1,.12.86A.63.63,0,0,1,272.23,271.55Z"/><path class="cls-9" d="M283.74,258.26h-.09c-5.89-.81-31.29-1.9-33.31-.47a.62.62,0,0,1-1.17-.4c.72-3.15,33-.59,34.65-.36a.63.63,0,0,1,.53.7A.61.61,0,0,1,283.74,258.26Z"/><path class="cls-9" d="M145.2,226.84a.6.6,0,0,1-.49-.24.62.62,0,0,1,.11-.87c2.42-1.88,3-7.3,3.56-13,.25-2.47.51-5,.93-7.51.18-1,.4-2.13.63-3.32,1.64-8.35,4.12-21-3.11-37.19a.62.62,0,1,1,1.13-.51c7.39,16.57,4.87,29.43,3.19,37.94-.23,1.17-.44,2.27-.61,3.29-.42,2.44-.68,5-.92,7.43-.64,6.28-1.2,11.7-4,13.9A.62.62,0,0,1,145.2,226.84Z"/><path class="cls-9" d="M282.57,244.57a.63.63,0,0,1-.47-.22,67.76,67.76,0,0,1-10.78-16c-2.55-5-6.37-9.81-9.44-13.66a43.14,43.14,0,0,1-4.35-6,.62.62,0,1,1,1.1-.56,44.63,44.63,0,0,0,4.22,5.77c3.1,3.89,7,8.72,9.57,13.86A66.46,66.46,0,0,0,283,243.54a.63.63,0,0,1-.07.88A.6.6,0,0,1,282.57,244.57Z"/><path class="cls-9" d="M277.59,272.21c-3,0-4.86-.17-5.6-.6a.62.62,0,1,1,.63-1.07c1.2.7,8.89.4,17,.07,2.39-.1,4.92-.2,7.52-.29,11.66-.39,23.68-.74,31.17-.42a.62.62,0,0,1,.59.64.66.66,0,0,1-.65.6c-7.44-.33-19.43,0-31.07.42-2.59.09-5.12.19-7.51.29C284.49,272.06,280.49,272.21,277.59,272.21Z"/><path class="cls-9" d="M272.19,271.76a.63.63,0,0,1-.41-.15.62.62,0,0,1-.06-.88c1.7-2,15.76-3.55,27.32-3.75,5.51-.08,17.16,1.41,24.86,2.41l3.45.44a87.53,87.53,0,0,0-16.28-7.36.62.62,0,0,1,.4-1.18c4.49,1.54,18.43,7.24,18,9.27-.17.75-1.13.63-1.45.59-1.14-.13-2.59-.32-4.24-.54-7.66-1-19.28-2.49-24.67-2.39-13.86.24-25.4,2.15-26.42,3.33A.6.6,0,0,1,272.19,271.76Z"/><path class="cls-9" d="M190.35,134.7a.64.64,0,0,1-.5-.25A70,70,0,0,1,183,122.89a.62.62,0,0,1,1.14-.49,69.6,69.6,0,0,0,6.73,11.31.62.62,0,0,1-.13.87A.63.63,0,0,1,190.35,134.7Z"/><path class="cls-9" d="M185,123.58h-.07c-3.74-.4-7.78-4.62-7.6-10,.08-2.64,1.05-4.54,2.64-5.21s3.25-.09,4.91,1.43a.62.62,0,1,1-.84.91c-1.28-1.18-2.59-1.61-3.59-1.19s-1.82,2-1.89,4.1c-.15,4.61,3.31,8.43,6.51,8.77a.62.62,0,0,1-.07,1.23Z"/><path class="cls-9" d="M230.34,125a.62.62,0,0,1-.49-.24.63.63,0,0,1,.12-.87,14.46,14.46,0,0,0,4.28-6.78c.7-2.25.66-4-.11-4.79a1.57,1.57,0,0,0-1.62-.24.62.62,0,1,1-.38-1.17,2.71,2.71,0,0,1,2.87.53c1.13,1.12,1.28,3.26.42,6a15.36,15.36,0,0,1-4.71,7.4A.58.58,0,0,1,230.34,125Z"/><path class="cls-9" d="M212.46,119a.63.63,0,0,1-.62-.54,7.89,7.89,0,0,1,.9-4.59.61.61,0,0,1,.83-.28.62.62,0,0,1,.28.83,6.65,6.65,0,0,0-.78,3.88.61.61,0,0,1-.53.69Z"/><path class="cls-9" d="M184.23,118a.63.63,0,0,1-.6-.45A5.76,5.76,0,0,0,181,114.2a.61.61,0,0,1-.27-.83.62.62,0,0,1,.83-.27,6.91,6.91,0,0,1,3.29,4.08.62.62,0,0,1-.43.76Z"/><path class="cls-9" d="M188.62,137.81a.61.61,0,0,1-.61-.6,62.47,62.47,0,0,0-2-12.29.62.62,0,1,1,1.2-.32,63.22,63.22,0,0,1,2,12.58.61.61,0,0,1-.6.63Z"/><path class="cls-9" d="M231.06,117.12a.44.44,0,0,1-.16,0,.62.62,0,0,1-.43-.76,85.53,85.53,0,0,0,1.37-13.58.61.61,0,0,1,.62-.62.63.63,0,0,1,.62.63,85.21,85.21,0,0,1-1.42,13.9A.61.61,0,0,1,231.06,117.12Z"/><path class="cls-9" d="M175.26,93.07a.62.62,0,0,1-.16-1.22c2.16-.58,2.48-2.8,2.86-6.67a26.79,26.79,0,0,1,1.71-8.12c2.78-6.46,11.38-10.56,15.77-8.91a.62.62,0,0,1,.37.79.63.63,0,0,1-.8.37c-3.45-1.3-11.52,2-14.21,8.24a25.84,25.84,0,0,0-1.6,7.75c-.37,3.71-.69,6.92-3.78,7.75Z"/><path class="cls-9" d="M179.63,109.19a.62.62,0,0,1-.61-.49c-.07-.35-1.71-8.63-1.45-11.51a.62.62,0,1,1,1.23.11c-.24,2.7,1.42,11.07,1.43,11.16a.61.61,0,0,1-.48.72Z"/><path class="cls-9" d="M185.37,102.1a11.61,11.61,0,0,1-1.62-.11.62.62,0,0,1,.17-1.23c5.46.76,7.22-2.73,9.25-6.76,1.87-3.71,3.79-7.55,8.9-7.79a.61.61,0,0,1,.65.59.63.63,0,0,1-.59.65c-4.38.2-6.07,3.55-7.85,7.1C192.41,98.27,190.48,102.1,185.37,102.1Z"/><path class="cls-9" d="M233,99.46c-8.54,0-12.21-4.77-15.17-8.61-2.54-3.29-4.37-5.67-8.32-4.34a.62.62,0,1,1-.39-1.17c4.78-1.62,7.17,1.48,9.69,4.76,3,3.89,6.43,8.3,14.7,8.11a.62.62,0,0,1,0,1.24Z"/><path class="cls-9" d="M235,109h-.12a.62.62,0,0,1-.49-.72c.47-2.49,1-4.84,1.49-7.11,2.36-10.62,4.06-18.3-3.63-23.37a.62.62,0,0,1,.69-1c8.39,5.53,6.52,14,4.15,24.67-.5,2.26-1,4.6-1.48,7.07A.62.62,0,0,1,235,109Z"/><path class="cls-9" d="M185.23,107.38a.62.62,0,0,1-.61-.54.61.61,0,0,1,.53-.69c1.46-.19,3.67-2.28,4.89-4.1a.62.62,0,0,1,1,.69c-1.1,1.64-3.63,4.36-5.76,4.64Z"/><path class="cls-9" d="M202.6,81.76a.62.62,0,0,1-.61-.53,16.31,16.31,0,0,0-4-8.64.62.62,0,0,1,0-.87.62.62,0,0,1,.88,0,17.55,17.55,0,0,1,4.34,9.31.62.62,0,0,1-.52.7Z"/><path class="cls-9" d="M205.43,86.55a.62.62,0,0,1-.62-.62c0-3,3.32-4.93,5.71-5.17a.62.62,0,0,1,.13,1.24c-1.88.19-4.61,1.69-4.61,3.93A.61.61,0,0,1,205.43,86.55Z"/><path class="cls-9" d="M233.55,73.84c-4.07,0-7.68-2.93-10.88-5.52-2.22-1.8-4.32-3.51-6.33-4.11a16.09,16.09,0,0,0-6.26-.31A19.23,19.23,0,0,0,206,65l-.62.22a16.48,16.48,0,0,0-4.89,2.55.62.62,0,0,1-.76-1A17.91,17.91,0,0,1,205,64l.61-.21A20.49,20.49,0,0,1,210,62.67a16.93,16.93,0,0,1,6.74.36c2.25.67,4.44,2.45,6.76,4.33,3.29,2.66,6.68,5.41,10.45,5.23a.62.62,0,0,1,.06,1.24Z"/><path class="cls-9" d="M190.73,122a1,1,0,0,0-.51.12,1.44,1.44,0,0,0-.52,1.08,7.43,7.43,0,0,0,.6,3,12.3,12.3,0,0,1,.54,1.92,20.92,20.92,0,0,1,.15,3.13c0,2,0,4.16,1,5.61a8.57,8.57,0,0,0,1.77,1.67,13.25,13.25,0,0,1,1.37,1.15c5.86,5.86,11.11,8.18,16.05,7.08s10.07-5.13,13.4-8c2.39-2.08,3-4.4,3.89-7.59.3-1.1.64-2.35,1.09-3.71.37-1.11.4-1.88.11-2.31-.48-.68-2-.75-3.64-.82a17.8,17.8,0,0,1-4.21-.51,18.41,18.41,0,0,1-4.73-2.23c-1.79-1.06-3.32-2-5.43-1.86a16.17,16.17,0,0,0-4.15,1.24,23.82,23.82,0,0,1-2.44.87c-3.59,1-8.83,2.1-12.93.56A4.32,4.32,0,0,0,190.73,122Zm18.07,26.25c-4.57,0-9.34-2.54-14.51-7.7a12,12,0,0,0-1.25-1.06,9.62,9.62,0,0,1-2-1.92c-1.26-1.77-1.26-4.09-1.26-6.33a19.25,19.25,0,0,0-.14-2.93,12.74,12.74,0,0,0-.49-1.73,8.09,8.09,0,0,1-.66-3.58,2.54,2.54,0,0,1,1.13-2,3.65,3.65,0,0,1,3,.14c3.76,1.42,8.74.34,12.17-.59.65-.18,1.46-.5,2.31-.83a17,17,0,0,1,4.52-1.33c2.48-.14,4.27.92,6.14,2a13.8,13.8,0,0,0,8.37,2.57c2,.08,3.77.15,4.59,1.35.54.77.56,1.88.06,3.4-.44,1.33-.78,2.56-1.07,3.64-.9,3.28-1.61,5.87-4.28,8.21-3.42,3-8.6,7.12-13.94,8.31A12.18,12.18,0,0,1,208.8,148.29Z"/><path class="cls-9" d="M189.85,122.24a.62.62,0,0,1-.59-.43c0-.06-1.92-5.81-3.64-9.54a.64.64,0,0,1,.31-.83.62.62,0,0,1,.82.31c1.75,3.8,3.67,9.62,3.68,9.67a.61.61,0,0,1-.58.82Z"/><path class="cls-9" d="M314.4,262.71a10.27,10.27,0,0,1-2.77-.41.62.62,0,0,1-.42-.77.6.6,0,0,1,.76-.42c2.58.74,4.8.36,6.27-1.06,1.74-1.69,2.2-4.73,1.27-8.35-1.73-6.7-4.25-8.72-6.93-10.86-.46-.38-.94-.76-1.41-1.16a.63.63,0,0,1-.07-.88.62.62,0,0,1,.87-.06l1.39,1.13c2.71,2.17,5.52,4.42,7.35,11.53,1.06,4.11.49,7.5-1.61,9.54A6.62,6.62,0,0,1,314.4,262.71Z"/><path class="cls-9" d="M239.62,178a.61.61,0,0,1-.6-.51,115.26,115.26,0,0,0-2.94-12.66.62.62,0,1,1,1.18-.36,111.39,111.39,0,0,1,3,12.81.61.61,0,0,1-.5.71Z"/><path class="cls-9" d="M242,216.09a.63.63,0,0,1-.47-.22.62.62,0,0,1,.07-.87,4.83,4.83,0,0,0,.16-1.82v-.69a211.47,211.47,0,0,0-2.09-31,.62.62,0,0,1,1.23-.19A213.26,213.26,0,0,1,243,212.5v.67c0,1.21,0,2.25-.6,2.77A.6.6,0,0,1,242,216.09Z"/><path class="cls-9" d="M235.8,177.07a.61.61,0,0,1-.61-.51A92.12,92.12,0,0,0,232.65,166a.62.62,0,0,1,.41-.78.62.62,0,0,1,.77.41,92.63,92.63,0,0,1,2.58,10.74.62.62,0,0,1-.5.72Z"/><path class="cls-9" d="M238.66,216.2a.57.57,0,0,1-.43-.19c-.55-.59-.52-1.79-.5-3.18v-.73a230.62,230.62,0,0,0-1.26-26.69.63.63,0,0,1,.55-.69.61.61,0,0,1,.68.55A233,233,0,0,1,239,212.1v.75a6.87,6.87,0,0,0,.17,2.32.64.64,0,0,1-.07.88A.63.63,0,0,1,238.66,216.2Z"/><path class="cls-9" d="M171.85,171.49h0a.62.62,0,0,1-.56-.67c.2-2.46.49-4.88.86-7.19a.62.62,0,0,1,1.22.2c-.36,2.27-.65,4.66-.85,7.09A.62.62,0,0,1,171.85,171.49Z"/><path class="cls-9" d="M238.74,223.87h-.2a8.47,8.47,0,0,0-5.6,14.59,8.33,8.33,0,0,0,6,2.33,8.47,8.47,0,0,0,5.6-14.58A8.33,8.33,0,0,0,238.74,223.87Zm0,18.17a9.53,9.53,0,0,1-6.65-2.69A9.64,9.64,0,1,1,239,242Z"/><path class="cls-9" d="M239.22,227h-.1a4.44,4.44,0,0,0-4.31,4.55,4.43,4.43,0,0,0,1.37,3.12,4.28,4.28,0,0,0,3.15,1.23,4.37,4.37,0,0,0,3.09-1.38,4.45,4.45,0,0,0-3.2-7.52Zm0,10.14a5.59,5.59,0,0,1-3.9-1.58,5.71,5.71,0,0,1-.19-8,5.62,5.62,0,0,1,4-1.76,5.67,5.67,0,0,1,5.79,5.56,5.67,5.67,0,0,1-5.52,5.81Z"/><path class="cls-9" d="M181.84,239.25a.62.62,0,0,1-.15-1.23,9,9,0,0,0,4.19-2.76c1.79-2.23,2.44-5.63,2.16-11.36a171.41,171.41,0,0,0-1.83-17.67.62.62,0,1,1,1.22-.18,170.89,170.89,0,0,1,1.85,17.79c.29,6.06-.44,9.71-2.43,12.19a10.17,10.17,0,0,1-4.85,3.2Z"/><path class="cls-9" d="M160.19,205.2a.63.63,0,0,1-.57-.39c-.47-1.17-.1-3.66.46-7.05.15-.86.28-1.67.37-2.34,1.37-10.33,2.7-18.45,3.31-20.22.7-2,2.59-3.52,5.33-4.24,4.07-1.07,9-.24,11.47,1.93a.63.63,0,0,1,.05.88.62.62,0,0,1-.87,0c-2.15-1.9-6.69-2.63-10.34-1.66-2.32.61-3.91,1.83-4.47,3.45s-1.91,9.88-3.25,20c-.09.69-.23,1.51-.37,2.38-.39,2.3-.92,5.45-.54,6.39a.61.61,0,0,1-.35.8A.59.59,0,0,1,160.19,205.2Z"/><path class="cls-9" d="M187.06,206.54a.58.58,0,0,1-.19,0,.62.62,0,0,1-.4-.78c.27-.84-.37-4-.8-6.16-.14-.73-.28-1.42-.38-2a.62.62,0,1,1,1.22-.22c.1.57.23,1.25.38,2,.66,3.3,1.1,5.71.76,6.78A.63.63,0,0,1,187.06,206.54Z"/><path class="cls-9" d="M160.37,234.42a.61.61,0,0,1-.41-.15c-2.38-2.11-3.16-5.78-2.54-11.87.24-2.31.64-5.17,1.15-8.79.36-2.55.77-5.46,1.2-8.74a.61.61,0,0,1,.69-.54.63.63,0,0,1,.54.7c-.43,3.28-.84,6.2-1.21,8.76-.5,3.6-.9,6.45-1.14,8.73-.57,5.59.11,9,2.13,10.82a.62.62,0,0,1-.41,1.08Z"/><path class="cls-9" d="M180.53,236.93a.61.61,0,0,1-.61-.57.62.62,0,0,1,.57-.67c2.69-.21,5.74-1.56,5.46-10.21a182.11,182.11,0,0,0-2-19.34.62.62,0,0,1,1.23-.19,185.22,185.22,0,0,1,2,19.49c.24,7.46-1.86,11.11-6.61,11.49Z"/><path class="cls-9" d="M163,205.53a.57.57,0,0,1-.39-.14.62.62,0,0,1-.09-.87c.41-.49.47-1.5.58-3.34,0-.71.1-1.55.18-2.54a161.89,161.89,0,0,1,2.9-20.54,5,5,0,0,1,2.7-3.07,9.57,9.57,0,0,1,7.4,0,.61.61,0,1,1-.46,1.14,8.43,8.43,0,0,0-6.4,0,3.67,3.67,0,0,0-2,2.31,163.61,163.61,0,0,0-2.86,20.29c-.08,1-.13,1.8-.17,2.5-.13,2.17-.2,3.25-.86,4.06A.61.61,0,0,1,163,205.53Z"/><path class="cls-9" d="M184.32,206.52a.58.58,0,0,1-.44-.21c-.49-.56-.72-2.12-1.11-5.3-.12-1-.23-2-.36-2.69l-.78-4.45a.62.62,0,0,1,.5-.72.62.62,0,0,1,.72.51l.78,4.45c.13.75.25,1.73.37,2.75a23.29,23.29,0,0,0,.82,4.65.64.64,0,0,1-.1.87A.67.67,0,0,1,184.32,206.52Z"/><path class="cls-9" d="M168.47,236h-.09c-4.87-.68-9.74-2.61-8.89-11.73.33-3.56,1.24-10.74,2.32-19.06a.61.61,0,0,1,.69-.53.62.62,0,0,1,.54.69c-1.08,8.31-2,15.48-2.32,19-.78,8.47,3.63,9.8,7.83,10.4a.61.61,0,0,1,.53.7A.62.62,0,0,1,168.47,236Z"/><path class="cls-9" d="M171.72,236.79h-.11a.61.61,0,0,1-.49-.72,2.68,2.68,0,0,0,0-1.09c-.08-.26-.25-.71-.52-.76s-1,.37-1.43.82a2,2,0,0,1,.11.48.62.62,0,0,1-.55.68.59.59,0,0,1-.68-.55,1.07,1.07,0,0,0-.12-.37.63.63,0,0,1,0-.75c.25-.3,1.56-1.8,2.88-1.53a2,2,0,0,1,1.46,1.61,3.71,3.71,0,0,1,0,1.69A.6.6,0,0,1,171.72,236.79Z"/><path class="cls-9" d="M177.18,237.49a.62.62,0,0,1-.61-.59c-.09-1.52.27-3.25,1.5-3.56,1.75-.44,3,1.91,3.15,2.18a.61.61,0,0,1-.26.83.63.63,0,0,1-.84-.27c-.28-.54-1.11-1.7-1.75-1.54-.28.07-.64.93-.57,2.29a.62.62,0,0,1-.58.66Z"/><path class="cls-9" d="M180.64,238.85a.61.61,0,0,1-.34-.1,1.92,1.92,0,0,1-.79-1.26,2.42,2.42,0,0,1,.65-1.92.62.62,0,0,1,1,.78,1.37,1.37,0,0,0-.39.94.67.67,0,0,0,.26.43.62.62,0,0,1,.16.86A.64.64,0,0,1,180.64,238.85Z"/><path class="cls-9" d="M183.16,199.8a.61.61,0,0,1-.61-.52,29.2,29.2,0,0,0-1.56-5.91.62.62,0,0,1,.34-.81.63.63,0,0,1,.81.34,30.73,30.73,0,0,1,1.63,6.18.62.62,0,0,1-.52.71Z"/><path class="cls-9" d="M163.83,200.14h-.12a.63.63,0,0,1-.49-.73c1.69-8.39,5.78-12.74,7.5-13.53a6.28,6.28,0,0,1,5.18-.07.61.61,0,0,1,.33.81.61.61,0,0,1-.81.33,5,5,0,0,0-4.18.06c-1.47.67-5.23,4.79-6.8,12.64A.63.63,0,0,1,163.83,200.14Z"/><path class="cls-9" d="M184.48,206.53a.61.61,0,0,1-.59-.43.63.63,0,0,1,.4-.78,3.2,3.2,0,0,0,.43-.17,2.35,2.35,0,0,1,2.48.06.62.62,0,0,1,.24.84.63.63,0,0,1-.85.24,1.17,1.17,0,0,0-1.35,0,3.57,3.57,0,0,1-.57.23Z"/><path class="cls-9" d="M162.77,205.43a.63.63,0,0,1-.33-.09,2.28,2.28,0,0,0-2.07-.24.62.62,0,1,1-.35-1.18,3.49,3.49,0,0,1,3.07.36.63.63,0,0,1,.2.86A.61.61,0,0,1,162.77,205.43Z"/><path class="cls-9" d="M241.43,223.91h-.08a.63.63,0,0,1-.54-.7,66.89,66.89,0,0,0,.34-6.89l0-1.31a.6.6,0,0,1,.63-.61.63.63,0,0,1,.61.63l0,1.31c0,2.26-.09,5.08-.35,7A.62.62,0,0,1,241.43,223.91Z"/><path class="cls-9" d="M238.63,223.45h-.07a.62.62,0,0,1-.55-.68,68.2,68.2,0,0,0,.21-7.39.63.63,0,0,1,.61-.64.66.66,0,0,1,.63.6,68.58,68.58,0,0,1-.22,7.56A.62.62,0,0,1,238.63,223.45Z"/><path class="cls-9" d="M242.09,215.71a.62.62,0,0,1-.59-.42s-.05-.14-.28-.21a3.06,3.06,0,0,0-1.93.36.61.61,0,0,1-.87-.07.63.63,0,0,1,.08-.88,4.12,4.12,0,0,1,3.06-.6,1.58,1.58,0,0,1,1.11,1,.63.63,0,0,1-.38.79Z"/><path class="cls-9" d="M208,241a.61.61,0,0,1-.62-.6c-.39-14.72-2.7-28.55-4.15-32.48a58.28,58.28,0,0,0-5.49-10.35,66.4,66.4,0,0,1-5.17-9.45c-2.62-6.34-5.92-15.63-8.18-31.41-1-6.76-1-12.39-.18-16.76a15.63,15.63,0,0,1,3.34-7.33.62.62,0,0,1,.94.8,14.45,14.45,0,0,0-3.06,6.77c-.82,4.23-.76,9.73.19,16.35,2.23,15.64,5.5,24.84,8.09,31.11a65.65,65.65,0,0,0,5.08,9.27,59.61,59.61,0,0,1,5.6,10.57c1.48,4,3.83,18,4.23,32.88a.63.63,0,0,1-.61.63Z"/><path class="cls-9" d="M206.68,221.74h-.12a.62.62,0,0,1-.48-.74,115.43,115.43,0,0,1,5.84-18.8c1.5-4,3.06-8.14,4.69-13.33a114,114,0,0,0,4.54-46.49.62.62,0,0,1,.55-.68.63.63,0,0,1,.69.55,115.41,115.41,0,0,1-4.6,47c-1.64,5.22-3.2,9.37-4.71,13.39a114.58,114.58,0,0,0-5.79,18.63A.62.62,0,0,1,206.68,221.74Z"/><path class="cls-9" d="M182.83,170.57a.62.62,0,0,1-.6-.43s-.57-1.39-4.38-3.7a29.11,29.11,0,0,0-5-2.21c-3-1.11-5.59-2.06-5.16-4.16.28-1.44,1.58-3.12,3.22-5.25a53.68,53.68,0,0,0,4.84-7.12c.81-1.49,1.54-3.07,2.32-4.75,2.25-4.88,4.58-9.93,8.9-12.58a.62.62,0,0,1,.85.21.61.61,0,0,1-.21.85c-4,2.45-6.24,7.33-8.42,12-.75,1.62-1.52,3.3-2.35,4.82a55,55,0,0,1-4.95,7.28c-1.54,2-2.76,3.59-3,4.74s2,1.89,4.38,2.75a31,31,0,0,1,5.24,2.32c4.28,2.59,4.87,4.22,4.93,4.4a.62.62,0,0,1-.41.77A.58.58,0,0,1,182.83,170.57Z"/><path class="cls-9" d="M226.65,170.08a.67.67,0,0,1-.42-.16.63.63,0,0,1,0-.88c2.93-3.24,6.61-4.22,9-4.88l.47-.12c.7-.19,1.47-.34,2.21-.48,1.67-.32,3.41-.65,4.08-1.47.37-.46-1.39-2.75-2.56-4.26a40.52,40.52,0,0,1-3.6-5.22,39.28,39.28,0,0,1-2.09-4.71,57.71,57.71,0,0,0-6-11.77.62.62,0,0,1,.18-.86.63.63,0,0,1,.86.19,58.8,58.8,0,0,1,6.13,12,39.44,39.44,0,0,0,2,4.57,40.5,40.5,0,0,0,3.5,5c2.05,2.66,3.53,4.59,2.54,5.8s-2.83,1.53-4.81,1.91c-.72.13-1.46.27-2.11.45l-.48.13c-2.29.61-5.76,1.54-8.44,4.51A.6.6,0,0,1,226.65,170.08Z"/><path class="cls-9" d="M205.76,217.26a.62.62,0,0,1-.53-.29c-3.6-5.87-11.35-12.26-16.48-16.5-1.27-1.05-2.39-2-3.26-2.73-3.86-3.38-11.78-12.83-14.38-15.93l-.72-.87s-1.5-1.83-.79-2.95a4.54,4.54,0,0,1,2.46-1.43c.29-.1.56-.19.76-.28.76-.36,1.51-.68,2.25-1a42.9,42.9,0,0,0,5-2.46c1.77-1.06,3.06-3.67,4.19-6,.46-.92.88-1.78,1.32-2.51a.62.62,0,0,1,.85-.21.63.63,0,0,1,.21.85c-.41.68-.83,1.52-1.27,2.42-1.2,2.45-2.58,5.22-4.66,6.47a44.36,44.36,0,0,1-5.14,2.53c-.74.33-1.48.65-2.22,1a8.6,8.6,0,0,1-.89.33,4.1,4.1,0,0,0-1.81.92,2.91,2.91,0,0,0,.68,1.5l.73.86c2.59,3.09,10.45,12.48,14.24,15.8.86.75,2,1.67,3.24,2.71,5.19,4.28,13,10.76,16.75,16.8a.61.61,0,0,1-.21.85A.62.62,0,0,1,205.76,217.26Z"/><path class="cls-9" d="M206.83,222.27a.6.6,0,0,1-.31-.08.62.62,0,0,1-.22-.85c3.63-6.08,8.68-11.16,13.55-16.07,4-4,7.8-7.86,10.56-12,3.75-5.6,7.15-9.75,8.78-11.74.48-.58.81-1,.94-1.17l.17-.23c.74-1,.75-1.26.72-1.34a11,11,0,0,0-4.84-1.64,17.08,17.08,0,0,1-3.72-.95c-4.15-1.72-8.35-7.74-10.49-12.6a.62.62,0,0,1,.31-.82.63.63,0,0,1,.82.32c2.11,4.79,6.17,10.44,9.84,12a16.37,16.37,0,0,0,3.46.87,12,12,0,0,1,5.35,1.86,1.21,1.21,0,0,1,.5.83,3.5,3.5,0,0,1-1,2.26l-.14.19c-.15.2-.49.63-1,1.25A145.22,145.22,0,0,0,231.43,194c-2.82,4.2-6.65,8.06-10.7,12.14C215.91,211,210.92,216,207.37,222A.62.62,0,0,1,206.83,222.27Z"/><path class="cls-9" d="M207,219.57l-.15,0a.61.61,0,0,1-.45-.75c1.38-5.34.84-11.73.15-19.83-.39-4.61-.83-9.83-.95-15.55,0-1.51-.05-3-.08-4.34-.21-12.55-.32-19.47-4.86-23.63-.92-.84-1.88-1.63-2.8-2.39a31.25,31.25,0,0,1-3.89-3.56,26.1,26.1,0,0,1-6.32-16.6.62.62,0,1,1,1.23,0,24.85,24.85,0,0,0,6,15.79,30.56,30.56,0,0,0,3.74,3.42c.93.77,1.9,1.56,2.84,2.43,4.94,4.52,5.06,11.62,5.27,24.52,0,1.38.05,2.82.08,4.34.12,5.68.56,10.88.95,15.47.69,8.21,1.24,14.7-.19,20.24A.61.61,0,0,1,207,219.57Z"/><path class="cls-9" d="M205.86,170a.61.61,0,0,1-.4-.14.62.62,0,0,1-.08-.87,17.86,17.86,0,0,0,3.8-8.09,14.72,14.72,0,0,1,2.06-5.27,21.63,21.63,0,0,1,3.51-3.66c2.4-2.14,4.87-4.36,5.88-8.6a.62.62,0,0,1,.75-.45.61.61,0,0,1,.46.74c-1.1,4.62-3.84,7.07-6.26,9.24a19.87,19.87,0,0,0-3.32,3.44,13.43,13.43,0,0,0-1.88,4.85,19.09,19.09,0,0,1-4,8.59A.62.62,0,0,1,205.86,170Z"/><path class="cls-9" d="M192.38,166.66a1.88,1.88,0,0,1-.81-.18c-1.17-.56-1.76-2.23-2.65-4.76a52.21,52.21,0,0,0-2.48-6.13c-2.84-5.78-2.43-9.74-1.91-14.75.08-.8.17-1.64.24-2.51a.61.61,0,0,1,.67-.57.62.62,0,0,1,.57.67c-.08.89-.16,1.73-.25,2.54-.5,4.81-.89,8.62,1.79,14.07a56.55,56.55,0,0,1,2.54,6.26c.73,2.08,1.31,3.72,2,4.06a.84.84,0,0,0,.69,0c.83-.3,1.6-1.71,2.43-3.21,1.46-2.66,3.28-6,6.95-6.25a.59.59,0,0,1,.66.56.62.62,0,0,1-.57.67c-3,.23-4.57,3.1-6,5.62-1,1.78-1.82,3.32-3.09,3.78A2.52,2.52,0,0,1,192.38,166.66Z"/><path class="cls-9" d="M219.26,165.81a1.49,1.49,0,0,1-.73-.2c-1.1-.6-1.74-2.16-2.41-3.8C215,159,214,157,211.83,157.21a.6.6,0,0,1-.69-.54.62.62,0,0,1,.54-.69c3.23-.38,4.54,2.8,5.59,5.36.56,1.37,1.14,2.79,1.85,3.18,0,0,.13.07.16,0,.65-.33,1.08-3.54,1.4-5.88a44.32,44.32,0,0,1,1.17-6.42.62.62,0,0,1,.77-.41.61.61,0,0,1,.42.77,43.29,43.29,0,0,0-1.13,6.22c-.54,4-.9,6.23-2.07,6.82A1.21,1.21,0,0,1,219.26,165.81Z"/><path class="cls-9" d="M175.28,171.18a.62.62,0,0,1-.62-.62,31.91,31.91,0,0,1,.74-5.73.62.62,0,0,1,1.22.24,30.44,30.44,0,0,0-.72,5.49A.62.62,0,0,1,175.28,171.18Z"/><path class="cls-9" d="M172.91,259.84a2.29,2.29,0,0,1-2-1c-1.45-2.11,0-6.92.74-8.06,2.41-3.79,7.75-8.63,15.54-10.87a.62.62,0,1,1,.34,1.19c-9.62,2.76-14,9.1-14.84,10.35-.63,1-1.76,5.23-.76,6.68.18.27.53.59,1.45.4a.62.62,0,0,1,.25,1.22A4.37,4.37,0,0,1,172.91,259.84Z"/><path class="cls-9" d="M171.08,260.23c-.56,0-1.15,0-1.79,0l-1.3,0c-4.88,0-12.75-.28-15.59-.51a.62.62,0,0,1,.1-1.23c2.82.23,10.64.48,15.49.5l1.34,0c1.38.05,4.25.14,4.64-.43a.62.62,0,1,1,1,.7C174.43,260,173,260.23,171.08,260.23Z"/><path class="cls-9" d="M351.86,254.47h0l-27.16-.28a.62.62,0,0,1-.62-.62.63.63,0,0,1,.62-.62h0l27.16.28a.64.64,0,0,1,.62.63A.62.62,0,0,1,351.86,254.47Z"/><path class="cls-9" d="M244.29,269.35h-.15a.62.62,0,0,1-.6-.64.64.64,0,0,1,.64-.6A11.6,11.6,0,0,0,246,268a12.61,12.61,0,0,0,2.3-.64c.5-.18,1-.36,1.54-.5a2.26,2.26,0,0,1,1.39.23l.25.1,0,0a1.41,1.41,0,0,1,.95-.56,4.77,4.77,0,0,1,1.7.31,12,12,0,0,0,1.21.29,1.1,1.1,0,0,1,.23-1.3,1.43,1.43,0,0,1,1.29-.22,2.76,2.76,0,0,1,1.76,1.42.63.63,0,0,1-.36.8.62.62,0,0,1-.8-.36,1.55,1.55,0,0,0-.74-.6l-.17-.06,0,.05c.11.28.39.95-.2,1.31s-1.64.13-2.58-.14a5.23,5.23,0,0,0-1.23-.27.83.83,0,0,0-.14.13,1.42,1.42,0,0,1-.55.44,1.55,1.55,0,0,1-1.12-.16,2.08,2.08,0,0,0-.61-.19c-.51.14-1,.31-1.45.47a13.68,13.68,0,0,1-2.53.71A12.62,12.62,0,0,1,244.29,269.35Z"/><path class="cls-9" d="M316.56,267.05a.61.61,0,0,1-.53-.3,5.56,5.56,0,0,0-1.43-1.11.71.71,0,0,1-.05.4c-.27.59-.75.39-1.8,0-.35-.14-1-.39-1.24-.46a1,1,0,0,1-.64.73,1.54,1.54,0,0,1-1.27-.29,2.45,2.45,0,0,0-.38-.18c-1.18-.05-4.8.32-4.83.32a.61.61,0,0,1-.68-.55.61.61,0,0,1,.55-.68c.15,0,3.74-.36,5-.33a2.18,2.18,0,0,1,.93.34l.17.1a1,1,0,0,1,1-.71,4.78,4.78,0,0,1,1.71.52,1.33,1.33,0,0,1,0-.19.8.8,0,0,1,.4-.39c1.1-.45,3.23,1.34,3.55,1.88a.63.63,0,0,1-.22.85A.61.61,0,0,1,316.56,267.05Z"/><path class="cls-9" d="M277.22,267.06a5.62,5.62,0,0,1-1.63-.39,4.66,4.66,0,0,0-1.66-.37.61.61,0,0,1-.87-.1.63.63,0,0,1,.1-.87c.69-.55,1.77-.18,2.82.17.26.09.61.2.87.27a.82.82,0,0,1,.13-.4c.27-.43.85-.52,1.62-.53a5.2,5.2,0,0,1,1.33.22,3.4,3.4,0,0,1,2.15-.55,4.65,4.65,0,0,0,1.43,0,8.8,8.8,0,0,1,2.81.14.62.62,0,0,1,.51.71.61.61,0,0,1-.71.51,7.58,7.58,0,0,0-2.48-.13,6,6,0,0,1-1.74,0,2,2,0,0,0-1.25.33.79.79,0,0,1-.52.43.65.65,0,0,1-.7-.25l0,0a3.33,3.33,0,0,0-.77-.14l-.43,0a.71.71,0,0,1-.1.53A1,1,0,0,1,277.22,267.06Z"/><path class="cls-9" d="M270.9,263.45h0a11.93,11.93,0,0,1-2.41-.37,10.47,10.47,0,0,0-2.7-.38.65.65,0,0,1-.64-.59.62.62,0,0,1,.6-.64,11.88,11.88,0,0,1,3,.4,10.47,10.47,0,0,0,2.16.34,2.27,2.27,0,0,0,.84-.38,3.87,3.87,0,0,1,1.51-.6,2,2,0,0,1,1.12.27c.13.06.29.15.37.13a1.09,1.09,0,0,0,.4-.26,1.93,1.93,0,0,1,1.38-.55,2.63,2.63,0,0,1,1.14.45,1.43,1.43,0,0,0,.64.27,4.61,4.61,0,0,0,1-.17,5.31,5.31,0,0,1,1.83-.23.62.62,0,0,1,.57.67.64.64,0,0,1-.68.57,4.15,4.15,0,0,0-1.42.19,5.74,5.74,0,0,1-1.35.21,2.54,2.54,0,0,1-1.25-.45,1.78,1.78,0,0,0-.61-.28,1,1,0,0,0-.49.28,1.89,1.89,0,0,1-1.14.54,2.28,2.28,0,0,1-.93-.25,1,1,0,0,0-.49-.15,2.73,2.73,0,0,0-1,.44A3.18,3.18,0,0,1,270.9,263.45Z"/><path class="cls-10" d="M259.45,109.22a7,7,0,0,1-3.85-3.35,3.79,3.79,0,0,1-.54-3.56,1.33,1.33,0,0,1,1.71.52,10.67,10.67,0,0,1,2.73,5.45,4.24,4.24,0,0,1-.05.94Zm11.41-4a5.25,5.25,0,0,1-1.24-.19,36.65,36.65,0,0,1-4.07-1.9A30.46,30.46,0,0,1,256,93.64a11.62,11.62,0,0,1-1.36-2.76,14,14,0,0,1-.55-3,1.75,1.75,0,0,1,1-1.76c.68-.36,1.41-.81,2.22,0v1.12a8.51,8.51,0,0,0,5,7.78,5.92,5.92,0,0,0,2,.49,1,1,0,0,0,1.08-.75,1.14,1.14,0,0,0-.64-1.38c-.43-.18-.92-.24-1.35-.42a5.48,5.48,0,0,1-2.82-2.44,3.91,3.91,0,0,1-.75-3.45,5.31,5.31,0,0,1,1,.58q1.61,1.41,3.07,3a36.38,36.38,0,0,1,5.81,9.23,27,27,0,0,1,1.23,4.32,3.44,3.44,0,0,1-.11,1Zm2.45.21c-.09-.48-.16-.78-.19-1.09a14.92,14.92,0,0,0-1.95-6.3c-1.09-1.93-2.18-3.87-3.39-5.73a27,27,0,0,0-6.72-7.3,2.44,2.44,0,0,1-.5-.69A3.16,3.16,0,0,1,263.12,83a9.36,9.36,0,0,1,5.24,1.27,21,21,0,0,1,10.81,14.06,15.08,15.08,0,0,1,.46,3.28,3.58,3.58,0,0,1-3.27,3.73,23.88,23.88,0,0,1-3.05,0Zm-18.14,9.32a7.92,7.92,0,0,0,5.74-1.94,14,14,0,0,0,6.21.3,6.89,6.89,0,0,0,5.42-3.81l.61-1.38c.86-.06,1.73-.07,2.58-.19a11.35,11.35,0,0,0,2.77-.62,5.69,5.69,0,0,0,3.32-6.47,23.52,23.52,0,0,0-2.56-8.14,24.26,24.26,0,0,0-9.25-9.7,16.92,16.92,0,0,0-3.92-1.66,6.79,6.79,0,0,0-8,2.3c-.48,0-1-.13-1.56-.13a4.67,4.67,0,0,0-4.88,5.22,11.77,11.77,0,0,0,2.08,6A34.9,34.9,0,0,0,266.54,106c1.27.64,2.62,1.09,4,1.66a2.56,2.56,0,0,1-1.62,2.37,8.17,8.17,0,0,1-7,.58c0-.53,0-1.07-.06-1.6a14.07,14.07,0,0,0-3.49-7.93,3.43,3.43,0,0,0-3.35-1.4,2.88,2.88,0,0,0-2.48,2.52,7,7,0,0,0,.92,4.35,12.23,12.23,0,0,0,3.06,3.62l1.72,1.4a3.47,3.47,0,0,1-3.34.51c-.29-.71-.61-1.4-1-2.08a4.82,4.82,0,0,0-1.18-1.44,1.35,1.35,0,0,0-1.87.34,1.4,1.4,0,0,0-.24.69,4,4,0,0,0,1.15,3,2.73,2.73,0,0,1,.87,1.89,3.27,3.27,0,0,1-3.19,3.36h-.08c-.32,0-.67-.12-.93,0a1.53,1.53,0,0,0-.86.68,1.39,1.39,0,0,0,.17,1.09,2.12,2.12,0,0,0,2.36.72,5.88,5.88,0,0,0,4.47-3.55A18.48,18.48,0,0,0,255.17,114.72Z"/></g></g></svg>