<svg xmlns="http://www.w3.org/2000/svg" viewBox="0 0 919.39 363.99"><defs><style>.cls-1,.cls-2{fill:#fff;}.cls-2{opacity:1;}.cls-3{fill:none;stroke:#fff;}</style></defs><g id="レイヤー_2" data-name="レイヤー 2"><g id="レイヤー_1-2" data-name="レイヤー 1"><path class="cls-1" d="M134.79,328.15c.68,0,.88.26.88,3.38,0,5.15-2.34,10.92-5.09,15.13-3.59,5.41-4.84,6-6.35,6-3.17,0-4.52-4.63-4.52-8C119.71,334.86,129.85,328.15,134.79,328.15Zm2.91-.16c14.2,0,14.41,12.38,14.41,14.41,0,12.94-11.29,17.42-16.7,19.55-1.3.52-1.4.57-1.4.73s.31.36.52.36a31.87,31.87,0,0,0,8.63-1.92,19.4,19.4,0,0,0,13.11-18.31c0-6.81-3.44-12.37-9.05-15.13-1.46-.73-3.64-1.66-8.37-1.66a21.51,21.51,0,0,0-16.59,6.76c-5.2,5.25-5.77,10.5-5.77,13.26,0,6.34,3.06,11.7,6.5,11.7,2.08,0,4.73-1.25,8.89-7.6,4.57-6.91,5.35-11.75,5.35-15.23a39.68,39.68,0,0,0-.52-5.62c0-.21-.1-.41-.1-.57C136.61,328.41,136.66,328,137.7,328Z"/><path class="cls-1" d="M169.76,327.16c-.35,0-.53.17-.53,1.28,0,3.19,4.64,6.09,6,6.09a22.13,22.13,0,0,0,2.9-1.28c3.54-1.39,20.3-4.18,20.88-4.18.29,0,1.27.06,1.27,1.05a32.78,32.78,0,0,1-3.94,9.8c-4.64,8.24-12.82,15.89-22.91,23-.58.4-.75.52-.75.75a.38.38,0,0,0,.4.35c.58,0,20.82-8.12,29.93-27,1.1-2.32,1.33-2.78,2.26-3.65,1.05-1.05,1.34-1.34,1.34-2.09s-.35-1.45-3-3.77c-1.8-1.57-2.73-2.38-4-2.38-.41,0-.64.12-2.44.93-2.49,1.1-19.49,2.73-21.87,2.73a13.66,13.66,0,0,1-4.81-1.22C170.39,327.51,169.87,327.16,169.76,327.16Zm41.81-7.08a3.88,3.88,0,0,1,3.72,3.66,3.69,3.69,0,0,1-7.37.06A3.74,3.74,0,0,1,211.57,320.08Zm.12-2a5.51,5.51,0,0,0-5.68,5.51,5.6,5.6,0,1,0,11.19,0A5.4,5.4,0,0,0,211.69,318.11Z"/><path class="cls-1" d="M254.9,332.15c1.57,0,1.57,1.56,1.57,2.2s-1.86,14.27-1.92,14.44c-.29.87-1,.87-7.42,1.22-1.68.12-3.48.29-4.29.41-1.28.17-3.37.52-3.77.52-.58,0-1.63,0-1.63-2s-.46-11.08-.46-12.88,0-1.8,5.45-2.67C243.76,333.19,252.17,332.15,254.9,332.15Zm-16.59-.87c-1.39,0-1.45-.06-3-1.34a5.82,5.82,0,0,0-4-1.33c-.81,0-2.43.87-2.43,1.45a.41.41,0,0,0,.23.35,5.39,5.39,0,0,1,2.32,2c2,2.73,2.09,11.31,2.09,21.46,0,.7,0,3.48,1.79,3.48,1.28,0,1.45-.46,2.56-2.9.52-1.1,10.73-1.62,11.71-1.62a56.21,56.21,0,0,1,7.19.52c.53.06,3,.75,3.54.75.35,0,1.1-.29,1.1-1a1.71,1.71,0,0,0-.69-1.22c-2.79-2-3.08-2.21-3.08-3s2.27-11.25,4-13.45c1-1.4,1.27-1.63,1.27-2.32,0-2.5-4.81-5.28-5.51-5.28-.46,0-.64.11-2.61,1.1C253.28,329.65,239.94,331.28,238.31,331.28Z"/><path class="cls-2" d="M155.53,144.16c-2.27,0-2.51-2.58-2.51-3.68,0-2,.52-8.38.89-13,.2-2.48.38-4.63.43-5.54.29-12.22.73-75.77.73-89.36a114.11,114.11,0,0,0-.73-13.83,8.17,8.17,0,0,0-.36-1.55c-.09-.32-.21-.76-.23-.89.77.09,3,.89,8.92,4l.52.28a11.18,11.18,0,0,0,4.5.94h9.07c2.08,0,3.58,0,5.06-1.32.13-.12.31-.33.55-.59a19,19,0,0,1,2.14-2.16c1.6.71,10,5.1,10.29,6.31,0,.93-.94,1.55-3.23,2.85-.89.44-2,2-10.68,14.24l-3.83,5.39c-4.05,5.73-4.38,6.2-4.38,7.37,0,1.57.73,2.15,3.44,4.29l.14.11c6.32,4.93,13.85,13.56,13.85,26.65,0,15.84-10.79,22.42-16.57,22.42-1.09,0-1.09,0-1.35-1.44-.61-3.39-3.55-7.22-5.25-9.2l-.14-.14c-.46-.47-.77-.81-1-1a5.11,5.11,0,0,0,.58.07c1.46.48,7.37.58,7.43.58,2.19,0,4.43-.18,5.75-2.32.63-.89,2.72-4.48,2.72-12.16,0-14.4-6.18-20.92-8.5-23.38-2.95-3.24-3.07-3.81-3.07-4.88,0-.7,1.91-5.45,3.6-9.63,3.29-8.18,5.63-14.11,5.63-16,0-3.35-3-3.35-4.23-3.35h-7.48c-1.18,0-4.77,0-5.1,4.48-.59,11.3-.59,34.56-.59,47.05,0,15.45,0,36.62.59,51,0,.83.15,3.13.3,5.36.14,2,.29,4.18.29,4.87C163.75,142.24,158.83,144.16,155.53,144.16Z"/><path class="cls-2" d="M112,144c-1.31,0-1.75-.37-5.87-4.94-1.85-2-6.44-4.08-8.87-5-1.92-.76-2.22-1.13-2.27-1.25.33-.39,3.6-.5,5.76-.58h0c6.88,0,11-.87,12.16-2.59,1-1.28,1.42-5.48,1.42-13.2,0-12.79-.1-28.69-.59-31.87-.53-3.7-3.62-3.7-5.1-3.7H87.87c-1,0-3.49,0-3.49,3.35,0,2.27,1,2.89,5.53,5.89,11.15,7.15,20,12.79,20,22.38,0,3.9-2.22,7.19-4.85,7.19-1.92,0-3.42-1.83-4.74-5.76-4-12.07-14.3-24.12-15.62-24.12s-1.62,1.4-1.81,2l0,.16c-2.8,10.31-6.39,15.65-15.34,22.88-2,1.5-9.11,6.17-10.19,6.17h-.1c.49-.76,3-3.42,4.78-5.22s3-3.17,3.54-3.84c5.39-7.25,9.62-19,9.62-26.69,0-4.38-2.83-4.38-4.52-4.38h-16c-4.73,0-5.11,2.31-5.11,5.11v1.46c0,1.61,0,6.67.07,11.72s.08,10.1.08,11.72c0,1.28.1,5,.21,8.88s.23,8.22.23,9.71v9.22C49.85,141.13,47,144,43.79,144c-2.67,0-4-1.73-4-5.29,0-.9.19-3.39.39-5.8.17-2.22.34-4.32.34-5,.14-7.54.29-30,.29-30.75,0-1.44,0-14.24-.89-18.85-.36-1.33-.65-2.64-.87-3.94,0-.46.84-.51,1.2-.51,2.38,0,5.17,1.79,7,3a7.53,7.53,0,0,0,4.41,1.42H71.33c4.67,0,4.67-3.7,4.67-5.69,0-14.91-.21-16.82-5.69-16.82H62.84c-11.77,0-16.65.24-18.66.44h0c-.19,0-.71.06-1.52.15-.58.06-1.3.14-1.49.14s-.38-.17-.92-.71L37.5,52.4,37.19,52c.7,0,2,.13,3.11.22,1.34.11,2.61.21,3.05.21,6.68.41,12.74.59,20.21.59h36.62c4,0,8.93,0,10.71-2.43l.54-.8c2.78-4.18,3-4.39,4.13-4.39,1.48.16,12.63,7.55,12.91,9,0,1.32-3.08,1.32-7.34,1.32H90.51c-5.39,0-5.39,1.68-5.39,8.77,0,8.67.09,10,.15,10.35.4,3,2.69,3.39,5.09,3.39h16.25c2.7,0,4.3-.15,5.92-3.23.57-1.27,1.19-2.48,2.14-2.48a62.7,62.7,0,0,1,5.71,2.6l2.11,1,.24.11c3.22,1.54,5,2.39,5,3.47,0,.82,0,1-3.15,3.5-1.61,1.32-1.83,5.71-1.83,10.26,0,2.56.19,9.59.38,16.39.18,6.63.35,12.89.35,15.1,0,10-.91,12.93-4.9,16C116.84,142.21,113.6,144,112,144Z"/><path class="cls-2" d="M184.9,141.08l2.73-1.19c2.15-.93,4.38-1.89,5.08-2.28,13-7.81,20.91-20.1,24.15-37.59a111.2,111.2,0,0,0,1.33-11.19c0-3.39-2.52-3.39-3.35-3.39-.37,0-8.26.15-11.59.29a27.5,27.5,0,0,1-3.1.44c-.2,0-.36-.18-.75-.7l-.07-.1-3-3.4-.28-.36c.66,0,1.85.15,3,.27,1.41.16,2.74.3,3.28.3,7.53.31,13.54.44,20.07.44h31.19c3.89,0,4.3,0,5.09-.16,1.21-.37,3-2.59,5.37-5.7a29.21,29.21,0,0,1,2.64-3.2c1.55.55,12.84,8.32,12.84,10.69,0,.77-.35.88-3.1,1l-.32,0c-1.61.15-7.76.15-9.78.15h-16c-4.08,0-4.08,1.36-4.08,6.42,0,22.62.35,35,1.06,36.82,1.21,3.19,7.66,3.44,9.61,3.44,7.88,0,9-4.32,10.35-9.32.19-.81.5-2.54.87-4.54.52-2.87,1.4-7.76,2-9.83a.53.53,0,0,1,0,.13c0,2.73,1.42,10.72,3.66,13.12.31.31,1.16,1.09,2,1.87s1.67,1.52,2,1.81a3,3,0,0,1,.72,1.7c0,1.23-1.2,4.56-4.39,8.06-4.44,4.72-13.17,5.23-16.72,5.23-5,0-16.78-.6-18.35-6.17-.79-3.05-1-16.56-1-23.28v-23c-.41-2.47-2.53-2.47-3.79-2.47h-7.76c-1.92,0-3.65.12-3.65,1.59,0,1.06,2,1.68,3.68,2,3.16,1.06,3.65,1.39,3.65,2.52,0,.46,0,.5-2.31,2.66-1.18,1.34-1.35,1.93-2.51,6.87-4.6,18.4-11,24.76-13.68,27.48l-.08.08C204.3,135.87,193.35,140.94,184.9,141.08Z"/><path class="cls-2" d="M1.62,141.08a.05.05,0,0,1,0,0c.11-.67,2.94-5.25,5-8.58,1.74-2.81,3.38-5.46,3.88-6.52A101.48,101.48,0,0,0,20.64,83.09c0-.67,0-1.89-1-1.89-1.37,0-10.74,15.14-11.24,17.43l-.2.77c-.54,2.07-1.09,4.2-1.59,4.2a22.8,22.8,0,0,1-1.43-3.78l-.38-1.11c-.17-.52-.4-1.22-.65-2-.84-2.6-1.88-5.85-2.45-7A16.1,16.1,0,0,1,1,87.83a.26.26,0,0,1,.18-.22c.16,0,.54.17.83.27a6.65,6.65,0,0,0,1.65.45c2.35,0,10-5.32,12.65-7.44,4.61-3.84,4.61-5.1,4.61-10.4,0-12.72-.33-29.44-1.92-36.88-.13-.46-.47-1.27-.87-2.22a22,22,0,0,1-1.31-3.52c0-.7.31-.75.6-.75,2.45,0,9.32,3.18,11,4a15.58,15.58,0,0,0,6.71,1.53h23c5.69,0,6-2.22,6-8.62,0-1.9-.29-5.92-.45-6.83a13.43,13.43,0,0,0-.75-1.83,21,21,0,0,1-.85-2.07,2.55,2.55,0,0,1,1.34-.27c3.18,0,15,2.76,15,4.41-.09.47-2.07,2.13-3,2.93-1.5,1.17-1.66,5.61-1.66,7.47,0,4.48,2,4.82,5.1,4.82h21.53c6.9,0,7.63,0,10.58-4.51,2.93-4.69,3.09-4.87,4.5-4.87,2.15,0,15.54,8.06,15.54,10.71,0,1.4,0,1.48-7.19,1.48H35.59c-6.13,0-6.13,1.81-6.13,11.84v.89c-.28,44.58-.34,55.17-10.6,73.23C13.33,130.92,3.19,140.7,1.62,141.08Z"/><path class="cls-2" d="M12.16,67.28c-2.63,0-3-.59-5.9-10.43-.3-1-1.35-3.22-2.56-5.8C2.2,47.86.17,43.54,0,42.36c2.89.43,16.14,9.38,16.14,19.63C16.14,65.3,14.11,67.28,12.16,67.28Z"/><path class="cls-2" d="M209.57,62.59c-.19,0-.38-.17-.92-.71l-2.74-3.33-.31-.38c.67,0,2,.13,3.11.22,1.34.11,2.61.21,3,.21l2.45.1c6.26.26,11.67.49,17.76.49h7.91c3.2,0,4.06,0,4.9-.34s2.46-2.1,4.66-4.89a28.56,28.56,0,0,1,2.23-2.65c1.41.61,9.47,7.16,9.47,8.77s0,1.78-8.52,1.78H231.24c-11.76,0-16.63.24-18.65.44h0c-.19,0-.72.06-1.54.15C210.47,62.51,209.76,62.59,209.57,62.59Z"/><path class="cls-2" d="M197.27,50.73c-2.53,0-4.56-2.17-4.56-4,0-2.1.43-2.69,6.17-9.75a16.38,16.38,0,0,0,3.49-10.17,19.17,19.17,0,0,0-.32-2.34c-.12-.68-.25-1.44-.26-1.72,1.47.61,3.9,5.6,4.89,8.91C207.39,34,209.14,34,210.3,34h13.47C229,34,229,31.56,229,26.7c0-2.88-.1-8.06-.75-10.55l0-.06,0-.05a10.55,10.55,0,0,1-.81-2.15.17.17,0,0,1,0-.07,1.89,1.89,0,0,1,.44,0c2.44,0,14.38,2.46,14.38,4.26,0,.44,0,.49-2,1.89-1.85,1.17-1.85,2-1.85,8.81,0,3.87,1.37,5.25,5.25,5.25h15.52c1.78,0,3.32,0,4.49-3,.89-2.13,1.26-2.39,1.45-2.42.81.35,5.6,3.65,8.49,5.63,1.72,1.18,3.2,2.2,3.87,2.63,1.12.84,1.93,1.56,1.93,3,0,1.66-1,2.5-3.09,2.5-8,0-8.63.25-8.85.34-1.09.41-4.24,2.27-7,3.9-1.35.8-2.84,1.67-3.64,2.1l.26-.35a5.06,5.06,0,0,0,.42-.63c1.71-3.41,3.29-6.79,3.29-8.45,0-1.13-.48-2.47-2.77-2.47H210.3c-2.63,0-3,1.14-3.77,3.94C205.28,46.17,201,50.73,197.27,50.73Z"/><path class="cls-2" d="M187.7,221.05c-1.57,0-5.25,0-5.25,4.82,0,13.1.23,13.74,5,13.74H235c5,0,5-1.85,5-9.64,0-7,0-8.92-5.25-8.92Zm-9.52,42.33c-2,0-3.37,0-4.57,1.7-.2.36-.69,1.18-.69,17,0,2.41,0,5.4,4.82,5.4h68.54c4.36,0,5-2.31,5-4.81,0-10.56-.11-16.24-.32-16.87-.7-2.44-3.56-2.44-4.64-2.44Zm-12,35.14c-3.83,0-3.83-2.78-3.83-4.12,0-.29.08-2.09.24-5.84v-.25c.26-6,.62-14.23.62-16.6,0-.9-.08-3.21-.17-5.9l0-1c-.14-3.83-.23-6.62-.23-7.72s.18-1.48.76-1.48c1,0,4.15,1.21,9.43,3.61,2.49,1.24,4,1.37,7,1.37h11.27c3.22,0,5.76,0,7.68-3.68a33.63,33.63,0,0,0,2.7-11.24c0-3.2-1.8-3.2-5.4-3.2h-8.78c-3.34,0-3.69.62-4.77,3.55-.79,2.39-4,2.74-5.92,2.74-2.45,0-3.81-.9-4.13-2.75-.22-1.08-.09-6.37,0-8.64V237c0-.83,0-1.62,0-2s0-1.91,0-4v-2.52c0-3.1-.08-7-.08-9,0-.3-.09-1-.27-2.21v-.05c-.13-.88-.31-2.08-.31-2.43s.11-1.05.61-1.05c.73,0,3.35,1.44,5.08,2.38h0l.07,0,.11.06h0a23.41,23.41,0,0,0,3.2,1.58c1.67.61,2.62.61,5.43.61h45.55c6.29,0,6.95,0,8.28-1.16a18.52,18.52,0,0,0,1.36-1.48l.05-.06h0c1-1.11,3.22-3.7,3.9-3.71,1.53,0,7.78,6.82,7.78,9.1,0,.77-.2,1.06-2.2,2.13s-2,2.07-2,8.85c0,3.26-.21,10.12-.68,11.19a7,7,0,0,1-6.27,3.92H242c-1.85,0-2.14-.57-2.84-2.56s-2.47-2.13-4-2.13H218.74c-3.88,0-5.22,1.16-6.57,2.68-8.66,9.83-9.66,12.28-9.66,13.26,0,2.18,2.4,2.18,4.52,2.18h36.6c3.29,0,6.12,0,7.25-.48a11.28,11.28,0,0,0,2-1.76h0c.85-.83,2.42-2.37,2.89-2.43,1,.11,8.35,4.68,8.35,7,0,1.05-.1,1.19-2.14,2.94l-.09.07,0,.1a8.27,8.27,0,0,0-.95,4.09c0,1.13.14,4.39.28,7.93v.38c.13,3.3.29,7,.29,8.36,0,3.87,0,5.17-2,7.06a9.93,9.93,0,0,1-6.39,3.07c-2.24,0-2.44-1-2.75-4.09l0-.12c-.36-2.39-2.78-2.39-4.22-2.39H177.29c-3,0-3.58,1.32-4.2,3.49C172.23,296.76,169.64,298.52,166.17,298.52Z"/><path class="cls-2" d="M98.66,178.3H76.26c-2.5,0-2.77,1.52-2.77,2.17,0,5.45,12,24.29,15.51,24.29,3.13,0,14.18-22,14.18-24.58C103.18,178.3,102.23,178.3,98.66,178.3ZM30.28,297.93c-2.2,0-2.65-1.12-2.65-2.8,0-.62.08-2.45.15-3.92v-.08c.06-1.52.13-3,.13-3.47.19-4.82.29-21,.29-48,0-1.69,0-3.79-3.05-3.79-2.3,0-10.79,2.06-11.75,2.37-.33.11-.89.33-1.6.6l-.27.1a36.89,36.89,0,0,1-5.71,1.91c-1.36,0-4-9.79-4.27-11.78h0c0-.15,0-.4.17-.4.61,0,3,.21,5.1.4,2.48.22,5.28.48,6.17.48,3.65,0,4.75,0,19.65-22.81,3.5-5.24,8.48-15.19,8.53-15.29.69-1.48,1-1.84,1.07-1.88,1.34.24,10.16,7.5,10.16,9.24,0,1-.3,1.16-3.55,1.75l-.28,0-.09,0c-.91.3-2.05.68-4.73,3.81-8.23,9-14.37,15.53-19.89,21.05-2,2-2.21,2.22-2.21,3,0,1.3,1,1.3,2.76,1.3s11.53-.15,17.18-.59l.34,0c1.67-.13,3.11-.23,3.11-1.86,0-.25-.19-1.16-.74-3.78-.28-1.31-.62-2.87-.7-3.4l.14,0c.87,0,4.86,3.36,8,8,1.87,2.74,2.33,3.32,4,3.32C60.51,231.41,84,214,84,210.49c0-.23,0-.27-4.08-7.6l-.82-1.46c-4.24-8-5.08-10.87-7.86-20.24-.66-2-1.76-2.75-3.91-2.75-.74,0-2.91.17-4.83.32-1.68.13-3.36.26-3.81.26-.2,0-.39-.17-.92-.71L55,175l-.22-.28-.08-.1c.67,0,2,.13,3.11.22l.34,0h0c1.18.09,2.29.18,2.7.18l2.48.1h0c6.23.26,11.61.49,17.68.49h17c4,0,5.08,0,6.72-1.8l.19-.17c2.73-2.45,2.9-2.57,3.64-2.57,1.58,0,9.39,6,9.39,8.22,0,.7,0,.7-3.23,2.59-2.62,1.38-3.23,2.46-9.14,12.79h0a82.39,82.39,0,0,1-9.17,13.54,2.59,2.59,0,0,0-.71,1.83c0,2.86,17.55,13,27.21,15.77a76.81,76.81,0,0,0,8.4,2.07l.43.08c1.38.26,2,.44,2,1a.61.61,0,0,1,0,.15,9,9,0,0,1-1.73.47h0a25.08,25.08,0,0,0-7.66,3.3,15.62,15.62,0,0,0-1.51,1.24,15.37,15.37,0,0,1-2.61,2c-3.15,0-14.68-5.95-27.28-16.71,0,0-.73-.69-1.55-1.38a6,6,0,0,0-2.19-1.39h-.14l-.13.07a33.46,33.46,0,0,0-3.87,2.54c-11.29,8.14-18.82,10.65-27.49,13.08-2.34.72-2.47,2.32-2.61,4-.22,2.31-1.58,6.21-5.3,6.21-2.32,0-2.77-1.56-3.53-7.7-.29-2.14-.46-3.43-2.18-3.43a49.41,49.41,0,0,0-6,1.34c-2,.81-2,2.92-2,4.06v38.22c0,1.39.16,5,.31,8.49s.28,6.51.28,7.61C36.6,295.9,31.81,297.93,30.28,297.93Z"/><path class="cls-2" d="M50.06,295.17a1.11,1.11,0,0,1-.84-.58l0,0-2.82-3.41-.37-.39c.54,0,1.66.11,2.75.2,1.44.11,2.93.23,3.48.23,4.08.29,11.53.59,20.06.59h7.32c1.15,0,4.62,0,5-3.59,0-.35.06-2.8.12-5.91.13-5.92.32-14.87.32-17,0-5-3.73-5-5-5-7.55,0-13.74.15-16.29.3a23.14,23.14,0,0,1-3.09.43c-.11,0-.28-.11-.83-.81l-2.79-3.37-.3-.38c.48,0,1.44.12,2.3.2,1.18.12,2.3.23,2.69.23,1,.15,13.06.58,18.31.58,1.56,0,4.81,0,4.81-4.67,0-1.24-.3-9.91-.58-14.82-.15-.77-.44-4.52-.44-5.38,0-.61.05-.61.46-.61,1.29,0,12.17,2.09,12.17,4.41A13.1,13.1,0,0,1,94.77,239a11,11,0,0,0-1.18,1.71c-.92,1.84-.92,7.12-.92,11.78,0,2.31.57,5,5,5,5.58,0,9.52-.2,10.63-1.16a19.87,19.87,0,0,0,1.81-2.24c1.07-1.44,3.6-4.8,4.4-4.8,1.82,0,12.18,8.37,12.18,9.83,0,1.19-3.11,1.19-7.05,1.19H97.77c-2.37,0-5.1.53-5.1,4.66,0,1.76.14,8,.27,13.59.09,4.17.17,7.77.17,8.52,0,4.67,3.61,4.67,5,4.67h7.62c6.45,0,7.44,0,9.66-2.7l.5-.57c3.6-4.11,4-4.49,5.21-4.49,1.67,0,11.17,7.9,11.3,9.39,0,1-3.11,1-7.05,1H71.57c-3.66,0-13.35,0-18.5.45h0c-.19,0-.71.05-1.54.14C51,295.08,50.29,295.16,50.06,295.17Z"/><path class="cls-2" d="M2.92,290.26c.23-.68,1.11-2.72,1.72-4.12s1.23-2.85,1.42-3.42l.18-.54C10.71,268.89,13,257.92,13,249.59a4.7,4.7,0,0,0-.05-.63l0-.23a31.62,31.62,0,0,1,5.28,1.83l.31.14c3.27,1.43,5.22,3.15,5.22,4.6,0,.62-1.69,3.06-2.51,4.23-.54.79-.93,1.35-1.09,1.67-.57,1.06-1.78,4.09-2.94,7-.93,2.32-1.8,4.51-2.18,5.28C8.62,286.08,4.11,289.77,2.92,290.26Z"/><path class="cls-2" d="M51.94,274.81c-1.85,0-2-.34-5-8.88l0-.11c-.26-.74-.94-2.53-1.71-4.56-1.19-3.13-3-7.88-3.09-8.37a.37.37,0,0,1,.06-.22s0,0,.11,0c1.46,0,5.75,3.64,7.37,5l.32.26c3.76,3.06,7.12,6.19,7.12,10.85C57.09,272.28,54,274.81,51.94,274.81Z"/><path class="cls-2" d="M152.26,221.93c-3.69,0-5-2.85-5-5.29,0-1.81.43-2.52,3.75-8.08l1.3-2.17a32.54,32.54,0,0,0,4.47-13.71c0-1.05.22-1.26.23-1.26.58.2,2.11,3.51,2.77,4.92a18.84,18.84,0,0,0,1.1,2.18c1.21,1.9,2,2.14,7.34,2.14h51.11c6.92,0,8-.43,14.41-11.71,3.32-5.92,8.54-16.74,8.85-19.55a8.9,8.9,0,0,1,.31-2.27h.16c1.38.17,13.19,8.13,13.19,10,0,.85-.5,1-3.61,1.66l-.62.13c-2.59.46-3.9.69-13,10-7.09,7.1-8.07,8.82-8.07,9.62,0,2.18,1.87,2.18,4.23,2.18h19.77c4.73,0,5.23,0,6.49-.48a7.44,7.44,0,0,0,1.82-1.56,10.55,10.55,0,0,1,1.84-1.63c1.24.09,13.3,8.62,13.3,12.91,0,2.53-2.27,2.8-3.24,2.8-.36,0-1.46-.12-2.43-.23s-1.82-.21-2.11-.21c-2.37,0-5,.93-9.9,5.42l-.18.17c-2.24,2.12-2.63,2.47-3.25,2.47a.31.31,0,0,1-.17,0,2.76,2.76,0,0,1,0-.29v-.14c0-.21.54-1.76,1-3.26,1.54-4.65,2.91-8.94,2.91-10.36,0-2.77-1.38-2.77-6-2.77h-86c-5.24,0-6.48,0-7.3,4.42C160,217.59,155.68,221.93,152.26,221.93Z"/><path class="cls-2" d="M21.05,215.2c-2.09,0-3-1.34-11-13.6l-.22-.35c-.29-.46-1.06-1.57-2-2.86-.8-1.14-1.9-2.73-2.46-3.59a64.12,64.12,0,0,1,6.16,2.42,16.58,16.58,0,0,0,3.64,1.4c3.3,0,10.67-22.2,10.67-28.1a8.31,8.31,0,0,1,.13-2.24c1.67.42,12.94,4.37,12.94,6.48-.08.56-2.28,2.37-3.11,3.05-.5.41-.9.73-1.12.95-1.79,1.89-6.93,9-10.68,14.17-1.52,2.1-2.72,3.76-3.28,4.48-.11.17-.22.32-.33.47-.65.88-1.53,2.07-.91,3.47l1.09-.22-.92.44A27.48,27.48,0,0,1,22.4,204a7.48,7.48,0,0,1,2.77,5.49C25.17,212.29,23.63,215.2,21.05,215.2Z"/><path class="cls-2" d="M184.18,193.82c-2.86,0-4.18-2.44-5.48-5.38A34.76,34.76,0,0,0,165.89,174l-.34-.21A13.92,13.92,0,0,1,163,172a1.29,1.29,0,0,1,0-.14,2,2,0,0,1,1.06-.22c15.77,0,25.82,9.47,25.82,16A6,6,0,0,1,184.18,193.82Z"/><path class="cls-2" d="M216.26,191.18c-3.35,0-4.89-3.05-6.06-6.36a44.07,44.07,0,0,0-9-15.27,18.19,18.19,0,0,1-2-2.66,1.87,1.87,0,0,1,.57-.06c4.19,0,21,7.33,21,18.91C220.67,189.05,218.94,191.18,216.26,191.18Z"/><line class="cls-3" x1="616.99" y1="316.35" x2="300.99" y2="0.35"/><line class="cls-3" x1="616.99" y1="0.36" x2="300.99" y2="316.36"/><path class="cls-1" d="M660.23,328.15c.68,0,.89.26.89,3.38,0,5.15-2.34,10.92-5.1,15.13-3.59,5.41-4.84,6-6.34,6-3.18,0-4.53-4.63-4.53-8C645.15,334.86,655.29,328.15,660.23,328.15Zm2.91-.16c14.2,0,14.41,12.38,14.41,14.41,0,12.94-11.29,17.42-16.69,19.55-1.3.52-1.41.57-1.41.73s.31.36.52.36a31.87,31.87,0,0,0,8.63-1.92,19.4,19.4,0,0,0,13.11-18.31c0-6.81-3.43-12.37-9.05-15.13C671.2,327,669,326,664.29,326a21.51,21.51,0,0,0-16.59,6.76c-5.2,5.25-5.77,10.5-5.77,13.26,0,6.34,3.07,11.7,6.5,11.7,2.08,0,4.73-1.25,8.89-7.6,4.58-6.91,5.36-11.75,5.36-15.23a41.22,41.22,0,0,0-.52-5.62c0-.21-.11-.41-.11-.57C662.05,328.41,662.1,328,663.14,328Z"/><path class="cls-1" d="M695.2,327.16c-.35,0-.52.17-.52,1.28,0,3.19,4.64,6.09,6,6.09a21.56,21.56,0,0,0,2.9-1.28c3.54-1.39,20.3-4.18,20.88-4.18.29,0,1.28.06,1.28,1.05a33,33,0,0,1-4,9.8c-4.64,8.24-12.82,15.89-22.91,23-.58.4-.75.52-.75.75a.38.38,0,0,0,.4.35c.58,0,20.83-8.12,29.93-27,1.1-2.32,1.34-2.78,2.26-3.65,1-1.05,1.34-1.34,1.34-2.09s-.35-1.45-3-3.77c-1.8-1.57-2.73-2.38-4-2.38-.41,0-.64.12-2.44.93-2.49,1.1-19.49,2.73-21.86,2.73a13.77,13.77,0,0,1-4.82-1.22C695.84,327.51,695.31,327.16,695.2,327.16ZM737,320.08a3.88,3.88,0,0,1,3.71,3.66,3.69,3.69,0,0,1-7.37.06A3.74,3.74,0,0,1,737,320.08Zm.11-2a5.51,5.51,0,0,0-5.68,5.51,5.6,5.6,0,1,0,11.19,0A5.4,5.4,0,0,0,737.13,318.11Z"/><path class="cls-1" d="M780.34,332.15c1.57,0,1.57,1.56,1.57,2.2s-1.86,14.27-1.92,14.44c-.29.87-1,.87-7.42,1.22-1.68.12-3.48.29-4.29.41-1.28.17-3.37.52-3.77.52-.58,0-1.63,0-1.63-2s-.46-11.08-.46-12.88,0-1.8,5.45-2.67C769.21,333.19,777.62,332.15,780.34,332.15Zm-16.59-.87c-1.39,0-1.45-.06-3-1.34a5.88,5.88,0,0,0-4-1.33c-.81,0-2.43.87-2.43,1.45a.43.43,0,0,0,.23.35,5.39,5.39,0,0,1,2.32,2c2,2.73,2.09,11.31,2.09,21.46,0,.7,0,3.48,1.8,3.48,1.27,0,1.45-.46,2.55-2.9.52-1.1,10.73-1.62,11.71-1.62a56.36,56.36,0,0,1,7.2.52c.52.06,3,.75,3.53.75.35,0,1.11-.29,1.11-1a1.71,1.71,0,0,0-.7-1.22c-2.78-2-3.07-2.21-3.07-3s2.26-11.25,4-13.45c1-1.4,1.27-1.63,1.27-2.32,0-2.5-4.81-5.28-5.51-5.28-.46,0-.63.11-2.61,1.1C778.72,329.65,765.38,331.28,763.75,331.28Z"/><path class="cls-1" d="M659.31,49c-3,0-3.26-1.79-3.26-4.15,0-9.81,0-11.32-4.11-11.32-.92,0-3.38.15-5.77.3-2.21.14-4.51.29-5.28.29-.19,0-.38-.18-.93-.72L637.2,30a3.79,3.79,0,0,1-.34-.39c1.5,0,4.81.25,8,.46s6.06.41,7.06.41c3.48,0,4-2.18,4-4.54a29.83,29.83,0,0,0-1.06-9.18,7.69,7.69,0,0,0-1.06-1.72c-.28-.42-.71-1-.95-1.44,2.32.46,11.32,3.35,12.94,3.88.67.28,1.53,1,1.53,1.53s-.19.68-2.18,2.53a5.23,5.23,0,0,0-1.21,3.81c0,4.88,2.39,5.28,5.28,5.28h9.43c4.55,0,4.55-1.89,4.55-7.49a16,16,0,0,0-.76-6.21c-.06-.17-.2-.49-.36-.85a11.93,11.93,0,0,1-.65-1.65s0,0,0,0,.18,0,.44,0c1.73.17,12.88,2.48,13.29,3.87,0,.52-.22,1.28-1.76,2.83-1.75,1.75-1.93,2.19-1.93,4.67,0,2.16,0,4.84,4.4,4.84h2.65c2.11,0,2.85-.57,5.62-4.36l1-1.27c1-1.3,1.62-2.08,1.86-2.3,1.42.54,9.54,7.18,9.54,9,0,1.52,0,1.64-8.43,1.64H696c-4.55,0-4.55,2.52-4.55,5.43,0,4.36-.07,6.21-.12,6.47-.35,1.37-3.14,2.69-5.65,2.69s-2.53-.44-2.53-3.85c0-9.1,0-10.74-4.55-10.74h-9.28c-1.53,0-4.7,0-4.7,4.25,0,.48.08,1.83.16,3.13.07,1.13.14,2.29.14,2.62C664.94,47.75,659.89,49,659.31,49Zm34.45,97.73a3.44,3.44,0,0,1,.4-.47c8.07-5.26,15.75-14.68,21.08-25.84,13-26.79,13.18-62.09,13.18-62.45,0-4.1-3.08-4.1-4.4-4.1s-8.39.14-11.12.44h0a10.84,10.84,0,0,0-1.31.18l-.83.12c-.25,0-.4-.19-.8-.71l-.07-.1-2.82-3.41-.37-.38c1.47,0,4.77.23,8.25.46,4.06.27,8.26.55,9.82.55,2.24,0,3.62-1,4.22-2.9.63-2.2.91-15.68.91-19.48,0-.57,0-1.11,0-1.65a42.26,42.26,0,0,0-.31-6.83c-.06-.53-.24-1.4-.42-2.32a26.31,26.31,0,0,1-.46-2.61c0-.22.53-.32,1.06-.32,2.66,0,14.91,3.56,14.91,5.77,0,.41-.61,1-.87,1.23l-.1.1-.56.35a23.46,23.46,0,0,0-2.58,1.75c-1.48,1.85-2.23,22.61-2.23,22.81,0,4.1,3.75,4.1,5,4.1h4.27c2,0,3.28-.15,4.47-2.19l.39-.68c2.1-3.6,2.46-4.2,2.95-4.2,1.24.35,10.8,7,11.08,8.3-.1.51-2.22,2.35-3.13,3.13A10.7,10.7,0,0,0,762,56.57c-.41.61-.41,1-.41,11.25,0,7.24-1.14,49.6-6.16,62.88-5.35,14.1-14.86,14.82-16.71,14.82s-2-.13-2.08-1.74v-.1c-.19-2.46-1.53-4.46-4.64-6.89l-.5-.29a17.41,17.41,0,0,1-3.72-2.5c.51.06,1.64.23,2.65.38,2.39.37,5.1.77,5.94.77,4.79,0,9-.84,11.9-11.17,2.35-8.08,4.73-31,4.73-64,0-3.83-.24-6.17-5-6.17h-5c-4.07,0-5.24.63-5.72,5.08-3,28.51-7,49.63-17.6,66.82-9.18,14.65-24.16,21-25.91,21Zm-34.3-87.55c-5.28,0-5.28,1.63-5.28,10.73,0,7.07,0,9,5.28,9h4c5.14,0,5.28-1.44,5.28-10.15,0-7.72,0-9.55-5.28-9.55Zm22.26,0c-5.29,0-5.29,2-5.29,9.55,0,8.6,0,10.15,5.29,10.15h6.19c5.28,0,5.28-1.83,5.28-9.56,0-8.6,0-10.14-5.28-10.14ZM641.33,147c-2.27,0-5.19-12.21-5.33-13.76,0-.24,0-.29.32-.29a17.57,17.57,0,0,1,2.62.69,15,15,0,0,0,2.45.64,9,9,0,0,0,2.6.29c1.06,0,20.86-1,21.9-1.18,2.69-.71,2.69-1.86,2.69-8.23,0-2.56-.32-4.69-4.26-4.69-4.58,0-12.25,0-16.69.3h-.1a25.16,25.16,0,0,1-3,.43c-.25,0-.4,0-.84-.76l-2.9-3.52-.07,0a1.67,1.67,0,0,1-.31-.27c1.19.05,4.36.42,5,.56h.11c.66,0,2.79.09,5.48.19,4.29.17,10.15.4,13.09.4,4.4,0,4.4-1.59,4.4-7.49,0-6.63,0-7.64-5.88-7.64-3.36,0-13.58,0-18.76.44h0c-.2,0-.73.06-1.55.15-.58.06-1.3.14-1.49.14s-.38-.17-.92-.71l-2.77-3.36a4.14,4.14,0,0,1-.34-.38l3,.2c2.4.18,5.12.37,6,.37,10.9.45,11.75.45,18.42.45,4.4,0,4.4-3.2,4.4-6.91,0-9.59,0-11.32-5.28-11.32h-3.83c-4.05,0-4.11,1.18-4.39,6.88v.14c-.27,4.4-5.64,5.36-7,5.36-2,0-2.09-.19-2.09-3.27,0-2,.16-7.35.31-12.55.15-5,.28-9.67.28-11.33,0-3,0-9.38-1.21-12.86a13.53,13.53,0,0,0-.51-1.34,14.51,14.51,0,0,1-.78-2.16.71.71,0,0,1,.61-.61c1,0,4.87,2.4,6.73,3.56l1.53.93a9.46,9.46,0,0,0,6.48,1.85h28.15a7.53,7.53,0,0,0,4.59-1,15.24,15.24,0,0,0,1.39-1.13A14,14,0,0,1,696.62,52c1.25.19,8.76,7.09,9,8.31a1.93,1.93,0,0,1,0,.26,12.6,12.6,0,0,1-1.68.65c-2.41.69-2.44,1.53-2.58,5.58-.05,1-.12,3.06-.2,5.48-.13,4.14-.34,11.07-.52,11.72-.63,2.39-4.78,3-5.35,3-1.61,0-2-.89-2.39-2.78-.72-2.52-3.2-2.52-4.39-2.52h-6.93c-5.14,0-5.14,1.9-5.14,8.23,0,8.47,0,10,5.58,10h3.1c3.92,0,4.33,0,5.12-.16,1-.29,2.95-2.1,5.51-4.63.9-.88,2-2,2.41-2.26,1.25.57,8.35,6.59,8.35,8.1s-.2,1.65-8.57,1.65H681c-3.91,0-4.55,1.64-4.55,5.57,0,7.41,0,8.55,2.64,9.25.77.31,1.1.31,5.15.31a5.54,5.54,0,0,0,3.61-1.16c.42-.37,1.27-1.34,2.24-2.46a35.34,35.34,0,0,1,3.48-3.73,40.72,40.72,0,0,1,4.92,3.65c3.32,2.8,4.2,4.21,4.2,4.61,0,1.64-1.1,1.79-6.21,1.79h-15c-2.15,0-4.84,0-4.84,4.25,0,5.67,0,7.79,3.66,7.79,2.35,0,9.5-.7,15.81-1.31,4.11-.4,8-.78,9.68-.88-6,2.62-40.32,9.66-52.14,12.08-4.84,1-7,1.44-7.28,1.53a12.65,12.65,0,0,0-2.21,1.38A14.27,14.27,0,0,1,641.33,147Z"/><path class="cls-1" d="M903.39,55.17c-2,0-2.37-.59-6.7-8.24l-.76-1.35c-2-3.6-2.56-4.46-4.47-5a4.67,4.67,0,0,0-.72-.05c-2.49,0-10.75.8-17.38,1.45-3.11.3-5.79.56-7,.65-15.5,1.19-39.58,2.51-55.41,3.24-3,.14-4.51.58-5.28,1.54l-.37.42c-1.54,1.79-1.89,2.17-2.43,2.17-2,0-6.92-12.54-7.1-13.92,0-.68.9-.72.91-.72a24.49,24.49,0,0,1,3.9,1.08c.93.3,1.46.47,1.74.53,7.68.76,20.83,1.34,22.66,1.34s5.53,0,10.69-12.14a88.54,88.54,0,0,0,3-8.81c.17-.61.31-1.09.42-1.4.45-2.56.52-2.56,1.52-2.56.53,0,3.73,1.46,7.38,3.61,5.09,3,6.21,4.49,6.21,4.81,0,.92-.09,1-3.23,1.77l-.17,0c-4,1-14.29,11.22-14.29,12.93,0,2,2.56,2,3.66,2,3.56,0,13.41.08,22.94.16,9.17.07,17.83.14,20.84.14,3.66,0,6.46-.12,6.46-1.6,0-.67-1.28-2.64-5.95-9.16-.77-1.07-1.56-2.17-2-2.75.79.3,4.09,1.88,11.14,6.63,9.82,6.68,14.2,10.61,14.2,16.18C907.84,51.66,905.59,55.17,903.39,55.17Zm-80.77,6.19c-5,0-5,1.89-5,9.85,0,9.1,0,10.73,5,10.73H877c5,0,5-1.89,5-9.85,0-9.1,0-10.73-5-10.73ZM812.16,93.19c-4.3,0-4.3-2.51-4.3-3.85,0-.45,0-2.89.09-5.91.09-4.79.2-11.33.2-13.25,0-3.93-.14-9.27-.44-11.72A41,41,0,0,1,807,54c0-.29.06-.61.76-.61,2,0,5.89,2,7.76,2.91l.54.27a15.69,15.69,0,0,0,8.65,2h51.89c1.79,0,4,0,5.66-1.3.22-.22.51-.58.91-1.08A18.87,18.87,0,0,1,886,53.08c1.59.72,10.68,6.3,10.68,8.84,0,.74-.48,1.06-2.11,2.06l-.43.26c-2.51,1.41-2.77,1.92-2.77,5.35,0,1.08.14,4.16.28,7.41.15,3.41.31,6.93.31,8.21,0,4.34-5.09,6.21-7.69,6.21-1.3,0-1.3,0-2.32-3.72l-.08-.28c-.7-2.63-3.59-2.63-4.82-2.63h-53.8c-2.1,0-4.41.24-5.12,3.08C817.5,90.39,816.84,93.19,812.16,93.19Zm45.1,21.38c-2.82,0-3.21-1.2-4.44-6.26l0-.09c-.68-2.72-2.74-7.61-8.67-15.47l-.28-.38a2.71,2.71,0,0,0-.21-.19l-.49-.47a37.19,37.19,0,0,1,9.67,4c4,2.28,9,6,10.08,10.88a7.62,7.62,0,0,1-1.52,6A5.23,5.23,0,0,1,857.26,114.57Zm52.91,17c-2.58,0-3.07-1-5.54-7.3l-.12-.31c-3.69-9.53-6.33-14.39-14.69-24.32l-.08-.09a114.26,114.26,0,0,1,12.75,6.67c10.63,7,12.87,13.92,12.87,18.54C915.36,128,913.54,131.52,910.17,131.52Zm-120.56,1.32a4.58,4.58,0,0,1-4.45-4.44c0-2.36.16-2.59,5.83-8.25l.93-.93a43.1,43.1,0,0,0,10.32-16.94l.07-.24a28.35,28.35,0,0,1,1.17,8.67C803.48,125,794.32,132.84,789.61,132.84ZM858.14,142c-25.91,0-28.62,0-33.23-2-4.19-1.72-6.12-5.29-6.29-11.58-.09-1.95.15-8,.34-13,.14-3.32.25-6.19.25-7.36,0-3-.31-6.33-.59-9.2-.16-.94-.58-4.65-.59-5,0-.47.23-.58.4-.6,1.75.53,14.38,6.24,14.38,8.57a11.69,11.69,0,0,1-2,2.39,11.35,11.35,0,0,0-1.29,1.44c-.87,1.56-1.3,8.07-1.26,19.35v.55c.18,5.49,3.39,7.93,21.94,7.93,20,0,25.7-2.63,28.48-6.89,1-1.44,3.3-7,5.15-11.51.54-1.33,1.1-2.68,1.52-3.66.14,1.28.28,3.15.39,4.66.21,2.73.4,5.3.61,6.2a13.29,13.29,0,0,0,3.08,5.71c1.32,1.61,1.62,2.2,1.62,3.16C891,142,867.14,142,858.14,142Z"/><path class="cls-1" d="M636.68,209.93c.76-1.31,1.83-3.2,2.88-5.05s2.12-3.75,2.76-4.83l.21-.37c7.75-13.31,11.65-20,14.3-30.29l.23-.85a9.5,9.5,0,0,1,.54-1.71c1.29.28,12.63,3.95,13.27,5.46a21.72,21.72,0,0,1-3.68,2.66c-1.06.61-4.55,4.9-4.55,6.39,0,1.89,1.92,1.89,3.07,1.89h11.5c6.54,0,7.55,0,9.63-3.68,1.38-2.46,2-2.66,2.6-2.66,1.29,0,9.31,5.93,9.31,7.84,0,1.24,0,1.35-7.25,1.35H676c-1.37,0-2.78,0-2.78,1.45,0,.45.38.94,3.07,3.49l.93.89c6,5.44,6.46,7,6.46,9,0,3.32-3.7,7.1-7,7.1-1.72,0-1.89-.37-2.91-6.53l-.07-.37c-2.28-15.06-6.38-15.06-10.72-15.06s-4.95.57-9.14,5.81C644.14,204,638.82,208.6,636.68,209.93Zm5.59,31.57c-3.34,0-3.7-3.21-3.7-4.6,0-1,.25-2.6,2.39-5.56,5.39-7.43,6.7-9.37,7.76-14.36,0-.2.08-.52.14-.93.12-.91.47-3.42.74-4.38.42.37,1.37,1.67,2.89,6.25.91,2.89,3.45,2.89,4.67,2.89h36c5.29,0,5.29-2.68,5.29-9.85,0-.09,0-9-2.93-9a8.94,8.94,0,0,0-2.5.86c-.36.15-.8.34-1.2.49.67-.73,1.88-2,3.81-3.92,9.34-9.65,17.4-22.26,17.85-26.28l.07-.53c.51-4,.54-4,1.28-4a54.2,54.2,0,0,1,6.82,2c5.59,2,6,3.38,6,3.74,0,1,0,1.05-3.18,2.82l-.66.37c-1.68.91-3.68,2.36-3.68,4s1.7,1.6,3.66,1.6H745c5.87,0,7.85,0,10.22-4.27s2.53-4.28,3.48-4.28c1.2.27,11.38,7.9,11.38,10,0,1.24,0,1.35-7.25,1.35h-22c-1,0-3.66,0-3.66,2.18,0,1.12.75,1.88,3.26,4.38,7.07,6.93,7.65,9,7.65,10.81,0,3.15-3.66,7.39-7.4,7.39-3.26,0-3.41-2.49-3.41-7.25,0-5.54-1.62-11.67-3.94-14.92-1.78-2.59-3.93-2.59-6.65-2.59H720c-2.54,0-4.51.16-6.72,2.21L710.11,191c-4.15,3.58-6.44,5.56-8.47,7l-.17.13c-1.55,1.12-2.13,1.54-2.13,2.55s.81,1.31,3.52,2c7.87,2.18,8.42,2.43,8.42,3.72,0,.6,0,.64-1.82,1.9-1.57,1.22-1.57,2-1.57,7.24,0,2.48,0,5.28,5,5.28h33.6c1.86,0,3.62-.1,4.71-1.37.2-.26.48-.74.86-1.39.49-.86,1.77-3.06,2.35-3.39.63.34,3.05,2,5,3.27l3.55,2.35c5.24,3.49,6.82,4.55,6.82,6.75,0,2.94-2.58,3.56-4.74,3.56a29.76,29.76,0,0,1-3-.55,27.37,27.37,0,0,0-3.65-.63c-1.11,0-3.42,1.44-7.11,3.81a46.68,46.68,0,0,1-4.74,2.85c.22-.68.76-2,1.22-3.09,1.29-3.13,2.21-5.42,2.21-6.39,0-3.08-2.58-3.08-4-3.08H657.46c-3.38,0-3.94,1.71-4.4,4.3C651.24,238.61,645.42,241.5,642.27,241.5Zm40.83-5c-5.72,0-5.72,1.88-5.72,8.09,0,7.13,0,8.82,5.72,8.82h34.64c5.58,0,5.58-2,5.58-7.94,0-7.24,0-9-5.58-9Zm.15,34.64c-5.18,0-5.43,2.37-5.43,9.85,0,7.82.25,10.3,5.43,10.3h40.53c5.19,0,5.43-2.37,5.43-9.85,0-7.7,0-10.3-5.43-10.3ZM670,302.81c-1.33,0-2.38,0-2.38-4.3,0-1.07.15-4.19.29-7.2.15-3.18.3-6.47.3-7.68l0-1.68c.16-5.68.39-14.27.39-26.92,0-10.93-.17-15.34-.44-18.91,0-.31-.1-1.22-.28-2.67-.14-1.22-.31-2.6-.31-3,0-.61,0-.61.32-.61,2,0,4.2,1,6.56,2.06l.87.39c2.75,1.38,5.81,1.38,8,1.38h33.45c2,0,4.91,0,6.54-2.95l.14-.22c1.63-2.73,1.67-2.73,2.32-2.73,1.32.2,10.68,7,10.93,8.3a15.24,15.24,0,0,1-1.87,2,9.83,9.83,0,0,0-1.44,1.54c-.39.64-.53,3-.53,9.14,0,.5,0,1.83.07,3.2s.08,3,.08,3.58c0,4.54-3.83,5-5.48,5-2.6,0-3.35-1-4-1.83l-.27-.32c-1.14-2-2.43-2.12-4.41-2.12H683c-4.89,0-5.43,1.78-5.43,5.57,0,5,.25,6.61,5.43,6.61h38.47a10.62,10.62,0,0,0,7.75-2.5c.12-.11.29-.31.52-.57a11.56,11.56,0,0,1,2.76-2.66c1.49.52,10.66,6.42,10.66,9,0,.87-.38,1.19-2.72,2.94a4,4,0,0,0-1.7,3.69c0,1.23.14,4.67.28,8.3s.31,7.67.31,9.09c0,3.74-3.88,5.48-6.51,5.48-3,0-3.41-1.38-3.71-3.49-.66-3.28-2.78-3.73-5-3.73H683.4c-1.58,0-3.77.27-4.66,2.57l-.12.28C677.22,299.9,675.9,302.81,670,302.81Z"/><path class="cls-1" d="M789.63,282.89c-1.34-.6-5.3-10.57-5.3-12.68,0-.69.16-.76,5.7-1.16l.56,0c13.91-.88,14.52-2.49,14.52-7.93v-28c0-3.46-.35-5.72-5.13-5.72a66.91,66.91,0,0,0-7.45.3h0c-.27,0-1,.09-2,.24-.61.09-1.37.19-1.53.19s-.25,0-.64-.65l-.06-.1-2.53-3.44a2.71,2.71,0,0,1-.28-.41c.59,0,2.18.16,3.84.29,3.88.31,9.18.73,10.72.73,5.28,0,5.28-2.42,5.28-10.44,0-10.85-.08-24.18-.45-26.05-.59-3-3.55-3-5-3-1.77,0-11.28.71-11.68.74s-.44,0-.8-.61l-2.51-3.4a4.09,4.09,0,0,0-.27-.45c.65,0,1.79.14,2.81.22,1.25.11,2.42.22,2.87.22l.75,0c6,.29,11.58.55,17.38.55h2.8c5.68,0,6.41,0,7.74-1.17.28-.3.64-.76,1.09-1.33,1.06-1.35,4.29-5.45,5.17-5.45,1.15.29,11.58,7.66,11.82,9.17,0,1.42-2.11,1.48-6.51,1.48H818.55c-1,0-3.49,0-4.37,2.44-.31,1-.47,7-.47,18v15.77c0,2.14.88,3.22,2.63,3.22a5.48,5.48,0,0,0,3.79-1.79c.29-.29.79-.94,1.43-1.77,1-1.28,3.27-4.27,3.94-4.4,1.42.4,10.89,7.85,11.06,9.17,0,1.5-1.58,1.64-6.07,1.64H818.7c-5.14,0-5.14,1-5.14,16.92,0,.34,0,2.57.05,5.34,0,4.51.1,10.45.1,11.91v.11c.15.72.39,1.93,1.88,1.93s6-1.67,12.24-4c3.33-1.26,7.06-2.66,8.17-2.88-1.64,2.85-22.39,12.76-32.55,17.62-6.35,3-10,4.77-10.75,5.36-.22.21-.51.54-.85.93A18,18,0,0,1,789.63,282.89ZM855,181.51c-5,0-5,2.15-5,10.14,0,12,0,13.25,5,13.25h10.61c5,0,5-1.79,5-13.39,0-7.89,0-10-5-10Zm29.48,0c-5.43,0-5.43,1-5.43,13.24,0,8.2,0,10.15,5.43,10.15h10.17c5.43,0,5.43-1.8,5.43-11.77s0-11.62-5.43-11.62ZM855,207.59c-5.14,0-5.14,1.15-5.14,15.16,0,8,0,10.45,5.14,10.45h10.61c5.14,0,5.14-2.06,5.14-15.46,0-7.79,0-10.15-5.14-10.15Zm29.48,0c-5.43,0-5.43,2.34-5.43,11,0,13.19,0,14.57,5.43,14.57h9.43c5.51,0,5.72-1.77,5.72-15.61,0-7.68,0-10-5.43-10ZM824,294c-.15,0-.3-.1-.72-.66l-2.5-3.39a2.7,2.7,0,0,1-.34-.41c.63,0,1.8.13,2.86.23,1.28.11,2.39.2,2.77.2,9.86.59,14.52.59,18.28.59h21.22c5.14,0,5.14-2.78,5.14-11,0-13.19,0-14.57-5.29-14.57h-3.53c-7.21,0-13.51.17-16.85.45h0c-.2,0-.68.05-1.42.15-.51.06-1.14.14-1.33.14s-.31-.1-.72-.66l-2.66-3.4-.26-.4c.53,0,1.63.12,2.71.21,1.3.11,2.53.22,3,.22,8.68.44,13.47.59,18.27.59h2.8c5.14,0,5.14-1.68,5.14-12.65,0-9.58,0-10.58-.49-11.72-1.07-2-3.59-2-4.94-2h-9.58c-3.36,0-4.89,0-5.57,3.56-.8,5.3-1.6,8.53-7.55,8.53-1.52,0-2.23-.33-2.23-3.41,0-.74.15-2.81.3-4.81s.28-3.81.28-4.48c.16-4.23.74-30.94.74-32.72,0-8.41-.36-16.43-1-23.2-.18-1.06-.74-4.73-.74-5.39,0-.09,0-.22,0-.31a44.79,44.79,0,0,1,4.63,2c1.62.76,3,1.42,3.61,1.62,2.66,1,4.81,1.35,9.17,1.35H893c2.9,0,4.67-.33,6.85-2.2l.78-.67a17.56,17.56,0,0,1,3.15-2.44c1,.07,10.76,4.41,10.76,7,0,.82-.48,1.15-2.72,2.55l-.11.07c-2.45,1.47-2.62,3.34-2.77,5-.15,1.85-.45,15.4-.45,22.16,0,2.13.12,8,.23,13.69.11,5.46.22,10.61.22,12.4,0,4.32-2.14,6.51-6.36,6.51-2.05,0-2.13-.08-3.94-4.13l-.12-.26c-1-2.4-3.1-2.4-4.94-2.4H884c-5,0-5,1.8-5,11.77,0,11.76.36,12.62.48,12.9.75,1.67,2.19,1.67,5.68,1.67,4.37,0,5.4-.3,6.3-1.19.31-.31.84-1,1.51-1.8,1.19-1.46,4-4.87,4.73-5,1.15.3,11.71,7.67,11.95,9.18,0,1.42-2.16,1.48-6.65,1.48H884c-5,0-5,2.6-5,10.3,0,10.18,0,11.25.15,12.18.29,1.43,1.36,3.12,4.84,3.12h9.87c6.68,0,7.23,0,10.2-4.37,3-4.64,3.39-5.06,4.24-5.06s3.1,1.7,6.27,4.95,4.79,5.61,4.81,6.13c0,.95,0,1.05-6.21,1.05H843.76c-3.67,0-10.48,0-15.81.3h-.07l-.07,0C827.43,293.67,824.35,294,824,294Z"/></g></g></svg>