<svg xmlns="http://www.w3.org/2000/svg" viewBox="0 0 314.57 288.15"><defs><style>.cls-1,.cls-2{fill:#fff;}.cls-2{opacity:1;}.cls-3{fill:none;stroke:#fff;}</style></defs><g id="レイヤー_2" data-name="レイヤー 2"><g id="レイヤー_1-2" data-name="レイヤー 1"><path class="cls-1" d="M310.91,41.38c.71,0,.71.71.71,1s-.85,6.48-.87,6.56c-.13.4-.45.4-3.38.56-.76,0-1.58.13-1.95.18-.58.08-1.53.24-1.71.24s-.74,0-.74-.9-.21-5-.21-5.85,0-.82,2.48-1.21C305.85,41.85,309.67,41.38,310.91,41.38Zm-7.54-.4c-.64,0-.66,0-1.35-.6a2.6,2.6,0,0,0-1.82-.61c-.36,0-1.1.4-1.1.66a.18.18,0,0,0,.1.16,2.47,2.47,0,0,1,1.06.89c.89,1.24.95,5.14.95,9.76,0,.31,0,1.58.81,1.58.58,0,.66-.21,1.16-1.32.24-.5,4.88-.74,5.33-.74a25.55,25.55,0,0,1,3.27.24c.23,0,1.37.34,1.6.34s.5-.13.5-.45a.8.8,0,0,0-.31-.55c-1.27-.89-1.4-1-1.4-1.37s1-5.11,1.82-6.12c.47-.63.58-.73.58-1.05,0-1.13-2.19-2.4-2.5-2.4s-.29.05-1.19.5A54.78,54.78,0,0,1,303.37,41Zm-31.16-1.87c-.16,0-.24.08-.24.58,0,1.45,2.11,2.77,2.72,2.77a9.47,9.47,0,0,0,1.32-.58A86.54,86.54,0,0,1,285.5,40c.13,0,.58,0,.58.48a15.14,15.14,0,0,1-1.8,4.45c-2.11,3.74-5.82,7.22-10.41,10.44-.26.18-.34.24-.34.34a.17.17,0,0,0,.18.16c.27,0,9.47-3.69,13.6-12.28a4.4,4.4,0,0,1,1-1.66c.48-.48.61-.61.61-.95s-.16-.66-1.35-1.72c-.81-.71-1.23-1.08-1.81-1.08-.19,0-.29.06-1.11.42-1.14.51-8.86,1.24-9.94,1.24a6.19,6.19,0,0,1-2.19-.55C272.5,39.27,272.26,39.11,272.21,39.11Zm19-3.21a1.76,1.76,0,0,1,1.68,1.66,1.62,1.62,0,0,1-1.63,1.6,1.64,1.64,0,0,1-1.72-1.58A1.7,1.7,0,0,1,291.22,35.9Zm0-.9a2.5,2.5,0,0,0-2.58,2.5,2.54,2.54,0,1,0,5.08,0A2.45,2.45,0,0,0,291.27,35Zm-34.95,4.56c.31,0,.4.12.4,1.54A13.5,13.5,0,0,1,254.41,48c-1.64,2.46-2.2,2.75-2.89,2.75-1.44,0-2.05-2.11-2.05-3.64C249.47,42.61,254.07,39.56,256.32,39.56Zm1.32-.07c6.45,0,6.55,5.62,6.55,6.55,0,5.88-5.13,7.91-7.59,8.88-.59.24-.64.26-.64.33s.15.17.24.17a14.48,14.48,0,0,0,3.92-.88,8.8,8.8,0,0,0,6-8.31A7.41,7.41,0,0,0,262,39.35a7.72,7.72,0,0,0-3.81-.76,9.79,9.79,0,0,0-7.54,3.07,8.35,8.35,0,0,0-2.62,6C248,50.57,249.39,53,251,53c1,0,2.16-.57,4.05-3.45,2.08-3.15,2.43-5.34,2.43-6.93a17.3,17.3,0,0,0-.24-2.55c0-.09,0-.19,0-.26S257.17,39.49,257.64,39.49Z"/><path class="cls-2" d="M65.44,55.41c-1,0-1.06-1.08-1.06-1.55,0-.84.22-3.52.38-5.48.09-1,.16-2,.18-2.33.12-5.14.31-31.88.31-37.6a49.12,49.12,0,0,0-.31-5.82A4,4,0,0,0,64.79,2c0-.14-.09-.32-.1-.38a16.47,16.47,0,0,1,3.75,1.71l.22.12a4.82,4.82,0,0,0,1.9.39h3.82a2.8,2.8,0,0,0,2.12-.55A3.22,3.22,0,0,0,76.73,3a8.61,8.61,0,0,1,.9-.91c.68.3,4.19,2.14,4.33,2.66S81.57,5.42,80.6,6c-.37.19-.84.85-4.49,6L74.5,14.23c-1.7,2.41-1.84,2.6-1.84,3.09,0,.67.3.91,1.45,1.81l.06.05A14.1,14.1,0,0,1,80,30.39c0,6.67-4.54,9.43-7,9.43-.46,0-.46,0-.57-.6a9.61,9.61,0,0,0-2.21-3.87l-.06-.07-.41-.43.25,0a20.76,20.76,0,0,0,3.12.24,2.53,2.53,0,0,0,2.43-1c.26-.38,1.14-1.89,1.14-5.12,0-6.06-2.6-8.8-3.58-9.84-1.24-1.36-1.29-1.6-1.29-2.05a37.92,37.92,0,0,1,1.52-4.05c1.38-3.44,2.36-5.94,2.36-6.73C75.72,5,74.48,5,74,5H70.8a1.88,1.88,0,0,0-2.15,1.88c-.24,4.76-.24,14.54-.24,19.8,0,6.5,0,15.41.24,21.45,0,.35.07,1.31.13,2.25s.12,1.76.12,2.05C68.9,54.6,66.83,55.41,65.44,55.41Z"/><path class="cls-2" d="M47.14,55.35c-.55,0-.74-.15-2.47-2.08a11.85,11.85,0,0,0-3.73-2.09c-.81-.33-.94-.48-1-.53a8.76,8.76,0,0,1,2.42-.24h0c2.9,0,4.62-.37,5.12-1.09.41-.54.6-2.31.6-5.56,0-5.38,0-12.07-.25-13.41-.22-1.56-1.52-1.56-2.15-1.56H37a1.27,1.27,0,0,0-1.47,1.41c0,.95.4,1.21,2.33,2.47,4.69,3,8.4,5.39,8.4,9.42,0,1.64-.94,3-2,3-.8,0-1.43-.77-2-2.42-1.69-5.08-6-10.15-6.57-10.15s-.69.59-.76.84l0,.07c-1.18,4.34-2.69,6.58-6.46,9.62a24.7,24.7,0,0,1-4.28,2.6h0c.2-.32,1.28-1.44,2-2.2a21.75,21.75,0,0,0,1.48-1.61c2.28-3,4.06-8,4.06-11.23,0-1.84-1.19-1.84-1.91-1.84H23c-2,0-2.15,1-2.15,2.14v.62c0,.68,0,2.8,0,4.93s0,4.25,0,4.93,0,2.09.09,3.74.09,3.46.09,4.08v3.88a2.8,2.8,0,0,1-2.65,2.23c-1.13,0-1.68-.73-1.68-2.23,0-.37.09-1.42.17-2.44s.14-1.81.14-2.12c.06-3.17.12-12.64.12-12.94a69.59,69.59,0,0,0-.37-7.93c-.15-.56-.28-1.11-.37-1.66,0-.19.36-.21.51-.21a6.37,6.37,0,0,1,2.95,1.25,3.14,3.14,0,0,0,1.85.6H30c2,0,2-1.56,2-2.4,0-6.27-.09-7.07-2.4-7.07H26.44c-5,0-7,.1-7.85.18h0l-.64.06-.62.06c-.08,0-.16-.07-.39-.3l-1.15-1.4a1.53,1.53,0,0,1-.13-.16c.29,0,.83.06,1.31.1s1.1.08,1.28.08c2.81.18,5.36.25,8.51.25h15.4c1.68,0,3.76,0,4.51-1l.22-.34c1.18-1.76,1.26-1.84,1.74-1.84.63.06,5.32,3.17,5.44,3.77s-1.3.56-3.09.56H38.09c-2.28,0-2.28.7-2.28,3.68,0,3.65,0,4.23.07,4.36.17,1.25,1.13,1.43,2.14,1.43h6.84a2.23,2.23,0,0,0,2.49-1.36c.24-.54.5-1,.9-1a23.51,23.51,0,0,1,2.4,1.09l.89.43.1,0c1.35.65,2.1,1,2.1,1.46s0,.44-1.33,1.48c-.67.55-.76,2.4-.76,4.31,0,1.08.08,4,.16,6.9S52,46.4,52,47.33c0,4.19-.38,5.44-2.06,6.71A6.68,6.68,0,0,1,47.14,55.35Z"/><path class="cls-2" d="M77.8,54.12l1.15-.5c.9-.4,1.84-.8,2.14-1,5.47-3.29,8.8-8.46,10.16-15.82.26-1.56.45-3.14.56-4.71A1.25,1.25,0,0,0,90.4,30.7c-.16,0-3.48.07-4.88.13a10.38,10.38,0,0,1-1.3.18c-.09,0-.15-.07-.32-.29l0,0-1.24-1.43-.12-.16c.28,0,.78.06,1.27.12s1.15.12,1.38.12c3.17.13,5.69.19,8.44.19h13.13a10.74,10.74,0,0,0,2.14-.07c.51-.15,1.25-1.09,2.26-2.4a11.35,11.35,0,0,1,1.11-1.34c.65.23,5.4,3.5,5.4,4.49,0,.33-.15.38-1.3.43h-.14c-.67.06-3.26.06-4.11.06h-6.72c-1.72,0-1.72.58-1.72,2.71,0,9.51.15,14.72.45,15.49.51,1.34,3.22,1.44,4,1.44,3.32,0,3.8-1.81,4.36-3.91.08-.35.21-1.08.36-1.92.22-1.2.6-3.26.84-4.13v0c0,1.15.6,4.51,1.54,5.52l.85.79.82.76a1.23,1.23,0,0,1,.3.71,6.42,6.42,0,0,1-1.85,3.4c-1.86,2-5.54,2.2-7,2.2-2.1,0-7.06-.25-7.72-2.6-.33-1.28-.42-7-.42-9.79V31.74c-.17-1-1.06-1-1.6-1H95.33c-.81,0-1.54.05-1.54.67,0,.45.85.71,1.55.85,1.33.45,1.54.59,1.54,1.06,0,.2,0,.21-1,1.12-.49.57-.56.81-1.05,2.9C92.91,45,90.24,47.71,89.09,48.85l0,0C86,51.92,81.36,54.06,77.8,54.12Z"/><path class="cls-2" d="M.68,54.12v0a38.35,38.35,0,0,1,2.11-3.61c.73-1.18,1.42-2.3,1.63-2.75a42.48,42.48,0,0,0,4.27-18c0-.28,0-.8-.42-.8-.58,0-4.52,6.37-4.73,7.33l-.09.33c-.22.87-.45,1.77-.66,1.77a9.74,9.74,0,0,1-.6-1.6L2,36.29c-.08-.22-.17-.51-.28-.84-.35-1.1-.79-2.46-1-3a6.7,6.7,0,0,1-.28-.79.1.1,0,0,1,.07-.09,3.25,3.25,0,0,1,.35.11,2.69,2.69,0,0,0,.69.19c1,0,4.21-2.24,5.33-3.13,1.94-1.62,1.94-2.15,1.94-4.38C8.81,19.06,8.67,12,8,8.9A8.61,8.61,0,0,0,7.63,8a9.75,9.75,0,0,1-.55-1.48c0-.29.13-.32.26-.32,1,0,3.92,1.34,4.63,1.7a6.48,6.48,0,0,0,2.83.65h9.67c2.39,0,2.51-.94,2.51-3.63,0-.8-.12-2.49-.18-2.88,0-.14-.15-.38-.32-.77a7.5,7.5,0,0,1-.36-.87,1.09,1.09,0,0,1,.56-.11C28,.25,33,1.41,33,2.1a6.81,6.81,0,0,1-1.27,1.24c-.64.49-.7,2.36-.7,3.14,0,1.89.85,2,2.14,2h9.06c2.91,0,3.21,0,4.45-1.9s1.3-2.05,1.9-2.05c.9,0,6.54,3.4,6.54,4.51,0,.59,0,.62-3,.62H15c-2.57,0-2.57.76-2.57,5v.37c-.11,18.75-.14,23.21-4.46,30.81C5.61,49.84,1.34,54,.68,54.12Z"/><path class="cls-2" d="M5.12,23.06c-1.11,0-1.25-.24-2.48-4.39-.13-.41-.57-1.35-1.08-2.44A28,28,0,0,1,0,12.58c1.22.18,6.79,3.94,6.79,8.26C6.79,22.23,5.94,23.06,5.12,23.06Z"/><path class="cls-2" d="M88.18,21.09c-.08,0-.16-.07-.39-.3l-1.15-1.4-.13-.16,1.31.09c.56.05,1.1.09,1.28.09l1,0c2.64.11,4.91.21,7.48.21h3.32a6,6,0,0,0,2.06-.14c.41-.11,1-.89,2-2.06a14.58,14.58,0,0,1,.94-1.12c.6.26,4,3,4,3.7s0,.74-3.58.74h-9c-5,0-7,.1-7.85.19h0L88.8,21Z"/><path class="cls-2" d="M83,16.1a1.92,1.92,0,0,1-1.91-1.67c0-.89.18-1.13,2.59-4.1a6.88,6.88,0,0,0,1.47-4.28,8.42,8.42,0,0,0-.13-1,6.8,6.8,0,0,1-.11-.72c.61.25,1.64,2.36,2.06,3.75a1.33,1.33,0,0,0,1.52,1h5.67c2.21,0,2.21-1,2.21-3.07a22.76,22.76,0,0,0-.32-4.44V1.5a4.64,4.64,0,0,1-.34-.9,0,0,0,0,1,0,0h.18c1,0,6.05,1,6.05,1.79,0,.18,0,.2-.83.79s-.77.86-.77,3.71c0,1.63.57,2.21,2.21,2.21h6.53A1.63,1.63,0,0,0,111,7.8c.38-.9.54-1,.62-1,.33.15,2.35,1.53,3.57,2.37.72.5,1.34.92,1.62,1.1.48.36.82.66.82,1.28s-.44,1.06-1.3,1.06c-3.38,0-3.63.1-3.73.14-.45.17-1.78.95-3,1.64-.57.33-1.19.7-1.53.88l.11-.15a2.11,2.11,0,0,0,.18-.26,11.84,11.84,0,0,0,1.38-3.55c0-.48-.2-1-1.16-1H88.49c-1.11,0-1.28.48-1.59,1.65C86.38,14.18,84.59,16.1,83,16.1Z"/><path class="cls-2" d="M204.85,22.81c-.66,0-2.21,0-2.21,2,0,5.51.1,5.78,2.09,5.78h20c2.09,0,2.09-.78,2.09-4.05,0-3,0-3.76-2.21-3.76Zm-4,17.81c-.82,0-1.42,0-1.92.72-.08.15-.29.5-.29,7.16,0,1,0,2.27,2,2.27H229.5c1.83,0,2.08-1,2.08-2,0-4.44,0-6.83-.13-7.1-.29-1-1.5-1-1.95-1Zm-5.05,14.79c-1.61,0-1.61-1.17-1.61-1.73,0-.13,0-.89.1-2.46v-.11c.11-2.52.26-6,.26-7,0-.38,0-1.35-.07-2.48l0-.44c-.06-1.61-.1-2.78-.1-3.24s.08-.63.32-.63a17.57,17.57,0,0,1,4,1.52,5.5,5.5,0,0,0,2.93.58h4.75c1.35,0,2.42,0,3.23-1.55a14.15,14.15,0,0,0,1.14-4.73c0-1.35-.76-1.35-2.28-1.35h-3.69c-1.41,0-1.55.26-2,1.5-.33,1-1.7,1.15-2.49,1.15-1,0-1.6-.38-1.74-1.16a35.83,35.83,0,0,1,0-3.63v-.15c0-.35,0-.68,0-.86s0-.8,0-1.68V25.92c0-1.31,0-2.93,0-3.79a8.31,8.31,0,0,0-.11-.93v0c-.05-.37-.12-.88-.12-1s0-.44.25-.44a9.81,9.81,0,0,1,2.14,1h0l0,0,0,0h0a10.24,10.24,0,0,0,1.35.66,5.58,5.58,0,0,0,2.29.26h19.16c2.65,0,2.92,0,3.48-.49a8.25,8.25,0,0,0,.58-.62l0,0h0c.4-.47,1.36-1.56,1.64-1.56.64,0,3.27,2.87,3.27,3.83,0,.32-.08.45-.92.9s-.86.87-.86,3.72a28.43,28.43,0,0,1-.29,4.71,3,3,0,0,1-2.64,1.65h0c-.77,0-.89-.25-1.19-1.08a1.6,1.6,0,0,0-1.71-.9h-6.9a3.07,3.07,0,0,0-2.76,1.13c-3.65,4.14-4.07,5.17-4.07,5.58,0,.92,1,.92,1.9.92h15.4a11,11,0,0,0,3.06-.21,4.59,4.59,0,0,0,.84-.73h0a5.48,5.48,0,0,1,1.21-1c.44.05,3.52,2,3.52,3,0,.44,0,.5-.9,1.24l0,0,0,0a3.51,3.51,0,0,0-.4,1.72c0,.47.06,1.85.12,3.34V47h0c.05,1.39.12,3,.12,3.53,0,1.62,0,2.17-.85,3a4.16,4.16,0,0,1-2.69,1.29c-.94,0-1-.41-1.16-1.72v0c-.16-1-1.17-1-1.78-1h-29c-1.26,0-1.51.55-1.77,1.47A2.82,2.82,0,0,1,195.79,55.41Z"/><path class="cls-2" d="M167.39,4.82H158c-1.05,0-1.16.64-1.16.91C156.8,8,161.86,16,163.32,16s6-9.24,6-10.34C169.29,4.82,168.89,4.82,167.39,4.82ZM138.62,55.16c-.93,0-1.12-.47-1.12-1.18,0-.26,0-1,.06-1.64v0c0-.64.06-1.25.06-1.46.08-2,.12-8.83.12-20.21,0-.71,0-1.59-1.28-1.59a35.16,35.16,0,0,0-4.94,1l-.68.26-.11,0a15.45,15.45,0,0,1-2.41.8c-.57,0-1.69-4.12-1.79-5h0c0-.06,0-.17.07-.17.26,0,1.26.09,2.15.17,1,.09,2.22.2,2.59.2,1.54,0,2,0,8.27-9.6,1.47-2.2,3.57-6.39,3.59-6.43.29-.62.4-.77.45-.79.57.1,4.27,3.16,4.27,3.89,0,.42-.12.48-1.49.73l-.11,0,0,0c-.39.12-.86.28-2,1.6-3.47,3.81-6,6.54-8.37,8.86-.85.84-.93.93-.93,1.28,0,.54.41.54,1.16.54s4.85-.06,7.23-.24h.14c.7-.06,1.31-.1,1.31-.79,0-.1-.08-.48-.31-1.59-.12-.55-.26-1.2-.3-1.43h.06c.37,0,2.05,1.41,3.38,3.35.79,1.15,1,1.39,1.67,1.39,2,0,11.89-7.32,11.89-8.8,0-.1,0-.11-1.72-3.2l-.34-.61A36,36,0,0,1,155.85,6a1.5,1.5,0,0,0-1.65-1.16c-.31,0-1.22.07-2,.14s-1.41.11-1.6.11-.16-.07-.39-.3L149,3.43l-.09-.12,0,0,1.3.09h.15c.5,0,1,.08,1.14.08l1,0h0c2.62.11,4.88.21,7.43.21h7.15c1.68,0,2.14,0,2.82-.76l.09-.07c1.14-1,1.22-1.08,1.53-1.08.66,0,3.95,2.51,3.95,3.46,0,.29,0,.29-1.36,1.08-1.1.59-1.36,1-3.85,5.39h0a35,35,0,0,1-3.85,5.7,1.09,1.09,0,0,0-.31.77c0,1.2,7.39,5.48,11.45,6.64a33.18,33.18,0,0,0,3.54.86l.18,0c.58.11.85.18.85.4v.07a4.41,4.41,0,0,1-.73.19h0a10.73,10.73,0,0,0-3.22,1.39,6.91,6.91,0,0,0-.63.52,6.74,6.74,0,0,1-1.11.86c-1.32,0-6.17-2.5-11.47-7,0,0-.31-.29-.66-.58a2.36,2.36,0,0,0-.92-.58h-.06l0,0a14.2,14.2,0,0,0-1.63,1.06,32.19,32.19,0,0,1-11.57,5.51c-1,.3-1,1-1.09,1.69-.1,1-.67,2.61-2.23,2.61-1,0-1.17-.65-1.49-3.24-.12-.9-.19-1.44-.91-1.44a20.82,20.82,0,0,0-2.54.56,1.63,1.63,0,0,0-.84,1.71V45.54c0,.59.06,2.1.12,3.57s.12,2.75.12,3.21A3,3,0,0,1,138.62,55.16Z"/><path class="cls-2" d="M146.94,54a.47.47,0,0,1-.36-.25v0l-1.19-1.43-.15-.16,1.16.08c.6.05,1.23.1,1.46.1,1.72.12,4.85.24,8.44.24h3.08c.48,0,1.95,0,2.09-1.51,0-.14,0-1.17,0-2.48.05-2.49.13-6.26.13-7.15a1.84,1.84,0,0,0-2.08-2.09c-3.18,0-5.78.07-6.86.13a10.24,10.24,0,0,1-1.29.18s-.12,0-.35-.34l-1.18-1.42-.13-.16,1,.09c.5,0,1,.09,1.14.09.42.06,5.49.25,7.7.25.66,0,2,0,2-2,0-.52-.12-4.17-.24-6.24-.06-.32-.19-1.9-.19-2.26s0-.26.2-.26c.54,0,5.12.88,5.12,1.86a5.87,5.87,0,0,1-.72,1.1,4.81,4.81,0,0,0-.5.72c-.38.77-.38,3-.38,5,0,1,.23,2.09,2.08,2.09,2.35,0,4-.09,4.47-.49a7.52,7.52,0,0,0,.76-.94c.46-.61,1.52-2,1.86-2,.77,0,5.12,3.53,5.12,4.14s-1.31.5-3,.5H167c-1,0-2.14.22-2.14,2,0,.74.06,3.39.11,5.72,0,1.76.07,3.27.07,3.59a1.79,1.79,0,0,0,2.09,2h3.2c2.72,0,3.13,0,4.07-1.13l.21-.24c1.51-1.73,1.67-1.89,2.19-1.89.7,0,4.7,3.32,4.76,4,0,.44-1.31.44-3,.44H156c-1.54,0-5.62,0-7.79.19h0l-.65.06Z"/><path class="cls-2" d="M127.1,51.93c.1-.28.47-1.14.72-1.73s.52-1.2.6-1.44l.08-.22c1.88-5.6,2.83-10.21,2.83-13.72a2.46,2.46,0,0,0,0-.26s0-.07,0-.1a13.18,13.18,0,0,1,2.22.77l.13.06c1.37.6,2.2,1.32,2.2,1.93A8.11,8.11,0,0,1,134.79,39a7.86,7.86,0,0,0-.46.69c-.24.45-.75,1.73-1.24,3-.39,1-.75,1.9-.92,2.22C129.5,50.17,127.6,51.73,127.1,51.93Z"/><path class="cls-2" d="M147.73,45.43c-.78,0-.86-.14-2.1-3.73l0-.05c-.11-.31-.39-1.06-.72-1.92-.5-1.32-1.26-3.31-1.3-3.52s0-.09,0-.09h0c.62,0,2.42,1.53,3.1,2.11l.14.11c1.58,1.29,3,2.61,3,4.57A2.56,2.56,0,0,1,147.73,45.43Z"/><path class="cls-2" d="M189.94,23.18a2,2,0,0,1-2.1-2.22c0-.76.18-1.06,1.57-3.4l.55-.92a13.56,13.56,0,0,0,1.88-5.77c0-.44.1-.53.1-.53a8.47,8.47,0,0,1,1.16,2.07,7.21,7.21,0,0,0,.47.92c.5.8.85.9,3.09.9h21.5c2.91,0,3.38-.18,6.06-4.93,1.4-2.49,3.6-7,3.73-8.22a3.31,3.31,0,0,1,.13-1h.06c.59.07,5.56,3.42,5.56,4.2,0,.35-.21.42-1.53.69l-.26.06c-1.09.19-1.64.29-5.48,4.19-3,3-3.39,3.71-3.39,4.05,0,.92.78.92,1.77.92h8.32c2,0,2.2,0,2.74-.2a3.38,3.38,0,0,0,.76-.66,4.6,4.6,0,0,1,.78-.69c.52,0,5.59,3.63,5.59,5.44a1.19,1.19,0,0,1-1.36,1.17c-.15,0-.61-.05-1-.09s-.77-.09-.89-.09c-1,0-2.09.39-4.17,2.28l-.07.07c-1,.89-1.11,1-1.37,1h-.07a.48.48,0,0,1,0-.12v-.06c0-.09.23-.75.44-1.38a25.5,25.5,0,0,0,1.22-4.36c0-1.16-.58-1.16-2.51-1.16H197c-2.2,0-2.73,0-3.07,1.86C193.18,21.36,191.38,23.18,189.94,23.18Z"/><path class="cls-2" d="M134.73,20.35c-.88,0-1.28-.56-4.64-5.72l-.09-.15c-.12-.19-.45-.66-.82-1.2s-.8-1.15-1-1.51a23.56,23.56,0,0,1,2.59,1,7.19,7.19,0,0,0,1.53.58c1.39,0,4.5-9.34,4.5-11.82a3.85,3.85,0,0,1,.05-.94c.7.18,5.44,1.84,5.44,2.73,0,.23-1,1-1.31,1.28s-.37.31-.46.4c-.76.8-2.92,3.78-4.5,6-.64.88-1.14,1.58-1.38,1.89l-.14.19a1.46,1.46,0,0,0-.38,1.47l.46-.1-.39.18a14.08,14.08,0,0,1,1.15,1A3.12,3.12,0,0,1,136.46,18C136.46,19.13,135.81,20.35,134.73,20.35Z"/><path class="cls-2" d="M203.37,11.35c-1.2,0-1.76-1-2.31-2.26A14.6,14.6,0,0,0,195.67,3l-.14-.09a6.54,6.54,0,0,1-1.08-.73.32.32,0,0,0,0-.06.9.9,0,0,1,.45-.09c6.63,0,10.86,4,10.86,6.72A2.52,2.52,0,0,1,203.37,11.35Z"/><path class="cls-2" d="M216.87,10.25c-1.41,0-2.06-1.29-2.55-2.68a18.65,18.65,0,0,0-3.81-6.43A7.85,7.85,0,0,1,209.66,0a1,1,0,0,1,.24,0c1.77,0,8.82,3.08,8.82,8C218.72,9.35,218,10.25,216.87,10.25Z"/><path class="cls-1" d="M310.91,273.23c.71,0,.71.71.71,1s-.85,6.49-.87,6.57c-.13.39-.45.39-3.38.55-.76,0-1.58.13-1.95.19-.58.07-1.53.23-1.71.23s-.74,0-.74-.89-.21-5-.21-5.86,0-.81,2.48-1.21C305.85,273.71,309.67,273.23,310.91,273.23Zm-7.54-.39c-.64,0-.66,0-1.35-.61a2.65,2.65,0,0,0-1.82-.61c-.36,0-1.1.4-1.1.66a.17.17,0,0,0,.1.16,2.49,2.49,0,0,1,1.06.9c.89,1.24.95,5.14.95,9.75,0,.32,0,1.58.81,1.58.58,0,.66-.21,1.16-1.32.24-.5,4.88-.73,5.33-.73a27.32,27.32,0,0,1,3.27.23c.23,0,1.37.35,1.6.35s.5-.14.5-.45a.8.8,0,0,0-.31-.56c-1.27-.89-1.4-1-1.4-1.37s1-5.11,1.82-6.11c.47-.63.58-.74.58-1.06,0-1.13-2.19-2.39-2.5-2.39s-.29.05-1.19.5A56.37,56.37,0,0,1,303.37,272.84ZM272.21,271c-.16,0-.24.07-.24.58,0,1.45,2.11,2.76,2.72,2.76a9.47,9.47,0,0,0,1.32-.58,86.16,86.16,0,0,1,9.49-1.89c.13,0,.58,0,.58.47a15,15,0,0,1-1.8,4.45c-2.11,3.75-5.82,7.23-10.41,10.44-.26.19-.34.24-.34.35a.17.17,0,0,0,.18.15c.27,0,9.47-3.69,13.6-12.28a4.58,4.58,0,0,1,1-1.66c.48-.47.61-.61.61-.95s-.16-.66-1.35-1.71c-.81-.71-1.23-1.08-1.81-1.08-.19,0-.29.05-1.11.42-1.14.5-8.86,1.24-9.94,1.24a6.19,6.19,0,0,1-2.19-.56C272.5,271.12,272.26,271,272.21,271Zm19-3.22a1.76,1.76,0,0,1,1.68,1.66,1.63,1.63,0,0,1-1.63,1.61,1.65,1.65,0,0,1-1.72-1.58A1.7,1.7,0,0,1,291.22,267.75Zm0-.9a2.5,2.5,0,0,0-2.58,2.51,2.54,2.54,0,1,0,5.08,0A2.45,2.45,0,0,0,291.27,266.85Zm-34.95,4.56c.31,0,.4.12.4,1.54a13.56,13.56,0,0,1-2.31,6.88c-1.64,2.46-2.2,2.74-2.89,2.74-1.44,0-2.05-2.1-2.05-3.64C249.47,274.46,254.07,271.41,256.32,271.41Zm1.32-.07c6.45,0,6.55,5.63,6.55,6.55,0,5.88-5.13,7.92-7.59,8.89-.59.23-.64.26-.64.33s.15.16.24.16a14.28,14.28,0,0,0,3.92-.87,8.82,8.82,0,0,0,6-8.32A7.41,7.41,0,0,0,262,271.2a7.75,7.75,0,0,0-3.81-.75,9.79,9.79,0,0,0-7.54,3.07,8.31,8.31,0,0,0-2.62,6c0,2.89,1.39,5.32,2.95,5.32,1,0,2.16-.57,4.05-3.45,2.08-3.14,2.43-5.34,2.43-6.92a17.45,17.45,0,0,0-.24-2.56c0-.09,0-.18,0-.26S257.17,271.34,257.64,271.34Z"/><path class="cls-1" d="M9.82,246.85c-1.27,0-1.37-.76-1.37-1.75,0-4.14,0-4.77-1.73-4.77-.39,0-1.43.06-2.43.13s-1.9.12-2.23.12c-.08,0-.16-.08-.39-.31L.51,238.86a1,1,0,0,1-.15-.16c.63,0,2,.1,3.38.19s2.56.18,3,.18c1.46,0,1.66-.92,1.66-1.92a12.83,12.83,0,0,0-.44-3.87,3.33,3.33,0,0,0-.45-.72c-.12-.18-.3-.43-.4-.61,1,.2,4.77,1.41,5.45,1.64.29.11.65.43.65.64s-.08.29-.92,1.07a2.19,2.19,0,0,0-.51,1.6c0,2.06,1,2.23,2.22,2.23h4c1.91,0,1.91-.8,1.91-3.16a6.79,6.79,0,0,0-.32-2.62,3.24,3.24,0,0,0-.15-.35,6.31,6.31,0,0,1-.27-.7h.19c.74.07,5.43,1,5.6,1.63,0,.22-.08.54-.73,1.19a2,2,0,0,0-.82,2c0,.91,0,2,1.85,2h1.12c.89,0,1.2-.24,2.37-1.84l.42-.54c.43-.54.68-.87.78-1,.6.23,4,3,4,3.79s0,.7-3.55.7H25.29c-1.92,0-1.92,1.06-1.92,2.28,0,1.84,0,2.62-.05,2.73-.15.58-1.32,1.13-2.38,1.13s-1.07-.18-1.07-1.62c0-3.83,0-4.52-1.91-4.52H14.05c-.65,0-2,0-2,1.79,0,.2,0,.77.06,1.32s.06,1,.06,1.1C12.19,246.33,10.06,246.85,9.82,246.85ZM24.33,288a1.07,1.07,0,0,1,.18-.19c3.39-2.22,6.63-6.19,8.88-10.89,5.49-11.29,5.55-26.16,5.55-26.31,0-1.73-1.3-1.73-1.85-1.73s-3.54.06-4.69.18h0a4.4,4.4,0,0,0-.56.08l-.34.05c-.11,0-.18-.08-.34-.3l0,0-1.19-1.44-.16-.16c.62,0,2,.1,3.48.2,1.71.11,3.48.23,4.14.23a1.66,1.66,0,0,0,1.78-1.23,76.9,76.9,0,0,0,.38-8.2v-.7a18.17,18.17,0,0,0-.13-2.87c0-.23-.1-.59-.18-1s-.19-.95-.19-1.1.23-.14.45-.14c1.12,0,6.28,1.5,6.28,2.43,0,.18-.26.42-.37.52l0,0-.24.15a10,10,0,0,0-1.08.74c-.62.78-.94,9.52-.94,9.61,0,1.73,1.58,1.73,2.1,1.73H47a1.75,1.75,0,0,0,1.88-.93l.17-.28c.88-1.52,1-1.77,1.24-1.77.52.15,4.55,2.95,4.67,3.5a7.37,7.37,0,0,1-1.32,1.31,5.72,5.72,0,0,0-.56.52c-.17.26-.17.42-.17,4.74,0,3-.48,20.89-2.59,26.49-2.26,5.94-6.26,6.24-7,6.24s-.82,0-.88-.73v0c-.08-1-.65-1.88-2-2.9l-.21-.13a7,7,0,0,1-1.57-1.05l1.12.16c1,.16,2.15.33,2.5.33,2,0,3.79-.36,5-4.71,1-3.41,2-13.06,2-26.95,0-1.61-.1-2.6-2.1-2.6H45.1c-1.72,0-2.21.26-2.41,2.14-1.26,12-2.94,20.91-7.42,28.15C31.4,285.36,25.09,288,24.35,288ZM9.88,251.13c-2.22,0-2.22.69-2.22,4.53,0,3,0,3.78,2.22,3.78h1.68c2.17,0,2.23-.61,2.23-4.28,0-3.25,0-4-2.23-4Zm9.38,0c-2.22,0-2.22.86-2.22,4,0,3.62,0,4.28,2.22,4.28h2.61c2.23,0,2.23-.78,2.23-4,0-3.62,0-4.28-2.23-4.28Zm-17,37c-1,0-2.18-5.15-2.24-5.8,0-.11,0-.12.13-.12a6.55,6.55,0,0,1,1.11.29,6.43,6.43,0,0,0,1,.26,3.55,3.55,0,0,0,1.09.13c.45,0,8.8-.43,9.23-.5,1.14-.3,1.14-.78,1.14-3.46,0-1.09-.14-2-1.8-2-1.93,0-5.16,0-7,.12h0a11.39,11.39,0,0,1-1.25.18c-.1,0-.17,0-.35-.32L2,275.47l0,0a.53.53,0,0,1-.14-.11c.51,0,1.84.18,2.13.24h0l2.31.08c1.8.07,4.27.17,5.51.17,1.86,0,1.86-.67,1.86-3.16,0-2.79,0-3.22-2.48-3.22-1.42,0-5.72,0-7.91.19h0l-.65.06-.63.06c-.08,0-.16-.07-.39-.3L.51,268.05l-.15-.16,1.28.08c1,.08,2.16.16,2.53.16,4.59.19,4.95.19,7.76.19,1.86,0,1.86-1.35,1.86-2.91,0-4.05,0-4.77-2.23-4.77H10c-1.71,0-1.73.49-1.85,2.89v.06c-.11,1.86-2.37,2.26-2.92,2.26-.83,0-.88-.08-.88-1.37,0-.83.06-3.1.13-5.29s.11-4.08.11-4.78A20.12,20.12,0,0,0,4,249a4.61,4.61,0,0,0-.21-.57,5.25,5.25,0,0,1-.33-.91.31.31,0,0,1,.26-.26,13.22,13.22,0,0,1,2.83,1.5l.65.4a4,4,0,0,0,2.73.77H21.81a3.19,3.19,0,0,0,1.93-.41,5.08,5.08,0,0,0,.59-.48,6.52,6.52,0,0,1,1.21-.91,14.71,14.71,0,0,1,3.79,3.5v.11a6.14,6.14,0,0,1-.71.28c-1,.29-1,.64-1.09,2.35,0,.41-.05,1.29-.08,2.31-.05,1.74-.14,4.66-.22,4.94-.27,1-2,1.25-2.25,1.25-.68,0-.87-.38-1-1.17a1.66,1.66,0,0,0-1.85-1.06H19.2c-2.16,0-2.16.8-2.16,3.46,0,3.57,0,4.22,2.35,4.22h1.3a11,11,0,0,0,2.16-.07,9.05,9.05,0,0,0,2.32-1.95c.38-.37.85-.83,1-.95.53.24,3.53,2.77,3.53,3.41s-.09.69-3.62.69H19c-1.65,0-1.91.7-1.91,2.35,0,3.12,0,3.6,1.1,3.9.33.13.47.13,2.18.13a2.35,2.35,0,0,0,1.52-.49,12.35,12.35,0,0,0,.94-1,17.76,17.76,0,0,1,1.47-1.57,17.75,17.75,0,0,1,2.07,1.54c1.4,1.18,1.77,1.78,1.77,1.94,0,.69-.46.76-2.62.76H19.14c-.91,0-2,0-2,1.79,0,2.39,0,3.28,1.54,3.28,1,0,4-.29,6.66-.55,1.73-.17,3.38-.33,4.08-.37-2.52,1.1-17,4.07-22,5.09-2,.42-2.94.6-3.07.64a5.18,5.18,0,0,0-.93.58A6.17,6.17,0,0,1,2.24,288.15Z"/><path class="cls-1" d="M112.66,249.46c-.84,0-1-.25-2.82-3.47l-.32-.57c-.85-1.52-1.08-1.88-1.89-2.1a1.28,1.28,0,0,0-.3,0c-1,0-4.53.33-7.32.6l-3,.28c-6.53.5-16.68,1.06-23.35,1.36-1.27.07-1.9.25-2.22.65l-.16.18c-.65.75-.79.91-1,.91-.83,0-2.92-5.28-3-5.86,0-.29.38-.3.38-.3a10.25,10.25,0,0,1,1.64.45,6.42,6.42,0,0,0,.74.22c3.23.32,8.77.57,9.54.57s2.33,0,4.51-5.12a37.16,37.16,0,0,0,1.26-3.71l.17-.59c.2-1.08.22-1.08.65-1.08a15.85,15.85,0,0,1,3.1,1.52c2.15,1.27,2.62,1.9,2.62,2,0,.39,0,.43-1.36.75H90.5c-1.69.42-6,4.73-6,5.45s1.08.86,1.54.86c1.5,0,5.65,0,9.67.07l8.77.06c1.55,0,2.73-.05,2.73-.68,0-.28-.54-1.11-2.51-3.85-.32-.46-.66-.92-.82-1.17a31.75,31.75,0,0,1,4.69,2.8c4.14,2.82,6,4.47,6,6.82C114.53,248,113.59,249.46,112.66,249.46Zm-34,2.6c-2.1,0-2.1.8-2.1,4.16,0,3.83,0,4.52,2.1,4.52h22.92c2.1,0,2.1-.8,2.1-4.15,0-3.83,0-4.53-2.1-4.53Zm-4.41,13.42c-1.81,0-1.81-1.06-1.81-1.63,0-.18,0-1.21,0-2.49,0-2,.08-4.77.08-5.58,0-1.65,0-3.9-.18-4.93A17.89,17.89,0,0,1,72,249c0-.12,0-.26.32-.26a10.3,10.3,0,0,1,3.26,1.23l.23.11a6.6,6.6,0,0,0,3.65.84h21.86a3.69,3.69,0,0,0,2.38-.55c.1-.1.22-.25.39-.46a7.89,7.89,0,0,1,1.19-1.28c.67.3,4.49,2.65,4.49,3.72,0,.31-.19.45-.88.87l-.18.11c-1.06.6-1.17.81-1.17,2.25,0,.46.06,1.76.12,3.13s.13,2.92.13,3.46c0,1.82-2.15,2.61-3.24,2.61-.55,0-.55,0-1-1.56l0-.12c-.3-1.11-1.51-1.11-2-1.11H78.88c-.89,0-1.86.1-2.16,1.3S76.19,265.48,74.22,265.48Zm19,9c-1.18,0-1.35-.5-1.87-2.63v0c-.28-1.15-1.15-3.21-3.65-6.52l-.12-.16-.08-.08a2.12,2.12,0,0,1-.21-.2,16.23,16.23,0,0,1,4.07,1.67c1.7,1,3.81,2.54,4.25,4.59a3.16,3.16,0,0,1-.64,2.54A2.2,2.2,0,0,1,93.22,274.48Zm22.3,7.15c-1.09,0-1.29-.44-2.34-3.08l-.05-.13A30.26,30.26,0,0,0,107,268.17l0,0a47.05,47.05,0,0,1,5.37,2.81c4.48,2.93,5.42,5.86,5.42,7.81C117.7,280.15,116.94,281.63,115.52,281.63Zm-50.8.56a1.93,1.93,0,0,1-1.87-1.88c0-1,.07-1.09,2.45-3.47l.4-.4A18.13,18.13,0,0,0,70,269.31l0-.1a11.76,11.76,0,0,1,.5,3.65C70.57,278.89,66.7,282.19,64.72,282.19ZM93.6,286c-10.92,0-12.06,0-14-.84-1.77-.73-2.59-2.23-2.66-4.88,0-.83.07-3.4.15-5.46,0-1.4.1-2.61.1-3.11,0-1.27-.13-2.66-.25-3.87-.06-.4-.24-2-.24-2.09s.09-.25.17-.26c.73.23,6,2.63,6,3.61a4.52,4.52,0,0,1-.85,1,4.8,4.8,0,0,0-.54.61c-.37.66-.55,3.4-.53,8.15v.23c.07,2.32,1.43,3.35,9.24,3.35,8.41,0,10.83-1.12,12-2.91a46.84,46.84,0,0,0,2.17-4.85l.64-1.54c.06.54.12,1.33.17,2,.08,1.14.17,2.23.25,2.61a5.63,5.63,0,0,0,1.3,2.4c.56.68.69.93.69,1.33C107.46,286,97.39,286,93.6,286Z"/><path class="cls-1" d="M123.88,249c.32-.55.77-1.35,1.22-2.12s.89-1.59,1.16-2l.09-.15c3.27-5.61,4.9-8.43,6-12.77l.1-.36a3.7,3.7,0,0,1,.23-.72c.54.12,5.32,1.66,5.59,2.3a10,10,0,0,1-1.55,1.13,6.34,6.34,0,0,0-1.92,2.68c0,.8.81.8,1.29.8H141c2.76,0,3.18,0,4.06-1.55.58-1,.83-1.12,1.09-1.12.55,0,3.93,2.5,3.93,3.3,0,.53,0,.57-3.06.57h-6.52c-.57,0-1.17,0-1.17.61,0,.19.16.4,1.3,1.47l.39.38c2.54,2.29,2.72,3,2.72,3.8a3.35,3.35,0,0,1-2.93,3c-.73,0-.79-.15-1.23-2.75l0-.15c-1-6.35-2.69-6.35-4.52-6.35s-2.09.24-3.85,2.45C127,246.52,124.79,248.45,123.88,249Zm2.36,13.3c-1.41,0-1.56-1.35-1.56-1.93a4,4,0,0,1,1-2.35c2.27-3.13,2.82-3.95,3.27-6,0-.08,0-.22,0-.39.06-.38.2-1.44.32-1.84a7.05,7.05,0,0,1,1.22,2.63,1.78,1.78,0,0,0,2,1.22h15.16c2.22,0,2.22-1.13,2.22-4.15,0,0,0-3.78-1.23-3.78a4,4,0,0,0-1.06.36l-.5.21c.28-.31.79-.84,1.6-1.65,3.94-4.07,7.34-9.39,7.52-11.08l0-.22c.22-1.68.23-1.68.54-1.68a25.53,25.53,0,0,1,2.88.86c2.35.86,2.54,1.42,2.54,1.58,0,.41,0,.44-1.34,1.18l-.28.16c-.71.39-1.55,1-1.55,1.7s.71.67,1.54.67h8.94c2.48,0,3.31,0,4.31-1.8s1.07-1.8,1.47-1.8,4.79,3.33,4.79,4.23c0,.53,0,.57-3.05.57h-9.25c-.43,0-1.55,0-1.55.92,0,.47.32.79,1.38,1.85,3,2.92,3.22,3.79,3.22,4.55a3.53,3.53,0,0,1-3.12,3.11c-1.37,0-1.43-1-1.43-3a12,12,0,0,0-1.66-6.28c-.75-1.1-1.66-1.1-2.81-1.1H159a3.59,3.59,0,0,0-2.83.93L154.82,241c-1.75,1.51-2.71,2.34-3.57,2.94l-.07.06c-.65.47-.9.65-.9,1.07s.35.55,1.49.85c3.31.92,3.54,1,3.54,1.57,0,.25,0,.27-.76.8s-.66.85-.66,3.05c0,1,0,2.23,2.1,2.23h14.16a2.48,2.48,0,0,0,2-.58,5.32,5.32,0,0,0,.36-.59,6.72,6.72,0,0,1,1-1.43c.27.15,1.29.83,2.12,1.38l1.5,1c2.2,1.47,2.87,1.92,2.87,2.85,0,1.24-1.09,1.5-2,1.5-.15,0-.74-.13-1.25-.23a12.06,12.06,0,0,0-1.54-.27c-.47,0-1.45.61-3,1.61a21.7,21.7,0,0,1-2,1.2c.1-.29.33-.84.52-1.31a11.78,11.78,0,0,0,.93-2.69c0-1.29-1.09-1.29-1.67-1.29H132.64c-1.43,0-1.66.71-1.85,1.81C130,261.1,127.57,262.31,126.24,262.31Zm17.2-2.11c-2.41,0-2.41.79-2.41,3.41,0,3,0,3.71,2.41,3.71H158c2.35,0,2.35-.84,2.35-3.34,0-3.05,0-3.78-2.35-3.78Zm.06,14.59c-2.18,0-2.28,1-2.28,4.16s.1,4.33,2.28,4.33h17.08c2.19,0,2.29-1,2.29-4.15s0-4.34-2.29-4.34Zm-5.58,13.36c-.56,0-1,0-1-1.81,0-.46.06-1.77.12-3s.13-2.73.13-3.24l0-.7c.07-2.4.17-6,.17-11.34,0-4.61-.08-6.47-.19-8,0-.14,0-.52-.12-1.13s-.13-1.1-.13-1.28,0-.25.14-.25a7.36,7.36,0,0,1,2.76.87l.37.16a7.44,7.44,0,0,0,3.39.58h14.09a2.77,2.77,0,0,0,2.76-1.24l.06-.09c.68-1.15.7-1.15,1-1.15.56.08,4.5,2.93,4.61,3.49a6.71,6.71,0,0,1-.79.84,4.32,4.32,0,0,0-.61.65c-.16.27-.22,1.27-.22,3.85,0,.21,0,.77,0,1.35s0,1.25,0,1.5a2.05,2.05,0,0,1-2.31,2.12,1.78,1.78,0,0,1-1.7-.77l-.11-.13c-.48-.84-1-.9-1.86-.9H143.38c-2.06,0-2.29.75-2.29,2.35,0,2.12.11,2.79,2.29,2.79h16.21a4.44,4.44,0,0,0,3.26-1.06,3.11,3.11,0,0,0,.22-.24,5.15,5.15,0,0,1,1.16-1.12c.63.22,4.5,2.71,4.5,3.79,0,.37-.17.5-1.15,1.24a1.68,1.68,0,0,0-.72,1.56c0,.52.06,2,.12,3.5s.13,3.22.13,3.83c0,1.57-1.63,2.3-2.74,2.3-1.26,0-1.44-.58-1.56-1.47a1.81,1.81,0,0,0-2.1-1.57H143.57a1.88,1.88,0,0,0-2,1.08l0,.12C141,286.92,140.41,288.15,137.92,288.15Z"/><path class="cls-1" d="M188.33,279.75c-.57-.25-2.23-4.45-2.23-5.34,0-.29.06-.32,2.4-.49h.23c5.86-.37,6.12-1.05,6.12-3.35v-11.8c0-1.45-.15-2.41-2.16-2.41a28.65,28.65,0,0,0-3.14.13h0c-.11,0-.42,0-.86.1l-.65.08c-.09,0-.1,0-.27-.28l0,0-1.07-1.45a1.44,1.44,0,0,1-.12-.17l1.62.12c1.64.13,3.87.31,4.52.31,2.22,0,2.22-1,2.22-4.4,0-4.57,0-10.19-.19-11-.25-1.24-1.5-1.24-2.09-1.24-.75,0-4.76.3-4.93.31s-.18,0-.33-.26l-1.06-1.43a1,1,0,0,0-.12-.19c.28,0,.76,0,1.19.09s1,.09,1.21.09l.31,0c2.51.12,4.88.23,7.33.23h1.18c2.39,0,2.7,0,3.26-.49.12-.13.27-.33.46-.56.44-.57,1.8-2.3,2.18-2.3s4.87,3.23,5,3.86-.89.63-2.74.63h-5a1.74,1.74,0,0,0-1.84,1,66.06,66.06,0,0,0-.2,7.6v6.64c0,.9.38,1.36,1.11,1.36a2.35,2.35,0,0,0,1.6-.75c.12-.12.33-.4.6-.75.41-.54,1.38-1.8,1.66-1.85.6.17,4.59,3.3,4.66,3.86s-.66.69-2.56.69h-5c-2.16,0-2.16.4-2.16,7.13,0,.14,0,1.08,0,2.25,0,1.9,0,4.4,0,5v.05c.06.3.16.81.79.81a28.35,28.35,0,0,0,5.16-1.7c1.4-.52,3-1.12,3.44-1.21-.69,1.2-9.43,5.38-13.72,7.42-2.67,1.28-4.2,2-4.53,2.26-.09.09-.21.23-.35.4A8,8,0,0,1,188.33,279.75ZM215.85,237c-2.1,0-2.1.9-2.1,4.27,0,5.05,0,5.58,2.1,5.58h4.47c2.1,0,2.1-.75,2.1-5.64,0-3.32,0-4.21-2.1-4.21Zm12.42,0c-2.29,0-2.29.42-2.29,5.58,0,3.45,0,4.27,2.29,4.27h4.29c2.29,0,2.29-.76,2.29-5s0-4.89-2.29-4.89Zm-12.42,11c-2.16,0-2.16.48-2.16,6.39,0,3.38,0,4.39,2.16,4.39h4.47c2.17,0,2.17-.86,2.17-6.51,0-3.28,0-4.27-2.17-4.27Zm12.42,0c-2.29,0-2.29,1-2.29,4.65,0,5.55,0,6.13,2.29,6.13h4c2.32,0,2.41-.74,2.41-6.57,0-3.24,0-4.21-2.29-4.21Zm-25.46,36.39c-.07,0-.13,0-.31-.28l-1.05-1.42a1.5,1.5,0,0,1-.14-.18l1.2.1c.54,0,1,.08,1.17.08,4.15.25,6.12.25,7.7.25h8.94c2.17,0,2.17-1.17,2.17-4.65,0-5.55,0-6.13-2.23-6.13h-1.49c-3,0-5.69.07-7.1.18h0c-.09,0-.29,0-.6.07l-.56.06c-.06,0-.13-.05-.3-.28l-1.13-1.43a.56.56,0,0,0-.11-.17l1.15.09c.55.05,1.06.09,1.26.09,3.66.18,5.68.25,7.7.25h1.18c2.16,0,2.16-.71,2.16-5.33,0-4,0-4.46-.2-4.94-.45-.83-1.51-.83-2.08-.83h-4c-1.42,0-2.06,0-2.35,1.5-.33,2.23-.67,3.59-3.18,3.59-.64,0-.94-.14-.94-1.43,0-.31.07-1.19.13-2s.12-1.6.12-1.89c.06-1.78.31-13,.31-13.78,0-3.55-.15-6.93-.44-9.78-.07-.44-.3-2-.3-2.27v-.13a19.32,19.32,0,0,1,2,.85c.68.33,1.27.6,1.52.69a9.55,9.55,0,0,0,3.86.57h15.09a3.79,3.79,0,0,0,2.89-.93l.33-.28a7.31,7.31,0,0,1,1.33-1c.4,0,4.53,1.86,4.53,2.93,0,.35-.2.48-1.15,1.07l0,0a2.32,2.32,0,0,0-1.17,2.11c-.06.78-.19,6.49-.19,9.33,0,.9,0,3.38.1,5.77s.09,4.47.09,5.23c0,1.82-.9,2.74-2.68,2.74-.86,0-.89,0-1.66-1.74l-.05-.11c-.43-1-1.31-1-2.08-1h-4c-2.11,0-2.11.76-2.11,5,0,5,.16,5.32.21,5.44.31.7.92.7,2.39.7,1.84,0,2.28-.13,2.66-.51.13-.13.35-.4.63-.75.5-.62,1.67-2.05,2-2.09.49.12,4.94,3.23,5,3.86s-.91.63-2.8.63h-8c-2.11,0-2.11,1.09-2.11,4.33a48.62,48.62,0,0,0,.07,5.14c.12.6.57,1.31,2,1.31h4.16c2.81,0,3,0,4.29-1.84S238,279,238.33,279s1.31.72,2.64,2.09a9.38,9.38,0,0,1,2,2.58c0,.4,0,.44-2.62.44H211.13c-1.54,0-4.41,0-6.66.12h-.06C204.25,284.3,203,284.42,202.81,284.42Z"/><line class="cls-3" x1="230.01" y1="215.47" x2="85.35" y2="70.81"/><line class="cls-3" x1="230.01" y1="70.81" x2="85.35" y2="215.47"/></g></g></svg>