<svg id="グループ_21097" data-name="グループ 21097" xmlns="http://www.w3.org/2000/svg" width="694" height="318.742" viewBox="0 0 694 318.742">
  <path id="パス_35933" data-name="パス 35933" d="M13.135,24.7c0,6.938-3.113,11.829-7.116,11.829A3.645,3.645,0,0,1,2.372,32.97c0-1.688.711-2.757,2.49-3.734,4.358-2.491,6.048-5.516,6.492-10.852,0-.444.891-.533.979-.089a24.218,24.218,0,0,1,.712,4.181H53.157a96.02,96.02,0,0,0,7.294-14.5A27.972,27.972,0,0,0,62.5,1.486c7.2,2.846,9.25,3.913,9.25,4.981,0,.977-1.067,1.6-3.736,1.69A86.348,86.348,0,0,1,56.094,22.476H70.412c3.025-3.2,3.469-3.558,4-3.558.712,0,1.423.535,4.8,3.825,1.69,1.69,1.956,2.313,1.956,2.935,0,1.334-.533,1.6-3.379,1.779-1.067,0-1.334.177-2.225,1.067a44.143,44.143,0,0,1-7.113,5.6c-.356.267-.979-.267-.8-.623A35.006,35.006,0,0,0,71.036,24.7ZM62.407,41.51c2.669-2.935,3.2-3.2,3.736-3.2s1.068.267,4.181,2.935c1.423,1.423,1.779,1.867,1.779,2.49,0,.533-.445,1.156-2.758,2.313-1.156,12.542-2.49,20.279-4.269,25.259-.979,2.935-2.311,4.981-4.536,6.316a11.614,11.614,0,0,1-5.781,1.512c-1.512,0-1.69-.179-2.046-1.868-.355-2.135-2.313-3.558-10.05-5.693-.621-.177-.444-1.422.177-1.334A106.17,106.17,0,0,0,55.471,71.3c2.488,0,3.113-1.244,4.534-6.136,1.335-4.092,2.046-9.517,3.025-21.436H40.706c-1.6,9.25-4.358,15.654-8.629,20.813C26.031,71.75,17.67,76.463,3.616,80.377c-.533.177-.979-1.067-.443-1.244,12.007-5.16,19.211-10.585,24.279-17.879a42.409,42.409,0,0,0,6.671-17.521H17.76a28.814,28.814,0,0,0-6.85.712l-.888-3.558a37.009,37.009,0,0,0,7.648.623H34.391a81.893,81.893,0,0,0,.711-9.873,33.344,33.344,0,0,0-.267-3.825c8.894,1.068,10.14,1.512,10.14,2.669,0,.89-.533,1.512-3.114,2.4-.177,3.113-.444,5.959-.8,8.627ZM21.939,14.916a23.185,23.185,0,0,0-5.6-10.761c-.267-.267.267-.8.623-.712,7.382,2.313,12.007,6.85,12.007,11.385,0,2.49-1.6,4.536-3.646,4.536C23.452,19.363,22.829,18.563,21.939,14.916Zm17.788-1.778a26.393,26.393,0,0,0-4.892-11.3c-.179-.267.267-.891.623-.712,7.026,2.935,11.3,7.65,11.3,11.919,0,2.579-1.6,4.536-3.558,4.536C41.062,17.584,40.261,16.605,39.727,13.138Z" transform="translate(0.67 0.471)" fill="#fff"/>
  <path id="パス_35934" data-name="パス 35934" d="M87.147,13.706H77.186a31.852,31.852,0,0,0-6.137.533l-.89-3.379a39.036,39.036,0,0,0,6.848.623h10.14v-.444c0-4.537-.089-8.1-.356-11.029,8.627.888,9.694,1.6,9.694,2.49,0,.623-.711,1.335-3.023,2.223v6.76h24.9v-.356c0-4.625-.088-8.094-.355-11.117,8.538.888,9.517,1.6,9.517,2.49,0,.623-.533,1.335-2.847,2.313v6.671h8.45c3.736-4.181,4.446-4.625,4.981-4.625s1.246.444,4.892,3.557c1.512,1.335,1.956,1.868,1.956,2.4s-.356.89-1.156.89H124.68v31.04h10.052c4-4.536,4.625-4.98,5.159-4.98.623,0,1.244.444,5.425,3.646,1.779,1.423,2.225,2.135,2.225,2.669s-.268.888-1.158.888H119.521a40.687,40.687,0,0,0,13.7,10.5,53.763,53.763,0,0,0,16.632,4.8c.533.088.445.977-.088,1.156-2.223.711-2.847,1.156-4,4.09-.444,1.246-.8,1.512-1.334,1.512a9.347,9.347,0,0,1-2.935-.977,50.167,50.167,0,0,1-11.561-6.85c-4.181-3.113-8.183-7.382-12.72-14.231H96.218c-6.136,10.5-16.1,18.146-30.063,23.036-.621.179-1.334-.978-.8-1.244C75.584,63.426,84.034,55.6,88.57,46.97H74.339a32.045,32.045,0,0,0-6.225.535l-.89-3.381a39.791,39.791,0,0,0,6.85.623H87.147Zm42.782,62.97c4.092-4.446,4.713-4.98,5.246-4.98.623,0,1.246.533,5.248,3.825,1.867,1.422,2.223,1.956,2.223,2.49,0,.623-.267.89-1.244.89H78.164a34.882,34.882,0,0,0-5.781.533l-.89-3.379a34.756,34.756,0,0,0,6.492.621h24.282V63.959H92.216a31.732,31.732,0,0,0-6.136.533l-.891-3.469a31.253,31.253,0,0,0,6.76.711h10.317v-2.4a73.422,73.422,0,0,0-.444-9.161c8.538.8,9.517,1.422,9.517,2.313,0,.621-.623,1.334-2.846,2.223v7.026h7.2c3.113-3.646,3.734-4.09,4.269-4.09.623,0,1.246.444,4.713,3.113,1.423,1.156,1.779,1.69,1.779,2.223,0,.712-.267.979-1.155.979H108.493V76.677Zm-11.564-62.97h-24.9v8.717h24.9Zm-24.9,19.567h24.9V24.646h-24.9Zm24.9,11.473V35.5h-24.9v9.25Z" transform="translate(28.409 -0.01)" fill="#fff"/>
  <path id="パス_35935" data-name="パス 35935" d="M150.367,57.31a156.959,156.959,0,0,1-19.034,5.159c-.623.089-.979-1.334-.356-1.512a174.918,174.918,0,0,0,19.39-7.115c-.091-2.225-.179-4.092-.356-6.137a41.636,41.636,0,0,1,7.026,3.025,158.411,158.411,0,0,0,15.21-8.539H137.913a37.833,37.833,0,0,0-5.959.535l-.89-3.381a37.39,37.39,0,0,0,6.76.623h26.061v-9.34h-15.3a38.644,38.644,0,0,0-5.871.535l-.89-3.291a35.719,35.719,0,0,0,6.583.533h15.476V27.336a50.668,50.668,0,0,0-.268-6.938c8.183.711,9.162,1.244,9.162,2.046,0,.533-.623,1.156-2.847,2.046V28.4h6.494c2.846-3.557,3.558-3.913,4.181-3.913.533,0,1.067.356,4,3.113,1.244,1.067,1.69,1.69,1.69,2.223s-.268.8-1.156.8h-15.21v9.34h5.6a70.093,70.093,0,0,0,8.094-6.581,55.977,55.977,0,0,0,9.7-10.763c5.781,3.113,7.113,4.181,7.113,5.159,0,.89-.888,1.246-4,1.246a85.308,85.308,0,0,1-12.186,10.94h14.5c3.734-4.625,4.357-5.069,4.89-5.069.624,0,1.158.444,5.159,3.913,1.691,1.423,2.046,2.046,2.046,2.579s-.265.8-1.156.8H181.14A124.975,124.975,0,0,1,165.753,51H190.39c2.579-2.846,3.113-3.2,3.646-3.2s1.156.356,3.823,2.579c1.424,1.067,1.781,1.6,1.781,2.135,0,.711-.268,1.067-2.4,2.667v5.693c0,10.672.444,15.83.444,17.343,0,2.135-1.244,3.113-4,3.113-1.867,0-2.669-.711-2.669-2.4V76.788h-34.33v1.956c0,1.6-1.423,2.579-3.914,2.579-1.867,0-2.757-.621-2.757-2.223,0-2.313.356-5.959.356-19.034Zm-6.494-37.622c0,1.955-1.244,2.667-3.558,2.667-1.956,0-2.667-.712-2.667-2.223,0-.89.177-3.379.177-8.983,0-4.625-.089-6.492-.355-10.584a58.178,58.178,0,0,1,7.2,3.291h51.941C199.107,1.1,199.641.832,200.174.832c.621,0,1.156.267,3.913,2.579,1.512,1.156,1.868,1.6,1.868,2.223s-.623,1.246-2.579,2.491v2.4c0,5.246.265,7.648.265,8.271,0,1.778-1.422,2.667-3.736,2.667-1.867,0-2.667-.623-2.667-2.313H143.873Zm0-13.608V16.93h13.608V6.08Zm16.988,47.139c-1.156.533-2.4.979-4.18,1.779v7.115h34.33V53.218Zm-4.18,21.346h34.33V64.337h-34.33ZM163.44,6.08V16.93h13.519V6.08Zm19.478,10.85h14.321V6.08H182.918Z" transform="translate(57.335 0.235)" fill="#fff"/>
  <path id="パス_35936" data-name="パス 35936" d="M216.25,29.906a5.323,5.323,0,1,1-5.355-5.355A5.3,5.3,0,0,1,216.25,29.906Z" transform="translate(90.444 10.83)" fill="#fff"/>
  <path id="パス_35937" data-name="パス 35937" d="M243.333,41.848a47.1,47.1,0,0,0-5.425.444l-.89-3.29a32.995,32.995,0,0,0,6.315.623H257.3V35.979a35.664,35.664,0,0,0-.444-5.516c8.361.8,9.339,1.512,9.339,2.313,0,.624-.624,1.335-2.847,2.225v4.625h9.161c2.937-3.646,3.736-4.181,4.269-4.181s1.335.356,4.625,3.113c1.512,1.246,1.868,1.868,1.868,2.4,0,.623-.267.89-1.158.89H262.367a56.375,56.375,0,0,1-6.671,8.538V67.642c4.181-1.246,8.451-2.581,12.808-4.181.446-.177.8.8.446,1.067A124.749,124.749,0,0,1,245.2,76.091c-.356,2.135-.89,2.846-1.69,2.846-.712,0-1.512-1.334-3.381-8.271,2.135-.177,4.181-.533,6.315-.89,1.068-.179,2.225-.445,3.291-.712V55.457a55.4,55.4,0,0,1-13.963,7.026c-.623.179-1.067-.888-.533-1.244,8.538-4.981,15.83-12.1,19.745-19.39Zm48.03-13.342a79.9,79.9,0,0,0,3.379,18.946c.267.977.533,1.867.89,2.846a61.885,61.885,0,0,0,3.825-8.183,42.722,42.722,0,0,0,2.134-7.827c6.671,2.4,8.45,3.379,8.45,4.448,0,.711-.712,1.156-3.114,1.512A75.6,75.6,0,0,1,298.39,56.7a37.353,37.353,0,0,0,9.6,12.273c1.779,1.423,2.4,1.6,2.846,1.6.8,0,2.4-2.934,4.981-10.05.177-.444,1.156-.089,1.068.356-.979,7.294-1.512,10.673-1.512,11.385,0,.888.265,1.334,1.334,2.579a3.264,3.264,0,0,1,.978,2.223,3.137,3.137,0,0,1-3.113,3.29c-1.956,0-4.892-1.423-7.915-3.736A46.55,46.55,0,0,1,294.03,62.216c-6.669,7.65-15.209,13.608-26.415,18.234-.533.177-1.156-.8-.711-1.067a82.67,82.67,0,0,0,24.547-22.413,47.485,47.485,0,0,1-2.134-5.693c-2.046-6.048-3.292-13.34-4.092-22.769H242.711a36.887,36.887,0,0,0-5.957.445l-.891-3.291a38.464,38.464,0,0,0,6.848.623h14.5V15.433H246.892a30.674,30.674,0,0,0-5.158.533l-.89-3.379a30.4,30.4,0,0,0,6.048.623h10.317V10.541c0-3.825-.088-6.494-.355-9.606,8.449.89,9.517,1.6,9.517,2.491,0,.621-.623,1.334-2.937,2.313V13.21h6.316c2.846-3.558,3.469-4,4-4,.621,0,1.246.445,4.625,3.2,1.423,1.068,1.779,1.69,1.779,2.223s-.267.8-1.158.8H263.434v10.85h21.614c-.267-4.8-.533-10.14-.623-16.1a50.806,50.806,0,0,0-.533-8.983c8.538,1.067,9.784,1.6,9.784,2.669,0,.711-.712,1.244-3.025,2.135,0,8.092.177,14.674.533,20.278H304.7c3.825-4.446,4.448-4.892,4.981-4.892.623,0,1.246.445,5.16,3.646,1.688,1.335,2.134,2.046,2.134,2.579s-.356.89-1.156.89ZM278.378,64.528c0,2.046-1.334,3.736-3.114,3.736-1.511,0-2.134-.711-3.378-3.469a39.986,39.986,0,0,0-11.919-14.142c-.267-.177.177-.8.533-.711a55.936,55.936,0,0,1,7.648,3.469A23.844,23.844,0,0,0,271,49.586a25.473,25.473,0,0,0,2.134-5.069c6.315,3.113,7.2,3.646,7.2,4.446,0,.712-.89,1.156-3.469,1.068A71.782,71.782,0,0,1,269.75,54.3C275.263,57.591,278.378,61.238,278.378,64.528Zm22.68-47.672c-1.067-3.2-3.914-7.294-5.869-8.717-.268-.177.088-.8.444-.712,7.115,1.691,11.74,5.516,11.74,9.517,0,2.135-1.244,3.736-3.113,3.736C302.836,20.679,302.036,19.969,301.057,16.856Z" transform="translate(103.43 0.399)" fill="#fff"/>
  <path id="パス_35938" data-name="パス 35938" d="M327.949,52.062c.179,16.365.444,23.215.444,25.971,0,2.135-1.423,3.29-4.269,3.29-2.134,0-3.023-.888-3.023-2.667,0-2.313.356-8.9.444-26.594H307.492a31.047,31.047,0,0,0-6.225.533l-.889-3.379a42.182,42.182,0,0,0,7.2.623h14.053V34.274H309.271a36.052,36.052,0,0,0-5.959.533l-.89-3.379a31.621,31.621,0,0,0,6.848.623h12.363c0-22.415-.089-27.928-.623-31.486,8.894.89,9.873,1.246,9.873,2.4,0,.712-.356,1.068-3.025,2.313V32.051h10.052c3.467-4,4.09-4.448,4.625-4.448.623,0,1.244.444,4.713,3.29,1.69,1.424,2.135,1.958,2.135,2.491,0,.623-.268.89-1.156.89H327.859c0,3.913,0,7.827.089,11.651v3.914h10.94c3.648-4.358,4.358-4.8,4.892-4.8s1.244.444,5.071,3.467c1.867,1.6,2.311,2.135,2.311,2.669s-.355.89-1.244.89ZM309.094,21.288a32.111,32.111,0,0,0-5.248-13.875c-.179-.267.355-.8.623-.623,7.2,4.537,11.3,10.14,11.3,14.765,0,2.669-1.512,4.536-3.648,4.536C310.249,26.091,309.8,25.38,309.094,21.288Zm23.035,6.137a87.3,87.3,0,0,0,6.227-14.231,51.968,51.968,0,0,0,1.779-7.115c7.294,2.757,8.449,3.557,8.449,4.536,0,.89-.977,1.334-3.023,1.6a69.335,69.335,0,0,1-12.542,15.744C332.662,28.226,331.951,27.781,332.128,27.426Zm27.662-3.113c0,20.1.444,29.795.444,32.73,0,1.956-1.246,2.935-4,2.935-2.135,0-2.935-.712-2.935-2.579,0-1.958.444-8.983.444-26.684,0-14.675-.088-18.5-.444-23.392,8.45.979,9.338,1.246,9.338,2.669,0,.712-.533,1.246-2.845,2.223Zm16.72,12.54c0,24.9.446,31.93.446,35.578,0,3.379-1.244,4.892-3.2,6.136a11.508,11.508,0,0,1-5.336,1.512c-1.512,0-1.956-.444-2.135-1.779-.355-2.669-2.135-3.914-9.962-5.425-.533-.089-.533-1.335,0-1.246,5.516.533,9.608.8,12.364.8,1.067,0,1.423-.358,1.423-1.512V15.951c0-10.138,0-11.74-.533-15.119,9.071,1.067,9.693,1.334,9.693,2.579,0,.8-.533,1.423-2.757,2.4Z" transform="translate(132.308 0.235)" fill="#fff"/>
  <path id="パス_35939" data-name="パス 35939" d="M378.327,44.331A76.112,76.112,0,0,1,375.748,60.7c-2.135,7.471-5.336,13.074-11.117,19.744-.356.445-1.335-.355-1.067-.8,3.734-6.581,5.513-12.186,7.114-20.457,1.246-6.4,1.6-13.519,1.6-28.551a134.366,134.366,0,0,0-.444-13.875c3.2,1.512,4.446,2.225,7.559,4h14.942c2.847-2.934,3.291-3.29,3.914-3.29.533,0,1.067.356,3.825,2.757,1.334,1.246,1.688,1.779,1.688,2.313,0,.623-.444,1.156-2.4,2.491v5.78c0,9.785.267,14.143.267,15.921,0,1.868-1.244,2.758-3.646,2.758-2.046,0-2.846-.623-2.846-2.313V44.331Zm-10.673-38.6a40.141,40.141,0,0,0,6.938.623h21.7c3.646-4.27,4.357-4.625,4.89-4.625s1.247.355,5.158,3.379c1.691,1.512,2.135,2.046,2.135,2.579s-.267.89-1.156.89H374.681a24.977,24.977,0,0,0-6.049.623Zm27.484,17.255H378.771v6.671c0,4.713-.088,8.8-.356,12.451h16.723Zm39.578,29.707c0,11.473.268,21.167.268,24.192,0,2.313-1.068,3.2-4,3.2-2.223,0-3.023-.8-3.023-2.579,0-1.691.356-7.56.356-19.835V32.147H416.305c-.444,10.94-1.69,18.588-4,24.992-3.2,9.34-8.717,15.921-18.944,23.392-.535.356-1.512-.623-1.068-1.067,7.827-8.094,12.275-14.765,14.675-23.748,2.046-7.382,3.025-16.454,3.025-30.774a115.036,115.036,0,0,0-.623-14.586,49.188,49.188,0,0,1,7.56,3.557,69.349,69.349,0,0,0,16.276-8.8A25.008,25.008,0,0,0,437.918.75C444.5,6,445.123,6.8,445.123,7.6c0,.712-1.067,1.246-4.358.535a92.73,92.73,0,0,1-24.28,8V22.9c0,2.49,0,4.8-.089,7.027h20.457c3.646-4.448,4.269-4.892,4.8-4.892.623,0,1.246.444,5.248,3.646,1.779,1.512,2.223,2.046,2.223,2.579s-.356.89-1.244.89H434.716Z" transform="translate(160.199 0.317)" fill="#fff"/>
  <path id="パス_35940" data-name="パス 35940" d="M440.663,57.647c.179.979.444,1.335.8,1.335s.533-.356.89-1.156c2.044-4.537,4.446-10.5,6.58-15.566.268-.711.712-1.067,1.156-1.067a1.052,1.052,0,0,1,.979.979,6.142,6.142,0,0,1-.267,1.067c-2.134,6.938-3.825,12.9-5.159,17.7a16.97,16.97,0,0,0-.711,4.269,21.208,21.208,0,0,0,.265,3.469,14.319,14.319,0,0,1,.268,2.669,2.245,2.245,0,0,1-2.314,2.49c-1.688,0-2.935-1.244-3.823-3.023-2.4-4.892-3.292-12.719-3.292-19.657,0-7.56,1.6-18.411,4.448-29.619a28.266,28.266,0,0,0,1.334-7.648,11.407,11.407,0,0,0-1.956-6.4,2.546,2.546,0,0,1-.621-1.334c0-.445.355-.712.888-.712a2.03,2.03,0,0,1,.977.267A18.862,18.862,0,0,1,445.644,9.8c2.223,2.758,3.025,4.714,3.025,6.938a3.787,3.787,0,0,1-.979,2.846,10.126,10.126,0,0,0-1.958,3.825c-3.113,8.094-5.515,18.5-5.515,25.882A48.9,48.9,0,0,0,440.663,57.647Zm59.414,5.96a4.066,4.066,0,0,1,1.69,2.934c0,2.135-1.246,3.2-2.934,3.2-.891,0-1.781-.267-3.381-1.6a45.2,45.2,0,0,0-8.983-6.494c0,6.494-5.246,10.14-13.875,10.14-7.115,0-12.185-3.823-12.185-8.8,0-4.892,4.625-8.983,12.631-8.983a40.028,40.028,0,0,1,8.361.89c-.089-8.094-.268-16.1-.356-24.282a101.1,101.1,0,0,1-12.719.8c-4.536,0-8.182-1.246-10.228-6.227a3.968,3.968,0,0,1-.356-1.512.963.963,0,0,1,.712-.711c.355,0,.711.267,1.156.8a9.162,9.162,0,0,0,7.738,3.379,77.32,77.32,0,0,0,13.7-1.334c0-5.515-.177-9.073-.267-12.542-.179-2.4-.356-3.469-1.6-4.09a10.989,10.989,0,0,0-2.579-.712,9.615,9.615,0,0,0-1.958-.177c-.444,0-.621-.179-.621-.445,0-.444.8-1.067,1.422-1.423a8.541,8.541,0,0,1,3.381-.979,12.646,12.646,0,0,1,5.869,1.6c1.869.977,3.825,2.135,3.825,4a2.533,2.533,0,0,1-.978,2.046c-.891.711-1.068,2.135-1.247,3.558-.177,2.667-.443,4.8-.443,8.094,1.69-.356,2.934-.712,4.18-1.068a11.878,11.878,0,0,0,2.4-1.156,6.43,6.43,0,0,1,3.914-1.067c2.935,0,4,.979,4,2.49,0,1.335-.8,2.223-2.579,2.847a69.4,69.4,0,0,1-12.008,3.023c0,9.606.356,18.678.8,26.5A51.442,51.442,0,0,1,500.077,63.607ZM471.082,57.47c-3.648,0-7.827,1.6-7.827,5.336,0,2.491,2.49,4.625,8.361,4.625,3.113,0,5.959-.8,7.382-2.134a5.883,5.883,0,0,0,2.046-4.092,5.234,5.234,0,0,0,0-1.69A24.847,24.847,0,0,0,471.082,57.47Z" transform="translate(192.233 2.388)" fill="#fff"/>
  <path id="パス_35941" data-name="パス 35941" d="M52.7,150.726a6.863,6.863,0,0,1,4.092,1.868,5.553,5.553,0,0,1,1.956,3.557c0,1.423-1.246,2.313-4.358,2.313-5.248,0-14.409-2.757-18.855-6.225-4.36-3.469-6.848-7.827-6.848-13.608,0-6.848,4-13.342,11.651-19.211A238.405,238.405,0,0,0,12.854,130.18c-1.512.712-3.2,1.779-4.269,1.779a5.329,5.329,0,0,1-3.914-2.046,5.828,5.828,0,0,1-1.867-3.2c0-1.068.444-1.512,1.334-1.512a7.3,7.3,0,0,1,1.156.177,7.761,7.761,0,0,0,1.423.177c3.293,0,6.137-1.511,8.806-3.557a99.694,99.694,0,0,0,8.894-7.738,209.216,209.216,0,0,0,18.5-20.635,3.125,3.125,0,0,0,.621-1.244c0-.267-.177-.356-.444-.356a10.417,10.417,0,0,0-1.334.267,112.753,112.753,0,0,0-15.388,6.315,4.394,4.394,0,0,1-3.025,1.246c-1.778,0-3.29-1.512-4.8-3.736a7.975,7.975,0,0,1-1.6-4.714c0-.979.711-2.223,1.067-2.223s.533.267.979.978a10.892,10.892,0,0,0,2.046,2.491,4.142,4.142,0,0,0,2.935.888,13.039,13.039,0,0,0,2.313-.267c3.469-.8,10.14-2.757,13.963-4.09a4.812,4.812,0,0,0,1.958-1.335,2.313,2.313,0,0,1,1.866-.888c1.6,0,3.025.533,5.071,2.313,1.69,1.511,3.2,3.557,3.2,4.625,0,1.244-.444,1.867-1.423,2.044a7.9,7.9,0,0,0-4.536,2.581c-8.627,8.449-17.521,16.365-26.949,24.1,10.4-3.379,23.035-7.383,31.128-9.7a27.024,27.024,0,0,0,4.981-2.134,5.18,5.18,0,0,1,2.669-.712,16.068,16.068,0,0,1,5.071.979c1.955.8,3.29,1.779,3.29,3.29,0,1.779-1.246,2.581-3.381,2.581-2.223,0-5.6.088-8.092.355-4.8.533-9.073,2.135-14.231,5.871-5.692,4.18-8.717,9.338-8.717,14.5,0,4.625,2.667,7.559,6.759,9.784a26.411,26.411,0,0,0,11.741,3.29Z" transform="translate(0.861 38.396)" fill="#fff"/>
  <path id="パス_35942" data-name="パス 35942" d="M81.879,120.367A178.839,178.839,0,0,1,96.2,106.314c4.18-3.558,8.8-6.76,12.363-6.76,6.581,0,8.982,5.337,8.982,9.429,0,3.467-1.067,9.161-1.778,14.5-.8,6.671-1.512,13.519-1.512,16.988,0,4.537,1.423,5.871,5.071,5.871,5.246,0,12.272-5.337,16.542-13.075.355-.623.8-1.334,1.6-1.334a1.142,1.142,0,0,1,.977,1.067,4.047,4.047,0,0,1-.356,1.6,31.426,31.426,0,0,1-7.648,11.917c-3.025,2.935-7.026,5.159-11.117,5.159-6.671,0-10.229-3.736-10.229-11.028,0-4.448.445-10.673,1.067-17.79.533-5.781.979-9.961.979-13.43,0-4.981-.89-6.4-3.113-6.4-2.847,0-6.671,2.579-11.119,6.494A145.455,145.455,0,0,0,81.7,124.9c0,4.981,0,9.962.089,13.786q0,1.2.267,6.137c.089,1.246.177,2.669.267,3.825a27.482,27.482,0,0,1,.177,3.2c0,3.823-1.246,6.581-3.29,6.581-1.068,0-1.868-.712-2.223-2.313a16.517,16.517,0,0,0-2.491-6.048,67.414,67.414,0,0,0-6.759-8.273c-1.958,2.669-2.758,3.914-3.558,4.892a3.11,3.11,0,0,1-2.579,1.424c-1.424-.089-2.223-1.068-2.223-3.025a6.574,6.574,0,0,1,2.046-4.358c.444-.444,1.155-1.067,1.867-1.779a105.658,105.658,0,0,0,14.231-19.211c.177-2.846.265-5.159.356-7.2-3.737,1.6-7.116,3.2-8.006,4.092a3.2,3.2,0,0,1-2.313,1.246c-1.423,0-2.4-.979-3.469-2.135-1.156-1.334-2.667-3.646-2.667-5.337,0-1.067.265-1.955.621-1.955.445,0,.711.267,1.068.8,1.778,2.49,2.757,3.023,4.09,3.023a9.383,9.383,0,0,0,3.2-.711c2.579-.979,5.336-2.046,7.65-3.113.177-5.337.444-11.385.444-14.233,0-3.823-.712-4.89-4.8-6.225-1.155-.355-1.332-.533-1.332-.89s.088-.621.8-1.067a5.049,5.049,0,0,1,2.579-.623A12.662,12.662,0,0,1,82.413,87.9c1.958,1.334,3.291,2.4,3.291,4.269a2.633,2.633,0,0,1-.977,2.044,5.373,5.373,0,0,0-1.335,3.114c-.177,1.868-.533,4.981-.711,9.427a4.04,4.04,0,0,1,1.423-.267c.444,0,.977.267,1.779,1.067a2.783,2.783,0,0,1,.978,1.779,2.641,2.641,0,0,1-.89,1.69,38.642,38.642,0,0,0-3.913,6.671Zm-5.336,26.059c.623.445.89.267.89-.444,0-6.137,0-12.363.089-17.521-3.025,4-6.406,8.627-8.45,11.74C71.385,142.334,74.408,144.736,76.543,146.426Z" transform="translate(25.851 37.715)" fill="#fff"/>
  <path id="パス_35943" data-name="パス 35943" d="M173.988,153.379a6.86,6.86,0,0,1,4.092,1.867,5.556,5.556,0,0,1,1.956,3.558c0,1.423-1.246,2.313-4.358,2.313-5.248,0-14.409-2.758-18.855-6.227-4.36-3.467-6.848-7.826-6.848-13.608,0-6.848,4-13.34,11.651-19.211a238.248,238.248,0,0,0-27.484,10.763c-1.512.712-3.2,1.779-4.269,1.779a5.336,5.336,0,0,1-3.914-2.046,5.827,5.827,0,0,1-1.866-3.2c0-1.067.443-1.512,1.332-1.512a7.471,7.471,0,0,1,1.156.177,7.762,7.762,0,0,0,1.423.179c3.291,0,6.137-1.512,8.806-3.558a99.7,99.7,0,0,0,8.894-7.738,209.2,209.2,0,0,0,18.5-20.634,3.137,3.137,0,0,0,.621-1.246c0-.267-.177-.356-.444-.356a10.418,10.418,0,0,0-1.334.267,112.774,112.774,0,0,0-15.388,6.316,4.388,4.388,0,0,1-3.023,1.244c-1.779,0-3.291-1.511-4.8-3.736a7.965,7.965,0,0,1-1.6-4.713c0-.979.711-2.225,1.067-2.225s.535.267.979.979a10.854,10.854,0,0,0,2.046,2.49,4.135,4.135,0,0,0,2.934.89,13.038,13.038,0,0,0,2.314-.267c3.469-.8,10.138-2.757,13.963-4.092a4.828,4.828,0,0,0,1.958-1.334,2.312,2.312,0,0,1,1.867-.89c1.6,0,3.023.533,5.069,2.313,1.69,1.512,3.2,3.557,3.2,4.625,0,1.244-.445,1.868-1.422,2.046a7.9,7.9,0,0,0-4.537,2.579c-8.627,8.449-17.521,16.365-26.949,24.1,10.4-3.379,23.035-7.382,31.128-9.694a27.129,27.129,0,0,0,4.981-2.135,5.193,5.193,0,0,1,2.669-.711,16.05,16.05,0,0,1,5.069.977c1.956.8,3.291,1.779,3.291,3.291,0,1.779-1.246,2.579-3.381,2.579-2.223,0-5.6.089-8.092.356-4.8.533-9.073,2.134-14.231,5.869-5.692,4.181-8.717,9.34-8.717,14.5,0,4.625,2.669,7.56,6.759,9.784a26.414,26.414,0,0,0,11.741,3.291Zm5.959-65.106a20.02,20.02,0,0,1,7.738,4.446c2.135,1.868,3.381,3.469,3.381,5.336a2.477,2.477,0,0,1-2.491,2.67q-1.734,0-2.935-2.4a30.785,30.785,0,0,0-7.471-8.539,1.371,1.371,0,0,1-.621-.89.914.914,0,0,1,.977-.888A5.033,5.033,0,0,1,179.947,88.273Zm7.738-5.959a20.979,20.979,0,0,1,7.116,3.467c2.134,1.512,4.09,3.558,4.09,5.6,0,1.779-1.067,2.846-2.4,2.846-1.155,0-1.867-.444-2.845-2.135a27.135,27.135,0,0,0-8.183-8.361,1.069,1.069,0,0,1-.623-.888.893.893,0,0,1,.891-.891A11.554,11.554,0,0,1,187.685,82.315Z" transform="translate(54.438 36.188)" fill="#fff"/>
  <path id="パス_35944" data-name="パス 35944" d="M207.733,120.367a178.816,178.816,0,0,1,14.319-14.053c4.181-3.558,8.806-6.76,12.363-6.76,6.583,0,8.983,5.337,8.983,9.429,0,3.467-1.067,9.161-1.778,14.5-.8,6.671-1.512,13.519-1.512,16.988,0,4.537,1.423,5.871,5.069,5.871,5.248,0,12.273-5.337,16.544-13.075.355-.623.8-1.334,1.6-1.334A1.142,1.142,0,0,1,264.3,133a4.047,4.047,0,0,1-.356,1.6,31.431,31.431,0,0,1-7.65,11.917c-3.023,2.935-7.026,5.159-11.117,5.159-6.671,0-10.228-3.736-10.228-11.028,0-4.448.444-10.673,1.067-17.79.533-5.781.979-9.961.979-13.43,0-4.981-.891-6.4-3.114-6.4-2.846,0-6.671,2.579-11.119,6.494A145.578,145.578,0,0,0,207.555,124.9c0,4.981,0,9.962.088,13.786q0,1.2.268,6.137c.088,1.246.177,2.669.265,3.825a27.164,27.164,0,0,1,.177,3.2c0,3.823-1.244,6.581-3.29,6.581-1.067,0-1.867-.712-2.223-2.313a16.487,16.487,0,0,0-2.49-6.048,67.572,67.572,0,0,0-6.76-8.273c-1.956,2.669-2.757,3.914-3.558,4.892a3.109,3.109,0,0,1-2.579,1.424c-1.423-.089-2.223-1.068-2.223-3.025a6.574,6.574,0,0,1,2.046-4.358c.445-.444,1.156-1.067,1.867-1.779a105.524,105.524,0,0,0,14.231-19.211c.177-2.846.267-5.159.356-7.2-3.737,1.6-7.115,3.2-8,4.092a3.2,3.2,0,0,1-2.312,1.246c-1.423,0-2.4-.979-3.469-2.135-1.156-1.334-2.669-3.646-2.669-5.337,0-1.067.267-1.955.623-1.955.444,0,.711.267,1.067.8,1.778,2.49,2.757,3.023,4.092,3.023a9.4,9.4,0,0,0,3.2-.711c2.579-.979,5.336-2.046,7.648-3.113.177-5.337.446-11.385.446-14.233,0-3.823-.712-4.89-4.8-6.225-1.156-.355-1.334-.533-1.334-.89s.089-.621.8-1.067a5.049,5.049,0,0,1,2.579-.623,12.671,12.671,0,0,1,6.671,2.491c1.956,1.334,3.291,2.4,3.291,4.269a2.634,2.634,0,0,1-.979,2.044,5.365,5.365,0,0,0-1.334,3.114c-.179,1.868-.535,4.981-.712,9.427a4.048,4.048,0,0,1,1.424-.267c.443,0,.976.267,1.778,1.067a2.779,2.779,0,0,1,.979,1.779,2.64,2.64,0,0,1-.89,1.69,38.367,38.367,0,0,0-3.913,6.671ZM202.4,146.426c.621.445.89.267.89-.444,0-6.137,0-12.363.088-17.521-3.023,4-6.4,8.627-8.449,11.74C197.237,142.334,200.261,144.736,202.4,146.426Z" transform="translate(81.444 37.715)" fill="#fff"/>
  <path id="パス_35945" data-name="パス 35945" d="M19.313,209.13c0,21.167.089,30.951.089,33.976,0,2.044-1.244,3.113-3.736,3.113-1.779,0-3.113-.712-3.113-2.579s.356-8.273.533-29.084c0-5.871.089-11.652.089-17.523A77.491,77.491,0,0,1,1.436,210.018c-.444.445-1.512-.533-1.067-.977,6.938-8.183,13.075-20.19,16.632-31.663a79.235,79.235,0,0,0,2.758-13.164c7.382,2.046,9.873,3.2,9.873,4.181s-.891,1.512-3.293,1.868a110.406,110.406,0,0,1-9.961,21.878c4.8.8,5.6,1.158,5.6,2.135,0,.623-.445,1.156-2.669,2.046ZM35.055,175.6a28.544,28.544,0,0,0-5.959.533l-.89-3.379a37.749,37.749,0,0,0,6.848.623h35.4c3.913-4.625,4.536-5.071,5.071-5.071.621,0,1.332.445,5.336,3.736,1.778,1.512,2.223,2.135,2.223,2.669,0,.623-.356.89-1.156.89H73.48v34.776c0,18.411.177,23.748.177,27.217,0,3.558-1.068,5.159-3.291,6.492a10.616,10.616,0,0,1-5.159,1.335c-1.246,0-1.511-.268-1.69-1.779-.267-2.669-1.867-3.825-9.785-5.427-.443-.088-.443-1.155,0-1.155,5.249.355,9.073.533,11.741.533,1.067,0,1.423-.356,1.423-1.691V175.6Zm1.691,46.161c0,2.313-.979,3.113-3.646,3.113-1.958,0-2.67-.712-2.67-2.4s.268-5.159.268-16.277c0-8.893,0-14.23-.356-20.278a44.2,44.2,0,0,1,7.027,3.825H50c2.667-2.935,3.113-3.292,3.646-3.292.621,0,1.067.356,3.825,2.758,1.334,1.067,1.69,1.69,1.69,2.223,0,.711-.356,1.246-2.49,2.579V200.5c0,12.008.267,17.7.267,19.479,0,2.223-1.158,3.2-3.646,3.2-1.958,0-2.67-.712-2.67-2.758v-3.913H36.746Zm13.874-29.8H36.746v22.325H50.62Z" transform="translate(-0.262 72.523)" fill="#fff"/>
  <path id="パス_35946" data-name="パス 35946" d="M97.233,206.2c0-5.071-1.244-7.2-4.446-7.2-3.646,0-7.383,2.667-10.94,6.225a69.881,69.881,0,0,0-7.026,8.894c-.714.979-1.868,2.135-3.025,2.135-1.69,0-2.935-1.067-2.935-3.558,0-1.334.977-2.579,2.758-4.358a95.891,95.891,0,0,0,8.626-10.228,115.478,115.478,0,0,0,6.583-10.5,51.6,51.6,0,0,1-7.65.533c-4.446,0-8-1.512-10.317-5.692a2.153,2.153,0,0,1-.355-1.156.726.726,0,0,1,.711-.8,1.716,1.716,0,0,1,1.067.711c2.134,2.313,5.336,2.935,8.8,2.935a49.082,49.082,0,0,0,10.052-1.423,50.481,50.481,0,0,0,2.934-7.56,10.083,10.083,0,0,0,.446-2.313c0-1.155-.623-1.688-1.779-2.044a21.987,21.987,0,0,0-3.646-.712c-.444-.089-.712-.267-.712-.533a1.721,1.721,0,0,1,.712-.977,5.412,5.412,0,0,1,3.467-1.158,15.2,15.2,0,0,1,6.671,2.046c2.135,1.246,2.937,2.4,2.937,3.469a2.376,2.376,0,0,1-.979,2.046,8.358,8.358,0,0,0-2.223,2.4c-.533.89-1.512,2.669-2.225,4.09a37.263,37.263,0,0,0,7.738-3.113,9.2,9.2,0,0,1,4.537-1.511c1.956,0,3.379,1.067,3.379,2.667s-1.246,2.135-2.935,2.758A148.529,148.529,0,0,1,91.9,186.723c-2.757,4.625-5.515,9.338-8.539,13.607,3.558-2.579,7.562-4.269,10.675-4.269,4.713,0,7.738,2.846,8.182,7.56.179,1.067.179,2.667.267,4.18a207.11,207.11,0,0,0,17.79-11.117,2.656,2.656,0,0,0,1.334-1.868c0-.444-.355-.8-1.068-1.244a11.761,11.761,0,0,0-2.667-.979c-.533-.177-.89-.356-.89-.623,0-.355.623-.89,1.334-1.156a5.558,5.558,0,0,1,2.223-.356,15.775,15.775,0,0,1,6.76,2.225c2.669,1.423,4.092,2.934,4.092,4.713a2.293,2.293,0,0,1-2.313,2.313,12.346,12.346,0,0,0-3.469.979c-4.357,1.867-8.8,3.913-14.942,7.115-2.579,1.334-5.515,3.113-8,4.448V224.7c0,2.491-.979,3.737-2.758,3.737s-3.025-.979-3.025-3.2c0-2.135.179-5.871.356-10.229-7.826,4.448-12.451,7.917-12.451,13.431,0,3.646,3.2,6.492,11.473,6.492a97.242,97.242,0,0,0,12.451-.623,53.074,53.074,0,0,0,5.248-1.067,14.527,14.527,0,0,1,3.025-.533c3.113,0,6.137,1.778,6.137,3.913,0,1.423-.979,2.313-4.446,2.847-2.759.533-9.608.888-16.812.888-12.095,0-20.278-2.934-20.278-11.384,0-7.738,6.137-12.808,15.653-18.5Z" transform="translate(29.884 73.94)" fill="#fff"/>
  <path id="パス_35947" data-name="パス 35947" d="M122.562,244.141c12.186-3.469,20.992-9.873,24.994-18.144a22.711,22.711,0,0,0,2.313-9.429c7.915,1.868,9.161,2.491,9.161,3.381s-.268,1.423-3.025,2.134c-4,13.252-14.942,21.08-33,23.3C122.474,245.475,122.028,244.319,122.562,244.141Zm49.63-10.85c0,4.09.89,4.534,8.983,4.534,9.071,0,12.185-.444,13.608-2.579,1.067-1.511,1.778-3.734,3.646-9.784.177-.533,1.156-.355,1.156.179-.089,4-.177,6.225-.177,7.917,0,1.244.355,1.6,1.422,2.046a2.78,2.78,0,0,1,1.691,2.667c0,1.779-1.6,3.113-4.18,3.913-2.847.891-7.918,1.424-18.056,1.424-12.1,0-14.765-1.691-14.765-7.738,0-.979.179-2.579.179-7.116V215.235H144V217.1c0,1.868-1.246,2.758-4.092,2.758-2.046,0-2.846-.623-2.846-2.4,0-3.2.444-7.917.444-27.752,0-11.74,0-17.876-.444-24.013a51.614,51.614,0,0,1,7.738,3.736h34.153c2.937-2.935,3.381-3.291,3.914-3.291.623,0,1.156.356,4.181,2.758,1.332,1.246,1.6,1.69,1.6,2.223,0,.8-.356,1.335-2.4,2.846v11.563c0,19.478.533,28.107.533,30.863,0,2.046-1.422,3.023-3.913,3.023-2.225,0-3.2-.711-3.2-2.4v-1.779h-7.472Zm7.472-61.638H144v11.919h35.667ZM144,197.713h35.667V185.795H144Zm0,15.3h35.667V199.937H144Z" transform="translate(53.655 73.178)" fill="#fff"/>
  <path id="パス_35948" data-name="パス 35948" d="M203.47,206.506c6.225-4.8,12.63-7.027,18.678-7.027,13.075,0,20.279,8.183,20.279,17.788,0,13.431-12.1,20.992-25.17,20.992-9.7,0-16.544-4-16.544-10.052,0-4.8,4-7.382,8.894-7.382,8.271,0,13.607,7.294,14.942,11.385a15.915,15.915,0,0,0,11.207-15.388c0-9.873-6.492-14.142-14.053-14.142-8.273,0-15.209,4.092-20.1,9.073a69.737,69.737,0,0,0-6.936,7.826,2.905,2.905,0,0,1-2.223,1.156,3.311,3.311,0,0,1-3.2-3.469,4.48,4.48,0,0,1,1.511-3.2c6.85-7.383,14.231-15.031,20.634-22.859,3.826-4.714,7.473-9.161,11.919-15.031.624-.8.356-.979,0-.979a7.95,7.95,0,0,0-1.69.445c-4,1.334-8.538,3.023-12.1,4.446a6.535,6.535,0,0,0-3.023,1.868,3.334,3.334,0,0,1-2.4.978,7.118,7.118,0,0,1-4.446-2.579c-1.6-1.69-3.2-4-3.2-6.492,0-.89.533-1.867,1.068-1.867.355,0,.711.355,1.156.978,1.958,2.579,3.2,3.469,4.714,3.469a21.369,21.369,0,0,0,4.625-.623c4-.978,7.738-2.046,11.739-3.379a5.669,5.669,0,0,0,2.67-1.6,2.837,2.837,0,0,1,2.046-.89c1.422,0,3.646,1.334,5.6,2.757,1.781,1.246,2.67,2.4,2.67,3.825,0,.89-.712,1.511-2.313,1.867-.891.179-1.69.623-3.648,2.579-2.935,2.935-6.582,6.76-11.829,12.9-3.29,3.823-8.092,8.449-11.651,12.452Zm5.071,17.076c-3.2,0-4.893,1.958-4.893,4.092,0,3.646,4.714,6.137,11.829,6.137a17.984,17.984,0,0,0,3.558-.267C217.7,228.474,212.9,223.582,208.54,223.582Z" transform="translate(83.215 75.058)" fill="#fff"/>
  <path id="パス_35949" data-name="パス 35949" d="M276.949,184.286a35.518,35.518,0,0,1-2.313,10.4,89.476,89.476,0,0,1-12.719,23.036c-2.49,3.2-5.248,5.781-8.983,5.781a8.206,8.206,0,0,1-6.669-3.557c-2.491-3.113-4.092-6.938-4.092-13.163a32.367,32.367,0,0,1,8.359-20.992c5.783-6.315,15.477-11.651,28.463-11.651a32.707,32.707,0,0,1,20.634,6.848,25.387,25.387,0,0,1,9.873,20.19c0,10.05-3.825,15.742-9.6,20.813-6.583,5.692-18.767,9.427-29.617,9.961a1.256,1.256,0,0,1-1.247-1.067c0-.712.445-.979,1.6-1.246,9.25-1.779,18.678-5.871,24.192-11.3,4.8-4.892,8.006-10.584,8.006-18.411,0-5.159-1.958-12.54-7.472-16.988a25.764,25.764,0,0,0-16.542-5.781,38.531,38.531,0,0,0-4.714.179A10.392,10.392,0,0,1,276.949,184.286Zm-22.413,2.134A27.728,27.728,0,0,0,246.8,205.63a15.363,15.363,0,0,0,1.956,8.273c.979,1.778,2.4,3.023,4.18,3.023,1.868,0,3.648-1.6,6.227-5.069a94.55,94.55,0,0,0,12.719-23.125,19.47,19.47,0,0,0,1.244-7.026,5.511,5.511,0,0,0-1.423-4.092A31.383,31.383,0,0,0,254.536,186.419Z" transform="translate(106.597 76.911)" fill="#fff"/>
  <path id="パス_35950" data-name="パス 35950" d="M337.614,188.286a8.237,8.237,0,0,1,7.027,3.646c1.955,2.757,2.579,6.671,2.579,10.584a57.193,57.193,0,0,1-3.469,18.856,29.118,29.118,0,0,1-6.938,11.384c-2.758,2.579-5.158,4-7.917,4-2.046,0-2.934-.533-3.29-2.313a5.866,5.866,0,0,0-1.335-3.2c-1.422-1.688-3.025-3.379-5.159-5.6a1.207,1.207,0,0,1-.446-.89c0-.356.446-.979.89-.979a1.625,1.625,0,0,1,.979.445c2.579,1.779,4.714,3.2,7.027,4.536a5.8,5.8,0,0,0,2.579.623,4.6,4.6,0,0,0,3.379-1.69c2.935-3.113,4.8-7.294,6.315-12.1a59.062,59.062,0,0,0,2.313-15.121c0-3.913-.444-6.136-1.511-7.47-.891-1.158-1.868-1.512-3.825-1.512a25.423,25.423,0,0,0-6.137,1.067c-2.758,5.692-5.246,11.295-7.917,16.454-4.625,8.983-8.626,16.809-13.43,24.992a3.319,3.319,0,0,1-3.113,1.779,2.637,2.637,0,0,1-2.846-2.491,5.5,5.5,0,0,1,1.156-3.29c5.246-7.917,10.05-15.921,14.5-24.1,2.314-4.357,4.269-8,6.049-11.74-3.293,1.156-6.76,2.579-9.339,3.648a9.678,9.678,0,0,0-2.579,1.334,3.232,3.232,0,0,1-2.223.979q-1.868,0-4-2.135c-1.868-1.867-3.381-4.18-3.381-6.225,0-.979.445-2.135.89-2.135.356,0,.533.177.979.8,1.6,2.044,2.935,3.29,4.357,3.29a27.21,27.21,0,0,0,6.406-1.156c3.113-.712,6.492-1.6,10.761-2.758a99.44,99.44,0,0,0,4-10.761,10.256,10.256,0,0,0,.623-3.469c0-.8-.179-1.246-1.334-2.046a12.569,12.569,0,0,0-3.914-1.334c-.888-.179-1.244-.356-1.244-.8s.533-.8,1.155-1.155a7.755,7.755,0,0,1,3.2-.712,14.461,14.461,0,0,1,8.894,3.736,3.708,3.708,0,0,1,1.423,2.935c0,.89-.533,1.511-1.69,2.044a6.091,6.091,0,0,0-2.134,2.846c-1.067,2.4-2.314,4.983-3.558,7.739A27.613,27.613,0,0,1,337.614,188.286Zm35.4,27.394a4.094,4.094,0,0,1-2.579-.979,5,5,0,0,0-3.291-.978c-2.845,0-5.959.177-10.049.444a1.1,1.1,0,0,1-1.247-1.156c0-.533.268-.89.979-1.067a77.343,77.343,0,0,0,9.961-2.491c1.068-.355,1.424-.621,1.424-1.6,0-1.6-1.334-4.625-3.025-6.85a38.164,38.164,0,0,0-9.784-9.338,1.841,1.841,0,0,1-.888-1.244c0-.445.533-.891,1.332-.891a1.62,1.62,0,0,1,.8.179,35.217,35.217,0,0,1,12.452,8.449c3.736,3.914,7.115,8.539,7.115,13.7C376.214,214.524,374.7,215.68,373.012,215.68Z" transform="translate(133.63 74.867)" fill="#fff"/>
  <path id="パス_35951" data-name="パス 35951" d="M406.3,184.238c0,9.962-7.917,15.031-13.61,19.835-4.98,4.269-6.58,7.827-6.047,14.942,0,.979-.8,1.6-2.667,1.6q-.8,0-.8-1.067c0-8.094,1.335-12.542,5.6-18.234,4.09-5.159,9.161-9.782,9.161-17.432,0-7.383-3.558-13.431-11.384-13.431-4.716,0-7.739,2.135-9.25,4.893-1.068,1.6-1.424,4.18-1.424,7.648,0,2.579-3.379,4.448-6.315,4.448-1.779,0-3.023-.712-3.023-3.558,0-6.137,7.648-16.277,20.367-16.277C399.453,167.606,406.3,174.81,406.3,184.238Zm-16.01,50.7a5.561,5.561,0,1,1-5.515-5.693A5.527,5.527,0,0,1,390.291,234.936Z" transform="translate(161.536 74.022)" fill="#fff"/>
</svg>
