<svg xmlns="http://www.w3.org/2000/svg" viewBox="0 0 110.71 485.93"><defs><style>.cls-1{fill:#fff;}</style></defs><g id="レイヤー_2" data-name="レイヤー 2"><g id="レイヤー_1-2" data-name="レイヤー 1"><path class="cls-1" d="M80.7,100.48H76.79V95H80.7v5.52Zm.24,12.24H76.79v-6.29h4.15v6.28ZM79.46,152c-.59,0-1.19-.52-1.65-1.42a7.62,7.62,0,0,1-.72-3.33,9.34,9.34,0,0,1,2.82-6.52,11.26,11.26,0,0,1,5.41-3.1,5,5,0,0,1,.84,2.65,14.07,14.07,0,0,1-1.2,5C83.92,147.62,81.23,152,79.46,152Zm4.78,36.69h-2.1v-2.71h2.1v2.71Zm4.66,0H86.65v-2.71H88.9v2.71Zm-4.66,3.73h-2.1v-2.86h2.1v2.86Zm4.66,0H86.65v-2.86H88.9v2.86ZM92.09,329h0a24.11,24.11,0,0,1-3.31-8.29c.35-.6.71-1.24,1.11-2h5.23a27,27,0,0,1-3,10.31Zm-1.63,33.75H83.58v-2.86h6.88v2.85Zm-5,9.49H80.18v-4.63H85.5v4.63Zm8.3,0H88.45v-4.63H93.8v4.63ZM79.16,58l.24.85h7.7C86.61,62.5,85,65.4,79,67.67l.33.42c5.72-1.46,8.71-3.48,10-6.76,2.06,1.41,4.86,3.84,6,6a2.12,2.12,0,0,0,.93.23,1.26,1.26,0,0,0,1.29-1.23,3.86,3.86,0,0,0-1.61-3,14,14,0,0,0-6.38-2.69A11,11,0,0,0,90,58.84h9c.46,0,.75-.18.81-.48-1.16-1-3.08-2.51-3.1-2.53L95,58H90.1a40.75,40.75,0,0,0,.24-4.44h6.91c.47,0,.76-.18.82-.48a35.27,35.27,0,0,0-3-2.44l-1.65,2H85.17a18.72,18.72,0,0,0,1.48-2.35h.18a.92.92,0,0,0,1-.55L84,48.44A21.82,21.82,0,0,1,79.58,57l.36.33a16.5,16.5,0,0,0,4.54-3.75h2.86v0A41,41,0,0,1,87.19,58ZM75,45.88v26.9h.52c1.52,0,2.4-.61,2.4-.81V70.59h22.42c.45,0,.73-.17.81-.48C99.92,69,97.82,67.42,97.8,67.4l-1.9,2.32h-18V48.05H99.24q.65,0,.78-.48c-1.2-1-3.2-2.48-3.22-2.5l-1.71,2.11H78.32Zm-.78,47v23.59h.42c1.3,0,2.14-.64,2.14-.87v-2h4.15v1.92h.42a3.6,3.6,0,0,0,2.13-.72v-7.93a2.28,2.28,0,0,0,1.2-.58l-2.76-2.1-1.29,1.38H76.79v-4.2H80.7v1.41h.42a3.6,3.6,0,0,0,2.13-.72V95.38a2.28,2.28,0,0,0,1.2-.58l-2.76-2.13-1.3,1.41H78.47c.71-1.09,1.52-2.49,2-3.39.66-.06,1-.31,1.12-.75l-3.91-.7c-.1,1.61-.35,3.92-.45,4.84h-.06Zm13.89,5.23h3.06v19h.42c1.44,0,2.26-.61,2.26-.78V98.11h3.21V109.5c0,.35-.07.51-.51.51s-1.81-.12-1.83-.12v.48a2,2,0,0,1,1.5.84,4.4,4.4,0,0,1,.36,1.93,3.52,3.52,0,0,0,2.61-1,3.63,3.63,0,0,0,.52-2.31V98.53a2.18,2.18,0,0,0,1.17-.6L98,95.8l-1.24,1.44H93.86V92.82h6.43c.45,0,.73-.17.81-.48-1.12-1-2.93-2.48-2.94-2.49L96.53,92H84.69l.24.87h6.25v4.42h-2.7l-3-1.2v17.31H86a2.51,2.51,0,0,0,2.16-.84V98.11Zm-.42,39.18c5,0,8.53,3.65,8.53,8.87a9.69,9.69,0,0,1-2.48,6.8c-1.76,1.91-4.48,3.27-8.07,4l.12.63c4.62-.24,8.15-1.44,10.47-3.57a9.49,9.49,0,0,0,3.06-7.22,10.32,10.32,0,0,0-3.22-7.63,11.83,11.83,0,0,0-8.14-3,13.19,13.19,0,0,0-8.9,3.16,12.46,12.46,0,0,0-3.19,4.17,10.78,10.78,0,0,0-1,4.48,10.1,10.1,0,0,0,1.35,5.07c.86,1.4,2,2.21,3,2.21,3.33,0,6.71-5.42,8.06-9.26a14.44,14.44,0,0,0,1-5.11,5.49,5.49,0,0,0-1.74-3.55h0C86.93,137.32,87.32,137.29,87.7,137.29Zm4.63,63.29,0,.48a4.27,4.27,0,0,1,2.19.93,2.68,2.68,0,0,1,.45,1.87,4.3,4.3,0,0,0,3.34-1.33C99.64,201,99.9,196,100,184.62a1.9,1.9,0,0,0,1.26-.54l-2.64-2.25-1.48,1.53H95.6v-5.62c.85-.13,1-.48,1.11-.81l-3.57-.39v6.82h-2l.24.87h1.75V187c0,4.89-.6,8.39-2,11.36l0-.18c-1.72.23-3.15.43-4.5.63v-2.05H91c.43,0,.7-.17.75-.48a29,29,0,0,0-2.4-2l-1.29,1.59H86.65v-2.67H88.9v1h.39a2.86,2.86,0,0,0,1.83-.72v-7.3a1.88,1.88,0,0,0,1-.49l-2.35-1.8-1.11,1.17h-2V183h4.86c.44,0,.7-.16.79-.48-.92-.89-2.45-2.09-2.47-2.1l-1.32,1.74H86.65v-2.38c1.2-.17,2.45-.36,3.42-.57a2.64,2.64,0,0,0,1,.26.85.85,0,0,0,.6-.2l-2.61-2.55a49.22,49.22,0,0,1-9.53,3.15l.12.48c1.28,0,2.78-.12,4.57-.3v2.11H79.13l.24.84h4.87v2.07H82.29l-2.38-1v10.61h.33c.93,0,1.9-.5,1.9-.72v-.69h2.1v2.67H79.37l.24.87h4.63v2.35c-2.49.3-4.17.49-5.14.57l1.29,3.09a1,1,0,0,0,.76-.69c3.94-1.26,6.92-2.33,9.1-3.12l.75-.27a15.6,15.6,0,0,1-3.51,4.69l.36.3a14.31,14.31,0,0,0,6.28-7.33A25.51,25.51,0,0,0,95.6,187v-2.8h1.9c-.12,9.73-.35,15.19-1.27,16.17a1.12,1.12,0,0,1-1,.36C94.71,200.76,93.28,200.67,92.33,200.58ZM75.47,188.26h0V204H76a3.23,3.23,0,0,0,2.16-.78V185.64a1.08,1.08,0,0,0,.9-.57l-1.5-.57A45.65,45.65,0,0,0,80,177.86h.1c.56,0,1-.23,1.05-.63l-3.94-1.17a58.94,58.94,0,0,1-4.57,15.05l.42.27a25.31,25.31,0,0,0,2.37-3.12ZM86.41,238a10.45,10.45,0,0,0-5.89,1.49,4,4,0,0,0,.56,7.14,12.59,12.59,0,0,0,5.72,1.2,19.31,19.31,0,0,0,4.34-.38c1.15-.29,1.73-.74,1.73-1.33s-.54-1.36-2.05-1.36a9.66,9.66,0,0,0-1.64.15,16.43,16.43,0,0,1-2.8.21c-2.66,0-5.83-.49-5.83-2.82,0-1.84,2.08-3.13,5.07-3.13a12.93,12.93,0,0,1,5.74,1.39c.52.28.92.55,1.24.76a2.79,2.79,0,0,0,1.59.68c.91,0,1.59-1.35,1.59-2.56,0-.49-.4-.91-1.08-1.62a22.51,22.51,0,0,1-3-3.76,23.34,23.34,0,0,0,4.8-2,1.42,1.42,0,0,0,.82-1.2c0-1-1.08-1.1-1.72-1.1a3,3,0,0,0-.42,0,1.64,1.64,0,0,0-.61.25,17.53,17.53,0,0,1-3,1.31,12.09,12.09,0,0,1-1.14.42,25.26,25.26,0,0,1-1.41-3.22,21.09,21.09,0,0,0,4.78-1.86,1.35,1.35,0,0,0,.75-1.14c0-.92-1.18-1-2.07-1a1.81,1.81,0,0,0-.73.34,15.75,15.75,0,0,1-3.39,1.49c-.18-.8-.31-1.63-.42-2.3,0-.21-.06-.41-.09-.58-.13-.91-1-1.33-2.77-1.33a4.34,4.34,0,0,0-2.82,1.11l.09.49a11,11,0,0,1,1.77.12,1.47,1.47,0,0,1,1.44,1.23c.22.61.46,1.21.69,1.8h0a20.74,20.74,0,0,1-4.14.6,6.62,6.62,0,0,1-4.63-1.5l-.39.27A5.94,5.94,0,0,0,79.4,229a6.18,6.18,0,0,0,3.16.63,20.6,20.6,0,0,0,4.6-.58c.44,1,.94,2.14,1.47,3.31a23.68,23.68,0,0,1-6.1.87c-1.48,0-2.35-.27-2.59-.81s.06-1.1.79-1.89l-.45-.36c-1.53,1-2.21,2.27-1.88,3.34s1.92,1.95,4,1.95a34,34,0,0,0,7.36-.87c.87,1.44,1.67,2.6,2.2,3.36h0l.35.5c.08.13.1.2.08.24s0,0-.1,0a.79.79,0,0,1-.22,0A27.4,27.4,0,0,0,86.41,238ZM73.12,272.37l.27.84h9.29a33.9,33.9,0,0,1-2,11.73,19.87,19.87,0,0,1-7.34,9.13l.24.33a19.36,19.36,0,0,0,8.11-6.24,21.47,21.47,0,0,0,3.55-8.67h8.09c-.36,6.33-1.08,10.42-2,11.21a1.57,1.57,0,0,1-1.23.36c-.78,0-3.45-.21-5.08-.36l0,.45a8.74,8.74,0,0,1,3.58,1.2,2.35,2.35,0,0,1,.69,2h0a5.83,5.83,0,0,0,4.05-1.23c1.5-1.28,2.41-5.46,2.88-13.16a2,2,0,0,0,1.27-.51L94.61,277,93,278.62H85.38c.29-1.8.49-3.62.6-5.41h14.19c.46,0,.76-.17.84-.48-1.24-1.07-3.34-2.66-3.36-2.68l-1.81,2.32H88.42v-4.75c.87-.14,1-.5,1.08-.84l-4-.36v5.95Zm.9,48.17v11.9c0,2,.45,2.61,3.22,2.61h2.91c5,0,5.72-.89,5.72-1.86,0-.52-.16-.86-1-1.2l-.09-4.06h-.36a23.41,23.41,0,0,1-1.17,3.91.68.68,0,0,1-.63.39c-.36,0-1.2,0-2.26,0H77.87c-1,0-1.08-.13-1.08-.6v-9h4.84v1.53h.48a3.77,3.77,0,0,0,2.31-.87v-8a2.18,2.18,0,0,0,1.17-.57l-2.88-2.2-1.38,1.47H73.6l.27.88h7.76v6.85H77.18Zm18.13,12.23h0a16.45,16.45,0,0,0,6.82,6.1,3.16,3.16,0,0,1,2.52-2.47l.09-.3A18.56,18.56,0,0,1,93.65,331c2.42-3.14,3.9-7.07,4.66-12.35h2.1c.47,0,.76-.16.84-.48-1.16-1.05-3-2.51-3-2.52l-1.69,2.13H90.31a38.2,38.2,0,0,0,1.9-5.05c.63,0,1-.25,1.14-.69l-4.21-1a40,40,0,0,1-5.23,14.72l.39.28a21.29,21.29,0,0,0,4-4.66A34,34,0,0,0,91,330.69a23.57,23.57,0,0,1-10.09,7.79l.21.39a25.24,25.24,0,0,0,11-6.1Zm-19.06,44,.24.87H85.5v5.68h.55c1.43,0,2.4-.58,2.4-.78v-4.9h11.81c.46,0,.76-.17.84-.48-1.28-1.11-3.37-2.66-3.39-2.67l-1.84,2.28H88.45v-3.67H93.8v1.36h.51a4,4,0,0,0,2.37-.79v-5.58a2.31,2.31,0,0,0,1.27-.61l-3-2.28-1.44,1.53h-5V363.6h2v1.47h.45c1.06,0,2.26-.51,2.26-.78v-4.42h6.46c.43,0,.73-.18.78-.48-1.23-1.08-3.23-2.57-3.25-2.58L95.42,359H93.17v-2.44c.68-.1,1-.33,1-.78l-3.76-.36V359H83.58v-2.44c.68-.1,1-.33,1-.78l-3.75-.36V359h-7.1l.27.87h6.83v5.35h.45c1.09,0,2.25-.51,2.25-.78v-.84H85.5v3.12H80.39l-3.06-1.23v9.35h.42c1.14,0,2.43-.6,2.43-.84v-.91H85.5v3.67Zm37.62,52H63.54V0h47.17V428.79Z"/><path class="cls-1" d="M22.57,224l-.34.17a12.9,12.9,0,0,1,1.9,6.33,1.75,1.75,0,0,0,1.19.57,1.51,1.51,0,0,0,1.38-1.31,3.67,3.67,0,0,0-.57-2.73,8.79,8.79,0,0,0-3.56-3Zm-12.16-.71h0l-.36.23a35.13,35.13,0,0,1,5.06,5.85,23.6,23.6,0,0,1-7,10l.25.28a20.83,20.83,0,0,0,8.07-8,14.83,14.83,0,0,1,1.47,3.84,2,2,0,0,0,1.16.48,1.15,1.15,0,0,0,1-.74c.55-1.23.05-3.69-2.33-6.41A34.38,34.38,0,0,0,20,220.29H22.6c.45,0,.71-.16.77-.46-1-.94-2.76-2.39-2.78-2.4l-1.52,2H16.89v-4.73c.66-.1,1-.34,1-.79l-3.65-.34v5.86H8.77l.23.82h8a35.94,35.94,0,0,1-1.13,6.61,28.35,28.35,0,0,0-5.49-3.59Zm13.92,13.21V237a4.92,4.92,0,0,1,2.6,1,3,3,0,0,1,.68,1.92,4.83,4.83,0,0,0,3.16-1.1,3.31,3.31,0,0,0,.63-2.35V222h3.19c.43,0,.69-.16.74-.45-.87-1-2.39-2.45-2.4-2.46l-1.39,2.09H31.4V215c.64-.1,1-.34,1.05-.79l-3.71-.36v7.35h-7.5l.23.82h7.27v14.11c0,.45-.16.6-.68.6S24.36,236.52,24.33,236.52Zm-3.57,25.22h0l-.25.22c1.8,1.17,4.08,3.34,4.84,5.32a1.94,1.94,0,0,0,.83.22,1.28,1.28,0,0,0,1.27-1.31,3.24,3.24,0,0,0-1.4-2.57,10.3,10.3,0,0,0-5.29-1.88Zm8.77,5.76-.25.26c2.47,2.6,2.92,6.74,3,7.95a1.43,1.43,0,0,0,1.08.61c.64,0,1.19-.58,1.4-1.48a4.83,4.83,0,0,0-.7-3.48A10.7,10.7,0,0,0,29.53,267.5Zm-13,.2a8.69,8.69,0,0,1-2.12,6.11,1.67,1.67,0,0,0-.59,2.15,1.28,1.28,0,0,0,1.09.54,2,2,0,0,0,1.54-.76,5.74,5.74,0,0,0,1.16-3,11.44,11.44,0,0,0-.66-5Zm3-2.66v13.3c0,1,.17,1.6.59,2a3.89,3.89,0,0,0,2.46.51h2.74c4.55,0,5.41-.57,5.41-1.61,0-.47-.16-.81-1-1.13L29.7,274h-.28a30,30,0,0,1-1.1,3.94.7.7,0,0,1-.63.39c-.36,0-1.16,0-2.09,0H23.23c-.93,0-1.08-.15-1.08-.65V266.15c.55-.1.87-.35.93-.74Zm-8.43-6.64v7.92a53.31,53.31,0,0,1-.42,7.63,19.51,19.51,0,0,1-2.33,7.19l.37.25A13.67,13.67,0,0,0,13.11,274a32.06,32.06,0,0,0,.73-7.74v-5.88H34c.44,0,.71-.16.79-.46-1.07-1-2.84-2.42-2.91-2.49l-1.61,2.13H23.79v-3.26c.66-.1,1-.34,1.05-.79l-3.74-.34v4.39H14.29Zm7,49.43h0c0,.35,0,.74,0,1.13V309c0,1.69-.06,3.59,0,4.95,0,2,.48,3.07,1.51,3.67s2.66.72,5.11.72a31.88,31.88,0,0,0,5.77-.6c.67-.15,1.35-.4,1.35-1.19,0-.95-1.29-1.38-2.49-1.38a2.74,2.74,0,0,0-.6.12,20.43,20.43,0,0,1-5.14.59c-1.49,0-2.28-.06-2.73-.41s-.56-1-.58-2.2c0-1.53.06-4,.2-6.33h0a74.39,74.39,0,0,1,7.61-2.37h.12a.33.33,0,0,1,.3.13.44.44,0,0,1-.05.39,30.23,30.23,0,0,1-4,5.52l.42.45A43.85,43.85,0,0,0,31,306.44a3.55,3.55,0,0,1,.73-.48c.5-.27,1-.53,1-1s-.68-1.2-1.31-1.72a4.23,4.23,0,0,0-2.05-1.06,1.3,1.3,0,0,0-.74.33,3.36,3.36,0,0,1-1,.52c-1.46.38-4.7,1.3-7,2,.14-1.85.25-3,.34-3.62a3.23,3.23,0,0,1,.44-1.1,2,2,0,0,0,.33-1c0-.83-2-2-3.37-2a8.49,8.49,0,0,0-2.49.6l0,.48c1.37.32,2.2.57,2.29,1.27.09,1.06.05,4.08,0,6.08h0a43.93,43.93,0,0,1-6.28,1.52c-.89,0-1.44-.69-2-1.36l-.42.14h0a4.23,4.23,0,0,0,.17,1.83,5,5,0,0,0,3,2.26,2.16,2.16,0,0,0,1.33-.49,6.53,6.53,0,0,1,.93-.55c.75-.33,1.72-.71,2.66-1.08l.56-.22Zm-1.58,27.79-.11.54a22.75,22.75,0,0,1,7.83,3.7l.31.24c.76.6,1.14.89,1.87.89a1.21,1.21,0,0,0,1.19-1.21c0-1.1-.67-1.89-2.24-2.63C24.4,336.68,21.91,335.86,16.55,335.62Zm-1.24,6.81-.12.57A31.85,31.85,0,0,1,22,346.22l.23.15c.92.65,1.43,1,2.06,1a1.2,1.2,0,0,0,1.25-1.25c0-.95-.69-1.7-2.1-2.29a22.89,22.89,0,0,0-8.08-1.39Zm-.88,7.78-.14.54a29.31,29.31,0,0,1,9.56,4.55l.07.06c1,.86,1.87,1.53,2.61,1.53A1.31,1.31,0,0,0,28,355.47c0-.79-.73-1.68-2-2.46C23.52,351.54,18.76,350.38,14.43,350.21Zm6.84,31.62h0A16.7,16.7,0,0,1,19,389.47a17.09,17.09,0,0,1-5.8,5.65l.37.51a15.71,15.71,0,0,0,7.5-5.43,16.88,16.88,0,0,0,2.77-8.63c1.39-.09,2.77-.14,4.09-.14,1.48,0,2.61.06,3.44.1l1.06,0c.56,0,1.22-.19,1.22-1.07,0-.6-.79-1.07-1.26-1.29a5.29,5.29,0,0,0-2.05-.55,2.51,2.51,0,0,0-.56.09,47.64,47.64,0,0,1-5.86.95l0-.6h0c.05-1,.1-2.07.17-3a2,2,0,0,1,.37-1.13,1.21,1.21,0,0,0,.25-.71c0-.81-2-1.89-3.48-1.89a5.84,5.84,0,0,0-2.18.78l-.19.09.05.49c1,.18,2.13.44,2.24,1.13a38.31,38.31,0,0,1,.14,5.14l-1.8.21h0c-2.71.32-5.78.67-6.7.67s-1.48-.62-2.14-1.44l-.43.17a4.27,4.27,0,0,0,.28,1.61c.34.82,2,2.35,2.83,2.35a3,3,0,0,0,1.29-.37,5.53,5.53,0,0,1,.95-.37,54.42,54.42,0,0,1,5.65-1Zm-.87,29.74a7.53,7.53,0,0,0-2.22.47l-.13,0,0,.45c1.35.33,2.18.62,2.23,1.78.12,1.42.14,4.69.14,6.51s-.05,5.12-.17,6.9c0,.54-.11,1-.16,1.5a15,15,0,0,0-.15,1.64c0,1.39.53,2.88,1.7,2.88,1,0,1.47-.56,1.47-1.81,0-.83,0-3.12,0-5.34v-.06c0-2.17,0-4.41,0-5.21,0-1.85,0-4.31.17-5.51a3.49,3.49,0,0,1,.41-1.12,2.08,2.08,0,0,0,.3-.94C24,412.87,21.83,411.57,20.4,411.57Zm24.33,74.36H0V160.23H44.73v325.7Z"/></g></g></svg>