<svg xmlns="http://www.w3.org/2000/svg" viewBox="0 0 315 64.46"><defs><style>.cls-1{fill:#fff;}</style></defs><g id="レイヤー_2" data-name="レイヤー 2"><g id="レイヤー_1-2" data-name="レイヤー 1"><path class="cls-1" d="M216.46,42.77l-.09.47a19.4,19.4,0,0,1,6.47,2.82l.31.24a1.89,1.89,0,0,0,1.17.56h.06a.79.79,0,0,0,.78-.82c0-.76-.49-1.3-1.7-1.88a21.66,21.66,0,0,0-7-1.39Zm-52.93,2.59h0l-.23.21a10.33,10.33,0,0,1,3.85,4.18,1.29,1.29,0,0,0,.6.16.83.83,0,0,0,.82-.84,2.57,2.57,0,0,0-1-2,8.36,8.36,0,0,0-4-1.71Zm52.24,2.87h0l-.12.47a25.46,25.46,0,0,1,5.69,2.55l.25.16a2.41,2.41,0,0,0,1.16.53.78.78,0,0,0,.83-.82c0-.68-.47-1.2-1.48-1.64a18.39,18.39,0,0,0-6.33-1.25Zm52.57,1.05-.45.13a3.68,3.68,0,0,0,.18,1.39c.35.88,1.49,2.06,2.17,2.06a2.3,2.3,0,0,0,.87-.19,6.49,6.49,0,0,1,1.51-.35c1.66-.2,7.61-.53,9.08-.53l1.94,0,1.08,0c.76,0,1.14-.24,1.14-.71,0-.74-1.07-1.19-2.06-1.19-.29,0-.64,0-1.11.09l-1.69.16c-1.25.1-8.67.58-10.76.58-1,0-1.34-.61-1.83-1.37Zm-131.53-.81h0l-.26.14a10.42,10.42,0,0,1,1.61,5A1.21,1.21,0,0,0,139,54a1,1,0,0,0,.91-.86c.33-1.23-.48-3.15-3.07-4.66ZM170.42,50h0l-.23.2c2,2,2.49,5.29,2.58,6.25a1,1,0,0,0,.72.39c.41,0,.78-.39.93-1,.3-1.23-.2-3.84-4-5.85ZM160,50.13a7.46,7.46,0,0,1-1.64,5,1.14,1.14,0,0,0-.4,1.5.81.81,0,0,0,.69.33,1.61,1.61,0,0,0,1.19-.64c.82-1,1.45-3.16.54-6.22Zm29.66,0h0c0,.37,0,.77,0,1.2,0,1.31-.06,2.78,0,3.9,0,1.51.36,2.35,1.16,2.79s2,.52,3.89.52a26.76,26.76,0,0,0,4.55-.43c.71-.13,1.05-.39,1.05-.83,0-.66-1-1-1.72-1a4,4,0,0,0-.57.1,16.1,16.1,0,0,1-4.07.44c-2.53,0-2.79-.19-2.84-2.06,0-1.24,0-3.26.16-5.21h0a58.79,58.79,0,0,1,6.37-1.94h.1q.16,0,.21.09a.29.29,0,0,1,0,.29,22.75,22.75,0,0,1-3.29,4.34l.36.36A28.93,28.93,0,0,0,199.59,49a3.46,3.46,0,0,1,.62-.43c.34-.19.63-.36.63-.66,0-.61-1.67-2-2.41-2a.87.87,0,0,0-.5.23,2.36,2.36,0,0,1-.75.39c-.64.19-1.66.47-2.74.77h0c-1.06.3-2.16.6-3.08.87.07-1.18.17-2.47.26-3.11a2.46,2.46,0,0,1,.32-.84,1.47,1.47,0,0,0,.24-.73c0-.56-1.5-1.45-2.43-1.45a5.49,5.49,0,0,0-1.82.38l0,.4c1.09.2,1.76.35,1.81.92.06.84,0,2.95,0,4.9h0A36.66,36.66,0,0,1,184.49,50c-.62,0-1-.5-1.45-1.1l-.34.11a2.78,2.78,0,0,0,.13,1.32A3.77,3.77,0,0,0,185,52a1.38,1.38,0,0,0,.91-.34,4.59,4.59,0,0,1,.72-.42c.93-.4,2.31-.9,3-1.16Zm25.19,4.22h0l-.13.5a24.44,24.44,0,0,1,7.88,3.49l.32.24h0a3.24,3.24,0,0,0,1.62.87.83.83,0,0,0,.94-.9c0-.56-.46-1.16-1.34-1.72-1.94-1.22-5.76-2.24-9.29-2.49Zm33.74-5.12h0c-.31,4.83-2.27,8-6.53,10.52l.31.44a12.31,12.31,0,0,0,5.89-4.35A13.23,13.23,0,0,0,250.38,49c1.36-.1,2.68-.14,3.91-.14,1,0,1.82,0,2.39,0l.72,0a.74.74,0,0,0,.83-.74c0-.67-1.58-1.25-2.35-1.25a1.91,1.91,0,0,0-.41.06,43.75,43.75,0,0,1-5.05.72c0-.36,0-.73,0-1.1,0-.69,0-1.4.1-2a1.48,1.48,0,0,1,.28-.89.84.84,0,0,0,.19-.52c0-.58-1.48-1.39-2.55-1.39a4.83,4.83,0,0,0-1.75.61l0,.4c.69.08,1.73.21,1.82.78a37.36,37.36,0,0,1,.11,4.3c-2.72.32-6,.69-6.82.69s-1.26-.66-1.7-1.25l-.36.13a3.22,3.22,0,0,0,.24,1.28c.24.54,1.41,1.72,2.06,1.72a2.2,2.2,0,0,0,.89-.27,3.83,3.83,0,0,1,.79-.29c1-.21,3-.55,4.83-.76Zm-86.09-1.12V58.59c0,1.38.48,1.74,2.31,1.74h2.23c3.58,0,4.23-.37,4.23-1.09,0-.34-.1-.55-.69-.76l-.09-3.25h-.25c-.07.31-.13.62-.2.92a15.54,15.54,0,0,1-.56,2.19.52.52,0,0,1-.49.31c-.29,0-1,0-1.83,0h-2c-.8,0-.91-.11-.91-.52V48.92c.44-.08.69-.28.71-.58Zm-35.39-.22-.29.22a29.82,29.82,0,0,1,4.07,4.61,18.19,18.19,0,0,1-5.59,7.74l.2.27a16.57,16.57,0,0,0,6.35-6.49,10.53,10.53,0,0,1,1.3,3.16,1.37,1.37,0,0,0,.78.31.74.74,0,0,0,.7-.49,2.9,2.9,0,0,0-.07-2,9.11,9.11,0,0,0-1.79-3,26.89,26.89,0,0,0,1.68-6.78h2.17c.32,0,.51-.12.58-.36-.75-.71-2.05-1.74-2.06-1.75l-1.12,1.46h-2V41.09c.51-.08.76-.28.78-.62l-2.52-.25v4.61h-4.52l.18.65h6.51a30,30,0,0,1-1,5.43,22.52,22.52,0,0,0-4.36-3.06ZM156,42.79V49c0,3.82-.18,8.17-2.22,11.57l.31.22c3.25-3.06,3.69-7.47,3.69-11.79v-4.7h16.16c.32,0,.54-.13.58-.36-.78-.75-2.13-1.8-2.15-1.81l-1.16,1.52h-5.55V41.09c.52-.08.78-.27.83-.62l-2.62-.25v3.42h-5.77ZM138.29,58.48v.33a4.21,4.21,0,0,1,2.06.69,2.13,2.13,0,0,1,.54,1.3c2.49-.25,2.68-1.18,2.68-2.46V46.84h2.53c.3,0,.52-.12.58-.33-.68-.73-1.85-1.81-1.86-1.82l-1,1.53h-.2v-4.9c.49-.07.76-.26.81-.61l-2.6-.29v5.8h-6.15l.18.62h6V58.18c0,.36-.13.47-.51.47S138.32,58.48,138.29,58.48Zm176.71,6H96v-28H315v28Z"/><path class="cls-1" d="M240,9h-5.39V6.82H240V9ZM63.6,11.83H60.33V7.72H63.6v4.11Zm59,1h-1.84v-2h1.84v2Zm3.48,0h-1.94v-2h1.94v2Zm-3.48,2.76h-1.84V13.51h1.84v2.1Zm3.48,0h-1.94V13.51h1.94v2.1ZM236.33,16H232v-3.4h4.38V16Zm6.2,0h-4.36v-3.4h4.36V16Zm-29.64,1h0a19.1,19.1,0,0,1-2.55-6.49c.24-.44.46-.86.65-1.25h4.29A19.28,19.28,0,0,1,212.89,17ZM90.67,18.68c-.45,0-.91-.39-1.26-1.07a5.76,5.76,0,0,1-.58-2.6,7.16,7.16,0,0,1,2.22-5A8.23,8.23,0,0,1,95.19,7.7a3.71,3.71,0,0,1,.64,2A10.33,10.33,0,0,1,95,13.33C94.2,15.08,92.12,18.68,90.67,18.68ZM63.82,21H60.33V16.31h3.49V21ZM34,13.29l.18.67h5.95c-.38,2.72-1.58,4.87-6.22,6.49l.25.36c4.17-1.09,6.35-2.59,7.29-5,1.69,1.08,4,2.91,4.79,4.51a1.3,1.3,0,0,0,.58.14.77.77,0,0,0,.81-.75c.13-1.16-1.36-3.29-6-4.37A9.51,9.51,0,0,0,41.89,14v0h6.77q.53,0,.63-.36c-.8-.71-2.07-1.7-2.12-1.74L46,13.29H42c.1-.9.16-1.88.18-3.29h5.26c.33,0,.52-.12.58-.36C47.22,8.9,46,8,45.92,7.92L44.83,9.35H38.25a14.29,14.29,0,0,0,1-1.74h.14a.7.7,0,0,0,.73-.41l-2.46-.89a16,16,0,0,1-3.38,6.24l.25.27A11.74,11.74,0,0,0,37.76,10h2.52c0,.22,0,.43,0,.63v0c0,.93,0,1.81-.1,2.64Zm165.54-2.46v8.86c0,1.4.42,1.72,2.23,1.72h2.22c3.48,0,4.14-.42,4.14-1.19,0-.35-.1-.56-.65-.76l-.07-3.08h-.29a22.81,22.81,0,0,1-.76,3,.49.49,0,0,1-.47.29c-.26,0-.93.05-1.79.05h-2c-.71,0-.83-.11-.83-.47V12.3h4v1.08h.29a2.37,2.37,0,0,0,1.48-.58v-6a1.7,1.7,0,0,0,.89-.42l-2-1.5-.91,1h-5.91l.2.65h5.93v5.13h-3.76ZM96.89,7.49a6.63,6.63,0,0,1,4.66,1.79,6.48,6.48,0,0,1,1.89,4.79,7,7,0,0,1-1.94,5.1,11.23,11.23,0,0,1-6.09,2.89l.09.49c3.41-.2,6-1.11,7.7-2.73a7.12,7.12,0,0,0,2.19-5.3A7.58,7.58,0,0,0,103,8.86a8.69,8.69,0,0,0-6-2.17,9.78,9.78,0,0,0-6.6,2.39,8.67,8.67,0,0,0-3.08,6.38c0,2.72,1.54,5.3,3.17,5.3,1.37,0,2.67-1.35,3.52-2.48a17.4,17.4,0,0,0,2.41-4.52,11.36,11.36,0,0,0,.72-3.71,4.14,4.14,0,0,0-1.12-2.51h.06C96.39,7.51,96.64,7.49,96.89,7.49Zm55.3,8.8c-4,0-5.75,1.83-5.75,3.64a3.08,3.08,0,0,0,1.93,2.77,9.48,9.48,0,0,0,4.18.86c2.91,0,4.38-.39,4.38-1.17,0-.51-.51-.85-1.32-.85a6.42,6.42,0,0,0-1.11.11,11.83,11.83,0,0,1-2.08.16c-3.12,0-4.7-.76-4.7-2.26a2,2,0,0,1,1.12-1.73,5.65,5.65,0,0,1,2.88-.68,10.63,10.63,0,0,1,4.39,1c.36.2.63.38.87.53a1.87,1.87,0,0,0,1.07.46c.6,0,1-1,1-1.79,0-.31-.27-.61-.74-1.11a17.73,17.73,0,0,1-2.3-3,16.39,16.39,0,0,0,3.76-1.5,1,1,0,0,0,.54-.81c0-.43-.39-.68-1.05-.68h-.25a1.41,1.41,0,0,0-.56.22,14.58,14.58,0,0,1-1.79.81c-.49.2-1,.37-1.45.51a18,18,0,0,1-1.14-2.66,18.06,18.06,0,0,0,3.71-1.41,1,1,0,0,0,.54-.74c0-.44-.47-.67-1.35-.67a1.74,1.74,0,0,0-.58.26,13.42,13.42,0,0,1-2.75,1.18c-.17-.65-.27-1.3-.37-1.88h0c0-.18,0-.34-.08-.5-.12-.72-1.1-.87-1.9-.87a3.3,3.3,0,0,0-2,.69l.07.39a11.9,11.9,0,0,1,1.25.06,1.09,1.09,0,0,1,1.08.83l.6,1.61a14.82,14.82,0,0,1-3.15.47,4.88,4.88,0,0,1-3.49-1.21l-.29.23a3.81,3.81,0,0,0,4,2.3,16,16,0,0,0,3.49-.45c.42,1.07.82,2,1.18,2.71a17.27,17.27,0,0,1-4.61.65c-1.18,0-1.89-.23-2.07-.65s.09-.85.69-1.43l-.36-.32c-1.11.77-1.61,1.65-1.37,2.42s1.41,1.39,3,1.39a24.25,24.25,0,0,0,5.48-.63,29.19,29.19,0,0,0,1.7,2.62l.34.47c.07.11.09.18.07.21s0,0-.07,0a.54.54,0,0,1-.18,0A18.45,18.45,0,0,0,152.19,16.29Zm-93.52-10V23.67h.27c.84,0,1.39-.4,1.39-.54V21.61h3.49V23h.27a2.27,2.27,0,0,0,1.36-.49V16.6a1.58,1.58,0,0,0,.92-.45L64.49,14.7l-.89.94H60.33V12.46H63.6v1h.26A2.16,2.16,0,0,0,65.23,13V8a1.79,1.79,0,0,0,.92-.43l-1.9-1.45-.88,1H61.74c.58-1.08,1-1.93,1.32-2.53.5,0,.76-.22.83-.56l-2.6-.42c-.07.83-.2,1.94-.3,2.84,0,.24-.06.46-.08.67H60.6Zm69.9,15.62,0,.38a3.26,3.26,0,0,1,1.64.63,1.46,1.46,0,0,1,.31,1.21,3,3,0,0,0,2.35-1c.47-.56.77-1.75,1-3.84.17-1.93.27-4.77.31-9.47a1.47,1.47,0,0,0,.9-.38L133.2,7.87l-.94,1h-1.39V4.79c.63-.1.77-.36.83-.63l-2.42-.24v5h-1.52l.18.65h1.34v1.81c0,3.89-.5,6.66-1.63,9L127.6,20l-.39.06c-1.07.16-2.08.31-3,.43V18.9h3.38c.31,0,.49-.12.53-.35a18.24,18.24,0,0,0-1.7-1.41l-.89,1.12h-1.32v-2h1.94v.68h.25c.47,0,1.21-.31,1.23-.47V11a1.5,1.5,0,0,0,.76-.36L126.69,9.4l-.76.8h-1.77V8.64h3.73c.33,0,.52-.12.59-.36-.64-.62-1.76-1.49-1.77-1.5l-1,1.21h-1.59V6.22c1-.13,1.92-.31,2.68-.47a2.2,2.2,0,0,0,.76.18.53.53,0,0,0,.41-.14l-1.77-1.7A37.88,37.88,0,0,1,119,6.31l.11.36c1.16,0,2.37-.14,3.5-.27V8h-3.9l.18.65h3.72V10.2h-1.73l-1.56-.67v7.74h.22c.61,0,1.23-.34,1.23-.49v-.52h1.84v2h-3.74l.16.64h3.58v1.82c-2.18.31-3.59.44-4,.47l.88,2a.77.77,0,0,0,.56-.49c3-.88,5.51-1.7,7.56-2.41a11.47,11.47,0,0,1-2.57,3.37l.29.27a10.84,10.84,0,0,0,4.48-5.62,20.2,20.2,0,0,0,1-7V9.55h1.59c0,4.31-.11,6.93-.23,8.75-.14,2-.36,3.13-.69,3.47a.81.81,0,0,1-.74.27C130.35,22,129.21,21.94,128.57,21.88ZM68.76,10.11h2.62v14h.27c.87,0,1.43-.4,1.43-.54V10.11h2.73v8.68c0,.24-.06.36-.38.36s-1.51-.09-1.56-.09v.34a1.72,1.72,0,0,1,1.2.58,2.46,2.46,0,0,1,.32,1.23,2.41,2.41,0,0,0,1.75-.7A2.44,2.44,0,0,0,77.49,19V10.4a1.81,1.81,0,0,0,.89-.42l-2-1.48-.8,1H73.08V6.13H78a.53.53,0,0,0,.58-.36c-.75-.71-2-1.71-2-1.72l-1.1,1.43h-9l.18.65h4.76V9.46H69.06l-2-.8V21.34h.27c.84,0,1.38-.4,1.38-.53V10.11Zm47.41,2h0v12h.29a2.07,2.07,0,0,0,1.37-.51V10.49c.37-.06.62-.2.69-.4l-1.07-.4a35.81,35.81,0,0,0,1.81-4.9c.45,0,.75-.17.85-.47l-2.62-.76a42.11,42.11,0,0,1-3.56,11.09l.34.21a19,19,0,0,0,1.9-2.71Zm54.48-4.28h0l.18.65h7a25.07,25.07,0,0,1-1.57,8.73,14.81,14.81,0,0,1-5.48,6.69l.18.24c4.76-2.2,7.36-5.59,8.41-11h6.42c-.27,4.83-.82,7.93-1.49,8.5a1.14,1.14,0,0,1-.92.27c-.52,0-2.4-.15-3.85-.29v.36a8,8,0,0,1,2.68.8,1.44,1.44,0,0,1,.5,1.28h0a4.12,4.12,0,0,0,2.86-.9c1-1,1.71-4.24,2-9.75a1.45,1.45,0,0,0,.94-.36l-1.93-1.61-1,1.05h-6.1A37.85,37.85,0,0,0,180,8.52h10.69c.32,0,.54-.13.6-.35-.83-.75-2.24-1.82-2.3-1.86l-1.21,1.56h-6V4.39c.5-.09.76-.29.81-.63L180,3.51V7.87Zm42.26,11.62h0a13.14,13.14,0,0,0,5.26,4.69,2,2,0,0,1,1.63-1.49l.07-.23a14,14,0,0,1-6-4.12,18.8,18.8,0,0,0,3.45-9.08H219a.53.53,0,0,0,.58-.36c-.78-.73-2.09-1.73-2.1-1.74l-1.14,1.45H211.3a28.16,28.16,0,0,0,1.39-3.8c.47,0,.77-.2.87-.52l-2.78-.67a28.76,28.76,0,0,1-4.11,10.92l.31.2a15.64,15.64,0,0,0,3-3.64,24.46,24.46,0,0,0,2.17,7,17.93,17.93,0,0,1-7.54,5.73l.18.29a18.65,18.65,0,0,0,8.12-4.67ZM227,19.33l.2.67h9.17v4.18h.3c.93,0,1.54-.41,1.54-.55V20h8.93c.32,0,.54-.13.6-.36-.86-.74-2.31-1.84-2.33-1.85l-1.25,1.54h-6V16.62h4.36v1h.29a2.51,2.51,0,0,0,1.52-.54v-4.2a1.71,1.71,0,0,0,.92-.45l-2-1.54-.92,1h-4.14V9.62H240v1.12h.31c.65,0,1.43-.36,1.43-.54V6.82h4.88c.34,0,.56-.13.6-.35-.86-.76-2.2-1.81-2.21-1.82l-1.23,1.5h-2V4.39c.51-.09.74-.26.79-.61L240,3.53V6.15h-5.39V4.39c.51-.09.75-.27.8-.61l-2.53-.25V6.15h-5.39l.2.67h5.19v4h.32c.68,0,1.41-.36,1.41-.56V9.62h1.76V12h-4.22l-1.93-.83V17.9h.27a2.22,2.22,0,0,0,1.5-.56v-.72h4.38v2.71ZM31.11,4.5V24.23h.31c.9,0,1.5-.42,1.5-.56v-1H49.77c.32,0,.52-.12.58-.36A27.51,27.51,0,0,0,48,20.4L46.77,22H32.92V6h16c.33,0,.54-.12.61-.34-.84-.75-2.2-1.76-2.22-1.77L46.15,5.37H33.21ZM276.77,28H0V0H276.77V28Z"/></g></g></svg>