<svg xmlns="http://www.w3.org/2000/svg" viewBox="0 0 231.16 15.54"><defs><style>.cls-1{fill:#fff;}.cls-2{fill:none;stroke:#fff;}</style></defs><g id="レイヤー_2" data-name="レイヤー 2"><g id="レイヤー_1-2" data-name="レイヤー 1"><path class="cls-1" d="M4.08,7.78v-4c0-1,0-1.69,0-2.11a.17.17,0,0,0-.22-.18c-1.34.58-2.48,1-3.78,1.41C-.1,3,0,3.29.16,3.27,1.57,3,1.9,3.12,2,4.13s.08,2,.08,3.67c0,.75,0,3.28,0,4,0,1.72-.22,1.91-1.41,2.11-.15,0-.17.29,0,.29.71,0,2.11-.07,2.73-.07s1.58.07,2.38.07c.15,0,.15-.29,0-.29-1.3-.22-1.52-.39-1.57-2.11C4.12,11.08,4.08,8.55,4.08,7.78Z"/><path class="cls-1" d="M9.56,9.43c1.34-1.65,2.64-3.3,4.31-5.1v5.1C11.16,9.43,10.5,9.45,9.56,9.43Zm4.31,1.06v1.34c0,1.72-.2,1.94-1.23,2.11-.16,0-.16.29,0,.29.81,0,1.69-.07,2.31-.07s1.82.07,2.61.07c.16,0,.14-.29,0-.29-1.29-.22-1.49-.39-1.58-2.11,0-.33,0-.62,0-1.36.81,0,1.27,0,1.76.06.11,0,.46-1.3.19-1.23a14.68,14.68,0,0,1-2,.11c0-.7,0-1.3,0-1.63,0-1.52,0-3.52,0-4.18A17.82,17.82,0,0,1,16,1.73c0-.22-.55-.2-.7,0C14,3.14,12.79,4.5,11.4,6.11s-2.48,3-2.83,3.37c-.16.15-.22.92,0,1C10.35,10.49,12.09,10.47,13.87,10.49Z"/><path class="cls-1" d="M21.5,13.08A1.42,1.42,0,0,0,23,14.54a1.47,1.47,0,1,0-1.45-1.46Zm0-6A1.41,1.41,0,0,0,23,8.51a1.43,1.43,0,0,0,1.48-1.45A1.45,1.45,0,0,0,23,5.58,1.43,1.43,0,0,0,21.5,7.06Z"/><path class="cls-1" d="M37,7.8c.09,2.53-.35,6.16-3.32,6.16-3.13,0-3.41-3.23-3.48-5.67-.09-3.76.82-6.18,3.46-6.18S36.88,5.14,37,7.8Zm-9.17.44c0,3.46,2.31,6.3,5.8,6.3s5.77-3.15,5.77-6.47c0-3.61-2.22-6.54-5.74-6.54S27.82,4.68,27.82,8.24Z"/><path class="cls-1" d="M52,7.8c.09,2.53-.35,6.16-3.32,6.16-3.12,0-3.41-3.23-3.47-5.67-.09-3.76.81-6.18,3.45-6.18S51.88,5.14,52,7.8Zm-9.17.44c0,3.46,2.31,6.3,5.81,6.3s5.76-3.15,5.76-6.47c0-3.61-2.22-6.54-5.74-6.54S42.82,4.68,42.82,8.24Z"/><rect class="cls-1" x="57.31" y="9.17" width="11.52" height="1.17"/><path class="cls-1" d="M75.27,7.78v-4c0-1,0-1.69,0-2.11a.17.17,0,0,0-.22-.18c-1.34.58-2.49,1-3.78,1.41-.22.07-.09.35,0,.33,1.41-.28,1.74-.15,1.8.86s.09,2,.09,3.67c0,.75,0,3.28,0,4,0,1.72-.22,1.91-1.41,2.11-.15,0-.18.29,0,.29.7,0,2.11-.07,2.73-.07s1.58.07,2.37.07c.16,0,.16-.29,0-.29-1.29-.22-1.51-.39-1.56-2.11C75.31,11.08,75.27,8.55,75.27,7.78Z"/><path class="cls-1" d="M84.13,3.34c.84,0,2.05,0,2.49.06.26,0,.37-1.27.46-1.76,0-.11-.24-.11-.37,0a2.43,2.43,0,0,1-.82.11c-.88,0-2.35,0-2.9,0s-1.32,0-2,0c0,1,0,1.91-.07,2.88s-.06,2.13-.13,3.1a9.87,9.87,0,0,1,1.3-.09c2.24,0,3.52,1.1,3.52,3.1s-.9,3.15-2.62,3.15c-1.28,0-2.38-.9-2.71-2.84,0-.13-.26-.15-.28,0,0,.35-.22,1.26-.24,1.72a1.26,1.26,0,0,0,.85,1.32,6,6,0,0,0,2.31.42c2.71,0,5-1.63,5-4,0-2.75-2.48-3.78-5.17-3.78a7.92,7.92,0,0,0-1.1.06c0-.7.07-1.32.09-2l.07-1.39C82.5,3.34,83.41,3.34,84.13,3.34Z"/><path class="cls-1" d="M91,13.08a1.42,1.42,0,0,0,1.45,1.46A1.47,1.47,0,1,0,91,13.08Zm0-6A1.41,1.41,0,0,0,92.4,8.51a1.43,1.43,0,0,0,1.48-1.45A1.45,1.45,0,0,0,92.4,5.58,1.43,1.43,0,0,0,91,7.06Z"/><path class="cls-1" d="M98.06,9.43c1.34-1.65,2.64-3.3,4.31-5.1v5.1C99.66,9.43,99,9.45,98.06,9.43Zm4.31,1.06v1.34c0,1.72-.2,1.94-1.23,2.11-.16,0-.16.29,0,.29.81,0,1.69-.07,2.31-.07s1.82.07,2.62.07c.15,0,.13-.29,0-.29-1.3-.22-1.5-.39-1.59-2.11,0-.33,0-.62,0-1.36.81,0,1.27,0,1.76.06.11,0,.46-1.3.2-1.23a15,15,0,0,1-2,.11c0-.7,0-1.3,0-1.63,0-1.52,0-3.52,0-4.18a12.61,12.61,0,0,1,.09-1.87c0-.22-.55-.2-.71,0-1.34,1.39-2.53,2.75-3.91,4.36s-2.49,3-2.84,3.37c-.16.15-.22.92,0,1C98.85,10.49,100.59,10.47,102.37,10.49Z"/><path class="cls-1" d="M119.22,7.8c.09,2.53-.35,6.16-3.32,6.16-3.12,0-3.41-3.23-3.48-5.67-.08-3.76.82-6.18,3.46-6.18S119.11,5.14,119.22,7.8Zm-9.17.44c0,3.46,2.31,6.3,5.81,6.3s5.76-3.15,5.76-6.47c0-3.61-2.22-6.54-5.74-6.54S110.05,4.68,110.05,8.24Z"/><path class="cls-1" d="M195,2.42A15,15,0,0,1,195,.81c-.46,0-.93.06-1.65.06h-2.64a13,13,0,0,1-1.79-.1v1.8a12.35,12.35,0,0,1,1.78-.08h2.52l0,3.36h-2.58a14.45,14.45,0,0,1-1.6-.07,13.19,13.19,0,0,1,.07,1.57v5.86c0,1.45.37,1.66,2.86,1.66,1.86,0,2.63-.18,3-.69s.47-1.2.56-3.12a5.56,5.56,0,0,1-1.68-.65,10.2,10.2,0,0,1-.17,2.35c-.15.4-.47.49-1.65.49a3.36,3.36,0,0,1-1.14-.12c-.09-.07-.13-.15-.13-.44V7.46h2.58a14.33,14.33,0,0,1,1.6.07A14.28,14.28,0,0,1,195,6Zm-12,9.11h3.79v1.24H183Zm3.2-6.47h.59V7.58c-.58,0-.59,0-.59-.29Zm-3.2,0h.62A7.5,7.5,0,0,1,183,8.62Zm0,3.73a4.13,4.13,0,0,1,.67,1.19,5.19,5.19,0,0,0,.7-1.72,14.11,14.11,0,0,0,.32-3V5.06h.45V8.18c0,.63.16.72,1.2.72h.45v1.25H183Zm1.69-6.38h.45V3.72h-.45Zm-1.29,0V3.72H183a16.22,16.22,0,0,1-1.63-.06c.05.55.06,1.1.06,1.92V13a21.31,21.31,0,0,1-.09,2.18H183v-.9h3.79v.61h1.54a16.91,16.91,0,0,1-.07-1.77V5.42c0-.68,0-1.27,0-1.76-.46,0-.82.06-1.65.06h-.22V2.41h.49c.58,0,1.2,0,1.64.06V.77a13.71,13.71,0,0,1-1.8.1h-3.92a13.18,13.18,0,0,1-1.76-.1V2.49a16.63,16.63,0,0,1,1.75-.08Z"/><path class="cls-1" d="M201.87,4.79a9.05,9.05,0,0,1,1.33-.08H211a12.73,12.73,0,0,1,1.51.08V3.14a9,9,0,0,1-1.51.1H203.2a8.46,8.46,0,0,1-1.33-.08Zm2.48,8.1V11.54h5.28v1.35Zm0,1.5h5.28v.74h1.76a11.38,11.38,0,0,1-.08-1.51V11.38a10.46,10.46,0,0,1,.07-1.36,12.11,12.11,0,0,1-1.36.05H204a11.89,11.89,0,0,1-1.31-.05,11.33,11.33,0,0,1,.07,1.38v2.26a14.64,14.64,0,0,1-.08,1.48h1.72Zm7-6.64a8.84,8.84,0,0,1-1.24.06h-6.13a7,7,0,0,1-1.14-.06V9.27a6.79,6.79,0,0,1,1.14-.06h6.14a8.94,8.94,0,0,1,1.23.06Zm0-2.25a11.19,11.19,0,0,1-1.26.06h-6.11a8.27,8.27,0,0,1-1.14-.06V7A7.05,7.05,0,0,1,203.94,7h6.13a8.56,8.56,0,0,1,1.24.07Zm0-4.6a10.4,10.4,0,0,1-1.69.1H204.5a10.19,10.19,0,0,1-1.59-.1V2.44a11.29,11.29,0,0,1,1.44-.06h5.4a13.56,13.56,0,0,1,1.56.06ZM201,4.14A18.37,18.37,0,0,0,202,1.78c.16-.48.28-.8.32-1L200.51.21a9,9,0,0,1-.59,2.21,11.78,11.78,0,0,1-2.43,4.12,10,10,0,0,1,.74,1.9,9.88,9.88,0,0,0,1.18-1.73c0,1.17,0,1.22,0,1.78v4.76a17.42,17.42,0,0,1-.09,1.88h1.84a16,16,0,0,1-.08-1.86Z"/><path class="cls-1" d="M142.27,13.55c-.37,0-1.06,0-1.38,0-1.38,0-1.65-.23-1.68-1.91,0-1.15,0-2.78,0-4.53s0-3.08,0-4.35c.07-2,.21-2.39,1.36-2.48.18,0,.16-.3,0-.3-.62,0-1.86.07-2.62.07S136,0,135.26,0c-.21,0-.16.3,0,.3,1.51.18,1.54.6,1.58,2.51,0,1.45,0,2.71,0,4.11,0,1.64,0,3.36,0,5,0,2-.3,2.19-1.51,2.32-.17,0-.19.3,0,.3.78,0,2.09-.07,2.59-.07,2.93,0,3.87.1,6.21.1.79,0,1.27-.19,1.38-.76a29.38,29.38,0,0,0,.14-3.61c0-.21-.25-.21-.27,0C145,12.14,144.25,13.43,142.27,13.55Z"/><path class="cls-1" d="M151.7,5.61c0-.53-.07-.71-.41-.71a24,24,0,0,0-3.08.57.15.15,0,0,0,0,.3h.27c.69,0,1,.46,1,1.73,0,.78.09,3.47,0,5.36-.09,1.15-.36,1.24-.87,1.35-.14,0-.16.3,0,.3.37,0,1.63-.07,2-.07s1.54.07,2.3.07c.18,0,.16-.3,0-.3-.87-.13-1.1-.2-1.2-1.35C151.61,11.52,151.7,8.12,151.7,5.61Zm-2.85-3.95a1.5,1.5,0,0,0,3,0,1.5,1.5,0,1,0-3,0Z"/><path class="cls-1" d="M164.26,6a1.12,1.12,0,0,1,1.1-.74c.14,0,.21-.3,0-.3-.62,0-1,.07-1.5.07s-1-.07-1.61-.07c-.14,0-.16.28,0,.3.8.09,1,.35.73,1.06-.43,1.33-1.31,3.59-1.86,4.87-.18.44-.21.46-.46,0-.83-1.63-1.52-3.22-2.18-4.83-.33-.78.09-1,.69-1.08.13,0,.18-.3,0-.3-.76,0-1.54.07-2.26.07S155.52,5,154.69,5c-.14,0-.16.28,0,.3.48,0,.88.18,1.29,1,.69,1.36,1.7,3.43,2.67,5.5l1.15,2.48c.23.48.27.51.37.51s.13-.07.34-.53l1.15-2.58C162.28,10.3,163.48,7.66,164.26,6Z"/><path class="cls-1" d="M171.67,5.36c1.49,0,1.7,2,1.65,3-.6,0-1.24,0-1.91,0s-1.26,0-1.88,0C169.69,6.88,170.19,5.36,171.67,5.36ZM167.2,10c.07,3.4,2.21,4.71,4.7,4.71a3.76,3.76,0,0,0,3.63-2,.13.13,0,0,0-.21-.16,3.49,3.49,0,0,1-2.53,1c-1.88,0-3.29-1.08-3.33-3.71,0-.48,0-.71,0-1,.53,0,1.15,0,2.19,0l3,0c.55,0,.62-.16.62-.62a3.54,3.54,0,0,0-3.49-3.52C169,4.78,167.16,7.06,167.2,10Z"/><path class="cls-1" d="M226.56,8.18a.51.51,0,0,1-.23.23h0l-4,2a.51.51,0,0,1-.68-.23.46.46,0,0,1-.06-.23V5.93a.5.5,0,0,1,.51-.5.64.64,0,0,1,.23.05l4,2A.49.49,0,0,1,226.56,8.18Zm-3-7.31A7.09,7.09,0,1,0,230.66,8,7.1,7.1,0,0,0,223.58.87Z"/><path class="cls-2" d="M226.56,8.18a.51.51,0,0,1-.23.23h0l-4,2a.51.51,0,0,1-.68-.23.46.46,0,0,1-.06-.23V5.93a.5.5,0,0,1,.51-.5.64.64,0,0,1,.23.05l4,2A.49.49,0,0,1,226.56,8.18Zm-3-7.31A7.09,7.09,0,1,0,230.66,8,7.1,7.1,0,0,0,223.58.87Z"/></g></g></svg>