<?xml version="1.0" encoding="utf-8"?>
<!-- Generator: Adobe Illustrator 25.2.1, SVG Export Plug-In . SVG Version: 6.00 Build 0)  -->
<svg version="1.1" id="コンポーネント_17_1" xmlns="http://www.w3.org/2000/svg" xmlns:xlink="http://www.w3.org/1999/xlink"
	 x="0px" y="0px" viewBox="0 0 276.9 76.4" style="enable-background:new 0 0 276.9 76.4;" xml:space="preserve">
<style type="text/css">
	.st0{enable-background:new    ;}
	.st1{fill:#3662AE;}
	.st2{fill:none;stroke:#3662AE;stroke-width:2;stroke-miterlimit:10;}
	.st3{fill:none;stroke:#3662AE;stroke-width:2;}
</style>
<g class="st0">
	<path class="st1" d="M4.7,11.9h5.6v1.2H1.7c0.8-0.8,1.6-1.6,2.4-2.4c0.8-0.8,1.5-1.5,2.1-2.3s1.1-1.5,1.5-2.2s0.6-1.4,0.6-2
		c0-0.6-0.1-1.1-0.3-1.5S7.6,2,7.3,1.7C7,1.6,6.7,1.4,6.4,1.3C6.1,1.2,5.8,1.2,5.5,1.2c-0.5,0-1,0.1-1.4,0.3
		C3.8,1.7,3.6,1.9,3.4,2.2C3.2,2.5,3,2.8,2.9,3.1c0,0.3-0.1,0.6-0.1,0.8c0,0.9,0.3,1.6,0.8,2.1L2.8,6.8C2.6,6.7,2.5,6.5,2.3,6.3
		C2.1,6,2,5.8,1.9,5.5C1.8,5.3,1.7,5,1.6,4.7c0-0.2,0-0.5,0-0.8c0-0.5,0.1-1,0.3-1.5C2,1.9,2.2,1.5,2.6,1.1c0.3-0.4,0.8-0.7,1.2-0.9
		S4.9,0,5.5,0s1.1,0.1,1.6,0.3S8,0.8,8.3,1.2S8.9,2,9.1,2.5s0.3,1,0.3,1.6c0,0.7-0.1,1.4-0.4,2c-0.3,0.7-0.6,1.3-1.1,2
		c-0.4,0.7-1,1.3-1.5,1.9C5.9,10.6,5.3,11.3,4.7,11.9z"/>
	<path class="st1" d="M13.4,6.6c0-0.9,0.1-1.8,0.4-2.6c0.3-0.8,0.6-1.5,1.1-2.1s1-1.1,1.7-1.4S18,0,18.8,0c0.8,0,1.6,0.2,2.2,0.5
		c0.7,0.4,1.2,0.8,1.7,1.5s0.8,1.3,1.1,2.1c0.2,0.8,0.4,1.7,0.4,2.6c0,1-0.2,1.9-0.5,2.7s-0.7,1.5-1.2,2.1s-1.1,1-1.7,1.3
		c-0.7,0.3-1.3,0.5-2,0.5s-1.4-0.2-2-0.5s-1.2-0.8-1.7-1.4s-0.9-1.3-1.2-2.1S13.4,7.6,13.4,6.6z M14.7,6.6c0,0.8,0.1,1.5,0.3,2.2
		c0.2,0.7,0.5,1.2,0.9,1.7s0.8,0.9,1.3,1.1c0.5,0.3,1,0.4,1.6,0.4c0.5,0,1-0.1,1.5-0.4s0.9-0.6,1.3-1.1s0.7-1.1,0.9-1.7
		c0.2-0.7,0.4-1.4,0.4-2.2c0-0.6-0.1-1.3-0.2-1.9c-0.1-0.6-0.4-1.2-0.8-1.8c-0.3-0.5-0.8-1-1.3-1.3s-1.1-0.5-1.8-0.5
		c-0.7,0-1.3,0.2-1.8,0.5s-0.9,0.7-1.3,1.3c-0.3,0.5-0.6,1.1-0.8,1.8C14.8,5.3,14.7,5.9,14.7,6.6z"/>
	<path class="st1" d="M30.9,11.9h5.6v1.2h-8.6c0.8-0.8,1.6-1.6,2.4-2.4c0.8-0.8,1.5-1.5,2.1-2.3s1.1-1.5,1.5-2.2s0.6-1.4,0.6-2
		c0-0.6-0.1-1.1-0.3-1.5s-0.5-0.6-0.7-0.8c-0.3-0.2-0.6-0.4-0.9-0.5c-0.3-0.1-0.6-0.2-0.9-0.2c-0.5,0-1,0.1-1.4,0.3
		c-0.4,0.2-0.6,0.4-0.8,0.7c-0.2,0.3-0.3,0.6-0.4,0.9S29,3.7,29,4c0,0.9,0.3,1.6,0.8,2.1L29,6.9c-0.2-0.1-0.4-0.3-0.5-0.6
		c-0.2-0.2-0.3-0.5-0.4-0.7c-0.1-0.3-0.2-0.5-0.2-0.8c-0.1-0.3-0.1-0.5-0.1-0.8c0-0.5,0.1-1,0.3-1.5c0.2-0.5,0.4-0.9,0.8-1.3
		c0.3-0.4,0.8-0.7,1.2-0.9S31.2,0,31.8,0c0.6,0,1.1,0.1,1.6,0.3s0.9,0.5,1.2,0.9s0.6,0.8,0.8,1.3s0.3,1,0.3,1.6c0,0.7-0.1,1.4-0.4,2
		c-0.3,0.7-0.6,1.3-1.1,2c-0.4,0.7-1,1.3-1.5,1.9C32,10.6,31.5,11.3,30.9,11.9z"/>
	<path class="st1" d="M39.5,1.3V0.1h2.9v13h-1.3V1.3H39.5z"/>
</g>
<g class="st0">
	<path class="st1" d="M0,28.3v-2h9.6v47.4h-2V28.3H0z"/>
	<path class="st1" d="M18.7,50c0-2.6,0.4-5.3,1.2-8.1c0.8-2.8,2-5.5,3.6-7.8c1.6-2.4,3.6-4.3,6.1-5.9s5.5-2.3,9-2.3
		c3.4,0,6.3,0.8,8.8,2.4c2.5,1.6,4.5,3.6,6.1,5.9c1.6,2.4,2.7,5,3.4,7.8s1.1,5.6,1.1,8.2c0,3.5-0.5,6.7-1.6,9.6
		c-1.1,2.9-2.5,5.5-4.3,7.7s-3.9,3.9-6.3,5.1c-2.4,1.2-4.9,1.8-7.6,1.8s-5.1-0.6-7.5-1.9s-4.4-3-6.2-5.1c-1.8-2.2-3.1-4.7-4.2-7.7
		C19.2,56.6,18.7,53.4,18.7,50z M20.8,49.9c0,3.4,0.5,6.4,1.4,9.2c0.9,2.8,2.2,5.1,3.9,7.1c1.6,2,3.5,3.5,5.6,4.6s4.3,1.6,6.5,1.6
		s4.4-0.5,6.5-1.6c2.1-1,4-2.5,5.6-4.5c1.6-1.9,3-4.3,4-7c1-2.7,1.5-5.7,1.5-9.1c0-3.2-0.4-6.2-1.2-8.9s-2-5.1-3.5-7.1
		s-3.4-3.6-5.5-4.7c-2.1-1.1-4.5-1.7-7.1-1.7s-5,0.5-7.1,1.6c-2.2,1.1-4,2.6-5.6,4.6s-2.8,4.3-3.6,7S20.8,46.7,20.8,49.9z"/>
</g>
<g class="st0">
	<path class="st1" d="M115.9,72.3h34.9v2.8h-42.1c4.4-4.3,8.7-8.5,12.9-12.7c4.2-4.2,7.9-8.2,11.1-12.2c3.2-4,5.8-7.8,7.7-11.4
		c1.9-3.7,2.9-7.1,2.9-10.4c0-3.6-0.5-6.6-1.6-9c-1-2.4-2.4-4.4-4-5.8c-1.6-1.5-3.3-2.5-5.1-3.1s-3.6-0.9-5.3-0.9
		c-3.3,0-5.9,0.6-8.1,1.8c-2.1,1.2-3.8,2.6-5,4.3s-2,3.6-2.5,5.6s-0.7,3.8-0.7,5.5c0,4.8,1.4,8.7,4.2,11.6c-0.3,0.3-0.7,0.6-0.9,0.9
		c-0.3,0.2-0.6,0.5-0.9,0.8c-1.6-1.6-2.9-3.5-3.8-5.8s-1.4-4.8-1.4-7.5c0-2.8,0.4-5.4,1.2-7.8c0.8-2.4,2.1-4.5,3.7-6.3
		s3.6-3.2,6-4.3c2.4-1,5.1-1.6,8.2-1.6c2.8,0,5.3,0.5,7.6,1.6c2.3,1,4.3,2.5,6,4.3s2.9,4,3.8,6.5c0.9,2.5,1.4,5.2,1.4,8.1
		c0,3.9-0.9,7.7-2.8,11.6c-1.9,3.8-4.3,7.6-7.2,11.4c-2.9,3.7-6.2,7.5-9.8,11.2C122.8,65,119.3,68.7,115.9,72.3z"/>
	<path class="st1" d="M159,41.1c0-3.7,0.6-7.5,1.7-11.6c1.1-4.1,2.8-7.8,5.1-11.2s5.2-6.2,8.7-8.4s7.8-3.3,12.8-3.3
		c4.9,0,9,1.1,12.5,3.4s6.4,5.1,8.6,8.5c2.3,3.4,3.9,7.1,4.9,11.2s1.5,8,1.5,11.7c0,4.9-0.8,9.5-2.3,13.7c-1.6,4.2-3.6,7.8-6.2,10.9
		c-2.6,3.1-5.6,5.5-9,7.2s-7,2.6-10.8,2.6s-7.3-0.9-10.7-2.7c-3.4-1.8-6.3-4.2-8.8-7.3c-2.5-3.1-4.5-6.7-5.9-11
		C159.7,50.6,159,46,159,41.1z M162,41c0,4.8,0.7,9.1,2,13.1c1.4,3.9,3.2,7.3,5.5,10.1c2.3,2.8,5,5,8,6.6s6.1,2.3,9.3,2.3
		s6.3-0.7,9.3-2.2s5.7-3.6,8-6.4c2.3-2.8,4.2-6.1,5.7-10s2.2-8.2,2.2-12.9c0-4.6-0.6-8.8-1.8-12.7s-2.9-7.3-5-10.1
		c-2.2-2.9-4.8-5.1-7.9-6.8c-3.1-1.6-6.4-2.4-10.1-2.4c-3.7,0-7.1,0.8-10.1,2.3c-3.1,1.6-5.7,3.7-8,6.6c-2.2,2.8-4,6.1-5.2,10
		S162,36.4,162,41z"/>
</g>
<line id="線_115" class="st2" x1="74.7" y1="74.9" x2="95.4" y2="26.6"/>
<g id="グループ_21126" transform="translate(235.828 35.726)">
	<g class="st0">
		<path class="st1" d="M16.7,14.1c-0.2,0.5-0.2,0.6-0.5,1.6c-1.4,4.8-3.6,8.3-7.1,11.2c-0.7-0.8-1.1-1.2-2-1.8
			c1.5-1.1,2.7-2.3,3.9-3.7c1.5-1.9,2.3-3.6,3.1-6.3h-3.6c-1,0-1.8,0-2.4,0.1v-2.5c0.7,0.1,1.3,0.1,2.6,0.1h2.6c1.2,0,1.8,0,2.3-0.1
			L16.7,14.1z M28.9,12.4c-0.3,0.3-0.3,0.3-0.8,0.9c-1.5,1.7-3,3.1-5,4.8c2.1,3,4.3,5,7.4,6.6c-0.8,0.7-1.1,1.2-1.8,2.2
			c-1.8-1.2-3.4-2.6-4.7-4.1c-1-1.2-1.8-2.3-2.6-3.7c-0.7-1.2-0.9-1.7-1.4-3.1c0.1,2.6,0.1,3.2,0.1,4.3v6.6c0,1.8-0.6,2.3-2.7,2.3
			c-0.9,0-2.1-0.1-3.2-0.2c-0.1-1-0.2-1.4-0.6-2.4c1.4,0.2,2.4,0.3,3.4,0.3c0.6,0,0.8-0.1,0.8-0.7V9.7c0-1-0.1-1.8-0.2-2.6h2.7
			c-0.1,0.8-0.2,1.6-0.2,2.6v1.7c0.3,1.6,0.8,2.9,1.8,4.8c2.6-2.3,4.2-4,4.9-5.6L28.9,12.4z"/>
	</g>
	<path id="パス_36028" class="st3" d="M18.8-2.9c11.7,0,21.3,9.5,21.3,21.3s-9.6,21.3-21.3,21.3S-2.5,30.1-2.5,18.4l0,0
		C-2.5,6.6,7-2.9,18.8-2.9z"/>
</g>
</svg>
