<svg xmlns="http://www.w3.org/2000/svg" xmlns:xlink="http://www.w3.org/1999/xlink" viewBox="0 0 28.22 23.64"><defs><style>.cls-1,.cls-6{fill:none;}.cls-2{clip-path:url(#clip-path);}.cls-3{isolation:isolate;}.cls-4{clip-path:url(#clip-path-2);}.cls-5{fill:#fff;}.cls-6{stroke:#000;stroke-miterlimit:10;opacity:0;}</style><clipPath id="clip-path" transform="translate(0.5 0.5)"><rect class="cls-1" width="27.22" height="22.64"/></clipPath><clipPath id="clip-path-2" transform="translate(0.5 0.5)"><rect class="cls-1" width="27.25" height="22.75"/></clipPath></defs><g id="レイヤー_2" data-name="レイヤー 2"><g id="レイヤー_1-2" data-name="レイヤー 1"><g class="cls-2"><g class="cls-3"><g class="cls-4"><path class="cls-5" d="M11.38,15.39a.64.64,0,0,1-.64.64H3.5a.64.64,0,0,1,0-1.28h7.24a.64.64,0,0,1,.64.64m13,0a.64.64,0,0,1-.64.64H16.48a.64.64,0,0,1,0-1.28h7.24a.64.64,0,0,1,.64.64m0-2.79a.64.64,0,0,1-.64.64H16.48a.64.64,0,0,1,0-1.28h7.24a.64.64,0,0,1,.64.64m0-2.78a.64.64,0,0,1-.64.64H16.48a.64.64,0,0,1,0-1.28h7.24a.64.64,0,0,1,.64.64m0-2.79a.64.64,0,0,1-.64.64H16.48a.64.64,0,1,1,0-1.27h7.24a.64.64,0,0,1,.64.63m0-2.78a.64.64,0,0,1-.64.64H16.48a.64.64,0,0,1,0-1.28h7.24a.64.64,0,0,1,.64.64m-13,8.35a.64.64,0,0,1-.64.64H3.5A.64.64,0,0,1,3.5,12h7.24a.64.64,0,0,1,.64.64m0-2.78a.64.64,0,0,1-.64.64H3.5a.64.64,0,0,1,0-1.28h7.24a.64.64,0,0,1,.64.64m0-2.79a.63.63,0,0,1-.64.64H3.5a.64.64,0,0,1,0-1.27h7.24a.63.63,0,0,1,.64.63m0-2.78a.64.64,0,0,1-.64.64H3.5a.64.64,0,0,1,0-1.28h7.24a.64.64,0,0,1,.64.64M26,19a.49.49,0,0,1-.43.19h-9.8a2.74,2.74,0,0,0-1.47.48V2.82a1.54,1.54,0,0,1,1.54-1.54h9.73a.49.49,0,0,1,.43.18Zm-14.52.19H1.7A.45.45,0,0,1,1.28,19V1.46s.15-.18.42-.18h9.73A1.54,1.54,0,0,1,13,2.82V19.66a2.86,2.86,0,0,0-1.54-.48M25.52,0H15.79a2.81,2.81,0,0,0-2.18,1.06A2.79,2.79,0,0,0,11.43,0H1.7A1.59,1.59,0,0,0,0,1.46V19a1.59,1.59,0,0,0,1.7,1.46h9.73A1.54,1.54,0,0,1,13,22a.64.64,0,0,0,.64.64h0a.64.64,0,0,0,.64-.64,1.57,1.57,0,0,1,1.61-1.55h9.66A1.59,1.59,0,0,0,27.22,19V1.46A1.59,1.59,0,0,0,25.52,0" transform="translate(0.5 0.5)"/><path class="cls-6" d="M11.38,15.39a.64.64,0,0,1-.64.64H3.5a.64.64,0,0,1,0-1.28h7.24a.64.64,0,0,1,.64.64m13,0a.64.64,0,0,1-.64.64H16.48a.64.64,0,0,1,0-1.28h7.24a.64.64,0,0,1,.64.64m0-2.79a.64.64,0,0,1-.64.64H16.48a.64.64,0,0,1,0-1.28h7.24a.64.64,0,0,1,.64.64m0-2.78a.64.64,0,0,1-.64.64H16.48a.64.64,0,0,1,0-1.28h7.24a.64.64,0,0,1,.64.64m0-2.79a.64.64,0,0,1-.64.64H16.48a.64.64,0,1,1,0-1.27h7.24a.64.64,0,0,1,.64.63m0-2.78a.64.64,0,0,1-.64.64H16.48a.64.64,0,0,1,0-1.28h7.24a.64.64,0,0,1,.64.64m-13,8.35a.64.64,0,0,1-.64.64H3.5A.64.64,0,0,1,3.5,12h7.24a.64.64,0,0,1,.64.64m0-2.78a.64.64,0,0,1-.64.64H3.5a.64.64,0,0,1,0-1.28h7.24a.64.64,0,0,1,.64.64m0-2.79a.63.63,0,0,1-.64.64H3.5a.64.64,0,0,1,0-1.27h7.24a.63.63,0,0,1,.64.63m0-2.78a.64.64,0,0,1-.64.64H3.5a.64.64,0,0,1,0-1.28h7.24a.64.64,0,0,1,.64.64M26,19a.49.49,0,0,1-.43.19h-9.8a2.74,2.74,0,0,0-1.47.48V2.82a1.54,1.54,0,0,1,1.54-1.54h9.73a.49.49,0,0,1,.43.18Zm-14.52.19H1.7A.45.45,0,0,1,1.28,19V1.46s.15-.18.42-.18h9.73A1.54,1.54,0,0,1,13,2.82V19.66a2.86,2.86,0,0,0-1.54-.48M25.52,0H15.79a2.81,2.81,0,0,0-2.18,1.06A2.79,2.79,0,0,0,11.43,0H1.7A1.59,1.59,0,0,0,0,1.46V19a1.59,1.59,0,0,0,1.7,1.46h9.73A1.54,1.54,0,0,1,13,22a.64.64,0,0,0,.64.64h0a.64.64,0,0,0,.64-.64,1.57,1.57,0,0,1,1.61-1.55h9.66A1.59,1.59,0,0,0,27.22,19V1.46A1.59,1.59,0,0,0,25.52,0" transform="translate(0.5 0.5)"/></g></g></g></g></g></svg>