<svg id="コンポーネント_21_1" data-name="コンポーネント 21 – 1" xmlns="http://www.w3.org/2000/svg" width="342.137" height="331.85" viewBox="0 0 342.137 331.85">
  <path id="パス_36029" data-name="パス 36029" d="M182.316,190.726c2.765-2.821,4.369-7.908,4.811-12.885.451-5.075-1.437-9.512-3.318-11.06a35.408,35.408,0,0,1-4.977-5.2c-.995-1.327-3.259-2.6-5.861-3.539a32.112,32.112,0,0,0-11.834-1.327c-3.54.221-4.756.663-5.641,1.216s-.442,1.438.332,2.1a55.754,55.754,0,0,0,8.461,4.645c2.322.884,1.99,2.378-.775,1.825s-8.958-3.429-10.4-4.093a7.6,7.6,0,0,0-5.419-.11,11.173,11.173,0,0,0-3.263,2.046,3.6,3.6,0,0,0-.332,4.7,14.618,14.618,0,0,0,10.839-.719c2.157,1.383,3.871,2.434,5.862,2.765.221,2.323.553,4.756,1.327,6.083l1.935.83.885,4.258,2.268-1.327c.5-4.037,1.88-6.692,3.981-6.636,2.959.078,4.866,2.1,4.977,5.2a16.564,16.564,0,0,1-1.217,7.852A33.23,33.23,0,0,0,182.316,190.726Z" transform="translate(61.093 -152.855)" fill="#817341"/>
  <path id="パス_36030" data-name="パス 36030" d="M180.407,216.4a59.076,59.076,0,0,1,2.475,5.793l-3.76,1.327a200.651,200.651,0,0,0-5.309,22.009c-1.106,6.194-2.613,15.705-3.207,19.687l-1.881,5.2a76.368,76.368,0,0,1,1.659-23.115c1.77-8.627,3.992-20.015,7.12-24.885A10.828,10.828,0,0,1,180.407,216.4Z" transform="translate(40.343 -152.855)" fill="#817341"/>
  <g id="グループ_21165" data-name="グループ 21165">
    <path id="パス_36031" data-name="パス 36031" d="M125.282,263.7a.885.885,0,0,0,.826-.565c3.663-9.405,6.191-15.559,7.309-17.8,3.1-6.207,5.432-18.412.571-24.894a.887.887,0,1,0-1.419,1.065c4.22,5.627,2.283,16.994-.738,23.036-1.159,2.318-3.64,8.357-7.375,17.946a.886.886,0,0,0,.5,1.148A.871.871,0,0,0,125.282,263.7Z" transform="translate(130.5 -152.855)" fill="#817341"/>
    <path id="パス_36032" data-name="パス 36032" d="M135.529,314.246a.853.853,0,0,0,.173-.017.888.888,0,0,0,.7-1.043,99.24,99.24,0,0,1-2.3-25.36c.083-1.713.262-3.4.435-5.04a43.407,43.407,0,0,0,.225-10.615c-.319-2.345-.5-4.761-.672-7.1-.209-2.817-.426-5.73-.889-8.577-.352-2.17-.665-4.394-.967-6.545-.967-6.875-1.966-13.984-4.415-20.605-3.514-9.492-7.282-16.187-12.217-21.709a42.084,42.084,0,0,0-3.91-3.609.887.887,0,1,0-1.137,1.362,40.348,40.348,0,0,1,3.725,3.429c4.78,5.349,8.443,11.869,11.876,21.142,2.382,6.442,3.368,13.455,4.322,20.237.3,2.16.617,4.393.972,6.582.451,2.772.664,5.646.871,8.425.175,2.363.357,4.807.684,7.205a41.426,41.426,0,0,1-.232,10.19c-.176,1.66-.357,3.377-.442,5.141a100.9,100.9,0,0,0,2.331,25.791A.888.888,0,0,0,135.529,314.246Z" transform="translate(145.027 -152.855)" fill="#817341"/>
    <path id="パス_36033" data-name="パス 36033" d="M200.552,392.39a.887.887,0,0,0,.881-.8,52.979,52.979,0,0,1,.962-6.014,9.244,9.244,0,0,0,.047-3.079,4.683,4.683,0,0,1,.216-2.7c.387-.809,1.453-1.162,2.484-1.5a6.67,6.67,0,0,0,1.86-.823,9.559,9.559,0,0,1,2.753-1.461c.2-.044.475-.111.8-.189.761-.181,1.375-.34,2.281-.512a.886.886,0,1,0-.329-1.742c-.948.179-1.585.343-2.364.529-.346.083-.632.151-.821.191-.035.008-.069.018-.1.029a11.428,11.428,0,0,0-3.278,1.729,5.635,5.635,0,0,1-1.362.565c-1.253.415-2.812.932-3.525,2.42a6.279,6.279,0,0,0-.381,3.659,7.564,7.564,0,0,1-.014,2.5,54.949,54.949,0,0,0-1,6.223.888.888,0,0,0,.793.972A.7.7,0,0,0,200.552,392.39Z" transform="translate(-21.548 -152.855)" fill="#817341"/>
    <path id="パス_36034" data-name="パス 36034" d="M137.595,217.665a.884.884,0,0,0,.625-.258c3.382-3.354,7.362-6.184,13.535-4.2a.887.887,0,1,0,.544-1.688c-7.135-2.3-11.94,1.265-15.328,4.625a.887.887,0,0,0,.624,1.517Z" transform="translate(102.056 -152.855)" fill="#817341"/>
    <path id="パス_36035" data-name="パス 36035" d="M164.815,170.414a17.917,17.917,0,0,0,5.164-.628.887.887,0,1,0-.637-1.655c-1.227.473-6.2.84-8.557-.01a11.238,11.238,0,0,1-1.258-2.871c-.322-1.165,1.311-2.581,2.751-3.829l.619-.541c5.183-4.608,10.838-6.474,18.91-6.231a38.532,38.532,0,0,1,6.293.82.887.887,0,0,0,.366-1.736,40.363,40.363,0,0,0-6.607-.856c-8.456-.259-14.663,1.807-20.141,6.677l-.6.527c-1.746,1.513-3.919,3.4-3.3,5.642a13.287,13.287,0,0,0,1.614,3.583.88.88,0,0,0,.4.343A13.417,13.417,0,0,0,164.815,170.414Z" transform="translate(44.799 -152.855)" fill="#817341"/>
    <path id="パス_36036" data-name="パス 36036" d="M306.134,321.255a.886.886,0,0,1,.887.887v38.842a.886.886,0,0,1-.887.887h-22.6a.886.886,0,0,1-.887-.887v-38.6a.887.887,0,1,1,1.773,0V360.1h20.824V322.142A.886.886,0,0,1,306.134,321.255Z" transform="translate(-197.993 -152.855)" fill="#817341"/>
    <path id="パス_36037" data-name="パス 36037" d="M55.732,467.346l-.216-.3a.9.9,0,0,1-.409-.221.885.885,0,0,1-.277-.644V462.06a2.584,2.584,0,0,1,2.225-2.749c6.657-.814,33.332-4.9,52.81-7.879,5.557-.851,10.58-1.621,14.477-2.212a.345.345,0,0,0,.31-.383l.8-22.759a2.931,2.931,0,0,1,2.656-2.923V392.693H94.371c-3.986,0-6.486-2.994-8.495-5.4-.452-.541-.883-1.058-1.3-1.5-1.821,0-4.544-.014-7.171-.028-2.493-.012-4.9-.024-6.375-.024-3.117,0-5.3-.416-7.237-2.545-2.6-2.856-4.642-8.752-.783-12.333,2.557-2.376,6.389-4.217,11.715-5.629,5.5-1.457,19.254-3.7,31.278-5.18-2.684-.6-6.144-1.469-8.889-3.641a43.313,43.313,0,0,1-4.639-4.308.886.886,0,1,1,1.29-1.216,41.582,41.582,0,0,0,4.45,4.133c2.612,2.068,6.141,2.851,8.718,3.424a.887.887,0,0,1,.674,1.058.863.863,0,0,1-.205.38c2.439-.292,4.79-.551,6.963-.76,5.821-.561,25.082-1.825,36.795-1.877a.868.868,0,0,1-.07-.475,84.389,84.389,0,0,0,.79-10.257c0-.339,0-.684,0-1.03a.886.886,0,0,1,.878-.9,1.012,1.012,0,0,1,.465.155c-2.453-8.744-4.188-19.278-3.462-28.118.374-4.536,2.524-11.773,4.6-18.771.636-2.144,1.26-4.242,1.809-6.189,2.321-8.232,10.262-22.326,14.483-27.81,2.53-3.289,5.894-3.436,8.107-2.125a5.087,5.087,0,0,1,2.088,6.583c-4.141,9.392-5.851,22.028-6.873,29.578l-.07.515c-1.037,7.683-1.036,22.636,0,31.37.311,2.612.751,6.611,1.229,11.072a.887.887,0,0,1-1.764.19c-.476-4.454-.916-8.445-1.226-11.053-1.052-8.851-1.052-24.016,0-31.817l.07-.515c1.034-7.643,2.765-20.434,7.007-30.055a3.318,3.318,0,0,0-1.37-4.342c-1.427-.846-3.8-.913-5.8,1.681-4.136,5.375-11.914,19.168-14.181,27.209-.551,1.955-1.177,4.061-1.816,6.214-2.053,6.911-4.176,14.058-4.535,18.41-1.291,15.706,5.123,34.975,8.679,41.338l0,.007,0,0c1.6,2.951,4.843,7.515,7.706,11.54,2.069,2.911,3.856,5.424,4.8,7a2.114,2.114,0,0,0,2.332.866,1.706,1.706,0,0,0,1.29-.914c.181-1.28.215-3.194-.216-8.374-.2-2.431-.917-9.643-1.777-17.949a.887.887,0,0,1,.791-.973.872.872,0,0,1,.974.79c.86,8.317,1.576,15.543,1.78,17.985.445,5.362.408,7.332.2,8.771a3.291,3.291,0,0,1-2.631,2.389,3.872,3.872,0,0,1-4.006-1.317c-.363-.1-.732-.213-1.107-.325-3.456-1.03-7.029-2.1-11.127.125-3.507,1.9-8.34,4.238-12.224,6.119-1.406.681-2.659,1.288-3.628,1.767v3.466a3.678,3.678,0,0,1-3.815,3.6H137.1v30.451h.228c1.388,0,2.825,1.017,2.906,3.289l.786,22.382a.811.811,0,0,0,.623.752c14.569,2.33,53.27,8.52,62.315,9.692a2.738,2.738,0,0,1,2.52,2.8v4.126a.89.89,0,0,1-.278.646.907.907,0,0,1-.661.24l-.163-.01-.318.348a8.747,8.747,0,0,1,5.665,8.365,8.353,8.353,0,1,1-16.679,0,8.839,8.839,0,0,1,5.765-8.4l-.32-.442a.87.87,0,0,1-.119-.228l-12.308-.752v.459a.884.884,0,0,1-.231.6l-.02.021c3.119.6,5.527,4.293,5.527,8.749,0,4.869-2.877,8.828-6.413,8.828h-4.034c-3.535,0-6.411-3.959-6.411-8.828,0-4.438,2.389-8.123,5.488-8.742l-.075-.1a.882.882,0,0,1-.151-.338l-46.665-3.886-.344.018-5.683,4.176-.03.041h1.13c.69,0,1.732,0,1.732,8.833s-1.042,8.828-1.732,8.828h-8.414c-.691,0-1.734,0-1.734-8.828s1.043-8.833,1.734-8.833h1.294a.885.885,0,0,1-.423-.756v-2.251l-24.96,2.972-.025.035h.022c2.769,0,4.937,3.88,4.937,8.833s-2.168,8.828-4.937,8.828H90.506c-2.768,0-4.937-3.877-4.937-8.828,0-4.862,2.09-8.69,4.785-8.829a.851.851,0,0,1-.162-.126.885.885,0,0,1-.267-.634v-1.073l-28.394,1.633a.9.9,0,0,1-.163.259l-.32.35a8.834,8.834,0,1,1-5.316-.009Zm97.924-121.1c0,.092,0,.186,0,.277a85.234,85.234,0,0,1-.813,10.54.844.844,0,0,1-.068.192c2.028.013,3.768.069,5.076.183A74.534,74.534,0,0,1,153.656,346.243Zm-14.1,44.677a1.925,1.925,0,0,0,2.041-1.829v-4.015a.888.888,0,0,1,.49-.793c1.023-.512,2.473-1.215,4.139-2.021,3.868-1.873,8.681-4.2,12.153-6.083,4.336-2.348,8.289-1.483,11.566-.533-.956-1.413-2.189-3.147-3.473-4.953-2.78-3.91-5.9-8.307-7.606-11.35-6.047-1.045-35.524.7-44.329,1.551-13.091,1.262-32.585,4.263-39.356,6.059-5.038,1.335-8.624,3.04-10.962,5.214-3.089,2.865-.945,7.823.888,9.84,1.353,1.487,2.793,1.965,5.925,1.965,1.476,0,3.887.011,6.383.024,2.812.014,5.729.024,7.537.027h0l55.631,0a.887.887,0,1,1,0,1.774l-53.653,0c.1.121.2.235.305.359,1.863,2.234,3.976,4.764,7.133,4.764h45.187Zm-9.677,1.773v30.451h5.443V392.693Zm57.131,69.315.035,2.164,13.212.807a.887.887,0,0,1,.832.885v.157a.89.89,0,0,1,.663.859v1.113a.888.888,0,0,1-.7.866,6.976,6.976,0,0,0-5.242,6.916,6.583,6.583,0,1,0,13.133,0,7.005,7.005,0,0,0-5.155-6.89.887.887,0,0,1-.682-.864V466.88a3.636,3.636,0,0,0,1.051-1.387.875.875,0,0,1,.541-.238v-3.2a1,1,0,0,0-.978-1.042c-6.592-.854-28.845-4.359-46.107-7.1,11.505,2.318,23.226,4.637,27.293,5.313A2.616,2.616,0,0,1,187.012,462.008Zm-99.67,13.767c0,4.158,1.668,7.055,3.164,7.055h6.136c1.5,0,3.164-2.9,3.164-7.055s-1.668-7.059-3.164-7.059h-1.5a.887.887,0,0,1-.887-.887v-.949a11.778,11.778,0,0,1,1.638-1.686h.162l25.548-3.047V460.62a4.023,4.023,0,0,1,.878-2.3c.58-.838,4.728-7.468,4.77-7.536a.887.887,0,0,1,1.5.942c-.172.274-4.213,6.733-4.816,7.6a2.273,2.273,0,0,0-.562,1.293v4.946a4.356,4.356,0,0,0,.917,1.314v.949a.887.887,0,0,1-.886.887h-2.162a52.659,52.659,0,0,0,0,14.114h7.386a52.991,52.991,0,0,0,0-14.114H126.54a.887.887,0,0,1-.887-.887v-.949a9.8,9.8,0,0,1,1.573-1.576l5.668-4.166a.887.887,0,0,1,.48-.171l.66-.034a1,1,0,0,1,.134,0l47.513,3.957a.886.886,0,0,1,.813.883v.246a.888.888,0,0,1,.664.859v.949a.887.887,0,0,1-.886.887h-.383c-2.514,0-4.637,3.233-4.637,7.059s2.123,7.055,4.637,7.055h4.034c2.558,0,4.639-3.165,4.639-7.055s-2.081-7.059-4.639-7.059H185.4a.887.887,0,0,1-.887-.887v-.949a.887.887,0,0,1,.771-.879v-.98l-.047-3c0-.351-.082-.954-.624-1.046-6.357-1.056-31.3-6.1-45.043-8.92a.888.888,0,0,1-.691-1.047.875.875,0,0,1,.874-.69,2.56,2.56,0,0,1-.51-1.472L138.46,426.5c-.035-.987-.46-1.577-1.134-1.577h-9.134c-.6,0-.968.751-.968,1.191l-.8,22.759a2.1,2.1,0,0,1-1.818,2.106l-.214.032a.883.883,0,0,1-.609,1.053c-18.118,5.247-28.521,8.171-31.8,8.94-.047.019-.289.279-.289,1.061v3.3a.9.9,0,0,1,.273.183,4.539,4.539,0,0,0,.928,1.339v.949a.887.887,0,0,1-.886.887H90.506C89.01,468.716,87.342,471.615,87.342,475.775ZM58.373,482.83a7.058,7.058,0,0,0,1.391-13.978.885.885,0,0,1-.712-.869v-1.1a.888.888,0,0,1,.773-.88v-.1a.888.888,0,0,1,.836-.886l29.264-1.683V462.06c0-1.759.849-2.591,1.65-2.786,2.829-.664,11.473-3.079,25.712-7.184l-7.154,1.1c-19.489,2.983-46.179,7.069-52.912,7.89-.256.018-.618.334-.618.985V465.4a.9.9,0,0,1,.152.116.882.882,0,0,1,.265.5.886.886,0,0,1,.675.861v1.1a.887.887,0,0,1-.712.869,7.058,7.058,0,0,0,1.39,13.978Z" transform="translate(131.416 -152.855)" fill="#817341"/>
    <g id="グループ_21164" data-name="グループ 21164" transform="translate(0 30.231)">
      <path id="パス_36038" data-name="パス 36038" d="M299.745,290.281l-1.856.314a.923.923,0,0,1-.148.012.887.887,0,0,1-.771-.449c-1.233-2.171-2.422-4.52-3.537-6.984a.887.887,0,0,1,1.616-.731c1,2.211,2.062,4.327,3.16,6.3l.367-.062L281.167,185l-.289.049c-.333,5.325-.553,9.716-.669,13.4a.886.886,0,1,1-1.772-.055c.121-3.87.356-8.5.715-14.162a.886.886,0,0,1,.736-.817l1.856-.318a.887.887,0,0,1,1.024.727l17.7,105.434A.886.886,0,0,1,299.745,290.281Z" transform="translate(-187.242 -183.086)" fill="#817341"/>
      <path id="パス_36039" data-name="パス 36039" d="M139.434,311.561h16.748a.887.887,0,0,1,0,1.773H140.321v6.043H335.245l-.041-6.043H310.429c-.024,0-.044.014-.068.014h0c-.128,0-.246-.012-.373-.014h-144.3a.887.887,0,1,1,0-1.773h45.506c-.1-.08-.193-.151-.291-.237a8.125,8.125,0,0,1-2.678-6.294,13.168,13.168,0,0,1,.416-3.172c.625-2.5,2.812-11.874,5.343-22.727,2.995-12.836,6.388-27.383,7.75-32.9a14.8,14.8,0,0,1,3.125-6.547,8.724,8.724,0,0,1,6.734-2.87h1.852a.9.9,0,0,1,.316.063l-2.972-17.706a86.284,86.284,0,0,1-1.136-16.612.887.887,0,1,1,1.773.02,83.685,83.685,0,0,0,1.112,16.3l7.344,43.749a86.108,86.108,0,0,0,4.93,16.212.887.887,0,1,1-1.644.666,86.644,86.644,0,0,1-5.035-16.584l-3.524-20.99h-3a3.613,3.613,0,0,0-2.954,1.191,10.16,10.16,0,0,0-1.946,4.338c-1.354,5.486-4.751,20.047-7.747,32.894-2.529,10.841-4.713,20.2-5.348,22.748a8.1,8.1,0,0,0-.263,1.925,2.961,2.961,0,0,0,.913,2.443,4.147,4.147,0,0,0,2.722.82h31.8a.887.887,0,0,1,.887.887v2.063a.886.886,0,0,1-.066.326h4.32a.87.87,0,0,1-.084-.367v-2.941a.887.887,0,0,1,.276-.644.874.874,0,0,1,.656-.242l4.876.254c-.832-1.986,1.225-3.572,3.609-5.4.309-.238.628-.484.929-.718a28.21,28.21,0,0,1,3.082-2.328c2.709-1.515,6.031-3.545,8.016-4.758l.768-.469a13.8,13.8,0,0,1,7.527-1.53c1.389.07,2.718.168,3.995.261a44.716,44.716,0,0,0,8.936.092,10.375,10.375,0,0,1,.881-1.328.869.869,0,0,1,.74-.328l1.483.085a2.552,2.552,0,0,1,2.31-1.717c1.63-.143,3.32-.334,5.381-.566l3.049-.34a108.76,108.76,0,0,0,11.8-1.714.887.887,0,0,1,.378,1.733,110.588,110.588,0,0,1-12.071,1.753l-2.955.33c-2.11.238-3.777.426-5.464.574-.6.025-.813.475-1.556,2.568a35.976,35.976,0,0,0-2.222,14.433c0,.02.154,1.949,1.321,2.154A64.633,64.633,0,0,0,310,311.561h17.758a.621.621,0,0,1,.061-.021c2.6-.325,5.161-.734,7.637-1.131,1.865-.3,3.679-.588,5.423-.829,1.04-.143,2.015-.268,2.965-.389,3.014-.383,5.861-.747,9.821-1.613,1.539-.337,3.185-.631,4.928-.941,4.485-.8,9.568-1.708,13.274-3.561,5.421-2.711,9.159-7.331,11.762-14.541.911-2.521,3.441-9.29,6.338-16.868a.887.887,0,0,1,1.657.632c-2.893,7.569-5.419,14.325-6.327,16.839-2.729,7.559-6.863,12.637-12.637,15.524-3.935,1.968-9.153,2.9-13.756,3.72-1.725.308-3.355.6-4.86.929-1.6.349-3.014.616-4.334.838.7,8.01,1.205,12.948,2.169,19.127,1.073,6.873,1.83,9.74,6.113,14.914l.839,1.017c.853,1.036,1.727,2.1,2.635,3.154a.887.887,0,0,1-1.345,1.157c-.917-1.067-1.8-2.137-2.66-3.183l-.835-1.014c-4.547-5.494-5.394-8.688-6.5-15.771-.011-.075-.022-.147-.033-.221-15.117,4.918-43.317,15.995-54.844,20.57-7.322,2.907-12.364,7.076-13.168,17.977-.257,3.482-.553,7.347-.862,11.4-.563,7.362-1.06,13.78-1.565,21.064a.887.887,0,0,1-.883.825l-.062,0a.887.887,0,0,1-.824-.946c.505-7.29,1-13.711,1.565-21.075.31-4.05.605-7.912.862-11.394.746-10.116,4.884-15.764,14.283-19.494,10.52-4.176,34.915-13.762,50.638-19.163a.9.9,0,0,1-.161-.025.887.887,0,0,1-.582-1.111,37.438,37.438,0,0,0,1.505-11.12c0-.7-.03-1.432-.059-2.17a34.107,34.107,0,0,1-.021-3.611.866.866,0,0,1,.107-.354c-.652.087-1.3.171-1.955.254-.944.12-1.913.244-2.947.387-1.386.191-2.827.416-4.293.65a.865.865,0,0,1,.147.453l.053,7.817a.884.884,0,0,1-.887.892H252.929a.887.887,0,0,1,.505.8V373.12a10.766,10.766,0,0,0,3.2,7.681l48.44,48.434a18.322,18.322,0,0,1,5.408,13.054V453.71c.609-.154.6-.361.59-.56a101.782,101.782,0,0,1,.785-11.1c.507-5.164,1.082-11.016,1.293-16.442.136-3.5,1.078-11.934,2.074-20.859l.52-4.666a.886.886,0,1,1,1.762.2l-.519,4.668c-.949,8.5-1.931,17.29-2.065,20.731-.213,5.478-.791,11.358-1.3,16.546a104.589,104.589,0,0,0-.779,10.838,2.248,2.248,0,0,1-1.958,2.379.848.848,0,0,1-.211.026.9.9,0,0,1-.192-.032v1.9a.877.877,0,0,1,.819.409,20.674,20.674,0,0,1,2.41,5.625c.876,3.3,1.037,11.248-.383,14.7a18.745,18.745,0,0,1-.918,5.691.885.885,0,0,1-.841.606h-.9a.826.826,0,0,0-1.068-.037H303.73a.85.85,0,0,0-1.4.037H292.142a.885.885,0,0,1-.836-.591c-.1-.273-.19-.549-.286-.828-.25-.737-.507-1.493-.833-2.232-6.41,1.678-19.425,3.995-25.73,3.995a57.021,57.021,0,0,1-16.5-2.821,14.735,14.735,0,0,1-3.912-1.76,3.049,3.049,0,0,1-.7-2.94,2.512,2.512,0,0,1,1.323-1.748,5.052,5.052,0,0,1,3.827-4.286c.3-.064.653-.137,1.064-.221a69.622,69.622,0,0,0,9.209-2.423.88.88,0,0,1,.1-.029c5.6-1.222,14.989-7.42,16.255-8.42a16.436,16.436,0,0,1,4.144-2.5l.389-2.857a.867.867,0,0,1,.3-.535c-.374-.031-.759-.065-1.111-.092-2.568-.194-4.264-.323-4.984-1.2a1.448,1.448,0,0,1-.327-1.115c.193-1.666.723-8.307,1.336-16,.588-7.36,1.185-14.748,1.711-20.68a.887.887,0,1,1,1.767.156c-.526,5.925-1.123,13.309-1.709,20.664-.6,7.474-1.114,13.958-1.324,15.893a16.208,16.208,0,0,0,3.664.506c.624.048,1.286.1,1.945.16,5.582.389,18.8,1.329,20.979,1.64a.887.887,0,0,1-.125,1.765.9.9,0,0,1-.126-.009c-2.114-.3-15.624-1.261-20.433-1.6a.882.882,0,0,1,.2.677l-.425,3.12a18.022,18.022,0,0,0,2.4,3.021c.8.763,3.518.5,4.41.413a89.864,89.864,0,0,0,14.477-2.9.861.861,0,0,1,.559.019V442.289a10.768,10.768,0,0,0-3.167-7.656l-48.436-48.424A18.324,18.324,0,0,1,245.8,373.12v-6.226H224.978v6.225a18.312,18.312,0,0,1-5.439,13.092l-48.43,48.422a10.766,10.766,0,0,0-3.173,7.656v41.148a.885.885,0,0,1-.886.887h-5.859a.886.886,0,0,1-.887-.887V442.289a18.322,18.322,0,0,1,5.408-13.053l48.44-48.432a10.772,10.772,0,0,0,3.2-7.684V322.278a.887.887,0,0,1,1.773,0v50.843a12.531,12.531,0,0,1-3.72,8.939l-48.438,48.431a16.559,16.559,0,0,0-4.888,11.8v40.262h4.085V442.289a12.535,12.535,0,0,1,3.691-8.91l48.433-48.424A16.558,16.558,0,0,0,223.2,373.12v-7.113a.887.887,0,0,1,.887-.887h22.6a.887.887,0,0,1,.887.887v7.113a16.563,16.563,0,0,0,4.918,11.833l48.438,48.426a12.532,12.532,0,0,1,3.686,8.91v40.262H308.7V442.289a16.56,16.56,0,0,0-4.889-11.8l-48.439-48.433a12.525,12.525,0,0,1-3.716-8.937V321.951a.887.887,0,0,1,.505-.8H139.434a.886.886,0,0,1-.887-.886v-7.817A.886.886,0,0,1,139.434,311.561Zm108.461-.326v-1.176H216.98a5.807,5.807,0,0,1-3.9-1.269,4.764,4.764,0,0,1-1.508-3.76,9.882,9.882,0,0,1,.315-2.362c.632-2.532,2.815-11.889,5.341-22.722,3-12.852,6.4-27.419,7.752-32.914a11.652,11.652,0,0,1,2.37-5.122,5.415,5.415,0,0,1,4.24-1.758h2.719l-.3-1.788a.87.87,0,0,1-.566.219H231.58a6.944,6.944,0,0,0-5.4,2.28,13.135,13.135,0,0,0-2.726,5.792c-1.358,5.507-4.75,20.049-7.744,32.879-2.533,10.861-4.721,20.24-5.349,22.754a11.4,11.4,0,0,0-.363,2.748,6.362,6.362,0,0,0,2.062,4.944,5.5,5.5,0,0,0,4.187,1.553.771.771,0,0,1,.135.028h31.58A.885.885,0,0,1,247.895,311.235Zm43.827-1.1v1.428h6.242a3.012,3.012,0,0,1-.265-.265,32.525,32.525,0,0,1-4.665-1.258.883.883,0,0,1-.579-.871c.014-.325.046-.743.09-1.208a11.606,11.606,0,0,1-4.459.954,12.952,12.952,0,0,1-2.774-.334l-.722.177-.55.135,6.841.356A.887.887,0,0,1,291.722,310.133Zm-36.111-.946v2.007a.885.885,0,0,1-.083.367h34.42v-.586Zm16.1-1.941a4.407,4.407,0,0,1-1.084.947l2.547.132a.854.854,0,0,1,.106-.48,7.736,7.736,0,0,1,2.812-2.561c-.155-.058-.309-.119-.463-.179A9.678,9.678,0,0,1,271.713,307.246Zm2.785-2.607c-.465-.2-.946-.428-1.466-.691a12.923,12.923,0,0,1-5.325,2.423,6.543,6.543,0,0,1-2.365,1.547l3.108.161a5.588,5.588,0,0,0,2.466-1.617.553.553,0,0,1,.414-.268A8.334,8.334,0,0,0,274.5,304.639Zm.555,3.784,5.981.311a.55.55,0,0,1,.312-.268c.373-.125,1.041-.3,1.794-.488a49.274,49.274,0,0,1-4.949-1.911c-.21.132-.425.268-.626.392A8.987,8.987,0,0,0,275.053,308.423Zm12.389-13.981c-1.264-.092-2.58-.188-3.956-.258a12.045,12.045,0,0,0-6.512,1.273l-.767.468c-2,1.22-5.336,3.261-8.07,4.791a26.126,26.126,0,0,0-2.833,2.157c-.331.259-.655.508-.968.748-1.616,1.244-3.15,2.423-3.09,3.175.856.3,4.19-.309,5.308-1.809a.888.888,0,0,1,.711-.357,10.248,10.248,0,0,0,4.871-2.279.886.886,0,0,1,1.141-.273,32.51,32.51,0,0,0,5.128,2.15h0c3.362,1.157,10.62,1.009,11.656.031a.887.887,0,1,1,1.218,1.289c-.891.842-3.208,1.221-5.753,1.268a9.936,9.936,0,0,0,7.256-.9,48.4,48.4,0,0,1,2.8-11.269A54.526,54.526,0,0,1,287.442,294.442Zm11.372-1.228.1-.282-.415-.024c-.165.233-.325.488-.481.759a.867.867,0,0,1-.3.575c-2.039,4.008-3.2,10.992-3.448,14.344.628.2,1.5.46,2.363.673a5.162,5.162,0,0,1-.143-.947A38.093,38.093,0,0,1,298.814,293.214Zm47.134,35.628c1.367-.466,2.664-.9,3.875-1.29-.779-5.321-1.252-10.024-1.871-17.126l-.52.077a.875.875,0,0,1,.251.671,32.676,32.676,0,0,0,.023,3.417c.03.762.06,1.521.06,2.241a39.293,39.293,0,0,1-1.584,11.649A.869.869,0,0,1,345.948,328.842Zm-35.47,153.782a.863.863,0,0,1,.182-.036h.251a17.291,17.291,0,0,0,.64-4.708.891.891,0,0,1,.078-.363c1.3-2.886,1.172-10.649.364-13.7a18.921,18.921,0,0,0-1.515-3.93Zm-7.646-22.346a92.347,92.347,0,0,1-14.853,2.981c-.824.08-1.548.121-2.185.121-1.785,0-2.889-.322-3.617-1.015a18.279,18.279,0,0,1-2.488-3.075,15.222,15.222,0,0,0-3.462,2.16c-1.5,1.182-11,7.432-16.923,8.748a71.26,71.26,0,0,1-9.388,2.468c-.4.082-.751.153-1.038.216a3.41,3.41,0,0,0-2.52,3.3.887.887,0,0,1-.734.794.6.6,0,0,0-.49.423,2.082,2.082,0,0,0-.027,1.3,14.981,14.981,0,0,0,3.421,1.5,55.226,55.226,0,0,0,15.929,2.728c6.412,0,19.968-2.464,25.978-4.124a.881.881,0,0,1,1.026.45,22.759,22.759,0,0,1,1.239,3.113l.073.217h9.554a.863.863,0,0,1,.517.185v-22.5Z" transform="translate(-138.547 -183.086)" fill="#817341"/>
    </g>
    <path id="パス_36040" data-name="パス 36040" d="M155.7,179.839a13.332,13.332,0,0,1,.4,3.139c-.057,2.321-2.615,8.132-3.083,9.1-.428.889-.429,1.337-.363,1.462.032.06.177.145.482.189l.253.038a15.068,15.068,0,0,0,2.079.212.886.886,0,0,1,.837.6,7.12,7.12,0,0,1,.34,2.121c.047,1.019.047,1.038.749,1.151a.874.874,0,0,1,.359.151c.507-.057.993-.1,1.455-.127a8.331,8.331,0,0,0,2.826-.5.661.661,0,1,1,.521,1.215,9.422,9.422,0,0,1-3.263.6c-.44.028-.9.066-1.374.119h0c-.324.367-.324.367.056.962a5.461,5.461,0,0,1,.828,1.818c.067.3.128.62.192.956.278,1.479.594,3.155,1.762,4.031.97.728,3.637.931,5.767.752,2.384-.2,4,2.773,5.353,6.361,3.6-4.452,12.469-14.139,23.821-17.938a.856.856,0,0,1-.519-.354,19.46,19.46,0,0,1-1.794-4.224,27.912,27.912,0,0,1-6.831-3.167,4.019,4.019,0,0,1-2.726,1.154c-.1,0-.205,0-.311-.013a.887.887,0,1,1,.148-1.767,2.536,2.536,0,0,0,2.138-1.148c.422-.532,1.411-4.472.993-7.924a4.567,4.567,0,0,0-1.9-3.507,2.429,2.429,0,0,0-2.221-.137c-1.938.793-2.512,2.485-3.068,5.977a.887.887,0,0,1-.434.63l-2.206,1.266a.886.886,0,0,1-1.317-.628l-.611-3.81-1.355-.478a.886.886,0,0,1-.53-.511,21.17,21.17,0,0,1-1.356-5.925,18.734,18.734,0,0,1-7.987-5.463.887.887,0,1,1,1.409-1.077,16.426,16.426,0,0,0,7.631,4.978.886.886,0,0,1,.72.911,17.026,17.026,0,0,0,1.1,5.553l1.459.515a.884.884,0,0,1,.58.7l.492,3.062.726-.417c.533-3.221,1.248-5.761,4.079-6.92a4.2,4.2,0,0,1,3.791.248,6.3,6.3,0,0,1,2.764,4.824,19.681,19.681,0,0,1-.961,8.482,27.208,27.208,0,0,0,6.252,2.887,11.747,11.747,0,0,0,2.791-4.218c1.239-3.718,2.248-9.071,1.709-12.648-.075-.5-.136-1-.2-1.495a14.147,14.147,0,0,0-1.051-4.52,18.246,18.246,0,0,0-1.6-2.58,25.948,25.948,0,0,1-1.7-2.665,16.055,16.055,0,0,0-4.949-4.54.887.887,0,1,1,.92-1.517,17.891,17.891,0,0,1,5.553,5.154,25.254,25.254,0,0,0,1.631,2.552,19.58,19.58,0,0,1,1.751,2.833,15.708,15.708,0,0,1,1.211,5.07c.058.479.116.961.189,1.443.623,4.134-.57,9.842-1.781,13.474a13.531,13.531,0,0,1-3.219,4.914,17.692,17.692,0,0,0,1.575,3.726.886.886,0,0,1-.027.987c.056-.017.11-.039.166-.055l.01,0,.02-.006a.874.874,0,0,1,.624.049c.026.012.046.032.071.046a.9.9,0,0,1,.193.149c.01.01.022.013.031.024l.469.544c.57.666,1.159,1.355,2.307,2.508a30.8,30.8,0,0,1,3.753,2.457.887.887,0,0,1-1.058,1.423,26.953,26.953,0,0,0-3.621-2.361.894.894,0,0,1-.229-.166l-.135-.136a.868.868,0,0,1-.327.7c-5.2,4.058-8.68,8.537-10.328,13.315a.886.886,0,0,1-.5.532l-4.393,1.8,2.339.432a.888.888,0,0,1,.537,1.42c-6.193,7.9-18.268,34.066-22.668,49.128a.888.888,0,0,1-.85.639.866.866,0,0,1-.25-.037.885.885,0,0,1-.6-1.1c3.9-13.345,15.186-38.841,22.109-48.566l-3.909-.721a.887.887,0,0,1-.721-.781.715.715,0,0,1,0-.08,78.507,78.507,0,0,0-3.583,7.272c-4.367,10.069-8.692,24.182-11.85,34.488-.7,2.292-1.356,4.427-1.954,6.333-.274,1.081-.558,2.055-.827,2.978a40.2,40.2,0,0,0-1.032,4.059c-.284,1.559-.525,3.821-.683,5.455a14.084,14.084,0,0,1,2.142-.819,4.134,4.134,0,0,1,2.008.255,2.773,2.773,0,0,0,1.589.2c.528-.176.983-.55.745-3.162-.148-1.631,2.72-9.7,6.789-20.92,1.568-4.327,2.923-8.065,3.218-9.169.885-3.317,4.788-14.609,6.141-17.767l.089-.208a25.347,25.347,0,0,1,2.969-5.433.886.886,0,1,1,1.4,1.088,23.828,23.828,0,0,0-2.734,5.034l-.092.217c-1.3,3.037-5.208,14.338-6.058,17.526-.315,1.179-1.617,4.77-3.265,9.316-2.537,7-6.782,18.7-6.689,20.155.134,1.478.384,4.228-1.951,5.006a4.256,4.256,0,0,1-2.667-.181,2.856,2.856,0,0,0-1.144-.213c-.5.1-3.055,1.268-5.109,2.206-2.036.93-4.141,1.891-5.628,2.486-2.453.982-9.259,3.246-12.776,4.251a.9.9,0,0,1-.244.034.887.887,0,0,1-.244-1.739c3.477-.994,10.192-3.227,12.6-4.192.342-.137.721-.3,1.125-.469a.877.877,0,0,1-.062-1.18c.553-.667,1.271-1.468,2.045-2.331a46.674,46.674,0,0,0,4.7-5.794,70.677,70.677,0,0,1,.278-15.533c1.121-8.008,2.5-15.329,4.353-23.069,1.258-4.566,2.618-9.181,4.214-11.247a14.851,14.851,0,0,1,3.049-6.274c-1.859-5.172-3.146-6.214-3.883-6.142-.509.042-5.017.369-6.979-1.1-1.719-1.29-2.12-3.414-2.442-5.121-.059-.315-.115-.616-.178-.894a3.775,3.775,0,0,0-.591-1.252,2.44,2.44,0,0,1-.517-2.011,2.619,2.619,0,0,1-1.091-2.44,7.634,7.634,0,0,0-.1-1.054c-.609-.046-1.212-.138-1.653-.2l-.242-.037a2.244,2.244,0,0,1-1.793-1.11c-.4-.76-.3-1.763.331-3.066.851-1.769,2.868-6.753,2.908-8.379a12.063,12.063,0,0,0-.375-2.78,21.28,21.28,0,0,1-.5-3.217,22.774,22.774,0,0,1,.58-5.3c.1-.552.206-1.089.288-1.6a.887.887,0,1,1,1.751.281c-.084.523-.189,1.076-.3,1.644a21.234,21.234,0,0,0-.553,4.861,14.644,14.644,0,0,0,.219,1.731m24.785,37.7,6.823-2.791c1.81-4.964,5.435-9.589,10.778-13.754a.871.871,0,0,1,.569-.175c-.608-.643-1.031-1.131-1.429-1.6-7.712,5.92-12.745,11.308-16.856,18.387A.757.757,0,0,1,180.238,216.258Zm-5.751,7.4c4.375-10.08,9.352-17,17.461-23.934-7.788,3.864-14.813,10.593-19.343,16.417l2.33,5.755a.888.888,0,0,1-.6,1.191l-3.629.948a68.025,68.025,0,0,0-2.826,10.461c-.877,4.317-2.047,10.7-3.123,16.73C167.6,242.091,171.025,231.637,174.487,223.656Zm-8.343,10.485c1.032-5.084,2.511-10.286,3.23-11.361a.878.878,0,0,1,.513-.365l3.025-.791-1.608-3.971a14.238,14.238,0,0,0-2.1,4.921.888.888,0,0,1-.193.4c-1.547,1.832-3.087,7.419-4,10.728-1.831,7.655-3.2,14.923-4.314,22.874a66.944,66.944,0,0,0-.555,9.813c.148-.524.3-1.067.443-1.644C161.7,258.276,164.46,242.429,166.144,234.141Zm-8.237,44.365c.075-.8.178-1.886.3-3.016-.918,1.119-1.952,2.274-2.922,3.355-.453.506-.882.985-1.273,1.431.78-.351,1.592-.721,2.395-1.088Z" transform="translate(49.408 -152.855)" fill="#817341"/>
  </g>
</svg>
