<svg xmlns="http://www.w3.org/2000/svg" width="297.985" height="168.461" viewBox="0 0 297.985 168.461">
  <g id="グループ_21226" data-name="グループ 21226" transform="translate(-783.548 -313.683)">
    <rect id="長方形_13641" data-name="長方形 13641" width="22.477" height="142.149" transform="translate(1059.056 339.995)" fill="#fff"/>
    <rect id="長方形_13642" data-name="長方形 13642" width="297.985" height="22.477" transform="translate(783.548 339.995)" fill="#fff"/>
    <g id="グループ_21098" data-name="グループ 21098" transform="translate(783.548 313.683)">
      <path id="パス_35952" data-name="パス 35952" d="M280.767,101.672a.486.486,0,0,0-.557.424,7.824,7.824,0,0,1-5.982,5.3c-.474,0-1-.914-1-1.274,0-.229.2-.245.508-.326,2.092-.507,3.922-1.554,4.69-3.7a.4.4,0,0,0,.033-.131c0-.212-.18-.277-.36-.293h-1.486c-.606,0-1.194.048-1.8.048-.425,0-.409-.195-.409-.8,0-.621-.016-.817.409-.817.6,0,1.192.033,1.8.033h1.766c.294,0,.44-.115.457-.425,0-.033.016-.049.016-.082,0-.245-.033-.588-.033-.784,0-.228.1-.31.327-.31.278,0,.965.049,1.243.082.2.016.555.032.555.212,0,.114-.179.212-.262.261a.235.235,0,0,0-.13.229v.392c0,.294.13.425.424.425h1.964c.539,0,1.078-.033,1.618-.033.833,0,1,.18,1,1a14.8,14.8,0,0,1-.915,5.164c-.62,1.21-1.912,1.194-3.106,1.194-1.1,0-1.308,0-1.308-1.325,0-.326.081-.424.294-.424.457,0,.9.065,1.357.065.9,0,1.21-.114,1.472-.866a11.9,11.9,0,0,0,.44-2.843c0-.36-.195-.392-.767-.392Zm5-5.2c.506,0,.9.147.9.719,0,.278-.035.653-.035,1.014v.474c0,.261.035.539.035.816,0,.443-.247.425-.851.425-.572,0-.851.017-.851-.408,0-.278.032-.556.032-.833v-.212c0-.311-.13-.458-.457-.458h-9.12c-.327,0-.458.147-.458.458v.163c0,.278.033.555.033.833,0,.425-.261.408-.849.408-.621,0-.851.017-.851-.424,0-.262.033-.539.033-.817v-.425c0-.376-.033-.753-.033-1.014,0-.6.408-.719,1.127-.719.394,0,.884.033,1.472.033h6.9c.082-.017.163-.049.163-.131,0-.13-.081-.147-.228-.228-.115-.066-.278-.18-.278-.327a.369.369,0,0,1,.1-.213,12.7,12.7,0,0,0,1.406-2.533c.049-.1.1-.212.212-.212a5.465,5.465,0,0,1,1.031.376c.179.081.342.147.425.179.114.033.245.1.245.229,0,.114-.1.163-.2.163-.163.017-.228.017-.31.18A15.206,15.206,0,0,1,284.247,96a.305.305,0,0,0,.294.489C284.951,96.489,285.359,96.473,285.768,96.473Zm-9.873-.228c-.245,0-.311-.164-.408-.36-.311-.655-.639-1.29-1.014-1.912a.742.742,0,0,1-.164-.343c0-.311.916-.67,1.145-.67.278,0,.506.457.931,1.243a7,7,0,0,1,.637,1.4C277.023,95.983,276.091,96.245,275.9,96.245Zm3.792-.278c-.294,0-.343-.18-.408-.392a15.407,15.407,0,0,0-.784-1.848.847.847,0,0,1-.131-.342c0-.327.947-.606,1.145-.606.26,0,.408.278.833,1.225a9.675,9.675,0,0,1,.49,1.39C280.832,95.82,279.8,95.967,279.687,95.967Z" transform="translate(-273.231 -92.714)" fill="#fff"/>
      <path id="パス_35953" data-name="パス 35953" d="M288.83,95.9c0-.327-.147-.457-.457-.457-.605-.017-1.194.032-1.8.032-.376,0-.376-.13-.376-.653,0-.507,0-.655.376-.655.6,0,1.192.033,1.8.033.294,0,.424-.1.457-.408a5.781,5.781,0,0,0-.066-.737c0-.032-.014-.1-.014-.13,0-.18.146-.2.294-.2.195,0,1.192.081,1.422.1.131.016.424.016.424.2,0,.1-.082.13-.2.212-.18.114-.163.262-.18.523.017.327.131.441.46.441h3.284c.311,0,.441-.1.457-.425-.016-.2-.032-.457-.065-.653,0-.049-.016-.1-.016-.147,0-.164.163-.2.294-.2.229,0,1.225.1,1.486.115.131.016.36.033.36.2,0,.1-.082.131-.2.212-.18.115-.164.262-.18.474.016.311.147.425.458.425.6.017,1.192-.033,1.8-.033.375,0,.375.147.375.655,0,.523,0,.653-.375.653-.605,0-1.194-.049-1.8-.032-.327,0-.458.13-.458.457v3.842c0,.326.131.457.458.457h.669c.639,0,1.259-.033,1.9-.033.391,0,.376.147.376.67,0,.506.014.653-.376.653-.623,0-1.259-.032-1.9-.032h-1.159c-.017,0-.213,0-.213.163a.21.21,0,0,0,.065.147,11.32,11.32,0,0,0,3.287,2.256c.179.081.408.179.408.343,0,.277-.621,1.094-.933,1.094a9.6,9.6,0,0,1-2.419-1.422.232.232,0,0,0-.114-.032c-.081,0-.115.081-.13.147-.017.326,0,.489-.36.489-.6,0-1.21-.032-1.814-.032h-.294c-.311,0-.458.13-.458.441v.2c.033.31.147.457.458.457h2.418c.621,0,1.243-.032,1.863-.032.394,0,.376.163.376.686,0,.506.017.67-.376.67-.62,0-1.241-.033-1.863-.033H288.83c-.62,0-1.225.033-1.847.033-.376,0-.376-.147-.376-.67,0-.539,0-.686.376-.686.621,0,1.227.032,1.847.032h2.484c.311,0,.441-.147.441-.457v-.2c0-.311-.13-.441-.441-.441h-.278c-.6,0-1.208.032-1.814.032-.327,0-.359-.147-.359-.473-.017-.1-.05-.2-.18-.2a.17.17,0,0,0-.114.049,9.859,9.859,0,0,1-2.452,1.339c-.327,0-.867-.751-.867-1.045,0-.18.2-.247.343-.31a12.278,12.278,0,0,0,3.4-2.24.238.238,0,0,0,.065-.147c0-.114-.114-.163-.212-.163h-1.176c-.637,0-1.275.032-1.913.032-.359,0-.359-.147-.359-.653,0-.523-.016-.67.376-.67.637,0,1.259.033,1.9.033h.7c.326,0,.457-.131.457-.457Zm4.739,5.558h-1.961a.68.68,0,0,0-.7.327A15.526,15.526,0,0,1,289.777,103a.307.307,0,0,0-.065.147c0,.115.1.164.2.164.376.016.753.016,1.127.016h.278c.311,0,.425-.114.441-.424,0-.213-.032-.458-.049-.655,0-.033-.016-.1-.016-.131,0-.179.147-.2.294-.2.229,0,1.112.065,1.406.1.114,0,.408.016.408.18,0,.1-.1.131-.212.212-.18.115-.18.294-.18.492.017.31.148.424.443.424H295.2c.1-.016.2-.065.2-.18,0-.065-.035-.1-.082-.147a12.287,12.287,0,0,1-1.063-1.208A.7.7,0,0,0,293.569,101.462Zm-2.663-6.015a.378.378,0,0,0-.394.392v.049a.37.37,0,0,0,.394.392h3.415a.369.369,0,0,0,.392-.392v-.049a.377.377,0,0,0-.392-.392Zm0,1.945a.378.378,0,0,0-.394.392v.049a.378.378,0,0,0,.394.392h3.415a.377.377,0,0,0,.392-.392v-.049a.377.377,0,0,0-.392-.392Zm3.808,2.337a.377.377,0,0,0-.392-.392h-3.415a.378.378,0,0,0-.394.392v.081a.379.379,0,0,0,.394.394h3.415a.378.378,0,0,0,.392-.394Z" transform="translate(-267.922 -92.734)" fill="#fff"/>
      <path id="パス_35954" data-name="パス 35954" d="M300.329,99.537c-.131,0-.31-.18-.424-.261a20.715,20.715,0,0,0-1.8-1.325c-.2-.131-.327-.179-.327-.326,0-.247.588-1.063.868-1.063a6.492,6.492,0,0,1,1.422.882c.212.163,1.143.8,1.143,1.045C301.212,98.687,300.673,99.537,300.329,99.537Zm-.718,6.62a1,1,0,0,0-.2.457c0,.115.049.245.049.359a.2.2,0,0,1-.18.213,3.374,3.374,0,0,1-.784-.539c-.163-.131-.7-.557-.7-.7,0-.114.131-.261.2-.359a27.747,27.747,0,0,0,2.7-4.691c.049-.147.1-.245.212-.245.147,0,1.143.588,1.143.9A44.36,44.36,0,0,1,299.611,106.158Zm1.4-10.216a1.99,1.99,0,0,1-.653-.425,15.32,15.32,0,0,0-1.537-1.1c-.164-.1-.294-.163-.294-.31,0-.163.588-1.063.9-1.063a4.35,4.35,0,0,1,1.225.768c.261.18.882.637,1.112.817a.417.417,0,0,1,.163.277C301.931,95.091,301.375,95.941,301.016,95.941Zm8.32,8.483a1.23,1.23,0,0,0-.18-.394,11.362,11.362,0,0,1-.768-1.4c0-.31,1.08-.655,1.292-.655a.336.336,0,0,1,.277.164,13.775,13.775,0,0,1,.965,1.569,22.292,22.292,0,0,1,1.372,3.072c0,.345-1.061.719-1.323.719-.228,0-.277-.147-.457-.588-.049-.131-.131-.326-.212-.523a.479.479,0,0,0-.474-.343h-.115c-2.337.311-4.658.49-7,.688-.082,0-.131.032-.213.212-.063.114-.1.212-.244.212-.213,0-.261-.18-.392-.637a7.544,7.544,0,0,1-.278-1.1c0-.245.18-.245.606-.245a5.439,5.439,0,0,0,.734-.033.612.612,0,0,0,.606-.375c.639-1.21,1.129-2.174,1.684-3.433a.271.271,0,0,0,.048-.163c0-.18-.146-.245-.309-.262h-.574c-.636,0-1.274.033-1.912.033-.425,0-.408-.163-.408-.753s-.017-.767.408-.767c.637,0,1.276.032,1.912.032h1.439c.327,0,.458-.13.458-.457v-1.5c0-.327-.131-.458-.458-.458h-1.1c-.571,0-1.159.05-1.732.05-.36,0-.343-.213-.343-.77,0-.588-.032-.8.343-.8.473,0,1.128.033,1.732.033h1.1c.327,0,.458-.131.458-.458v-.653a9.07,9.07,0,0,0-.05-1.21.63.63,0,0,1-.014-.163c0-.2.13-.229.294-.229.228,0,1.21.1,1.486.13.131.017.36.033.36.213,0,.114-.1.163-.212.245-.164.13-.18.359-.18.849v.817c0,.327.13.458.457.458h1.341c.606,0,1.274-.033,1.733-.033.359,0,.342.18.342.784,0,.588.017.786-.326.786-.59,0-1.161-.05-1.749-.05H308.42c-.327,0-.457.131-.457.458V99c0,.327.13.457.457.457h1.6c.637,0,1.275-.032,1.912-.032.425,0,.409.179.409.767s.016.753-.409.753c-.637,0-1.274-.033-1.912-.033h-2.893c-.016,0-.049.017-.049.033s.017.033.033.049c.147.065.375.163.375.31,0,.164-.212.18-.326.18-.1.017-.18.033-.228.131-.525,1.014-1.047,2.043-1.619,3.041-.016.048-.05.081-.05.13,0,.164.131.212.262.212,1.178-.081,2.354-.179,3.531-.31C309.2,104.67,309.336,104.588,309.336,104.425Z" transform="translate(-262.387 -92.689)" fill="#fff"/>
      <path id="パス_35955" data-name="パス 35955" d="M311.673,100.294c-.261,0-.572.033-.817.033-.392,0-.376-.245-.376-.784,0-.588-.016-.817.376-.817.262,0,.539.049.817.049h.409c.31,0,.637-.032.963-.032.572,0,.915.147.915.767,0,.458-.032.9-.032,1.357v2.37c0,.9-.049,1.651,1.241,2.076a17.708,17.708,0,0,0,3.907.278h1.014c1.143,0,2.3-.017,3.449-.066.2,0,.965-.032,1.078-.032.294,0,.311.179.311.457,0,1.029-.278,1.127-.933,1.127H319.55a18.013,18.013,0,0,1-5.082-.457,2.447,2.447,0,0,1-1.145-.784.384.384,0,0,0-.294-.18.361.361,0,0,0-.245.1q-.564.491-1.178.931a.508.508,0,0,0-.228.409.215.215,0,0,1-.212.18c-.164,0-.245-.18-.458-.59-.049-.114-.115-.228-.18-.359a2.233,2.233,0,0,1-.31-.768c0-.18.327-.31.6-.441A13.7,13.7,0,0,0,312,104.4a.637.637,0,0,0,.343-.67v-2.974c0-.327-.131-.458-.457-.458Zm1.488-3.464c-.2,0-.262-.163-.359-.294a16.219,16.219,0,0,0-1.946-2.4c-.082-.1-.163-.163-.163-.294,0-.261.719-.833.98-.833a.4.4,0,0,1,.31.2c.394.392.851.915,1.194,1.341a5.888,5.888,0,0,1,1,1.52C314.174,96.322,313.486,96.829,313.161,96.829Zm4.347,4.364c-.425,0-.865.017-1.29.017-.359,0-.8-.05-.8-.507,0-.212.032-.441.032-.67v-2.7c0-.229-.032-.476-.032-.67,0-.474.457-.507.833-.507.394,0,.8.033,1.21.016.229,0,.311-.1.311-.31v-.082c0-.212-.082-.31-.311-.31h-.8c-.588,0-1.161.033-1.733.033-.311,0-.311-.131-.311-.557,0-.441,0-.555.311-.555.588,0,1.161.032,1.749.032.114-.016.245-.065.245-.212a.257.257,0,0,0-.114-.245,1.514,1.514,0,0,1-.408-.6c0-.262,1.078-.541,1.29-.541.245,0,.458.376.833.933.065.1.245.359.231.473-.017.164.1.18.163.2h.849a.657.657,0,0,0,.669-.343c.148-.229.476-.817.574-1.029.048-.114.065-.212.212-.212a5.654,5.654,0,0,1,1.194.343c.18.065.441.163.441.294,0,.114-.147.147-.229.163-.163.049-.2.049-.294.18-.049.082-.1.147-.147.229a.224.224,0,0,0-.049.147c0,.163.131.212.261.228h.294c.572,0,1.145-.032,1.733-.032.311,0,.311.114.311.555s0,.557-.329.557c-.571,0-1.143-.033-1.716-.033h-1.355c-.231,0-.327.082-.327.31v.082a.269.269,0,0,0,.31.31h.163c.425,0,.851-.016,1.276-.016.359,0,.816.033.816.507,0,.212-.014.408-.014.67v2.7c0,.261.014.441.014.655,0,.473-.425.523-.784.523-.049,0-.065.016-.114.065-.114.1-.2.082-.261.212a.2.2,0,0,0-.017.1c0,.147.147.18.261.18h.2c.555,0,1.094-.016,1.651-.016.326,0,.311.195.311.539,0,.375.014.572-.311.572-.557,0-1.1-.033-1.651-.033h-.033c-.294,0-.425.114-.441.425,0,.212.016.441.016.653,0,1.225-1.455,1.292-2.353,1.292h-.278c-.261,0-.473-.017-.555-.164a1.958,1.958,0,0,1-.163-.817c0-.212.081-.294.294-.294.195,0,.49.05.784.05.62,0,.685-.131.685-.737,0-.294-.163-.408-.44-.408h-2.731c-.082,0-.2.033-.2.147a.178.178,0,0,0,.065.147c.163.147.933.817.933,1,0,.212-.653.751-.915.751a.382.382,0,0,1-.213-.115c-.392-.391-.751-.735-1.159-1.094-.066-.049-.164-.147-.164-.212,0-.147.18-.327.278-.425a.148.148,0,0,0,.049-.1c0-.065-.082-.1-.131-.1h-.066c-.554,0-1.093.033-1.649.033-.311,0-.294-.18-.294-.557,0-.408-.017-.555.311-.555.539,0,1.093.016,1.632.016h4.234c.261,0,.425-.1.425-.376a.239.239,0,0,0-.278-.2Zm.36-3.89c0-.18-.147-.229-.294-.245h-.229c-.262,0-.392.114-.392.392v1.225c0,.327.147.458.458.458h4.445c.131,0,.18-.05.18-.18v-.082c0-.114-.049-.163-.18-.18h-1.047c-.8,0-1.094-.13-1.094-.9V97.5c0-.294-.13-.408-.409-.441-.212.016-.277.1-.326.294-.213.751-.784,1.5-1.1,1.5-.213,0-.735-.408-.735-.606,0-.081.114-.163.163-.212a1.888,1.888,0,0,0,.523-.621A.311.311,0,0,0,317.868,97.3Zm-.7,2.517a.212.212,0,0,0-.212.2v.1a.215.215,0,0,0,.212.212h4.676a.193.193,0,0,0,.2-.212v-.1a.189.189,0,0,0-.2-.2Zm2.176-4.413a.309.309,0,0,0-.329.326v.18a.316.316,0,0,0,.329.311h.146a.324.324,0,0,0,.311-.311v-.18a.314.314,0,0,0-.311-.326Zm2.385,2.37c.229,0,.311-.082.311-.311v-.1c0-.212-.082-.31-.311-.31h-.636c-.231,0-.311.1-.311.31v.115c0,.228.032.294.277.294Z" transform="translate(-256.893 -92.694)" fill="#fff"/>
      <path id="パス_35956" data-name="パス 35956" d="M333.222,98.887c0,.327.131.458.457.458h1.064c.686,0,1.357-.033,2.027-.033.408,0,.391.2.391.8s.017.8-.391.8c-.67,0-1.358-.033-2.027-.033h-1.064c-.326,0-.457.131-.457.458v3.072c0,.392.033.784.033,1.194,0,1.633-1.847,1.847-3.105,1.847-.278,0-.751,0-.915-.229a2.39,2.39,0,0,1-.294-1.112c0-.212.065-.49.327-.49a3.539,3.539,0,0,1,.408.033c.2.016.408.016.606.016,1.11,0,1.176-.212,1.176-1.259v-3.072c0-.327-.131-.458-.458-.458h-5.753c-.688,0-1.358.033-2.043.033-.394,0-.376-.2-.376-.8,0-.623,0-.8.376-.8.685,0,1.355.033,2.043.033H331c.327,0,.458-.131.458-.458V98.3a5.891,5.891,0,0,0-.066-1.078v-.147c0-.2.131-.229.294-.229.3,0,1.129.082,1.455.115.164.016.474.016.474.228,0,.1-.081.147-.212.245-.163.114-.18.36-.18.784Zm.686-4.119c.6,0,1.194-.016,1.8-.016.457,0,.914.131.914.67,0,.2-.032.555-.032.931v.931c0,.245.032.523.032.735,0,.409-.228.392-.865.392-.621,0-.884.017-.884-.375,0-.18.033-.523.033-.753v-.539c0-.31-.131-.457-.458-.457h-8.891c-.31,0-.458.13-.458.457v.507c0,.228.049.587.049.767,0,.392-.326.376-.882.376-.588,0-.866,0-.866-.392,0-.212.033-.506.033-.751v-.9c0-.392-.016-.735-.016-.931,0-.59.458-.686,1.306-.686.376,0,.851.032,1.39.032H328.6c.326,0,.457-.131.457-.441v-.163a6.608,6.608,0,0,0-.065-.982v-.163c0-.2.147-.229.31-.229.36,0,1.1.066,1.472.1.18.033.506.033.506.245,0,.115-.1.164-.195.247-.213.147-.213.392-.2.947,0,.31.131.441.457.441Zm-6.635,10.412c-.164,0-.247-.147-.343-.311a25.454,25.454,0,0,0-1.749-2.353.538.538,0,0,1-.18-.327c0-.277.882-.849,1.176-.849a.466.466,0,0,1,.31.18c.163.163,1,1.241,1.162,1.453a6.354,6.354,0,0,1,.833,1.325C328.483,104.608,327.583,105.18,327.273,105.18Z" transform="translate(-251.323 -92.709)" fill="#fff"/>
      <path id="パス_35957" data-name="パス 35957" d="M341.75,93.273c.147.049.6.164.6.343,0,.082-.1.131-.146.164-.247.147-.262.212-.376.571-.049.18-.394,1.374-.394,1.456a.239.239,0,0,0,.245.244,11.512,11.512,0,0,0,1.9-.6.873.873,0,0,1,.343-.082c.327,0,.327,1,.327,1.243,0,.278-.033.506-.311.588a24.266,24.266,0,0,1-2.682.637c-.473.1-.522.18-.669.637a50.811,50.811,0,0,1-3.041,7.209c-.212.392-.343.621-.588.621-.262,0-1.39-.523-1.39-.882a1.211,1.211,0,0,1,.278-.539,32.162,32.162,0,0,0,2.892-6.048,2.327,2.327,0,0,0,.131-.425c0-.163-.131-.245-.294-.245-.228,0-.947.082-1.455.082-.326,0-.588.016-.685-.3a6.908,6.908,0,0,1-.131-1.192c0-.18.048-.294.245-.294.146,0,.833.065,1.535.065,1.047,0,1.292-.016,1.439-.261a14.959,14.959,0,0,0,.6-2.976c.017-.244.017-.408.18-.408C340.458,92.881,341.538,93.208,341.75,93.273Zm-.229,10.543a3.957,3.957,0,0,0,2.958.947,7.387,7.387,0,0,0,2.321-.327.592.592,0,0,1,.163-.032c.278,0,.278.376.278,1.029,0,.327.017.7-.179.817a15.584,15.584,0,0,1-2.55.212,6.92,6.92,0,0,1-3.5-.735c-.261-.18-.8-.588-.8-.931,0-.245.751-1.21,1.014-1.21C341.341,103.587,341.456,103.734,341.521,103.817Zm1.994-5.28a11.749,11.749,0,0,1,3.286.457.307.307,0,0,1,.228.327,4.082,4.082,0,0,1-.31,1.145c-.065.147-.13.212-.294.212a1.293,1.293,0,0,1-.343-.082,6.976,6.976,0,0,0-2.6-.408c-.212,0-.408.016-.62.016-.327,0-.408-.082-.408-.359C342.454,98.439,342.748,98.537,343.515,98.537Zm3.351-2.729c0,.244-.6.718-.8.718-.1,0-.163-.1-.228-.179a14.639,14.639,0,0,0-1.127-1.309c-.049-.048-.148-.147-.148-.228,0-.213.656-.653.8-.653A6.292,6.292,0,0,1,346.866,95.808Zm1.7-1.047c0,.245-.605.735-.8.735-.1,0-.18-.114-.245-.2a14.242,14.242,0,0,0-1.127-1.308c-.049-.049-.131-.131-.131-.212,0-.2.6-.67.8-.67A6.34,6.34,0,0,1,348.567,94.761Z" transform="translate(-245.694 -92.669)" fill="#fff"/>
      <path id="パス_35958" data-name="パス 35958" d="M351.091,94.793c0,.1-.081.131-.163.179a.94.94,0,0,0-.523.59,13.333,13.333,0,0,0-.884,4.593c0,.31.115,2.206.425,2.206.131,0,.294-.572.36-.719.163-.408.278-.768.458-.768.146,0,.685.294.685.492a15.174,15.174,0,0,0-.6,2.859c0,.245.016.507.016.768,0,.639-1.1.866-1.241.866-.262,0-.359-.147-.572-.506a10.644,10.644,0,0,1-1.161-5.166,19.348,19.348,0,0,1,.833-5.362,3.782,3.782,0,0,0,.115-.457c.032-.147.049-.392.245-.392.081,0,1.273.425,1.453.49C350.861,94.563,351.091,94.613,351.091,94.793Zm4.576-1.1c.084,0,.2.033.278.033.507.049,1.013.033,1.5.114.082.016.229.049.229.164,0,.212-.245.18-.245.8,0,.507.065,1.014.081,1.52.017.247.1.474.376.474.131,0,1.031-.2,1.21-.244a1.193,1.193,0,0,1,.247-.033c.359,0,.375,1,.375,1.274,0,.409-.18.425-1.029.539-.59.065-1.063.049-1.063.621,0,.441.016.882.016,1.308a8.028,8.028,0,0,1-1.8,5.344c-.2.261-.816,1-1.161,1-.294,0-1.194-.784-1.194-1.078a.271.271,0,0,1,.131-.247,6.054,6.054,0,0,0,2.337-5.311v-.343c0-.507-.032-.833-.408-.833-.131,0-2.043.293-2.337.343a3.364,3.364,0,0,1-.572.065c-.212,0-.474-.032-.474-1.063,0-.637.065-.637.784-.67.458-.033,2.127-.163,2.5-.245a.44.44,0,0,0,.342-.441,19.855,19.855,0,0,0-.408-2.68.756.756,0,0,1-.016-.2C355.374,93.746,355.52,93.7,355.667,93.7Z" transform="translate(-240.253 -92.309)" fill="#fff"/>
      <path id="パス_35959" data-name="パス 35959" d="M359.8,95.207c2.386-.147,4.772-.392,7.144-.67,1.241-.147,2.483-.31,3.71-.506a.949.949,0,0,1,.212-.016c.245,0,.278.212.31.408a7.339,7.339,0,0,1,.148,1.194c0,.359-.345.326-.735.343a8.085,8.085,0,0,0-2.715.343,4.969,4.969,0,0,0-2.778,2.435,6.117,6.117,0,0,0-.784,2.878c0,1.894,1.21,2.353,2.878,2.353.277,0,.637-.016.816-.016.245,0,.376.016.376.277a4.613,4.613,0,0,1-.245,1.341c-.114.245-.245.278-.522.278-2.78,0-5.166-.882-5.166-4.07a7.26,7.26,0,0,1,1.8-4.691c.18-.2.277-.31.277-.392,0-.147-.13-.2-.245-.2s-.867.131-1.029.147c-1.1.164-2.566.392-3.613.67a1.283,1.283,0,0,1-.245.033c-.228,0-.309-.36-.359-.539a7.229,7.229,0,0,1-.18-1.178C358.85,95.207,359.081,95.256,359.8,95.207ZM370.652,99.2c0,.245-.653.686-.833.686-.114,0-.163-.115-.229-.2-.327-.474-.686-.931-1.047-1.374-.048-.049-.147-.147-.147-.228,0-.2.655-.606.835-.606A6.326,6.326,0,0,1,370.652,99.2Zm1.978-.9c0,.229-.637.686-.833.686-.115,0-.18-.13-.247-.212a13.836,13.836,0,0,0-1.061-1.357.38.38,0,0,1-.114-.213c0-.2.636-.62.833-.62A6.65,6.65,0,0,1,372.63,98.3Z" transform="translate(-235.41 -92.168)" fill="#fff"/>
      <path id="パス_35960" data-name="パス 35960" d="M374.158,94.352c.131.049.425.163.425.327,0,.1-.065.13-.147.163-.376.179-.473.327-.67.833a15.107,15.107,0,0,0-.9,4.97c0,.261.049,1.814.359,1.814.115,0,.2-.212.36-.588.082-.18.245-.719.441-.719.18,0,.7.327.7.523a16.437,16.437,0,0,0-.8,2.974c0,.262.033.523.033.786,0,.637-1.162.833-1.244.833-.277,0-.408-.311-.522-.539a11.78,11.78,0,0,1-.965-5.035,18.762,18.762,0,0,1,.572-4.577c.18-.719.409-1.422.588-2.141.017-.114.066-.278.212-.278a6.236,6.236,0,0,1,1.047.425C373.864,94.221,374.06,94.319,374.158,94.352Zm6.507-.474c.082.016.163.049.163.147,0,.147-.1.18-.18.327a2.272,2.272,0,0,0-.18,1.161v.457c0,.229.1.425.345.425a10.31,10.31,0,0,0,1.635-.409,1.323,1.323,0,0,1,.244-.048c.327,0,.443,1.127.443,1.373,0,.31-.115.425-2.044.686-.359.049-.555.115-.555.523,0,.327.114,2.827.131,3.253.033.425.2.457.555.637a9.066,9.066,0,0,1,1.766,1.145c.195.163.424.343.424.621,0,.375-.571,1.127-.947,1.127a.745.745,0,0,1-.457-.245,4.662,4.662,0,0,0-1.211-.9c-.163,0-.211.131-.245.261a2.234,2.234,0,0,1-2.369,1.374c-1.309,0-2.731-.621-2.731-2.125,0-1.471,1.29-2.06,2.566-2.06a4.333,4.333,0,0,1,.639.049h.114c.228,0,.326-.13.326-.342,0-.409-.081-1.962-.1-2.437-.016-.163.017-.62-.392-.62-.13,0-1.29.065-1.945.065h-.213a3.642,3.642,0,0,1-1.241-.131c-.146-.1-.163-1.029-.163-1.243s.017-.408.261-.408c.2,0,1.651.163,2.5.163h.261c.392,0,.768-.033.768-.392,0-.343-.131-1.928-.2-2.337,0-.049-.017-.114-.017-.163a.2.2,0,0,1,.229-.229A15.383,15.383,0,0,1,380.665,93.878Zm-2.535,9.169c-.375,0-1.176.131-1.176.637,0,.523.786.7,1.194.7.621,0,1.029-.229,1.029-.9C379.177,103.065,378.442,103.048,378.13,103.048Z" transform="translate(-229.941 -92.359)" fill="#fff"/>
      <path id="パス_35961" data-name="パス 35961" d="M383.759,100.156a1.265,1.265,0,0,1-.6.278c-.392,0-.98-.849-.98-1.112,0-.163.31-.376.457-.441a19.906,19.906,0,0,0,4.658-4.021,15.4,15.4,0,0,0,1.324-1.847c.066-.115.114-.247.262-.247.212,0,.867.2,1.259.278.49.1.6.164.6.345,0,.114-.082.147-.179.195a.143.143,0,0,0-.1.115.085.085,0,0,0,.032.065,18.839,18.839,0,0,0,5.836,4.986c.425.229.49.294.49.458,0,.343-.67,1.176-1,1.176a10.57,10.57,0,0,1-2.272-1.471,21.134,21.134,0,0,1-3.872-3.76.321.321,0,0,0-.28-.164.4.4,0,0,0-.26.131A24.168,24.168,0,0,1,383.759,100.156Zm7.323,2.174c-.31,0-.457.131-.457.457v2.223c0,.311.147.441.457.441h3.188c.67,0,1.341-.032,2.011-.032.392,0,.392.163.392.8,0,.6,0,.784-.376.784-.686,0-1.357-.032-2.027-.032h-9.642c-.67,0-1.358.032-2.027.032-.394,0-.376-.2-.376-.784,0-.6-.017-.8.376-.8.637,0,1.259.049,1.879.032.327-.016.458-.13.458-.441v-3.366a8.715,8.715,0,0,0-.05-1.178.56.56,0,0,1-.014-.163c0-.179.114-.212.277-.212.376,0,.735.049,1.112.065.409.033.7.049.7.245,0,.147-.115.18-.213.245-.2.131-.212.376-.212,1v3.366c0,.311.131.441.457.441h1.553c.31,0,.441-.13.441-.441V99.028a7.917,7.917,0,0,0-.049-.884c0-.048-.016-.114-.016-.163,0-.179.131-.212.294-.212.31,0,1.063.065,1.455.081.147.017.343.033.343.213,0,.114-.066.147-.2.229-.179.114-.2.506-.2.866V100.4c0,.311.147.441.457.441h1.407c.571,0,1.143-.032,1.716-.032.376,0,.376.163.376.784,0,.588,0,.768-.376.768-.572,0-1.145-.033-1.716-.033Z" transform="translate(-225.107 -92.719)" fill="#fff"/>
      <path id="パス_35962" data-name="パス 35962" d="M406.132,93.3c.033-.082.082-.164.18-.164.065,0,1.471.541,1.471.768,0,.131-.179.147-.212.147a.434.434,0,0,0-.311.148c-.147.294-.489.865-.653,1.143a.226.226,0,0,0-.049.147c0,.163.114.213.245.213.588,0,1.177-.033,1.766-.033.359,0,.359.18.359.686,0,.49,0,.669-.359.669-.688,0-1.358-.032-2.043-.032h-.639c-.049,0-.049.032-.016.065.016.033.049.066.049.1,0,.115-.148.147-.229.18a.453.453,0,0,0-.327.2c-.065.147-.147.31-.212.457a.568.568,0,0,0-.049.147c0,.18.147.229.31.247h.425c.67,0,1.324-.033,1.994-.033.376,0,.36.212.36.655,0,.392.016.636-.343.636-.67,0-1.341-.032-2.011-.032h-2.78c-.212,0-.309.082-.309.31v.131c0,.213.081.31.309.31h1.946c.621,0,1.241-.032,1.88-.032.375,0,.375.18.375.637s0,.637-.375.637c-.639,0-1.259-.033-1.88-.033h-1.946c-.212,0-.309.082-.309.294v.147c0,.213.081.311.309.311h3.662c.686,0,1.374-.033,2.076-.033.376,0,.376.164.376.655s0,.67-.359.67c-.7,0-1.407-.033-2.093-.033h-2.092c-.081,0-.163.033-.163.131a.123.123,0,0,0,.065.114,15.584,15.584,0,0,0,4.07,1.962c.376.114.539.195.539.392,0,.343-.588,1.078-.915,1.078a10.274,10.274,0,0,1-1.945-.753,15.852,15.852,0,0,1-3.186-2.059.212.212,0,0,0-.164-.065c-.13,0-.164.114-.179.228v.147c0,.719.049,1.455.049,2.19,0,.557-.18.572-.933.572-.719,0-.915-.016-.915-.555,0-.735.05-1.471.05-2.207v-.114c-.017-.131-.05-.229-.2-.229a.275.275,0,0,0-.147.049,17.714,17.714,0,0,1-3.776,2.305,6.7,6.7,0,0,1-1.357.506c-.342,0-.9-.8-.9-1.127,0-.2.212-.262.571-.376a18.61,18.61,0,0,0,4.021-1.945.169.169,0,0,0,.066-.131c0-.081-.081-.114-.147-.114h-1.978c-.686,0-1.388.033-2.093.033-.359,0-.359-.2-.359-.67s0-.655.359-.655c.705,0,1.407.033,2.093.033h3.531a.271.271,0,0,0,.311-.311v-.13c0-.229-.1-.311-.311-.311h-1.847c-.621,0-1.259.033-1.88.033-.394,0-.376-.18-.376-.637,0-.474,0-.637.376-.637.621,0,1.259.032,1.88.032h1.847c.212,0,.311-.081.311-.31v-.131c0-.228-.1-.31-.311-.31h-2.631c-.67,0-1.341.032-2.011.032-.359,0-.343-.261-.343-.636,0-.443-.016-.655.36-.655.67,0,1.323.033,1.994.033h.375c.033,0,.294,0,.294-.247a.509.509,0,0,0-.032-.147c-.1-.212-.2-.408-.311-.62a.583.583,0,0,0-.6-.376h-.425c-.686,0-1.357.032-2.044.032-.359,0-.359-.179-.359-.669s0-.686.359-.686c.541,0,1.08.033,1.619.033h.18c.114,0,.229-.05.229-.2a.242.242,0,0,0-.033-.147,13.792,13.792,0,0,0-1-1.339c-.049-.066-.148-.18-.148-.262,0-.245.851-.637,1.145-.637.18,0,.245.082.425.31.033.05.082.115.147.2a8.012,8.012,0,0,1,1.029,1.52c0,.2-.36.359-.523.425a.079.079,0,0,0-.032.065c0,.049.032.066.081.066h.8c.31,0,.457-.131.457-.443v-.506c0-.523-.016-1.047-.065-1.57,0-.049-.016-.1-.016-.147,0-.2.114-.245.277-.245.229,0,1.113.1,1.372.131.164.016.394.033.394.229,0,.114-.066.147-.2.245-.18.147-.2.425-.2.9v.965c0,.311.131.443.458.443h.474c.326,0,.457-.131.457-.443v-.931a6.567,6.567,0,0,0-.065-1.127v-.147c0-.2.114-.229.278-.229.212,0,1.078.082,1.323.114.147.017.425.033.425.229,0,.1-.082.147-.2.229-.164.131-.18.343-.18.751v1.112c0,.262.1.425.392.443a.277.277,0,0,0,.228-.148A20.443,20.443,0,0,0,406.132,93.3Zm-3.382,5.084A.607.607,0,0,0,403.4,98c.1-.2.195-.409.31-.621a.312.312,0,0,0,.033-.13c0-.2-.148-.247-.311-.262h-2.958c-.163.016-.294.065-.294.245a.492.492,0,0,0,.033.147c.409.817.409,1,.833,1Z" transform="translate(-219.607 -92.709)" fill="#fff"/>
      <path id="パス_35963" data-name="パス 35963" d="M414.57,93.832c0,.1-.114.164-.195.2-.262.1-.327.18-.539.557a1.071,1.071,0,0,0-.164.375.159.159,0,0,0,.18.164,11.757,11.757,0,0,0,1.9-.458,1.237,1.237,0,0,1,.408-.1c.278,0,.36.261.409.489a5.247,5.247,0,0,1,.131.884c0,.278-.523.343-.868.408-1.028.213-2.059.392-3.088.506a.576.576,0,0,0-.49.262,5.274,5.274,0,0,0-.556.949.127.127,0,0,0,.131.114.626.626,0,0,0,.294-.1,4.532,4.532,0,0,1,1.782-.425,1.666,1.666,0,0,1,1.863,1.472c.033.147.082.277.245.277a14.53,14.53,0,0,0,1.913-.931,1.353,1.353,0,0,1,.425-.163c.31,0,.7,1.259.7,1.535,0,.2-.179.262-.49.36-.065.033-.147.049-.229.081-.653.247-1.292.523-1.928.8-.294.115-.425.212-.425.539v.212c0,.507.016,1,.016,1.5,0,.59-.082.655-.7.655-.7,0-1-.032-1-.457,0-.36.032-.719.032-1.063,0-.147-.049-.278-.212-.278-.082,0-1.766.719-1.766,1.733,0,1.094,1.587,1.192,2.372,1.192a11.956,11.956,0,0,0,3.039-.408,1.934,1.934,0,0,1,.327-.033c.212,0,.327.18.327,1.112,0,.49-.016.621-.375.7a21.716,21.716,0,0,1-3.139.212,6.053,6.053,0,0,1-2.584-.425,2.484,2.484,0,0,1-1.635-2.337c0-1.471,1.194-2.272,2.321-2.943.327-.2.67-.375,1.015-.539.163-.081.294-.18.294-.375a2.206,2.206,0,0,0-.082-.458.682.682,0,0,0-.719-.557,5.5,5.5,0,0,0-3.056,1.439,10.59,10.59,0,0,0-1.372,1.913.274.274,0,0,1-.229.163c-.3,0-1.39-.655-1.39-.947,0-.131.131-.262.212-.36a30.828,30.828,0,0,0,2.746-4.005c0-.147-.13-.195-.36-.195-.261,0-.637.048-1.143.048-.36,0-.424-.081-.424-.914,0-.655.063-.753.473-.753.278,0,.7.033,1.177.033h.474c.425,0,.866-.017,1.013-.213a8.967,8.967,0,0,0,.884-2.108c.032-.18.065-.343.228-.343C412.888,92.836,414.57,93.587,414.57,93.832Z" transform="translate(-213.938 -92.689)" fill="#fff"/>
      <path id="パス_35964" data-name="パス 35964" d="M428.855,98.887c0,.327.131.458.457.458h1.063c.688,0,1.358-.033,2.029-.033.408,0,.391.2.391.8s.017.8-.391.8c-.67,0-1.358-.033-2.029-.033h-1.063c-.326,0-.457.131-.457.458v3.072c0,.392.033.784.033,1.194,0,1.633-1.847,1.847-3.105,1.847-.28,0-.753,0-.916-.229a2.39,2.39,0,0,1-.294-1.112c0-.212.065-.49.327-.49a3.536,3.536,0,0,1,.408.033c.195.016.408.016.606.016,1.11,0,1.177-.212,1.177-1.259v-3.072c0-.327-.131-.458-.459-.458h-5.754c-.686,0-1.357.033-2.043.033-.392,0-.375-.2-.375-.8,0-.623,0-.8.375-.8.686,0,1.357.033,2.043.033h5.754c.327,0,.459-.131.459-.458V98.3a5.889,5.889,0,0,0-.066-1.078v-.147c0-.2.131-.229.294-.229.294,0,1.129.082,1.455.115.163.016.474.016.474.228,0,.1-.081.147-.212.245-.164.114-.18.36-.18.784Zm.686-4.119c.6,0,1.192-.016,1.8-.016.458,0,.916.131.916.67,0,.2-.032.555-.032.931v.931c0,.245.032.523.032.735,0,.409-.228.392-.865.392-.621,0-.884.017-.884-.375,0-.18.033-.523.033-.753v-.539c0-.31-.131-.457-.458-.457h-8.891c-.311,0-.458.13-.458.457v.507c0,.228.049.587.049.767,0,.392-.326.376-.882.376-.588,0-.867,0-.867-.392,0-.212.033-.506.033-.751v-.9c0-.392-.016-.735-.016-.931,0-.59.457-.686,1.306-.686.376,0,.851.032,1.39.032h2.486c.326,0,.457-.131.457-.441v-.163a6.811,6.811,0,0,0-.065-.982v-.163c0-.2.147-.229.31-.229.36,0,1.1.066,1.472.1.18.033.506.033.506.245,0,.115-.1.164-.2.247-.212.147-.212.392-.2.947,0,.31.13.441.457.441Zm-6.635,10.412c-.166,0-.247-.147-.345-.311a25.424,25.424,0,0,0-1.747-2.353.538.538,0,0,1-.18-.327c0-.277.882-.849,1.176-.849a.466.466,0,0,1,.31.18c.163.163,1,1.241,1.161,1.453a6.3,6.3,0,0,1,.835,1.325C424.116,104.608,423.216,105.18,422.906,105.18Z" transform="translate(-209.079 -92.709)" fill="#fff"/>
      <path id="パス_35965" data-name="パス 35965" d="M436.6,93.314c.082.033.18.082.18.18a.362.362,0,0,1-.131.244c-.212.18-.195.229-.294.9-.032.278-.146,1.08-.146,1.308,0,.18.114.229.26.278a1.173,1.173,0,0,1,.556.753c0,.065-.065.13-.1.179-.082.114-.392.686-.441.8a1.2,1.2,0,0,0-.032.261c0,.082.032.163.13.163.05,0,.1-.048.131-.081.342-.36,1-.949,1.388-1.276a3.859,3.859,0,0,1,2.372-1.159,1.761,1.761,0,0,1,1.4.718,2.97,2.97,0,0,1,.294,1.553c0,.851-.032,1.7-.081,2.535-.033.7-.082,1.437-.082,2.124,0,.394-.017.965.359.965.443,0,1.145-.7,1.439-1.029a.469.469,0,0,1,.311-.18c.277,0,.751,1.227.751,1.488,0,.229-.606.655-.786.784a4.222,4.222,0,0,1-2.3.949c-1.372,0-1.5-1.586-1.5-2.615,0-1.471.212-2.958.212-4.43,0-.359,0-.931-.49-.931a2.441,2.441,0,0,0-1.273.655,16.5,16.5,0,0,0-1.783,1.584,5.516,5.516,0,0,0-.914,1.047c-.065.212,0,2.207,0,2.582,0,.1.032.59.049.867.032.67.081,1.553.081,1.733,0,.114.016.278-1.194.278-.391,0-.685,0-.685-.327,0-.147.1-1.961.1-2.7,0-.081-.032-.212-.146-.212s-.231.245-.394.49c-.179.294-.686,1.176-.849,1.488-.049.1-.115.2-.212.2-.28,0-1.227-.8-1.227-1.078a1.74,1.74,0,0,1,.327-.59c.882-1.29,1.651-2.631,2.4-3.988a1.537,1.537,0,0,0,.195-.768c0-.147.033-.294.033-.424s-.065-.247-.213-.247a.991.991,0,0,0-.294.082,11.265,11.265,0,0,1-1.977.67c-.261,0-.392-.245-.474-.458a4.811,4.811,0,0,1-.343-1.112c0-.261.343-.261.539-.294.492-.065,2.566-.424,2.762-.816a1.052,1.052,0,0,0,.082-.492c0-.441.065-1.422.065-2.141,0-.2-.016-.392-.016-.506,0-.18.081-.229.261-.229S436.435,93.265,436.6,93.314Z" transform="translate(-203.45 -92.579)" fill="#fff"/>
      <path id="パス_35966" data-name="パス 35966" d="M448.965,93.468c.082.033.262.082.262.2s-.114.18-.262.294a2.859,2.859,0,0,0-.294.866,5.355,5.355,0,0,0-.18.735.191.191,0,0,0,.18.213,8.028,8.028,0,0,0,.933-.245.546.546,0,0,1,.163-.033c.2,0,.212.294.245.49a8.009,8.009,0,0,1,.081.866c0,.359-.195.392-1.7.67-.59.1-.574.212-.77.751a41.52,41.52,0,0,1-2.663,5.819c-.1.164-.148.229-.327.229-.36,0-1.456-.474-1.456-.817a1.806,1.806,0,0,1,.3-.588,30.529,30.529,0,0,0,1.945-3.776,6.338,6.338,0,0,0,.376-1,.22.22,0,0,0-.229-.213c-.131,0-1.39.164-1.766.164-.277,0-.342-.147-.408-.523-.033-.2-.114-.786-.114-.949,0-.212.114-.261.294-.261h.751a14.3,14.3,0,0,0,1.684-.082c.213-.033.359-.049.49-.261a9.98,9.98,0,0,0,.525-2.747c0-.114,0-.277.146-.277C447.348,93,448.7,93.387,448.965,93.468Zm2.354,4.872c.179.049.327.147.327.343,0,.032-.033.523-.033.865,0,.476.082,2.829.163,3.172.05.245.262.31.507.408.049.017.114.05.163.066.376.147,2.305,1.045,2.305,1.437,0,.262-.605,1.194-1.014,1.194-.164,0-.311-.147-.425-.229a4.678,4.678,0,0,0-1.308-.751c-.179,0-.245.228-.261.376-.2,1.192-1.162,1.6-2.272,1.6-1.323,0-2.876-.7-2.876-2.223,0-1.5,1.422-2.027,2.712-2.027h.425c.2,0,.343-.082.343-.278,0-.523-.245-2.894-.293-3.531,0-.081-.017-.147-.017-.228,0-.262.146-.36.392-.36A6.759,6.759,0,0,1,451.319,98.34Zm-3.056,6.227c0,.506.653.768,1.078.768.588,0,.851-.31.851-.882,0-.327-.017-.507-.833-.507C448.965,103.945,448.263,104.044,448.263,104.566Zm7.142-6.244c0,.392-.933,1.129-1.227,1.129-.163,0-.277-.18-.359-.3a9.259,9.259,0,0,0-2.043-2.108c-.066-.049-.212-.147-.212-.262,0-.228.751-1.127,1.1-1.127A8.387,8.387,0,0,1,455.405,98.322Z" transform="translate(-198.16 -92.619)" fill="#fff"/>
      <path id="パス_35967" data-name="パス 35967" d="M457.129,95.213c.131.033.359.065.359.229,0,.1-.063.13-.163.212-.228.18-.245.507-.294.786a12.084,12.084,0,0,0-.131,1.732,9.34,9.34,0,0,0,.525,3.417c.195.457.734,1.422,1.308,1.422.457,0,.93-.719,1.127-1.078.1-.164.228-.409.441-.409.343,0,1.176.67,1.176.965,0,.311-.737,1.161-.964,1.423a2.354,2.354,0,0,1-1.749,1.029c-1.21,0-2.158-1.1-2.7-2.092a11.815,11.815,0,0,1-.947-5.329c0-.262.049-2.338.082-2.486a.2.2,0,0,1,.228-.179C455.641,94.854,456.851,95.164,457.129,95.213Zm6.654-.327A5.323,5.323,0,0,1,466.3,97.42a8.923,8.923,0,0,1,.964,3.4c0,.31-.164.392-.443.474a3.5,3.5,0,0,1-.916.147c-.522,0-.506-.229-.539-.621a6.26,6.26,0,0,0-2.418-4.658.27.27,0,0,1-.148-.245C462.8,95.605,463.455,94.886,463.782,94.886Z" transform="translate(-192.886 -91.798)" fill="#fff"/>
      <path id="パス_35968" data-name="パス 35968" d="M472.545,104.759a1.2,1.2,0,0,1-1.274,1.259,1.061,1.061,0,0,1-1.129-1.078,1.223,1.223,0,0,1,1.259-1.308A1.1,1.1,0,0,1,472.545,104.759Zm-1.471-2.4c-.408,0-.49-.082-.507-.49l-.114-4.136c-.032-.98-.147-3.17-.147-3.5,0-.278.1-.343.457-.343h1.145c.359,0,.457.065.457.343,0,.327-.114,2.517-.146,3.6l-.1,4.038c-.016.408-.1.49-.506.49Z" transform="translate(-186.249 -92.223)" fill="#fff"/>
      <path id="パス_35969" data-name="パス 35969" d="M477.732,102.5c-.329,0-.376-.1-.376-.557,0-1.667,1-2.615,2.075-3.514a2.123,2.123,0,0,0,.964-1.5c0-.8-.67-1.341-1.912-1.341a3.3,3.3,0,0,0-2.517,1.243c-.131.163-.229.261-.327.261s-.2-.081-.343-.228l-.655-.655c-.147-.147-.212-.245-.212-.359,0-.1.065-.2.2-.343a5.26,5.26,0,0,1,3.989-1.684c2.337,0,3.725,1.292,3.725,2.845,0,1.406-.784,2.141-1.9,3.039a2.947,2.947,0,0,0-1.325,2.323c0,.392-.048.473-.359.473Zm1.781,2.288a1.191,1.191,0,0,1-1.259,1.259,1.069,1.069,0,0,1-1.127-1.078,1.222,1.222,0,0,1,1.259-1.308A1.091,1.091,0,0,1,479.513,104.789Z" transform="translate(-184.356 -92.253)" fill="#fff"/>
    </g>
    <g id="グループ_21099" data-name="グループ 21099" transform="translate(791.178 344.3)">
      <path id="パス_35970" data-name="パス 35970" d="M283.735,120.364h.428c.507,0,1.06-.046,1.491-.046.334,0,.32.185.32.767s.014.751-.32.751c-.4,0-.953-.046-1.491-.046h-.5c-.156.016-.324.046-.324.231a.552.552,0,0,0,.079.261,12.506,12.506,0,0,0,2.435,3.159c.094.091.218.2.218.337a1.7,1.7,0,0,1-.983.966c-.2,0-.567-.415-.7-.568a10.308,10.308,0,0,1-1.367-1.978.162.162,0,0,0-.151-.107c-.092,0-.138.061-.186.137a7.788,7.788,0,0,1-2.742,3.266,1.2,1.2,0,0,1-.508.247c-.275,0-.9-.8-.9-1.058,0-.169.245-.307.49-.476a5.89,5.89,0,0,0,2.667-4.017c.016-.277-.108-.369-.384-.4h-.689c-.522,0-1.074.046-1.488.046-.337,0-.32-.215-.32-.751,0-.552-.017-.767.32-.767.445,0,.98.046,1.488.046h.8c.277,0,.431-.123.431-.4v-1.548c0-.323-.107-.43-.431-.43a.5.5,0,0,0-.535.307c-.154.322-.875,1.671-1.211,1.671-.137,0-1.028-.445-1.028-.721a1.417,1.417,0,0,1,.245-.445,13.788,13.788,0,0,0,2.07-4.615c.014-.091.045-.215.183-.215.107,0,.645.138.783.169s.231.062.337.092c.369.092.522.123.522.277,0,.123-.153.2-.245.245-.232.076-.245.137-.384.52-.062.2-.154.476-.307.89,0,.046-.017.092-.017.123,0,.2.138.245.307.261h1.657c.493,0,1-.03,1.442-.03.369,0,.352.169.352.766s.017.737-.352.737c-.428,0-.949-.046-1.442-.03-.307,0-.414.123-.446.414,0,.522,0,1.042-.014,1.564C283.353,120.242,283.459,120.364,283.735,120.364Zm4.678,5.643c-.277,0-.4.123-.415.414.014.169.014.337.014.522,0,.414-.183.4-.8.4s-.829.014-.829-.385c0-.613.046-1.211.046-1.824v-7.023c0-.46-.029-.936-.029-1.411,0-.629.322-.781.9-.781.352,0,.7.014,1.058.014h1.657c.352,0,.7-.014,1.055-.014.57,0,.907.138.907.781,0,.476-.017.936-.017,1.411v6.868c0,.6.032,1.2.032,1.809,0,.415-.2.4-.8.4s-.783.016-.783-.4c0-.123.017-.245.017-.368-.017-.291-.138-.414-.414-.414Zm1.625-1.472a.406.406,0,0,0,.414-.43v-6.224a.405.405,0,0,0-.414-.43h-1.625c-.277.03-.431.167-.431.43v6.224c0,.261.154.4.431.43Z" transform="translate(-278.523 -113.97)" fill="#16509f"/>
      <path id="パス_35971" data-name="パス 35971" d="M291.051,118.873a11.672,11.672,0,0,0,1.411-.458,14.04,14.04,0,0,1,4.417-1.1,2.963,2.963,0,0,1,3.188,3c0,1.9-1.394,3.067-3,3.757a8.7,8.7,0,0,1-2.363.644c-.5,0-.721-1.042-.721-1.165,0-.262.293-.293.493-.307a6.889,6.889,0,0,0,2.621-.767,2.624,2.624,0,0,0,1.5-2.193,1.561,1.561,0,0,0-1.717-1.548,11.711,11.711,0,0,0-4.784,1.548.817.817,0,0,1-.431.153c-.4,0-.949-.92-.949-1.241C290.717,119,290.886,118.92,291.051,118.873Z" transform="translate(-273.137 -112.495)" fill="#16509f"/>
      <path id="パス_35972" data-name="パス 35972" d="M300.939,116.292c2.239-.138,4.477-.369,6.716-.629,1.149-.138,2.328-.293,3.48-.476a.715.715,0,0,1,.183-.016c.231,0,.262.2.307.384a9.547,9.547,0,0,1,.124,1.119c0,.337-.324.307-.676.323a7.473,7.473,0,0,0-2.546.322,4.634,4.634,0,0,0-2.621,2.285,5.744,5.744,0,0,0-.735,2.7c0,1.778,1.149,2.207,2.7,2.207.277,0,.614-.014.767-.014.231,0,.355.014.355.26a3.709,3.709,0,0,1-.277,1.365.482.482,0,0,1-.444.153c-2.608,0-4.847-.828-4.847-3.818a6.822,6.822,0,0,1,1.687-4.4c.076-.075.277-.275.277-.368,0-.123-.138-.185-.231-.185-.121,0-.812.108-.98.138a31.177,31.177,0,0,0-3.391.629,1.112,1.112,0,0,1-.228.032c-.369,0-.506-1.458-.506-1.61C300.049,116.292,300.262,116.337,300.939,116.292Z" transform="translate(-269.014 -113.439)" fill="#16509f"/>
      <path id="パス_35973" data-name="パス 35973" d="M314.033,123.244a19.711,19.711,0,0,0-2.269,1.7.474.474,0,0,1-.228.124c-.307,0-.921-1.151-.921-1.458,0-.169.169-.213.352-.322.859-.492,1.672-1.042,2.514-1.564.584-.353.646-.368.646-.843v-.52c0-.231.013-.461.013-.691v-.153a.333.333,0,0,0-.334-.353c-.032,0-.062.016-.094.016-.293.061-1.334.245-1.564.245-.2,0-.443-.016-.443-1.135,0-.415.027-.476.321-.492.476-.014,1.011-.046,1.486-.107a.83.83,0,0,0,.568-.183.631.631,0,0,0,.121-.461c.017-.43.032-.859.032-1.287,0-.307-.032-.659-.032-.721,0-.123.046-.231.2-.231.231,0,1.256.215,1.563.277.092.016.307.061.307.2,0,.092-.091.185-.153.245-.231.185-.245.368-.293.843-.014.092-.03.215-.045.353,0,.062-.014.153-.014.215a.267.267,0,0,0,.259.261c.107,0,.813-.215.966-.261a.8.8,0,0,1,.261-.076c.353,0,.4,1,.4,1.257,0,.4-.26.4-1.424.6-.569.108-.6.215-.6.921v.213c0,.261.027.6.228.6a1.434,1.434,0,0,0,.382-.138,7.172,7.172,0,0,1,2.546-.506,3.072,3.072,0,0,1,3.342,2.9,2.7,2.7,0,0,1-1.224,2.284,6.1,6.1,0,0,1-3.084.691h-.183c-.245,0-.568-.016-.644-.169a2.966,2.966,0,0,1-.245-1.1c0-.2.045-.4.275-.4a12.059,12.059,0,0,0,1.259.138c.888,0,2.191-.293,2.191-1.411,0-.966-.98-1.442-1.838-1.442a5.985,5.985,0,0,0-2.7.737.518.518,0,0,0-.244.474c0,.185.03.8.048,1.012.03.323.137,1.7.137,1.856,0,.753-.937,1.119-1.351,1.119-.334,0-.443-.322-.567-.581a3.086,3.086,0,0,0-.934-1.2c-.076-.076-.186-.169-.186-.291a.349.349,0,0,1,.337-.307,3.612,3.612,0,0,1,.783.476.306.306,0,0,0,.183.092c.094,0,.108-.062.108-.123,0-.016-.029-.644-.029-.675,0-.076-.017-.154-.017-.215C314.189,123.4,314.189,123.244,314.033,123.244Zm7.744-5.352c.414.322,1.181.966,1.181,1.135,0,.291-.659,1.042-.966,1.042a.613.613,0,0,1-.336-.183,21.829,21.829,0,0,0-2.042-1.717c-.107-.078-.275-.2-.275-.369,0-.229.676-1,.92-1a4.581,4.581,0,0,1,1.149.8C321.532,117.693,321.656,117.8,321.777,117.892Z" transform="translate(-264.347 -113.599)" fill="#16509f"/>
      <path id="パス_35974" data-name="パス 35974" d="M326.826,115.182c.121.352.215.673.522.673a5.28,5.28,0,0,0,1.179-.52,1.317,1.317,0,0,1,.384-.153c.275,0,.675.934.675,1.2,0,.185-.186.277-.323.368a10.018,10.018,0,0,1-1.1.506c-.151.062-.352.108-.352.307a.561.561,0,0,0,.076.229c.169.43.275.629.461.629a7.756,7.756,0,0,0,1.825-.888.857.857,0,0,1,.366-.169c.261,0,.783.95.783,1.181s-.339.368-.646.536c-.4.2-.81.383-1.224.552-.186.076-.431.153-.431.414a13.758,13.758,0,0,0,1.548,2.667c.124.17.369.461.369.66,0,.352-.9,1-1.241,1a.317.317,0,0,1-.245-.123,4.1,4.1,0,0,0-2.821-1.089c-.646,0-1.518.245-1.518,1.042,0,1.1,1.563,1.349,2.39,1.349a6.4,6.4,0,0,0,.936-.076,3.9,3.9,0,0,1,.444-.032c.307,0,.369.262.369.706,0,.95-.154.98-.875.98a8.037,8.037,0,0,1-2.957-.4,2.628,2.628,0,0,1-1.843-2.468c0-1.672,1.367-2.5,2.915-2.5a4.648,4.648,0,0,1,1.518.261.513.513,0,0,0,.151.03.138.138,0,0,0,.138-.137,11.2,11.2,0,0,0-.582-1.12c-.091-.185-.183-.368-.415-.368a.5.5,0,0,0-.213.046,24.174,24.174,0,0,1-4.077.766c-.262,0-.324-.153-.4-.382a3.925,3.925,0,0,1-.183-.936c0-.291.275-.261.672-.291a15.813,15.813,0,0,0,3.267-.522c.154-.046.337-.123.337-.291,0-.03-.275-.89-.582-.89-.076,0-.369.076-.476.092a14.277,14.277,0,0,1-1.749.275c-.2,0-.259-.091-.334-.26a3.67,3.67,0,0,1-.262-.982c0-.322.4-.307.614-.322a9.5,9.5,0,0,0,1.179-.154c.2-.03.4-.107.4-.352a4.2,4.2,0,0,0-.431-.936,1.193,1.193,0,0,1-.183-.4c0-.322,1.073-.536,1.335-.536C326.578,114.353,326.61,114.6,326.826,115.182Z" transform="translate(-259.13 -113.801)" fill="#16509f"/>
      <path id="パス_35975" data-name="パス 35975" d="M337.862,114.477c.137.046.568.153.568.322,0,.078-.092.123-.137.153-.232.138-.245.2-.353.538-.048.169-.368,1.287-.368,1.364a.226.226,0,0,0,.231.231,10.84,10.84,0,0,0,1.776-.568.832.832,0,0,1,.324-.076c.307,0,.307.936.307,1.166,0,.26-.032.474-.293.551a23.056,23.056,0,0,1-2.516.6c-.444.092-.489.169-.627.6a47.772,47.772,0,0,1-2.853,6.762c-.2.368-.32.582-.552.582s-1.3-.49-1.3-.828a1.133,1.133,0,0,1,.262-.506,30.313,30.313,0,0,0,2.715-5.673,2.729,2.729,0,0,0,.121-.4c0-.154-.121-.231-.277-.231-.213,0-.89.076-1.365.076-.3,0-.552.014-.642-.275a6.544,6.544,0,0,1-.124-1.12c0-.169.048-.275.231-.275.138,0,.783.061,1.442.061.98,0,1.211-.014,1.348-.245a14.025,14.025,0,0,0,.567-2.791c.017-.229.017-.383.169-.383S337.664,114.415,337.862,114.477Zm-.215,9.89a3.716,3.716,0,0,0,2.777.888,6.909,6.909,0,0,0,2.177-.306.516.516,0,0,1,.154-.032c.26,0,.26.353.26.966,0,.307.017.66-.169.768a14.83,14.83,0,0,1-2.39.2,6.511,6.511,0,0,1-3.284-.691c-.245-.169-.748-.552-.748-.874,0-.231.7-1.135.949-1.135C337.478,124.153,337.585,124.289,337.647,124.367Zm1.873-4.954a11,11,0,0,1,3.081.43.288.288,0,0,1,.213.307,3.874,3.874,0,0,1-.29,1.073c-.062.138-.124.2-.275.2a.816.816,0,0,1-.324-.078,6.867,6.867,0,0,0-2.435-.382c-.2,0-.383.014-.584.014-.307,0-.382-.076-.382-.337C338.524,119.323,338.8,119.414,339.52,119.414Z" transform="translate(-254.871 -113.909)" fill="#16509f"/>
      <path id="パス_35976" data-name="パス 35976" d="M345.2,116.3c.124.03.337.062.337.215,0,.092-.062.123-.154.2-.215.169-.228.476-.277.737a11.665,11.665,0,0,0-.121,1.625,8.811,8.811,0,0,0,.49,3.2c.183.43.691,1.334,1.228,1.334.428,0,.872-.675,1.055-1.012.094-.153.218-.383.414-.383.324,0,1.107.629,1.107.905s-.691,1.089-.907,1.334a2.2,2.2,0,0,1-1.639.966,3.253,3.253,0,0,1-2.532-1.962,11.081,11.081,0,0,1-.89-5c0-.247.048-2.193.079-2.331a.19.19,0,0,1,.213-.169C343.805,115.959,344.94,116.25,345.2,116.3Zm6.24-.307a4.979,4.979,0,0,1,2.363,2.377,8.38,8.38,0,0,1,.9,3.189c0,.291-.153.368-.414.444a3.2,3.2,0,0,1-.859.138c-.49,0-.476-.215-.5-.582a5.889,5.889,0,0,0-2.269-4.37.254.254,0,0,1-.138-.231C350.521,116.664,351.132,115.989,351.439,115.989Z" transform="translate(-249.904 -113.091)" fill="#16509f"/>
      <path id="パス_35977" data-name="パス 35977" d="M361.107,122.353a.456.456,0,0,0-.521.4,7.346,7.346,0,0,1-5.613,4.968c-.444,0-.937-.859-.937-1.2,0-.215.186-.229.476-.307a5.671,5.671,0,0,0,4.4-3.464.425.425,0,0,0,.03-.123c0-.2-.169-.261-.337-.277h-1.394c-.569,0-1.12.046-1.687.046-.4,0-.384-.183-.384-.751s-.016-.767.384-.767c.567,0,1.117.032,1.687.032h1.655c.277,0,.415-.107.428-.4,0-.03.017-.046.017-.076,0-.231-.03-.552-.03-.737,0-.215.089-.291.306-.291.259,0,.9.046,1.163.076.186.016.523.032.523.2,0,.107-.169.2-.245.245a.217.217,0,0,0-.123.215v.368c0,.277.123.4.4.4h1.838c.507,0,1.011-.032,1.518-.032.783,0,.934.169.934.936a13.884,13.884,0,0,1-.858,4.846c-.584,1.135-1.793,1.119-2.912,1.119-1.028,0-1.227,0-1.227-1.241,0-.307.075-.4.275-.4.431,0,.845.062,1.273.062.845,0,1.135-.108,1.38-.813a11.184,11.184,0,0,0,.414-2.667c0-.337-.183-.369-.721-.369Zm4.691-4.876c.476,0,.842.138.842.675,0,.261-.027.614-.027.952v.444c0,.245.027.506.027.767,0,.414-.228.4-.8.4-.535,0-.8.014-.8-.385,0-.26.03-.52.03-.781v-.2c0-.291-.121-.43-.428-.43h-8.557c-.307,0-.428.138-.428.43v.153c0,.261.03.522.03.783,0,.4-.248.383-.8.383-.584,0-.8.014-.8-.4,0-.245.03-.506.03-.767v-.4c0-.353-.03-.705-.03-.952,0-.567.382-.675,1.058-.675.369,0,.828.032,1.38.032h6.472c.075-.016.151-.046.151-.124,0-.123-.076-.137-.213-.213-.108-.062-.26-.169-.26-.307a.344.344,0,0,1,.089-.2,12.041,12.041,0,0,0,1.321-2.377c.046-.091.091-.2.2-.2a5.177,5.177,0,0,1,.966.352c.169.078.324.138.4.17.108.03.232.092.232.215,0,.107-.094.153-.186.153-.153.014-.215.014-.291.169a14.148,14.148,0,0,1-1.041,1.886.285.285,0,0,0-.062.185.3.3,0,0,0,.337.275C365.033,117.493,365.415,117.477,365.8,117.477Zm-9.262-.215c-.231,0-.29-.153-.382-.336a19.427,19.427,0,0,0-.953-1.795.709.709,0,0,1-.151-.322c0-.291.859-.629,1.073-.629.262,0,.476.43.874,1.165a6.6,6.6,0,0,1,.6,1.319C357.6,117.019,356.72,117.263,356.537,117.263Zm3.557-.26c-.275,0-.321-.169-.384-.369a14.363,14.363,0,0,0-.734-1.732.784.784,0,0,1-.124-.323c0-.306.89-.567,1.073-.567.248,0,.385.261.783,1.149a8.965,8.965,0,0,1,.461,1.3C361.169,116.865,360.2,117,360.094,117Z" transform="translate(-245.166 -113.951)" fill="#16509f"/>
      <path id="パス_35978" data-name="パス 35978" d="M368.665,116.946c0-.307-.138-.43-.431-.43-.567-.016-1.119.03-1.687.03-.352,0-.352-.123-.352-.614,0-.474,0-.613.352-.613.568,0,1.12.032,1.687.032.275,0,.4-.092.431-.383a5.889,5.889,0,0,0-.062-.691c0-.03-.017-.092-.017-.123,0-.169.138-.185.275-.185.186,0,1.122.076,1.335.092.124.016.4.016.4.185,0,.091-.075.123-.186.2-.166.107-.151.245-.166.492.014.306.121.414.428.414h3.081c.293,0,.417-.092.431-.4-.014-.185-.032-.43-.062-.614,0-.045-.014-.091-.014-.137,0-.154.151-.185.275-.185.215,0,1.149.092,1.394.108.124.014.339.03.339.183,0,.092-.076.123-.183.2-.17.107-.156.245-.17.444.014.291.138.4.428.4.569.014,1.122-.032,1.687-.032.355,0,.355.138.355.613,0,.492,0,.614-.355.614-.565,0-1.117-.046-1.687-.03-.307,0-.428.123-.428.43v3.6c0,.307.121.428.428.428h.631c.6,0,1.179-.03,1.776-.03.369,0,.352.138.352.63,0,.474.017.613-.352.613-.582,0-1.179-.032-1.776-.032h-1.09c-.017,0-.2,0-.2.154a.2.2,0,0,0,.062.137,10.568,10.568,0,0,0,3.081,2.116c.169.076.385.169.385.323,0,.261-.582,1.027-.875,1.027a8.973,8.973,0,0,1-2.269-1.334.212.212,0,0,0-.107-.03c-.076,0-.108.076-.121.137-.017.307,0,.461-.339.461-.568,0-1.135-.032-1.7-.032h-.277c-.29,0-.428.124-.428.414v.185c.032.291.138.43.428.43h2.269c.584,0,1.166-.032,1.749-.032.369,0,.352.154.352.644s.017.629-.352.629c-.582,0-1.165-.03-1.749-.03h-6.974c-.584,0-1.152.03-1.736.03-.352,0-.352-.137-.352-.629s0-.644.352-.644c.584,0,1.152.032,1.736.032h2.328c.293,0,.414-.138.414-.43v-.185c0-.29-.121-.414-.414-.414h-.26c-.568,0-1.135.032-1.7.032-.306,0-.334-.138-.334-.445-.017-.092-.048-.183-.169-.183a.156.156,0,0,0-.107.045,9.285,9.285,0,0,1-2.3,1.257c-.307,0-.815-.705-.815-.98,0-.169.183-.231.322-.291a11.471,11.471,0,0,0,3.19-2.1.219.219,0,0,0,.062-.137c0-.107-.107-.154-.2-.154h-1.1c-.6,0-1.2.032-1.794.032-.339,0-.339-.138-.339-.613,0-.492-.014-.63.352-.63.6,0,1.184.03,1.781.03h.659c.307,0,.431-.121.431-.428Zm4.446,5.212h-1.842a.643.643,0,0,0-.659.307,14.424,14.424,0,0,1-1.058,1.135.289.289,0,0,0-.059.138c0,.107.089.153.183.153.352.016.706.016,1.058.016h.26c.293,0,.4-.107.414-.4,0-.2-.032-.428-.045-.613,0-.03-.014-.092-.014-.123,0-.169.138-.185.275-.185.215,0,1.042.062,1.318.092.108,0,.384.016.384.169,0,.092-.092.123-.2.2-.169.107-.169.275-.169.458.017.293.138.4.414.4h1.273c.092-.016.186-.062.186-.169,0-.061-.032-.092-.079-.138a11.7,11.7,0,0,1-1-1.135A.656.656,0,0,0,373.111,122.158Zm-2.5-5.641a.353.353,0,0,0-.366.368v.046a.345.345,0,0,0,.366.368h3.2a.345.345,0,0,0,.369-.368v-.046a.354.354,0,0,0-.369-.368Zm0,1.824a.354.354,0,0,0-.366.369v.045a.354.354,0,0,0,.366.369h3.2a.355.355,0,0,0,.369-.369v-.045a.355.355,0,0,0-.369-.369Zm3.574,2.193a.354.354,0,0,0-.369-.368h-3.2a.353.353,0,0,0-.366.368v.078a.352.352,0,0,0,.366.366h3.2a.353.353,0,0,0,.369-.366Z" transform="translate(-240.189 -113.97)" fill="#16509f"/>
      <path id="パス_35979" data-name="パス 35979" d="M388.655,117.676a.173.173,0,0,0,.094.138c.151.107.721.474.721.659,0,.123-.124.153-.232.169-.213.016-.368.153-.737.476-.245.229-.6.536-1.135.95a.138.138,0,0,0-.059.123c0,.092.089.123.151.123h1.028c.582,0,1.179-.03,1.779-.03.366,0,.352.154.352.629,0,.506.014.644-.352.644-.6,0-1.2-.032-1.779-.032h-2.853a1.116,1.116,0,0,0-.721.185l-.734.415a.175.175,0,0,0-.094.137c0,.076.094.123.169.123h2.271c.4,0,.8-.016,1.2-.016.366,0,.627.123.627.507,0,.291-.03.582-.03.858v2.7c0,.291.03.6.03.888,0,.307-.183.307-.783.307-.7,0-.81,0-.78-.414-.017-.2-.092-.275-.275-.275h-4.34c-.186,0-.275.076-.275.275.013.383-.124.383-.783.383-.584,0-.783.016-.783-.306,0-.293.016-.6.016-.89v-2.024c0-.046,0-.307-.247-.307a.489.489,0,0,0-.138.03,13.628,13.628,0,0,1-2.129.753c-.307,0-.737-.8-.737-1.044,0-.183.154-.213.414-.306a46.91,46.91,0,0,0,4.477-1.749c.048-.03.094-.061.094-.123s-.076-.108-.156-.108h-2.683c-.6,0-1.181.032-1.778.032-.368,0-.368-.138-.368-.629,0-.506,0-.644.352-.644.6,0,1.2.03,1.794.03h2.545c.262,0,.369-.107.369-.352v-.108c0-.245-.107-.352-.369-.352h-.748c-.6,0-1.2.03-1.8.03-.352,0-.336-.169-.336-.629,0-.506,0-.644.353-.644.6,0,1.179.03,1.779.03h.689c.291,0,.4-.123.4-.414v-.092c-.045-.2-.121-.275-.321-.275h-1.534c-.428,0-.859.03-1.287.03s-.983-.014-.983-.582c0-.169.032-.337.032-.629v-.751c0-.307-.032-.46-.032-.629,0-.582.552-.582,1-.582s.859.03,1.273.03h7.177c.428,0,.859-.03,1.287-.03s.982,0,.982.582c0,.169-.016.322-.016.629v.751c0,.307.016.46.016.629,0,.552-.476.568-.89.582C388.717,117.553,388.655,117.6,388.655,117.676Zm-7.223-1.794a.342.342,0,0,0-.369-.353h-1.117a.335.335,0,0,0-.369.353V116a.346.346,0,0,0,.369.368h1.117a.353.353,0,0,0,.369-.368Zm5.078,8.294a.265.265,0,0,0,.29-.291v-.123a.273.273,0,0,0-.29-.291h-4.34a.294.294,0,0,0-.307.291v.123a.277.277,0,0,0,.307.291Zm0,1.672a.273.273,0,0,0,.29-.291v-.169a.272.272,0,0,0-.29-.291h-4.34a.292.292,0,0,0-.307.291v.169a.293.293,0,0,0,.307.291ZM382.861,116a.352.352,0,0,0,.365.368h1.2a.345.345,0,0,0,.368-.368v-.123a.334.334,0,0,0-.368-.353h-1.2a.341.341,0,0,0-.365.353Zm.858,3.956c0,.245.107.352.366.352h.231a1.027,1.027,0,0,0,.6-.138c.17-.107.339-.229.522-.336a.216.216,0,0,0,.078-.169c0-.092-.092-.138-.186-.154-.414-.014-.828-.014-1.241-.014-.26,0-.366.107-.366.352Zm.321-1.672c.583,0,1.165-.03,1.749-.03.366,0,.352.138.352.675,0,.107.045.215.169.215a.215.215,0,0,0,.121-.046,9.553,9.553,0,0,0,1.3-1.227.232.232,0,0,0,.076-.167c0-.138-.089-.185-.2-.2h-3.558c-.014,0-.059,0-.059.016a.083.083,0,0,0,.027.046c.017.014.017.046.017.091,0,.092-.062.123-.156.185s-.107.107-.151.229C383.748,118.244,383.885,118.274,384.04,118.288ZM386.217,116a.355.355,0,0,0,.369.368h1.2a.353.353,0,0,0,.366-.368v-.123a.342.342,0,0,0-.366-.353h-1.2a.343.343,0,0,0-.369.353Z" transform="translate(-234.981 -113.796)" fill="#16509f"/>
      <path id="パス_35980" data-name="パス 35980" d="M392.235,114.716a5.744,5.744,0,0,1,.735-.075c.428,0,.4.229.428.581a21.183,21.183,0,0,0,.476,2.745c.048.2.092.46.355.46a24.7,24.7,0,0,0,3.126-1.7.99.99,0,0,1,.4-.154c.2,0,.46.46.552.614a3.035,3.035,0,0,1,.445.936c0,.153-.169.2-.293.245a28.113,28.113,0,0,0-3.787,1.763,15.554,15.554,0,0,0-2.759,1.809,1.935,1.935,0,0,0-.753,1.38c0,.552.538.936,1.014,1.1a6.149,6.149,0,0,0,2.039.275,23.232,23.232,0,0,0,4-.4.418.418,0,0,1,.138-.016c.216,0,.231.629.231.95v.185c0,.4-.014.568-.321.644a36.839,36.839,0,0,1-4.219.245,5.736,5.736,0,0,1-3.142-.66,2.7,2.7,0,0,1-1.411-2.36c0-1.672,1.38-2.759,2.653-3.588a.481.481,0,0,0,.262-.4.536.536,0,0,0-.062-.275c-.186-.552-.614-2.177-.77-2.806a8.815,8.815,0,0,0-.29-1.012.861.861,0,0,1-.045-.185C391.239,114.792,391.743,114.792,392.235,114.716Z" transform="translate(-229.506 -113.674)" fill="#16509f"/>
      <path id="パス_35981" data-name="パス 35981" d="M404.681,122.84a.412.412,0,0,0,.231-.076c.213-.2.446-.383.659-.582.107-.107.154-.169.231-.169a3.481,3.481,0,0,1,1.06,1.1.142.142,0,0,1-.156.137c-.03,0-.062-.014-.107-.014a.253.253,0,0,0-.107-.016.262.262,0,0,0-.183.062c-.248.183-.493.353-.738.536a.387.387,0,0,0-.2.307c0,.107.049.153.111.245a8.409,8.409,0,0,0,.689.813.417.417,0,0,1,.138.229c0,.245-.721.767-.966.767-.218,0-.983-1.058-1.135-1.273a10.072,10.072,0,0,1-1.273-2.591.19.19,0,0,0-.2-.153.227.227,0,0,0-.169.092c-.062.091-.138.183-.2.275a.762.762,0,0,0-.213.613v1.763c0,.185.076.337.275.337a.246.246,0,0,0,.108-.014c.151-.03,1.089-.307,1.148-.307.307,0,.339.567.339.781,0,.4-.107.476-.322.552-.934.307-2.086.582-3.052.8-.307.062-.322.108-.4.291-.049.078-.094.123-.17.123-.169,0-.231-.245-.337-.567-.045-.154-.275-.813-.275-.92,0-.138.075-.138.414-.185a4.288,4.288,0,0,0,.476-.076c.29-.062.382-.2.382-.506V124.6c0-.121-.045-.229-.183-.229-.062,0-.078.03-.137.046a3.068,3.068,0,0,1-.921.552c-.275,0-.721-.675-.721-.92,0-.138.26-.291.369-.353a10.546,10.546,0,0,0,1.915-1.595.269.269,0,0,0,.062-.138c0-.123-.107-.153-.213-.169-.49,0-.966.032-1.456.032-.307,0-.293-.17-.293-.66s-.014-.675.293-.675c.521,0,1.041.03,1.563.03h.7c.293,0,.414-.107.431-.4a3.75,3.75,0,0,0-.045-.552c0-.03-.017-.076-.017-.123,0-.169.154-.185.293-.185.245,0,.936.062,1.226.092.124.016.4.016.4.185,0,.092-.092.123-.213.185-.156.107-.156.229-.17.4.014.307.153.4.428.4h.691c.521,0,1.041-.03,1.566-.03.32,0,.29.185.29.659,0,.506.03.676-.29.676-.525,0-1.045-.032-1.566-.032h-.259c-.154.016-.307.062-.307.247a.4.4,0,0,0,.032.137c.059.153.121.307.2.46C404.467,122.734,404.529,122.84,404.681,122.84Zm-2.96-5.121c.307,0,.431-.123.431-.43v-.215c0-.29-.124-.414-.431-.414h-.2c-.492,0-.966.032-1.442.032-.368,0-.337-.215-.337-.675s-.014-.644.337-.644c.476,0,.95.03,1.442.03h.2c.293,0,.414-.123.414-.414,0-.03-.059-.644-.059-.721,0-.169.121-.213.277-.213.213,0,1.041.091,1.3.123.138.014.366.03.366.2,0,.107-.076.137-.2.229-.138.108-.138.215-.151.383,0,.291.124.414.414.414h.183c.476,0,.952-.03,1.442-.03.352,0,.337.2.337.644s.014.675-.337.675c-.49,0-.966-.032-1.442-.032h-.183c-.307,0-.428.124-.428.414v.215c0,.307.121.43.428.43h2.239c.29,0,.414-.107.414-.4,0-.8-.014-1.61-.032-2.408,0-.2-.03-.46-.03-.536,0-.215.107-.291.307-.291.123,0,.92.076,1.1.092.324.03.52.03.52.244,0,.138-.12.185-.228.247-.154.076-.169.169-.169.629v1.089c0,.307.014.614.014.92s.154.414.444.414h1.55c.627,0,1.259-.03,1.886-.03.369,0,.369.169.369.721s0,.735-.369.735c-.627,0-1.259-.045-1.886-.045H408.73c-.275,0-.414.123-.4.414a16.165,16.165,0,0,0,.446,2.944.152.152,0,0,0,.154.137.154.154,0,0,0,.153-.092,11.187,11.187,0,0,0,.92-2.315c.032-.121.076-.336.245-.336a6.769,6.769,0,0,1,1.06.352c.169.062.444.138.444.322,0,.108-.107.17-.2.215-.182.078-.182.123-.32.476a16.992,16.992,0,0,1-1.566,3.052.633.633,0,0,0-.121.382.593.593,0,0,0,.076.291c.137.293.565,1.2.934,1.2.213,0,.29-.215.337-.383a6.76,6.76,0,0,0,.26-1.241c.032-.291.032-.4.293-.4.339,0,1.119.123,1.119.568,0,.735-.428,3.036-1.932,3.036-.966,0-1.518-.721-1.994-1.472a.3.3,0,0,0-.245-.154.322.322,0,0,0-.231.123c-.277.277-1.5,1.534-1.825,1.534-.258,0-.934-.6-.934-.843,0-.169.231-.322.355-.43a11.659,11.659,0,0,0,1.825-1.749.6.6,0,0,0,.166-.382.9.9,0,0,0-.059-.291,21.389,21.389,0,0,1-.828-4.539c-.032-.307-.156-.414-.463-.414h-5.212c-.629,0-1.273.045-1.9.045-.369,0-.355-.2-.355-.721,0-.567-.014-.735.355-.735.642,0,1.272.03,1.9.03Zm8.7-.368c-.154,0-.213-.169-.261-.277a13,13,0,0,0-.966-1.609.49.49,0,0,1-.121-.231c0-.229.859-.629,1.073-.629s.552.582.721.874a7.058,7.058,0,0,1,.659,1.227C411.521,117,410.617,117.352,410.417,117.352Z" transform="translate(-225.402 -113.932)" fill="#16509f"/>
      <path id="パス_35982" data-name="パス 35982" d="M415.21,117.99c0,.307.121.43.428.43h.307c.551,0,1.1-.03,1.641-.03.428,0,.4.215.4.735s.016.737-.4.737c-.538,0-1.09-.046-1.641-.046h-.307c-.307,0-.428.123-.428.428v1.273c0,.307.121.43.428.43h.751c.567,0,1.149-.03,1.719-.03.4,0,.382.2.382.719,0,.538.014.737-.382.737-.569,0-1.152-.046-1.719-.046h-.751c-.307,0-.428.138-.428.43v1.15c0,.8.045,1.595.045,2.392,0,.49-.183.506-.813.506s-.812-.016-.812-.506c0-.8.032-1.595.032-2.392v-1.15c0-.291-.124-.43-.414-.43h-.691c-.582,0-1.152.046-1.734.046-.4,0-.383-.2-.383-.737s0-.719.383-.719c.582,0,1.152.03,1.734.03h.691c.29,0,.414-.123.414-.43v-1.273c0-.306-.124-.428-.414-.428h-.156c-.552,0-1.09.046-1.642.046-.414,0-.4-.2-.4-.737s-.017-.735.4-.735c.538,0,1.09.03,1.642.03h.156c.29,0,.414-.123.414-.43v-2.468a8.459,8.459,0,0,0-.049-1.12.667.667,0,0,1-.013-.153c0-.183.121-.215.275-.215.307,0,.98.046,1.3.062.138.014.383.03.383.213,0,.108-.076.138-.169.215-.169.138-.169.307-.169.522-.014.46-.014.92-.014,1.38Zm-3.084.014c-.183,0-.245-.2-.32-.414a17.338,17.338,0,0,0-1.06-2.131.781.781,0,0,1-.124-.307c0-.26.907-.582,1.06-.582.244,0,.414.414.828,1.243.017.046.062.123.107.215a9.138,9.138,0,0,1,.6,1.4C413.216,117.775,412.233,118,412.126,118Zm6.319-2.637a.252.252,0,0,0-.262.185c-.245.6-.783,1.61-1.1,2.177-.094.154-.183.323-.384.323s-1.028-.291-1.028-.552a2.235,2.235,0,0,1,.215-.49,15.577,15.577,0,0,0,1.089-2.285c.032-.078.076-.138.17-.138a6.269,6.269,0,0,1,.858.275c.059.016.121.048.183.062.245.092.445.153.445.291C418.628,115.245,418.611,115.353,418.445,115.368Zm.567,1.795a6.351,6.351,0,0,0-.046-.966.413.413,0,0,1-.016-.138c0-.169.124-.2.261-.2.183,0,1.073.061,1.287.092.124,0,.352.014.352.183,0,.123-.121.2-.2.261-.2.137-.186.307-.186,1.533v4.217c0,.66.049,1.319.049,1.994,0,.46-.156.474-.77.474s-.766-.03-.766-.506c0-.659.032-1.318.032-1.962Zm2.928-1.472a11.483,11.483,0,0,0-.062-1.335c0-.03-.014-.091-.014-.123,0-.183.138-.2.275-.2.26,0,.966.046,1.257.062.137.014.382.03.382.213,0,.108-.089.154-.2.247-.137.107-.154.368-.154.843v9.415c0,.4.032.781.032,1.165,0,1.564-1.2,1.779-2.484,1.779-.476,0-.89.046-.89-1.058,0-.245.016-.6.337-.6.153,0,.507.046.783.046.735,0,.735-.261.735-1.181Z" transform="translate(-220.252 -113.942)" fill="#16509f"/>
      <path id="パス_35983" data-name="パス 35983" d="M423.724,127.043c-.183.444-.262.522-.445.522-.2,0-1.241-.383-1.241-.691a.953.953,0,0,1,.107-.291,13.882,13.882,0,0,0,1.028-5.8v-1.672c0-.382-.014-.766-.014-1.149,0-.552.3-.66.8-.66.366,0,.751.032,1.135.032h1.318c.383,0,.753-.032,1.135-.032.49,0,.8.108.8.66,0,.383-.014.767-.014,1.149v1.825c0,.476.032.936.032,1.4,0,.368-.169.368-.783.368-.49,0-.6,0-.706-.107-.091-.108-.2-.247-.336-.261h-1.459c-.29,0-.414.123-.444.414A13.721,13.721,0,0,1,423.724,127.043Zm.659-10.995c-.49,0-1,.032-1.486.032-.383,0-.383-.231-.383-.783,0-.536,0-.781.383-.781.489,0,1,.046,1.486.046h2.532c.49,0,1-.046,1.486-.046.4,0,.384.261.384.781,0,.536.013.783-.384.783-.49,0-1-.032-1.486-.032Zm2.452,3.191c0-.307-.121-.43-.428-.43h-1.3c-.29,0-.414.123-.414.43v1.273c0,.306.124.428.414.428h1.3c.307,0,.428-.123.428-.428Zm4.449-.89c0,.306.121.428.428.428h1.979c.6,0,1.211-.03,1.822-.03.4,0,.368.154.368.767s.017.751-.368.751c-.215,0-.567-.016-.78-.03-.307.03-.415.123-.415.414v4.508c0,.675.046,1.349.046,2.024,0,.506-.17.506-.815.506s-.828,0-.828-.506c0-.675.048-1.349.048-2.024v-4.508c0-.291-.124-.43-.431-.43h-.627c-.29,0-.4.108-.445.415a12.941,12.941,0,0,1-1.2,5.2,6.093,6.093,0,0,1-.918,1.442.46.46,0,0,1-.355.169c-.32,0-1.179-.4-1.179-.691,0-.107.124-.215.186-.291a8.046,8.046,0,0,0,1.164-1.856,13,13,0,0,0,.751-4.846v-3.926c0-.689.6-.689,1-.719a12.8,12.8,0,0,0,3.819-.859.379.379,0,0,1,.183-.061c.245,0,.582.474.738.675a1.937,1.937,0,0,1,.414.659.2.2,0,0,1-.215.183.369.369,0,0,1-.216-.076.646.646,0,0,0-.228-.061,1.693,1.693,0,0,0-.386.092,18.821,18.821,0,0,1-2.987.629c-.476.061-.552.076-.552.613Z" transform="translate(-215.129 -113.871)" fill="#16509f"/>
      <path id="パス_35984" data-name="パス 35984" d="M435.035,116.292c2.238-.138,4.477-.369,6.7-.629,1.166-.138,2.331-.293,3.483-.476a.831.831,0,0,1,.2-.016c.231,0,.261.2.293.384a6.921,6.921,0,0,1,.138,1.119c0,.337-.324.307-.691.323a7.564,7.564,0,0,0-2.546.322A4.661,4.661,0,0,0,440,119.6a5.727,5.727,0,0,0-.735,2.7c0,1.778,1.135,2.207,2.7,2.207.262,0,.6-.014.766-.014.232,0,.355.014.355.26a4.29,4.29,0,0,1-.231,1.257c-.107.231-.231.261-.49.261-2.607,0-4.846-.828-4.846-3.818a6.815,6.815,0,0,1,1.687-4.4c.169-.183.262-.29.262-.368,0-.137-.124-.185-.231-.185s-.815.124-.966.138c-1.028.154-2.408.369-3.391.629a1.124,1.124,0,0,1-.228.032c-.218,0-.293-.337-.337-.506a6.8,6.8,0,0,1-.17-1.1C434.144,116.292,434.359,116.337,435.035,116.292Zm10.181,3.74c0,.231-.614.644-.783.644-.107,0-.154-.107-.213-.183-.307-.445-.646-.875-.983-1.289-.045-.046-.138-.138-.138-.215,0-.183.614-.567.783-.567A5.95,5.95,0,0,1,445.216,120.032Zm1.853-.843c0,.215-.6.644-.78.644-.107,0-.169-.123-.231-.2a13.142,13.142,0,0,0-1-1.273.369.369,0,0,1-.108-.2c0-.183.6-.582.783-.582A6.247,6.247,0,0,1,447.069,119.189Z" transform="translate(-209.781 -113.439)" fill="#16509f"/>
      <path id="パス_35985" data-name="パス 35985" d="M450.045,124.532c-.078.014-.169.03-.169.138a.214.214,0,0,0,.045.137c.138.138.705.691.705.843,0,.092-.121.153-.2.153-.048,0-.079-.014-.124-.014s-.076-.016-.121-.016a.589.589,0,0,0-.275.108,17.8,17.8,0,0,1-3.467,1.486,2.7,2.7,0,0,1-.582.154c-.369,0-.813-.8-.813-1.12,0-.183.137-.215.6-.322A11.074,11.074,0,0,0,449,124.762a.112.112,0,0,0,.062-.107c0-.092-.076-.123-.153-.123h-1.855c-.6,0-1.211.03-1.811.03-.337,0-.32-.183-.32-.659s0-.66.32-.66c.6,0,1.2.032,1.811.032h1.456c.307,0,.428-.124.428-.43v-.307c0-.307-.121-.43-.428-.43h-.49c-.614,0-1.211.032-1.825.032-.382,0-.368-.169-.368-.66s-.014-.659.352-.659c.613,0,1.227.03,1.841.03h.49c.245,0,.4-.092.428-.352,0-.062-.045-.536-.045-.568,0-.183.107-.215.261-.215.228,0,1.135.076,1.394.108.124.016.369.03.369.183,0,.092-.076.138-.2.215a.361.361,0,0,0-.169.307c.03.245.2.322.414.322h1.473c.261,0,.414-.107.414-.382,0-.092-.032-.506-.032-.538,0-.169.107-.215.245-.215.231,0,1.09.076,1.349.108.124.016.4.016.4.183,0,.092-.062.123-.2.215a.313.313,0,0,0-.169.307c.017.245.186.322.4.322h.508c.611,0,1.225-.03,1.838-.03.369,0,.369.169.369.659s0,.66-.369.66c-.613,0-1.227-.032-1.838-.032h-.508c-.293,0-.43.123-.43.43v.307c0,.306.124.43.43.43h1.488c.6,0,1.2-.032,1.794-.032.337,0,.323.17.323.66s.014.659-.323.659c-.6,0-1.2-.03-1.794-.03h-1.794c-.076,0-.153.03-.153.107s.059.092.091.123a12.386,12.386,0,0,0,3.372,1.365c.307.076.507.092.507.337,0,.291-.383,1.058-.828,1.058-.753,0-4.446-1.719-4.446-2.209,0-.153.32-.444.444-.552.032-.046.046-.061.046-.107,0-.092-.094-.123-.17-.123Zm5.058-5h-6.775a2.581,2.581,0,0,0-.324.107,1.521,1.521,0,0,1-.582.076c-.473,0-.859,0-.859-.444,0-.368.032-.721.032-1.074v-2.5c0-.353-.014-.6-.014-.829,0-.52.384-.582.8-.582.444,0,.9.03,1.348.03h5.982c.444,0,.89-.03,1.318-.03s.845.046.845.582c0,.277-.032.554-.032.829v2.484c0,.352.032.705.032,1.058,0,.428-.245.474-.828.474a1.648,1.648,0,0,1-.614-.076A2.437,2.437,0,0,0,455.1,119.534Zm-4.169-3.635a.342.342,0,0,0-.353-.368h-2.039a.354.354,0,0,0-.368.368v.123a.354.354,0,0,0,.368.368h2.039a.342.342,0,0,0,.353-.368Zm-2.392,1.564c-.261,0-.368.107-.368.368v.123c0,.261.107.368.368.368h2.039c.245,0,.353-.107.353-.368v-.123c0-.261-.108-.368-.353-.368Zm4.322,5.075a.435.435,0,0,0-.427-.43h-1.473a.44.44,0,0,0-.428.43v.307a.44.44,0,0,0,.428.43h1.473a.435.435,0,0,0,.427-.43Zm2.026-6.149a.356.356,0,0,0,.369-.368V115.9a.356.356,0,0,0-.369-.368h-2.07a.356.356,0,0,0-.369.368v.123a.356.356,0,0,0,.369.368Zm-2.439,1.564c0,.261.11.368.369.368h2.07c.261,0,.369-.107.369-.368v-.123c0-.261-.108-.368-.369-.368h-2.07c-.259,0-.369.107-.369.368Z" transform="translate(-205.019 -113.829)" fill="#16509f"/>
      <path id="パス_35986" data-name="パス 35986" d="M462.639,114.659c.076.032.245.078.245.185s-.107.169-.245.275a2.613,2.613,0,0,0-.275.813,4.725,4.725,0,0,0-.169.691.179.179,0,0,0,.169.2,7.361,7.361,0,0,0,.872-.231.584.584,0,0,1,.156-.03c.183,0,.2.277.228.46a7.042,7.042,0,0,1,.076.813c0,.337-.183.368-1.595.629-.552.092-.535.2-.721.705a38.889,38.889,0,0,1-2.5,5.458c-.094.154-.138.215-.307.215-.337,0-1.365-.444-1.365-.766a1.7,1.7,0,0,1,.275-.552,28.764,28.764,0,0,0,1.825-3.542,6.17,6.17,0,0,0,.352-.936.206.206,0,0,0-.215-.2c-.121,0-1.3.153-1.655.153-.262,0-.321-.138-.383-.49-.03-.185-.107-.735-.107-.89,0-.2.107-.245.277-.245h.7a13.5,13.5,0,0,0,1.58-.078c.2-.03.337-.045.458-.244a9.355,9.355,0,0,0,.493-2.576c0-.108,0-.261.137-.261C461.122,114.215,462.394,114.583,462.639,114.659Zm2.209,4.57c.169.046.306.137.306.322,0,.03-.03.49-.03.813,0,.444.076,2.653.151,2.974.049.231.245.291.477.383.045.014.107.046.154.061.352.138,2.16.982,2.16,1.351,0,.244-.567,1.119-.949,1.119-.156,0-.293-.138-.4-.215a4.319,4.319,0,0,0-1.224-.705c-.169,0-.231.215-.248.352-.183,1.12-1.087,1.5-2.129,1.5-1.244,0-2.7-.659-2.7-2.085,0-1.41,1.335-1.9,2.546-1.9h.4c.183,0,.321-.076.321-.26,0-.492-.231-2.715-.275-3.313,0-.076-.014-.138-.014-.215,0-.245.138-.337.366-.337A6.362,6.362,0,0,1,464.848,119.229Zm-2.868,5.842c0,.476.611.721,1.011.721.552,0,.8-.293.8-.829,0-.307-.014-.474-.783-.474C462.639,124.489,461.98,124.58,461.98,125.071Zm6.7-5.858c0,.368-.874,1.058-1.149,1.058-.154,0-.262-.169-.337-.275a8.74,8.74,0,0,0-1.919-1.979c-.059-.045-.2-.137-.2-.244,0-.215.7-1.058,1.025-1.058A7.859,7.859,0,0,1,468.68,119.213Z" transform="translate(-199.591 -113.862)" fill="#16509f"/>
      <path id="パス_35987" data-name="パス 35987" d="M476.482,116.247c0,.108-.166.2-.334.323a14.713,14.713,0,0,0-2.225,2.054.452.452,0,0,0-.153.261c0,.123.121.2.259.2a.879.879,0,0,0,.2-.032,2.974,2.974,0,0,1,.627-.061,4.509,4.509,0,0,1,1.887.46,3.167,3.167,0,0,1,1.824,2.974c0,2.715-2.408,4.125-4.876,4.125-1.273,0-3.081-.52-3.081-2.085a1.925,1.925,0,0,1,1.962-1.856,2.5,2.5,0,0,1,2.039,1.089,1.522,1.522,0,0,1,.277.982c.016.107.062.2.183.2a2.492,2.492,0,0,0,1.856-2.362c0-1.488-1.256-2.1-2.591-2.1a4.658,4.658,0,0,0-3.436,1.5c-.6.581-1.149,1.21-1.7,1.838a.206.206,0,0,1-.169.108c-.321,0-1.1-.859-1.1-1.1,0-.183.231-.352.368-.46a61.087,61.087,0,0,0,4.768-4.814c.124-.123.4-.4.4-.552s-.137-.185-.261-.185a3.584,3.584,0,0,0-.369.062c-.366.091-2.529.536-2.774.536-.337,0-.383-1.15-.383-1.41,0-.353.014-.385.476-.385h.366a14.191,14.191,0,0,0,3.881-.567,2.069,2.069,0,0,1,.582-.169C475.6,114.821,476.482,115.986,476.482,116.247Zm-3.877,7.605a.634.634,0,0,0-.659.614c0,.551.734.813,1.194.813.293,0,.414-.277.414-.522A.937.937,0,0,0,472.6,123.852Z" transform="translate(-194.857 -113.594)" fill="#16509f"/>
    </g>
    <g id="グループ_21100" data-name="グループ 21100" transform="translate(1063.322 363.007)">
      <path id="パス_35988" data-name="パス 35988" d="M477.16,140.27h-4.753c-.123,0-.215.03-.231.229-.014.323-.121.353-.8.353-.659,0-.828-.016-.828-.369,0-.4.03-.812.03-1.211v-2.1c-.016-.092-.046-.183-.153-.183a.155.155,0,0,0-.123.076c-.277.307-1.625,1.687-1.964,1.687s-1.057-.536-1.057-.905c0-.137.123-.229.229-.307a11.081,11.081,0,0,0,3.159-3.587.478.478,0,0,0,.03-.138c0-.169-.138-.215-.275-.229h-.89c-.582,0-1.181.03-1.779.03-.307,0-.307-.138-.307-.567,0-.446,0-.584.307-.584.6,0,1.2.03,1.779.03h3.48c.245,0,.353-.107.353-.368v-.046c0-.26-.108-.368-.353-.368h-2.04c-.551,0-1.1.03-1.671.03-.307,0-.291-.183-.291-.551s0-.552.291-.552c.568,0,1.12.03,1.671.03h2.1c.216,0,.293-.076.293-.291v-.138c0-.215-.076-.291-.277-.291h-3.113c-.6,0-1.179.03-1.778.03-.323,0-.307-.2-.307-.582,0-.414,0-.582.307-.582.6,0,1.181.032,1.778.032h.982c.124,0,.247-.048.247-.2a.243.243,0,0,0-.048-.138c-.2-.291-.353-.474-.583-.767a.345.345,0,0,1-.123-.213c0-.277.92-.568,1.119-.568.231,0,.445.275.584.46a3.861,3.861,0,0,1,.613.95c0,.17-.277.293-.415.353-.013.016-.045.032-.045.062,0,.046.032.062.076.062h2.683a.59.59,0,0,0,.614-.323,9.452,9.452,0,0,0,.691-1.349c.03-.123.075-.229.213-.229a6.459,6.459,0,0,1,.966.322c.231.076.689.245.689.383s-.2.169-.3.183a.272.272,0,0,0-.2.138c-.122.169-.215.353-.323.522a.306.306,0,0,0-.045.153c0,.153.122.185.245.2h.828c.582,0,1.166-.032,1.763-.032.322,0,.322.154.322.582,0,.4,0,.582-.306.582-.6,0-1.2-.03-1.779-.03h-3.157c-.2,0-.291.076-.291.277v.153c0,.215.075.291.291.291H477.4c.568,0,1.12-.03,1.674-.03.306,0,.306.153.306.552,0,.384,0,.551-.293.551-.567,0-1.119-.03-1.687-.03h-2.039c-.26,0-.366.108-.366.368v.046c0,.261.107.368.366.368h3.528c.582,0,1.179-.03,1.778-.03.323,0,.307.154.307.584,0,.414.016.567-.307.567-.6,0-1.2-.03-1.778-.03h-6.1a.451.451,0,0,0-.443.43c0,.167.137.229.29.229h4.386c.43,0,.859-.016,1.287-.016.49,0,.706.154.706.675,0,.4-.016.8-.016,1.2v3.2c0,.415.03.813.03,1.228,0,.352-.185.352-.812.352-.753,0-.815-.03-.828-.4C477.391,140.285,477.267,140.27,477.16,140.27Zm-.032-4.325a.266.266,0,0,0,.291-.291v-.061a.278.278,0,0,0-.291-.307h-4.691a.278.278,0,0,0-.291.307v.061a.266.266,0,0,0,.291.291Zm-4.691.936a.282.282,0,0,0-.291.291v.092a.266.266,0,0,0,.291.291h4.691a.266.266,0,0,0,.291-.291v-.092a.273.273,0,0,0-.291-.291Zm0,1.657a.282.282,0,0,0-.291.291v.092a.282.282,0,0,0,.291.291h4.691a.273.273,0,0,0,.291-.291v-.092a.273.273,0,0,0-.291-.291Z" transform="translate(-467.286 -126.946)" fill="#16509f"/>
      <path id="パス_35989" data-name="パス 35989" d="M476.58,151.748a.359.359,0,0,0-.414-.414h-5.229c-.275,0-.414.123-.414.4v.153c0,.46-.2.444-.874.444-.644,0-.875.016-.875-.444,0-.6.046-1.211.046-1.825v-8.647c0-.49-.03-1-.03-1.488,0-.582.261-.766.812-.766.445,0,.891.03,1.351.03h5.2c.445,0,.89-.03,1.334-.03.584,0,.828.183.828.781,0,.49-.029.982-.029,1.472v8.679c0,.6.029,1.211.029,1.808,0,.476-.2.446-.872.446h-.275c-.369,0-.584-.03-.584-.384Zm-.4-9.093a.427.427,0,0,0,.43-.428v-1.1a.438.438,0,0,0-.43-.43h-5.274a.407.407,0,0,0-.414.43v1.1c0,.275.153.4.414.428Zm-5.688,3.052a.4.4,0,0,0,.414.428h5.274a.436.436,0,0,0,.43-.428v-1.181a.437.437,0,0,0-.43-.43h-5.274a.406.406,0,0,0-.414.43Zm0,3.665a.4.4,0,0,0,.414.428h5.274a.436.436,0,0,0,.43-.428v-1.38a.406.406,0,0,0-.43-.415h-5.274a.38.38,0,0,0-.414.415Z" transform="translate(-466.629 -121.551)" fill="#16509f"/>
      <path id="パス_35990" data-name="パス 35990" d="M478.311,152.934a5.192,5.192,0,0,1,1.55,3.772,5.509,5.509,0,0,1-2.992,4.952,5.943,5.943,0,0,1-1.671.614c-.4,0-1.028-.95-1.028-1.287,0-.154.231-.185.385-.215,2.007-.476,3.587-1.795,3.587-3.986a3.719,3.719,0,0,0-2.452-3.665,2.69,2.69,0,0,0-.582-.138c-.353,0-.353.337-.369.6-.169,2.24-.7,4.97-2.177,6.731a2.749,2.749,0,0,1-2.024,1.182,2.476,2.476,0,0,1-2.086-1.458,4.822,4.822,0,0,1-.474-2.177,6.317,6.317,0,0,1,6.362-6.44A5.458,5.458,0,0,1,478.311,152.934Zm-5.964.444a4.746,4.746,0,0,0-2.759,4.416c0,.568.2,1.994.98,1.994s1.625-1.747,2.055-3.312a15.53,15.53,0,0,0,.492-2.99.242.242,0,0,0-.245-.275A1.747,1.747,0,0,0,472.347,153.378Z" transform="translate(-466.981 -116.137)" fill="#16509f"/>
      <path id="パス_35991" data-name="パス 35991" d="M471.968,169.216c0,.076-.107.123-.167.153-.262.076-.262.092-.477.353-.353.428-2.207,2.591-2.651,2.591-.261,0-1.089-.735-1.089-1.028,0-.153.229-.291.352-.383a8.457,8.457,0,0,0,2.116-2.314c.062-.108.153-.307.291-.307a6.073,6.073,0,0,1,1.041.476C471.523,168.833,471.968,169.048,471.968,169.216Zm.843-3.8c.322,0,.43-.229.43-.506v-.215a14.354,14.354,0,0,0-.061-1.794c0-.061-.016-.123-.016-.185,0-.183.123-.215.275-.215.261,0,.767.092,1.058.124.353.045.7.061.7.229a.251.251,0,0,1-.122.2c-.2.2-.213.307-.213,1.028v.828c0,.369.2.506.428.506H477.7c.66,0,1.335-.03,2.01-.03.4,0,.383.215.383.89,0,.552-.016.751-.415.751-.659,0-1.318-.032-1.978-.032h-2.376a.461.461,0,0,0-.458.461v3.587c0,.307.014.6.014.905,0,.828,0,1.548-.858,1.978a4.763,4.763,0,0,1-1.658.444c-.245,0-.352-.153-.552-.536a2.846,2.846,0,0,1-.291-.829c0-.245.353-.229.538-.245,1.243-.091,1.181-.567,1.181-1.671v-3.633a.453.453,0,0,0-.461-.461h-2.36c-.644,0-1.287.032-1.932.032-.4,0-.4-.261-.4-.767,0-.629-.014-.874.384-.874s1.319.03,1.948.03Zm6.272,4.141c.245.245,1.349,1.318,1.349,1.61,0,.322-.813,1.057-1.058,1.057-.153,0-.277-.169-.368-.291a15.026,15.026,0,0,0-2.285-2.346c-.108-.076-.261-.2-.261-.337,0-.231.63-1,.95-1C477.764,168.25,478.792,169.277,479.083,169.554Zm2.024-6.532a1.526,1.526,0,1,1-3.052,0,1.512,1.512,0,0,1,1.518-1.518A1.536,1.536,0,0,1,481.107,163.021Zm-2.346,0a.811.811,0,0,0,.812.828.82.82,0,1,0,0-1.641A.807.807,0,0,0,478.762,163.021Z" transform="translate(-467.154 -111.681)" fill="#16509f"/>
      <path id="パス_35992" data-name="パス 35992" d="M475.11,183.743c0,.675.03,1.349.03,2.01,0,.414-.2.46-.766.46-.843,0-1-.046-1-.446,0-.659.029-1.319.029-1.978v-4.171c0-.091.046-.43-.245-.43-.153,0-.474.262-.6.353a18.951,18.951,0,0,1-3.3,1.962,2.576,2.576,0,0,1-1.2-1.225c0-.154.138-.215.245-.261a22.09,22.09,0,0,0,6.026-4.063,13.078,13.078,0,0,0,2.085-2.592c.046-.076.138-.229.245-.229a5.656,5.656,0,0,1,1.042.629c.17.107.6.368.6.552,0,.092-.076.123-.153.153a.823.823,0,0,0-.6.368,30.308,30.308,0,0,1-2.1,2.3.812.812,0,0,0-.353.689Z" transform="translate(-466.938 -106.544)" fill="#16509f"/>
      <path id="パス_35993" data-name="パス 35993" d="M479.876,188.9c0,.261-.614.859-.813,1.058a26.636,26.636,0,0,1-8.326,5.781c-.506.245-.522.261-.644.52a.152.152,0,0,1-.153.092c-.169,0-.492-.613-.6-.8a4.351,4.351,0,0,1-.46-.92c0-.169.275-.2.476-.261a20.978,20.978,0,0,0,9.4-6.669.377.377,0,0,1,.261-.169C479.323,187.535,479.876,188.669,479.876,188.9Zm-7.914-2.529c.2.137.937.643.937.874,0,.353-.721,1.181-1.012,1.181a1.65,1.65,0,0,1-.614-.414,19.11,19.11,0,0,0-2.039-1.427c-.123-.076-.247-.153-.247-.291,0-.229.614-1.211.967-1.211A12.172,12.172,0,0,1,471.962,186.37Z" transform="translate(-466.581 -101.266)" fill="#16509f"/>
      <path id="パス_35994" data-name="パス 35994" d="M473.279,200.015a10.555,10.555,0,0,1,2.147,1.472c.213.185,1.073.843,1.073,1.1s-.721,1.058-1.028,1.058a.551.551,0,0,1-.336-.2,23.117,23.117,0,0,0-2.223-1.794.284.284,0,0,0-.154-.061c-.137,0-.185.123-.185.245v4.185c0,.614.032,1.211.032,1.825,0,.705-.016.8-.95.8-.614,0-.875-.016-.875-.522,0-.689.045-1.38.045-2.07v-8.74c0-.4-.029-.812-.045-1.2,0-.076-.016-.215-.016-.277,0-.153.048-.229.2-.229.094,0,.414.046.522.061.691.092,1.319.154,1.319.369a.459.459,0,0,1-.076.2,1.233,1.233,0,0,0-.169.813c0,.229.014.52.014.9v2.3c0,.123.076.154.123.154a.167.167,0,0,0,.138-.062C472.94,200.23,473.109,200.015,473.279,200.015Z" transform="translate(-465.75 -96.613)" fill="#16509f"/>
    </g>
  </g>
</svg>
